%
M48
M72
T01C0.0240
T02C0.0320
T03C0.0400
T04C0.1102
%
T01
X7475Y10413
X6538Y8725
X6913Y7725
X7288Y4600
X6163Y3100
X2600Y3788
X2288Y6850
X6225Y15163
X7413Y15600
T02
X8850Y2600
X8850Y3600
X8850Y4600
X8850Y5600
X8850Y6600
X8850Y7600
X8850Y8600
X8850Y9600
X8850Y10600
X8850Y11600
X8850Y12600
X8850Y13600
X8850Y14600
X8850Y15600
X8850Y16850
X9350Y18100
X10350Y18100
X11350Y18100
X850Y19600
X850Y18600
X850Y16600
X1850Y16600
X2850Y16600
X3850Y16850
X4850Y16850
X5850Y16850
X5850Y15600
X5850Y14600
X5850Y13600
X5850Y12600
X5850Y11600
X5850Y10600
X5850Y9600
X5850Y8600
X5850Y7600
X5850Y6600
X5850Y5600
X5850Y4600
X5850Y3600
X5850Y2600
X4350Y2100
X4350Y1100
X4350Y3100
X4350Y4100
X4350Y5100
X4350Y6100
X4350Y7100
X4350Y8600
X4350Y9600
X4350Y10600
X4350Y11600
X4350Y12600
X4350Y13600
X4350Y14600
X3850Y18600
X3850Y19600
X4850Y19600
X4850Y18600
X6850Y16850
X7850Y16850
X7850Y18600
X7850Y19600
X1350Y14600
X1350Y13600
X1350Y12600
X1350Y11600
X1350Y10600
X1350Y9600
X1350Y8600
X1350Y7100
X1350Y6100
X1350Y5100
X1350Y4100
X1350Y3100
X1350Y2100
X1350Y1100
T03
X12850Y20100
X11850Y20100
X10850Y20100
X9850Y20100
X8350Y21100
X7350Y21100
X6350Y21100
X5350Y21100
X4350Y21100
X3350Y21100
X2350Y21100
X1350Y21100
X10850Y16100
X10850Y15100
X10850Y14100
X10850Y13100
X10850Y12100
X10850Y11100
X10850Y10100
X10850Y9100
X10850Y8100
X10850Y7100
X10850Y6100
X10850Y5100
X10850Y4100
X10850Y3100
X10850Y2100
X10850Y1100
T04
X7350Y1350
X12600Y17600
M30
