G75*
%MOIN*%
%OFA0B0*%
%FSLAX25Y25*%
%IPPOS*%
%LPD*%
%AMOC8*
5,1,8,0,0,1.08239X$1,22.5*
%
%ADD10C,0.05200*%
%ADD11OC8,0.05200*%
%ADD12C,0.06000*%
%ADD13C,0.01000*%
%ADD14C,0.04000*%
%ADD15C,0.01600*%
D10*
X0013400Y0011000D02*
X0018600Y0011000D01*
X0018600Y0021000D02*
X0013400Y0021000D01*
X0013400Y0031000D02*
X0018600Y0031000D01*
X0018600Y0041000D02*
X0013400Y0041000D01*
X0013400Y0051000D02*
X0018600Y0051000D01*
X0018600Y0061000D02*
X0013400Y0061000D01*
X0013400Y0071000D02*
X0018600Y0071000D01*
X0018600Y0086000D02*
X0013400Y0086000D01*
X0013400Y0096000D02*
X0018600Y0096000D01*
X0018600Y0106000D02*
X0013400Y0106000D01*
X0013400Y0116000D02*
X0018600Y0116000D01*
X0018600Y0126000D02*
X0013400Y0126000D01*
X0013400Y0136000D02*
X0018600Y0136000D01*
X0018600Y0146000D02*
X0013400Y0146000D01*
X0011000Y0163400D02*
X0011000Y0168600D01*
X0021000Y0168600D02*
X0021000Y0163400D01*
X0031000Y0163400D02*
X0031000Y0168600D01*
X0041000Y0171100D02*
X0041000Y0165900D01*
X0051000Y0165900D02*
X0051000Y0171100D01*
X0061000Y0171100D02*
X0061000Y0165900D01*
X0071000Y0165900D02*
X0071000Y0171100D01*
X0081000Y0171100D02*
X0081000Y0165900D01*
X0091000Y0165900D02*
X0091000Y0171100D01*
X0096000Y0178400D02*
X0096000Y0183600D01*
X0106000Y0183600D02*
X0106000Y0178400D01*
X0116000Y0178400D02*
X0116000Y0183600D01*
X0048600Y0146000D02*
X0043400Y0146000D01*
X0043400Y0136000D02*
X0048600Y0136000D01*
X0048600Y0126000D02*
X0043400Y0126000D01*
X0043400Y0116000D02*
X0048600Y0116000D01*
X0048600Y0106000D02*
X0043400Y0106000D01*
X0043400Y0096000D02*
X0048600Y0096000D01*
X0048600Y0086000D02*
X0043400Y0086000D01*
X0043400Y0071000D02*
X0048600Y0071000D01*
X0048600Y0061000D02*
X0043400Y0061000D01*
X0043400Y0051000D02*
X0048600Y0051000D01*
X0048600Y0041000D02*
X0043400Y0041000D01*
X0043400Y0031000D02*
X0048600Y0031000D01*
X0048600Y0021000D02*
X0043400Y0021000D01*
X0043400Y0011000D02*
X0048600Y0011000D01*
D11*
X0061000Y0026000D03*
X0061000Y0036000D03*
X0061000Y0046000D03*
X0061000Y0056000D03*
X0061000Y0066000D03*
X0061000Y0076000D03*
X0061000Y0086000D03*
X0061000Y0096000D03*
X0061000Y0106000D03*
X0061000Y0116000D03*
X0061000Y0126000D03*
X0061000Y0136000D03*
X0061000Y0146000D03*
X0061000Y0156000D03*
X0051000Y0186000D03*
X0051000Y0196000D03*
X0041000Y0196000D03*
X0041000Y0186000D03*
X0011000Y0186000D03*
X0011000Y0196000D03*
X0081000Y0196000D03*
X0081000Y0186000D03*
X0091000Y0156000D03*
X0091000Y0146000D03*
X0091000Y0136000D03*
X0091000Y0126000D03*
X0091000Y0116000D03*
X0091000Y0106000D03*
X0091000Y0096000D03*
X0091000Y0086000D03*
X0091000Y0076000D03*
X0091000Y0066000D03*
X0091000Y0056000D03*
X0091000Y0046000D03*
X0091000Y0036000D03*
X0091000Y0026000D03*
D12*
X0108000Y0021000D02*
X0114000Y0021000D01*
X0114000Y0011000D02*
X0108000Y0011000D01*
X0108000Y0031000D02*
X0114000Y0031000D01*
X0114000Y0041000D02*
X0108000Y0041000D01*
X0108000Y0051000D02*
X0114000Y0051000D01*
X0114000Y0061000D02*
X0108000Y0061000D01*
X0108000Y0071000D02*
X0114000Y0071000D01*
X0114000Y0081000D02*
X0108000Y0081000D01*
X0108000Y0091000D02*
X0114000Y0091000D01*
X0114000Y0101000D02*
X0108000Y0101000D01*
X0108000Y0111000D02*
X0114000Y0111000D01*
X0114000Y0121000D02*
X0108000Y0121000D01*
X0108000Y0131000D02*
X0114000Y0131000D01*
X0114000Y0141000D02*
X0108000Y0141000D01*
X0108000Y0151000D02*
X0114000Y0151000D01*
X0114000Y0161000D02*
X0108000Y0161000D01*
X0111000Y0198000D02*
X0111000Y0204000D01*
X0101000Y0204000D02*
X0101000Y0198000D01*
X0086000Y0208000D02*
X0086000Y0214000D01*
X0076000Y0214000D02*
X0076000Y0208000D01*
X0066000Y0208000D02*
X0066000Y0214000D01*
X0056000Y0214000D02*
X0056000Y0208000D01*
X0046000Y0208000D02*
X0046000Y0214000D01*
X0036000Y0214000D02*
X0036000Y0208000D01*
X0026000Y0208000D02*
X0026000Y0214000D01*
X0016000Y0214000D02*
X0016000Y0208000D01*
X0121000Y0204000D02*
X0121000Y0198000D01*
X0131000Y0198000D02*
X0131000Y0204000D01*
D13*
X0006000Y0091000D02*
X0006000Y0011000D01*
X0011000Y0006000D01*
X0038500Y0006000D01*
X0041000Y0008500D01*
X0043500Y0008500D01*
X0046000Y0011000D01*
X0046000Y0031000D02*
X0048500Y0033500D01*
X0036000Y0033500D01*
X0036000Y0051000D01*
X0046000Y0051000D01*
X0046000Y0061000D02*
X0056000Y0071000D01*
X0071000Y0071000D01*
X0071000Y0066000D02*
X0086000Y0051000D01*
X0098500Y0051000D01*
X0108500Y0041000D01*
X0111000Y0041000D01*
X0111000Y0031000D02*
X0118500Y0031000D01*
X0118500Y0073500D01*
X0116000Y0076000D01*
X0103500Y0076000D01*
X0098500Y0081000D01*
X0066000Y0081000D01*
X0061000Y0076000D01*
X0053500Y0078500D02*
X0061000Y0086000D01*
X0063500Y0086000D01*
X0068500Y0091000D01*
X0111000Y0091000D01*
X0111000Y0101000D02*
X0071000Y0101000D01*
X0068500Y0098500D01*
X0066000Y0098500D01*
X0063500Y0096000D01*
X0061000Y0096000D01*
X0058500Y0096000D01*
X0053500Y0091000D01*
X0038500Y0091000D01*
X0033500Y0086000D01*
X0033500Y0081000D02*
X0018500Y0096000D01*
X0016000Y0096000D01*
X0013500Y0088500D02*
X0011000Y0088500D01*
X0008500Y0091000D01*
X0006000Y0091000D01*
X0008500Y0091000D02*
X0008500Y0106000D01*
X0016000Y0106000D01*
X0018500Y0106000D01*
X0021000Y0108500D01*
X0031000Y0108500D01*
X0041000Y0098500D01*
X0043500Y0098500D01*
X0046000Y0096000D01*
X0048500Y0096000D01*
X0053500Y0101000D01*
X0066000Y0101000D01*
X0068500Y0103500D01*
X0088500Y0103500D01*
X0091000Y0106000D01*
X0088500Y0113500D02*
X0076000Y0113500D01*
X0073500Y0111000D01*
X0053500Y0111000D01*
X0048500Y0106000D01*
X0046000Y0106000D01*
X0043500Y0113500D02*
X0041000Y0113500D01*
X0036000Y0108500D01*
X0031000Y0108500D01*
X0018500Y0116000D02*
X0023500Y0121000D01*
X0053500Y0121000D01*
X0046000Y0116000D02*
X0043500Y0113500D01*
X0046000Y0136000D02*
X0048500Y0136000D01*
X0053500Y0141000D01*
X0096000Y0141000D01*
X0096000Y0151000D01*
X0091000Y0156000D01*
X0086000Y0151000D02*
X0053500Y0151000D01*
X0048500Y0146000D01*
X0046000Y0146000D01*
X0051000Y0156000D02*
X0056000Y0161000D01*
X0076000Y0161000D01*
X0081000Y0166000D01*
X0081000Y0168500D01*
X0071000Y0168500D02*
X0071000Y0178500D01*
X0091000Y0178500D01*
X0093500Y0181000D01*
X0096000Y0181000D01*
X0106000Y0181000D02*
X0106000Y0168500D01*
X0098500Y0161000D01*
X0098500Y0128500D01*
X0096000Y0128500D01*
X0093500Y0126000D01*
X0091000Y0126000D01*
X0088500Y0126000D01*
X0083500Y0131000D01*
X0023500Y0131000D01*
X0021000Y0133500D01*
X0018500Y0133500D01*
X0016000Y0136000D01*
X0016000Y0146000D02*
X0016000Y0156000D01*
X0051000Y0156000D01*
X0041000Y0186000D02*
X0026000Y0201000D01*
X0023500Y0201000D01*
X0016000Y0208500D01*
X0016000Y0211000D01*
X0013500Y0186000D02*
X0011000Y0186000D01*
X0013500Y0186000D02*
X0016000Y0183500D01*
X0031000Y0183500D01*
X0031000Y0166000D01*
X0043500Y0201000D02*
X0036000Y0208500D01*
X0036000Y0211000D01*
X0043500Y0201000D02*
X0076000Y0201000D01*
X0081000Y0196000D01*
X0086000Y0211000D02*
X0131000Y0211000D01*
X0131000Y0201000D01*
X0131000Y0191000D01*
X0128500Y0191000D01*
X0121000Y0183500D01*
X0121000Y0016000D01*
X0101000Y0016000D01*
X0098500Y0018500D01*
X0098500Y0033500D01*
X0096000Y0033500D01*
X0093500Y0036000D01*
X0091000Y0036000D01*
X0088500Y0036000D01*
X0086000Y0038500D01*
X0083500Y0038500D01*
X0081000Y0041000D01*
X0046000Y0041000D01*
X0048500Y0033500D02*
X0056000Y0033500D01*
X0058500Y0036000D01*
X0061000Y0036000D01*
X0063500Y0036000D01*
X0066000Y0033500D01*
X0083500Y0033500D01*
X0091000Y0026000D01*
X0101000Y0036000D02*
X0096000Y0041000D01*
X0086000Y0041000D01*
X0083500Y0043500D01*
X0063500Y0043500D01*
X0061000Y0046000D01*
X0068500Y0048500D02*
X0061000Y0056000D01*
X0061000Y0066000D02*
X0071000Y0066000D01*
X0073500Y0048500D02*
X0068500Y0048500D01*
X0061000Y0026000D02*
X0033500Y0026000D01*
X0021000Y0038500D01*
X0018500Y0038500D01*
X0016000Y0041000D01*
X0013500Y0033500D02*
X0011000Y0033500D01*
X0008500Y0036000D01*
X0008500Y0051000D01*
X0016000Y0051000D01*
X0036000Y0051000D01*
X0021000Y0063500D02*
X0036000Y0078500D01*
X0053500Y0078500D01*
X0051000Y0081000D02*
X0033500Y0081000D01*
X0021000Y0063500D02*
X0018500Y0063500D01*
X0016000Y0061000D01*
X0016000Y0086000D02*
X0013500Y0088500D01*
X0016000Y0116000D02*
X0018500Y0116000D01*
X0051000Y0081000D02*
X0053500Y0083500D01*
X0053500Y0086000D01*
X0058500Y0091000D01*
X0063500Y0091000D01*
X0066000Y0093500D01*
X0088500Y0093500D01*
X0091000Y0096000D01*
X0088500Y0113500D02*
X0091000Y0116000D01*
X0078500Y0111000D02*
X0076000Y0108500D01*
X0066000Y0108500D01*
X0063500Y0106000D01*
X0061000Y0106000D01*
X0061000Y0116000D02*
X0063500Y0116000D01*
X0068500Y0121000D01*
X0111000Y0121000D01*
X0111000Y0111000D02*
X0078500Y0111000D01*
X0091000Y0146000D02*
X0086000Y0151000D01*
X0101000Y0036000D02*
X0101000Y0021000D01*
X0111000Y0021000D01*
X0016000Y0031000D02*
X0013500Y0033500D01*
D14*
X0033500Y0086000D03*
X0053500Y0121000D03*
X0071000Y0071000D03*
X0073500Y0048500D03*
D15*
X0070509Y0050600D02*
X0071461Y0051552D01*
X0072784Y0052100D01*
X0074216Y0052100D01*
X0075539Y0051552D01*
X0076552Y0050539D01*
X0077100Y0049216D01*
X0077100Y0047784D01*
X0076552Y0046461D01*
X0075691Y0045600D01*
X0084370Y0045600D01*
X0086870Y0043100D01*
X0087960Y0043100D01*
X0086800Y0044260D01*
X0086800Y0047740D01*
X0087960Y0048900D01*
X0085130Y0048900D01*
X0083900Y0050130D01*
X0070130Y0063900D01*
X0064840Y0063900D01*
X0062740Y0061800D01*
X0059260Y0061800D01*
X0056800Y0064260D01*
X0056800Y0067740D01*
X0057960Y0068900D01*
X0056870Y0068900D01*
X0051755Y0063785D01*
X0052161Y0063379D01*
X0052800Y0061835D01*
X0052800Y0060165D01*
X0052161Y0058621D01*
X0050979Y0057439D01*
X0049435Y0056800D01*
X0042565Y0056800D01*
X0041021Y0057439D01*
X0039839Y0058621D01*
X0039200Y0060165D01*
X0039200Y0061835D01*
X0039839Y0063379D01*
X0041021Y0064561D01*
X0042565Y0065200D01*
X0047230Y0065200D01*
X0048830Y0066800D01*
X0042565Y0066800D01*
X0041021Y0067439D01*
X0039839Y0068621D01*
X0039200Y0070165D01*
X0039200Y0071835D01*
X0039839Y0073379D01*
X0041021Y0074561D01*
X0042565Y0075200D01*
X0049435Y0075200D01*
X0050979Y0074561D01*
X0052161Y0073379D01*
X0052800Y0071835D01*
X0052800Y0070770D01*
X0053900Y0071870D01*
X0055130Y0073100D01*
X0057960Y0073100D01*
X0056800Y0074260D01*
X0056800Y0077740D01*
X0059260Y0080200D01*
X0062230Y0080200D01*
X0063900Y0081870D01*
X0065130Y0083100D01*
X0087960Y0083100D01*
X0086800Y0084260D01*
X0086800Y0087740D01*
X0087960Y0088900D01*
X0069370Y0088900D01*
X0065600Y0085130D01*
X0065200Y0084730D01*
X0065200Y0084260D01*
X0062740Y0081800D01*
X0059770Y0081800D01*
X0054370Y0076400D01*
X0036870Y0076400D01*
X0022655Y0062185D01*
X0022800Y0061835D01*
X0022800Y0060165D01*
X0022161Y0058621D01*
X0020979Y0057439D01*
X0019435Y0056800D01*
X0012565Y0056800D01*
X0011021Y0057439D01*
X0011000Y0057460D01*
X0011000Y0054540D01*
X0011021Y0054561D01*
X0012565Y0055200D01*
X0019435Y0055200D01*
X0020979Y0054561D01*
X0022161Y0053379D01*
X0022276Y0053100D01*
X0039724Y0053100D01*
X0039839Y0053379D01*
X0041021Y0054561D01*
X0042565Y0055200D01*
X0049435Y0055200D01*
X0050979Y0054561D01*
X0052161Y0053379D01*
X0052800Y0051835D01*
X0052800Y0050165D01*
X0052161Y0048621D01*
X0050979Y0047439D01*
X0049435Y0046800D01*
X0042565Y0046800D01*
X0041021Y0047439D01*
X0039839Y0048621D01*
X0039724Y0048900D01*
X0038100Y0048900D01*
X0038100Y0035600D01*
X0055130Y0035600D01*
X0056400Y0036870D01*
X0056800Y0037270D01*
X0056800Y0037740D01*
X0057960Y0038900D01*
X0052276Y0038900D01*
X0052161Y0038621D01*
X0050979Y0037439D01*
X0049435Y0036800D01*
X0042565Y0036800D01*
X0041021Y0037439D01*
X0039839Y0038621D01*
X0039200Y0040165D01*
X0039200Y0041835D01*
X0039839Y0043379D01*
X0041021Y0044561D01*
X0042565Y0045200D01*
X0049435Y0045200D01*
X0050979Y0044561D01*
X0052161Y0043379D01*
X0052276Y0043100D01*
X0057960Y0043100D01*
X0056800Y0044260D01*
X0056800Y0047740D01*
X0059260Y0050200D01*
X0062740Y0050200D01*
X0065200Y0047740D01*
X0065200Y0045600D01*
X0071309Y0045600D01*
X0070509Y0046400D01*
X0067630Y0046400D01*
X0066400Y0047630D01*
X0062230Y0051800D01*
X0059260Y0051800D01*
X0056800Y0054260D01*
X0056800Y0057740D01*
X0059260Y0060200D01*
X0062740Y0060200D01*
X0065200Y0057740D01*
X0065200Y0054770D01*
X0069370Y0050600D01*
X0070509Y0050600D01*
X0067817Y0052152D02*
X0081878Y0052152D01*
X0083476Y0050554D02*
X0076537Y0050554D01*
X0077100Y0048955D02*
X0085075Y0048955D01*
X0086800Y0047357D02*
X0076923Y0047357D01*
X0075849Y0045758D02*
X0086800Y0045758D01*
X0086900Y0044160D02*
X0085810Y0044160D01*
X0080130Y0038900D02*
X0081400Y0037630D01*
X0082630Y0036400D01*
X0085130Y0036400D01*
X0086400Y0035130D01*
X0086800Y0034730D01*
X0086800Y0034260D01*
X0089260Y0031800D01*
X0092740Y0031800D01*
X0093735Y0032795D01*
X0095130Y0031400D01*
X0096400Y0031400D01*
X0096400Y0017630D01*
X0097630Y0016400D01*
X0100130Y0013900D01*
X0104395Y0013900D01*
X0104100Y0013606D01*
X0103400Y0011915D01*
X0103400Y0010085D01*
X0104100Y0008394D01*
X0105394Y0007100D01*
X0107085Y0006400D01*
X0114915Y0006400D01*
X0116000Y0006849D01*
X0116000Y0006000D01*
X0083812Y0006000D01*
X0085131Y0009184D01*
X0085131Y0012816D01*
X0083741Y0016172D01*
X0081172Y0018741D01*
X0077816Y0020131D01*
X0074184Y0020131D01*
X0070828Y0018741D01*
X0068259Y0016172D01*
X0066869Y0012816D01*
X0066869Y0009184D01*
X0068188Y0006000D01*
X0041470Y0006000D01*
X0041870Y0006400D01*
X0044370Y0006400D01*
X0044770Y0006800D01*
X0049435Y0006800D01*
X0050979Y0007439D01*
X0052161Y0008621D01*
X0052800Y0010165D01*
X0052800Y0011835D01*
X0052161Y0013379D01*
X0050979Y0014561D01*
X0049435Y0015200D01*
X0042565Y0015200D01*
X0041021Y0014561D01*
X0039839Y0013379D01*
X0039200Y0011835D01*
X0039200Y0010165D01*
X0039345Y0009815D01*
X0037630Y0008100D01*
X0021640Y0008100D01*
X0022161Y0008621D01*
X0022800Y0010165D01*
X0022800Y0011835D01*
X0022161Y0013379D01*
X0020979Y0014561D01*
X0019435Y0015200D01*
X0012565Y0015200D01*
X0011021Y0014561D01*
X0011000Y0014540D01*
X0011000Y0017460D01*
X0011021Y0017439D01*
X0012565Y0016800D01*
X0019435Y0016800D01*
X0020979Y0017439D01*
X0022161Y0018621D01*
X0022800Y0020165D01*
X0022800Y0021835D01*
X0022161Y0023379D01*
X0020979Y0024561D01*
X0019435Y0025200D01*
X0012565Y0025200D01*
X0011021Y0024561D01*
X0011000Y0024540D01*
X0011000Y0027460D01*
X0011021Y0027439D01*
X0012565Y0026800D01*
X0019435Y0026800D01*
X0020979Y0027439D01*
X0022161Y0028621D01*
X0022800Y0030165D01*
X0022800Y0031835D01*
X0022161Y0033379D01*
X0020979Y0034561D01*
X0019435Y0035200D01*
X0014770Y0035200D01*
X0014370Y0035600D01*
X0011870Y0035600D01*
X0011000Y0036470D01*
X0011000Y0037460D01*
X0011021Y0037439D01*
X0012565Y0036800D01*
X0017230Y0036800D01*
X0017630Y0036400D01*
X0020130Y0036400D01*
X0031400Y0025130D01*
X0032630Y0023900D01*
X0040360Y0023900D01*
X0039839Y0023379D01*
X0039200Y0021835D01*
X0039200Y0020165D01*
X0039839Y0018621D01*
X0041021Y0017439D01*
X0042565Y0016800D01*
X0049435Y0016800D01*
X0050979Y0017439D01*
X0052161Y0018621D01*
X0052800Y0020165D01*
X0052800Y0021835D01*
X0052161Y0023379D01*
X0051640Y0023900D01*
X0057160Y0023900D01*
X0059260Y0021800D01*
X0062740Y0021800D01*
X0065200Y0024260D01*
X0065200Y0027740D01*
X0062740Y0030200D01*
X0059260Y0030200D01*
X0057160Y0028100D01*
X0051640Y0028100D01*
X0052161Y0028621D01*
X0052800Y0030165D01*
X0052800Y0031400D01*
X0056870Y0031400D01*
X0058265Y0032795D01*
X0059260Y0031800D01*
X0062740Y0031800D01*
X0063735Y0032795D01*
X0065130Y0031400D01*
X0082630Y0031400D01*
X0086800Y0027230D01*
X0086800Y0024260D01*
X0089260Y0021800D01*
X0092740Y0021800D01*
X0095200Y0024260D01*
X0095200Y0027740D01*
X0092740Y0030200D01*
X0089770Y0030200D01*
X0085600Y0034370D01*
X0084370Y0035600D01*
X0066870Y0035600D01*
X0065600Y0036870D01*
X0065200Y0037270D01*
X0065200Y0037740D01*
X0064040Y0038900D01*
X0080130Y0038900D01*
X0081264Y0037766D02*
X0065174Y0037766D01*
X0066303Y0036167D02*
X0085363Y0036167D01*
X0086400Y0035130D02*
X0086400Y0035130D01*
X0086800Y0034569D02*
X0085401Y0034569D01*
X0087000Y0032970D02*
X0088090Y0032970D01*
X0088598Y0031372D02*
X0096400Y0031372D01*
X0096400Y0029773D02*
X0093166Y0029773D01*
X0094765Y0028175D02*
X0096400Y0028175D01*
X0096400Y0026576D02*
X0095200Y0026576D01*
X0095200Y0024978D02*
X0096400Y0024978D01*
X0096400Y0023379D02*
X0094319Y0023379D01*
X0096400Y0021781D02*
X0052800Y0021781D01*
X0052800Y0020182D02*
X0096400Y0020182D01*
X0096400Y0018584D02*
X0081329Y0018584D01*
X0082928Y0016985D02*
X0097045Y0016985D01*
X0098644Y0015387D02*
X0084066Y0015387D01*
X0084728Y0013788D02*
X0104283Y0013788D01*
X0103514Y0012190D02*
X0085131Y0012190D01*
X0085131Y0010591D02*
X0103400Y0010591D01*
X0103852Y0008993D02*
X0085051Y0008993D01*
X0084389Y0007394D02*
X0105101Y0007394D01*
X0104395Y0018100D02*
X0101870Y0018100D01*
X0101070Y0018900D01*
X0103891Y0018900D01*
X0104100Y0018394D01*
X0104395Y0018100D01*
X0104022Y0018584D02*
X0101386Y0018584D01*
X0103100Y0023100D02*
X0103100Y0036870D01*
X0101870Y0038100D01*
X0096870Y0043100D01*
X0094040Y0043100D01*
X0095200Y0044260D01*
X0095200Y0047740D01*
X0094040Y0048900D01*
X0097630Y0048900D01*
X0103756Y0042774D01*
X0103400Y0041915D01*
X0103400Y0040085D01*
X0104100Y0038394D01*
X0105394Y0037100D01*
X0107085Y0036400D01*
X0114915Y0036400D01*
X0116000Y0036849D01*
X0116000Y0035151D01*
X0114915Y0035600D01*
X0107085Y0035600D01*
X0105394Y0034900D01*
X0104100Y0033606D01*
X0103400Y0031915D01*
X0103400Y0030085D01*
X0104100Y0028394D01*
X0105394Y0027100D01*
X0107085Y0026400D01*
X0114915Y0026400D01*
X0116000Y0026849D01*
X0116000Y0025151D01*
X0114915Y0025600D01*
X0107085Y0025600D01*
X0105394Y0024900D01*
X0104100Y0023606D01*
X0103891Y0023100D01*
X0103100Y0023100D01*
X0103100Y0023379D02*
X0104006Y0023379D01*
X0103100Y0024978D02*
X0105583Y0024978D01*
X0106660Y0026576D02*
X0103100Y0026576D01*
X0103100Y0028175D02*
X0104320Y0028175D01*
X0103529Y0029773D02*
X0103100Y0029773D01*
X0103100Y0031372D02*
X0103400Y0031372D01*
X0103100Y0032970D02*
X0103837Y0032970D01*
X0103100Y0034569D02*
X0105063Y0034569D01*
X0104729Y0037766D02*
X0102204Y0037766D01*
X0103100Y0036167D02*
X0116000Y0036167D01*
X0116000Y0045151D02*
X0114915Y0045600D01*
X0107085Y0045600D01*
X0106933Y0045537D01*
X0099370Y0053100D01*
X0094040Y0053100D01*
X0095200Y0054260D01*
X0095200Y0057740D01*
X0092740Y0060200D01*
X0089260Y0060200D01*
X0086800Y0057740D01*
X0086800Y0054260D01*
X0087960Y0053100D01*
X0086870Y0053100D01*
X0072320Y0067650D01*
X0073039Y0067948D01*
X0074052Y0068961D01*
X0074600Y0070284D01*
X0074600Y0071716D01*
X0074052Y0073039D01*
X0073039Y0074052D01*
X0071716Y0074600D01*
X0070284Y0074600D01*
X0068961Y0074052D01*
X0068009Y0073100D01*
X0064040Y0073100D01*
X0065200Y0074260D01*
X0065200Y0077230D01*
X0066870Y0078900D01*
X0087960Y0078900D01*
X0086800Y0077740D01*
X0086800Y0074260D01*
X0089260Y0071800D01*
X0092740Y0071800D01*
X0095200Y0074260D01*
X0095200Y0077740D01*
X0094040Y0078900D01*
X0097630Y0078900D01*
X0101400Y0075130D01*
X0102630Y0073900D01*
X0104395Y0073900D01*
X0104100Y0073606D01*
X0103400Y0071915D01*
X0103400Y0070085D01*
X0104100Y0068394D01*
X0105394Y0067100D01*
X0107085Y0066400D01*
X0114915Y0066400D01*
X0116000Y0066849D01*
X0116000Y0065151D01*
X0114915Y0065600D01*
X0107085Y0065600D01*
X0105394Y0064900D01*
X0104100Y0063606D01*
X0103400Y0061915D01*
X0103400Y0060085D01*
X0104100Y0058394D01*
X0105394Y0057100D01*
X0107085Y0056400D01*
X0114915Y0056400D01*
X0116000Y0056849D01*
X0116000Y0055151D01*
X0114915Y0055600D01*
X0107085Y0055600D01*
X0105394Y0054900D01*
X0104100Y0053606D01*
X0103400Y0051915D01*
X0103400Y0050085D01*
X0104100Y0048394D01*
X0105394Y0047100D01*
X0107085Y0046400D01*
X0114915Y0046400D01*
X0116000Y0046849D01*
X0116000Y0045151D01*
X0116000Y0045758D02*
X0106712Y0045758D01*
X0105138Y0047357D02*
X0105113Y0047357D01*
X0103868Y0048955D02*
X0103514Y0048955D01*
X0103400Y0050554D02*
X0101916Y0050554D01*
X0103498Y0052152D02*
X0100317Y0052152D01*
X0099173Y0047357D02*
X0095200Y0047357D01*
X0095200Y0045758D02*
X0100772Y0045758D01*
X0102370Y0044160D02*
X0095099Y0044160D01*
X0097409Y0042561D02*
X0103668Y0042561D01*
X0103400Y0040963D02*
X0099007Y0040963D01*
X0096264Y0037766D02*
X0095174Y0037766D01*
X0095200Y0037740D02*
X0094040Y0038900D01*
X0095130Y0038900D01*
X0098430Y0035600D01*
X0096870Y0035600D01*
X0095600Y0036870D01*
X0095200Y0037270D01*
X0095200Y0037740D01*
X0096303Y0036167D02*
X0097863Y0036167D01*
X0100606Y0039364D02*
X0103699Y0039364D01*
X0104245Y0053751D02*
X0094691Y0053751D01*
X0095200Y0055349D02*
X0106480Y0055349D01*
X0105762Y0056948D02*
X0095200Y0056948D01*
X0094393Y0058546D02*
X0104037Y0058546D01*
X0103400Y0060145D02*
X0092795Y0060145D01*
X0092740Y0061800D02*
X0095200Y0064260D01*
X0095200Y0067740D01*
X0092740Y0070200D01*
X0089260Y0070200D01*
X0086800Y0067740D01*
X0086800Y0064260D01*
X0089260Y0061800D01*
X0092740Y0061800D01*
X0094282Y0063342D02*
X0103991Y0063342D01*
X0103400Y0061743D02*
X0078226Y0061743D01*
X0079825Y0060145D02*
X0089205Y0060145D01*
X0087607Y0058546D02*
X0081423Y0058546D01*
X0083022Y0056948D02*
X0086800Y0056948D01*
X0086800Y0055349D02*
X0084620Y0055349D01*
X0086219Y0053751D02*
X0087309Y0053751D01*
X0080279Y0053751D02*
X0066219Y0053751D01*
X0065200Y0055349D02*
X0078681Y0055349D01*
X0077082Y0056948D02*
X0065200Y0056948D01*
X0064393Y0058546D02*
X0075484Y0058546D01*
X0073885Y0060145D02*
X0062795Y0060145D01*
X0064282Y0063342D02*
X0070688Y0063342D01*
X0072287Y0061743D02*
X0052800Y0061743D01*
X0052792Y0060145D02*
X0059205Y0060145D01*
X0057607Y0058546D02*
X0052086Y0058546D01*
X0049792Y0056948D02*
X0056800Y0056948D01*
X0056800Y0055349D02*
X0011000Y0055349D01*
X0011000Y0056948D02*
X0012207Y0056948D01*
X0011000Y0064540D02*
X0011000Y0067460D01*
X0011021Y0067439D01*
X0012565Y0066800D01*
X0019435Y0066800D01*
X0020979Y0067439D01*
X0022161Y0068621D01*
X0022800Y0070165D01*
X0022800Y0071835D01*
X0022161Y0073379D01*
X0020979Y0074561D01*
X0019435Y0075200D01*
X0012565Y0075200D01*
X0011021Y0074561D01*
X0011000Y0074540D01*
X0011000Y0082460D01*
X0011021Y0082439D01*
X0012565Y0081800D01*
X0019435Y0081800D01*
X0020979Y0082439D01*
X0022161Y0083621D01*
X0022800Y0085165D01*
X0022800Y0086835D01*
X0022161Y0088379D01*
X0020979Y0089561D01*
X0019435Y0090200D01*
X0014770Y0090200D01*
X0014370Y0090600D01*
X0011870Y0090600D01*
X0011000Y0091470D01*
X0011000Y0092460D01*
X0011021Y0092439D01*
X0012565Y0091800D01*
X0019435Y0091800D01*
X0019644Y0091886D01*
X0032630Y0078900D01*
X0033430Y0078900D01*
X0020130Y0065600D01*
X0017630Y0065600D01*
X0017230Y0065200D01*
X0012565Y0065200D01*
X0011021Y0064561D01*
X0011000Y0064540D01*
X0011000Y0064940D02*
X0011938Y0064940D01*
X0011000Y0066539D02*
X0021069Y0066539D01*
X0021677Y0068137D02*
X0022668Y0068137D01*
X0022622Y0069736D02*
X0024266Y0069736D01*
X0022800Y0071334D02*
X0025865Y0071334D01*
X0027463Y0072933D02*
X0022345Y0072933D01*
X0021008Y0074532D02*
X0029062Y0074532D01*
X0030660Y0076130D02*
X0011000Y0076130D01*
X0011000Y0077729D02*
X0032259Y0077729D01*
X0032203Y0079327D02*
X0011000Y0079327D01*
X0011000Y0080926D02*
X0030605Y0080926D01*
X0029006Y0082524D02*
X0021064Y0082524D01*
X0022368Y0084123D02*
X0027408Y0084123D01*
X0025809Y0085721D02*
X0022800Y0085721D01*
X0022599Y0087320D02*
X0024211Y0087320D01*
X0022612Y0088918D02*
X0021622Y0088918D01*
X0021014Y0090517D02*
X0014453Y0090517D01*
X0011804Y0092115D02*
X0011000Y0092115D01*
X0011000Y0099540D02*
X0011000Y0102460D01*
X0011021Y0102439D01*
X0012565Y0101800D01*
X0019435Y0101800D01*
X0020979Y0102439D01*
X0022161Y0103621D01*
X0022800Y0105165D01*
X0022800Y0106400D01*
X0030130Y0106400D01*
X0039345Y0097185D01*
X0039200Y0096835D01*
X0039200Y0095165D01*
X0039839Y0093621D01*
X0040360Y0093100D01*
X0037630Y0093100D01*
X0036400Y0091870D01*
X0034130Y0089600D01*
X0032784Y0089600D01*
X0031461Y0089052D01*
X0030448Y0088039D01*
X0030150Y0087320D01*
X0022655Y0094815D01*
X0022800Y0095165D01*
X0022800Y0096835D01*
X0022161Y0098379D01*
X0020979Y0099561D01*
X0019435Y0100200D01*
X0012565Y0100200D01*
X0011021Y0099561D01*
X0011000Y0099540D01*
X0011000Y0100108D02*
X0012342Y0100108D01*
X0011000Y0101706D02*
X0034824Y0101706D01*
X0036422Y0100108D02*
X0019658Y0100108D01*
X0021844Y0103305D02*
X0033225Y0103305D01*
X0031627Y0104903D02*
X0022692Y0104903D01*
X0019644Y0110114D02*
X0019435Y0110200D01*
X0012565Y0110200D01*
X0011021Y0109561D01*
X0011000Y0109540D01*
X0011000Y0112460D01*
X0011021Y0112439D01*
X0012565Y0111800D01*
X0019435Y0111800D01*
X0020979Y0112439D01*
X0022161Y0113621D01*
X0022800Y0115165D01*
X0022800Y0116835D01*
X0022655Y0117185D01*
X0024370Y0118900D01*
X0040360Y0118900D01*
X0039839Y0118379D01*
X0039200Y0116835D01*
X0039200Y0115165D01*
X0039345Y0114815D01*
X0035130Y0110600D01*
X0020130Y0110600D01*
X0019644Y0110114D01*
X0021435Y0112896D02*
X0037426Y0112896D01*
X0039024Y0114494D02*
X0022522Y0114494D01*
X0022800Y0116093D02*
X0039200Y0116093D01*
X0039555Y0117691D02*
X0023161Y0117691D01*
X0020419Y0120888D02*
X0011000Y0120888D01*
X0011021Y0119561D02*
X0011000Y0119540D01*
X0011000Y0122460D01*
X0011021Y0122439D01*
X0012565Y0121800D01*
X0019435Y0121800D01*
X0020979Y0122439D01*
X0022161Y0123621D01*
X0022800Y0125165D01*
X0022800Y0126835D01*
X0022161Y0128379D01*
X0020979Y0129561D01*
X0019435Y0130200D01*
X0012565Y0130200D01*
X0011021Y0129561D01*
X0011000Y0129540D01*
X0011000Y0132460D01*
X0011021Y0132439D01*
X0012565Y0131800D01*
X0017230Y0131800D01*
X0017630Y0131400D01*
X0020130Y0131400D01*
X0021400Y0130130D01*
X0022630Y0128900D01*
X0040360Y0128900D01*
X0039839Y0128379D01*
X0039200Y0126835D01*
X0039200Y0125165D01*
X0039839Y0123621D01*
X0040360Y0123100D01*
X0022630Y0123100D01*
X0019644Y0120114D01*
X0019435Y0120200D01*
X0012565Y0120200D01*
X0011021Y0119561D01*
X0011000Y0111297D02*
X0035827Y0111297D01*
X0036972Y0106502D02*
X0039200Y0106502D01*
X0039200Y0106835D02*
X0039200Y0105165D01*
X0039839Y0103621D01*
X0041021Y0102439D01*
X0042565Y0101800D01*
X0049435Y0101800D01*
X0050979Y0102439D01*
X0052161Y0103621D01*
X0052800Y0105165D01*
X0052800Y0106835D01*
X0052655Y0107185D01*
X0054370Y0108900D01*
X0057960Y0108900D01*
X0056800Y0107740D01*
X0056800Y0104260D01*
X0057960Y0103100D01*
X0052630Y0103100D01*
X0049644Y0100114D01*
X0049435Y0100200D01*
X0044770Y0100200D01*
X0044370Y0100600D01*
X0041870Y0100600D01*
X0036070Y0106400D01*
X0036870Y0106400D01*
X0038100Y0107630D01*
X0041870Y0111400D01*
X0044370Y0111400D01*
X0044770Y0111800D01*
X0049435Y0111800D01*
X0050979Y0112439D01*
X0052161Y0113621D01*
X0052800Y0115165D01*
X0052800Y0116835D01*
X0052521Y0117509D01*
X0052784Y0117400D01*
X0054216Y0117400D01*
X0055539Y0117948D01*
X0056552Y0118961D01*
X0057100Y0120284D01*
X0057100Y0121716D01*
X0056552Y0123039D01*
X0055539Y0124052D01*
X0054216Y0124600D01*
X0052784Y0124600D01*
X0052521Y0124491D01*
X0052800Y0125165D01*
X0052800Y0126835D01*
X0052161Y0128379D01*
X0051640Y0128900D01*
X0057960Y0128900D01*
X0056800Y0127740D01*
X0056800Y0124260D01*
X0059260Y0121800D01*
X0062740Y0121800D01*
X0065200Y0124260D01*
X0065200Y0127740D01*
X0064040Y0128900D01*
X0082630Y0128900D01*
X0086800Y0124730D01*
X0086800Y0124260D01*
X0087960Y0123100D01*
X0067630Y0123100D01*
X0063735Y0119205D01*
X0062740Y0120200D01*
X0059260Y0120200D01*
X0056800Y0117740D01*
X0056800Y0114260D01*
X0057960Y0113100D01*
X0052630Y0113100D01*
X0049644Y0110114D01*
X0049435Y0110200D01*
X0042565Y0110200D01*
X0041021Y0109561D01*
X0039839Y0108379D01*
X0039200Y0106835D01*
X0039724Y0108100D02*
X0038570Y0108100D01*
X0040169Y0109699D02*
X0041355Y0109699D01*
X0041767Y0111297D02*
X0050827Y0111297D01*
X0051435Y0112896D02*
X0052426Y0112896D01*
X0052522Y0114494D02*
X0056800Y0114494D01*
X0056800Y0116093D02*
X0052800Y0116093D01*
X0054919Y0117691D02*
X0056800Y0117691D01*
X0056688Y0119290D02*
X0058350Y0119290D01*
X0057100Y0120888D02*
X0065419Y0120888D01*
X0067017Y0122487D02*
X0063427Y0122487D01*
X0065025Y0124085D02*
X0086975Y0124085D01*
X0085846Y0125684D02*
X0065200Y0125684D01*
X0065200Y0127282D02*
X0084248Y0127282D01*
X0082649Y0128881D02*
X0064059Y0128881D01*
X0064040Y0133100D02*
X0065200Y0134260D01*
X0065200Y0137740D01*
X0064040Y0138900D01*
X0087960Y0138900D01*
X0086800Y0137740D01*
X0086800Y0134260D01*
X0089260Y0131800D01*
X0092740Y0131800D01*
X0095200Y0134260D01*
X0095200Y0137740D01*
X0094040Y0138900D01*
X0096400Y0138900D01*
X0096400Y0130600D01*
X0095130Y0130600D01*
X0093735Y0129205D01*
X0092740Y0130200D01*
X0089260Y0130200D01*
X0088265Y0129205D01*
X0084370Y0133100D01*
X0064040Y0133100D01*
X0064616Y0133676D02*
X0087384Y0133676D01*
X0086800Y0135275D02*
X0065200Y0135275D01*
X0065200Y0136873D02*
X0086800Y0136873D01*
X0087532Y0138472D02*
X0064468Y0138472D01*
X0064040Y0143100D02*
X0065200Y0144260D01*
X0065200Y0147740D01*
X0064040Y0148900D01*
X0085130Y0148900D01*
X0086800Y0147230D01*
X0086800Y0144260D01*
X0087960Y0143100D01*
X0064040Y0143100D01*
X0064207Y0143268D02*
X0087793Y0143268D01*
X0086800Y0144866D02*
X0065200Y0144866D01*
X0065200Y0146465D02*
X0086800Y0146465D01*
X0085967Y0148063D02*
X0064877Y0148063D01*
X0064040Y0153100D02*
X0065200Y0154260D01*
X0065200Y0157740D01*
X0064040Y0158900D01*
X0076870Y0158900D01*
X0079815Y0161845D01*
X0080165Y0161700D01*
X0081835Y0161700D01*
X0083379Y0162339D01*
X0084561Y0163521D01*
X0085200Y0165065D01*
X0085200Y0171935D01*
X0084561Y0173479D01*
X0083379Y0174661D01*
X0081835Y0175300D01*
X0080165Y0175300D01*
X0078621Y0174661D01*
X0077439Y0173479D01*
X0076800Y0171935D01*
X0076800Y0165065D01*
X0076886Y0164856D01*
X0075130Y0163100D01*
X0074140Y0163100D01*
X0074561Y0163521D01*
X0075200Y0165065D01*
X0075200Y0171935D01*
X0074561Y0173479D01*
X0073379Y0174661D01*
X0073100Y0174776D01*
X0073100Y0176400D01*
X0091870Y0176400D01*
X0092162Y0176692D01*
X0092439Y0176021D01*
X0093621Y0174839D01*
X0095165Y0174200D01*
X0096835Y0174200D01*
X0098379Y0174839D01*
X0099561Y0176021D01*
X0100200Y0177565D01*
X0100200Y0184435D01*
X0099561Y0185979D01*
X0098379Y0187161D01*
X0096835Y0187800D01*
X0095165Y0187800D01*
X0093621Y0187161D01*
X0092439Y0185979D01*
X0091800Y0184435D01*
X0091800Y0182270D01*
X0091400Y0181870D01*
X0090130Y0180600D01*
X0070130Y0180600D01*
X0068900Y0179370D01*
X0068900Y0174776D01*
X0068621Y0174661D01*
X0067439Y0173479D01*
X0066800Y0171935D01*
X0066800Y0165065D01*
X0067439Y0163521D01*
X0067860Y0163100D01*
X0064140Y0163100D01*
X0064561Y0163521D01*
X0065200Y0165065D01*
X0065200Y0171935D01*
X0064561Y0173479D01*
X0063379Y0174661D01*
X0061835Y0175300D01*
X0060165Y0175300D01*
X0058621Y0174661D01*
X0057439Y0173479D01*
X0056800Y0171935D01*
X0056800Y0165065D01*
X0057439Y0163521D01*
X0057860Y0163100D01*
X0055130Y0163100D01*
X0053900Y0161870D01*
X0050130Y0158100D01*
X0015130Y0158100D01*
X0013900Y0156870D01*
X0013900Y0150200D01*
X0012565Y0150200D01*
X0011021Y0149561D01*
X0011000Y0149540D01*
X0011000Y0159200D01*
X0011835Y0159200D01*
X0013379Y0159839D01*
X0014561Y0161021D01*
X0015200Y0162565D01*
X0015200Y0169435D01*
X0014561Y0170979D01*
X0013379Y0172161D01*
X0011835Y0172800D01*
X0011000Y0172800D01*
X0011000Y0181800D01*
X0012740Y0181800D01*
X0013735Y0182795D01*
X0015130Y0181400D01*
X0028900Y0181400D01*
X0028900Y0172276D01*
X0028621Y0172161D01*
X0027439Y0170979D01*
X0026800Y0169435D01*
X0026800Y0162565D01*
X0027439Y0161021D01*
X0028621Y0159839D01*
X0030165Y0159200D01*
X0031835Y0159200D01*
X0033379Y0159839D01*
X0034561Y0161021D01*
X0035200Y0162565D01*
X0035200Y0169435D01*
X0034561Y0170979D01*
X0033379Y0172161D01*
X0033100Y0172276D01*
X0033100Y0184370D01*
X0031870Y0185600D01*
X0016870Y0185600D01*
X0015600Y0186870D01*
X0015200Y0187270D01*
X0015200Y0187740D01*
X0012740Y0190200D01*
X0011000Y0190200D01*
X0011000Y0191800D01*
X0012740Y0191800D01*
X0015200Y0194260D01*
X0015200Y0197740D01*
X0012740Y0200200D01*
X0011000Y0200200D01*
X0011000Y0216000D01*
X0011849Y0216000D01*
X0011400Y0214915D01*
X0011400Y0207085D01*
X0012100Y0205394D01*
X0013394Y0204100D01*
X0015085Y0203400D01*
X0016915Y0203400D01*
X0017774Y0203756D01*
X0022630Y0198900D01*
X0025130Y0198900D01*
X0036800Y0187230D01*
X0036800Y0184260D01*
X0039260Y0181800D01*
X0042740Y0181800D01*
X0045200Y0184260D01*
X0045200Y0187740D01*
X0042740Y0190200D01*
X0039770Y0190200D01*
X0028100Y0201870D01*
X0026870Y0203100D01*
X0024370Y0203100D01*
X0020537Y0206933D01*
X0020600Y0207085D01*
X0020600Y0214915D01*
X0020151Y0216000D01*
X0021849Y0216000D01*
X0021400Y0214915D01*
X0021400Y0207085D01*
X0022100Y0205394D01*
X0023394Y0204100D01*
X0025085Y0203400D01*
X0026915Y0203400D01*
X0028606Y0204100D01*
X0029900Y0205394D01*
X0030600Y0207085D01*
X0030600Y0214915D01*
X0030151Y0216000D01*
X0031849Y0216000D01*
X0031400Y0214915D01*
X0031400Y0207085D01*
X0032100Y0205394D01*
X0033394Y0204100D01*
X0035085Y0203400D01*
X0036915Y0203400D01*
X0037774Y0203756D01*
X0041330Y0200200D01*
X0039260Y0200200D01*
X0036800Y0197740D01*
X0036800Y0194260D01*
X0039260Y0191800D01*
X0042740Y0191800D01*
X0045200Y0194260D01*
X0045200Y0197740D01*
X0044040Y0198900D01*
X0047960Y0198900D01*
X0046800Y0197740D01*
X0046800Y0194260D01*
X0049260Y0191800D01*
X0052740Y0191800D01*
X0055200Y0194260D01*
X0055200Y0197740D01*
X0054040Y0198900D01*
X0075130Y0198900D01*
X0076800Y0197230D01*
X0076800Y0194260D01*
X0079260Y0191800D01*
X0082740Y0191800D01*
X0085200Y0194260D01*
X0085200Y0197740D01*
X0082740Y0200200D01*
X0079770Y0200200D01*
X0078100Y0201870D01*
X0076870Y0203100D01*
X0044370Y0203100D01*
X0040537Y0206933D01*
X0040600Y0207085D01*
X0040600Y0214915D01*
X0040151Y0216000D01*
X0041849Y0216000D01*
X0041400Y0214915D01*
X0041400Y0207085D01*
X0042100Y0205394D01*
X0043394Y0204100D01*
X0045085Y0203400D01*
X0046915Y0203400D01*
X0048606Y0204100D01*
X0049900Y0205394D01*
X0050600Y0207085D01*
X0050600Y0214915D01*
X0050151Y0216000D01*
X0051849Y0216000D01*
X0051400Y0214915D01*
X0051400Y0207085D01*
X0052100Y0205394D01*
X0053394Y0204100D01*
X0055085Y0203400D01*
X0056915Y0203400D01*
X0058606Y0204100D01*
X0059900Y0205394D01*
X0060600Y0207085D01*
X0060600Y0214915D01*
X0060151Y0216000D01*
X0061849Y0216000D01*
X0061400Y0214915D01*
X0061400Y0207085D01*
X0062100Y0205394D01*
X0063394Y0204100D01*
X0065085Y0203400D01*
X0066915Y0203400D01*
X0068606Y0204100D01*
X0069900Y0205394D01*
X0070600Y0207085D01*
X0070600Y0214915D01*
X0070151Y0216000D01*
X0071849Y0216000D01*
X0071400Y0214915D01*
X0071400Y0207085D01*
X0072100Y0205394D01*
X0073394Y0204100D01*
X0075085Y0203400D01*
X0076915Y0203400D01*
X0078606Y0204100D01*
X0079900Y0205394D01*
X0080600Y0207085D01*
X0080600Y0214915D01*
X0080151Y0216000D01*
X0081849Y0216000D01*
X0081400Y0214915D01*
X0081400Y0207085D01*
X0082100Y0205394D01*
X0083394Y0204100D01*
X0085085Y0203400D01*
X0086915Y0203400D01*
X0088606Y0204100D01*
X0089900Y0205394D01*
X0090600Y0207085D01*
X0090600Y0208900D01*
X0096000Y0208900D01*
X0096000Y0206000D01*
X0096849Y0206000D01*
X0096400Y0204915D01*
X0096400Y0197085D01*
X0097100Y0195394D01*
X0098394Y0194100D01*
X0100085Y0193400D01*
X0101915Y0193400D01*
X0103606Y0194100D01*
X0104900Y0195394D01*
X0105600Y0197085D01*
X0105600Y0204915D01*
X0105151Y0206000D01*
X0106849Y0206000D01*
X0106400Y0204915D01*
X0106400Y0197085D01*
X0107100Y0195394D01*
X0108394Y0194100D01*
X0110085Y0193400D01*
X0111915Y0193400D01*
X0113606Y0194100D01*
X0114900Y0195394D01*
X0115600Y0197085D01*
X0115600Y0204915D01*
X0115151Y0206000D01*
X0116849Y0206000D01*
X0116400Y0204915D01*
X0116400Y0197085D01*
X0117100Y0195394D01*
X0118394Y0194100D01*
X0120085Y0193400D01*
X0121915Y0193400D01*
X0123606Y0194100D01*
X0124900Y0195394D01*
X0125600Y0197085D01*
X0125600Y0204915D01*
X0125151Y0206000D01*
X0126849Y0206000D01*
X0126400Y0204915D01*
X0126400Y0197085D01*
X0127100Y0195394D01*
X0128394Y0194100D01*
X0128900Y0193891D01*
X0128900Y0193100D01*
X0127630Y0193100D01*
X0120530Y0186000D01*
X0119540Y0186000D01*
X0118379Y0187161D01*
X0116835Y0187800D01*
X0115165Y0187800D01*
X0113621Y0187161D01*
X0112439Y0185979D01*
X0111800Y0184435D01*
X0111800Y0177565D01*
X0112439Y0176021D01*
X0113621Y0174839D01*
X0115165Y0174200D01*
X0116000Y0174200D01*
X0116000Y0165151D01*
X0114915Y0165600D01*
X0107085Y0165600D01*
X0105394Y0164900D01*
X0104100Y0163606D01*
X0103400Y0161915D01*
X0103400Y0160085D01*
X0104100Y0158394D01*
X0105394Y0157100D01*
X0107085Y0156400D01*
X0114915Y0156400D01*
X0116000Y0156849D01*
X0116000Y0155151D01*
X0114915Y0155600D01*
X0107085Y0155600D01*
X0105394Y0154900D01*
X0104100Y0153606D01*
X0103400Y0151915D01*
X0103400Y0150085D01*
X0104100Y0148394D01*
X0105394Y0147100D01*
X0107085Y0146400D01*
X0114915Y0146400D01*
X0116000Y0146849D01*
X0116000Y0145151D01*
X0114915Y0145600D01*
X0107085Y0145600D01*
X0105394Y0144900D01*
X0104100Y0143606D01*
X0103400Y0141915D01*
X0103400Y0140085D01*
X0104100Y0138394D01*
X0105394Y0137100D01*
X0107085Y0136400D01*
X0114915Y0136400D01*
X0116000Y0136849D01*
X0116000Y0135151D01*
X0114915Y0135600D01*
X0107085Y0135600D01*
X0105394Y0134900D01*
X0104100Y0133606D01*
X0103400Y0131915D01*
X0103400Y0130085D01*
X0104100Y0128394D01*
X0105394Y0127100D01*
X0107085Y0126400D01*
X0114915Y0126400D01*
X0116000Y0126849D01*
X0116000Y0125151D01*
X0114915Y0125600D01*
X0107085Y0125600D01*
X0105394Y0124900D01*
X0104100Y0123606D01*
X0103891Y0123100D01*
X0094040Y0123100D01*
X0095200Y0124260D01*
X0095200Y0124730D01*
X0095600Y0125130D01*
X0096870Y0126400D01*
X0099370Y0126400D01*
X0100600Y0127630D01*
X0100600Y0160130D01*
X0108100Y0167630D01*
X0108100Y0174724D01*
X0108379Y0174839D01*
X0109561Y0176021D01*
X0110200Y0177565D01*
X0110200Y0184435D01*
X0109561Y0185979D01*
X0108379Y0187161D01*
X0106835Y0187800D01*
X0105165Y0187800D01*
X0103621Y0187161D01*
X0102439Y0185979D01*
X0101800Y0184435D01*
X0101800Y0177565D01*
X0102439Y0176021D01*
X0103621Y0174839D01*
X0103900Y0174724D01*
X0103900Y0169370D01*
X0097630Y0163100D01*
X0096400Y0161870D01*
X0096400Y0153570D01*
X0095200Y0154770D01*
X0095200Y0157740D01*
X0092740Y0160200D01*
X0089260Y0160200D01*
X0086800Y0157740D01*
X0086800Y0154260D01*
X0089260Y0151800D01*
X0092230Y0151800D01*
X0093900Y0150130D01*
X0093900Y0149040D01*
X0092740Y0150200D01*
X0089770Y0150200D01*
X0088100Y0151870D01*
X0086870Y0153100D01*
X0064040Y0153100D01*
X0065200Y0154457D02*
X0086800Y0154457D01*
X0086800Y0156056D02*
X0065200Y0156056D01*
X0065200Y0157654D02*
X0086800Y0157654D01*
X0088313Y0159253D02*
X0077222Y0159253D01*
X0078821Y0160851D02*
X0096400Y0160851D01*
X0096400Y0159253D02*
X0093687Y0159253D01*
X0095200Y0157654D02*
X0096400Y0157654D01*
X0096400Y0156056D02*
X0095200Y0156056D01*
X0095513Y0154457D02*
X0096400Y0154457D01*
X0093900Y0149662D02*
X0093278Y0149662D01*
X0092770Y0151260D02*
X0088710Y0151260D01*
X0088202Y0152859D02*
X0087111Y0152859D01*
X0090165Y0161700D02*
X0091835Y0161700D01*
X0093379Y0162339D01*
X0094561Y0163521D01*
X0095200Y0165065D01*
X0095200Y0171935D01*
X0094561Y0173479D01*
X0093379Y0174661D01*
X0091835Y0175300D01*
X0090165Y0175300D01*
X0088621Y0174661D01*
X0087439Y0173479D01*
X0086800Y0171935D01*
X0086800Y0165065D01*
X0087439Y0163521D01*
X0088621Y0162339D01*
X0090165Y0161700D01*
X0088511Y0162450D02*
X0083489Y0162450D01*
X0084779Y0164048D02*
X0087221Y0164048D01*
X0086800Y0165647D02*
X0085200Y0165647D01*
X0085200Y0167245D02*
X0086800Y0167245D01*
X0086800Y0168844D02*
X0085200Y0168844D01*
X0085200Y0170442D02*
X0086800Y0170442D01*
X0086844Y0172041D02*
X0085156Y0172041D01*
X0084400Y0173639D02*
X0087600Y0173639D01*
X0090014Y0175238D02*
X0081986Y0175238D01*
X0080014Y0175238D02*
X0073100Y0175238D01*
X0074400Y0173639D02*
X0077600Y0173639D01*
X0076844Y0172041D02*
X0075156Y0172041D01*
X0075200Y0170442D02*
X0076800Y0170442D01*
X0076800Y0168844D02*
X0075200Y0168844D01*
X0075200Y0167245D02*
X0076800Y0167245D01*
X0076800Y0165647D02*
X0075200Y0165647D01*
X0074779Y0164048D02*
X0076078Y0164048D01*
X0068900Y0175238D02*
X0061986Y0175238D01*
X0060014Y0175238D02*
X0051986Y0175238D01*
X0051835Y0175300D02*
X0050165Y0175300D01*
X0048621Y0174661D01*
X0047439Y0173479D01*
X0046800Y0171935D01*
X0046800Y0165065D01*
X0047439Y0163521D01*
X0048621Y0162339D01*
X0050165Y0161700D01*
X0051835Y0161700D01*
X0053379Y0162339D01*
X0054561Y0163521D01*
X0055200Y0165065D01*
X0055200Y0171935D01*
X0054561Y0173479D01*
X0053379Y0174661D01*
X0051835Y0175300D01*
X0050014Y0175238D02*
X0041986Y0175238D01*
X0041835Y0175300D02*
X0040165Y0175300D01*
X0038621Y0174661D01*
X0037439Y0173479D01*
X0036800Y0171935D01*
X0036800Y0165065D01*
X0037439Y0163521D01*
X0038621Y0162339D01*
X0040165Y0161700D01*
X0041835Y0161700D01*
X0043379Y0162339D01*
X0044561Y0163521D01*
X0045200Y0165065D01*
X0045200Y0171935D01*
X0044561Y0173479D01*
X0043379Y0174661D01*
X0041835Y0175300D01*
X0040014Y0175238D02*
X0033100Y0175238D01*
X0033100Y0176836D02*
X0068900Y0176836D01*
X0068900Y0178435D02*
X0033100Y0178435D01*
X0033100Y0180033D02*
X0069563Y0180033D01*
X0067600Y0173639D02*
X0064400Y0173639D01*
X0065156Y0172041D02*
X0066844Y0172041D01*
X0066800Y0170442D02*
X0065200Y0170442D01*
X0065200Y0168844D02*
X0066800Y0168844D01*
X0066800Y0167245D02*
X0065200Y0167245D01*
X0065200Y0165647D02*
X0066800Y0165647D01*
X0067221Y0164048D02*
X0064779Y0164048D01*
X0057221Y0164048D02*
X0054779Y0164048D01*
X0054480Y0162450D02*
X0053489Y0162450D01*
X0052881Y0160851D02*
X0034391Y0160851D01*
X0035152Y0162450D02*
X0038511Y0162450D01*
X0037221Y0164048D02*
X0035200Y0164048D01*
X0035200Y0165647D02*
X0036800Y0165647D01*
X0036800Y0167245D02*
X0035200Y0167245D01*
X0035200Y0168844D02*
X0036800Y0168844D01*
X0036800Y0170442D02*
X0034783Y0170442D01*
X0033499Y0172041D02*
X0036844Y0172041D01*
X0037600Y0173639D02*
X0033100Y0173639D01*
X0028900Y0173639D02*
X0011000Y0173639D01*
X0011000Y0175238D02*
X0028900Y0175238D01*
X0028900Y0176836D02*
X0011000Y0176836D01*
X0011000Y0178435D02*
X0028900Y0178435D01*
X0028900Y0180033D02*
X0011000Y0180033D01*
X0011000Y0181632D02*
X0014898Y0181632D01*
X0016043Y0186427D02*
X0036800Y0186427D01*
X0036800Y0184829D02*
X0032641Y0184829D01*
X0033100Y0183230D02*
X0037830Y0183230D01*
X0036004Y0188026D02*
X0014914Y0188026D01*
X0013315Y0189624D02*
X0034406Y0189624D01*
X0032807Y0191223D02*
X0011000Y0191223D01*
X0013761Y0192821D02*
X0031209Y0192821D01*
X0029610Y0194420D02*
X0015200Y0194420D01*
X0015200Y0196018D02*
X0028012Y0196018D01*
X0026413Y0197617D02*
X0015200Y0197617D01*
X0013724Y0199215D02*
X0022315Y0199215D01*
X0020716Y0200814D02*
X0011000Y0200814D01*
X0011000Y0202412D02*
X0019118Y0202412D01*
X0021860Y0205609D02*
X0022011Y0205609D01*
X0021400Y0207208D02*
X0020600Y0207208D01*
X0020600Y0208806D02*
X0021400Y0208806D01*
X0021400Y0210405D02*
X0020600Y0210405D01*
X0020600Y0212003D02*
X0021400Y0212003D01*
X0021400Y0213602D02*
X0020600Y0213602D01*
X0020482Y0215201D02*
X0021518Y0215201D01*
X0023459Y0204011D02*
X0023610Y0204011D01*
X0027557Y0202412D02*
X0039118Y0202412D01*
X0040716Y0200814D02*
X0029156Y0200814D01*
X0030754Y0199215D02*
X0038276Y0199215D01*
X0036800Y0197617D02*
X0032353Y0197617D01*
X0033951Y0196018D02*
X0036800Y0196018D01*
X0036800Y0194420D02*
X0035550Y0194420D01*
X0037148Y0192821D02*
X0038239Y0192821D01*
X0038747Y0191223D02*
X0125753Y0191223D01*
X0127352Y0192821D02*
X0083761Y0192821D01*
X0085200Y0194420D02*
X0098075Y0194420D01*
X0096842Y0196018D02*
X0085200Y0196018D01*
X0085200Y0197617D02*
X0096400Y0197617D01*
X0096400Y0199215D02*
X0083724Y0199215D01*
X0083610Y0204011D02*
X0078390Y0204011D01*
X0077557Y0202412D02*
X0096400Y0202412D01*
X0096400Y0200814D02*
X0079156Y0200814D01*
X0076413Y0197617D02*
X0055200Y0197617D01*
X0055200Y0196018D02*
X0076800Y0196018D01*
X0076800Y0194420D02*
X0055200Y0194420D01*
X0053761Y0192821D02*
X0078239Y0192821D01*
X0079260Y0190200D02*
X0076800Y0187740D01*
X0076800Y0184260D01*
X0079260Y0181800D01*
X0082740Y0181800D01*
X0085200Y0184260D01*
X0085200Y0187740D01*
X0082740Y0190200D01*
X0079260Y0190200D01*
X0078685Y0189624D02*
X0053315Y0189624D01*
X0052740Y0190200D02*
X0049260Y0190200D01*
X0046800Y0187740D01*
X0046800Y0184260D01*
X0049260Y0181800D01*
X0052740Y0181800D01*
X0055200Y0184260D01*
X0055200Y0187740D01*
X0052740Y0190200D01*
X0054914Y0188026D02*
X0077086Y0188026D01*
X0076800Y0186427D02*
X0055200Y0186427D01*
X0055200Y0184829D02*
X0076800Y0184829D01*
X0077830Y0183230D02*
X0054170Y0183230D01*
X0048685Y0189624D02*
X0043315Y0189624D01*
X0044914Y0188026D02*
X0047086Y0188026D01*
X0046800Y0186427D02*
X0045200Y0186427D01*
X0045200Y0184829D02*
X0046800Y0184829D01*
X0047830Y0183230D02*
X0044170Y0183230D01*
X0044400Y0173639D02*
X0047600Y0173639D01*
X0046844Y0172041D02*
X0045156Y0172041D01*
X0045200Y0170442D02*
X0046800Y0170442D01*
X0046800Y0168844D02*
X0045200Y0168844D01*
X0045200Y0167245D02*
X0046800Y0167245D01*
X0046800Y0165647D02*
X0045200Y0165647D01*
X0044779Y0164048D02*
X0047221Y0164048D01*
X0048511Y0162450D02*
X0043489Y0162450D01*
X0042565Y0150200D02*
X0041021Y0149561D01*
X0039839Y0148379D01*
X0039200Y0146835D01*
X0039200Y0145165D01*
X0039839Y0143621D01*
X0041021Y0142439D01*
X0042565Y0141800D01*
X0049435Y0141800D01*
X0050979Y0142439D01*
X0052161Y0143621D01*
X0052800Y0145165D01*
X0052800Y0146835D01*
X0052655Y0147185D01*
X0054370Y0148900D01*
X0057960Y0148900D01*
X0056800Y0147740D01*
X0056800Y0144260D01*
X0057960Y0143100D01*
X0052630Y0143100D01*
X0049644Y0140114D01*
X0049435Y0140200D01*
X0042565Y0140200D01*
X0041021Y0139561D01*
X0039839Y0138379D01*
X0039200Y0136835D01*
X0039200Y0135165D01*
X0039839Y0133621D01*
X0040360Y0133100D01*
X0024370Y0133100D01*
X0022655Y0134815D01*
X0022800Y0135165D01*
X0022800Y0136835D01*
X0022161Y0138379D01*
X0020979Y0139561D01*
X0019435Y0140200D01*
X0012565Y0140200D01*
X0011021Y0139561D01*
X0011000Y0139540D01*
X0011000Y0142460D01*
X0011021Y0142439D01*
X0012565Y0141800D01*
X0019435Y0141800D01*
X0020979Y0142439D01*
X0022161Y0143621D01*
X0022800Y0145165D01*
X0022800Y0146835D01*
X0022161Y0148379D01*
X0020979Y0149561D01*
X0019435Y0150200D01*
X0018100Y0150200D01*
X0018100Y0153900D01*
X0051870Y0153900D01*
X0056870Y0158900D01*
X0057960Y0158900D01*
X0056800Y0157740D01*
X0056800Y0154260D01*
X0057960Y0153100D01*
X0052630Y0153100D01*
X0049644Y0150114D01*
X0049435Y0150200D01*
X0042565Y0150200D01*
X0041265Y0149662D02*
X0020735Y0149662D01*
X0022291Y0148063D02*
X0039709Y0148063D01*
X0039200Y0146465D02*
X0022800Y0146465D01*
X0022676Y0144866D02*
X0039324Y0144866D01*
X0040193Y0143268D02*
X0021807Y0143268D01*
X0019748Y0140070D02*
X0042252Y0140070D01*
X0039932Y0138472D02*
X0022068Y0138472D01*
X0022784Y0136873D02*
X0039216Y0136873D01*
X0039200Y0135275D02*
X0022800Y0135275D01*
X0023793Y0133676D02*
X0039816Y0133676D01*
X0040341Y0128881D02*
X0021659Y0128881D01*
X0021051Y0130479D02*
X0011000Y0130479D01*
X0011000Y0132078D02*
X0011894Y0132078D01*
X0012252Y0140070D02*
X0011000Y0140070D01*
X0011000Y0141669D02*
X0051199Y0141669D01*
X0051807Y0143268D02*
X0057793Y0143268D01*
X0056800Y0144866D02*
X0052676Y0144866D01*
X0052800Y0146465D02*
X0056800Y0146465D01*
X0057123Y0148063D02*
X0053533Y0148063D01*
X0050790Y0151260D02*
X0018100Y0151260D01*
X0018100Y0152859D02*
X0052389Y0152859D01*
X0052427Y0154457D02*
X0056800Y0154457D01*
X0056800Y0156056D02*
X0054025Y0156056D01*
X0055624Y0157654D02*
X0056800Y0157654D01*
X0051283Y0159253D02*
X0031962Y0159253D01*
X0030038Y0159253D02*
X0021962Y0159253D01*
X0021835Y0159200D02*
X0023379Y0159839D01*
X0024561Y0161021D01*
X0025200Y0162565D01*
X0025200Y0169435D01*
X0024561Y0170979D01*
X0023379Y0172161D01*
X0021835Y0172800D01*
X0020165Y0172800D01*
X0018621Y0172161D01*
X0017439Y0170979D01*
X0016800Y0169435D01*
X0016800Y0162565D01*
X0017439Y0161021D01*
X0018621Y0159839D01*
X0020165Y0159200D01*
X0021835Y0159200D01*
X0020038Y0159253D02*
X0011962Y0159253D01*
X0011000Y0157654D02*
X0014684Y0157654D01*
X0013900Y0156056D02*
X0011000Y0156056D01*
X0011000Y0154457D02*
X0013900Y0154457D01*
X0013900Y0152859D02*
X0011000Y0152859D01*
X0011000Y0151260D02*
X0013900Y0151260D01*
X0011265Y0149662D02*
X0011000Y0149662D01*
X0014391Y0160851D02*
X0017609Y0160851D01*
X0016848Y0162450D02*
X0015152Y0162450D01*
X0015200Y0164048D02*
X0016800Y0164048D01*
X0016800Y0165647D02*
X0015200Y0165647D01*
X0015200Y0167245D02*
X0016800Y0167245D01*
X0016800Y0168844D02*
X0015200Y0168844D01*
X0014783Y0170442D02*
X0017217Y0170442D01*
X0018501Y0172041D02*
X0013499Y0172041D01*
X0023499Y0172041D02*
X0028501Y0172041D01*
X0027217Y0170442D02*
X0024783Y0170442D01*
X0025200Y0168844D02*
X0026800Y0168844D01*
X0026800Y0167245D02*
X0025200Y0167245D01*
X0025200Y0165647D02*
X0026800Y0165647D01*
X0026800Y0164048D02*
X0025200Y0164048D01*
X0025152Y0162450D02*
X0026848Y0162450D01*
X0027609Y0160851D02*
X0024391Y0160851D01*
X0033100Y0181632D02*
X0091162Y0181632D01*
X0091800Y0183230D02*
X0084170Y0183230D01*
X0085200Y0184829D02*
X0091963Y0184829D01*
X0092888Y0186427D02*
X0085200Y0186427D01*
X0084914Y0188026D02*
X0122556Y0188026D01*
X0124154Y0189624D02*
X0083315Y0189624D01*
X0088390Y0204011D02*
X0096400Y0204011D01*
X0096688Y0205609D02*
X0089989Y0205609D01*
X0090600Y0207208D02*
X0096000Y0207208D01*
X0096000Y0208806D02*
X0090600Y0208806D01*
X0090600Y0213100D02*
X0090600Y0214915D01*
X0090151Y0216000D01*
X0096000Y0216000D01*
X0096000Y0213100D01*
X0090600Y0213100D01*
X0090600Y0213602D02*
X0096000Y0213602D01*
X0096000Y0215201D02*
X0090482Y0215201D01*
X0082011Y0205609D02*
X0079989Y0205609D01*
X0080600Y0207208D02*
X0081400Y0207208D01*
X0081400Y0208806D02*
X0080600Y0208806D01*
X0080600Y0210405D02*
X0081400Y0210405D01*
X0081400Y0212003D02*
X0080600Y0212003D01*
X0080600Y0213602D02*
X0081400Y0213602D01*
X0081518Y0215201D02*
X0080482Y0215201D01*
X0073610Y0204011D02*
X0068390Y0204011D01*
X0069989Y0205609D02*
X0072011Y0205609D01*
X0071400Y0207208D02*
X0070600Y0207208D01*
X0070600Y0208806D02*
X0071400Y0208806D01*
X0071400Y0210405D02*
X0070600Y0210405D01*
X0070600Y0212003D02*
X0071400Y0212003D01*
X0071400Y0213602D02*
X0070600Y0213602D01*
X0070482Y0215201D02*
X0071518Y0215201D01*
X0063610Y0204011D02*
X0058390Y0204011D01*
X0059989Y0205609D02*
X0062011Y0205609D01*
X0061400Y0207208D02*
X0060600Y0207208D01*
X0060600Y0208806D02*
X0061400Y0208806D01*
X0061400Y0210405D02*
X0060600Y0210405D01*
X0060600Y0212003D02*
X0061400Y0212003D01*
X0061400Y0213602D02*
X0060600Y0213602D01*
X0060482Y0215201D02*
X0061518Y0215201D01*
X0053610Y0204011D02*
X0048390Y0204011D01*
X0049989Y0205609D02*
X0052011Y0205609D01*
X0051400Y0207208D02*
X0050600Y0207208D01*
X0050600Y0208806D02*
X0051400Y0208806D01*
X0051400Y0210405D02*
X0050600Y0210405D01*
X0050600Y0212003D02*
X0051400Y0212003D01*
X0051400Y0213602D02*
X0050600Y0213602D01*
X0050482Y0215201D02*
X0051518Y0215201D01*
X0043610Y0204011D02*
X0043459Y0204011D01*
X0042011Y0205609D02*
X0041860Y0205609D01*
X0041400Y0207208D02*
X0040600Y0207208D01*
X0040600Y0208806D02*
X0041400Y0208806D01*
X0041400Y0210405D02*
X0040600Y0210405D01*
X0040600Y0212003D02*
X0041400Y0212003D01*
X0041400Y0213602D02*
X0040600Y0213602D01*
X0040482Y0215201D02*
X0041518Y0215201D01*
X0033610Y0204011D02*
X0028390Y0204011D01*
X0029989Y0205609D02*
X0032011Y0205609D01*
X0031400Y0207208D02*
X0030600Y0207208D01*
X0030600Y0208806D02*
X0031400Y0208806D01*
X0031400Y0210405D02*
X0030600Y0210405D01*
X0030600Y0212003D02*
X0031400Y0212003D01*
X0031400Y0213602D02*
X0030600Y0213602D01*
X0030482Y0215201D02*
X0031518Y0215201D01*
X0043761Y0192821D02*
X0048239Y0192821D01*
X0046800Y0194420D02*
X0045200Y0194420D01*
X0045200Y0196018D02*
X0046800Y0196018D01*
X0046800Y0197617D02*
X0045200Y0197617D01*
X0054400Y0173639D02*
X0057600Y0173639D01*
X0056844Y0172041D02*
X0055156Y0172041D01*
X0055200Y0170442D02*
X0056800Y0170442D01*
X0056800Y0168844D02*
X0055200Y0168844D01*
X0055200Y0167245D02*
X0056800Y0167245D01*
X0056800Y0165647D02*
X0055200Y0165647D01*
X0054370Y0138900D02*
X0057960Y0138900D01*
X0056800Y0137740D01*
X0056800Y0134260D01*
X0057960Y0133100D01*
X0051640Y0133100D01*
X0052161Y0133621D01*
X0052800Y0135165D01*
X0052800Y0136835D01*
X0052655Y0137185D01*
X0054370Y0138900D01*
X0053942Y0138472D02*
X0057532Y0138472D01*
X0056800Y0136873D02*
X0052784Y0136873D01*
X0052800Y0135275D02*
X0056800Y0135275D01*
X0057384Y0133676D02*
X0052184Y0133676D01*
X0051659Y0128881D02*
X0057941Y0128881D01*
X0056800Y0127282D02*
X0052615Y0127282D01*
X0052800Y0125684D02*
X0056800Y0125684D01*
X0056975Y0124085D02*
X0055458Y0124085D01*
X0056781Y0122487D02*
X0058573Y0122487D01*
X0063650Y0119290D02*
X0063820Y0119290D01*
X0066563Y0116093D02*
X0086800Y0116093D01*
X0086800Y0115600D02*
X0075130Y0115600D01*
X0072630Y0113100D01*
X0064040Y0113100D01*
X0065200Y0114260D01*
X0065200Y0114730D01*
X0065600Y0115130D01*
X0069370Y0118900D01*
X0087960Y0118900D01*
X0086800Y0117740D01*
X0086800Y0115600D01*
X0086800Y0117691D02*
X0068161Y0117691D01*
X0065200Y0114494D02*
X0074024Y0114494D01*
X0079370Y0108900D02*
X0078100Y0107630D01*
X0076870Y0106400D01*
X0066870Y0106400D01*
X0065600Y0105130D01*
X0065600Y0105130D01*
X0065200Y0104730D01*
X0065200Y0104260D01*
X0064040Y0103100D01*
X0065130Y0103100D01*
X0067630Y0105600D01*
X0086800Y0105600D01*
X0086800Y0107740D01*
X0087960Y0108900D01*
X0079370Y0108900D01*
X0078570Y0108100D02*
X0087161Y0108100D01*
X0086800Y0106502D02*
X0076972Y0106502D01*
X0071870Y0098900D02*
X0070600Y0097630D01*
X0069370Y0096400D01*
X0066870Y0096400D01*
X0066070Y0095600D01*
X0086800Y0095600D01*
X0086800Y0097740D01*
X0087960Y0098900D01*
X0071870Y0098900D01*
X0071479Y0098509D02*
X0087570Y0098509D01*
X0086800Y0096911D02*
X0069881Y0096911D01*
X0065335Y0103305D02*
X0064244Y0103305D01*
X0065373Y0104903D02*
X0066933Y0104903D01*
X0057756Y0103305D02*
X0051844Y0103305D01*
X0051236Y0101706D02*
X0040764Y0101706D01*
X0040156Y0103305D02*
X0039165Y0103305D01*
X0039308Y0104903D02*
X0037567Y0104903D01*
X0038021Y0098509D02*
X0022030Y0098509D01*
X0022769Y0096911D02*
X0039231Y0096911D01*
X0039200Y0095312D02*
X0022800Y0095312D01*
X0023756Y0093714D02*
X0039801Y0093714D01*
X0036645Y0092115D02*
X0025355Y0092115D01*
X0026953Y0090517D02*
X0035047Y0090517D01*
X0037789Y0087320D02*
X0039401Y0087320D01*
X0039200Y0086835D02*
X0039839Y0088379D01*
X0040360Y0088900D01*
X0039370Y0088900D01*
X0037100Y0086630D01*
X0037100Y0085284D01*
X0036552Y0083961D01*
X0035691Y0083100D01*
X0040360Y0083100D01*
X0039839Y0083621D01*
X0039200Y0085165D01*
X0039200Y0086835D01*
X0039200Y0085721D02*
X0037100Y0085721D01*
X0036619Y0084123D02*
X0039632Y0084123D01*
X0036600Y0076130D02*
X0056800Y0076130D01*
X0056800Y0074532D02*
X0051008Y0074532D01*
X0052345Y0072933D02*
X0054963Y0072933D01*
X0053365Y0071334D02*
X0052800Y0071334D01*
X0056107Y0068137D02*
X0057198Y0068137D01*
X0056800Y0066539D02*
X0054509Y0066539D01*
X0052910Y0064940D02*
X0056800Y0064940D01*
X0057718Y0063342D02*
X0052176Y0063342D01*
X0048569Y0066539D02*
X0027009Y0066539D01*
X0028607Y0068137D02*
X0040323Y0068137D01*
X0039378Y0069736D02*
X0030206Y0069736D01*
X0031804Y0071334D02*
X0039200Y0071334D01*
X0039655Y0072933D02*
X0033403Y0072933D01*
X0035001Y0074532D02*
X0040992Y0074532D01*
X0041938Y0064940D02*
X0025410Y0064940D01*
X0023812Y0063342D02*
X0039824Y0063342D01*
X0039200Y0061743D02*
X0022800Y0061743D01*
X0022792Y0060145D02*
X0039208Y0060145D01*
X0039914Y0058546D02*
X0022086Y0058546D01*
X0019792Y0056948D02*
X0042207Y0056948D01*
X0040211Y0053751D02*
X0021789Y0053751D01*
X0022276Y0048900D02*
X0033900Y0048900D01*
X0033900Y0032630D01*
X0035130Y0031400D01*
X0039200Y0031400D01*
X0039200Y0030165D01*
X0039839Y0028621D01*
X0040360Y0028100D01*
X0034370Y0028100D01*
X0022655Y0039815D01*
X0022800Y0040165D01*
X0022800Y0041835D01*
X0022161Y0043379D01*
X0020979Y0044561D01*
X0019435Y0045200D01*
X0012565Y0045200D01*
X0011021Y0044561D01*
X0011000Y0044540D01*
X0011000Y0047460D01*
X0011021Y0047439D01*
X0012565Y0046800D01*
X0019435Y0046800D01*
X0020979Y0047439D01*
X0022161Y0048621D01*
X0022276Y0048900D01*
X0020780Y0047357D02*
X0033900Y0047357D01*
X0033900Y0045758D02*
X0011000Y0045758D01*
X0011000Y0047357D02*
X0011220Y0047357D01*
X0011303Y0036167D02*
X0020363Y0036167D01*
X0020959Y0034569D02*
X0021961Y0034569D01*
X0022330Y0032970D02*
X0023560Y0032970D01*
X0022800Y0031372D02*
X0025158Y0031372D01*
X0026757Y0029773D02*
X0022638Y0029773D01*
X0021714Y0028175D02*
X0028355Y0028175D01*
X0029954Y0026576D02*
X0011000Y0026576D01*
X0011000Y0024978D02*
X0012028Y0024978D01*
X0012118Y0016985D02*
X0011000Y0016985D01*
X0011000Y0015387D02*
X0067934Y0015387D01*
X0067272Y0013788D02*
X0051752Y0013788D01*
X0052653Y0012190D02*
X0066869Y0012190D01*
X0066869Y0010591D02*
X0052800Y0010591D01*
X0052315Y0008993D02*
X0066948Y0008993D01*
X0067611Y0007394D02*
X0050870Y0007394D01*
X0049882Y0016985D02*
X0069072Y0016985D01*
X0070671Y0018584D02*
X0052123Y0018584D01*
X0052161Y0023379D02*
X0057681Y0023379D01*
X0057235Y0028175D02*
X0051714Y0028175D01*
X0052638Y0029773D02*
X0058834Y0029773D01*
X0055697Y0036167D02*
X0038100Y0036167D01*
X0038100Y0037766D02*
X0040695Y0037766D01*
X0039531Y0039364D02*
X0038100Y0039364D01*
X0038100Y0040963D02*
X0039200Y0040963D01*
X0039501Y0042561D02*
X0038100Y0042561D01*
X0038100Y0044160D02*
X0040620Y0044160D01*
X0038100Y0045758D02*
X0056800Y0045758D01*
X0056800Y0047357D02*
X0050780Y0047357D01*
X0052299Y0048955D02*
X0058016Y0048955D01*
X0058908Y0052152D02*
X0052669Y0052152D01*
X0052800Y0050554D02*
X0063476Y0050554D01*
X0063984Y0048955D02*
X0065075Y0048955D01*
X0065200Y0047357D02*
X0066673Y0047357D01*
X0065200Y0045758D02*
X0071151Y0045758D01*
X0063166Y0029773D02*
X0084257Y0029773D01*
X0085855Y0028175D02*
X0064765Y0028175D01*
X0065200Y0026576D02*
X0086800Y0026576D01*
X0086800Y0024978D02*
X0065200Y0024978D01*
X0064319Y0023379D02*
X0087681Y0023379D01*
X0082658Y0031372D02*
X0052800Y0031372D01*
X0051305Y0037766D02*
X0056826Y0037766D01*
X0056900Y0044160D02*
X0051380Y0044160D01*
X0051789Y0053751D02*
X0057309Y0053751D01*
X0064840Y0068100D02*
X0064040Y0068900D01*
X0068009Y0068900D01*
X0068809Y0068100D01*
X0064840Y0068100D01*
X0064802Y0068137D02*
X0068771Y0068137D01*
X0070119Y0074532D02*
X0065200Y0074532D01*
X0065200Y0076130D02*
X0086800Y0076130D01*
X0086800Y0074532D02*
X0071881Y0074532D01*
X0074096Y0072933D02*
X0088127Y0072933D01*
X0088796Y0069736D02*
X0074373Y0069736D01*
X0074600Y0071334D02*
X0103400Y0071334D01*
X0103545Y0069736D02*
X0093204Y0069736D01*
X0094802Y0068137D02*
X0104357Y0068137D01*
X0106749Y0066539D02*
X0095200Y0066539D01*
X0095200Y0064940D02*
X0105493Y0064940D01*
X0103822Y0072933D02*
X0093873Y0072933D01*
X0095200Y0074532D02*
X0101999Y0074532D01*
X0100400Y0076130D02*
X0095200Y0076130D01*
X0095200Y0077729D02*
X0098802Y0077729D01*
X0101544Y0080926D02*
X0103400Y0080926D01*
X0103400Y0080085D02*
X0104100Y0078394D01*
X0104395Y0078100D01*
X0104370Y0078100D01*
X0099370Y0083100D01*
X0094040Y0083100D01*
X0095200Y0084260D01*
X0095200Y0087740D01*
X0094040Y0088900D01*
X0103891Y0088900D01*
X0104100Y0088394D01*
X0105394Y0087100D01*
X0107085Y0086400D01*
X0114915Y0086400D01*
X0116000Y0086849D01*
X0116000Y0085151D01*
X0114915Y0085600D01*
X0107085Y0085600D01*
X0105394Y0084900D01*
X0104100Y0083606D01*
X0103400Y0081915D01*
X0103400Y0080085D01*
X0103143Y0079327D02*
X0103714Y0079327D01*
X0103652Y0082524D02*
X0099946Y0082524D01*
X0104617Y0084123D02*
X0095062Y0084123D01*
X0095200Y0085721D02*
X0116000Y0085721D01*
X0116000Y0095151D02*
X0114915Y0095600D01*
X0107085Y0095600D01*
X0105394Y0094900D01*
X0104100Y0093606D01*
X0103891Y0093100D01*
X0094040Y0093100D01*
X0095200Y0094260D01*
X0095200Y0097740D01*
X0094040Y0098900D01*
X0103891Y0098900D01*
X0104100Y0098394D01*
X0105394Y0097100D01*
X0107085Y0096400D01*
X0114915Y0096400D01*
X0116000Y0096849D01*
X0116000Y0095151D01*
X0116000Y0095312D02*
X0115610Y0095312D01*
X0116000Y0105151D02*
X0114915Y0105600D01*
X0107085Y0105600D01*
X0105394Y0104900D01*
X0104100Y0103606D01*
X0103891Y0103100D01*
X0094040Y0103100D01*
X0095200Y0104260D01*
X0095200Y0107740D01*
X0094040Y0108900D01*
X0103891Y0108900D01*
X0104100Y0108394D01*
X0105394Y0107100D01*
X0107085Y0106400D01*
X0114915Y0106400D01*
X0116000Y0106849D01*
X0116000Y0105151D01*
X0116000Y0106502D02*
X0115161Y0106502D01*
X0116000Y0115151D02*
X0114915Y0115600D01*
X0107085Y0115600D01*
X0105394Y0114900D01*
X0104100Y0113606D01*
X0103891Y0113100D01*
X0094040Y0113100D01*
X0095200Y0114260D01*
X0095200Y0117740D01*
X0094040Y0118900D01*
X0103891Y0118900D01*
X0104100Y0118394D01*
X0105394Y0117100D01*
X0107085Y0116400D01*
X0114915Y0116400D01*
X0116000Y0116849D01*
X0116000Y0115151D01*
X0116000Y0116093D02*
X0095200Y0116093D01*
X0095200Y0117691D02*
X0104803Y0117691D01*
X0104989Y0114494D02*
X0095200Y0114494D01*
X0094839Y0108100D02*
X0104394Y0108100D01*
X0105403Y0104903D02*
X0095200Y0104903D01*
X0095200Y0106502D02*
X0106839Y0106502D01*
X0103976Y0103305D02*
X0094244Y0103305D01*
X0094430Y0098509D02*
X0104053Y0098509D01*
X0105852Y0096911D02*
X0095200Y0096911D01*
X0095200Y0095312D02*
X0106390Y0095312D01*
X0104208Y0093714D02*
X0094653Y0093714D01*
X0095200Y0087320D02*
X0105175Y0087320D01*
X0115250Y0066539D02*
X0116000Y0066539D01*
X0116000Y0055349D02*
X0115520Y0055349D01*
X0115340Y0026576D02*
X0116000Y0026576D01*
X0087718Y0063342D02*
X0076628Y0063342D01*
X0075029Y0064940D02*
X0086800Y0064940D01*
X0086800Y0066539D02*
X0073431Y0066539D01*
X0073229Y0068137D02*
X0087198Y0068137D01*
X0086800Y0077729D02*
X0065698Y0077729D01*
X0062956Y0080926D02*
X0058895Y0080926D01*
X0058387Y0079327D02*
X0057297Y0079327D01*
X0056800Y0077729D02*
X0055698Y0077729D01*
X0055600Y0083570D02*
X0055600Y0085130D01*
X0056800Y0086330D01*
X0056800Y0084770D01*
X0055600Y0083570D01*
X0055600Y0084123D02*
X0056153Y0084123D01*
X0056191Y0085721D02*
X0056800Y0085721D01*
X0053430Y0088900D02*
X0052630Y0088100D01*
X0052380Y0087850D01*
X0052161Y0088379D01*
X0051640Y0088900D01*
X0053430Y0088900D01*
X0052630Y0093100D02*
X0051640Y0093100D01*
X0052161Y0093621D01*
X0052800Y0095165D01*
X0052800Y0096835D01*
X0052655Y0097185D01*
X0054370Y0098900D01*
X0057960Y0098900D01*
X0056800Y0097740D01*
X0056800Y0097270D01*
X0056400Y0096870D01*
X0052630Y0093100D01*
X0052199Y0093714D02*
X0053244Y0093714D01*
X0052800Y0095312D02*
X0054842Y0095312D01*
X0056441Y0096911D02*
X0052769Y0096911D01*
X0053979Y0098509D02*
X0057570Y0098509D01*
X0056800Y0104903D02*
X0052692Y0104903D01*
X0052800Y0106502D02*
X0056800Y0106502D01*
X0057161Y0108100D02*
X0053570Y0108100D01*
X0039647Y0124085D02*
X0022353Y0124085D01*
X0022017Y0122487D02*
X0021027Y0122487D01*
X0022800Y0125684D02*
X0039200Y0125684D01*
X0039385Y0127282D02*
X0022615Y0127282D01*
X0011355Y0109699D02*
X0011000Y0109699D01*
X0028552Y0088918D02*
X0031327Y0088918D01*
X0038100Y0047357D02*
X0041220Y0047357D01*
X0033900Y0044160D02*
X0021380Y0044160D01*
X0022499Y0042561D02*
X0033900Y0042561D01*
X0033900Y0040963D02*
X0022800Y0040963D01*
X0023106Y0039364D02*
X0033900Y0039364D01*
X0033900Y0037766D02*
X0024704Y0037766D01*
X0026303Y0036167D02*
X0033900Y0036167D01*
X0033900Y0034569D02*
X0027901Y0034569D01*
X0029500Y0032970D02*
X0033900Y0032970D01*
X0032697Y0029773D02*
X0039362Y0029773D01*
X0039200Y0031372D02*
X0031098Y0031372D01*
X0034295Y0028175D02*
X0040286Y0028175D01*
X0039839Y0023379D02*
X0022161Y0023379D01*
X0022800Y0021781D02*
X0039200Y0021781D01*
X0039200Y0020182D02*
X0022800Y0020182D01*
X0022123Y0018584D02*
X0039877Y0018584D01*
X0042118Y0016985D02*
X0019882Y0016985D01*
X0021752Y0013788D02*
X0040248Y0013788D01*
X0039347Y0012190D02*
X0022653Y0012190D01*
X0022800Y0010591D02*
X0039200Y0010591D01*
X0038523Y0008993D02*
X0022315Y0008993D01*
X0019972Y0024978D02*
X0031552Y0024978D01*
X0063464Y0082524D02*
X0064554Y0082524D01*
X0065062Y0084123D02*
X0086938Y0084123D01*
X0086800Y0085721D02*
X0066191Y0085721D01*
X0067789Y0087320D02*
X0086800Y0087320D01*
X0095025Y0124085D02*
X0104580Y0124085D01*
X0105212Y0127282D02*
X0100252Y0127282D01*
X0100600Y0128881D02*
X0103899Y0128881D01*
X0103400Y0130479D02*
X0100600Y0130479D01*
X0100600Y0132078D02*
X0103467Y0132078D01*
X0104171Y0133676D02*
X0100600Y0133676D01*
X0100600Y0135275D02*
X0106300Y0135275D01*
X0105942Y0136873D02*
X0100600Y0136873D01*
X0100600Y0138472D02*
X0104068Y0138472D01*
X0103406Y0140070D02*
X0100600Y0140070D01*
X0100600Y0141669D02*
X0103400Y0141669D01*
X0103960Y0143268D02*
X0100600Y0143268D01*
X0100600Y0144866D02*
X0105361Y0144866D01*
X0106929Y0146465D02*
X0100600Y0146465D01*
X0100600Y0148063D02*
X0104432Y0148063D01*
X0103575Y0149662D02*
X0100600Y0149662D01*
X0100600Y0151260D02*
X0103400Y0151260D01*
X0103791Y0152859D02*
X0100600Y0152859D01*
X0100600Y0154457D02*
X0104952Y0154457D01*
X0104841Y0157654D02*
X0100600Y0157654D01*
X0100600Y0156056D02*
X0116000Y0156056D01*
X0116000Y0165647D02*
X0106117Y0165647D01*
X0104543Y0164048D02*
X0104518Y0164048D01*
X0103621Y0162450D02*
X0102919Y0162450D01*
X0103400Y0160851D02*
X0101321Y0160851D01*
X0100600Y0159253D02*
X0103745Y0159253D01*
X0100177Y0165647D02*
X0095200Y0165647D01*
X0095200Y0167245D02*
X0101775Y0167245D01*
X0103374Y0168844D02*
X0095200Y0168844D01*
X0095200Y0170442D02*
X0103900Y0170442D01*
X0103900Y0172041D02*
X0095156Y0172041D01*
X0094400Y0173639D02*
X0103900Y0173639D01*
X0103223Y0175238D02*
X0098777Y0175238D01*
X0099898Y0176836D02*
X0102102Y0176836D01*
X0101800Y0178435D02*
X0100200Y0178435D01*
X0100200Y0180033D02*
X0101800Y0180033D01*
X0101800Y0181632D02*
X0100200Y0181632D01*
X0100200Y0183230D02*
X0101800Y0183230D01*
X0101963Y0184829D02*
X0100037Y0184829D01*
X0099112Y0186427D02*
X0102888Y0186427D01*
X0103925Y0194420D02*
X0108075Y0194420D01*
X0106842Y0196018D02*
X0105158Y0196018D01*
X0105600Y0197617D02*
X0106400Y0197617D01*
X0106400Y0199215D02*
X0105600Y0199215D01*
X0105600Y0200814D02*
X0106400Y0200814D01*
X0106400Y0202412D02*
X0105600Y0202412D01*
X0105600Y0204011D02*
X0106400Y0204011D01*
X0106688Y0205609D02*
X0105312Y0205609D01*
X0113925Y0194420D02*
X0118075Y0194420D01*
X0116842Y0196018D02*
X0115158Y0196018D01*
X0115600Y0197617D02*
X0116400Y0197617D01*
X0116400Y0199215D02*
X0115600Y0199215D01*
X0115600Y0200814D02*
X0116400Y0200814D01*
X0116400Y0202412D02*
X0115600Y0202412D01*
X0115600Y0204011D02*
X0116400Y0204011D01*
X0116688Y0205609D02*
X0115312Y0205609D01*
X0125158Y0196018D02*
X0126842Y0196018D01*
X0126400Y0197617D02*
X0125600Y0197617D01*
X0125600Y0199215D02*
X0126400Y0199215D01*
X0126400Y0200814D02*
X0125600Y0200814D01*
X0125600Y0202412D02*
X0126400Y0202412D01*
X0126400Y0204011D02*
X0125600Y0204011D01*
X0125312Y0205609D02*
X0126688Y0205609D01*
X0128075Y0194420D02*
X0123925Y0194420D01*
X0120957Y0186427D02*
X0119112Y0186427D01*
X0112888Y0186427D02*
X0109112Y0186427D01*
X0110037Y0184829D02*
X0111963Y0184829D01*
X0111800Y0183230D02*
X0110200Y0183230D01*
X0110200Y0181632D02*
X0111800Y0181632D01*
X0111800Y0180033D02*
X0110200Y0180033D01*
X0110200Y0178435D02*
X0111800Y0178435D01*
X0112102Y0176836D02*
X0109898Y0176836D01*
X0108777Y0175238D02*
X0113223Y0175238D01*
X0116000Y0173639D02*
X0108100Y0173639D01*
X0108100Y0172041D02*
X0116000Y0172041D01*
X0116000Y0170442D02*
X0108100Y0170442D01*
X0108100Y0168844D02*
X0116000Y0168844D01*
X0116000Y0167245D02*
X0107715Y0167245D01*
X0098578Y0164048D02*
X0094779Y0164048D01*
X0093489Y0162450D02*
X0096980Y0162450D01*
X0093223Y0175238D02*
X0091986Y0175238D01*
X0094468Y0138472D02*
X0096400Y0138472D01*
X0096400Y0136873D02*
X0095200Y0136873D01*
X0095200Y0135275D02*
X0096400Y0135275D01*
X0096400Y0133676D02*
X0094616Y0133676D01*
X0093018Y0132078D02*
X0096400Y0132078D01*
X0095010Y0130479D02*
X0086990Y0130479D01*
X0085392Y0132078D02*
X0088982Y0132078D01*
X0096154Y0125684D02*
X0116000Y0125684D01*
X0116000Y0135275D02*
X0115700Y0135275D01*
X0116000Y0146465D02*
X0115071Y0146465D01*
X0133017Y0190047D02*
X0133100Y0190130D01*
X0133100Y0193891D01*
X0133606Y0194100D01*
X0134900Y0195394D01*
X0135600Y0197085D01*
X0135600Y0204915D01*
X0135151Y0206000D01*
X0136000Y0206000D01*
X0136000Y0188812D01*
X0133017Y0190047D01*
X0134039Y0189624D02*
X0136000Y0189624D01*
X0136000Y0191223D02*
X0133100Y0191223D01*
X0133100Y0192821D02*
X0136000Y0192821D01*
X0136000Y0194420D02*
X0133925Y0194420D01*
X0135158Y0196018D02*
X0136000Y0196018D01*
X0136000Y0197617D02*
X0135600Y0197617D01*
X0135600Y0199215D02*
X0136000Y0199215D01*
X0136000Y0200814D02*
X0135600Y0200814D01*
X0135600Y0202412D02*
X0136000Y0202412D01*
X0136000Y0204011D02*
X0135600Y0204011D01*
X0135312Y0205609D02*
X0136000Y0205609D01*
X0013610Y0204011D02*
X0011000Y0204011D01*
X0011000Y0205609D02*
X0012011Y0205609D01*
X0011400Y0207208D02*
X0011000Y0207208D01*
X0011000Y0208806D02*
X0011400Y0208806D01*
X0011400Y0210405D02*
X0011000Y0210405D01*
X0011000Y0212003D02*
X0011400Y0212003D01*
X0011400Y0213602D02*
X0011000Y0213602D01*
X0011000Y0215201D02*
X0011518Y0215201D01*
M02*
