G75*
%MOIN*%
%OFA0B0*%
%FSLAX25Y25*%
%IPPOS*%
%LPD*%
%AMOC8*
5,1,8,0,0,1.08239X$1,22.5*
%
%ADD10C,0.01200*%
%ADD11C,0.01100*%
%ADD12C,0.00500*%
%ADD13C,0.00400*%
D10*
X0013096Y0219100D02*
X0016299Y0219100D01*
X0017900Y0220701D01*
X0016299Y0222303D01*
X0013096Y0222303D01*
X0014697Y0224625D02*
X0013096Y0226226D01*
X0017900Y0226226D01*
X0017900Y0224625D02*
X0017900Y0227827D01*
X0023096Y0227027D02*
X0023096Y0225425D01*
X0023897Y0224625D01*
X0023096Y0222303D02*
X0026299Y0222303D01*
X0027900Y0220701D01*
X0026299Y0219100D01*
X0023096Y0219100D01*
X0023096Y0227027D02*
X0023897Y0227827D01*
X0024697Y0227827D01*
X0027900Y0224625D01*
X0027900Y0227827D01*
X0033096Y0227027D02*
X0033897Y0227827D01*
X0034697Y0227827D01*
X0035498Y0227027D01*
X0036299Y0227827D01*
X0037099Y0227827D01*
X0037900Y0227027D01*
X0037900Y0225425D01*
X0037099Y0224625D01*
X0035498Y0226226D02*
X0035498Y0227027D01*
X0033897Y0224625D02*
X0033096Y0225425D01*
X0033096Y0227027D01*
X0033096Y0222303D02*
X0036299Y0222303D01*
X0037900Y0220701D01*
X0036299Y0219100D01*
X0033096Y0219100D01*
X0043096Y0219100D02*
X0046299Y0219100D01*
X0047900Y0220701D01*
X0046299Y0222303D01*
X0043096Y0222303D01*
X0045498Y0224625D02*
X0043096Y0227027D01*
X0047900Y0227027D01*
X0045498Y0227827D02*
X0045498Y0224625D01*
D11*
X0053546Y0224114D02*
X0057950Y0227050D01*
X0053546Y0227050D01*
X0053546Y0229179D02*
X0053546Y0231381D01*
X0054280Y0232114D01*
X0057216Y0232114D01*
X0057950Y0231381D01*
X0057950Y0229179D01*
X0053546Y0229179D01*
X0053546Y0224114D02*
X0057950Y0224114D01*
X0057216Y0221986D02*
X0055748Y0221986D01*
X0055748Y0220518D01*
X0054280Y0221986D02*
X0053546Y0221252D01*
X0053546Y0219784D01*
X0054280Y0219050D01*
X0057216Y0219050D01*
X0057950Y0219784D01*
X0057950Y0221252D01*
X0057216Y0221986D01*
X0063546Y0221252D02*
X0063546Y0219784D01*
X0064280Y0219050D01*
X0067216Y0219050D01*
X0067950Y0219784D01*
X0067950Y0221252D01*
X0067216Y0221986D01*
X0065748Y0221986D01*
X0065748Y0220518D01*
X0064280Y0221986D02*
X0063546Y0221252D01*
X0063546Y0224114D02*
X0067950Y0227050D01*
X0063546Y0227050D01*
X0063546Y0229179D02*
X0063546Y0231381D01*
X0064280Y0232114D01*
X0067216Y0232114D01*
X0067950Y0231381D01*
X0067950Y0229179D01*
X0063546Y0229179D01*
X0063546Y0224114D02*
X0067950Y0224114D01*
X0073546Y0224114D02*
X0077950Y0227050D01*
X0073546Y0227050D01*
X0073546Y0229179D02*
X0073546Y0231381D01*
X0074280Y0232114D01*
X0077216Y0232114D01*
X0077950Y0231381D01*
X0077950Y0229179D01*
X0073546Y0229179D01*
X0073546Y0224114D02*
X0077950Y0224114D01*
X0077216Y0221986D02*
X0075748Y0221986D01*
X0075748Y0220518D01*
X0074280Y0221986D02*
X0073546Y0221252D01*
X0073546Y0219784D01*
X0074280Y0219050D01*
X0077216Y0219050D01*
X0077950Y0219784D01*
X0077950Y0221252D01*
X0077216Y0221986D01*
X0083546Y0221252D02*
X0083546Y0219784D01*
X0084280Y0219050D01*
X0087216Y0219050D01*
X0087950Y0219784D01*
X0087950Y0221252D01*
X0087216Y0221986D01*
X0085748Y0221986D01*
X0085748Y0220518D01*
X0084280Y0221986D02*
X0083546Y0221252D01*
X0083546Y0224114D02*
X0087950Y0227050D01*
X0083546Y0227050D01*
X0083546Y0229179D02*
X0083546Y0231381D01*
X0084280Y0232114D01*
X0087216Y0232114D01*
X0087950Y0231381D01*
X0087950Y0229179D01*
X0083546Y0229179D01*
X0083546Y0224114D02*
X0087950Y0224114D01*
X0098546Y0224243D02*
X0098546Y0225711D01*
X0098546Y0224977D02*
X0102950Y0224977D01*
X0102950Y0224243D02*
X0102950Y0225711D01*
X0102950Y0227619D02*
X0098546Y0227619D01*
X0102950Y0230555D01*
X0098546Y0230555D01*
X0098546Y0217050D02*
X0101482Y0217050D01*
X0102950Y0215582D01*
X0101482Y0214114D01*
X0098546Y0214114D01*
X0098546Y0211986D02*
X0098546Y0209050D01*
X0100748Y0209050D01*
X0100014Y0210518D01*
X0100014Y0211252D01*
X0100748Y0211986D01*
X0102216Y0211986D01*
X0102950Y0211252D01*
X0102950Y0209784D01*
X0102216Y0209050D01*
X0108546Y0209784D02*
X0108546Y0211252D01*
X0109280Y0211986D01*
X0110014Y0211986D01*
X0110748Y0211252D01*
X0111482Y0211986D01*
X0112216Y0211986D01*
X0112950Y0211252D01*
X0112950Y0209784D01*
X0112216Y0209050D01*
X0110748Y0210518D02*
X0110748Y0211252D01*
X0109280Y0209050D02*
X0108546Y0209784D01*
X0108546Y0214114D02*
X0111482Y0214114D01*
X0112950Y0215582D01*
X0111482Y0217050D01*
X0108546Y0217050D01*
X0109280Y0219179D02*
X0108546Y0219913D01*
X0108546Y0221381D01*
X0109280Y0222114D01*
X0110014Y0222114D01*
X0110748Y0221381D01*
X0111482Y0222114D01*
X0112216Y0222114D01*
X0112950Y0221381D01*
X0112950Y0219913D01*
X0112216Y0219179D01*
X0110748Y0220647D02*
X0110748Y0221381D01*
X0108546Y0229307D02*
X0108546Y0230775D01*
X0108546Y0230041D02*
X0112950Y0230041D01*
X0112950Y0229307D02*
X0112950Y0230775D01*
X0112950Y0232684D02*
X0108546Y0232684D01*
X0112950Y0235619D01*
X0108546Y0235619D01*
X0118546Y0231509D02*
X0118546Y0230041D01*
X0119280Y0229307D01*
X0122216Y0229307D01*
X0122950Y0230041D01*
X0122950Y0231509D01*
X0122216Y0232243D01*
X0120748Y0232243D01*
X0120748Y0230775D01*
X0119280Y0232243D02*
X0118546Y0231509D01*
X0119280Y0227179D02*
X0118546Y0226445D01*
X0118546Y0224977D01*
X0119280Y0224243D01*
X0122216Y0224243D01*
X0122950Y0224977D01*
X0122950Y0226445D01*
X0122216Y0227179D01*
X0119280Y0227179D01*
X0122950Y0222114D02*
X0122950Y0219179D01*
X0118546Y0219179D01*
X0118546Y0211986D02*
X0121482Y0211986D01*
X0122950Y0210518D01*
X0121482Y0209050D01*
X0118546Y0209050D01*
X0128546Y0209784D02*
X0129280Y0209050D01*
X0132216Y0209050D01*
X0132950Y0209784D01*
X0132950Y0211252D01*
X0132216Y0211986D01*
X0130748Y0211986D01*
X0130748Y0210518D01*
X0129280Y0211986D02*
X0128546Y0211252D01*
X0128546Y0209784D01*
X0128546Y0214114D02*
X0132950Y0217050D01*
X0128546Y0217050D01*
X0128546Y0219179D02*
X0128546Y0221381D01*
X0129280Y0222114D01*
X0132216Y0222114D01*
X0132950Y0221381D01*
X0132950Y0219179D01*
X0128546Y0219179D01*
X0128546Y0214114D02*
X0132950Y0214114D01*
X0116986Y0193454D02*
X0114050Y0193454D01*
X0114050Y0189050D01*
X0116986Y0189050D01*
X0115518Y0191252D02*
X0114050Y0191252D01*
X0106986Y0191986D02*
X0106252Y0191252D01*
X0104050Y0191252D01*
X0104050Y0193454D02*
X0106252Y0193454D01*
X0106986Y0192720D01*
X0106986Y0191986D01*
X0106252Y0191252D02*
X0106986Y0190518D01*
X0106986Y0189784D01*
X0106252Y0189050D01*
X0104050Y0189050D01*
X0104050Y0193454D01*
X0096986Y0192720D02*
X0096252Y0193454D01*
X0094784Y0193454D01*
X0094050Y0192720D01*
X0094050Y0189784D01*
X0094784Y0189050D01*
X0096252Y0189050D01*
X0096986Y0189784D01*
X0086986Y0180220D02*
X0086986Y0179486D01*
X0086252Y0178752D01*
X0084050Y0178752D01*
X0084050Y0176550D02*
X0084050Y0180954D01*
X0086252Y0180954D01*
X0086986Y0180220D01*
X0086252Y0178752D02*
X0086986Y0178018D01*
X0086986Y0177284D01*
X0086252Y0176550D01*
X0084050Y0176550D01*
X0071986Y0177284D02*
X0071252Y0176550D01*
X0069784Y0176550D01*
X0069050Y0177284D01*
X0069050Y0180220D01*
X0069784Y0180954D01*
X0071252Y0180954D01*
X0071986Y0180220D01*
X0061986Y0180954D02*
X0059050Y0180954D01*
X0059050Y0176550D01*
X0061986Y0176550D01*
X0060518Y0178752D02*
X0059050Y0178752D01*
X0051252Y0158454D02*
X0049050Y0158454D01*
X0049050Y0154050D01*
X0051252Y0154050D01*
X0051986Y0154784D01*
X0051986Y0155518D01*
X0051252Y0156252D01*
X0049050Y0156252D01*
X0051252Y0156252D02*
X0051986Y0156986D01*
X0051986Y0157720D01*
X0051252Y0158454D01*
X0041986Y0157720D02*
X0041252Y0158454D01*
X0039784Y0158454D01*
X0039050Y0157720D01*
X0039050Y0154784D01*
X0039784Y0154050D01*
X0041252Y0154050D01*
X0041986Y0154784D01*
X0031986Y0174050D02*
X0029050Y0174050D01*
X0029050Y0178454D01*
X0031986Y0178454D01*
X0030518Y0176252D02*
X0029050Y0176252D01*
X0021986Y0176986D02*
X0021252Y0176252D01*
X0019050Y0176252D01*
X0019050Y0174050D02*
X0019050Y0178454D01*
X0021252Y0178454D01*
X0021986Y0177720D01*
X0021986Y0176986D01*
X0021252Y0176252D02*
X0021986Y0175518D01*
X0021986Y0174784D01*
X0021252Y0174050D01*
X0019050Y0174050D01*
X0011986Y0174784D02*
X0011252Y0174050D01*
X0009784Y0174050D01*
X0009050Y0174784D01*
X0009050Y0177720D01*
X0009784Y0178454D01*
X0011252Y0178454D01*
X0011986Y0177720D01*
X0096550Y0170954D02*
X0096550Y0166550D01*
X0099486Y0166550D01*
X0098018Y0168752D02*
X0096550Y0168752D01*
X0096550Y0170954D02*
X0099486Y0170954D01*
X0119050Y0163454D02*
X0119050Y0161252D01*
X0120518Y0161986D01*
X0121252Y0161986D01*
X0121986Y0161252D01*
X0121986Y0159784D01*
X0121252Y0159050D01*
X0119784Y0159050D01*
X0119050Y0159784D01*
X0119050Y0163454D02*
X0121986Y0163454D01*
X0124114Y0163454D02*
X0124114Y0160518D01*
X0125582Y0159050D01*
X0127050Y0160518D01*
X0127050Y0163454D01*
X0127050Y0153454D02*
X0127050Y0150518D01*
X0125582Y0149050D01*
X0124114Y0150518D01*
X0124114Y0153454D01*
X0121986Y0153454D02*
X0119050Y0153454D01*
X0119050Y0151252D01*
X0120518Y0151986D01*
X0121252Y0151986D01*
X0121986Y0151252D01*
X0121986Y0149784D01*
X0121252Y0149050D01*
X0119784Y0149050D01*
X0119050Y0149784D01*
X0119050Y0143454D02*
X0119050Y0141252D01*
X0120518Y0141986D01*
X0121252Y0141986D01*
X0121986Y0141252D01*
X0121986Y0139784D01*
X0121252Y0139050D01*
X0119784Y0139050D01*
X0119050Y0139784D01*
X0119050Y0143454D02*
X0121986Y0143454D01*
X0124114Y0143454D02*
X0124114Y0140518D01*
X0125582Y0139050D01*
X0127050Y0140518D01*
X0127050Y0143454D01*
X0127050Y0133454D02*
X0127050Y0130518D01*
X0125582Y0129050D01*
X0124114Y0130518D01*
X0124114Y0133454D01*
X0121986Y0133454D02*
X0119050Y0133454D01*
X0119050Y0131252D01*
X0120518Y0131986D01*
X0121252Y0131986D01*
X0121986Y0131252D01*
X0121986Y0129784D01*
X0121252Y0129050D01*
X0119784Y0129050D01*
X0119050Y0129784D01*
X0119050Y0123454D02*
X0121252Y0123454D01*
X0121986Y0122720D01*
X0121986Y0121252D01*
X0121252Y0120518D01*
X0119050Y0120518D01*
X0119050Y0119050D02*
X0119050Y0123454D01*
X0124114Y0123454D02*
X0124114Y0119050D01*
X0126316Y0119050D01*
X0127050Y0119784D01*
X0127050Y0122720D01*
X0126316Y0123454D01*
X0124114Y0123454D01*
X0129179Y0121252D02*
X0132114Y0121252D01*
X0131381Y0119050D02*
X0131381Y0123454D01*
X0129179Y0121252D01*
X0129913Y0113454D02*
X0129179Y0112720D01*
X0129913Y0113454D02*
X0131381Y0113454D01*
X0132114Y0112720D01*
X0132114Y0111986D01*
X0131381Y0111252D01*
X0132114Y0110518D01*
X0132114Y0109784D01*
X0131381Y0109050D01*
X0129913Y0109050D01*
X0129179Y0109784D01*
X0130647Y0111252D02*
X0131381Y0111252D01*
X0127050Y0109784D02*
X0127050Y0112720D01*
X0126316Y0113454D01*
X0124114Y0113454D01*
X0124114Y0109050D01*
X0126316Y0109050D01*
X0127050Y0109784D01*
X0126316Y0103454D02*
X0124114Y0103454D01*
X0124114Y0099050D01*
X0126316Y0099050D01*
X0127050Y0099784D01*
X0127050Y0102720D01*
X0126316Y0103454D01*
X0129179Y0102720D02*
X0129913Y0103454D01*
X0131381Y0103454D01*
X0132114Y0102720D01*
X0132114Y0101986D01*
X0129179Y0099050D01*
X0132114Y0099050D01*
X0130647Y0093454D02*
X0129179Y0091986D01*
X0130647Y0093454D02*
X0130647Y0089050D01*
X0132114Y0089050D02*
X0129179Y0089050D01*
X0127050Y0089784D02*
X0127050Y0092720D01*
X0126316Y0093454D01*
X0124114Y0093454D01*
X0124114Y0089050D01*
X0126316Y0089050D01*
X0127050Y0089784D01*
X0129913Y0083454D02*
X0129179Y0082720D01*
X0129913Y0083454D02*
X0131381Y0083454D01*
X0132114Y0082720D01*
X0132114Y0081986D01*
X0131381Y0081252D01*
X0132114Y0080518D01*
X0132114Y0079784D01*
X0131381Y0079050D01*
X0129913Y0079050D01*
X0129179Y0079784D01*
X0130647Y0081252D02*
X0131381Y0081252D01*
X0127050Y0081986D02*
X0125582Y0079050D01*
X0124114Y0081986D01*
X0121986Y0081986D02*
X0121252Y0081252D01*
X0121986Y0080518D01*
X0121986Y0079784D01*
X0121252Y0079050D01*
X0119784Y0079050D01*
X0119050Y0079784D01*
X0120518Y0081252D02*
X0121252Y0081252D01*
X0121986Y0081986D02*
X0121986Y0082720D01*
X0121252Y0083454D01*
X0119784Y0083454D01*
X0119050Y0082720D01*
X0119050Y0089050D02*
X0119050Y0093454D01*
X0121252Y0093454D01*
X0121986Y0092720D01*
X0121986Y0091252D01*
X0121252Y0090518D01*
X0119050Y0090518D01*
X0119050Y0099050D02*
X0119050Y0103454D01*
X0121252Y0103454D01*
X0121986Y0102720D01*
X0121986Y0101252D01*
X0121252Y0100518D01*
X0119050Y0100518D01*
X0119050Y0109050D02*
X0119050Y0113454D01*
X0121252Y0113454D01*
X0121986Y0112720D01*
X0121986Y0111252D01*
X0121252Y0110518D01*
X0119050Y0110518D01*
X0119784Y0073454D02*
X0119050Y0072720D01*
X0119784Y0073454D02*
X0121252Y0073454D01*
X0121986Y0072720D01*
X0121986Y0071986D01*
X0121252Y0071252D01*
X0121986Y0070518D01*
X0121986Y0069784D01*
X0121252Y0069050D01*
X0119784Y0069050D01*
X0119050Y0069784D01*
X0120518Y0071252D02*
X0121252Y0071252D01*
X0124114Y0071986D02*
X0125582Y0069050D01*
X0127050Y0071986D01*
X0129179Y0072720D02*
X0129913Y0073454D01*
X0131381Y0073454D01*
X0132114Y0072720D01*
X0132114Y0071986D01*
X0131381Y0071252D01*
X0132114Y0070518D01*
X0132114Y0069784D01*
X0131381Y0069050D01*
X0129913Y0069050D01*
X0129179Y0069784D01*
X0130647Y0071252D02*
X0131381Y0071252D01*
X0131381Y0063454D02*
X0129913Y0063454D01*
X0129179Y0062720D01*
X0130647Y0061252D02*
X0131381Y0061252D01*
X0132114Y0060518D01*
X0132114Y0059784D01*
X0131381Y0059050D01*
X0129913Y0059050D01*
X0129179Y0059784D01*
X0127050Y0061986D02*
X0125582Y0059050D01*
X0124114Y0061986D01*
X0121986Y0061986D02*
X0121252Y0061252D01*
X0121986Y0060518D01*
X0121986Y0059784D01*
X0121252Y0059050D01*
X0119784Y0059050D01*
X0119050Y0059784D01*
X0120518Y0061252D02*
X0121252Y0061252D01*
X0121986Y0061986D02*
X0121986Y0062720D01*
X0121252Y0063454D01*
X0119784Y0063454D01*
X0119050Y0062720D01*
X0119784Y0053454D02*
X0121252Y0053454D01*
X0121986Y0052720D01*
X0121986Y0051986D01*
X0121252Y0051252D01*
X0121986Y0050518D01*
X0121986Y0049784D01*
X0121252Y0049050D01*
X0119784Y0049050D01*
X0119050Y0049784D01*
X0120518Y0051252D02*
X0121252Y0051252D01*
X0119050Y0052720D02*
X0119784Y0053454D01*
X0124114Y0051986D02*
X0125582Y0049050D01*
X0127050Y0051986D01*
X0129179Y0052720D02*
X0129913Y0053454D01*
X0131381Y0053454D01*
X0132114Y0052720D01*
X0132114Y0051986D01*
X0131381Y0051252D01*
X0132114Y0050518D01*
X0132114Y0049784D01*
X0131381Y0049050D01*
X0129913Y0049050D01*
X0129179Y0049784D01*
X0130647Y0051252D02*
X0131381Y0051252D01*
X0132114Y0043454D02*
X0132114Y0039050D01*
X0129179Y0043454D01*
X0129179Y0039050D01*
X0127050Y0039784D02*
X0127050Y0041252D01*
X0125582Y0041252D01*
X0124114Y0042720D02*
X0124114Y0039784D01*
X0124848Y0039050D01*
X0126316Y0039050D01*
X0127050Y0039784D01*
X0127050Y0042720D02*
X0126316Y0043454D01*
X0124848Y0043454D01*
X0124114Y0042720D01*
X0121986Y0042720D02*
X0121986Y0041252D01*
X0121252Y0040518D01*
X0119050Y0040518D01*
X0120518Y0040518D02*
X0121986Y0039050D01*
X0121986Y0042720D02*
X0121252Y0043454D01*
X0119050Y0043454D01*
X0119050Y0039050D01*
X0119050Y0033454D02*
X0121252Y0033454D01*
X0121986Y0032720D01*
X0121986Y0031252D01*
X0121252Y0030518D01*
X0119050Y0030518D01*
X0120518Y0030518D02*
X0121986Y0029050D01*
X0124114Y0029784D02*
X0124848Y0029050D01*
X0126316Y0029050D01*
X0127050Y0029784D01*
X0127050Y0031252D01*
X0125582Y0031252D01*
X0124114Y0032720D02*
X0124114Y0029784D01*
X0124114Y0032720D02*
X0124848Y0033454D01*
X0126316Y0033454D01*
X0127050Y0032720D01*
X0129179Y0033454D02*
X0129179Y0029050D01*
X0132114Y0029050D02*
X0129179Y0033454D01*
X0132114Y0033454D02*
X0132114Y0029050D01*
X0134243Y0029050D02*
X0136445Y0029050D01*
X0137179Y0029784D01*
X0137179Y0032720D01*
X0136445Y0033454D01*
X0134243Y0033454D01*
X0134243Y0029050D01*
X0134243Y0023454D02*
X0136445Y0023454D01*
X0137179Y0022720D01*
X0137179Y0019784D01*
X0136445Y0019050D01*
X0134243Y0019050D01*
X0134243Y0023454D01*
X0132114Y0023454D02*
X0132114Y0019050D01*
X0129179Y0023454D01*
X0129179Y0019050D01*
X0127050Y0019784D02*
X0127050Y0021252D01*
X0125582Y0021252D01*
X0124114Y0022720D02*
X0124114Y0019784D01*
X0124848Y0019050D01*
X0126316Y0019050D01*
X0127050Y0019784D01*
X0127050Y0022720D02*
X0126316Y0023454D01*
X0124848Y0023454D01*
X0124114Y0022720D01*
X0121986Y0022720D02*
X0121986Y0021252D01*
X0121252Y0020518D01*
X0119050Y0020518D01*
X0120518Y0020518D02*
X0121986Y0019050D01*
X0119050Y0019050D02*
X0119050Y0023454D01*
X0121252Y0023454D01*
X0121986Y0022720D01*
X0119050Y0029050D02*
X0119050Y0033454D01*
X0119050Y0013454D02*
X0121252Y0013454D01*
X0121986Y0012720D01*
X0121986Y0011252D01*
X0121252Y0010518D01*
X0119050Y0010518D01*
X0120518Y0010518D02*
X0121986Y0009050D01*
X0124114Y0009784D02*
X0124114Y0012720D01*
X0124848Y0013454D01*
X0126316Y0013454D01*
X0127050Y0012720D01*
X0127050Y0011252D02*
X0125582Y0011252D01*
X0127050Y0011252D02*
X0127050Y0009784D01*
X0126316Y0009050D01*
X0124848Y0009050D01*
X0124114Y0009784D01*
X0129179Y0009050D02*
X0129179Y0013454D01*
X0132114Y0009050D01*
X0132114Y0013454D01*
X0134243Y0013454D02*
X0134243Y0009050D01*
X0136445Y0009050D01*
X0137179Y0009784D01*
X0137179Y0012720D01*
X0136445Y0013454D01*
X0134243Y0013454D01*
X0119050Y0013454D02*
X0119050Y0009050D01*
X0134243Y0039050D02*
X0136445Y0039050D01*
X0137179Y0039784D01*
X0137179Y0042720D01*
X0136445Y0043454D01*
X0134243Y0043454D01*
X0134243Y0039050D01*
X0131381Y0061252D02*
X0132114Y0061986D01*
X0132114Y0062720D01*
X0131381Y0063454D01*
D12*
X0033250Y0030126D02*
X0028746Y0030126D01*
X0028746Y0034730D02*
X0030247Y0036232D01*
X0028746Y0037733D01*
X0033250Y0037733D01*
X0032499Y0039334D02*
X0033250Y0040085D01*
X0033250Y0041586D01*
X0032499Y0042337D01*
X0031749Y0042337D01*
X0030998Y0041586D01*
X0030998Y0040836D01*
X0030998Y0041586D02*
X0030247Y0042337D01*
X0029497Y0042337D01*
X0028746Y0041586D01*
X0028746Y0040085D01*
X0029497Y0039334D01*
X0029497Y0043938D02*
X0028746Y0044689D01*
X0028746Y0046190D01*
X0029497Y0046941D01*
X0030247Y0046941D01*
X0033250Y0043938D01*
X0033250Y0046941D01*
X0030998Y0048542D02*
X0030998Y0051545D01*
X0028746Y0050794D02*
X0030998Y0048542D01*
X0033250Y0050794D02*
X0028746Y0050794D01*
X0028746Y0053146D02*
X0033250Y0056149D01*
X0028746Y0056149D01*
X0028746Y0053146D02*
X0033250Y0053146D01*
X0033250Y0034730D02*
X0028746Y0034730D01*
X0033250Y0033129D02*
X0033250Y0030126D01*
X0033250Y0100126D02*
X0028746Y0100126D01*
X0028746Y0104730D02*
X0030247Y0106232D01*
X0028746Y0107733D01*
X0033250Y0107733D01*
X0032499Y0109334D02*
X0033250Y0110085D01*
X0033250Y0111586D01*
X0032499Y0112337D01*
X0031749Y0112337D01*
X0030998Y0111586D01*
X0030998Y0110836D01*
X0030998Y0111586D02*
X0030247Y0112337D01*
X0029497Y0112337D01*
X0028746Y0111586D01*
X0028746Y0110085D01*
X0029497Y0109334D01*
X0029497Y0113938D02*
X0028746Y0114689D01*
X0028746Y0116190D01*
X0029497Y0116941D01*
X0030247Y0116941D01*
X0030998Y0116190D01*
X0031749Y0116941D01*
X0032499Y0116941D01*
X0033250Y0116190D01*
X0033250Y0114689D01*
X0032499Y0113938D01*
X0030998Y0115439D02*
X0030998Y0116190D01*
X0030247Y0118542D02*
X0030998Y0119293D01*
X0030998Y0121545D01*
X0029497Y0121545D02*
X0028746Y0120794D01*
X0028746Y0119293D01*
X0029497Y0118542D01*
X0030247Y0118542D01*
X0032499Y0118542D02*
X0033250Y0119293D01*
X0033250Y0120794D01*
X0032499Y0121545D01*
X0029497Y0121545D01*
X0028746Y0123146D02*
X0033250Y0126149D01*
X0028746Y0126149D01*
X0028746Y0123146D02*
X0033250Y0123146D01*
X0033250Y0104730D02*
X0028746Y0104730D01*
X0033250Y0103129D02*
X0033250Y0100126D01*
D13*
X0069800Y0097803D02*
X0072135Y0097803D01*
X0070968Y0097803D02*
X0070968Y0094300D01*
X0073391Y0094300D02*
X0073391Y0097803D01*
X0075143Y0097803D01*
X0075726Y0097219D01*
X0075726Y0096051D01*
X0075143Y0095468D01*
X0073391Y0095468D01*
X0074559Y0095468D02*
X0075726Y0094300D01*
X0076982Y0094300D02*
X0076982Y0096635D01*
X0078150Y0097803D01*
X0079317Y0096635D01*
X0079317Y0094300D01*
X0079317Y0096051D02*
X0076982Y0096051D01*
X0078150Y0087803D02*
X0079317Y0086635D01*
X0079317Y0084300D01*
X0079317Y0086051D02*
X0076982Y0086051D01*
X0076982Y0086635D02*
X0078150Y0087803D01*
X0076982Y0086635D02*
X0076982Y0084300D01*
X0075726Y0084300D02*
X0074559Y0085468D01*
X0075143Y0085468D02*
X0073391Y0085468D01*
X0073391Y0084300D02*
X0073391Y0087803D01*
X0075143Y0087803D01*
X0075726Y0087219D01*
X0075726Y0086051D01*
X0075143Y0085468D01*
X0072135Y0087803D02*
X0069800Y0087803D01*
X0070968Y0087803D02*
X0070968Y0084300D01*
X0072135Y0077803D02*
X0070968Y0077219D01*
X0069800Y0076051D01*
X0071551Y0076051D01*
X0072135Y0075468D01*
X0072135Y0074884D01*
X0071551Y0074300D01*
X0070384Y0074300D01*
X0069800Y0074884D01*
X0069800Y0076051D01*
X0073391Y0075468D02*
X0073391Y0074884D01*
X0073975Y0074300D01*
X0075143Y0074300D01*
X0075726Y0074884D01*
X0075726Y0075468D01*
X0075143Y0076051D01*
X0073975Y0076051D01*
X0073391Y0076635D01*
X0073391Y0077219D01*
X0073975Y0077803D01*
X0075143Y0077803D01*
X0075726Y0077219D01*
X0075726Y0076635D01*
X0075143Y0076051D01*
X0073975Y0076051D02*
X0073391Y0075468D01*
X0076982Y0076051D02*
X0076982Y0077219D01*
X0077566Y0077803D01*
X0078734Y0077803D01*
X0079317Y0077219D01*
X0079317Y0076051D01*
X0078734Y0075468D01*
X0078734Y0074300D01*
X0079317Y0074300D01*
X0077566Y0074300D02*
X0077566Y0075468D01*
X0076982Y0076051D01*
X0076982Y0074300D02*
X0077566Y0074300D01*
X0077566Y0067803D02*
X0078734Y0067803D01*
X0079317Y0067219D01*
X0079317Y0066051D01*
X0078734Y0065468D01*
X0078734Y0064300D01*
X0079317Y0064300D01*
X0077566Y0064300D02*
X0077566Y0065468D01*
X0076982Y0066051D01*
X0076982Y0067219D01*
X0077566Y0067803D01*
X0075726Y0067219D02*
X0075726Y0066635D01*
X0075143Y0066051D01*
X0073975Y0066051D01*
X0073391Y0066635D01*
X0073391Y0067219D01*
X0073975Y0067803D01*
X0075143Y0067803D01*
X0075726Y0067219D01*
X0075143Y0066051D02*
X0075726Y0065468D01*
X0075726Y0064884D01*
X0075143Y0064300D01*
X0073975Y0064300D01*
X0073391Y0064884D01*
X0073391Y0065468D01*
X0073975Y0066051D01*
X0072135Y0065468D02*
X0072135Y0064884D01*
X0071551Y0064300D01*
X0070384Y0064300D01*
X0069800Y0064884D01*
X0069800Y0066051D01*
X0071551Y0066051D01*
X0072135Y0065468D01*
X0070968Y0067219D02*
X0072135Y0067803D01*
X0070968Y0067219D02*
X0069800Y0066051D01*
X0072135Y0057803D02*
X0070968Y0057219D01*
X0069800Y0056051D01*
X0071551Y0056051D01*
X0072135Y0055468D01*
X0072135Y0054884D01*
X0071551Y0054300D01*
X0070384Y0054300D01*
X0069800Y0054884D01*
X0069800Y0056051D01*
X0073391Y0055468D02*
X0073975Y0056051D01*
X0075143Y0056051D01*
X0075726Y0055468D01*
X0075726Y0054884D01*
X0075143Y0054300D01*
X0073975Y0054300D01*
X0073391Y0054884D01*
X0073391Y0055468D01*
X0073975Y0056051D02*
X0073391Y0056635D01*
X0073391Y0057219D01*
X0073975Y0057803D01*
X0075143Y0057803D01*
X0075726Y0057219D01*
X0075726Y0056635D01*
X0075143Y0056051D01*
X0076982Y0056051D02*
X0076982Y0057219D01*
X0077566Y0057803D01*
X0078734Y0057803D01*
X0079317Y0057219D01*
X0079317Y0056051D01*
X0078734Y0055468D01*
X0078734Y0054300D01*
X0079317Y0054300D01*
X0077566Y0054300D02*
X0077566Y0055468D01*
X0076982Y0056051D01*
X0076982Y0054300D02*
X0077566Y0054300D01*
X0077566Y0047803D02*
X0076982Y0047219D01*
X0076982Y0046051D01*
X0077566Y0045468D01*
X0077566Y0044300D01*
X0076982Y0044300D01*
X0075726Y0044884D02*
X0075143Y0044300D01*
X0073975Y0044300D01*
X0073391Y0044884D01*
X0073391Y0045468D01*
X0073975Y0046051D01*
X0075143Y0046051D01*
X0075726Y0045468D01*
X0075726Y0044884D01*
X0075143Y0046051D02*
X0075726Y0046635D01*
X0075726Y0047219D01*
X0075143Y0047803D01*
X0073975Y0047803D01*
X0073391Y0047219D01*
X0073391Y0046635D01*
X0073975Y0046051D01*
X0072135Y0045468D02*
X0071551Y0046051D01*
X0069800Y0046051D01*
X0069800Y0044884D01*
X0070384Y0044300D01*
X0071551Y0044300D01*
X0072135Y0044884D01*
X0072135Y0045468D01*
X0070968Y0047219D02*
X0069800Y0046051D01*
X0070968Y0047219D02*
X0072135Y0047803D01*
X0077566Y0047803D02*
X0078734Y0047803D01*
X0079317Y0047219D01*
X0079317Y0046051D01*
X0078734Y0045468D01*
X0078734Y0044300D01*
X0079317Y0044300D01*
X0078135Y0037803D02*
X0076967Y0037803D01*
X0076384Y0037219D01*
X0076384Y0036051D01*
X0076967Y0035468D01*
X0076967Y0034300D01*
X0076384Y0034300D01*
X0075143Y0034300D02*
X0073391Y0035468D01*
X0075143Y0036635D01*
X0073391Y0037803D02*
X0073391Y0034300D01*
X0072135Y0034884D02*
X0071551Y0034300D01*
X0070384Y0034300D01*
X0069800Y0034884D01*
X0070968Y0036051D02*
X0071551Y0036051D01*
X0072135Y0035468D01*
X0072135Y0034884D01*
X0071551Y0036051D02*
X0072135Y0036635D01*
X0072135Y0037219D01*
X0071551Y0037803D01*
X0070384Y0037803D01*
X0069800Y0037219D01*
X0070384Y0027803D02*
X0069800Y0027219D01*
X0070384Y0027803D02*
X0071551Y0027803D01*
X0072135Y0027219D01*
X0072135Y0026635D01*
X0071551Y0026051D01*
X0072135Y0025468D01*
X0072135Y0024884D01*
X0071551Y0024300D01*
X0070384Y0024300D01*
X0069800Y0024884D01*
X0070968Y0026051D02*
X0071551Y0026051D01*
X0073391Y0025468D02*
X0075143Y0026635D01*
X0076384Y0026051D02*
X0076384Y0027219D01*
X0076967Y0027803D01*
X0078135Y0027803D01*
X0078719Y0027219D01*
X0078719Y0026051D01*
X0078135Y0025468D01*
X0078135Y0024300D01*
X0078719Y0024300D01*
X0076967Y0024300D02*
X0076967Y0025468D01*
X0076384Y0026051D01*
X0076384Y0024300D02*
X0076967Y0024300D01*
X0075143Y0024300D02*
X0073391Y0025468D01*
X0073391Y0024300D02*
X0073391Y0027803D01*
X0078135Y0034300D02*
X0078719Y0034300D01*
X0078135Y0034300D02*
X0078135Y0035468D01*
X0078719Y0036051D01*
X0078719Y0037219D01*
X0078135Y0037803D01*
X0077566Y0064300D02*
X0076982Y0064300D01*
X0076982Y0104300D02*
X0076982Y0106635D01*
X0078150Y0107803D01*
X0079317Y0106635D01*
X0079317Y0104300D01*
X0079317Y0106051D02*
X0076982Y0106051D01*
X0075726Y0106051D02*
X0075726Y0107219D01*
X0075143Y0107803D01*
X0073391Y0107803D01*
X0073391Y0104300D01*
X0073391Y0105468D02*
X0075143Y0105468D01*
X0075726Y0106051D01*
X0074559Y0105468D02*
X0075726Y0104300D01*
X0072135Y0107803D02*
X0069800Y0107803D01*
X0070968Y0107803D02*
X0070968Y0104300D01*
X0070968Y0114300D02*
X0070968Y0117803D01*
X0072135Y0117803D02*
X0069800Y0117803D01*
X0073391Y0117803D02*
X0073391Y0114300D01*
X0073391Y0115468D02*
X0075143Y0115468D01*
X0075726Y0116051D01*
X0075726Y0117219D01*
X0075143Y0117803D01*
X0073391Y0117803D01*
X0074559Y0115468D02*
X0075726Y0114300D01*
X0076982Y0114300D02*
X0076982Y0116635D01*
X0078150Y0117803D01*
X0079317Y0116635D01*
X0079317Y0114300D01*
X0079317Y0116051D02*
X0076982Y0116051D01*
X0076967Y0124300D02*
X0076967Y0125468D01*
X0076384Y0126051D01*
X0076384Y0127219D01*
X0076967Y0127803D01*
X0078135Y0127803D01*
X0078719Y0127219D01*
X0078719Y0126051D01*
X0078135Y0125468D01*
X0078135Y0124300D01*
X0078719Y0124300D01*
X0076967Y0124300D02*
X0076384Y0124300D01*
X0075143Y0124300D02*
X0073391Y0125468D01*
X0075143Y0126635D01*
X0073391Y0127803D02*
X0073391Y0124300D01*
X0072135Y0124884D02*
X0071551Y0124300D01*
X0070384Y0124300D01*
X0069800Y0124884D01*
X0070968Y0126051D02*
X0071551Y0126051D01*
X0072135Y0125468D01*
X0072135Y0124884D01*
X0071551Y0126051D02*
X0072135Y0126635D01*
X0072135Y0127219D01*
X0071551Y0127803D01*
X0070384Y0127803D01*
X0069800Y0127219D01*
X0070384Y0134300D02*
X0069800Y0134884D01*
X0070384Y0134300D02*
X0071551Y0134300D01*
X0072135Y0134884D01*
X0072135Y0135468D01*
X0071551Y0136051D01*
X0070968Y0136051D01*
X0071551Y0136051D02*
X0072135Y0136635D01*
X0072135Y0137219D01*
X0071551Y0137803D01*
X0070384Y0137803D01*
X0069800Y0137219D01*
X0073391Y0137803D02*
X0073391Y0134300D01*
X0073391Y0135468D02*
X0075143Y0136635D01*
X0076384Y0136051D02*
X0076967Y0135468D01*
X0076967Y0134300D01*
X0076384Y0134300D01*
X0075143Y0134300D02*
X0073391Y0135468D01*
X0076384Y0136051D02*
X0076384Y0137219D01*
X0076967Y0137803D01*
X0078135Y0137803D01*
X0078719Y0137219D01*
X0078719Y0136051D01*
X0078135Y0135468D01*
X0078135Y0134300D01*
X0078719Y0134300D01*
X0078719Y0144300D02*
X0078135Y0144300D01*
X0078135Y0145468D01*
X0078719Y0146051D01*
X0078719Y0147219D01*
X0078135Y0147803D01*
X0076967Y0147803D01*
X0076384Y0147219D01*
X0076384Y0146051D01*
X0076967Y0145468D01*
X0076967Y0144300D01*
X0076384Y0144300D01*
X0075143Y0144300D02*
X0073391Y0145468D01*
X0075143Y0146635D01*
X0073391Y0147803D02*
X0073391Y0144300D01*
X0072135Y0144884D02*
X0072135Y0145468D01*
X0071551Y0146051D01*
X0070968Y0146051D01*
X0071551Y0146051D02*
X0072135Y0146635D01*
X0072135Y0147219D01*
X0071551Y0147803D01*
X0070384Y0147803D01*
X0069800Y0147219D01*
X0069800Y0144884D02*
X0070384Y0144300D01*
X0071551Y0144300D01*
X0072135Y0144884D01*
X0071551Y0154300D02*
X0070384Y0154300D01*
X0069800Y0154884D01*
X0070968Y0156051D02*
X0071551Y0156051D01*
X0072135Y0155468D01*
X0072135Y0154884D01*
X0071551Y0154300D01*
X0071551Y0156051D02*
X0072135Y0156635D01*
X0072135Y0157219D01*
X0071551Y0157803D01*
X0070384Y0157803D01*
X0069800Y0157219D01*
X0073391Y0157803D02*
X0073391Y0154300D01*
X0073391Y0155468D02*
X0075143Y0156635D01*
X0076384Y0156051D02*
X0076384Y0157219D01*
X0076967Y0157803D01*
X0078135Y0157803D01*
X0078719Y0157219D01*
X0078719Y0156051D01*
X0078135Y0155468D01*
X0078135Y0154300D01*
X0078719Y0154300D01*
X0076967Y0154300D02*
X0076967Y0155468D01*
X0076384Y0156051D01*
X0076384Y0154300D02*
X0076967Y0154300D01*
X0075143Y0154300D02*
X0073391Y0155468D01*
X0069317Y0184300D02*
X0068734Y0184300D01*
X0068734Y0185468D01*
X0069317Y0186051D01*
X0069317Y0187219D01*
X0068734Y0187803D01*
X0067566Y0187803D01*
X0066982Y0187219D01*
X0066982Y0186051D01*
X0067566Y0185468D01*
X0067566Y0184300D01*
X0066982Y0184300D01*
X0065726Y0184884D02*
X0065143Y0184300D01*
X0063975Y0184300D01*
X0063391Y0184884D01*
X0063391Y0185468D01*
X0063975Y0186051D01*
X0065143Y0186051D01*
X0065726Y0185468D01*
X0065726Y0184884D01*
X0065143Y0186051D02*
X0065726Y0186635D01*
X0065726Y0187219D01*
X0065143Y0187803D01*
X0063975Y0187803D01*
X0063391Y0187219D01*
X0063391Y0186635D01*
X0063975Y0186051D01*
X0062135Y0185468D02*
X0061551Y0186051D01*
X0059800Y0186051D01*
X0059800Y0184884D01*
X0060384Y0184300D01*
X0061551Y0184300D01*
X0062135Y0184884D01*
X0062135Y0185468D01*
X0060968Y0187219D02*
X0059800Y0186051D01*
X0060968Y0187219D02*
X0062135Y0187803D01*
X0061551Y0194300D02*
X0060384Y0194300D01*
X0059800Y0194884D01*
X0059800Y0196051D01*
X0061551Y0196051D01*
X0062135Y0195468D01*
X0062135Y0194884D01*
X0061551Y0194300D01*
X0063391Y0194884D02*
X0063391Y0195468D01*
X0063975Y0196051D01*
X0065143Y0196051D01*
X0065726Y0195468D01*
X0065726Y0194884D01*
X0065143Y0194300D01*
X0063975Y0194300D01*
X0063391Y0194884D01*
X0063975Y0196051D02*
X0063391Y0196635D01*
X0063391Y0197219D01*
X0063975Y0197803D01*
X0065143Y0197803D01*
X0065726Y0197219D01*
X0065726Y0196635D01*
X0065143Y0196051D01*
X0066982Y0196051D02*
X0066982Y0197219D01*
X0067566Y0197803D01*
X0068734Y0197803D01*
X0069317Y0197219D01*
X0069317Y0196051D01*
X0068734Y0195468D01*
X0068734Y0194300D01*
X0069317Y0194300D01*
X0067566Y0194300D02*
X0067566Y0195468D01*
X0066982Y0196051D01*
X0066982Y0194300D02*
X0067566Y0194300D01*
X0062135Y0197803D02*
X0060968Y0197219D01*
X0059800Y0196051D01*
X0029317Y0196051D02*
X0028734Y0195468D01*
X0028734Y0194300D01*
X0029317Y0194300D01*
X0029317Y0196051D02*
X0029317Y0197219D01*
X0028734Y0197803D01*
X0027566Y0197803D01*
X0026982Y0197219D01*
X0026982Y0196051D01*
X0027566Y0195468D01*
X0027566Y0194300D01*
X0026982Y0194300D01*
X0025726Y0194884D02*
X0025143Y0194300D01*
X0023975Y0194300D01*
X0023391Y0194884D01*
X0023391Y0195468D01*
X0023975Y0196051D01*
X0025143Y0196051D01*
X0025726Y0195468D01*
X0025726Y0194884D01*
X0025143Y0196051D02*
X0025726Y0196635D01*
X0025726Y0197219D01*
X0025143Y0197803D01*
X0023975Y0197803D01*
X0023391Y0197219D01*
X0023391Y0196635D01*
X0023975Y0196051D01*
X0022135Y0195468D02*
X0021551Y0196051D01*
X0019800Y0196051D01*
X0019800Y0194884D01*
X0020384Y0194300D01*
X0021551Y0194300D01*
X0022135Y0194884D01*
X0022135Y0195468D01*
X0020968Y0197219D02*
X0019800Y0196051D01*
X0020968Y0197219D02*
X0022135Y0197803D01*
X0022135Y0187803D02*
X0020968Y0187219D01*
X0019800Y0186051D01*
X0021551Y0186051D01*
X0022135Y0185468D01*
X0022135Y0184884D01*
X0021551Y0184300D01*
X0020384Y0184300D01*
X0019800Y0184884D01*
X0019800Y0186051D01*
X0023391Y0185468D02*
X0023975Y0186051D01*
X0025143Y0186051D01*
X0025726Y0185468D01*
X0025726Y0184884D01*
X0025143Y0184300D01*
X0023975Y0184300D01*
X0023391Y0184884D01*
X0023391Y0185468D01*
X0023975Y0186051D02*
X0023391Y0186635D01*
X0023391Y0187219D01*
X0023975Y0187803D01*
X0025143Y0187803D01*
X0025726Y0187219D01*
X0025726Y0186635D01*
X0025143Y0186051D01*
X0026982Y0186051D02*
X0026982Y0187219D01*
X0027566Y0187803D01*
X0028734Y0187803D01*
X0029317Y0187219D01*
X0029317Y0186051D01*
X0028734Y0185468D01*
X0028734Y0184300D01*
X0029317Y0184300D01*
X0027566Y0184300D02*
X0027566Y0185468D01*
X0026982Y0186051D01*
X0026982Y0184300D02*
X0027566Y0184300D01*
M02*
