G75*
%MOIN*%
%OFA0B0*%
%FSLAX25Y25*%
%IPPOS*%
%LPD*%
%AMOC8*
5,1,8,0,0,1.08239X$1,22.5*
%
%ADD10C,0.00000*%
%ADD11C,0.00400*%
%ADD12C,0.00500*%
D10*
X0001000Y0001000D02*
X0001000Y0195961D01*
X0169701Y0195961D01*
X0169701Y0001000D01*
X0001000Y0001000D01*
X0010488Y0153500D02*
X0010490Y0153648D01*
X0010496Y0153796D01*
X0010506Y0153944D01*
X0010520Y0154091D01*
X0010538Y0154238D01*
X0010559Y0154384D01*
X0010585Y0154530D01*
X0010615Y0154675D01*
X0010648Y0154819D01*
X0010686Y0154962D01*
X0010727Y0155104D01*
X0010772Y0155245D01*
X0010820Y0155385D01*
X0010873Y0155524D01*
X0010929Y0155661D01*
X0010989Y0155796D01*
X0011052Y0155930D01*
X0011119Y0156062D01*
X0011190Y0156192D01*
X0011264Y0156320D01*
X0011341Y0156446D01*
X0011422Y0156570D01*
X0011506Y0156692D01*
X0011593Y0156811D01*
X0011684Y0156928D01*
X0011778Y0157043D01*
X0011874Y0157155D01*
X0011974Y0157265D01*
X0012076Y0157371D01*
X0012182Y0157475D01*
X0012290Y0157576D01*
X0012401Y0157674D01*
X0012514Y0157770D01*
X0012630Y0157862D01*
X0012748Y0157951D01*
X0012869Y0158036D01*
X0012992Y0158119D01*
X0013117Y0158198D01*
X0013244Y0158274D01*
X0013373Y0158346D01*
X0013504Y0158415D01*
X0013637Y0158480D01*
X0013772Y0158541D01*
X0013908Y0158599D01*
X0014045Y0158654D01*
X0014184Y0158704D01*
X0014325Y0158751D01*
X0014466Y0158794D01*
X0014609Y0158834D01*
X0014753Y0158869D01*
X0014897Y0158901D01*
X0015043Y0158928D01*
X0015189Y0158952D01*
X0015336Y0158972D01*
X0015483Y0158988D01*
X0015630Y0159000D01*
X0015778Y0159008D01*
X0015926Y0159012D01*
X0016074Y0159012D01*
X0016222Y0159008D01*
X0016370Y0159000D01*
X0016517Y0158988D01*
X0016664Y0158972D01*
X0016811Y0158952D01*
X0016957Y0158928D01*
X0017103Y0158901D01*
X0017247Y0158869D01*
X0017391Y0158834D01*
X0017534Y0158794D01*
X0017675Y0158751D01*
X0017816Y0158704D01*
X0017955Y0158654D01*
X0018092Y0158599D01*
X0018228Y0158541D01*
X0018363Y0158480D01*
X0018496Y0158415D01*
X0018627Y0158346D01*
X0018756Y0158274D01*
X0018883Y0158198D01*
X0019008Y0158119D01*
X0019131Y0158036D01*
X0019252Y0157951D01*
X0019370Y0157862D01*
X0019486Y0157770D01*
X0019599Y0157674D01*
X0019710Y0157576D01*
X0019818Y0157475D01*
X0019924Y0157371D01*
X0020026Y0157265D01*
X0020126Y0157155D01*
X0020222Y0157043D01*
X0020316Y0156928D01*
X0020407Y0156811D01*
X0020494Y0156692D01*
X0020578Y0156570D01*
X0020659Y0156446D01*
X0020736Y0156320D01*
X0020810Y0156192D01*
X0020881Y0156062D01*
X0020948Y0155930D01*
X0021011Y0155796D01*
X0021071Y0155661D01*
X0021127Y0155524D01*
X0021180Y0155385D01*
X0021228Y0155245D01*
X0021273Y0155104D01*
X0021314Y0154962D01*
X0021352Y0154819D01*
X0021385Y0154675D01*
X0021415Y0154530D01*
X0021441Y0154384D01*
X0021462Y0154238D01*
X0021480Y0154091D01*
X0021494Y0153944D01*
X0021504Y0153796D01*
X0021510Y0153648D01*
X0021512Y0153500D01*
X0021510Y0153352D01*
X0021504Y0153204D01*
X0021494Y0153056D01*
X0021480Y0152909D01*
X0021462Y0152762D01*
X0021441Y0152616D01*
X0021415Y0152470D01*
X0021385Y0152325D01*
X0021352Y0152181D01*
X0021314Y0152038D01*
X0021273Y0151896D01*
X0021228Y0151755D01*
X0021180Y0151615D01*
X0021127Y0151476D01*
X0021071Y0151339D01*
X0021011Y0151204D01*
X0020948Y0151070D01*
X0020881Y0150938D01*
X0020810Y0150808D01*
X0020736Y0150680D01*
X0020659Y0150554D01*
X0020578Y0150430D01*
X0020494Y0150308D01*
X0020407Y0150189D01*
X0020316Y0150072D01*
X0020222Y0149957D01*
X0020126Y0149845D01*
X0020026Y0149735D01*
X0019924Y0149629D01*
X0019818Y0149525D01*
X0019710Y0149424D01*
X0019599Y0149326D01*
X0019486Y0149230D01*
X0019370Y0149138D01*
X0019252Y0149049D01*
X0019131Y0148964D01*
X0019008Y0148881D01*
X0018883Y0148802D01*
X0018756Y0148726D01*
X0018627Y0148654D01*
X0018496Y0148585D01*
X0018363Y0148520D01*
X0018228Y0148459D01*
X0018092Y0148401D01*
X0017955Y0148346D01*
X0017816Y0148296D01*
X0017675Y0148249D01*
X0017534Y0148206D01*
X0017391Y0148166D01*
X0017247Y0148131D01*
X0017103Y0148099D01*
X0016957Y0148072D01*
X0016811Y0148048D01*
X0016664Y0148028D01*
X0016517Y0148012D01*
X0016370Y0148000D01*
X0016222Y0147992D01*
X0016074Y0147988D01*
X0015926Y0147988D01*
X0015778Y0147992D01*
X0015630Y0148000D01*
X0015483Y0148012D01*
X0015336Y0148028D01*
X0015189Y0148048D01*
X0015043Y0148072D01*
X0014897Y0148099D01*
X0014753Y0148131D01*
X0014609Y0148166D01*
X0014466Y0148206D01*
X0014325Y0148249D01*
X0014184Y0148296D01*
X0014045Y0148346D01*
X0013908Y0148401D01*
X0013772Y0148459D01*
X0013637Y0148520D01*
X0013504Y0148585D01*
X0013373Y0148654D01*
X0013244Y0148726D01*
X0013117Y0148802D01*
X0012992Y0148881D01*
X0012869Y0148964D01*
X0012748Y0149049D01*
X0012630Y0149138D01*
X0012514Y0149230D01*
X0012401Y0149326D01*
X0012290Y0149424D01*
X0012182Y0149525D01*
X0012076Y0149629D01*
X0011974Y0149735D01*
X0011874Y0149845D01*
X0011778Y0149957D01*
X0011684Y0150072D01*
X0011593Y0150189D01*
X0011506Y0150308D01*
X0011422Y0150430D01*
X0011341Y0150554D01*
X0011264Y0150680D01*
X0011190Y0150808D01*
X0011119Y0150938D01*
X0011052Y0151070D01*
X0010989Y0151204D01*
X0010929Y0151339D01*
X0010873Y0151476D01*
X0010820Y0151615D01*
X0010772Y0151755D01*
X0010727Y0151896D01*
X0010686Y0152038D01*
X0010648Y0152181D01*
X0010615Y0152325D01*
X0010585Y0152470D01*
X0010559Y0152616D01*
X0010538Y0152762D01*
X0010520Y0152909D01*
X0010506Y0153056D01*
X0010496Y0153204D01*
X0010490Y0153352D01*
X0010488Y0153500D01*
X0120488Y0156000D02*
X0120490Y0156148D01*
X0120496Y0156296D01*
X0120506Y0156444D01*
X0120520Y0156591D01*
X0120538Y0156738D01*
X0120559Y0156884D01*
X0120585Y0157030D01*
X0120615Y0157175D01*
X0120648Y0157319D01*
X0120686Y0157462D01*
X0120727Y0157604D01*
X0120772Y0157745D01*
X0120820Y0157885D01*
X0120873Y0158024D01*
X0120929Y0158161D01*
X0120989Y0158296D01*
X0121052Y0158430D01*
X0121119Y0158562D01*
X0121190Y0158692D01*
X0121264Y0158820D01*
X0121341Y0158946D01*
X0121422Y0159070D01*
X0121506Y0159192D01*
X0121593Y0159311D01*
X0121684Y0159428D01*
X0121778Y0159543D01*
X0121874Y0159655D01*
X0121974Y0159765D01*
X0122076Y0159871D01*
X0122182Y0159975D01*
X0122290Y0160076D01*
X0122401Y0160174D01*
X0122514Y0160270D01*
X0122630Y0160362D01*
X0122748Y0160451D01*
X0122869Y0160536D01*
X0122992Y0160619D01*
X0123117Y0160698D01*
X0123244Y0160774D01*
X0123373Y0160846D01*
X0123504Y0160915D01*
X0123637Y0160980D01*
X0123772Y0161041D01*
X0123908Y0161099D01*
X0124045Y0161154D01*
X0124184Y0161204D01*
X0124325Y0161251D01*
X0124466Y0161294D01*
X0124609Y0161334D01*
X0124753Y0161369D01*
X0124897Y0161401D01*
X0125043Y0161428D01*
X0125189Y0161452D01*
X0125336Y0161472D01*
X0125483Y0161488D01*
X0125630Y0161500D01*
X0125778Y0161508D01*
X0125926Y0161512D01*
X0126074Y0161512D01*
X0126222Y0161508D01*
X0126370Y0161500D01*
X0126517Y0161488D01*
X0126664Y0161472D01*
X0126811Y0161452D01*
X0126957Y0161428D01*
X0127103Y0161401D01*
X0127247Y0161369D01*
X0127391Y0161334D01*
X0127534Y0161294D01*
X0127675Y0161251D01*
X0127816Y0161204D01*
X0127955Y0161154D01*
X0128092Y0161099D01*
X0128228Y0161041D01*
X0128363Y0160980D01*
X0128496Y0160915D01*
X0128627Y0160846D01*
X0128756Y0160774D01*
X0128883Y0160698D01*
X0129008Y0160619D01*
X0129131Y0160536D01*
X0129252Y0160451D01*
X0129370Y0160362D01*
X0129486Y0160270D01*
X0129599Y0160174D01*
X0129710Y0160076D01*
X0129818Y0159975D01*
X0129924Y0159871D01*
X0130026Y0159765D01*
X0130126Y0159655D01*
X0130222Y0159543D01*
X0130316Y0159428D01*
X0130407Y0159311D01*
X0130494Y0159192D01*
X0130578Y0159070D01*
X0130659Y0158946D01*
X0130736Y0158820D01*
X0130810Y0158692D01*
X0130881Y0158562D01*
X0130948Y0158430D01*
X0131011Y0158296D01*
X0131071Y0158161D01*
X0131127Y0158024D01*
X0131180Y0157885D01*
X0131228Y0157745D01*
X0131273Y0157604D01*
X0131314Y0157462D01*
X0131352Y0157319D01*
X0131385Y0157175D01*
X0131415Y0157030D01*
X0131441Y0156884D01*
X0131462Y0156738D01*
X0131480Y0156591D01*
X0131494Y0156444D01*
X0131504Y0156296D01*
X0131510Y0156148D01*
X0131512Y0156000D01*
X0131510Y0155852D01*
X0131504Y0155704D01*
X0131494Y0155556D01*
X0131480Y0155409D01*
X0131462Y0155262D01*
X0131441Y0155116D01*
X0131415Y0154970D01*
X0131385Y0154825D01*
X0131352Y0154681D01*
X0131314Y0154538D01*
X0131273Y0154396D01*
X0131228Y0154255D01*
X0131180Y0154115D01*
X0131127Y0153976D01*
X0131071Y0153839D01*
X0131011Y0153704D01*
X0130948Y0153570D01*
X0130881Y0153438D01*
X0130810Y0153308D01*
X0130736Y0153180D01*
X0130659Y0153054D01*
X0130578Y0152930D01*
X0130494Y0152808D01*
X0130407Y0152689D01*
X0130316Y0152572D01*
X0130222Y0152457D01*
X0130126Y0152345D01*
X0130026Y0152235D01*
X0129924Y0152129D01*
X0129818Y0152025D01*
X0129710Y0151924D01*
X0129599Y0151826D01*
X0129486Y0151730D01*
X0129370Y0151638D01*
X0129252Y0151549D01*
X0129131Y0151464D01*
X0129008Y0151381D01*
X0128883Y0151302D01*
X0128756Y0151226D01*
X0128627Y0151154D01*
X0128496Y0151085D01*
X0128363Y0151020D01*
X0128228Y0150959D01*
X0128092Y0150901D01*
X0127955Y0150846D01*
X0127816Y0150796D01*
X0127675Y0150749D01*
X0127534Y0150706D01*
X0127391Y0150666D01*
X0127247Y0150631D01*
X0127103Y0150599D01*
X0126957Y0150572D01*
X0126811Y0150548D01*
X0126664Y0150528D01*
X0126517Y0150512D01*
X0126370Y0150500D01*
X0126222Y0150492D01*
X0126074Y0150488D01*
X0125926Y0150488D01*
X0125778Y0150492D01*
X0125630Y0150500D01*
X0125483Y0150512D01*
X0125336Y0150528D01*
X0125189Y0150548D01*
X0125043Y0150572D01*
X0124897Y0150599D01*
X0124753Y0150631D01*
X0124609Y0150666D01*
X0124466Y0150706D01*
X0124325Y0150749D01*
X0124184Y0150796D01*
X0124045Y0150846D01*
X0123908Y0150901D01*
X0123772Y0150959D01*
X0123637Y0151020D01*
X0123504Y0151085D01*
X0123373Y0151154D01*
X0123244Y0151226D01*
X0123117Y0151302D01*
X0122992Y0151381D01*
X0122869Y0151464D01*
X0122748Y0151549D01*
X0122630Y0151638D01*
X0122514Y0151730D01*
X0122401Y0151826D01*
X0122290Y0151924D01*
X0122182Y0152025D01*
X0122076Y0152129D01*
X0121974Y0152235D01*
X0121874Y0152345D01*
X0121778Y0152457D01*
X0121684Y0152572D01*
X0121593Y0152689D01*
X0121506Y0152808D01*
X0121422Y0152930D01*
X0121341Y0153054D01*
X0121264Y0153180D01*
X0121190Y0153308D01*
X0121119Y0153438D01*
X0121052Y0153570D01*
X0120989Y0153704D01*
X0120929Y0153839D01*
X0120873Y0153976D01*
X0120820Y0154115D01*
X0120772Y0154255D01*
X0120727Y0154396D01*
X0120686Y0154538D01*
X0120648Y0154681D01*
X0120615Y0154825D01*
X0120585Y0154970D01*
X0120559Y0155116D01*
X0120538Y0155262D01*
X0120520Y0155409D01*
X0120506Y0155556D01*
X0120496Y0155704D01*
X0120490Y0155852D01*
X0120488Y0156000D01*
D11*
X0113946Y0142803D02*
X0112194Y0142803D01*
X0112194Y0139300D01*
X0112194Y0140468D02*
X0113946Y0140468D01*
X0114529Y0141051D01*
X0114529Y0142219D01*
X0113946Y0142803D01*
X0113362Y0140468D02*
X0114529Y0139300D01*
X0110968Y0139300D02*
X0109800Y0139300D01*
X0110384Y0139300D02*
X0110384Y0142803D01*
X0109800Y0142803D02*
X0110968Y0142803D01*
X0110968Y0132803D02*
X0109800Y0132803D01*
X0110384Y0132803D02*
X0110384Y0129300D01*
X0109800Y0129300D02*
X0110968Y0129300D01*
X0112194Y0129300D02*
X0112194Y0132803D01*
X0113946Y0132803D01*
X0114529Y0132219D01*
X0114529Y0131051D01*
X0113946Y0130468D01*
X0112194Y0130468D01*
X0113362Y0130468D02*
X0114529Y0129300D01*
X0113946Y0122803D02*
X0112194Y0122803D01*
X0112194Y0119300D01*
X0112194Y0120468D02*
X0113946Y0120468D01*
X0114529Y0121051D01*
X0114529Y0122219D01*
X0113946Y0122803D01*
X0113362Y0120468D02*
X0114529Y0119300D01*
X0110968Y0119300D02*
X0109800Y0119300D01*
X0110384Y0119300D02*
X0110384Y0122803D01*
X0109800Y0122803D02*
X0110968Y0122803D01*
X0110968Y0112803D02*
X0109800Y0112803D01*
X0110384Y0112803D02*
X0110384Y0109300D01*
X0109800Y0109300D02*
X0110968Y0109300D01*
X0112194Y0109300D02*
X0112194Y0112803D01*
X0113946Y0112803D01*
X0114529Y0112219D01*
X0114529Y0111051D01*
X0113946Y0110468D01*
X0112194Y0110468D01*
X0113362Y0110468D02*
X0114529Y0109300D01*
X0115408Y0080804D02*
X0117710Y0080804D01*
X0118477Y0080037D01*
X0118477Y0079269D01*
X0117710Y0078502D01*
X0115408Y0078502D01*
X0117710Y0078502D02*
X0118477Y0077735D01*
X0118477Y0076967D01*
X0117710Y0076200D01*
X0115408Y0076200D01*
X0115408Y0080804D01*
X0109269Y0080037D02*
X0108502Y0080804D01*
X0106967Y0080804D01*
X0106200Y0080037D01*
X0106200Y0076967D01*
X0106967Y0076200D01*
X0108502Y0076200D01*
X0109269Y0076967D01*
X0124616Y0076200D02*
X0127685Y0076200D01*
X0126150Y0078502D02*
X0124616Y0078502D01*
X0124616Y0080804D02*
X0124616Y0076200D01*
X0124616Y0080804D02*
X0127685Y0080804D01*
X0127685Y0055804D02*
X0124616Y0055804D01*
X0124616Y0051200D01*
X0127685Y0051200D01*
X0126150Y0053502D02*
X0124616Y0053502D01*
X0118477Y0054269D02*
X0117710Y0053502D01*
X0115408Y0053502D01*
X0117710Y0053502D02*
X0118477Y0052735D01*
X0118477Y0051967D01*
X0117710Y0051200D01*
X0115408Y0051200D01*
X0115408Y0055804D01*
X0117710Y0055804D01*
X0118477Y0055037D01*
X0118477Y0054269D01*
X0109269Y0055037D02*
X0108502Y0055804D01*
X0106967Y0055804D01*
X0106200Y0055037D01*
X0106200Y0051967D01*
X0106967Y0051200D01*
X0108502Y0051200D01*
X0109269Y0051967D01*
X0108502Y0030804D02*
X0106967Y0030804D01*
X0106200Y0030037D01*
X0106200Y0026967D01*
X0106967Y0026200D01*
X0108502Y0026200D01*
X0109269Y0026967D01*
X0109269Y0030037D02*
X0108502Y0030804D01*
X0115408Y0030804D02*
X0115408Y0026200D01*
X0117710Y0026200D01*
X0118477Y0026967D01*
X0118477Y0027735D01*
X0117710Y0028502D01*
X0115408Y0028502D01*
X0117710Y0028502D02*
X0118477Y0029269D01*
X0118477Y0030037D01*
X0117710Y0030804D01*
X0115408Y0030804D01*
X0124616Y0030804D02*
X0124616Y0026200D01*
X0127685Y0026200D01*
X0126150Y0028502D02*
X0124616Y0028502D01*
X0124616Y0030804D02*
X0127685Y0030804D01*
X0153700Y0028304D02*
X0153700Y0026002D01*
X0155235Y0026769D01*
X0156002Y0026769D01*
X0156769Y0026002D01*
X0156769Y0024467D01*
X0156002Y0023700D01*
X0154467Y0023700D01*
X0153700Y0024467D01*
X0153700Y0028304D02*
X0156769Y0028304D01*
X0158304Y0028304D02*
X0158304Y0025235D01*
X0159839Y0023700D01*
X0161373Y0025235D01*
X0161373Y0028304D01*
X0159839Y0033700D02*
X0158304Y0035235D01*
X0158304Y0038304D01*
X0156769Y0038304D02*
X0153700Y0038304D01*
X0153700Y0036002D01*
X0155235Y0036769D01*
X0156002Y0036769D01*
X0156769Y0036002D01*
X0156769Y0034467D01*
X0156002Y0033700D01*
X0154467Y0033700D01*
X0153700Y0034467D01*
X0159839Y0033700D02*
X0161373Y0035235D01*
X0161373Y0038304D01*
X0159839Y0043700D02*
X0158304Y0045235D01*
X0158304Y0048304D01*
X0156769Y0048304D02*
X0153700Y0048304D01*
X0153700Y0046002D01*
X0155235Y0046769D01*
X0156002Y0046769D01*
X0156769Y0046002D01*
X0156769Y0044467D01*
X0156002Y0043700D01*
X0154467Y0043700D01*
X0153700Y0044467D01*
X0159839Y0043700D02*
X0161373Y0045235D01*
X0161373Y0048304D01*
X0160606Y0053700D02*
X0158304Y0053700D01*
X0158304Y0058304D01*
X0160606Y0058304D01*
X0161373Y0057537D01*
X0161373Y0054467D01*
X0160606Y0053700D01*
X0162908Y0056002D02*
X0165977Y0056002D01*
X0165210Y0053700D02*
X0165210Y0058304D01*
X0162908Y0056002D01*
X0156769Y0056002D02*
X0156002Y0055235D01*
X0153700Y0055235D01*
X0153700Y0053700D02*
X0153700Y0058304D01*
X0156002Y0058304D01*
X0156769Y0057537D01*
X0156769Y0056002D01*
X0158304Y0063700D02*
X0160606Y0063700D01*
X0161373Y0064467D01*
X0161373Y0067537D01*
X0160606Y0068304D01*
X0158304Y0068304D01*
X0158304Y0063700D01*
X0156769Y0066002D02*
X0156002Y0065235D01*
X0153700Y0065235D01*
X0153700Y0063700D02*
X0153700Y0068304D01*
X0156002Y0068304D01*
X0156769Y0067537D01*
X0156769Y0066002D01*
X0162908Y0067537D02*
X0163675Y0068304D01*
X0165210Y0068304D01*
X0165977Y0067537D01*
X0165977Y0066769D01*
X0165210Y0066002D01*
X0165977Y0065235D01*
X0165977Y0064467D01*
X0165210Y0063700D01*
X0163675Y0063700D01*
X0162908Y0064467D01*
X0164442Y0066002D02*
X0165210Y0066002D01*
X0165977Y0073700D02*
X0162908Y0073700D01*
X0165977Y0076769D01*
X0165977Y0077537D01*
X0165210Y0078304D01*
X0163675Y0078304D01*
X0162908Y0077537D01*
X0161373Y0077537D02*
X0160606Y0078304D01*
X0158304Y0078304D01*
X0158304Y0073700D01*
X0160606Y0073700D01*
X0161373Y0074467D01*
X0161373Y0077537D01*
X0156769Y0077537D02*
X0156769Y0076002D01*
X0156002Y0075235D01*
X0153700Y0075235D01*
X0153700Y0073700D02*
X0153700Y0078304D01*
X0156002Y0078304D01*
X0156769Y0077537D01*
X0158304Y0083700D02*
X0160606Y0083700D01*
X0161373Y0084467D01*
X0161373Y0087537D01*
X0160606Y0088304D01*
X0158304Y0088304D01*
X0158304Y0083700D01*
X0156769Y0086002D02*
X0156002Y0085235D01*
X0153700Y0085235D01*
X0153700Y0083700D02*
X0153700Y0088304D01*
X0156002Y0088304D01*
X0156769Y0087537D01*
X0156769Y0086002D01*
X0162908Y0086769D02*
X0164442Y0088304D01*
X0164442Y0083700D01*
X0162908Y0083700D02*
X0165977Y0083700D01*
X0165210Y0093700D02*
X0162908Y0093700D01*
X0162908Y0098304D01*
X0165210Y0098304D01*
X0165977Y0097537D01*
X0165977Y0094467D01*
X0165210Y0093700D01*
X0161373Y0093700D02*
X0161373Y0098304D01*
X0158304Y0098304D02*
X0158304Y0093700D01*
X0156769Y0094467D02*
X0156769Y0096002D01*
X0155235Y0096002D01*
X0156769Y0097537D02*
X0156002Y0098304D01*
X0154467Y0098304D01*
X0153700Y0097537D01*
X0153700Y0094467D01*
X0154467Y0093700D01*
X0156002Y0093700D01*
X0156769Y0094467D01*
X0158304Y0098304D02*
X0161373Y0093700D01*
X0161373Y0103700D02*
X0161373Y0108304D01*
X0162908Y0108304D02*
X0165210Y0108304D01*
X0165977Y0107537D01*
X0165977Y0104467D01*
X0165210Y0103700D01*
X0162908Y0103700D01*
X0162908Y0108304D01*
X0158304Y0108304D02*
X0161373Y0103700D01*
X0158304Y0103700D02*
X0158304Y0108304D01*
X0156769Y0107537D02*
X0156002Y0108304D01*
X0154467Y0108304D01*
X0153700Y0107537D01*
X0153700Y0104467D01*
X0154467Y0103700D01*
X0156002Y0103700D01*
X0156769Y0104467D01*
X0156769Y0106002D01*
X0155235Y0106002D01*
X0154467Y0113700D02*
X0156002Y0113700D01*
X0156769Y0114467D01*
X0156769Y0116002D01*
X0155235Y0116002D01*
X0156769Y0117537D02*
X0156002Y0118304D01*
X0154467Y0118304D01*
X0153700Y0117537D01*
X0153700Y0114467D01*
X0154467Y0113700D01*
X0158304Y0113700D02*
X0158304Y0118304D01*
X0161373Y0113700D01*
X0161373Y0118304D01*
X0162908Y0118304D02*
X0165210Y0118304D01*
X0165977Y0117537D01*
X0165977Y0114467D01*
X0165210Y0113700D01*
X0162908Y0113700D01*
X0162908Y0118304D01*
X0162908Y0123700D02*
X0165210Y0123700D01*
X0165977Y0124467D01*
X0165977Y0127537D01*
X0165210Y0128304D01*
X0162908Y0128304D01*
X0162908Y0123700D01*
X0161373Y0123700D02*
X0161373Y0128304D01*
X0158304Y0128304D02*
X0161373Y0123700D01*
X0158304Y0123700D02*
X0158304Y0128304D01*
X0156769Y0127537D02*
X0156002Y0128304D01*
X0154467Y0128304D01*
X0153700Y0127537D01*
X0153700Y0124467D01*
X0154467Y0123700D01*
X0156002Y0123700D01*
X0156769Y0124467D01*
X0156769Y0126002D01*
X0155235Y0126002D01*
X0153700Y0133700D02*
X0156769Y0133700D01*
X0153700Y0133700D02*
X0153700Y0138304D01*
X0158304Y0136002D02*
X0161373Y0136002D01*
X0162908Y0136002D02*
X0165977Y0136002D01*
X0164442Y0137537D02*
X0164442Y0134467D01*
X0160606Y0133700D02*
X0160606Y0138304D01*
X0158304Y0136002D01*
X0159071Y0143700D02*
X0158304Y0144467D01*
X0159071Y0143700D02*
X0160606Y0143700D01*
X0161373Y0144467D01*
X0161373Y0145235D01*
X0160606Y0146002D01*
X0159839Y0146002D01*
X0160606Y0146002D02*
X0161373Y0146769D01*
X0161373Y0147537D01*
X0160606Y0148304D01*
X0159071Y0148304D01*
X0158304Y0147537D01*
X0156769Y0143700D02*
X0153700Y0143700D01*
X0153700Y0148304D01*
X0153700Y0153700D02*
X0156769Y0153700D01*
X0158304Y0153700D02*
X0161373Y0156769D01*
X0161373Y0157537D01*
X0160606Y0158304D01*
X0159071Y0158304D01*
X0158304Y0157537D01*
X0158304Y0153700D02*
X0161373Y0153700D01*
X0162908Y0156002D02*
X0165977Y0156002D01*
X0164442Y0157537D02*
X0164442Y0154467D01*
X0164442Y0147537D02*
X0164442Y0144467D01*
X0162908Y0146002D02*
X0165977Y0146002D01*
X0153700Y0153700D02*
X0153700Y0158304D01*
X0153700Y0163700D02*
X0156769Y0163700D01*
X0158304Y0163700D02*
X0161373Y0163700D01*
X0159839Y0163700D02*
X0159839Y0168304D01*
X0158304Y0166769D01*
X0153700Y0168304D02*
X0153700Y0163700D01*
X0162908Y0166002D02*
X0165977Y0166002D01*
X0164442Y0167537D02*
X0164442Y0164467D01*
X0133300Y0178700D02*
X0133300Y0180235D01*
X0133300Y0179467D02*
X0128696Y0179467D01*
X0128696Y0178700D02*
X0128696Y0180235D01*
X0128696Y0181769D02*
X0128696Y0184071D01*
X0129463Y0184839D01*
X0130998Y0184839D01*
X0131765Y0184071D01*
X0131765Y0181769D01*
X0131765Y0183304D02*
X0133300Y0184839D01*
X0133300Y0181769D02*
X0128696Y0181769D01*
X0130998Y0186373D02*
X0130998Y0189442D01*
X0129463Y0187908D02*
X0132533Y0187908D01*
X0123300Y0184839D02*
X0121765Y0183304D01*
X0121765Y0184071D02*
X0121765Y0181769D01*
X0123300Y0181769D02*
X0118696Y0181769D01*
X0118696Y0184071D01*
X0119463Y0184839D01*
X0120998Y0184839D01*
X0121765Y0184071D01*
X0120998Y0186373D02*
X0120998Y0189442D01*
X0119463Y0187908D02*
X0122533Y0187908D01*
X0123300Y0180235D02*
X0123300Y0178700D01*
X0123300Y0179467D02*
X0118696Y0179467D01*
X0118696Y0178700D02*
X0118696Y0180235D01*
X0113300Y0180235D02*
X0113300Y0178700D01*
X0113300Y0179467D02*
X0108696Y0179467D01*
X0108696Y0178700D02*
X0108696Y0180235D01*
X0108696Y0181769D02*
X0108696Y0184071D01*
X0109463Y0184839D01*
X0110998Y0184839D01*
X0111765Y0184071D01*
X0111765Y0181769D01*
X0111765Y0183304D02*
X0113300Y0184839D01*
X0110998Y0186373D02*
X0110998Y0189442D01*
X0109463Y0187908D02*
X0112533Y0187908D01*
X0113300Y0181769D02*
X0108696Y0181769D01*
X0103300Y0181769D02*
X0098696Y0181769D01*
X0098696Y0184071D01*
X0099463Y0184839D01*
X0100998Y0184839D01*
X0101765Y0184071D01*
X0101765Y0181769D01*
X0101765Y0183304D02*
X0103300Y0184839D01*
X0100998Y0186373D02*
X0100998Y0189442D01*
X0099463Y0187908D02*
X0102533Y0187908D01*
X0103300Y0180235D02*
X0103300Y0178700D01*
X0103300Y0179467D02*
X0098696Y0179467D01*
X0098696Y0178700D02*
X0098696Y0180235D01*
X0093300Y0181002D02*
X0092533Y0181769D01*
X0090998Y0181769D01*
X0090998Y0180235D01*
X0089463Y0181769D02*
X0088696Y0181002D01*
X0088696Y0179467D01*
X0089463Y0178700D01*
X0092533Y0178700D01*
X0093300Y0179467D01*
X0093300Y0181002D01*
X0093300Y0183304D02*
X0088696Y0183304D01*
X0093300Y0186373D01*
X0088696Y0186373D01*
X0088696Y0187908D02*
X0088696Y0190210D01*
X0089463Y0190977D01*
X0092533Y0190977D01*
X0093300Y0190210D01*
X0093300Y0187908D01*
X0088696Y0187908D01*
X0083300Y0187908D02*
X0083300Y0190210D01*
X0082533Y0190977D01*
X0079463Y0190977D01*
X0078696Y0190210D01*
X0078696Y0187908D01*
X0083300Y0187908D01*
X0083300Y0186373D02*
X0078696Y0186373D01*
X0078696Y0183304D02*
X0083300Y0186373D01*
X0083300Y0183304D02*
X0078696Y0183304D01*
X0079463Y0181769D02*
X0078696Y0181002D01*
X0078696Y0179467D01*
X0079463Y0178700D01*
X0082533Y0178700D01*
X0083300Y0179467D01*
X0083300Y0181002D01*
X0082533Y0181769D01*
X0080998Y0181769D01*
X0080998Y0180235D01*
X0073300Y0181002D02*
X0072533Y0181769D01*
X0070998Y0181769D01*
X0070998Y0180235D01*
X0069463Y0181769D02*
X0068696Y0181002D01*
X0068696Y0179467D01*
X0069463Y0178700D01*
X0072533Y0178700D01*
X0073300Y0179467D01*
X0073300Y0181002D01*
X0073300Y0183304D02*
X0068696Y0183304D01*
X0073300Y0186373D01*
X0068696Y0186373D01*
X0068696Y0187908D02*
X0068696Y0190210D01*
X0069463Y0190977D01*
X0072533Y0190977D01*
X0073300Y0190210D01*
X0073300Y0187908D01*
X0068696Y0187908D01*
X0063300Y0187908D02*
X0063300Y0190210D01*
X0062533Y0190977D01*
X0059463Y0190977D01*
X0058696Y0190210D01*
X0058696Y0187908D01*
X0063300Y0187908D01*
X0063300Y0186373D02*
X0058696Y0186373D01*
X0058696Y0183304D02*
X0063300Y0186373D01*
X0063300Y0183304D02*
X0058696Y0183304D01*
X0059463Y0181769D02*
X0058696Y0181002D01*
X0058696Y0179467D01*
X0059463Y0178700D01*
X0062533Y0178700D01*
X0063300Y0179467D01*
X0063300Y0181002D01*
X0062533Y0181769D01*
X0060998Y0181769D01*
X0060998Y0180235D01*
X0048300Y0181002D02*
X0048300Y0179467D01*
X0047533Y0178700D01*
X0045998Y0178700D02*
X0045231Y0180235D01*
X0045231Y0181002D01*
X0045998Y0181769D01*
X0047533Y0181769D01*
X0048300Y0181002D01*
X0046765Y0183304D02*
X0048300Y0184839D01*
X0046765Y0186373D01*
X0043696Y0186373D01*
X0043696Y0183304D02*
X0046765Y0183304D01*
X0043696Y0181769D02*
X0043696Y0178700D01*
X0045998Y0178700D01*
X0038300Y0178700D02*
X0038300Y0180235D01*
X0038300Y0179467D02*
X0033696Y0179467D01*
X0033696Y0178700D02*
X0033696Y0180235D01*
X0033696Y0181769D02*
X0033696Y0184071D01*
X0034463Y0184839D01*
X0035998Y0184839D01*
X0036765Y0184071D01*
X0036765Y0181769D01*
X0036765Y0183304D02*
X0038300Y0184839D01*
X0036765Y0186373D02*
X0038300Y0187908D01*
X0036765Y0189442D01*
X0033696Y0189442D01*
X0033696Y0186373D02*
X0036765Y0186373D01*
X0038300Y0181769D02*
X0033696Y0181769D01*
X0028300Y0180235D02*
X0026765Y0181769D01*
X0023696Y0181769D01*
X0023696Y0183304D02*
X0028300Y0183304D01*
X0028300Y0186373D01*
X0027533Y0187908D02*
X0028300Y0188675D01*
X0028300Y0190210D01*
X0027533Y0190977D01*
X0025998Y0190977D01*
X0025998Y0189442D01*
X0024463Y0187908D02*
X0027533Y0187908D01*
X0024463Y0187908D02*
X0023696Y0188675D01*
X0023696Y0190210D01*
X0024463Y0190977D01*
X0018300Y0190210D02*
X0018300Y0187908D01*
X0013696Y0187908D01*
X0013696Y0190210D01*
X0014463Y0190977D01*
X0017533Y0190977D01*
X0018300Y0190210D01*
X0018300Y0186373D02*
X0013696Y0186373D01*
X0013696Y0183304D02*
X0018300Y0186373D01*
X0018300Y0183304D02*
X0013696Y0183304D01*
X0014463Y0181769D02*
X0013696Y0181002D01*
X0013696Y0179467D01*
X0014463Y0178700D01*
X0017533Y0178700D01*
X0018300Y0179467D01*
X0018300Y0181002D01*
X0017533Y0181769D01*
X0015998Y0181769D01*
X0015998Y0180235D01*
X0023696Y0178700D02*
X0026765Y0178700D01*
X0028300Y0180235D01*
X0045384Y0152803D02*
X0046551Y0152803D01*
X0047135Y0152219D01*
X0047135Y0151635D01*
X0046551Y0151051D01*
X0047135Y0150468D01*
X0047135Y0149884D01*
X0046551Y0149300D01*
X0045384Y0149300D01*
X0044800Y0149884D01*
X0045968Y0151051D02*
X0046551Y0151051D01*
X0048391Y0150468D02*
X0050143Y0151635D01*
X0051384Y0151051D02*
X0051384Y0152219D01*
X0051967Y0152803D01*
X0053135Y0152803D01*
X0053719Y0152219D01*
X0053719Y0151051D01*
X0053135Y0150468D01*
X0053135Y0149300D01*
X0053719Y0149300D01*
X0051967Y0149300D02*
X0051967Y0150468D01*
X0051384Y0151051D01*
X0051384Y0149300D02*
X0051967Y0149300D01*
X0050143Y0149300D02*
X0048391Y0150468D01*
X0048391Y0149300D02*
X0048391Y0152803D01*
X0045384Y0152803D02*
X0044800Y0152219D01*
X0033719Y0142219D02*
X0033719Y0141051D01*
X0033135Y0140468D01*
X0033135Y0139300D01*
X0033719Y0139300D01*
X0031967Y0139300D02*
X0031967Y0140468D01*
X0031384Y0141051D01*
X0031384Y0142219D01*
X0031967Y0142803D01*
X0033135Y0142803D01*
X0033719Y0142219D01*
X0031967Y0139300D02*
X0031384Y0139300D01*
X0030143Y0139300D02*
X0028391Y0140468D01*
X0030143Y0141635D01*
X0028391Y0142803D02*
X0028391Y0139300D01*
X0027135Y0139884D02*
X0026551Y0139300D01*
X0025384Y0139300D01*
X0024800Y0139884D01*
X0025968Y0141051D02*
X0026551Y0141051D01*
X0027135Y0140468D01*
X0027135Y0139884D01*
X0026551Y0141051D02*
X0027135Y0141635D01*
X0027135Y0142219D01*
X0026551Y0142803D01*
X0025384Y0142803D01*
X0024800Y0142219D01*
X0025384Y0132803D02*
X0026551Y0132803D01*
X0027135Y0132219D01*
X0027135Y0131635D01*
X0026551Y0131051D01*
X0027135Y0130468D01*
X0027135Y0129884D01*
X0026551Y0129300D01*
X0025384Y0129300D01*
X0024800Y0129884D01*
X0025968Y0131051D02*
X0026551Y0131051D01*
X0028391Y0130468D02*
X0030143Y0131635D01*
X0031384Y0131051D02*
X0031384Y0132219D01*
X0031967Y0132803D01*
X0033135Y0132803D01*
X0033719Y0132219D01*
X0033719Y0131051D01*
X0033135Y0130468D01*
X0033135Y0129300D01*
X0033719Y0129300D01*
X0031967Y0129300D02*
X0031967Y0130468D01*
X0031384Y0131051D01*
X0031384Y0129300D02*
X0031967Y0129300D01*
X0030143Y0129300D02*
X0028391Y0130468D01*
X0028391Y0129300D02*
X0028391Y0132803D01*
X0025384Y0132803D02*
X0024800Y0132219D01*
X0024800Y0122803D02*
X0027135Y0122803D01*
X0025968Y0122803D02*
X0025968Y0119300D01*
X0028391Y0119300D02*
X0028391Y0122803D01*
X0030143Y0122803D01*
X0030726Y0122219D01*
X0030726Y0121051D01*
X0030143Y0120468D01*
X0028391Y0120468D01*
X0029559Y0120468D02*
X0030726Y0119300D01*
X0031982Y0119300D02*
X0031982Y0121635D01*
X0033150Y0122803D01*
X0034317Y0121635D01*
X0034317Y0119300D01*
X0034317Y0121051D02*
X0031982Y0121051D01*
X0033150Y0112803D02*
X0034317Y0111635D01*
X0034317Y0109300D01*
X0034317Y0111051D02*
X0031982Y0111051D01*
X0031982Y0111635D02*
X0033150Y0112803D01*
X0031982Y0111635D02*
X0031982Y0109300D01*
X0030726Y0109300D02*
X0029559Y0110468D01*
X0030143Y0110468D02*
X0028391Y0110468D01*
X0028391Y0109300D02*
X0028391Y0112803D01*
X0030143Y0112803D01*
X0030726Y0112219D01*
X0030726Y0111051D01*
X0030143Y0110468D01*
X0027135Y0112803D02*
X0024800Y0112803D01*
X0025968Y0112803D02*
X0025968Y0109300D01*
X0025968Y0102803D02*
X0025968Y0099300D01*
X0028391Y0099300D02*
X0028391Y0102803D01*
X0030143Y0102803D01*
X0030726Y0102219D01*
X0030726Y0101051D01*
X0030143Y0100468D01*
X0028391Y0100468D01*
X0029559Y0100468D02*
X0030726Y0099300D01*
X0031982Y0099300D02*
X0031982Y0101635D01*
X0033150Y0102803D01*
X0034317Y0101635D01*
X0034317Y0099300D01*
X0034317Y0101051D02*
X0031982Y0101051D01*
X0027135Y0102803D02*
X0024800Y0102803D01*
X0024800Y0092803D02*
X0027135Y0092803D01*
X0025968Y0092803D02*
X0025968Y0089300D01*
X0028391Y0089300D02*
X0028391Y0092803D01*
X0030143Y0092803D01*
X0030726Y0092219D01*
X0030726Y0091051D01*
X0030143Y0090468D01*
X0028391Y0090468D01*
X0029559Y0090468D02*
X0030726Y0089300D01*
X0031982Y0089300D02*
X0031982Y0091635D01*
X0033150Y0092803D01*
X0034317Y0091635D01*
X0034317Y0089300D01*
X0034317Y0091051D02*
X0031982Y0091051D01*
X0069800Y0091051D02*
X0069800Y0089884D01*
X0070384Y0089300D01*
X0071551Y0089300D01*
X0072135Y0089884D01*
X0072135Y0090468D01*
X0071551Y0091051D01*
X0069800Y0091051D01*
X0070968Y0092219D01*
X0072135Y0092803D01*
X0073391Y0092219D02*
X0073391Y0091635D01*
X0073975Y0091051D01*
X0075143Y0091051D01*
X0075726Y0090468D01*
X0075726Y0089884D01*
X0075143Y0089300D01*
X0073975Y0089300D01*
X0073391Y0089884D01*
X0073391Y0090468D01*
X0073975Y0091051D01*
X0075143Y0091051D02*
X0075726Y0091635D01*
X0075726Y0092219D01*
X0075143Y0092803D01*
X0073975Y0092803D01*
X0073391Y0092219D01*
X0076982Y0092219D02*
X0077566Y0092803D01*
X0078734Y0092803D01*
X0079317Y0092219D01*
X0079317Y0091051D01*
X0078734Y0090468D01*
X0078734Y0089300D01*
X0079317Y0089300D01*
X0077566Y0089300D02*
X0077566Y0090468D01*
X0076982Y0091051D01*
X0076982Y0092219D01*
X0076982Y0089300D02*
X0077566Y0089300D01*
X0077566Y0099300D02*
X0077566Y0100468D01*
X0076982Y0101051D01*
X0076982Y0102219D01*
X0077566Y0102803D01*
X0078734Y0102803D01*
X0079317Y0102219D01*
X0079317Y0101051D01*
X0078734Y0100468D01*
X0078734Y0099300D01*
X0079317Y0099300D01*
X0077566Y0099300D02*
X0076982Y0099300D01*
X0075726Y0099884D02*
X0075726Y0100468D01*
X0075143Y0101051D01*
X0073975Y0101051D01*
X0073391Y0101635D01*
X0073391Y0102219D01*
X0073975Y0102803D01*
X0075143Y0102803D01*
X0075726Y0102219D01*
X0075726Y0101635D01*
X0075143Y0101051D01*
X0073975Y0101051D02*
X0073391Y0100468D01*
X0073391Y0099884D01*
X0073975Y0099300D01*
X0075143Y0099300D01*
X0075726Y0099884D01*
X0072135Y0099884D02*
X0072135Y0100468D01*
X0071551Y0101051D01*
X0069800Y0101051D01*
X0069800Y0099884D01*
X0070384Y0099300D01*
X0071551Y0099300D01*
X0072135Y0099884D01*
X0070968Y0102219D02*
X0069800Y0101051D01*
X0070968Y0102219D02*
X0072135Y0102803D01*
X0071551Y0109300D02*
X0072135Y0109884D01*
X0072135Y0110468D01*
X0071551Y0111051D01*
X0069800Y0111051D01*
X0069800Y0109884D01*
X0070384Y0109300D01*
X0071551Y0109300D01*
X0073391Y0109884D02*
X0073391Y0110468D01*
X0073975Y0111051D01*
X0075143Y0111051D01*
X0075726Y0110468D01*
X0075726Y0109884D01*
X0075143Y0109300D01*
X0073975Y0109300D01*
X0073391Y0109884D01*
X0073975Y0111051D02*
X0073391Y0111635D01*
X0073391Y0112219D01*
X0073975Y0112803D01*
X0075143Y0112803D01*
X0075726Y0112219D01*
X0075726Y0111635D01*
X0075143Y0111051D01*
X0076982Y0111051D02*
X0076982Y0112219D01*
X0077566Y0112803D01*
X0078734Y0112803D01*
X0079317Y0112219D01*
X0079317Y0111051D01*
X0078734Y0110468D01*
X0078734Y0109300D01*
X0079317Y0109300D01*
X0077566Y0109300D02*
X0077566Y0110468D01*
X0076982Y0111051D01*
X0076982Y0109300D02*
X0077566Y0109300D01*
X0072135Y0112803D02*
X0070968Y0112219D01*
X0069800Y0111051D01*
X0070384Y0119300D02*
X0069800Y0119884D01*
X0069800Y0121051D01*
X0071551Y0121051D01*
X0072135Y0120468D01*
X0072135Y0119884D01*
X0071551Y0119300D01*
X0070384Y0119300D01*
X0069800Y0121051D02*
X0070968Y0122219D01*
X0072135Y0122803D01*
X0073391Y0122219D02*
X0073391Y0121635D01*
X0073975Y0121051D01*
X0075143Y0121051D01*
X0075726Y0120468D01*
X0075726Y0119884D01*
X0075143Y0119300D01*
X0073975Y0119300D01*
X0073391Y0119884D01*
X0073391Y0120468D01*
X0073975Y0121051D01*
X0075143Y0121051D02*
X0075726Y0121635D01*
X0075726Y0122219D01*
X0075143Y0122803D01*
X0073975Y0122803D01*
X0073391Y0122219D01*
X0076982Y0122219D02*
X0076982Y0121051D01*
X0077566Y0120468D01*
X0077566Y0119300D01*
X0076982Y0119300D01*
X0078734Y0119300D02*
X0078734Y0120468D01*
X0079317Y0121051D01*
X0079317Y0122219D01*
X0078734Y0122803D01*
X0077566Y0122803D01*
X0076982Y0122219D01*
X0078734Y0119300D02*
X0079317Y0119300D01*
X0078719Y0129300D02*
X0078135Y0129300D01*
X0078135Y0130468D01*
X0078719Y0131051D01*
X0078719Y0132219D01*
X0078135Y0132803D01*
X0076967Y0132803D01*
X0076384Y0132219D01*
X0076384Y0131051D01*
X0076967Y0130468D01*
X0076967Y0129300D01*
X0076384Y0129300D01*
X0075143Y0129300D02*
X0073391Y0130468D01*
X0075143Y0131635D01*
X0073391Y0132803D02*
X0073391Y0129300D01*
X0072135Y0129884D02*
X0071551Y0129300D01*
X0070384Y0129300D01*
X0069800Y0129884D01*
X0070968Y0131051D02*
X0071551Y0131051D01*
X0072135Y0130468D01*
X0072135Y0129884D01*
X0071551Y0131051D02*
X0072135Y0131635D01*
X0072135Y0132219D01*
X0071551Y0132803D01*
X0070384Y0132803D01*
X0069800Y0132219D01*
X0070384Y0139300D02*
X0069800Y0139884D01*
X0070384Y0139300D02*
X0071551Y0139300D01*
X0072135Y0139884D01*
X0072135Y0140468D01*
X0071551Y0141051D01*
X0070968Y0141051D01*
X0071551Y0141051D02*
X0072135Y0141635D01*
X0072135Y0142219D01*
X0071551Y0142803D01*
X0070384Y0142803D01*
X0069800Y0142219D01*
X0073391Y0142803D02*
X0073391Y0139300D01*
X0073391Y0140468D02*
X0075143Y0141635D01*
X0076384Y0141051D02*
X0076384Y0142219D01*
X0076967Y0142803D01*
X0078135Y0142803D01*
X0078719Y0142219D01*
X0078719Y0141051D01*
X0078135Y0140468D01*
X0078135Y0139300D01*
X0078719Y0139300D01*
X0076967Y0139300D02*
X0076967Y0140468D01*
X0076384Y0141051D01*
X0076384Y0139300D02*
X0076967Y0139300D01*
X0075143Y0139300D02*
X0073391Y0140468D01*
X0089800Y0149884D02*
X0090384Y0149300D01*
X0091551Y0149300D01*
X0092135Y0149884D01*
X0092135Y0150468D01*
X0091551Y0151051D01*
X0090968Y0151051D01*
X0091551Y0151051D02*
X0092135Y0151635D01*
X0092135Y0152219D01*
X0091551Y0152803D01*
X0090384Y0152803D01*
X0089800Y0152219D01*
X0093391Y0152803D02*
X0093391Y0149300D01*
X0093391Y0150468D02*
X0095143Y0151635D01*
X0096384Y0151051D02*
X0096384Y0152219D01*
X0096967Y0152803D01*
X0098135Y0152803D01*
X0098719Y0152219D01*
X0098719Y0151051D01*
X0098135Y0150468D01*
X0098135Y0149300D01*
X0098719Y0149300D01*
X0096967Y0149300D02*
X0096967Y0150468D01*
X0096384Y0151051D01*
X0096384Y0149300D02*
X0096967Y0149300D01*
X0095143Y0149300D02*
X0093391Y0150468D01*
X0153700Y0018304D02*
X0153700Y0016002D01*
X0155235Y0016769D01*
X0156002Y0016769D01*
X0156769Y0016002D01*
X0156769Y0014467D01*
X0156002Y0013700D01*
X0154467Y0013700D01*
X0153700Y0014467D01*
X0153700Y0018304D02*
X0156769Y0018304D01*
X0158304Y0018304D02*
X0158304Y0015235D01*
X0159839Y0013700D01*
X0161373Y0015235D01*
X0161373Y0018304D01*
D12*
X0078250Y0035126D02*
X0078250Y0038129D01*
X0078250Y0039730D02*
X0073746Y0039730D01*
X0075247Y0041232D01*
X0073746Y0042733D01*
X0078250Y0042733D01*
X0077499Y0044334D02*
X0078250Y0045085D01*
X0078250Y0046586D01*
X0077499Y0047337D01*
X0076749Y0047337D01*
X0075998Y0046586D01*
X0075998Y0045836D01*
X0075998Y0046586D02*
X0075247Y0047337D01*
X0074497Y0047337D01*
X0073746Y0046586D01*
X0073746Y0045085D01*
X0074497Y0044334D01*
X0074497Y0048938D02*
X0073746Y0049689D01*
X0073746Y0051190D01*
X0074497Y0051941D01*
X0075247Y0051941D01*
X0078250Y0048938D01*
X0078250Y0051941D01*
X0075998Y0053542D02*
X0075998Y0056545D01*
X0073746Y0055794D02*
X0075998Y0053542D01*
X0078250Y0055794D02*
X0073746Y0055794D01*
X0073746Y0058146D02*
X0078250Y0061149D01*
X0073746Y0061149D01*
X0073746Y0058146D02*
X0078250Y0058146D01*
X0078250Y0035126D02*
X0073746Y0035126D01*
X0033250Y0035126D02*
X0033250Y0038129D01*
X0033250Y0039730D02*
X0028746Y0039730D01*
X0030247Y0041232D01*
X0028746Y0042733D01*
X0033250Y0042733D01*
X0032499Y0044334D02*
X0033250Y0045085D01*
X0033250Y0046586D01*
X0032499Y0047337D01*
X0031749Y0047337D01*
X0030998Y0046586D01*
X0030998Y0045836D01*
X0030998Y0046586D02*
X0030247Y0047337D01*
X0029497Y0047337D01*
X0028746Y0046586D01*
X0028746Y0045085D01*
X0029497Y0044334D01*
X0029497Y0048938D02*
X0028746Y0049689D01*
X0028746Y0051190D01*
X0029497Y0051941D01*
X0030247Y0051941D01*
X0030998Y0051190D01*
X0031749Y0051941D01*
X0032499Y0051941D01*
X0033250Y0051190D01*
X0033250Y0049689D01*
X0032499Y0048938D01*
X0030998Y0050439D02*
X0030998Y0051190D01*
X0030247Y0053542D02*
X0030998Y0054293D01*
X0030998Y0056545D01*
X0029497Y0056545D02*
X0028746Y0055794D01*
X0028746Y0054293D01*
X0029497Y0053542D01*
X0030247Y0053542D01*
X0029497Y0056545D02*
X0032499Y0056545D01*
X0033250Y0055794D01*
X0033250Y0054293D01*
X0032499Y0053542D01*
X0033250Y0058146D02*
X0028746Y0058146D01*
X0033250Y0061149D01*
X0028746Y0061149D01*
X0028746Y0035126D02*
X0033250Y0035126D01*
M02*
