%
M48
M72
T01C0.0240
T02C0.0320
T03C0.0400
T04C0.1102
%
T01
X1100Y13600
X2100Y12600
X2850Y9100
X3350Y7850
X2850Y6850
X3350Y6350
X1600Y8350
X7350Y3100
X7850Y6350
X10100Y7600
X11600Y7850
X11100Y4850
X13350Y3100
X8600Y9600
X7600Y13350
X11600Y13600
X12100Y13600
T02
X1600Y14100
X1600Y13100
X1600Y12100
X1600Y11100
X1600Y10100
X1600Y9100
X1600Y7600
X1600Y6600
X1600Y5600
X1600Y4600
X1600Y3600
X1600Y2600
X1600Y1600
X4600Y1600
X4600Y2600
X4600Y3600
X4600Y4600
X4600Y5600
X4600Y6600
X4600Y7600
X4600Y9100
X4600Y10100
X4600Y11100
X4600Y12100
X4600Y13100
X4600Y14100
X3600Y15100
X6100Y14100
X6100Y13100
X6100Y12100
X6100Y11100
X6100Y10100
X6100Y9100
X6100Y7600
X6100Y6600
X6100Y5600
X6100Y4600
X6100Y3600
X6100Y2600
X6100Y1600
X9100Y1600
X9100Y2600
X9100Y3600
X9100Y4600
X9100Y5600
X9100Y6600
X9100Y7600
X9100Y9100
X9100Y10100
X9100Y11100
X9100Y12100
X9100Y13100
X9100Y14100
X10100Y14100
X10100Y13100
X10100Y12100
X10100Y11100
X10600Y9100
X11600Y9100
X12600Y9100
X13100Y11100
X13100Y12100
X13100Y13100
X13100Y14100
X11100Y15100
X8100Y15100
X6600Y15100
X10600Y6600
X11600Y6600
X12600Y6600
X12600Y4100
X11600Y4100
X10600Y4100
X10600Y1600
X11600Y1600
X12600Y1600
T03
X1600Y17100
X2600Y17100
X3600Y17100
X4600Y17100
X6100Y17100
X7100Y17100
X8100Y17100
X9100Y17100
X10100Y17100
X11100Y17100
X12100Y17100
X13100Y17100
X14600Y15600
X14600Y14600
X14600Y13600
X14600Y12600
X14600Y11600
X14600Y10600
X14600Y9600
X14600Y8600
X14600Y7600
X14600Y6600
X14600Y5600
X14600Y4600
X14600Y3600
X14600Y2600
X14600Y1600
X14600Y16600
T04
X1600Y15350
X12600Y15600
M30
