G75*
%MOIN*%
%OFA0B0*%
%FSLAX25Y25*%
%IPPOS*%
%LPD*%
%AMOC8*
5,1,8,0,0,1.08239X$1,22.5*
%
%ADD10C,0.00000*%
%ADD11C,0.05200*%
%ADD12OC8,0.05200*%
%ADD13C,0.06000*%
%ADD14C,0.01000*%
%ADD15C,0.04000*%
%ADD16C,0.01600*%
D10*
X0001000Y0001000D02*
X0001000Y0195961D01*
X0169701Y0195961D01*
X0169701Y0001000D01*
X0001000Y0001000D01*
X0010488Y0153500D02*
X0010490Y0153648D01*
X0010496Y0153796D01*
X0010506Y0153944D01*
X0010520Y0154091D01*
X0010538Y0154238D01*
X0010559Y0154384D01*
X0010585Y0154530D01*
X0010615Y0154675D01*
X0010648Y0154819D01*
X0010686Y0154962D01*
X0010727Y0155104D01*
X0010772Y0155245D01*
X0010820Y0155385D01*
X0010873Y0155524D01*
X0010929Y0155661D01*
X0010989Y0155796D01*
X0011052Y0155930D01*
X0011119Y0156062D01*
X0011190Y0156192D01*
X0011264Y0156320D01*
X0011341Y0156446D01*
X0011422Y0156570D01*
X0011506Y0156692D01*
X0011593Y0156811D01*
X0011684Y0156928D01*
X0011778Y0157043D01*
X0011874Y0157155D01*
X0011974Y0157265D01*
X0012076Y0157371D01*
X0012182Y0157475D01*
X0012290Y0157576D01*
X0012401Y0157674D01*
X0012514Y0157770D01*
X0012630Y0157862D01*
X0012748Y0157951D01*
X0012869Y0158036D01*
X0012992Y0158119D01*
X0013117Y0158198D01*
X0013244Y0158274D01*
X0013373Y0158346D01*
X0013504Y0158415D01*
X0013637Y0158480D01*
X0013772Y0158541D01*
X0013908Y0158599D01*
X0014045Y0158654D01*
X0014184Y0158704D01*
X0014325Y0158751D01*
X0014466Y0158794D01*
X0014609Y0158834D01*
X0014753Y0158869D01*
X0014897Y0158901D01*
X0015043Y0158928D01*
X0015189Y0158952D01*
X0015336Y0158972D01*
X0015483Y0158988D01*
X0015630Y0159000D01*
X0015778Y0159008D01*
X0015926Y0159012D01*
X0016074Y0159012D01*
X0016222Y0159008D01*
X0016370Y0159000D01*
X0016517Y0158988D01*
X0016664Y0158972D01*
X0016811Y0158952D01*
X0016957Y0158928D01*
X0017103Y0158901D01*
X0017247Y0158869D01*
X0017391Y0158834D01*
X0017534Y0158794D01*
X0017675Y0158751D01*
X0017816Y0158704D01*
X0017955Y0158654D01*
X0018092Y0158599D01*
X0018228Y0158541D01*
X0018363Y0158480D01*
X0018496Y0158415D01*
X0018627Y0158346D01*
X0018756Y0158274D01*
X0018883Y0158198D01*
X0019008Y0158119D01*
X0019131Y0158036D01*
X0019252Y0157951D01*
X0019370Y0157862D01*
X0019486Y0157770D01*
X0019599Y0157674D01*
X0019710Y0157576D01*
X0019818Y0157475D01*
X0019924Y0157371D01*
X0020026Y0157265D01*
X0020126Y0157155D01*
X0020222Y0157043D01*
X0020316Y0156928D01*
X0020407Y0156811D01*
X0020494Y0156692D01*
X0020578Y0156570D01*
X0020659Y0156446D01*
X0020736Y0156320D01*
X0020810Y0156192D01*
X0020881Y0156062D01*
X0020948Y0155930D01*
X0021011Y0155796D01*
X0021071Y0155661D01*
X0021127Y0155524D01*
X0021180Y0155385D01*
X0021228Y0155245D01*
X0021273Y0155104D01*
X0021314Y0154962D01*
X0021352Y0154819D01*
X0021385Y0154675D01*
X0021415Y0154530D01*
X0021441Y0154384D01*
X0021462Y0154238D01*
X0021480Y0154091D01*
X0021494Y0153944D01*
X0021504Y0153796D01*
X0021510Y0153648D01*
X0021512Y0153500D01*
X0021510Y0153352D01*
X0021504Y0153204D01*
X0021494Y0153056D01*
X0021480Y0152909D01*
X0021462Y0152762D01*
X0021441Y0152616D01*
X0021415Y0152470D01*
X0021385Y0152325D01*
X0021352Y0152181D01*
X0021314Y0152038D01*
X0021273Y0151896D01*
X0021228Y0151755D01*
X0021180Y0151615D01*
X0021127Y0151476D01*
X0021071Y0151339D01*
X0021011Y0151204D01*
X0020948Y0151070D01*
X0020881Y0150938D01*
X0020810Y0150808D01*
X0020736Y0150680D01*
X0020659Y0150554D01*
X0020578Y0150430D01*
X0020494Y0150308D01*
X0020407Y0150189D01*
X0020316Y0150072D01*
X0020222Y0149957D01*
X0020126Y0149845D01*
X0020026Y0149735D01*
X0019924Y0149629D01*
X0019818Y0149525D01*
X0019710Y0149424D01*
X0019599Y0149326D01*
X0019486Y0149230D01*
X0019370Y0149138D01*
X0019252Y0149049D01*
X0019131Y0148964D01*
X0019008Y0148881D01*
X0018883Y0148802D01*
X0018756Y0148726D01*
X0018627Y0148654D01*
X0018496Y0148585D01*
X0018363Y0148520D01*
X0018228Y0148459D01*
X0018092Y0148401D01*
X0017955Y0148346D01*
X0017816Y0148296D01*
X0017675Y0148249D01*
X0017534Y0148206D01*
X0017391Y0148166D01*
X0017247Y0148131D01*
X0017103Y0148099D01*
X0016957Y0148072D01*
X0016811Y0148048D01*
X0016664Y0148028D01*
X0016517Y0148012D01*
X0016370Y0148000D01*
X0016222Y0147992D01*
X0016074Y0147988D01*
X0015926Y0147988D01*
X0015778Y0147992D01*
X0015630Y0148000D01*
X0015483Y0148012D01*
X0015336Y0148028D01*
X0015189Y0148048D01*
X0015043Y0148072D01*
X0014897Y0148099D01*
X0014753Y0148131D01*
X0014609Y0148166D01*
X0014466Y0148206D01*
X0014325Y0148249D01*
X0014184Y0148296D01*
X0014045Y0148346D01*
X0013908Y0148401D01*
X0013772Y0148459D01*
X0013637Y0148520D01*
X0013504Y0148585D01*
X0013373Y0148654D01*
X0013244Y0148726D01*
X0013117Y0148802D01*
X0012992Y0148881D01*
X0012869Y0148964D01*
X0012748Y0149049D01*
X0012630Y0149138D01*
X0012514Y0149230D01*
X0012401Y0149326D01*
X0012290Y0149424D01*
X0012182Y0149525D01*
X0012076Y0149629D01*
X0011974Y0149735D01*
X0011874Y0149845D01*
X0011778Y0149957D01*
X0011684Y0150072D01*
X0011593Y0150189D01*
X0011506Y0150308D01*
X0011422Y0150430D01*
X0011341Y0150554D01*
X0011264Y0150680D01*
X0011190Y0150808D01*
X0011119Y0150938D01*
X0011052Y0151070D01*
X0010989Y0151204D01*
X0010929Y0151339D01*
X0010873Y0151476D01*
X0010820Y0151615D01*
X0010772Y0151755D01*
X0010727Y0151896D01*
X0010686Y0152038D01*
X0010648Y0152181D01*
X0010615Y0152325D01*
X0010585Y0152470D01*
X0010559Y0152616D01*
X0010538Y0152762D01*
X0010520Y0152909D01*
X0010506Y0153056D01*
X0010496Y0153204D01*
X0010490Y0153352D01*
X0010488Y0153500D01*
X0120488Y0156000D02*
X0120490Y0156148D01*
X0120496Y0156296D01*
X0120506Y0156444D01*
X0120520Y0156591D01*
X0120538Y0156738D01*
X0120559Y0156884D01*
X0120585Y0157030D01*
X0120615Y0157175D01*
X0120648Y0157319D01*
X0120686Y0157462D01*
X0120727Y0157604D01*
X0120772Y0157745D01*
X0120820Y0157885D01*
X0120873Y0158024D01*
X0120929Y0158161D01*
X0120989Y0158296D01*
X0121052Y0158430D01*
X0121119Y0158562D01*
X0121190Y0158692D01*
X0121264Y0158820D01*
X0121341Y0158946D01*
X0121422Y0159070D01*
X0121506Y0159192D01*
X0121593Y0159311D01*
X0121684Y0159428D01*
X0121778Y0159543D01*
X0121874Y0159655D01*
X0121974Y0159765D01*
X0122076Y0159871D01*
X0122182Y0159975D01*
X0122290Y0160076D01*
X0122401Y0160174D01*
X0122514Y0160270D01*
X0122630Y0160362D01*
X0122748Y0160451D01*
X0122869Y0160536D01*
X0122992Y0160619D01*
X0123117Y0160698D01*
X0123244Y0160774D01*
X0123373Y0160846D01*
X0123504Y0160915D01*
X0123637Y0160980D01*
X0123772Y0161041D01*
X0123908Y0161099D01*
X0124045Y0161154D01*
X0124184Y0161204D01*
X0124325Y0161251D01*
X0124466Y0161294D01*
X0124609Y0161334D01*
X0124753Y0161369D01*
X0124897Y0161401D01*
X0125043Y0161428D01*
X0125189Y0161452D01*
X0125336Y0161472D01*
X0125483Y0161488D01*
X0125630Y0161500D01*
X0125778Y0161508D01*
X0125926Y0161512D01*
X0126074Y0161512D01*
X0126222Y0161508D01*
X0126370Y0161500D01*
X0126517Y0161488D01*
X0126664Y0161472D01*
X0126811Y0161452D01*
X0126957Y0161428D01*
X0127103Y0161401D01*
X0127247Y0161369D01*
X0127391Y0161334D01*
X0127534Y0161294D01*
X0127675Y0161251D01*
X0127816Y0161204D01*
X0127955Y0161154D01*
X0128092Y0161099D01*
X0128228Y0161041D01*
X0128363Y0160980D01*
X0128496Y0160915D01*
X0128627Y0160846D01*
X0128756Y0160774D01*
X0128883Y0160698D01*
X0129008Y0160619D01*
X0129131Y0160536D01*
X0129252Y0160451D01*
X0129370Y0160362D01*
X0129486Y0160270D01*
X0129599Y0160174D01*
X0129710Y0160076D01*
X0129818Y0159975D01*
X0129924Y0159871D01*
X0130026Y0159765D01*
X0130126Y0159655D01*
X0130222Y0159543D01*
X0130316Y0159428D01*
X0130407Y0159311D01*
X0130494Y0159192D01*
X0130578Y0159070D01*
X0130659Y0158946D01*
X0130736Y0158820D01*
X0130810Y0158692D01*
X0130881Y0158562D01*
X0130948Y0158430D01*
X0131011Y0158296D01*
X0131071Y0158161D01*
X0131127Y0158024D01*
X0131180Y0157885D01*
X0131228Y0157745D01*
X0131273Y0157604D01*
X0131314Y0157462D01*
X0131352Y0157319D01*
X0131385Y0157175D01*
X0131415Y0157030D01*
X0131441Y0156884D01*
X0131462Y0156738D01*
X0131480Y0156591D01*
X0131494Y0156444D01*
X0131504Y0156296D01*
X0131510Y0156148D01*
X0131512Y0156000D01*
X0131510Y0155852D01*
X0131504Y0155704D01*
X0131494Y0155556D01*
X0131480Y0155409D01*
X0131462Y0155262D01*
X0131441Y0155116D01*
X0131415Y0154970D01*
X0131385Y0154825D01*
X0131352Y0154681D01*
X0131314Y0154538D01*
X0131273Y0154396D01*
X0131228Y0154255D01*
X0131180Y0154115D01*
X0131127Y0153976D01*
X0131071Y0153839D01*
X0131011Y0153704D01*
X0130948Y0153570D01*
X0130881Y0153438D01*
X0130810Y0153308D01*
X0130736Y0153180D01*
X0130659Y0153054D01*
X0130578Y0152930D01*
X0130494Y0152808D01*
X0130407Y0152689D01*
X0130316Y0152572D01*
X0130222Y0152457D01*
X0130126Y0152345D01*
X0130026Y0152235D01*
X0129924Y0152129D01*
X0129818Y0152025D01*
X0129710Y0151924D01*
X0129599Y0151826D01*
X0129486Y0151730D01*
X0129370Y0151638D01*
X0129252Y0151549D01*
X0129131Y0151464D01*
X0129008Y0151381D01*
X0128883Y0151302D01*
X0128756Y0151226D01*
X0128627Y0151154D01*
X0128496Y0151085D01*
X0128363Y0151020D01*
X0128228Y0150959D01*
X0128092Y0150901D01*
X0127955Y0150846D01*
X0127816Y0150796D01*
X0127675Y0150749D01*
X0127534Y0150706D01*
X0127391Y0150666D01*
X0127247Y0150631D01*
X0127103Y0150599D01*
X0126957Y0150572D01*
X0126811Y0150548D01*
X0126664Y0150528D01*
X0126517Y0150512D01*
X0126370Y0150500D01*
X0126222Y0150492D01*
X0126074Y0150488D01*
X0125926Y0150488D01*
X0125778Y0150492D01*
X0125630Y0150500D01*
X0125483Y0150512D01*
X0125336Y0150528D01*
X0125189Y0150548D01*
X0125043Y0150572D01*
X0124897Y0150599D01*
X0124753Y0150631D01*
X0124609Y0150666D01*
X0124466Y0150706D01*
X0124325Y0150749D01*
X0124184Y0150796D01*
X0124045Y0150846D01*
X0123908Y0150901D01*
X0123772Y0150959D01*
X0123637Y0151020D01*
X0123504Y0151085D01*
X0123373Y0151154D01*
X0123244Y0151226D01*
X0123117Y0151302D01*
X0122992Y0151381D01*
X0122869Y0151464D01*
X0122748Y0151549D01*
X0122630Y0151638D01*
X0122514Y0151730D01*
X0122401Y0151826D01*
X0122290Y0151924D01*
X0122182Y0152025D01*
X0122076Y0152129D01*
X0121974Y0152235D01*
X0121874Y0152345D01*
X0121778Y0152457D01*
X0121684Y0152572D01*
X0121593Y0152689D01*
X0121506Y0152808D01*
X0121422Y0152930D01*
X0121341Y0153054D01*
X0121264Y0153180D01*
X0121190Y0153308D01*
X0121119Y0153438D01*
X0121052Y0153570D01*
X0120989Y0153704D01*
X0120929Y0153839D01*
X0120873Y0153976D01*
X0120820Y0154115D01*
X0120772Y0154255D01*
X0120727Y0154396D01*
X0120686Y0154538D01*
X0120648Y0154681D01*
X0120615Y0154825D01*
X0120585Y0154970D01*
X0120559Y0155116D01*
X0120538Y0155262D01*
X0120520Y0155409D01*
X0120506Y0155556D01*
X0120496Y0155704D01*
X0120490Y0155852D01*
X0120488Y0156000D01*
D11*
X0116000Y0093600D02*
X0116000Y0088400D01*
X0106000Y0088400D02*
X0106000Y0093600D01*
X0093600Y0076000D02*
X0088400Y0076000D01*
X0088400Y0066000D02*
X0093600Y0066000D01*
X0093600Y0056000D02*
X0088400Y0056000D01*
X0088400Y0046000D02*
X0093600Y0046000D01*
X0093600Y0036000D02*
X0088400Y0036000D01*
X0088400Y0026000D02*
X0093600Y0026000D01*
X0093600Y0016000D02*
X0088400Y0016000D01*
X0106000Y0013400D02*
X0106000Y0018600D01*
X0116000Y0018600D02*
X0116000Y0013400D01*
X0126000Y0013400D02*
X0126000Y0018600D01*
X0126000Y0038400D02*
X0126000Y0043600D01*
X0116000Y0043600D02*
X0116000Y0038400D01*
X0106000Y0038400D02*
X0106000Y0043600D01*
X0106000Y0063400D02*
X0106000Y0068600D01*
X0116000Y0068600D02*
X0116000Y0063400D01*
X0126000Y0063400D02*
X0126000Y0068600D01*
X0126000Y0088400D02*
X0126000Y0093600D01*
X0063600Y0076000D02*
X0058400Y0076000D01*
X0058400Y0066000D02*
X0063600Y0066000D01*
X0063600Y0056000D02*
X0058400Y0056000D01*
X0058400Y0046000D02*
X0063600Y0046000D01*
X0063600Y0036000D02*
X0058400Y0036000D01*
X0058400Y0026000D02*
X0063600Y0026000D01*
X0063600Y0016000D02*
X0058400Y0016000D01*
X0048600Y0016000D02*
X0043400Y0016000D01*
X0043400Y0026000D02*
X0048600Y0026000D01*
X0048600Y0036000D02*
X0043400Y0036000D01*
X0043400Y0046000D02*
X0048600Y0046000D01*
X0048600Y0056000D02*
X0043400Y0056000D01*
X0043400Y0066000D02*
X0048600Y0066000D01*
X0048600Y0076000D02*
X0043400Y0076000D01*
X0018600Y0076000D02*
X0013400Y0076000D01*
X0013400Y0066000D02*
X0018600Y0066000D01*
X0018600Y0056000D02*
X0013400Y0056000D01*
X0013400Y0046000D02*
X0018600Y0046000D01*
X0018600Y0036000D02*
X0013400Y0036000D01*
X0013400Y0026000D02*
X0018600Y0026000D01*
X0018600Y0016000D02*
X0013400Y0016000D01*
D12*
X0016000Y0091000D03*
X0016000Y0101000D03*
X0016000Y0111000D03*
X0016000Y0121000D03*
X0016000Y0131000D03*
X0016000Y0141000D03*
X0036000Y0151000D03*
X0046000Y0141000D03*
X0046000Y0131000D03*
X0046000Y0121000D03*
X0046000Y0111000D03*
X0046000Y0101000D03*
X0046000Y0091000D03*
X0061000Y0091000D03*
X0061000Y0101000D03*
X0061000Y0111000D03*
X0061000Y0121000D03*
X0061000Y0131000D03*
X0061000Y0141000D03*
X0066000Y0151000D03*
X0081000Y0151000D03*
X0091000Y0141000D03*
X0091000Y0131000D03*
X0091000Y0121000D03*
X0091000Y0111000D03*
X0091000Y0101000D03*
X0091000Y0091000D03*
X0101000Y0111000D03*
X0101000Y0121000D03*
X0101000Y0131000D03*
X0101000Y0141000D03*
X0111000Y0151000D03*
X0131000Y0141000D03*
X0131000Y0131000D03*
X0131000Y0121000D03*
X0131000Y0111000D03*
D13*
X0143000Y0106000D02*
X0149000Y0106000D01*
X0149000Y0096000D02*
X0143000Y0096000D01*
X0143000Y0086000D02*
X0149000Y0086000D01*
X0149000Y0076000D02*
X0143000Y0076000D01*
X0143000Y0066000D02*
X0149000Y0066000D01*
X0149000Y0056000D02*
X0143000Y0056000D01*
X0143000Y0046000D02*
X0149000Y0046000D01*
X0149000Y0036000D02*
X0143000Y0036000D01*
X0143000Y0026000D02*
X0149000Y0026000D01*
X0149000Y0016000D02*
X0143000Y0016000D01*
X0143000Y0116000D02*
X0149000Y0116000D01*
X0149000Y0126000D02*
X0143000Y0126000D01*
X0143000Y0136000D02*
X0149000Y0136000D01*
X0149000Y0146000D02*
X0143000Y0146000D01*
X0143000Y0156000D02*
X0149000Y0156000D01*
X0149000Y0166000D02*
X0143000Y0166000D01*
X0131000Y0168000D02*
X0131000Y0174000D01*
X0121000Y0174000D02*
X0121000Y0168000D01*
X0111000Y0168000D02*
X0111000Y0174000D01*
X0101000Y0174000D02*
X0101000Y0168000D01*
X0091000Y0168000D02*
X0091000Y0174000D01*
X0081000Y0174000D02*
X0081000Y0168000D01*
X0071000Y0168000D02*
X0071000Y0174000D01*
X0061000Y0174000D02*
X0061000Y0168000D01*
X0046000Y0168000D02*
X0046000Y0174000D01*
X0036000Y0174000D02*
X0036000Y0168000D01*
X0026000Y0168000D02*
X0026000Y0174000D01*
X0016000Y0174000D02*
X0016000Y0168000D01*
D14*
X0026000Y0171000D02*
X0028500Y0168500D01*
X0028500Y0096000D01*
X0023500Y0091000D01*
X0023500Y0043500D01*
X0016000Y0036000D01*
X0016000Y0026000D02*
X0006000Y0036000D01*
X0006000Y0131000D01*
X0011000Y0136000D01*
X0016000Y0131000D02*
X0008500Y0123500D01*
X0008500Y0063500D01*
X0016000Y0056000D01*
X0028500Y0068500D02*
X0028500Y0006000D01*
X0111000Y0006000D01*
X0113500Y0008500D01*
X0113500Y0013500D01*
X0116000Y0016000D01*
X0111000Y0011000D02*
X0108500Y0008500D01*
X0068500Y0008500D01*
X0068500Y0078500D01*
X0061000Y0086000D01*
X0056000Y0086000D01*
X0056000Y0116000D01*
X0061000Y0121000D01*
X0066000Y0123500D02*
X0066000Y0116000D01*
X0061000Y0111000D01*
X0061000Y0101000D02*
X0078500Y0083500D01*
X0078500Y0063500D01*
X0081000Y0066000D02*
X0083500Y0063500D01*
X0083500Y0043500D01*
X0091000Y0036000D01*
X0096000Y0031000D02*
X0073500Y0031000D01*
X0061000Y0046000D02*
X0053500Y0053500D01*
X0053500Y0123500D01*
X0061000Y0131000D01*
X0066000Y0123500D02*
X0076000Y0133500D01*
X0086000Y0136000D02*
X0091000Y0131000D01*
X0096000Y0126000D01*
X0096000Y0081000D01*
X0101000Y0076000D01*
X0098500Y0068500D02*
X0098500Y0033500D01*
X0096000Y0031000D01*
X0106000Y0026000D02*
X0146000Y0026000D01*
X0146000Y0036000D01*
X0138500Y0036000D02*
X0138500Y0068500D01*
X0146000Y0076000D01*
X0146000Y0086000D02*
X0153500Y0093500D01*
X0153500Y0168500D01*
X0138500Y0183500D01*
X0031000Y0183500D01*
X0031000Y0093500D01*
X0028500Y0091000D01*
X0028500Y0086000D02*
X0036000Y0093500D01*
X0036000Y0121000D01*
X0046000Y0131000D01*
X0051000Y0138500D02*
X0058500Y0146000D01*
X0076000Y0146000D01*
X0076000Y0153500D01*
X0078500Y0156000D01*
X0086000Y0156000D01*
X0086000Y0136000D01*
X0096000Y0136000D02*
X0096000Y0156000D01*
X0081000Y0171000D01*
X0091000Y0171000D02*
X0091000Y0166000D01*
X0098500Y0158500D01*
X0098500Y0143500D01*
X0101000Y0141000D01*
X0096000Y0136000D02*
X0101000Y0131000D01*
X0106000Y0126000D02*
X0106000Y0156000D01*
X0096000Y0166000D01*
X0096000Y0176000D01*
X0093500Y0178500D01*
X0071000Y0178500D01*
X0071000Y0171000D01*
X0053500Y0181000D02*
X0053500Y0148500D01*
X0046000Y0141000D01*
X0051000Y0138500D02*
X0051000Y0081000D01*
X0046000Y0076000D01*
X0033500Y0078500D02*
X0033500Y0063500D01*
X0028500Y0068500D02*
X0028500Y0086000D01*
X0021000Y0081000D02*
X0021000Y0126000D01*
X0038500Y0113500D02*
X0046000Y0121000D01*
X0038500Y0113500D02*
X0038500Y0043500D01*
X0046000Y0036000D01*
X0053500Y0033500D02*
X0046000Y0026000D01*
X0046000Y0016000D01*
X0053500Y0033500D02*
X0053500Y0038500D01*
X0046000Y0046000D01*
X0016000Y0076000D02*
X0021000Y0081000D01*
X0016000Y0083500D02*
X0011000Y0088500D01*
X0011000Y0096000D01*
X0016000Y0101000D01*
X0036000Y0151000D02*
X0036000Y0161000D01*
X0046000Y0171000D01*
X0053500Y0181000D02*
X0101000Y0181000D01*
X0106000Y0176000D01*
X0106000Y0163500D01*
X0116000Y0153500D01*
X0116000Y0151000D01*
X0126000Y0141000D01*
X0126000Y0108500D01*
X0131000Y0103500D01*
X0131000Y0033500D01*
X0123500Y0033500D01*
X0116000Y0041000D01*
X0121000Y0046000D02*
X0121000Y0136000D01*
X0116000Y0136000D02*
X0116000Y0091000D01*
X0116000Y0078500D01*
X0106000Y0066000D02*
X0106000Y0041000D01*
X0106000Y0026000D01*
X0106000Y0016000D01*
X0111000Y0011000D02*
X0111000Y0023500D01*
X0118500Y0023500D01*
X0126000Y0016000D01*
X0133500Y0031000D02*
X0138500Y0036000D01*
X0126000Y0041000D02*
X0121000Y0046000D01*
X0111000Y0048500D02*
X0111000Y0151000D01*
X0131000Y0141000D02*
X0131000Y0131000D01*
X0131000Y0126000D01*
X0146000Y0126000D01*
X0146000Y0116000D01*
X0131000Y0121000D02*
X0131000Y0111000D01*
X0131000Y0121000D02*
X0131000Y0126000D01*
X0106000Y0126000D02*
X0101000Y0121000D01*
X0086000Y0096000D02*
X0083500Y0093500D01*
X0083500Y0073500D01*
X0091000Y0066000D01*
X0098500Y0068500D02*
X0091000Y0076000D01*
X0081000Y0066000D02*
X0081000Y0151000D01*
X0106000Y0091000D02*
X0106000Y0066000D01*
X0091000Y0056000D02*
X0083500Y0063500D01*
D15*
X0078500Y0063500D03*
X0101000Y0076000D03*
X0116000Y0078500D03*
X0111000Y0048500D03*
X0133500Y0031000D03*
X0086000Y0096000D03*
X0076000Y0133500D03*
X0116000Y0136000D03*
X0121000Y0136000D03*
X0033500Y0078500D03*
X0028500Y0068500D03*
X0033500Y0063500D03*
X0016000Y0083500D03*
X0028500Y0091000D03*
X0021000Y0126000D03*
X0011000Y0136000D03*
X0073500Y0031000D03*
D16*
X0075766Y0028175D02*
X0084755Y0028175D01*
X0084839Y0028379D02*
X0084200Y0026835D01*
X0084200Y0025165D01*
X0084839Y0023621D01*
X0086021Y0022439D01*
X0087565Y0021800D01*
X0094435Y0021800D01*
X0095979Y0022439D01*
X0097161Y0023621D01*
X0097800Y0025165D01*
X0097800Y0026835D01*
X0097161Y0028379D01*
X0096640Y0028900D01*
X0096870Y0028900D01*
X0098100Y0030130D01*
X0100600Y0032630D01*
X0100600Y0069370D01*
X0099370Y0070600D01*
X0096755Y0073215D01*
X0097161Y0073621D01*
X0097625Y0074741D01*
X0097948Y0073961D01*
X0098961Y0072948D01*
X0100284Y0072400D01*
X0101716Y0072400D01*
X0103039Y0072948D01*
X0103900Y0073809D01*
X0103900Y0072276D01*
X0103621Y0072161D01*
X0102439Y0070979D01*
X0101800Y0069435D01*
X0101800Y0062565D01*
X0102439Y0061021D01*
X0103621Y0059839D01*
X0103900Y0059724D01*
X0103900Y0047276D01*
X0103621Y0047161D01*
X0102439Y0045979D01*
X0101800Y0044435D01*
X0101800Y0037565D01*
X0102439Y0036021D01*
X0103621Y0034839D01*
X0103900Y0034724D01*
X0103900Y0022276D01*
X0103621Y0022161D01*
X0102439Y0020979D01*
X0101800Y0019435D01*
X0101800Y0012565D01*
X0102439Y0011021D01*
X0102860Y0010600D01*
X0070600Y0010600D01*
X0070600Y0028809D01*
X0071461Y0027948D01*
X0072784Y0027400D01*
X0074216Y0027400D01*
X0075539Y0027948D01*
X0076491Y0028900D01*
X0085360Y0028900D01*
X0084839Y0028379D01*
X0084200Y0026576D02*
X0070600Y0026576D01*
X0070600Y0024978D02*
X0084277Y0024978D01*
X0085081Y0023379D02*
X0070600Y0023379D01*
X0070600Y0021781D02*
X0103241Y0021781D01*
X0103900Y0023379D02*
X0096919Y0023379D01*
X0097723Y0024978D02*
X0103900Y0024978D01*
X0103900Y0026576D02*
X0097800Y0026576D01*
X0097245Y0028175D02*
X0103900Y0028175D01*
X0103900Y0029773D02*
X0097743Y0029773D01*
X0099342Y0031372D02*
X0103900Y0031372D01*
X0103900Y0032970D02*
X0100600Y0032970D01*
X0100600Y0034569D02*
X0103900Y0034569D01*
X0102379Y0036167D02*
X0100600Y0036167D01*
X0100600Y0037766D02*
X0101800Y0037766D01*
X0101800Y0039364D02*
X0100600Y0039364D01*
X0100600Y0040963D02*
X0101800Y0040963D01*
X0101800Y0042561D02*
X0100600Y0042561D01*
X0100600Y0044160D02*
X0101800Y0044160D01*
X0102348Y0045758D02*
X0100600Y0045758D01*
X0100600Y0047357D02*
X0103900Y0047357D01*
X0103900Y0048955D02*
X0100600Y0048955D01*
X0100600Y0050554D02*
X0103900Y0050554D01*
X0103900Y0052152D02*
X0100600Y0052152D01*
X0100600Y0053751D02*
X0103900Y0053751D01*
X0103900Y0055349D02*
X0100600Y0055349D01*
X0100600Y0056948D02*
X0103900Y0056948D01*
X0103900Y0058546D02*
X0100600Y0058546D01*
X0100600Y0060145D02*
X0103315Y0060145D01*
X0102140Y0061743D02*
X0100600Y0061743D01*
X0100600Y0063342D02*
X0101800Y0063342D01*
X0101800Y0064940D02*
X0100600Y0064940D01*
X0100600Y0066539D02*
X0101800Y0066539D01*
X0101800Y0068137D02*
X0100600Y0068137D01*
X0100234Y0069736D02*
X0101924Y0069736D01*
X0102795Y0071334D02*
X0098635Y0071334D01*
X0098997Y0072933D02*
X0097037Y0072933D01*
X0097538Y0074532D02*
X0097712Y0074532D01*
X0103003Y0072933D02*
X0103900Y0072933D01*
X0103900Y0078191D02*
X0103039Y0079052D01*
X0101716Y0079600D01*
X0100370Y0079600D01*
X0098100Y0081870D01*
X0098100Y0107960D01*
X0099260Y0106800D01*
X0102740Y0106800D01*
X0105200Y0109260D01*
X0105200Y0112740D01*
X0102740Y0115200D01*
X0099260Y0115200D01*
X0098100Y0114040D01*
X0098100Y0117960D01*
X0099260Y0116800D01*
X0102740Y0116800D01*
X0105200Y0119260D01*
X0105200Y0122230D01*
X0106870Y0123900D01*
X0108100Y0125130D01*
X0108100Y0147960D01*
X0108900Y0147160D01*
X0108900Y0096640D01*
X0108379Y0097161D01*
X0106835Y0097800D01*
X0105165Y0097800D01*
X0103621Y0097161D01*
X0102439Y0095979D01*
X0101800Y0094435D01*
X0101800Y0087565D01*
X0102439Y0086021D01*
X0103621Y0084839D01*
X0103900Y0084724D01*
X0103900Y0078191D01*
X0103900Y0079327D02*
X0102375Y0079327D01*
X0103900Y0080926D02*
X0099044Y0080926D01*
X0098100Y0082524D02*
X0103900Y0082524D01*
X0103900Y0084123D02*
X0098100Y0084123D01*
X0098100Y0085721D02*
X0102739Y0085721D01*
X0101901Y0087320D02*
X0098100Y0087320D01*
X0098100Y0088918D02*
X0101800Y0088918D01*
X0101800Y0090517D02*
X0098100Y0090517D01*
X0098100Y0092115D02*
X0101800Y0092115D01*
X0101800Y0093714D02*
X0098100Y0093714D01*
X0098100Y0095312D02*
X0102163Y0095312D01*
X0103371Y0096911D02*
X0098100Y0096911D01*
X0098100Y0098509D02*
X0108900Y0098509D01*
X0108900Y0096911D02*
X0108629Y0096911D01*
X0108900Y0100108D02*
X0098100Y0100108D01*
X0098100Y0101706D02*
X0108900Y0101706D01*
X0108900Y0103305D02*
X0098100Y0103305D01*
X0098100Y0104903D02*
X0108900Y0104903D01*
X0108900Y0106502D02*
X0098100Y0106502D01*
X0093900Y0106502D02*
X0083100Y0106502D01*
X0083100Y0108100D02*
X0087960Y0108100D01*
X0086800Y0109260D02*
X0089260Y0106800D01*
X0092740Y0106800D01*
X0093900Y0107960D01*
X0093900Y0104040D01*
X0092740Y0105200D01*
X0089260Y0105200D01*
X0086800Y0102740D01*
X0086800Y0099565D01*
X0086716Y0099600D01*
X0085284Y0099600D01*
X0083961Y0099052D01*
X0083100Y0098191D01*
X0083100Y0147160D01*
X0083900Y0147960D01*
X0083900Y0135130D01*
X0086800Y0132230D01*
X0086800Y0129260D01*
X0089260Y0126800D01*
X0092230Y0126800D01*
X0093900Y0125130D01*
X0093900Y0124040D01*
X0092740Y0125200D01*
X0089260Y0125200D01*
X0086800Y0122740D01*
X0086800Y0119260D01*
X0089260Y0116800D01*
X0092740Y0116800D01*
X0093900Y0117960D01*
X0093900Y0114040D01*
X0092740Y0115200D01*
X0089260Y0115200D01*
X0086800Y0112740D01*
X0086800Y0109260D01*
X0086800Y0109699D02*
X0083100Y0109699D01*
X0083100Y0111297D02*
X0086800Y0111297D01*
X0086956Y0112896D02*
X0083100Y0112896D01*
X0083100Y0114494D02*
X0088555Y0114494D01*
X0088369Y0117691D02*
X0083100Y0117691D01*
X0083100Y0116093D02*
X0093900Y0116093D01*
X0093900Y0117691D02*
X0093631Y0117691D01*
X0093445Y0114494D02*
X0093900Y0114494D01*
X0098100Y0114494D02*
X0098555Y0114494D01*
X0098100Y0116093D02*
X0108900Y0116093D01*
X0108900Y0117691D02*
X0103631Y0117691D01*
X0105200Y0119290D02*
X0108900Y0119290D01*
X0108900Y0120888D02*
X0105200Y0120888D01*
X0105457Y0122487D02*
X0108900Y0122487D01*
X0108900Y0124085D02*
X0107055Y0124085D01*
X0108100Y0125684D02*
X0108900Y0125684D01*
X0108900Y0127282D02*
X0108100Y0127282D01*
X0108100Y0128881D02*
X0108900Y0128881D01*
X0108900Y0130479D02*
X0108100Y0130479D01*
X0108100Y0132078D02*
X0108900Y0132078D01*
X0108900Y0133676D02*
X0108100Y0133676D01*
X0108100Y0135275D02*
X0108900Y0135275D01*
X0108900Y0136873D02*
X0108100Y0136873D01*
X0108100Y0138472D02*
X0108900Y0138472D01*
X0108900Y0140070D02*
X0108100Y0140070D01*
X0108100Y0141669D02*
X0108900Y0141669D01*
X0108900Y0143268D02*
X0108100Y0143268D01*
X0108100Y0144866D02*
X0108900Y0144866D01*
X0108900Y0146465D02*
X0108100Y0146465D01*
X0103900Y0146465D02*
X0100600Y0146465D01*
X0100600Y0145200D02*
X0100600Y0158430D01*
X0103900Y0155130D01*
X0103900Y0144040D01*
X0102740Y0145200D01*
X0100600Y0145200D01*
X0103074Y0144866D02*
X0103900Y0144866D01*
X0103900Y0148063D02*
X0100600Y0148063D01*
X0100600Y0149662D02*
X0103900Y0149662D01*
X0103900Y0151260D02*
X0100600Y0151260D01*
X0100600Y0152859D02*
X0103900Y0152859D01*
X0103900Y0154457D02*
X0100600Y0154457D01*
X0100600Y0156056D02*
X0102975Y0156056D01*
X0101376Y0157654D02*
X0100600Y0157654D01*
X0104119Y0160851D02*
X0105679Y0160851D01*
X0105130Y0161400D02*
X0111330Y0155200D01*
X0109260Y0155200D01*
X0108100Y0154040D01*
X0108100Y0156870D01*
X0101570Y0163400D01*
X0101915Y0163400D01*
X0103606Y0164100D01*
X0103900Y0164395D01*
X0103900Y0162630D01*
X0105130Y0161400D01*
X0104080Y0162450D02*
X0102520Y0162450D01*
X0103480Y0164048D02*
X0103900Y0164048D01*
X0108100Y0164370D02*
X0108100Y0164395D01*
X0108394Y0164100D01*
X0110085Y0163400D01*
X0111915Y0163400D01*
X0113606Y0164100D01*
X0114900Y0165394D01*
X0115600Y0167085D01*
X0115600Y0174915D01*
X0114900Y0176606D01*
X0113606Y0177900D01*
X0111915Y0178600D01*
X0110085Y0178600D01*
X0108394Y0177900D01*
X0107732Y0177238D01*
X0103570Y0181400D01*
X0137630Y0181400D01*
X0148430Y0170600D01*
X0142085Y0170600D01*
X0140394Y0169900D01*
X0139100Y0168606D01*
X0138400Y0166915D01*
X0138400Y0165085D01*
X0139100Y0163394D01*
X0140394Y0162100D01*
X0142085Y0161400D01*
X0149915Y0161400D01*
X0151400Y0162015D01*
X0151400Y0159985D01*
X0149915Y0160600D01*
X0142085Y0160600D01*
X0140394Y0159900D01*
X0139100Y0158606D01*
X0138400Y0156915D01*
X0138400Y0155085D01*
X0139100Y0153394D01*
X0140394Y0152100D01*
X0142085Y0151400D01*
X0149915Y0151400D01*
X0151400Y0152015D01*
X0151400Y0149985D01*
X0149915Y0150600D01*
X0142085Y0150600D01*
X0140394Y0149900D01*
X0139100Y0148606D01*
X0138400Y0146915D01*
X0138400Y0145085D01*
X0139100Y0143394D01*
X0140394Y0142100D01*
X0142085Y0141400D01*
X0149915Y0141400D01*
X0151400Y0142015D01*
X0151400Y0139985D01*
X0149915Y0140600D01*
X0142085Y0140600D01*
X0140394Y0139900D01*
X0139100Y0138606D01*
X0138400Y0136915D01*
X0138400Y0135085D01*
X0139100Y0133394D01*
X0140394Y0132100D01*
X0142085Y0131400D01*
X0149915Y0131400D01*
X0151400Y0132015D01*
X0151400Y0129985D01*
X0149915Y0130600D01*
X0142085Y0130600D01*
X0140394Y0129900D01*
X0139100Y0128606D01*
X0138891Y0128100D01*
X0134040Y0128100D01*
X0135200Y0129260D01*
X0135200Y0132740D01*
X0133100Y0134840D01*
X0133100Y0137160D01*
X0135200Y0139260D01*
X0135200Y0142740D01*
X0132740Y0145200D01*
X0129260Y0145200D01*
X0127015Y0142955D01*
X0124150Y0145820D01*
X0124642Y0145688D01*
X0127358Y0145688D01*
X0129980Y0146391D01*
X0132332Y0147748D01*
X0134251Y0149668D01*
X0135609Y0152020D01*
X0136312Y0154642D01*
X0136312Y0157358D01*
X0135609Y0159980D01*
X0134251Y0162332D01*
X0132812Y0163771D01*
X0133606Y0164100D01*
X0134900Y0165394D01*
X0135600Y0167085D01*
X0135600Y0174915D01*
X0134900Y0176606D01*
X0133606Y0177900D01*
X0131915Y0178600D01*
X0130085Y0178600D01*
X0128394Y0177900D01*
X0127100Y0176606D01*
X0126400Y0174915D01*
X0126400Y0167085D01*
X0126720Y0166312D01*
X0125280Y0166312D01*
X0125600Y0167085D01*
X0125600Y0174915D01*
X0124900Y0176606D01*
X0123606Y0177900D01*
X0121915Y0178600D01*
X0120085Y0178600D01*
X0118394Y0177900D01*
X0117100Y0176606D01*
X0116400Y0174915D01*
X0116400Y0167085D01*
X0117100Y0165394D01*
X0118394Y0164100D01*
X0119188Y0163771D01*
X0117748Y0162332D01*
X0116391Y0159980D01*
X0115688Y0157358D01*
X0115688Y0156782D01*
X0108100Y0164370D01*
X0108422Y0164048D02*
X0108520Y0164048D01*
X0110020Y0162450D02*
X0117867Y0162450D01*
X0118520Y0164048D02*
X0113480Y0164048D01*
X0115004Y0165647D02*
X0116996Y0165647D01*
X0116400Y0167245D02*
X0115600Y0167245D01*
X0115600Y0168844D02*
X0116400Y0168844D01*
X0116400Y0170442D02*
X0115600Y0170442D01*
X0115600Y0172041D02*
X0116400Y0172041D01*
X0116400Y0173639D02*
X0115600Y0173639D01*
X0115466Y0175238D02*
X0116534Y0175238D01*
X0117331Y0176836D02*
X0114669Y0176836D01*
X0112314Y0178435D02*
X0119686Y0178435D01*
X0122314Y0178435D02*
X0129686Y0178435D01*
X0127331Y0176836D02*
X0124669Y0176836D01*
X0125466Y0175238D02*
X0126534Y0175238D01*
X0126400Y0173639D02*
X0125600Y0173639D01*
X0125600Y0172041D02*
X0126400Y0172041D01*
X0126400Y0170442D02*
X0125600Y0170442D01*
X0125600Y0168844D02*
X0126400Y0168844D01*
X0126400Y0167245D02*
X0125600Y0167245D01*
X0133480Y0164048D02*
X0138829Y0164048D01*
X0138400Y0165647D02*
X0135004Y0165647D01*
X0135600Y0167245D02*
X0138537Y0167245D01*
X0139338Y0168844D02*
X0135600Y0168844D01*
X0135600Y0170442D02*
X0141704Y0170442D01*
X0145391Y0173639D02*
X0135600Y0173639D01*
X0135600Y0172041D02*
X0146989Y0172041D01*
X0149732Y0175238D02*
X0161000Y0175238D01*
X0161000Y0176836D02*
X0148134Y0176836D01*
X0146535Y0178435D02*
X0161000Y0178435D01*
X0161000Y0180033D02*
X0144937Y0180033D01*
X0143338Y0181632D02*
X0161000Y0181632D01*
X0161000Y0183230D02*
X0141740Y0183230D01*
X0140600Y0184370D02*
X0139370Y0185600D01*
X0030130Y0185600D01*
X0028900Y0184370D01*
X0028900Y0177605D01*
X0028606Y0177900D01*
X0026915Y0178600D01*
X0025085Y0178600D01*
X0023394Y0177900D01*
X0022100Y0176606D01*
X0021400Y0174915D01*
X0021400Y0167085D01*
X0022100Y0165394D01*
X0023394Y0164100D01*
X0025085Y0163400D01*
X0026400Y0163400D01*
X0026400Y0096870D01*
X0023100Y0093570D01*
X0023100Y0123009D01*
X0024052Y0123961D01*
X0024600Y0125284D01*
X0024600Y0126716D01*
X0024052Y0128039D01*
X0023039Y0129052D01*
X0021716Y0129600D01*
X0020284Y0129600D01*
X0020200Y0129565D01*
X0020200Y0132740D01*
X0017740Y0135200D01*
X0014565Y0135200D01*
X0014600Y0135284D01*
X0014600Y0136716D01*
X0014565Y0136800D01*
X0017740Y0136800D01*
X0020200Y0139260D01*
X0020200Y0142740D01*
X0019246Y0143694D01*
X0019980Y0143891D01*
X0022332Y0145248D01*
X0024251Y0147168D01*
X0025609Y0149520D01*
X0026312Y0152142D01*
X0026312Y0154858D01*
X0025609Y0157480D01*
X0024251Y0159832D01*
X0022332Y0161751D01*
X0019980Y0163109D01*
X0017692Y0163722D01*
X0018606Y0164100D01*
X0019900Y0165394D01*
X0020600Y0167085D01*
X0020600Y0174915D01*
X0019900Y0176606D01*
X0018606Y0177900D01*
X0016915Y0178600D01*
X0015085Y0178600D01*
X0013394Y0177900D01*
X0012100Y0176606D01*
X0011400Y0174915D01*
X0011400Y0167085D01*
X0012100Y0165394D01*
X0013394Y0164100D01*
X0014307Y0163722D01*
X0012020Y0163109D01*
X0009668Y0161751D01*
X0007748Y0159832D01*
X0006391Y0157480D01*
X0006000Y0156021D01*
X0006000Y0186000D01*
X0161000Y0186000D01*
X0161000Y0006000D01*
X0113970Y0006000D01*
X0115600Y0007630D01*
X0115600Y0009200D01*
X0116835Y0009200D01*
X0118379Y0009839D01*
X0119561Y0011021D01*
X0120200Y0012565D01*
X0120200Y0018830D01*
X0121800Y0017230D01*
X0121800Y0012565D01*
X0122439Y0011021D01*
X0123621Y0009839D01*
X0125165Y0009200D01*
X0126835Y0009200D01*
X0128379Y0009839D01*
X0129561Y0011021D01*
X0130200Y0012565D01*
X0130200Y0019435D01*
X0129561Y0020979D01*
X0128379Y0022161D01*
X0126835Y0022800D01*
X0125165Y0022800D01*
X0123621Y0022161D01*
X0123215Y0021755D01*
X0121070Y0023900D01*
X0138891Y0023900D01*
X0139100Y0023394D01*
X0140394Y0022100D01*
X0142085Y0021400D01*
X0149915Y0021400D01*
X0151606Y0022100D01*
X0152900Y0023394D01*
X0153600Y0025085D01*
X0153600Y0026915D01*
X0152900Y0028606D01*
X0151606Y0029900D01*
X0149915Y0030600D01*
X0148100Y0030600D01*
X0148100Y0031400D01*
X0149915Y0031400D01*
X0151606Y0032100D01*
X0152900Y0033394D01*
X0153600Y0035085D01*
X0153600Y0036915D01*
X0152900Y0038606D01*
X0151606Y0039900D01*
X0149915Y0040600D01*
X0142085Y0040600D01*
X0140600Y0039985D01*
X0140600Y0042015D01*
X0142085Y0041400D01*
X0149915Y0041400D01*
X0151606Y0042100D01*
X0152900Y0043394D01*
X0153600Y0045085D01*
X0153600Y0046915D01*
X0152900Y0048606D01*
X0151606Y0049900D01*
X0149915Y0050600D01*
X0142085Y0050600D01*
X0140600Y0049985D01*
X0140600Y0052015D01*
X0142085Y0051400D01*
X0149915Y0051400D01*
X0151606Y0052100D01*
X0152900Y0053394D01*
X0153600Y0055085D01*
X0153600Y0056915D01*
X0152900Y0058606D01*
X0151606Y0059900D01*
X0149915Y0060600D01*
X0142085Y0060600D01*
X0140600Y0059985D01*
X0140600Y0062015D01*
X0142085Y0061400D01*
X0149915Y0061400D01*
X0151606Y0062100D01*
X0152900Y0063394D01*
X0153600Y0065085D01*
X0153600Y0066915D01*
X0152900Y0068606D01*
X0151606Y0069900D01*
X0149915Y0070600D01*
X0143570Y0070600D01*
X0144370Y0071400D01*
X0149915Y0071400D01*
X0151606Y0072100D01*
X0152900Y0073394D01*
X0153600Y0075085D01*
X0153600Y0076915D01*
X0152900Y0078606D01*
X0151606Y0079900D01*
X0149915Y0080600D01*
X0142085Y0080600D01*
X0140394Y0079900D01*
X0139100Y0078606D01*
X0138400Y0076915D01*
X0138400Y0075085D01*
X0139100Y0073394D01*
X0139762Y0072732D01*
X0136400Y0069370D01*
X0136400Y0036870D01*
X0134130Y0034600D01*
X0133100Y0034600D01*
X0133100Y0104370D01*
X0130670Y0106800D01*
X0132740Y0106800D01*
X0135200Y0109260D01*
X0135200Y0112740D01*
X0133100Y0114840D01*
X0133100Y0117160D01*
X0135200Y0119260D01*
X0135200Y0122740D01*
X0134040Y0123900D01*
X0138891Y0123900D01*
X0139100Y0123394D01*
X0140394Y0122100D01*
X0142085Y0121400D01*
X0143900Y0121400D01*
X0143900Y0120600D01*
X0142085Y0120600D01*
X0140394Y0119900D01*
X0139100Y0118606D01*
X0138400Y0116915D01*
X0138400Y0115085D01*
X0139100Y0113394D01*
X0140394Y0112100D01*
X0142085Y0111400D01*
X0149915Y0111400D01*
X0151400Y0112015D01*
X0151400Y0109985D01*
X0149915Y0110600D01*
X0142085Y0110600D01*
X0140394Y0109900D01*
X0139100Y0108606D01*
X0138400Y0106915D01*
X0138400Y0105085D01*
X0139100Y0103394D01*
X0140394Y0102100D01*
X0142085Y0101400D01*
X0149915Y0101400D01*
X0151400Y0102015D01*
X0151400Y0099985D01*
X0149915Y0100600D01*
X0142085Y0100600D01*
X0140394Y0099900D01*
X0139100Y0098606D01*
X0138400Y0096915D01*
X0138400Y0095085D01*
X0139100Y0093394D01*
X0140394Y0092100D01*
X0142085Y0091400D01*
X0148430Y0091400D01*
X0147630Y0090600D01*
X0142085Y0090600D01*
X0140394Y0089900D01*
X0139100Y0088606D01*
X0138400Y0086915D01*
X0138400Y0085085D01*
X0139100Y0083394D01*
X0140394Y0082100D01*
X0142085Y0081400D01*
X0149915Y0081400D01*
X0151606Y0082100D01*
X0152900Y0083394D01*
X0153600Y0085085D01*
X0153600Y0086915D01*
X0152900Y0088606D01*
X0152238Y0089268D01*
X0154370Y0091400D01*
X0155600Y0092630D01*
X0155600Y0169370D01*
X0140600Y0184370D01*
X0140141Y0184829D02*
X0161000Y0184829D01*
X0161000Y0173639D02*
X0151331Y0173639D01*
X0152929Y0172041D02*
X0161000Y0172041D01*
X0161000Y0170442D02*
X0154528Y0170442D01*
X0155600Y0168844D02*
X0161000Y0168844D01*
X0161000Y0167245D02*
X0155600Y0167245D01*
X0155600Y0165647D02*
X0161000Y0165647D01*
X0161000Y0164048D02*
X0155600Y0164048D01*
X0155600Y0162450D02*
X0161000Y0162450D01*
X0161000Y0160851D02*
X0155600Y0160851D01*
X0155600Y0159253D02*
X0161000Y0159253D01*
X0161000Y0157654D02*
X0155600Y0157654D01*
X0155600Y0156056D02*
X0161000Y0156056D01*
X0161000Y0154457D02*
X0155600Y0154457D01*
X0155600Y0152859D02*
X0161000Y0152859D01*
X0161000Y0151260D02*
X0155600Y0151260D01*
X0155600Y0149662D02*
X0161000Y0149662D01*
X0161000Y0148063D02*
X0155600Y0148063D01*
X0155600Y0146465D02*
X0161000Y0146465D01*
X0161000Y0144866D02*
X0155600Y0144866D01*
X0155600Y0143268D02*
X0161000Y0143268D01*
X0161000Y0141669D02*
X0155600Y0141669D01*
X0155600Y0140070D02*
X0161000Y0140070D01*
X0161000Y0138472D02*
X0155600Y0138472D01*
X0155600Y0136873D02*
X0161000Y0136873D01*
X0161000Y0135275D02*
X0155600Y0135275D01*
X0155600Y0133676D02*
X0161000Y0133676D01*
X0161000Y0132078D02*
X0155600Y0132078D01*
X0155600Y0130479D02*
X0161000Y0130479D01*
X0161000Y0128881D02*
X0155600Y0128881D01*
X0155600Y0127282D02*
X0161000Y0127282D01*
X0161000Y0125684D02*
X0155600Y0125684D01*
X0155600Y0124085D02*
X0161000Y0124085D01*
X0161000Y0122487D02*
X0155600Y0122487D01*
X0155600Y0120888D02*
X0161000Y0120888D01*
X0161000Y0119290D02*
X0155600Y0119290D01*
X0155600Y0117691D02*
X0161000Y0117691D01*
X0161000Y0116093D02*
X0155600Y0116093D01*
X0155600Y0114494D02*
X0161000Y0114494D01*
X0161000Y0112896D02*
X0155600Y0112896D01*
X0155600Y0111297D02*
X0161000Y0111297D01*
X0161000Y0109699D02*
X0155600Y0109699D01*
X0155600Y0108100D02*
X0161000Y0108100D01*
X0161000Y0106502D02*
X0155600Y0106502D01*
X0155600Y0104903D02*
X0161000Y0104903D01*
X0161000Y0103305D02*
X0155600Y0103305D01*
X0155600Y0101706D02*
X0161000Y0101706D01*
X0161000Y0100108D02*
X0155600Y0100108D01*
X0155600Y0098509D02*
X0161000Y0098509D01*
X0161000Y0096911D02*
X0155600Y0096911D01*
X0155600Y0095312D02*
X0161000Y0095312D01*
X0161000Y0093714D02*
X0155600Y0093714D01*
X0155085Y0092115D02*
X0161000Y0092115D01*
X0161000Y0090517D02*
X0153486Y0090517D01*
X0154370Y0091400D02*
X0154370Y0091400D01*
X0152587Y0088918D02*
X0161000Y0088918D01*
X0161000Y0087320D02*
X0153432Y0087320D01*
X0153600Y0085721D02*
X0161000Y0085721D01*
X0161000Y0084123D02*
X0153201Y0084123D01*
X0152029Y0082524D02*
X0161000Y0082524D01*
X0161000Y0080926D02*
X0133100Y0080926D01*
X0133100Y0082524D02*
X0139971Y0082524D01*
X0138799Y0084123D02*
X0133100Y0084123D01*
X0133100Y0085721D02*
X0138400Y0085721D01*
X0138568Y0087320D02*
X0133100Y0087320D01*
X0133100Y0088918D02*
X0139413Y0088918D01*
X0140379Y0092115D02*
X0133100Y0092115D01*
X0133100Y0090517D02*
X0141884Y0090517D01*
X0138968Y0093714D02*
X0133100Y0093714D01*
X0133100Y0095312D02*
X0138400Y0095312D01*
X0138400Y0096911D02*
X0133100Y0096911D01*
X0133100Y0098509D02*
X0139060Y0098509D01*
X0140897Y0100108D02*
X0133100Y0100108D01*
X0133100Y0101706D02*
X0141346Y0101706D01*
X0139190Y0103305D02*
X0133100Y0103305D01*
X0132567Y0104903D02*
X0138475Y0104903D01*
X0138400Y0106502D02*
X0130968Y0106502D01*
X0134040Y0108100D02*
X0138891Y0108100D01*
X0140193Y0109699D02*
X0135200Y0109699D01*
X0135200Y0111297D02*
X0151400Y0111297D01*
X0151400Y0119985D02*
X0149915Y0120600D01*
X0148100Y0120600D01*
X0148100Y0121400D01*
X0149915Y0121400D01*
X0151400Y0122015D01*
X0151400Y0119985D01*
X0151400Y0120888D02*
X0148100Y0120888D01*
X0143900Y0120888D02*
X0135200Y0120888D01*
X0135200Y0119290D02*
X0139784Y0119290D01*
X0138722Y0117691D02*
X0133631Y0117691D01*
X0133100Y0116093D02*
X0138400Y0116093D01*
X0138645Y0114494D02*
X0133445Y0114494D01*
X0135044Y0112896D02*
X0139599Y0112896D01*
X0140008Y0122487D02*
X0135200Y0122487D01*
X0134821Y0128881D02*
X0139376Y0128881D01*
X0141794Y0130479D02*
X0135200Y0130479D01*
X0135200Y0132078D02*
X0140448Y0132078D01*
X0138983Y0133676D02*
X0134263Y0133676D01*
X0133100Y0135275D02*
X0138400Y0135275D01*
X0138400Y0136873D02*
X0133100Y0136873D01*
X0134412Y0138472D02*
X0139045Y0138472D01*
X0140807Y0140070D02*
X0135200Y0140070D01*
X0135200Y0141669D02*
X0141436Y0141669D01*
X0139227Y0143268D02*
X0134672Y0143268D01*
X0133074Y0144866D02*
X0138491Y0144866D01*
X0138400Y0146465D02*
X0130108Y0146465D01*
X0128926Y0144866D02*
X0125104Y0144866D01*
X0126702Y0143268D02*
X0127328Y0143268D01*
X0123900Y0140130D02*
X0123900Y0138191D01*
X0123039Y0139052D01*
X0121716Y0139600D01*
X0120284Y0139600D01*
X0118961Y0139052D01*
X0118500Y0138591D01*
X0118039Y0139052D01*
X0116716Y0139600D01*
X0115284Y0139600D01*
X0113961Y0139052D01*
X0113100Y0138191D01*
X0113100Y0147160D01*
X0114985Y0149045D01*
X0115130Y0148900D01*
X0123900Y0140130D01*
X0123900Y0140070D02*
X0113100Y0140070D01*
X0113100Y0138472D02*
X0113381Y0138472D01*
X0113100Y0141669D02*
X0122361Y0141669D01*
X0120763Y0143268D02*
X0113100Y0143268D01*
X0113100Y0144866D02*
X0119164Y0144866D01*
X0117566Y0146465D02*
X0113100Y0146465D01*
X0114003Y0148063D02*
X0115967Y0148063D01*
X0110475Y0156056D02*
X0108100Y0156056D01*
X0108100Y0154457D02*
X0108517Y0154457D01*
X0108876Y0157654D02*
X0107316Y0157654D01*
X0107278Y0159253D02*
X0105717Y0159253D01*
X0111619Y0160851D02*
X0116894Y0160851D01*
X0116196Y0159253D02*
X0113217Y0159253D01*
X0114816Y0157654D02*
X0115768Y0157654D01*
X0132646Y0148063D02*
X0138876Y0148063D01*
X0140156Y0149662D02*
X0134245Y0149662D01*
X0135170Y0151260D02*
X0151400Y0151260D01*
X0151400Y0141669D02*
X0150564Y0141669D01*
X0151193Y0140070D02*
X0151400Y0140070D01*
X0151400Y0130479D02*
X0150206Y0130479D01*
X0139636Y0152859D02*
X0135834Y0152859D01*
X0136262Y0154457D02*
X0138660Y0154457D01*
X0138400Y0156056D02*
X0136312Y0156056D01*
X0136232Y0157654D02*
X0138706Y0157654D01*
X0139747Y0159253D02*
X0135804Y0159253D01*
X0135106Y0160851D02*
X0151400Y0160851D01*
X0140045Y0162450D02*
X0134133Y0162450D01*
X0135466Y0175238D02*
X0143792Y0175238D01*
X0142194Y0176836D02*
X0134669Y0176836D01*
X0132314Y0178435D02*
X0140595Y0178435D01*
X0138997Y0180033D02*
X0104937Y0180033D01*
X0106535Y0178435D02*
X0109686Y0178435D01*
X0100430Y0178600D02*
X0100085Y0178600D01*
X0098394Y0177900D01*
X0097732Y0177238D01*
X0096070Y0178900D01*
X0100130Y0178900D01*
X0100430Y0178600D01*
X0099686Y0178435D02*
X0096535Y0178435D01*
X0087015Y0176400D02*
X0086400Y0174915D01*
X0086400Y0168570D01*
X0085600Y0169370D01*
X0085600Y0174915D01*
X0084985Y0176400D01*
X0087015Y0176400D01*
X0086534Y0175238D02*
X0085466Y0175238D01*
X0085600Y0173639D02*
X0086400Y0173639D01*
X0086400Y0172041D02*
X0085600Y0172041D01*
X0085600Y0170442D02*
X0086400Y0170442D01*
X0086400Y0168844D02*
X0086126Y0168844D01*
X0084268Y0164762D02*
X0083606Y0164100D01*
X0081915Y0163400D01*
X0080085Y0163400D01*
X0078394Y0164100D01*
X0077100Y0165394D01*
X0076400Y0167085D01*
X0076400Y0174915D01*
X0077015Y0176400D01*
X0074985Y0176400D01*
X0075600Y0174915D01*
X0075600Y0167085D01*
X0074900Y0165394D01*
X0073606Y0164100D01*
X0071915Y0163400D01*
X0070085Y0163400D01*
X0068394Y0164100D01*
X0067100Y0165394D01*
X0066400Y0167085D01*
X0066400Y0174915D01*
X0067100Y0176606D01*
X0068394Y0177900D01*
X0068900Y0178109D01*
X0068900Y0178900D01*
X0055600Y0178900D01*
X0055600Y0147630D01*
X0050200Y0142230D01*
X0050200Y0140670D01*
X0056400Y0146870D01*
X0057630Y0148100D01*
X0062960Y0148100D01*
X0061800Y0149260D01*
X0061800Y0152740D01*
X0064260Y0155200D01*
X0067740Y0155200D01*
X0070200Y0152740D01*
X0070200Y0149260D01*
X0069040Y0148100D01*
X0073900Y0148100D01*
X0073900Y0154370D01*
X0076400Y0156870D01*
X0077630Y0158100D01*
X0086870Y0158100D01*
X0088100Y0156870D01*
X0088100Y0144040D01*
X0089260Y0145200D01*
X0092740Y0145200D01*
X0093900Y0144040D01*
X0093900Y0155130D01*
X0084268Y0164762D01*
X0084982Y0164048D02*
X0083480Y0164048D01*
X0086580Y0162450D02*
X0055600Y0162450D01*
X0055600Y0164048D02*
X0058520Y0164048D01*
X0058394Y0164100D02*
X0060085Y0163400D01*
X0061915Y0163400D01*
X0063606Y0164100D01*
X0064900Y0165394D01*
X0065600Y0167085D01*
X0065600Y0174915D01*
X0064900Y0176606D01*
X0063606Y0177900D01*
X0061915Y0178600D01*
X0060085Y0178600D01*
X0058394Y0177900D01*
X0057100Y0176606D01*
X0056400Y0174915D01*
X0056400Y0167085D01*
X0057100Y0165394D01*
X0058394Y0164100D01*
X0056996Y0165647D02*
X0055600Y0165647D01*
X0055600Y0167245D02*
X0056400Y0167245D01*
X0056400Y0168844D02*
X0055600Y0168844D01*
X0055600Y0170442D02*
X0056400Y0170442D01*
X0056400Y0172041D02*
X0055600Y0172041D01*
X0055600Y0173639D02*
X0056400Y0173639D01*
X0056534Y0175238D02*
X0055600Y0175238D01*
X0055600Y0176836D02*
X0057331Y0176836D01*
X0055600Y0178435D02*
X0059686Y0178435D01*
X0062314Y0178435D02*
X0068900Y0178435D01*
X0067331Y0176836D02*
X0064669Y0176836D01*
X0065466Y0175238D02*
X0066534Y0175238D01*
X0066400Y0173639D02*
X0065600Y0173639D01*
X0065600Y0172041D02*
X0066400Y0172041D01*
X0066400Y0170442D02*
X0065600Y0170442D01*
X0065600Y0168844D02*
X0066400Y0168844D01*
X0066400Y0167245D02*
X0065600Y0167245D01*
X0065004Y0165647D02*
X0066996Y0165647D01*
X0068520Y0164048D02*
X0063480Y0164048D01*
X0055600Y0160851D02*
X0088179Y0160851D01*
X0089778Y0159253D02*
X0055600Y0159253D01*
X0055600Y0157654D02*
X0077184Y0157654D01*
X0075586Y0156056D02*
X0055600Y0156056D01*
X0055600Y0154457D02*
X0063517Y0154457D01*
X0061919Y0152859D02*
X0055600Y0152859D01*
X0055600Y0151260D02*
X0061800Y0151260D01*
X0061800Y0149662D02*
X0055600Y0149662D01*
X0055600Y0148063D02*
X0057593Y0148063D01*
X0055995Y0146465D02*
X0054434Y0146465D01*
X0054396Y0144866D02*
X0052836Y0144866D01*
X0052798Y0143268D02*
X0051237Y0143268D01*
X0051199Y0141669D02*
X0050200Y0141669D01*
X0048900Y0137960D02*
X0048900Y0134040D01*
X0047740Y0135200D01*
X0044260Y0135200D01*
X0041800Y0132740D01*
X0041800Y0129770D01*
X0033900Y0121870D01*
X0033900Y0094370D01*
X0033100Y0093570D01*
X0033100Y0147960D01*
X0034260Y0146800D01*
X0037740Y0146800D01*
X0040200Y0149260D01*
X0040200Y0152740D01*
X0038100Y0154840D01*
X0038100Y0160130D01*
X0042732Y0164762D01*
X0043394Y0164100D01*
X0045085Y0163400D01*
X0046915Y0163400D01*
X0048606Y0164100D01*
X0049900Y0165394D01*
X0050600Y0167085D01*
X0050600Y0174915D01*
X0049900Y0176606D01*
X0048606Y0177900D01*
X0046915Y0178600D01*
X0045085Y0178600D01*
X0043394Y0177900D01*
X0042100Y0176606D01*
X0041400Y0174915D01*
X0041400Y0169370D01*
X0040600Y0168570D01*
X0040600Y0174915D01*
X0039900Y0176606D01*
X0038606Y0177900D01*
X0036915Y0178600D01*
X0035085Y0178600D01*
X0033394Y0177900D01*
X0033100Y0177605D01*
X0033100Y0181400D01*
X0051400Y0181400D01*
X0051400Y0149370D01*
X0047230Y0145200D01*
X0044260Y0145200D01*
X0041800Y0142740D01*
X0041800Y0139260D01*
X0044260Y0136800D01*
X0047740Y0136800D01*
X0048900Y0137960D01*
X0048900Y0136873D02*
X0047813Y0136873D01*
X0048900Y0135275D02*
X0033100Y0135275D01*
X0033100Y0136873D02*
X0044187Y0136873D01*
X0042588Y0138472D02*
X0033100Y0138472D01*
X0033100Y0140070D02*
X0041800Y0140070D01*
X0041800Y0141669D02*
X0033100Y0141669D01*
X0033100Y0143268D02*
X0042328Y0143268D01*
X0043926Y0144866D02*
X0033100Y0144866D01*
X0033100Y0146465D02*
X0048495Y0146465D01*
X0050093Y0148063D02*
X0039003Y0148063D01*
X0040200Y0149662D02*
X0051400Y0149662D01*
X0051400Y0151260D02*
X0040200Y0151260D01*
X0040081Y0152859D02*
X0051400Y0152859D01*
X0051400Y0154457D02*
X0038483Y0154457D01*
X0038100Y0156056D02*
X0051400Y0156056D01*
X0051400Y0157654D02*
X0038100Y0157654D01*
X0038100Y0159253D02*
X0051400Y0159253D01*
X0051400Y0160851D02*
X0038821Y0160851D01*
X0040419Y0162450D02*
X0051400Y0162450D01*
X0051400Y0164048D02*
X0048480Y0164048D01*
X0050004Y0165647D02*
X0051400Y0165647D01*
X0051400Y0167245D02*
X0050600Y0167245D01*
X0050600Y0168844D02*
X0051400Y0168844D01*
X0051400Y0170442D02*
X0050600Y0170442D01*
X0050600Y0172041D02*
X0051400Y0172041D01*
X0051400Y0173639D02*
X0050600Y0173639D01*
X0050466Y0175238D02*
X0051400Y0175238D01*
X0051400Y0176836D02*
X0049669Y0176836D01*
X0051400Y0178435D02*
X0047314Y0178435D01*
X0044686Y0178435D02*
X0037314Y0178435D01*
X0034686Y0178435D02*
X0033100Y0178435D01*
X0033100Y0180033D02*
X0051400Y0180033D01*
X0042331Y0176836D02*
X0039669Y0176836D01*
X0040466Y0175238D02*
X0041534Y0175238D01*
X0041400Y0173639D02*
X0040600Y0173639D01*
X0040600Y0172041D02*
X0041400Y0172041D01*
X0041400Y0170442D02*
X0040600Y0170442D01*
X0040600Y0168844D02*
X0040874Y0168844D01*
X0042018Y0164048D02*
X0043520Y0164048D01*
X0035430Y0163400D02*
X0035130Y0163100D01*
X0033900Y0161870D01*
X0033900Y0154840D01*
X0033100Y0154040D01*
X0033100Y0164395D01*
X0033394Y0164100D01*
X0035085Y0163400D01*
X0035430Y0163400D01*
X0034480Y0162450D02*
X0033100Y0162450D01*
X0033100Y0164048D02*
X0033520Y0164048D01*
X0033900Y0160851D02*
X0033100Y0160851D01*
X0033100Y0159253D02*
X0033900Y0159253D01*
X0033900Y0157654D02*
X0033100Y0157654D01*
X0033100Y0156056D02*
X0033900Y0156056D01*
X0033517Y0154457D02*
X0033100Y0154457D01*
X0026400Y0154457D02*
X0026312Y0154457D01*
X0026312Y0152859D02*
X0026400Y0152859D01*
X0026400Y0151260D02*
X0026075Y0151260D01*
X0026400Y0149662D02*
X0025647Y0149662D01*
X0026400Y0148063D02*
X0024768Y0148063D01*
X0023548Y0146465D02*
X0026400Y0146465D01*
X0026400Y0144866D02*
X0021669Y0144866D01*
X0019672Y0143268D02*
X0026400Y0143268D01*
X0026400Y0141669D02*
X0020200Y0141669D01*
X0020200Y0140070D02*
X0026400Y0140070D01*
X0026400Y0138472D02*
X0019412Y0138472D01*
X0017813Y0136873D02*
X0026400Y0136873D01*
X0026400Y0135275D02*
X0014596Y0135275D01*
X0011800Y0132435D02*
X0011800Y0129770D01*
X0008100Y0126070D01*
X0008100Y0130130D01*
X0010370Y0132400D01*
X0011716Y0132400D01*
X0011800Y0132435D01*
X0011800Y0132078D02*
X0010048Y0132078D01*
X0008449Y0130479D02*
X0011800Y0130479D01*
X0010911Y0128881D02*
X0008100Y0128881D01*
X0008100Y0127282D02*
X0009313Y0127282D01*
X0012055Y0124085D02*
X0013146Y0124085D01*
X0014260Y0125200D02*
X0011800Y0122740D01*
X0011800Y0119260D01*
X0014260Y0116800D01*
X0017740Y0116800D01*
X0018900Y0117960D01*
X0018900Y0114040D01*
X0017740Y0115200D01*
X0014260Y0115200D01*
X0011800Y0112740D01*
X0011800Y0109260D01*
X0014260Y0106800D01*
X0017740Y0106800D01*
X0018900Y0107960D01*
X0018900Y0104040D01*
X0017740Y0105200D01*
X0014260Y0105200D01*
X0011800Y0102740D01*
X0011800Y0099770D01*
X0010600Y0098570D01*
X0010600Y0122630D01*
X0014770Y0126800D01*
X0017435Y0126800D01*
X0017400Y0126716D01*
X0017400Y0125284D01*
X0017435Y0125200D01*
X0014260Y0125200D01*
X0013654Y0125684D02*
X0017400Y0125684D01*
X0020200Y0130479D02*
X0026400Y0130479D01*
X0026400Y0128881D02*
X0023210Y0128881D01*
X0024365Y0127282D02*
X0026400Y0127282D01*
X0026400Y0125684D02*
X0024600Y0125684D01*
X0024104Y0124085D02*
X0026400Y0124085D01*
X0026400Y0122487D02*
X0023100Y0122487D01*
X0023100Y0120888D02*
X0026400Y0120888D01*
X0026400Y0119290D02*
X0023100Y0119290D01*
X0023100Y0117691D02*
X0026400Y0117691D01*
X0026400Y0116093D02*
X0023100Y0116093D01*
X0023100Y0114494D02*
X0026400Y0114494D01*
X0026400Y0112896D02*
X0023100Y0112896D01*
X0023100Y0111297D02*
X0026400Y0111297D01*
X0026400Y0109699D02*
X0023100Y0109699D01*
X0023100Y0108100D02*
X0026400Y0108100D01*
X0026400Y0106502D02*
X0023100Y0106502D01*
X0023100Y0104903D02*
X0026400Y0104903D01*
X0026400Y0103305D02*
X0023100Y0103305D01*
X0023100Y0101706D02*
X0026400Y0101706D01*
X0026400Y0100108D02*
X0023100Y0100108D01*
X0023100Y0098509D02*
X0026400Y0098509D01*
X0026400Y0096911D02*
X0023100Y0096911D01*
X0023100Y0095312D02*
X0024842Y0095312D01*
X0023244Y0093714D02*
X0023100Y0093714D01*
X0018900Y0094040D02*
X0018900Y0097960D01*
X0017740Y0096800D01*
X0014770Y0096800D01*
X0013100Y0095130D01*
X0013100Y0094040D01*
X0014260Y0095200D01*
X0017740Y0095200D01*
X0018900Y0094040D01*
X0018900Y0095312D02*
X0013282Y0095312D01*
X0011800Y0100108D02*
X0010600Y0100108D01*
X0010600Y0101706D02*
X0011800Y0101706D01*
X0012365Y0103305D02*
X0010600Y0103305D01*
X0010600Y0104903D02*
X0013964Y0104903D01*
X0012960Y0108100D02*
X0010600Y0108100D01*
X0010600Y0106502D02*
X0018900Y0106502D01*
X0018900Y0104903D02*
X0018036Y0104903D01*
X0011800Y0109699D02*
X0010600Y0109699D01*
X0010600Y0111297D02*
X0011800Y0111297D01*
X0011956Y0112896D02*
X0010600Y0112896D01*
X0010600Y0114494D02*
X0013555Y0114494D01*
X0013369Y0117691D02*
X0010600Y0117691D01*
X0010600Y0116093D02*
X0018900Y0116093D01*
X0018900Y0117691D02*
X0018631Y0117691D01*
X0018445Y0114494D02*
X0018900Y0114494D01*
X0011800Y0119290D02*
X0010600Y0119290D01*
X0010600Y0120888D02*
X0011800Y0120888D01*
X0011800Y0122487D02*
X0010600Y0122487D01*
X0020200Y0132078D02*
X0026400Y0132078D01*
X0026400Y0133676D02*
X0019263Y0133676D01*
X0011800Y0139565D02*
X0011800Y0142740D01*
X0012754Y0143694D01*
X0012020Y0143891D01*
X0009668Y0145248D01*
X0007748Y0147168D01*
X0006391Y0149520D01*
X0006000Y0150979D01*
X0006000Y0133970D01*
X0007400Y0135370D01*
X0007400Y0136716D01*
X0007948Y0138039D01*
X0008961Y0139052D01*
X0010284Y0139600D01*
X0011716Y0139600D01*
X0011800Y0139565D01*
X0011800Y0140070D02*
X0006000Y0140070D01*
X0006000Y0138472D02*
X0008381Y0138472D01*
X0007465Y0136873D02*
X0006000Y0136873D01*
X0006000Y0135275D02*
X0007305Y0135275D01*
X0006000Y0141669D02*
X0011800Y0141669D01*
X0012328Y0143268D02*
X0006000Y0143268D01*
X0006000Y0144866D02*
X0010331Y0144866D01*
X0008452Y0146465D02*
X0006000Y0146465D01*
X0006000Y0148063D02*
X0007232Y0148063D01*
X0006353Y0149662D02*
X0006000Y0149662D01*
X0006000Y0156056D02*
X0006009Y0156056D01*
X0006000Y0157654D02*
X0006491Y0157654D01*
X0006000Y0159253D02*
X0007414Y0159253D01*
X0008768Y0160851D02*
X0006000Y0160851D01*
X0006000Y0162450D02*
X0010878Y0162450D01*
X0013520Y0164048D02*
X0006000Y0164048D01*
X0006000Y0165647D02*
X0011996Y0165647D01*
X0011400Y0167245D02*
X0006000Y0167245D01*
X0006000Y0168844D02*
X0011400Y0168844D01*
X0011400Y0170442D02*
X0006000Y0170442D01*
X0006000Y0172041D02*
X0011400Y0172041D01*
X0011400Y0173639D02*
X0006000Y0173639D01*
X0006000Y0175238D02*
X0011534Y0175238D01*
X0012331Y0176836D02*
X0006000Y0176836D01*
X0006000Y0178435D02*
X0014686Y0178435D01*
X0017314Y0178435D02*
X0024686Y0178435D01*
X0022331Y0176836D02*
X0019669Y0176836D01*
X0020466Y0175238D02*
X0021534Y0175238D01*
X0021400Y0173639D02*
X0020600Y0173639D01*
X0020600Y0172041D02*
X0021400Y0172041D01*
X0021400Y0170442D02*
X0020600Y0170442D01*
X0020600Y0168844D02*
X0021400Y0168844D01*
X0021400Y0167245D02*
X0020600Y0167245D01*
X0020004Y0165647D02*
X0021996Y0165647D01*
X0023520Y0164048D02*
X0018480Y0164048D01*
X0021122Y0162450D02*
X0026400Y0162450D01*
X0026400Y0160851D02*
X0023232Y0160851D01*
X0024586Y0159253D02*
X0026400Y0159253D01*
X0026400Y0157654D02*
X0025509Y0157654D01*
X0025991Y0156056D02*
X0026400Y0156056D01*
X0027314Y0178435D02*
X0028900Y0178435D01*
X0028900Y0180033D02*
X0006000Y0180033D01*
X0006000Y0181632D02*
X0028900Y0181632D01*
X0028900Y0183230D02*
X0006000Y0183230D01*
X0006000Y0184829D02*
X0029359Y0184829D01*
X0064040Y0143900D02*
X0076870Y0143900D01*
X0078100Y0145130D01*
X0078100Y0147960D01*
X0078900Y0147160D01*
X0078900Y0135691D01*
X0078039Y0136552D01*
X0076716Y0137100D01*
X0075284Y0137100D01*
X0073961Y0136552D01*
X0072948Y0135539D01*
X0072400Y0134216D01*
X0072400Y0132870D01*
X0065130Y0125600D01*
X0063900Y0124370D01*
X0063900Y0124040D01*
X0062740Y0125200D01*
X0059260Y0125200D01*
X0056800Y0122740D01*
X0056800Y0119770D01*
X0055600Y0118570D01*
X0055600Y0122630D01*
X0059770Y0126800D01*
X0062740Y0126800D01*
X0065200Y0129260D01*
X0065200Y0132740D01*
X0062740Y0135200D01*
X0059260Y0135200D01*
X0056800Y0132740D01*
X0056800Y0129770D01*
X0053100Y0126070D01*
X0053100Y0137630D01*
X0056800Y0141330D01*
X0056800Y0139260D01*
X0059260Y0136800D01*
X0062740Y0136800D01*
X0065200Y0139260D01*
X0065200Y0142740D01*
X0064040Y0143900D01*
X0064672Y0143268D02*
X0078900Y0143268D01*
X0078900Y0144866D02*
X0077836Y0144866D01*
X0078100Y0146465D02*
X0078900Y0146465D01*
X0083100Y0146465D02*
X0083900Y0146465D01*
X0083900Y0144866D02*
X0083100Y0144866D01*
X0083100Y0143268D02*
X0083900Y0143268D01*
X0083900Y0141669D02*
X0083100Y0141669D01*
X0083100Y0140070D02*
X0083900Y0140070D01*
X0083900Y0138472D02*
X0083100Y0138472D01*
X0083100Y0136873D02*
X0083900Y0136873D01*
X0083900Y0135275D02*
X0083100Y0135275D01*
X0083100Y0133676D02*
X0085354Y0133676D01*
X0086800Y0132078D02*
X0083100Y0132078D01*
X0083100Y0130479D02*
X0086800Y0130479D01*
X0087179Y0128881D02*
X0083100Y0128881D01*
X0083100Y0127282D02*
X0088778Y0127282D01*
X0088146Y0124085D02*
X0083100Y0124085D01*
X0083100Y0122487D02*
X0086800Y0122487D01*
X0086800Y0120888D02*
X0083100Y0120888D01*
X0083100Y0119290D02*
X0086800Y0119290D01*
X0083100Y0125684D02*
X0093346Y0125684D01*
X0093854Y0124085D02*
X0093900Y0124085D01*
X0098100Y0124085D02*
X0098146Y0124085D01*
X0098100Y0124040D02*
X0098100Y0126870D01*
X0095200Y0129770D01*
X0095200Y0132740D01*
X0092740Y0135200D01*
X0089770Y0135200D01*
X0088100Y0136870D01*
X0088100Y0137960D01*
X0089260Y0136800D01*
X0092740Y0136800D01*
X0093900Y0137960D01*
X0093900Y0135130D01*
X0095130Y0133900D01*
X0096800Y0132230D01*
X0096800Y0129260D01*
X0099260Y0126800D01*
X0102740Y0126800D01*
X0103900Y0127960D01*
X0103900Y0126870D01*
X0102230Y0125200D01*
X0099260Y0125200D01*
X0098100Y0124040D01*
X0098100Y0125684D02*
X0102714Y0125684D01*
X0103222Y0127282D02*
X0103900Y0127282D01*
X0098778Y0127282D02*
X0097687Y0127282D01*
X0097179Y0128881D02*
X0096089Y0128881D01*
X0096800Y0130479D02*
X0095200Y0130479D01*
X0095200Y0132078D02*
X0096800Y0132078D01*
X0095354Y0133676D02*
X0094263Y0133676D01*
X0093900Y0135275D02*
X0089695Y0135275D01*
X0089187Y0136873D02*
X0088100Y0136873D01*
X0092813Y0136873D02*
X0093900Y0136873D01*
X0098100Y0136873D02*
X0099187Y0136873D01*
X0099260Y0136800D02*
X0102740Y0136800D01*
X0103900Y0137960D01*
X0103900Y0134040D01*
X0102740Y0135200D01*
X0099770Y0135200D01*
X0098100Y0136870D01*
X0098100Y0137960D01*
X0099260Y0136800D01*
X0099695Y0135275D02*
X0103900Y0135275D01*
X0103900Y0136873D02*
X0102813Y0136873D01*
X0093900Y0144866D02*
X0093074Y0144866D01*
X0093900Y0146465D02*
X0088100Y0146465D01*
X0088100Y0148063D02*
X0093900Y0148063D01*
X0093900Y0149662D02*
X0088100Y0149662D01*
X0088100Y0151260D02*
X0093900Y0151260D01*
X0093900Y0152859D02*
X0088100Y0152859D01*
X0088100Y0154457D02*
X0093900Y0154457D01*
X0092975Y0156056D02*
X0088100Y0156056D01*
X0087316Y0157654D02*
X0091376Y0157654D01*
X0088926Y0144866D02*
X0088100Y0144866D01*
X0078900Y0141669D02*
X0065200Y0141669D01*
X0065200Y0140070D02*
X0078900Y0140070D01*
X0078900Y0138472D02*
X0064412Y0138472D01*
X0062813Y0136873D02*
X0074737Y0136873D01*
X0072839Y0135275D02*
X0053100Y0135275D01*
X0053100Y0136873D02*
X0059187Y0136873D01*
X0057588Y0138472D02*
X0053942Y0138472D01*
X0055540Y0140070D02*
X0056800Y0140070D01*
X0057737Y0133676D02*
X0053100Y0133676D01*
X0053100Y0132078D02*
X0056800Y0132078D01*
X0056800Y0130479D02*
X0053100Y0130479D01*
X0053100Y0128881D02*
X0055911Y0128881D01*
X0054313Y0127282D02*
X0053100Y0127282D01*
X0057055Y0124085D02*
X0058146Y0124085D01*
X0058654Y0125684D02*
X0065214Y0125684D01*
X0063900Y0124085D02*
X0063854Y0124085D01*
X0063222Y0127282D02*
X0066813Y0127282D01*
X0068411Y0128881D02*
X0064821Y0128881D01*
X0065200Y0130479D02*
X0070010Y0130479D01*
X0071608Y0132078D02*
X0065200Y0132078D01*
X0064263Y0133676D02*
X0072400Y0133676D01*
X0075370Y0129900D02*
X0076716Y0129900D01*
X0078039Y0130448D01*
X0078900Y0131309D01*
X0078900Y0086070D01*
X0065200Y0099770D01*
X0065200Y0102740D01*
X0062740Y0105200D01*
X0059260Y0105200D01*
X0058100Y0104040D01*
X0058100Y0107960D01*
X0059260Y0106800D01*
X0062740Y0106800D01*
X0065200Y0109260D01*
X0065200Y0112230D01*
X0068100Y0115130D01*
X0068100Y0122630D01*
X0075370Y0129900D01*
X0074351Y0128881D02*
X0078900Y0128881D01*
X0078900Y0130479D02*
X0078071Y0130479D01*
X0078900Y0127282D02*
X0072752Y0127282D01*
X0071154Y0125684D02*
X0078900Y0125684D01*
X0078900Y0124085D02*
X0069555Y0124085D01*
X0068100Y0122487D02*
X0078900Y0122487D01*
X0078900Y0120888D02*
X0068100Y0120888D01*
X0068100Y0119290D02*
X0078900Y0119290D01*
X0078900Y0117691D02*
X0068100Y0117691D01*
X0068100Y0116093D02*
X0078900Y0116093D01*
X0078900Y0114494D02*
X0067464Y0114494D01*
X0065866Y0112896D02*
X0078900Y0112896D01*
X0078900Y0111297D02*
X0065200Y0111297D01*
X0065200Y0109699D02*
X0078900Y0109699D01*
X0078900Y0108100D02*
X0064040Y0108100D01*
X0063036Y0104903D02*
X0078900Y0104903D01*
X0078900Y0103305D02*
X0064635Y0103305D01*
X0065200Y0101706D02*
X0078900Y0101706D01*
X0078900Y0100108D02*
X0065200Y0100108D01*
X0066461Y0098509D02*
X0078900Y0098509D01*
X0078900Y0096911D02*
X0068059Y0096911D01*
X0069658Y0095312D02*
X0078900Y0095312D01*
X0078900Y0093714D02*
X0071256Y0093714D01*
X0072855Y0092115D02*
X0078900Y0092115D01*
X0078900Y0090517D02*
X0074453Y0090517D01*
X0076052Y0088918D02*
X0078900Y0088918D01*
X0078900Y0087320D02*
X0077650Y0087320D01*
X0074908Y0084123D02*
X0065847Y0084123D01*
X0064249Y0085721D02*
X0073309Y0085721D01*
X0071711Y0087320D02*
X0063259Y0087320D01*
X0062955Y0087015D02*
X0065200Y0089260D01*
X0065200Y0092740D01*
X0062740Y0095200D01*
X0059260Y0095200D01*
X0058100Y0094040D01*
X0058100Y0097960D01*
X0059260Y0096800D01*
X0062230Y0096800D01*
X0076400Y0082630D01*
X0076400Y0066491D01*
X0075448Y0065539D01*
X0074900Y0064216D01*
X0074900Y0062784D01*
X0075448Y0061461D01*
X0076461Y0060448D01*
X0077784Y0059900D01*
X0079216Y0059900D01*
X0080539Y0060448D01*
X0081400Y0061309D01*
X0081400Y0042630D01*
X0082630Y0041400D01*
X0085245Y0038785D01*
X0084839Y0038379D01*
X0084200Y0036835D01*
X0084200Y0035165D01*
X0084839Y0033621D01*
X0085360Y0033100D01*
X0076491Y0033100D01*
X0075539Y0034052D01*
X0074216Y0034600D01*
X0072784Y0034600D01*
X0071461Y0034052D01*
X0070600Y0033191D01*
X0070600Y0079370D01*
X0063100Y0086870D01*
X0062955Y0087015D01*
X0064858Y0088918D02*
X0070112Y0088918D01*
X0068514Y0090517D02*
X0065200Y0090517D01*
X0065200Y0092115D02*
X0066915Y0092115D01*
X0065316Y0093714D02*
X0064226Y0093714D01*
X0063718Y0095312D02*
X0058100Y0095312D01*
X0058100Y0096911D02*
X0059150Y0096911D01*
X0058964Y0104903D02*
X0058100Y0104903D01*
X0058100Y0106502D02*
X0078900Y0106502D01*
X0083100Y0104903D02*
X0088964Y0104903D01*
X0087365Y0103305D02*
X0083100Y0103305D01*
X0083100Y0101706D02*
X0086800Y0101706D01*
X0086800Y0100108D02*
X0083100Y0100108D01*
X0083100Y0098509D02*
X0083418Y0098509D01*
X0089565Y0096800D02*
X0092740Y0096800D01*
X0093900Y0097960D01*
X0093900Y0094040D01*
X0092740Y0095200D01*
X0089565Y0095200D01*
X0089600Y0095284D01*
X0089600Y0096716D01*
X0089565Y0096800D01*
X0089600Y0095312D02*
X0093900Y0095312D01*
X0093900Y0096911D02*
X0092850Y0096911D01*
X0086800Y0092435D02*
X0086800Y0089260D01*
X0089260Y0086800D01*
X0092740Y0086800D01*
X0093900Y0087960D01*
X0093900Y0080200D01*
X0087565Y0080200D01*
X0086021Y0079561D01*
X0085600Y0079140D01*
X0085600Y0092400D01*
X0086716Y0092400D01*
X0086800Y0092435D01*
X0086800Y0092115D02*
X0085600Y0092115D01*
X0085600Y0090517D02*
X0086800Y0090517D01*
X0087142Y0088918D02*
X0085600Y0088918D01*
X0085600Y0087320D02*
X0088741Y0087320D01*
X0085600Y0085721D02*
X0093900Y0085721D01*
X0093900Y0084123D02*
X0085600Y0084123D01*
X0085600Y0082524D02*
X0093900Y0082524D01*
X0093900Y0080926D02*
X0085600Y0080926D01*
X0085600Y0079327D02*
X0085787Y0079327D01*
X0088170Y0071800D02*
X0092230Y0071800D01*
X0093830Y0070200D01*
X0089770Y0070200D01*
X0088170Y0071800D01*
X0088635Y0071334D02*
X0092696Y0071334D01*
X0085245Y0068785D02*
X0084839Y0068379D01*
X0084200Y0066835D01*
X0084200Y0065770D01*
X0083100Y0066870D01*
X0083100Y0070930D01*
X0085245Y0068785D01*
X0084739Y0068137D02*
X0083100Y0068137D01*
X0083100Y0069736D02*
X0084294Y0069736D01*
X0084200Y0066539D02*
X0083431Y0066539D01*
X0088170Y0061800D02*
X0094435Y0061800D01*
X0095979Y0062439D01*
X0096400Y0062860D01*
X0096400Y0059140D01*
X0095979Y0059561D01*
X0094435Y0060200D01*
X0089770Y0060200D01*
X0088170Y0061800D01*
X0088226Y0061743D02*
X0096400Y0061743D01*
X0096400Y0060145D02*
X0094568Y0060145D01*
X0096400Y0052860D02*
X0096400Y0049140D01*
X0095979Y0049561D01*
X0094435Y0050200D01*
X0087565Y0050200D01*
X0086021Y0049561D01*
X0085600Y0049140D01*
X0085600Y0052860D01*
X0086021Y0052439D01*
X0087565Y0051800D01*
X0094435Y0051800D01*
X0095979Y0052439D01*
X0096400Y0052860D01*
X0096400Y0052152D02*
X0095286Y0052152D01*
X0096400Y0050554D02*
X0085600Y0050554D01*
X0085600Y0052152D02*
X0086714Y0052152D01*
X0081400Y0052152D02*
X0070600Y0052152D01*
X0070600Y0050554D02*
X0081400Y0050554D01*
X0081400Y0048955D02*
X0070600Y0048955D01*
X0070600Y0047357D02*
X0081400Y0047357D01*
X0081400Y0045758D02*
X0070600Y0045758D01*
X0070600Y0044160D02*
X0081400Y0044160D01*
X0081469Y0042561D02*
X0070600Y0042561D01*
X0070600Y0040963D02*
X0083067Y0040963D01*
X0084666Y0039364D02*
X0070600Y0039364D01*
X0070600Y0037766D02*
X0084585Y0037766D01*
X0084200Y0036167D02*
X0070600Y0036167D01*
X0070600Y0034569D02*
X0072708Y0034569D01*
X0074292Y0034569D02*
X0084447Y0034569D01*
X0089770Y0040200D02*
X0088170Y0041800D01*
X0094435Y0041800D01*
X0095979Y0042439D01*
X0096400Y0042860D01*
X0096400Y0039140D01*
X0095979Y0039561D01*
X0094435Y0040200D01*
X0089770Y0040200D01*
X0089007Y0040963D02*
X0096400Y0040963D01*
X0096400Y0042561D02*
X0096101Y0042561D01*
X0096175Y0039364D02*
X0096400Y0039364D01*
X0108100Y0034724D02*
X0108100Y0028100D01*
X0131309Y0028100D01*
X0130448Y0028961D01*
X0129900Y0030284D01*
X0129900Y0031400D01*
X0122630Y0031400D01*
X0121400Y0032630D01*
X0118785Y0035245D01*
X0118379Y0034839D01*
X0116835Y0034200D01*
X0115165Y0034200D01*
X0113621Y0034839D01*
X0112439Y0036021D01*
X0111800Y0037565D01*
X0111800Y0044435D01*
X0112050Y0045038D01*
X0111716Y0044900D01*
X0110284Y0044900D01*
X0109950Y0045038D01*
X0110200Y0044435D01*
X0110200Y0037565D01*
X0109561Y0036021D01*
X0108379Y0034839D01*
X0108100Y0034724D01*
X0108100Y0034569D02*
X0114274Y0034569D01*
X0112379Y0036167D02*
X0109621Y0036167D01*
X0110200Y0037766D02*
X0111800Y0037766D01*
X0111800Y0039364D02*
X0110200Y0039364D01*
X0110200Y0040963D02*
X0111800Y0040963D01*
X0111800Y0042561D02*
X0110200Y0042561D01*
X0110200Y0044160D02*
X0111800Y0044160D01*
X0114491Y0047521D02*
X0114600Y0047784D01*
X0114600Y0049216D01*
X0114052Y0050539D01*
X0113100Y0051491D01*
X0113100Y0060360D01*
X0113621Y0059839D01*
X0115165Y0059200D01*
X0116835Y0059200D01*
X0118379Y0059839D01*
X0118900Y0060360D01*
X0118900Y0046640D01*
X0118379Y0047161D01*
X0116835Y0047800D01*
X0115165Y0047800D01*
X0114491Y0047521D01*
X0114600Y0048955D02*
X0118900Y0048955D01*
X0118900Y0047357D02*
X0117905Y0047357D01*
X0118900Y0050554D02*
X0114037Y0050554D01*
X0113100Y0052152D02*
X0118900Y0052152D01*
X0118900Y0053751D02*
X0113100Y0053751D01*
X0113100Y0055349D02*
X0118900Y0055349D01*
X0118900Y0056948D02*
X0113100Y0056948D01*
X0113100Y0058546D02*
X0118900Y0058546D01*
X0118900Y0060145D02*
X0118685Y0060145D01*
X0123100Y0060145D02*
X0123315Y0060145D01*
X0123100Y0060360D02*
X0123621Y0059839D01*
X0125165Y0059200D01*
X0126835Y0059200D01*
X0128379Y0059839D01*
X0128900Y0060360D01*
X0128900Y0046640D01*
X0128379Y0047161D01*
X0126835Y0047800D01*
X0125165Y0047800D01*
X0123621Y0047161D01*
X0123215Y0046755D01*
X0123100Y0046870D01*
X0123100Y0060360D01*
X0123100Y0058546D02*
X0128900Y0058546D01*
X0128900Y0056948D02*
X0123100Y0056948D01*
X0123100Y0055349D02*
X0128900Y0055349D01*
X0128900Y0053751D02*
X0123100Y0053751D01*
X0123100Y0052152D02*
X0128900Y0052152D01*
X0128900Y0050554D02*
X0123100Y0050554D01*
X0123100Y0048955D02*
X0128900Y0048955D01*
X0128900Y0047357D02*
X0127905Y0047357D01*
X0124095Y0047357D02*
X0123100Y0047357D01*
X0120200Y0043830D02*
X0120200Y0039770D01*
X0121800Y0038170D01*
X0121800Y0042230D01*
X0120200Y0043830D01*
X0120200Y0042561D02*
X0121469Y0042561D01*
X0121800Y0040963D02*
X0120200Y0040963D01*
X0120606Y0039364D02*
X0121800Y0039364D01*
X0119461Y0034569D02*
X0117726Y0034569D01*
X0121060Y0032970D02*
X0108100Y0032970D01*
X0108100Y0031372D02*
X0129900Y0031372D01*
X0130112Y0029773D02*
X0108100Y0029773D01*
X0108100Y0028175D02*
X0131234Y0028175D01*
X0135691Y0028100D02*
X0136552Y0028961D01*
X0137100Y0030284D01*
X0137100Y0031630D01*
X0139031Y0033561D01*
X0139100Y0033394D01*
X0140394Y0032100D01*
X0142085Y0031400D01*
X0143900Y0031400D01*
X0143900Y0030600D01*
X0142085Y0030600D01*
X0140394Y0029900D01*
X0139100Y0028606D01*
X0138891Y0028100D01*
X0135691Y0028100D01*
X0135766Y0028175D02*
X0138922Y0028175D01*
X0140268Y0029773D02*
X0136888Y0029773D01*
X0137100Y0031372D02*
X0143900Y0031372D01*
X0148100Y0031372D02*
X0161000Y0031372D01*
X0161000Y0032970D02*
X0152476Y0032970D01*
X0153386Y0034569D02*
X0161000Y0034569D01*
X0161000Y0036167D02*
X0153600Y0036167D01*
X0153248Y0037766D02*
X0161000Y0037766D01*
X0161000Y0039364D02*
X0152141Y0039364D01*
X0152067Y0042561D02*
X0161000Y0042561D01*
X0161000Y0040963D02*
X0140600Y0040963D01*
X0136400Y0040963D02*
X0133100Y0040963D01*
X0133100Y0042561D02*
X0136400Y0042561D01*
X0136400Y0044160D02*
X0133100Y0044160D01*
X0133100Y0045758D02*
X0136400Y0045758D01*
X0136400Y0047357D02*
X0133100Y0047357D01*
X0133100Y0048955D02*
X0136400Y0048955D01*
X0136400Y0050554D02*
X0133100Y0050554D01*
X0133100Y0052152D02*
X0136400Y0052152D01*
X0136400Y0053751D02*
X0133100Y0053751D01*
X0133100Y0055349D02*
X0136400Y0055349D01*
X0136400Y0056948D02*
X0133100Y0056948D01*
X0133100Y0058546D02*
X0136400Y0058546D01*
X0136400Y0060145D02*
X0133100Y0060145D01*
X0133100Y0061743D02*
X0136400Y0061743D01*
X0136400Y0063342D02*
X0133100Y0063342D01*
X0133100Y0064940D02*
X0136400Y0064940D01*
X0136400Y0066539D02*
X0133100Y0066539D01*
X0133100Y0068137D02*
X0136400Y0068137D01*
X0136766Y0069736D02*
X0133100Y0069736D01*
X0133100Y0071334D02*
X0138365Y0071334D01*
X0139562Y0072933D02*
X0133100Y0072933D01*
X0133100Y0074532D02*
X0138629Y0074532D01*
X0138400Y0076130D02*
X0133100Y0076130D01*
X0133100Y0077729D02*
X0138737Y0077729D01*
X0139822Y0079327D02*
X0133100Y0079327D01*
X0128900Y0079327D02*
X0123100Y0079327D01*
X0123100Y0077729D02*
X0128900Y0077729D01*
X0128900Y0076130D02*
X0123100Y0076130D01*
X0123100Y0074532D02*
X0128900Y0074532D01*
X0128900Y0072933D02*
X0123100Y0072933D01*
X0123621Y0072161D02*
X0123100Y0071640D01*
X0123100Y0085360D01*
X0123621Y0084839D01*
X0125165Y0084200D01*
X0126835Y0084200D01*
X0128379Y0084839D01*
X0128900Y0085360D01*
X0128900Y0071640D01*
X0128379Y0072161D01*
X0126835Y0072800D01*
X0125165Y0072800D01*
X0123621Y0072161D01*
X0118900Y0071640D02*
X0118379Y0072161D01*
X0116835Y0072800D01*
X0115165Y0072800D01*
X0113621Y0072161D01*
X0113100Y0071640D01*
X0113100Y0076309D01*
X0113961Y0075448D01*
X0115284Y0074900D01*
X0116716Y0074900D01*
X0118039Y0075448D01*
X0118900Y0076309D01*
X0118900Y0071640D01*
X0118900Y0072933D02*
X0113100Y0072933D01*
X0113100Y0074532D02*
X0118900Y0074532D01*
X0118900Y0076130D02*
X0118721Y0076130D01*
X0118900Y0080691D02*
X0118100Y0081491D01*
X0118100Y0084724D01*
X0118379Y0084839D01*
X0118900Y0085360D01*
X0118900Y0080691D01*
X0118900Y0080926D02*
X0118666Y0080926D01*
X0118900Y0082524D02*
X0118100Y0082524D01*
X0118100Y0084123D02*
X0118900Y0084123D01*
X0123100Y0084123D02*
X0128900Y0084123D01*
X0128900Y0082524D02*
X0123100Y0082524D01*
X0123100Y0080926D02*
X0128900Y0080926D01*
X0128900Y0096640D02*
X0128379Y0097161D01*
X0126835Y0097800D01*
X0125165Y0097800D01*
X0123621Y0097161D01*
X0123100Y0096640D01*
X0123100Y0133009D01*
X0123900Y0133809D01*
X0123900Y0107630D01*
X0125130Y0106400D01*
X0128900Y0102630D01*
X0128900Y0096640D01*
X0128900Y0096911D02*
X0128629Y0096911D01*
X0128900Y0098509D02*
X0123100Y0098509D01*
X0123100Y0096911D02*
X0123371Y0096911D01*
X0123100Y0100108D02*
X0128900Y0100108D01*
X0128900Y0101706D02*
X0123100Y0101706D01*
X0123100Y0103305D02*
X0128225Y0103305D01*
X0126627Y0104903D02*
X0123100Y0104903D01*
X0123100Y0106502D02*
X0125028Y0106502D01*
X0123900Y0108100D02*
X0123100Y0108100D01*
X0123100Y0109699D02*
X0123900Y0109699D01*
X0123900Y0111297D02*
X0123100Y0111297D01*
X0123100Y0112896D02*
X0123900Y0112896D01*
X0123900Y0114494D02*
X0123100Y0114494D01*
X0123100Y0116093D02*
X0123900Y0116093D01*
X0123900Y0117691D02*
X0123100Y0117691D01*
X0123100Y0119290D02*
X0123900Y0119290D01*
X0123900Y0120888D02*
X0123100Y0120888D01*
X0123100Y0122487D02*
X0123900Y0122487D01*
X0123900Y0124085D02*
X0123100Y0124085D01*
X0123100Y0125684D02*
X0123900Y0125684D01*
X0123900Y0127282D02*
X0123100Y0127282D01*
X0123100Y0128881D02*
X0123900Y0128881D01*
X0123900Y0130479D02*
X0123100Y0130479D01*
X0123100Y0132078D02*
X0123900Y0132078D01*
X0123900Y0133676D02*
X0123768Y0133676D01*
X0128100Y0134040D02*
X0128100Y0137960D01*
X0128900Y0137160D01*
X0128900Y0134840D01*
X0128100Y0134040D01*
X0128100Y0135275D02*
X0128900Y0135275D01*
X0128900Y0136873D02*
X0128100Y0136873D01*
X0123900Y0138472D02*
X0123619Y0138472D01*
X0118500Y0133409D02*
X0118900Y0133009D01*
X0118900Y0096640D01*
X0118379Y0097161D01*
X0118100Y0097276D01*
X0118100Y0133009D01*
X0118500Y0133409D01*
X0118100Y0132078D02*
X0118900Y0132078D01*
X0118900Y0130479D02*
X0118100Y0130479D01*
X0118100Y0128881D02*
X0118900Y0128881D01*
X0118900Y0127282D02*
X0118100Y0127282D01*
X0118100Y0125684D02*
X0118900Y0125684D01*
X0118900Y0124085D02*
X0118100Y0124085D01*
X0118100Y0122487D02*
X0118900Y0122487D01*
X0118900Y0120888D02*
X0118100Y0120888D01*
X0118100Y0119290D02*
X0118900Y0119290D01*
X0118900Y0117691D02*
X0118100Y0117691D01*
X0118100Y0116093D02*
X0118900Y0116093D01*
X0118900Y0114494D02*
X0118100Y0114494D01*
X0118100Y0112896D02*
X0118900Y0112896D01*
X0118900Y0111297D02*
X0118100Y0111297D01*
X0118100Y0109699D02*
X0118900Y0109699D01*
X0118900Y0108100D02*
X0118100Y0108100D01*
X0118100Y0106502D02*
X0118900Y0106502D01*
X0118900Y0104903D02*
X0118100Y0104903D01*
X0118100Y0103305D02*
X0118900Y0103305D01*
X0118900Y0101706D02*
X0118100Y0101706D01*
X0118100Y0100108D02*
X0118900Y0100108D01*
X0118900Y0098509D02*
X0118100Y0098509D01*
X0118629Y0096911D02*
X0118900Y0096911D01*
X0113900Y0097276D02*
X0113900Y0133009D01*
X0113100Y0133809D01*
X0113100Y0096640D01*
X0113621Y0097161D01*
X0113900Y0097276D01*
X0113371Y0096911D02*
X0113100Y0096911D01*
X0113100Y0098509D02*
X0113900Y0098509D01*
X0113900Y0100108D02*
X0113100Y0100108D01*
X0113100Y0101706D02*
X0113900Y0101706D01*
X0113900Y0103305D02*
X0113100Y0103305D01*
X0113100Y0104903D02*
X0113900Y0104903D01*
X0113900Y0106502D02*
X0113100Y0106502D01*
X0113100Y0108100D02*
X0113900Y0108100D01*
X0113900Y0109699D02*
X0113100Y0109699D01*
X0113100Y0111297D02*
X0113900Y0111297D01*
X0113900Y0112896D02*
X0113100Y0112896D01*
X0113100Y0114494D02*
X0113900Y0114494D01*
X0113900Y0116093D02*
X0113100Y0116093D01*
X0113100Y0117691D02*
X0113900Y0117691D01*
X0113900Y0119290D02*
X0113100Y0119290D01*
X0113100Y0120888D02*
X0113900Y0120888D01*
X0113900Y0122487D02*
X0113100Y0122487D01*
X0113100Y0124085D02*
X0113900Y0124085D01*
X0113900Y0125684D02*
X0113100Y0125684D01*
X0113100Y0127282D02*
X0113900Y0127282D01*
X0113900Y0128881D02*
X0113100Y0128881D01*
X0113100Y0130479D02*
X0113900Y0130479D01*
X0113900Y0132078D02*
X0113100Y0132078D01*
X0113100Y0133676D02*
X0113232Y0133676D01*
X0128100Y0127960D02*
X0128100Y0124040D01*
X0128900Y0124840D01*
X0128900Y0127160D01*
X0128100Y0127960D01*
X0128100Y0127282D02*
X0128778Y0127282D01*
X0128900Y0125684D02*
X0128100Y0125684D01*
X0128100Y0124085D02*
X0128146Y0124085D01*
X0128100Y0117960D02*
X0128900Y0117160D01*
X0128900Y0114840D01*
X0128100Y0114040D01*
X0128100Y0117960D01*
X0128100Y0117691D02*
X0128369Y0117691D01*
X0128100Y0116093D02*
X0128900Y0116093D01*
X0128555Y0114494D02*
X0128100Y0114494D01*
X0108900Y0114494D02*
X0103445Y0114494D01*
X0105044Y0112896D02*
X0108900Y0112896D01*
X0108900Y0111297D02*
X0105200Y0111297D01*
X0105200Y0109699D02*
X0108900Y0109699D01*
X0108900Y0108100D02*
X0104040Y0108100D01*
X0093900Y0104903D02*
X0093036Y0104903D01*
X0098100Y0117691D02*
X0098369Y0117691D01*
X0078900Y0136873D02*
X0077263Y0136873D01*
X0073900Y0149662D02*
X0070200Y0149662D01*
X0070200Y0151260D02*
X0073900Y0151260D01*
X0073900Y0152859D02*
X0070081Y0152859D01*
X0068483Y0154457D02*
X0073987Y0154457D01*
X0073480Y0164048D02*
X0078520Y0164048D01*
X0076996Y0165647D02*
X0075004Y0165647D01*
X0075600Y0167245D02*
X0076400Y0167245D01*
X0076400Y0168844D02*
X0075600Y0168844D01*
X0075600Y0170442D02*
X0076400Y0170442D01*
X0076400Y0172041D02*
X0075600Y0172041D01*
X0075600Y0173639D02*
X0076400Y0173639D01*
X0076534Y0175238D02*
X0075466Y0175238D01*
X0042737Y0133676D02*
X0033100Y0133676D01*
X0033100Y0132078D02*
X0041800Y0132078D01*
X0041800Y0130479D02*
X0033100Y0130479D01*
X0033100Y0128881D02*
X0040911Y0128881D01*
X0039313Y0127282D02*
X0033100Y0127282D01*
X0033100Y0125684D02*
X0037714Y0125684D01*
X0036116Y0124085D02*
X0033100Y0124085D01*
X0033100Y0122487D02*
X0034517Y0122487D01*
X0033900Y0120888D02*
X0033100Y0120888D01*
X0033100Y0119290D02*
X0033900Y0119290D01*
X0033900Y0117691D02*
X0033100Y0117691D01*
X0033100Y0116093D02*
X0033900Y0116093D01*
X0033900Y0114494D02*
X0033100Y0114494D01*
X0033100Y0112896D02*
X0033900Y0112896D01*
X0033900Y0111297D02*
X0033100Y0111297D01*
X0033100Y0109699D02*
X0033900Y0109699D01*
X0033900Y0108100D02*
X0033100Y0108100D01*
X0033100Y0106502D02*
X0033900Y0106502D01*
X0033900Y0104903D02*
X0033100Y0104903D01*
X0033100Y0103305D02*
X0033900Y0103305D01*
X0033900Y0101706D02*
X0033100Y0101706D01*
X0033100Y0100108D02*
X0033900Y0100108D01*
X0033900Y0098509D02*
X0033100Y0098509D01*
X0033100Y0096911D02*
X0033900Y0096911D01*
X0033900Y0095312D02*
X0033100Y0095312D01*
X0033100Y0093714D02*
X0033244Y0093714D01*
X0036400Y0090930D02*
X0036400Y0080691D01*
X0035539Y0081552D01*
X0034216Y0082100D01*
X0032784Y0082100D01*
X0031461Y0081552D01*
X0030600Y0080691D01*
X0030600Y0085130D01*
X0036400Y0090930D01*
X0036400Y0090517D02*
X0035986Y0090517D01*
X0036400Y0088918D02*
X0034388Y0088918D01*
X0032789Y0087320D02*
X0036400Y0087320D01*
X0036400Y0085721D02*
X0031191Y0085721D01*
X0030600Y0084123D02*
X0036400Y0084123D01*
X0036400Y0082524D02*
X0030600Y0082524D01*
X0030600Y0080926D02*
X0030834Y0080926D01*
X0026400Y0080926D02*
X0025600Y0080926D01*
X0025600Y0082524D02*
X0026400Y0082524D01*
X0026400Y0084123D02*
X0025600Y0084123D01*
X0025600Y0085721D02*
X0026400Y0085721D01*
X0026400Y0086870D02*
X0026400Y0071491D01*
X0025600Y0070691D01*
X0025600Y0088809D01*
X0026461Y0087948D01*
X0027180Y0087650D01*
X0026400Y0086870D01*
X0026850Y0087320D02*
X0025600Y0087320D01*
X0018900Y0087320D02*
X0018259Y0087320D01*
X0017740Y0086800D02*
X0018900Y0087960D01*
X0018900Y0085691D01*
X0018039Y0086552D01*
X0017440Y0086800D01*
X0017740Y0086800D01*
X0018870Y0085721D02*
X0018900Y0085721D01*
X0014560Y0080200D02*
X0012565Y0080200D01*
X0011021Y0079561D01*
X0010600Y0079140D01*
X0010600Y0085930D01*
X0012400Y0084130D01*
X0012400Y0082784D01*
X0012948Y0081461D01*
X0013961Y0080448D01*
X0014560Y0080200D01*
X0013483Y0080926D02*
X0010600Y0080926D01*
X0010600Y0082524D02*
X0012508Y0082524D01*
X0012400Y0084123D02*
X0010600Y0084123D01*
X0010600Y0085721D02*
X0010809Y0085721D01*
X0010787Y0079327D02*
X0010600Y0079327D01*
X0010600Y0072860D02*
X0011021Y0072439D01*
X0012565Y0071800D01*
X0019435Y0071800D01*
X0020979Y0072439D01*
X0021400Y0072860D01*
X0021400Y0069140D01*
X0020979Y0069561D01*
X0019435Y0070200D01*
X0012565Y0070200D01*
X0011021Y0069561D01*
X0010600Y0069140D01*
X0010600Y0072860D01*
X0010600Y0071334D02*
X0021400Y0071334D01*
X0021400Y0069736D02*
X0020556Y0069736D01*
X0025600Y0071334D02*
X0026243Y0071334D01*
X0026400Y0072933D02*
X0025600Y0072933D01*
X0025600Y0074532D02*
X0026400Y0074532D01*
X0026400Y0076130D02*
X0025600Y0076130D01*
X0025600Y0077729D02*
X0026400Y0077729D01*
X0026400Y0079327D02*
X0025600Y0079327D01*
X0030600Y0076309D02*
X0031400Y0075509D01*
X0031400Y0070691D01*
X0030600Y0071491D01*
X0030600Y0076309D01*
X0030600Y0076130D02*
X0030779Y0076130D01*
X0030600Y0074532D02*
X0031400Y0074532D01*
X0031400Y0072933D02*
X0030600Y0072933D01*
X0030757Y0071334D02*
X0031400Y0071334D01*
X0035600Y0071334D02*
X0036400Y0071334D01*
X0036400Y0069736D02*
X0035600Y0069736D01*
X0035600Y0068137D02*
X0036400Y0068137D01*
X0036400Y0066539D02*
X0035600Y0066539D01*
X0035600Y0066491D02*
X0036400Y0065691D01*
X0036400Y0076309D01*
X0035600Y0075509D01*
X0035600Y0066491D01*
X0036400Y0061309D02*
X0036400Y0042630D01*
X0037630Y0041400D01*
X0040245Y0038785D01*
X0039839Y0038379D01*
X0039200Y0036835D01*
X0039200Y0035165D01*
X0039839Y0033621D01*
X0041021Y0032439D01*
X0042565Y0031800D01*
X0048830Y0031800D01*
X0047230Y0030200D01*
X0042565Y0030200D01*
X0041021Y0029561D01*
X0039839Y0028379D01*
X0039200Y0026835D01*
X0039200Y0025165D01*
X0039839Y0023621D01*
X0041021Y0022439D01*
X0042565Y0021800D01*
X0043900Y0021800D01*
X0043900Y0020200D01*
X0042565Y0020200D01*
X0041021Y0019561D01*
X0039839Y0018379D01*
X0039200Y0016835D01*
X0039200Y0015165D01*
X0039839Y0013621D01*
X0041021Y0012439D01*
X0042565Y0011800D01*
X0049435Y0011800D01*
X0050979Y0012439D01*
X0052161Y0013621D01*
X0052800Y0015165D01*
X0052800Y0016835D01*
X0052161Y0018379D01*
X0050979Y0019561D01*
X0049435Y0020200D01*
X0048100Y0020200D01*
X0048100Y0021800D01*
X0049435Y0021800D01*
X0050979Y0022439D01*
X0052161Y0023621D01*
X0052800Y0025165D01*
X0052800Y0026835D01*
X0052161Y0028379D01*
X0051755Y0028785D01*
X0055600Y0032630D01*
X0055600Y0032860D01*
X0056021Y0032439D01*
X0057565Y0031800D01*
X0064435Y0031800D01*
X0065979Y0032439D01*
X0066400Y0032860D01*
X0066400Y0029140D01*
X0065979Y0029561D01*
X0064435Y0030200D01*
X0057565Y0030200D01*
X0056021Y0029561D01*
X0054839Y0028379D01*
X0054200Y0026835D01*
X0054200Y0025165D01*
X0054839Y0023621D01*
X0056021Y0022439D01*
X0057565Y0021800D01*
X0064435Y0021800D01*
X0065979Y0022439D01*
X0066400Y0022860D01*
X0066400Y0019140D01*
X0065979Y0019561D01*
X0064435Y0020200D01*
X0057565Y0020200D01*
X0056021Y0019561D01*
X0054839Y0018379D01*
X0054200Y0016835D01*
X0054200Y0015165D01*
X0054839Y0013621D01*
X0056021Y0012439D01*
X0057565Y0011800D01*
X0064435Y0011800D01*
X0065979Y0012439D01*
X0066400Y0012860D01*
X0066400Y0008100D01*
X0030600Y0008100D01*
X0030600Y0061309D01*
X0031461Y0060448D01*
X0032784Y0059900D01*
X0034216Y0059900D01*
X0035539Y0060448D01*
X0036400Y0061309D01*
X0036400Y0060145D02*
X0034807Y0060145D01*
X0036400Y0058546D02*
X0030600Y0058546D01*
X0030600Y0056948D02*
X0036400Y0056948D01*
X0036400Y0055349D02*
X0030600Y0055349D01*
X0030600Y0053751D02*
X0036400Y0053751D01*
X0036400Y0052152D02*
X0030600Y0052152D01*
X0030600Y0050554D02*
X0036400Y0050554D01*
X0036400Y0048955D02*
X0030600Y0048955D01*
X0030600Y0047357D02*
X0036400Y0047357D01*
X0036400Y0045758D02*
X0030600Y0045758D01*
X0030600Y0044160D02*
X0036400Y0044160D01*
X0036469Y0042561D02*
X0030600Y0042561D01*
X0030600Y0040963D02*
X0038067Y0040963D01*
X0039666Y0039364D02*
X0030600Y0039364D01*
X0030600Y0037766D02*
X0039585Y0037766D01*
X0039200Y0036167D02*
X0030600Y0036167D01*
X0030600Y0034569D02*
X0039447Y0034569D01*
X0040490Y0032970D02*
X0030600Y0032970D01*
X0030600Y0031372D02*
X0048402Y0031372D01*
X0052743Y0029773D02*
X0056534Y0029773D01*
X0054755Y0028175D02*
X0052245Y0028175D01*
X0052800Y0026576D02*
X0054200Y0026576D01*
X0054277Y0024978D02*
X0052723Y0024978D01*
X0051919Y0023379D02*
X0055081Y0023379D01*
X0057521Y0020182D02*
X0049479Y0020182D01*
X0048100Y0021781D02*
X0066400Y0021781D01*
X0066400Y0020182D02*
X0064479Y0020182D01*
X0070600Y0020182D02*
X0087521Y0020182D01*
X0087565Y0020200D02*
X0086021Y0019561D01*
X0084839Y0018379D01*
X0084200Y0016835D01*
X0084200Y0015165D01*
X0084839Y0013621D01*
X0086021Y0012439D01*
X0087565Y0011800D01*
X0094435Y0011800D01*
X0095979Y0012439D01*
X0097161Y0013621D01*
X0097800Y0015165D01*
X0097800Y0016835D01*
X0097161Y0018379D01*
X0095979Y0019561D01*
X0094435Y0020200D01*
X0087565Y0020200D01*
X0085044Y0018584D02*
X0070600Y0018584D01*
X0070600Y0016985D02*
X0084262Y0016985D01*
X0084200Y0015387D02*
X0070600Y0015387D01*
X0070600Y0013788D02*
X0084770Y0013788D01*
X0086624Y0012190D02*
X0070600Y0012190D01*
X0066400Y0012190D02*
X0065376Y0012190D01*
X0066400Y0010591D02*
X0030600Y0010591D01*
X0030600Y0008993D02*
X0066400Y0008993D01*
X0056624Y0012190D02*
X0050376Y0012190D01*
X0052230Y0013788D02*
X0054770Y0013788D01*
X0054200Y0015387D02*
X0052800Y0015387D01*
X0052738Y0016985D02*
X0054262Y0016985D01*
X0055044Y0018584D02*
X0051956Y0018584D01*
X0043900Y0021781D02*
X0030600Y0021781D01*
X0030600Y0023379D02*
X0040081Y0023379D01*
X0039277Y0024978D02*
X0030600Y0024978D01*
X0030600Y0026576D02*
X0039200Y0026576D01*
X0039755Y0028175D02*
X0030600Y0028175D01*
X0030600Y0029773D02*
X0041534Y0029773D01*
X0042521Y0020182D02*
X0030600Y0020182D01*
X0030600Y0018584D02*
X0040044Y0018584D01*
X0039262Y0016985D02*
X0030600Y0016985D01*
X0030600Y0015387D02*
X0039200Y0015387D01*
X0039770Y0013788D02*
X0030600Y0013788D01*
X0030600Y0012190D02*
X0041624Y0012190D01*
X0026400Y0012190D02*
X0020376Y0012190D01*
X0020979Y0012439D02*
X0019435Y0011800D01*
X0012565Y0011800D01*
X0011021Y0012439D01*
X0009839Y0013621D01*
X0009200Y0015165D01*
X0009200Y0016835D01*
X0009839Y0018379D01*
X0011021Y0019561D01*
X0012565Y0020200D01*
X0019435Y0020200D01*
X0020979Y0019561D01*
X0022161Y0018379D01*
X0022800Y0016835D01*
X0022800Y0015165D01*
X0022161Y0013621D01*
X0020979Y0012439D01*
X0022230Y0013788D02*
X0026400Y0013788D01*
X0026400Y0015387D02*
X0022800Y0015387D01*
X0022738Y0016985D02*
X0026400Y0016985D01*
X0026400Y0018584D02*
X0021956Y0018584D01*
X0019479Y0020182D02*
X0026400Y0020182D01*
X0026400Y0021781D02*
X0006000Y0021781D01*
X0006000Y0023379D02*
X0010081Y0023379D01*
X0009839Y0023621D02*
X0011021Y0022439D01*
X0012565Y0021800D01*
X0019435Y0021800D01*
X0020979Y0022439D01*
X0022161Y0023621D01*
X0022800Y0025165D01*
X0022800Y0026835D01*
X0022161Y0028379D01*
X0020979Y0029561D01*
X0019435Y0030200D01*
X0014770Y0030200D01*
X0013170Y0031800D01*
X0019435Y0031800D01*
X0020979Y0032439D01*
X0022161Y0033621D01*
X0022800Y0035165D01*
X0022800Y0036835D01*
X0022161Y0038379D01*
X0021755Y0038785D01*
X0025600Y0042630D01*
X0025600Y0066309D01*
X0026400Y0065509D01*
X0026400Y0006000D01*
X0006000Y0006000D01*
X0006000Y0033030D01*
X0010245Y0028785D01*
X0009839Y0028379D01*
X0009200Y0026835D01*
X0009200Y0025165D01*
X0009839Y0023621D01*
X0009277Y0024978D02*
X0006000Y0024978D01*
X0006000Y0026576D02*
X0009200Y0026576D01*
X0009755Y0028175D02*
X0006000Y0028175D01*
X0006000Y0029773D02*
X0009257Y0029773D01*
X0007658Y0031372D02*
X0006000Y0031372D01*
X0006000Y0032970D02*
X0006060Y0032970D01*
X0009200Y0035770D02*
X0008100Y0036870D01*
X0008100Y0060930D01*
X0010245Y0058785D01*
X0009839Y0058379D01*
X0009200Y0056835D01*
X0009200Y0055165D01*
X0009839Y0053621D01*
X0011021Y0052439D01*
X0012565Y0051800D01*
X0019435Y0051800D01*
X0020979Y0052439D01*
X0021400Y0052860D01*
X0021400Y0049140D01*
X0020979Y0049561D01*
X0019435Y0050200D01*
X0012565Y0050200D01*
X0011021Y0049561D01*
X0009839Y0048379D01*
X0009200Y0046835D01*
X0009200Y0045165D01*
X0009839Y0043621D01*
X0011021Y0042439D01*
X0012565Y0041800D01*
X0018830Y0041800D01*
X0017230Y0040200D01*
X0012565Y0040200D01*
X0011021Y0039561D01*
X0009839Y0038379D01*
X0009200Y0036835D01*
X0009200Y0035770D01*
X0009200Y0036167D02*
X0008803Y0036167D01*
X0008100Y0037766D02*
X0009585Y0037766D01*
X0010825Y0039364D02*
X0008100Y0039364D01*
X0008100Y0040963D02*
X0017993Y0040963D01*
X0022334Y0039364D02*
X0026400Y0039364D01*
X0026400Y0037766D02*
X0022415Y0037766D01*
X0022800Y0036167D02*
X0026400Y0036167D01*
X0026400Y0034569D02*
X0022553Y0034569D01*
X0021510Y0032970D02*
X0026400Y0032970D01*
X0026400Y0031372D02*
X0013598Y0031372D01*
X0020466Y0029773D02*
X0026400Y0029773D01*
X0026400Y0028175D02*
X0022245Y0028175D01*
X0022800Y0026576D02*
X0026400Y0026576D01*
X0026400Y0024978D02*
X0022723Y0024978D01*
X0021919Y0023379D02*
X0026400Y0023379D01*
X0026400Y0010591D02*
X0006000Y0010591D01*
X0006000Y0008993D02*
X0026400Y0008993D01*
X0026400Y0007394D02*
X0006000Y0007394D01*
X0006000Y0012190D02*
X0011624Y0012190D01*
X0009770Y0013788D02*
X0006000Y0013788D01*
X0006000Y0015387D02*
X0009200Y0015387D01*
X0009262Y0016985D02*
X0006000Y0016985D01*
X0006000Y0018584D02*
X0010044Y0018584D01*
X0012521Y0020182D02*
X0006000Y0020182D01*
X0008100Y0042561D02*
X0010899Y0042561D01*
X0009616Y0044160D02*
X0008100Y0044160D01*
X0008100Y0045758D02*
X0009200Y0045758D01*
X0009416Y0047357D02*
X0008100Y0047357D01*
X0008100Y0048955D02*
X0010416Y0048955D01*
X0008100Y0050554D02*
X0021400Y0050554D01*
X0021400Y0052152D02*
X0020286Y0052152D01*
X0025600Y0052152D02*
X0026400Y0052152D01*
X0026400Y0050554D02*
X0025600Y0050554D01*
X0025600Y0048955D02*
X0026400Y0048955D01*
X0026400Y0047357D02*
X0025600Y0047357D01*
X0025600Y0045758D02*
X0026400Y0045758D01*
X0026400Y0044160D02*
X0025600Y0044160D01*
X0025531Y0042561D02*
X0026400Y0042561D01*
X0026400Y0040963D02*
X0023933Y0040963D01*
X0025600Y0053751D02*
X0026400Y0053751D01*
X0026400Y0055349D02*
X0025600Y0055349D01*
X0025600Y0056948D02*
X0026400Y0056948D01*
X0026400Y0058546D02*
X0025600Y0058546D01*
X0025600Y0060145D02*
X0026400Y0060145D01*
X0026400Y0061743D02*
X0025600Y0061743D01*
X0025600Y0063342D02*
X0026400Y0063342D01*
X0026400Y0064940D02*
X0025600Y0064940D01*
X0021400Y0062860D02*
X0021400Y0059140D01*
X0020979Y0059561D01*
X0019435Y0060200D01*
X0014770Y0060200D01*
X0013170Y0061800D01*
X0019435Y0061800D01*
X0020979Y0062439D01*
X0021400Y0062860D01*
X0021400Y0061743D02*
X0013226Y0061743D01*
X0010007Y0058546D02*
X0008100Y0058546D01*
X0008100Y0056948D02*
X0009247Y0056948D01*
X0009200Y0055349D02*
X0008100Y0055349D01*
X0008100Y0053751D02*
X0009786Y0053751D01*
X0008100Y0052152D02*
X0011714Y0052152D01*
X0008885Y0060145D02*
X0008100Y0060145D01*
X0010600Y0069736D02*
X0011444Y0069736D01*
X0019568Y0060145D02*
X0021400Y0060145D01*
X0030600Y0060145D02*
X0032193Y0060145D01*
X0040600Y0060145D02*
X0042432Y0060145D01*
X0042565Y0060200D02*
X0041021Y0059561D01*
X0040600Y0059140D01*
X0040600Y0062860D01*
X0041021Y0062439D01*
X0042565Y0061800D01*
X0049435Y0061800D01*
X0050979Y0062439D01*
X0051400Y0062860D01*
X0051400Y0059140D01*
X0050979Y0059561D01*
X0049435Y0060200D01*
X0042565Y0060200D01*
X0040600Y0061743D02*
X0051400Y0061743D01*
X0051400Y0060145D02*
X0049568Y0060145D01*
X0055600Y0060145D02*
X0057432Y0060145D01*
X0057565Y0060200D02*
X0056021Y0059561D01*
X0055600Y0059140D01*
X0055600Y0062860D01*
X0056021Y0062439D01*
X0057565Y0061800D01*
X0064435Y0061800D01*
X0065979Y0062439D01*
X0066400Y0062860D01*
X0066400Y0059140D01*
X0065979Y0059561D01*
X0064435Y0060200D01*
X0057565Y0060200D01*
X0055600Y0061743D02*
X0066400Y0061743D01*
X0066400Y0060145D02*
X0064568Y0060145D01*
X0070600Y0060145D02*
X0077193Y0060145D01*
X0075331Y0061743D02*
X0070600Y0061743D01*
X0070600Y0063342D02*
X0074900Y0063342D01*
X0075200Y0064940D02*
X0070600Y0064940D01*
X0070600Y0066539D02*
X0076400Y0066539D01*
X0076400Y0068137D02*
X0070600Y0068137D01*
X0070600Y0069736D02*
X0076400Y0069736D01*
X0076400Y0071334D02*
X0070600Y0071334D01*
X0070600Y0072933D02*
X0076400Y0072933D01*
X0076400Y0074532D02*
X0070600Y0074532D01*
X0070600Y0076130D02*
X0076400Y0076130D01*
X0076400Y0077729D02*
X0070600Y0077729D01*
X0070600Y0079327D02*
X0076400Y0079327D01*
X0076400Y0080926D02*
X0069044Y0080926D01*
X0067446Y0082524D02*
X0076400Y0082524D01*
X0066400Y0072860D02*
X0066400Y0069140D01*
X0065979Y0069561D01*
X0064435Y0070200D01*
X0057565Y0070200D01*
X0056021Y0069561D01*
X0055600Y0069140D01*
X0055600Y0072860D01*
X0056021Y0072439D01*
X0057565Y0071800D01*
X0064435Y0071800D01*
X0065979Y0072439D01*
X0066400Y0072860D01*
X0066400Y0071334D02*
X0055600Y0071334D01*
X0055600Y0069736D02*
X0056444Y0069736D01*
X0051400Y0069736D02*
X0050556Y0069736D01*
X0050979Y0069561D02*
X0051400Y0069140D01*
X0051400Y0072860D01*
X0050979Y0072439D01*
X0049435Y0071800D01*
X0042565Y0071800D01*
X0041021Y0072439D01*
X0040600Y0072860D01*
X0040600Y0069140D01*
X0041021Y0069561D01*
X0042565Y0070200D01*
X0049435Y0070200D01*
X0050979Y0069561D01*
X0051400Y0071334D02*
X0040600Y0071334D01*
X0040600Y0069736D02*
X0041444Y0069736D01*
X0036400Y0072933D02*
X0035600Y0072933D01*
X0035600Y0074532D02*
X0036400Y0074532D01*
X0036400Y0076130D02*
X0036221Y0076130D01*
X0040600Y0079140D02*
X0040600Y0112630D01*
X0044770Y0116800D01*
X0047740Y0116800D01*
X0048900Y0117960D01*
X0048900Y0114040D01*
X0047740Y0115200D01*
X0044260Y0115200D01*
X0041800Y0112740D01*
X0041800Y0109260D01*
X0044260Y0106800D01*
X0047740Y0106800D01*
X0048900Y0107960D01*
X0048900Y0104040D01*
X0047740Y0105200D01*
X0044260Y0105200D01*
X0041800Y0102740D01*
X0041800Y0099260D01*
X0044260Y0096800D01*
X0047740Y0096800D01*
X0048900Y0097960D01*
X0048900Y0094040D01*
X0047740Y0095200D01*
X0044260Y0095200D01*
X0041800Y0092740D01*
X0041800Y0089260D01*
X0044260Y0086800D01*
X0047740Y0086800D01*
X0048900Y0087960D01*
X0048900Y0081870D01*
X0047230Y0080200D01*
X0042565Y0080200D01*
X0041021Y0079561D01*
X0040600Y0079140D01*
X0040600Y0079327D02*
X0040787Y0079327D01*
X0040600Y0080926D02*
X0047956Y0080926D01*
X0048900Y0082524D02*
X0040600Y0082524D01*
X0040600Y0084123D02*
X0048900Y0084123D01*
X0048900Y0085721D02*
X0040600Y0085721D01*
X0040600Y0087320D02*
X0043741Y0087320D01*
X0042142Y0088918D02*
X0040600Y0088918D01*
X0040600Y0090517D02*
X0041800Y0090517D01*
X0041800Y0092115D02*
X0040600Y0092115D01*
X0040600Y0093714D02*
X0042774Y0093714D01*
X0040600Y0095312D02*
X0048900Y0095312D01*
X0048900Y0096911D02*
X0047850Y0096911D01*
X0044150Y0096911D02*
X0040600Y0096911D01*
X0040600Y0098509D02*
X0042551Y0098509D01*
X0041800Y0100108D02*
X0040600Y0100108D01*
X0040600Y0101706D02*
X0041800Y0101706D01*
X0042365Y0103305D02*
X0040600Y0103305D01*
X0040600Y0104903D02*
X0043964Y0104903D01*
X0042960Y0108100D02*
X0040600Y0108100D01*
X0040600Y0106502D02*
X0048900Y0106502D01*
X0048900Y0104903D02*
X0048036Y0104903D01*
X0041800Y0109699D02*
X0040600Y0109699D01*
X0040600Y0111297D02*
X0041800Y0111297D01*
X0041956Y0112896D02*
X0040866Y0112896D01*
X0042464Y0114494D02*
X0043555Y0114494D01*
X0044063Y0116093D02*
X0048900Y0116093D01*
X0048900Y0117691D02*
X0048631Y0117691D01*
X0048445Y0114494D02*
X0048900Y0114494D01*
X0055600Y0119290D02*
X0056320Y0119290D01*
X0056800Y0120888D02*
X0055600Y0120888D01*
X0055600Y0122487D02*
X0056800Y0122487D01*
X0059770Y0116800D02*
X0062740Y0116800D01*
X0063900Y0117960D01*
X0063900Y0116870D01*
X0062230Y0115200D01*
X0059260Y0115200D01*
X0058100Y0114040D01*
X0058100Y0115130D01*
X0059770Y0116800D01*
X0059063Y0116093D02*
X0063123Y0116093D01*
X0063631Y0117691D02*
X0063900Y0117691D01*
X0058555Y0114494D02*
X0058100Y0114494D01*
X0048900Y0124040D02*
X0048900Y0127960D01*
X0047740Y0126800D01*
X0044770Y0126800D01*
X0038100Y0120130D01*
X0038100Y0116070D01*
X0041800Y0119770D01*
X0041800Y0122740D01*
X0044260Y0125200D01*
X0047740Y0125200D01*
X0048900Y0124040D01*
X0048900Y0124085D02*
X0048854Y0124085D01*
X0048900Y0125684D02*
X0043654Y0125684D01*
X0043146Y0124085D02*
X0042055Y0124085D01*
X0041800Y0122487D02*
X0040457Y0122487D01*
X0041800Y0120888D02*
X0038858Y0120888D01*
X0038100Y0119290D02*
X0041320Y0119290D01*
X0039721Y0117691D02*
X0038100Y0117691D01*
X0038100Y0116093D02*
X0038123Y0116093D01*
X0048222Y0127282D02*
X0048900Y0127282D01*
X0018900Y0096911D02*
X0017850Y0096911D01*
X0036166Y0080926D02*
X0036400Y0080926D01*
X0048259Y0087320D02*
X0048900Y0087320D01*
X0055600Y0083900D02*
X0055600Y0079140D01*
X0056021Y0079561D01*
X0057565Y0080200D01*
X0063830Y0080200D01*
X0060130Y0083900D01*
X0055600Y0083900D01*
X0055600Y0082524D02*
X0061506Y0082524D01*
X0063105Y0080926D02*
X0055600Y0080926D01*
X0055600Y0079327D02*
X0055787Y0079327D01*
X0065556Y0069736D02*
X0066400Y0069736D01*
X0070600Y0058546D02*
X0081400Y0058546D01*
X0081400Y0056948D02*
X0070600Y0056948D01*
X0070600Y0055349D02*
X0081400Y0055349D01*
X0081400Y0053751D02*
X0070600Y0053751D01*
X0066400Y0052860D02*
X0066400Y0049140D01*
X0065979Y0049561D01*
X0064435Y0050200D01*
X0059770Y0050200D01*
X0058170Y0051800D01*
X0064435Y0051800D01*
X0065979Y0052439D01*
X0066400Y0052860D01*
X0066400Y0052152D02*
X0065286Y0052152D01*
X0066400Y0050554D02*
X0059416Y0050554D01*
X0055245Y0048785D02*
X0054839Y0048379D01*
X0054200Y0046835D01*
X0054200Y0045165D01*
X0054839Y0043621D01*
X0056021Y0042439D01*
X0057565Y0041800D01*
X0064435Y0041800D01*
X0065979Y0042439D01*
X0066400Y0042860D01*
X0066400Y0039140D01*
X0065979Y0039561D01*
X0064435Y0040200D01*
X0057565Y0040200D01*
X0056021Y0039561D01*
X0055600Y0039140D01*
X0055600Y0039370D01*
X0054370Y0040600D01*
X0051755Y0043215D01*
X0052161Y0043621D01*
X0052800Y0045165D01*
X0052800Y0046835D01*
X0052161Y0048379D01*
X0050979Y0049561D01*
X0049435Y0050200D01*
X0042565Y0050200D01*
X0041021Y0049561D01*
X0040600Y0049140D01*
X0040600Y0052860D01*
X0041021Y0052439D01*
X0042565Y0051800D01*
X0049435Y0051800D01*
X0050979Y0052439D01*
X0051400Y0052860D01*
X0051400Y0052630D01*
X0055245Y0048785D01*
X0055075Y0048955D02*
X0051584Y0048955D01*
X0052584Y0047357D02*
X0054416Y0047357D01*
X0054200Y0045758D02*
X0052800Y0045758D01*
X0052384Y0044160D02*
X0054616Y0044160D01*
X0055899Y0042561D02*
X0052409Y0042561D01*
X0054007Y0040963D02*
X0066400Y0040963D01*
X0066400Y0042561D02*
X0066101Y0042561D01*
X0066175Y0039364D02*
X0066400Y0039364D01*
X0066400Y0031372D02*
X0054342Y0031372D01*
X0055600Y0039364D02*
X0055825Y0039364D01*
X0048830Y0040200D02*
X0044770Y0040200D01*
X0043170Y0041800D01*
X0047230Y0041800D01*
X0048830Y0040200D01*
X0048067Y0040963D02*
X0044007Y0040963D01*
X0040600Y0050554D02*
X0053476Y0050554D01*
X0051878Y0052152D02*
X0050286Y0052152D01*
X0041714Y0052152D02*
X0040600Y0052152D01*
X0065466Y0029773D02*
X0066400Y0029773D01*
X0070600Y0028175D02*
X0071234Y0028175D01*
X0094479Y0020182D02*
X0102109Y0020182D01*
X0101800Y0018584D02*
X0096956Y0018584D01*
X0097738Y0016985D02*
X0101800Y0016985D01*
X0101800Y0015387D02*
X0097800Y0015387D01*
X0097230Y0013788D02*
X0101800Y0013788D01*
X0101955Y0012190D02*
X0095376Y0012190D01*
X0108100Y0022276D02*
X0108100Y0023900D01*
X0108900Y0023900D01*
X0108900Y0021640D01*
X0108379Y0022161D01*
X0108100Y0022276D01*
X0108759Y0021781D02*
X0108900Y0021781D01*
X0108900Y0023379D02*
X0108100Y0023379D01*
X0119131Y0010591D02*
X0122869Y0010591D01*
X0121955Y0012190D02*
X0120045Y0012190D01*
X0120200Y0013788D02*
X0121800Y0013788D01*
X0121800Y0015387D02*
X0120200Y0015387D01*
X0120200Y0016985D02*
X0121800Y0016985D01*
X0120447Y0018584D02*
X0120200Y0018584D01*
X0123189Y0021781D02*
X0123241Y0021781D01*
X0121591Y0023379D02*
X0139115Y0023379D01*
X0141166Y0021781D02*
X0128759Y0021781D01*
X0129891Y0020182D02*
X0141076Y0020182D01*
X0140394Y0019900D02*
X0139100Y0018606D01*
X0138400Y0016915D01*
X0138400Y0015085D01*
X0139100Y0013394D01*
X0140394Y0012100D01*
X0142085Y0011400D01*
X0149915Y0011400D01*
X0151606Y0012100D01*
X0152900Y0013394D01*
X0153600Y0015085D01*
X0153600Y0016915D01*
X0152900Y0018606D01*
X0151606Y0019900D01*
X0149915Y0020600D01*
X0142085Y0020600D01*
X0140394Y0019900D01*
X0139091Y0018584D02*
X0130200Y0018584D01*
X0130200Y0016985D02*
X0138429Y0016985D01*
X0138400Y0015387D02*
X0130200Y0015387D01*
X0130200Y0013788D02*
X0138937Y0013788D01*
X0140305Y0012190D02*
X0130045Y0012190D01*
X0129131Y0010591D02*
X0161000Y0010591D01*
X0161000Y0008993D02*
X0115600Y0008993D01*
X0115364Y0007394D02*
X0161000Y0007394D01*
X0161000Y0012190D02*
X0151695Y0012190D01*
X0153063Y0013788D02*
X0161000Y0013788D01*
X0161000Y0015387D02*
X0153600Y0015387D01*
X0153571Y0016985D02*
X0161000Y0016985D01*
X0161000Y0018584D02*
X0152909Y0018584D01*
X0150924Y0020182D02*
X0161000Y0020182D01*
X0161000Y0021781D02*
X0150834Y0021781D01*
X0152885Y0023379D02*
X0161000Y0023379D01*
X0161000Y0024978D02*
X0153556Y0024978D01*
X0153600Y0026576D02*
X0161000Y0026576D01*
X0161000Y0028175D02*
X0153078Y0028175D01*
X0151732Y0029773D02*
X0161000Y0029773D01*
X0161000Y0044160D02*
X0153217Y0044160D01*
X0153600Y0045758D02*
X0161000Y0045758D01*
X0161000Y0047357D02*
X0153417Y0047357D01*
X0152550Y0048955D02*
X0161000Y0048955D01*
X0161000Y0050554D02*
X0150026Y0050554D01*
X0151658Y0052152D02*
X0161000Y0052152D01*
X0161000Y0053751D02*
X0153047Y0053751D01*
X0153600Y0055349D02*
X0161000Y0055349D01*
X0161000Y0056948D02*
X0153586Y0056948D01*
X0152924Y0058546D02*
X0161000Y0058546D01*
X0161000Y0060145D02*
X0151014Y0060145D01*
X0150744Y0061743D02*
X0161000Y0061743D01*
X0161000Y0063342D02*
X0152847Y0063342D01*
X0153540Y0064940D02*
X0161000Y0064940D01*
X0161000Y0066539D02*
X0153600Y0066539D01*
X0153094Y0068137D02*
X0161000Y0068137D01*
X0161000Y0069736D02*
X0151769Y0069736D01*
X0152438Y0072933D02*
X0161000Y0072933D01*
X0161000Y0071334D02*
X0144304Y0071334D01*
X0153371Y0074532D02*
X0161000Y0074532D01*
X0161000Y0076130D02*
X0153600Y0076130D01*
X0153263Y0077729D02*
X0161000Y0077729D01*
X0161000Y0079327D02*
X0152178Y0079327D01*
X0141256Y0061743D02*
X0140600Y0061743D01*
X0140600Y0060145D02*
X0140986Y0060145D01*
X0140600Y0050554D02*
X0141974Y0050554D01*
X0136400Y0039364D02*
X0133100Y0039364D01*
X0133100Y0037766D02*
X0136400Y0037766D01*
X0135697Y0036167D02*
X0133100Y0036167D01*
X0138440Y0032970D02*
X0139524Y0032970D01*
X0128900Y0060145D02*
X0128685Y0060145D01*
X0113315Y0060145D02*
X0113100Y0060145D01*
X0108900Y0060145D02*
X0108685Y0060145D01*
X0108900Y0060360D02*
X0108900Y0051491D01*
X0108100Y0050691D01*
X0108100Y0059724D01*
X0108379Y0059839D01*
X0108900Y0060360D01*
X0108900Y0058546D02*
X0108100Y0058546D01*
X0108100Y0056948D02*
X0108900Y0056948D01*
X0108900Y0055349D02*
X0108100Y0055349D01*
X0108100Y0053751D02*
X0108900Y0053751D01*
X0108900Y0052152D02*
X0108100Y0052152D01*
X0108900Y0071640D02*
X0108379Y0072161D01*
X0108100Y0072276D01*
X0108100Y0084724D01*
X0108379Y0084839D01*
X0108900Y0085360D01*
X0108900Y0071640D01*
X0108900Y0072933D02*
X0108100Y0072933D01*
X0108100Y0074532D02*
X0108900Y0074532D01*
X0108900Y0076130D02*
X0108100Y0076130D01*
X0108100Y0077729D02*
X0108900Y0077729D01*
X0108900Y0079327D02*
X0108100Y0079327D01*
X0108100Y0080926D02*
X0108900Y0080926D01*
X0108900Y0082524D02*
X0108100Y0082524D01*
X0108100Y0084123D02*
X0108900Y0084123D01*
X0113100Y0084123D02*
X0113900Y0084123D01*
X0113900Y0084724D02*
X0113900Y0081491D01*
X0113100Y0080691D01*
X0113100Y0085360D01*
X0113621Y0084839D01*
X0113900Y0084724D01*
X0113900Y0082524D02*
X0113100Y0082524D01*
X0113100Y0080926D02*
X0113334Y0080926D01*
X0113279Y0076130D02*
X0113100Y0076130D01*
X0093900Y0087320D02*
X0093259Y0087320D01*
X0081400Y0060145D02*
X0079807Y0060145D01*
X0151103Y0100108D02*
X0151400Y0100108D01*
X0151400Y0101706D02*
X0150654Y0101706D01*
M02*
