G75*
%MOIN*%
%OFA0B0*%
%FSLAX25Y25*%
%IPPOS*%
%LPD*%
%AMOC8*
5,1,8,0,0,1.08239X$1,22.5*
%
%ADD10C,0.00000*%
%ADD11C,0.11824*%
%ADD12C,0.06000*%
%ADD13OC8,0.06000*%
%ADD14C,0.06800*%
%ADD15C,0.04800*%
D10*
X0001000Y0001000D02*
X0001000Y0195961D01*
X0169701Y0195961D01*
X0169701Y0001000D01*
X0001000Y0001000D01*
X0010488Y0153500D02*
X0010490Y0153648D01*
X0010496Y0153796D01*
X0010506Y0153944D01*
X0010520Y0154091D01*
X0010538Y0154238D01*
X0010559Y0154384D01*
X0010585Y0154530D01*
X0010615Y0154675D01*
X0010648Y0154819D01*
X0010686Y0154962D01*
X0010727Y0155104D01*
X0010772Y0155245D01*
X0010820Y0155385D01*
X0010873Y0155524D01*
X0010929Y0155661D01*
X0010989Y0155796D01*
X0011052Y0155930D01*
X0011119Y0156062D01*
X0011190Y0156192D01*
X0011264Y0156320D01*
X0011341Y0156446D01*
X0011422Y0156570D01*
X0011506Y0156692D01*
X0011593Y0156811D01*
X0011684Y0156928D01*
X0011778Y0157043D01*
X0011874Y0157155D01*
X0011974Y0157265D01*
X0012076Y0157371D01*
X0012182Y0157475D01*
X0012290Y0157576D01*
X0012401Y0157674D01*
X0012514Y0157770D01*
X0012630Y0157862D01*
X0012748Y0157951D01*
X0012869Y0158036D01*
X0012992Y0158119D01*
X0013117Y0158198D01*
X0013244Y0158274D01*
X0013373Y0158346D01*
X0013504Y0158415D01*
X0013637Y0158480D01*
X0013772Y0158541D01*
X0013908Y0158599D01*
X0014045Y0158654D01*
X0014184Y0158704D01*
X0014325Y0158751D01*
X0014466Y0158794D01*
X0014609Y0158834D01*
X0014753Y0158869D01*
X0014897Y0158901D01*
X0015043Y0158928D01*
X0015189Y0158952D01*
X0015336Y0158972D01*
X0015483Y0158988D01*
X0015630Y0159000D01*
X0015778Y0159008D01*
X0015926Y0159012D01*
X0016074Y0159012D01*
X0016222Y0159008D01*
X0016370Y0159000D01*
X0016517Y0158988D01*
X0016664Y0158972D01*
X0016811Y0158952D01*
X0016957Y0158928D01*
X0017103Y0158901D01*
X0017247Y0158869D01*
X0017391Y0158834D01*
X0017534Y0158794D01*
X0017675Y0158751D01*
X0017816Y0158704D01*
X0017955Y0158654D01*
X0018092Y0158599D01*
X0018228Y0158541D01*
X0018363Y0158480D01*
X0018496Y0158415D01*
X0018627Y0158346D01*
X0018756Y0158274D01*
X0018883Y0158198D01*
X0019008Y0158119D01*
X0019131Y0158036D01*
X0019252Y0157951D01*
X0019370Y0157862D01*
X0019486Y0157770D01*
X0019599Y0157674D01*
X0019710Y0157576D01*
X0019818Y0157475D01*
X0019924Y0157371D01*
X0020026Y0157265D01*
X0020126Y0157155D01*
X0020222Y0157043D01*
X0020316Y0156928D01*
X0020407Y0156811D01*
X0020494Y0156692D01*
X0020578Y0156570D01*
X0020659Y0156446D01*
X0020736Y0156320D01*
X0020810Y0156192D01*
X0020881Y0156062D01*
X0020948Y0155930D01*
X0021011Y0155796D01*
X0021071Y0155661D01*
X0021127Y0155524D01*
X0021180Y0155385D01*
X0021228Y0155245D01*
X0021273Y0155104D01*
X0021314Y0154962D01*
X0021352Y0154819D01*
X0021385Y0154675D01*
X0021415Y0154530D01*
X0021441Y0154384D01*
X0021462Y0154238D01*
X0021480Y0154091D01*
X0021494Y0153944D01*
X0021504Y0153796D01*
X0021510Y0153648D01*
X0021512Y0153500D01*
X0021510Y0153352D01*
X0021504Y0153204D01*
X0021494Y0153056D01*
X0021480Y0152909D01*
X0021462Y0152762D01*
X0021441Y0152616D01*
X0021415Y0152470D01*
X0021385Y0152325D01*
X0021352Y0152181D01*
X0021314Y0152038D01*
X0021273Y0151896D01*
X0021228Y0151755D01*
X0021180Y0151615D01*
X0021127Y0151476D01*
X0021071Y0151339D01*
X0021011Y0151204D01*
X0020948Y0151070D01*
X0020881Y0150938D01*
X0020810Y0150808D01*
X0020736Y0150680D01*
X0020659Y0150554D01*
X0020578Y0150430D01*
X0020494Y0150308D01*
X0020407Y0150189D01*
X0020316Y0150072D01*
X0020222Y0149957D01*
X0020126Y0149845D01*
X0020026Y0149735D01*
X0019924Y0149629D01*
X0019818Y0149525D01*
X0019710Y0149424D01*
X0019599Y0149326D01*
X0019486Y0149230D01*
X0019370Y0149138D01*
X0019252Y0149049D01*
X0019131Y0148964D01*
X0019008Y0148881D01*
X0018883Y0148802D01*
X0018756Y0148726D01*
X0018627Y0148654D01*
X0018496Y0148585D01*
X0018363Y0148520D01*
X0018228Y0148459D01*
X0018092Y0148401D01*
X0017955Y0148346D01*
X0017816Y0148296D01*
X0017675Y0148249D01*
X0017534Y0148206D01*
X0017391Y0148166D01*
X0017247Y0148131D01*
X0017103Y0148099D01*
X0016957Y0148072D01*
X0016811Y0148048D01*
X0016664Y0148028D01*
X0016517Y0148012D01*
X0016370Y0148000D01*
X0016222Y0147992D01*
X0016074Y0147988D01*
X0015926Y0147988D01*
X0015778Y0147992D01*
X0015630Y0148000D01*
X0015483Y0148012D01*
X0015336Y0148028D01*
X0015189Y0148048D01*
X0015043Y0148072D01*
X0014897Y0148099D01*
X0014753Y0148131D01*
X0014609Y0148166D01*
X0014466Y0148206D01*
X0014325Y0148249D01*
X0014184Y0148296D01*
X0014045Y0148346D01*
X0013908Y0148401D01*
X0013772Y0148459D01*
X0013637Y0148520D01*
X0013504Y0148585D01*
X0013373Y0148654D01*
X0013244Y0148726D01*
X0013117Y0148802D01*
X0012992Y0148881D01*
X0012869Y0148964D01*
X0012748Y0149049D01*
X0012630Y0149138D01*
X0012514Y0149230D01*
X0012401Y0149326D01*
X0012290Y0149424D01*
X0012182Y0149525D01*
X0012076Y0149629D01*
X0011974Y0149735D01*
X0011874Y0149845D01*
X0011778Y0149957D01*
X0011684Y0150072D01*
X0011593Y0150189D01*
X0011506Y0150308D01*
X0011422Y0150430D01*
X0011341Y0150554D01*
X0011264Y0150680D01*
X0011190Y0150808D01*
X0011119Y0150938D01*
X0011052Y0151070D01*
X0010989Y0151204D01*
X0010929Y0151339D01*
X0010873Y0151476D01*
X0010820Y0151615D01*
X0010772Y0151755D01*
X0010727Y0151896D01*
X0010686Y0152038D01*
X0010648Y0152181D01*
X0010615Y0152325D01*
X0010585Y0152470D01*
X0010559Y0152616D01*
X0010538Y0152762D01*
X0010520Y0152909D01*
X0010506Y0153056D01*
X0010496Y0153204D01*
X0010490Y0153352D01*
X0010488Y0153500D01*
X0120488Y0156000D02*
X0120490Y0156148D01*
X0120496Y0156296D01*
X0120506Y0156444D01*
X0120520Y0156591D01*
X0120538Y0156738D01*
X0120559Y0156884D01*
X0120585Y0157030D01*
X0120615Y0157175D01*
X0120648Y0157319D01*
X0120686Y0157462D01*
X0120727Y0157604D01*
X0120772Y0157745D01*
X0120820Y0157885D01*
X0120873Y0158024D01*
X0120929Y0158161D01*
X0120989Y0158296D01*
X0121052Y0158430D01*
X0121119Y0158562D01*
X0121190Y0158692D01*
X0121264Y0158820D01*
X0121341Y0158946D01*
X0121422Y0159070D01*
X0121506Y0159192D01*
X0121593Y0159311D01*
X0121684Y0159428D01*
X0121778Y0159543D01*
X0121874Y0159655D01*
X0121974Y0159765D01*
X0122076Y0159871D01*
X0122182Y0159975D01*
X0122290Y0160076D01*
X0122401Y0160174D01*
X0122514Y0160270D01*
X0122630Y0160362D01*
X0122748Y0160451D01*
X0122869Y0160536D01*
X0122992Y0160619D01*
X0123117Y0160698D01*
X0123244Y0160774D01*
X0123373Y0160846D01*
X0123504Y0160915D01*
X0123637Y0160980D01*
X0123772Y0161041D01*
X0123908Y0161099D01*
X0124045Y0161154D01*
X0124184Y0161204D01*
X0124325Y0161251D01*
X0124466Y0161294D01*
X0124609Y0161334D01*
X0124753Y0161369D01*
X0124897Y0161401D01*
X0125043Y0161428D01*
X0125189Y0161452D01*
X0125336Y0161472D01*
X0125483Y0161488D01*
X0125630Y0161500D01*
X0125778Y0161508D01*
X0125926Y0161512D01*
X0126074Y0161512D01*
X0126222Y0161508D01*
X0126370Y0161500D01*
X0126517Y0161488D01*
X0126664Y0161472D01*
X0126811Y0161452D01*
X0126957Y0161428D01*
X0127103Y0161401D01*
X0127247Y0161369D01*
X0127391Y0161334D01*
X0127534Y0161294D01*
X0127675Y0161251D01*
X0127816Y0161204D01*
X0127955Y0161154D01*
X0128092Y0161099D01*
X0128228Y0161041D01*
X0128363Y0160980D01*
X0128496Y0160915D01*
X0128627Y0160846D01*
X0128756Y0160774D01*
X0128883Y0160698D01*
X0129008Y0160619D01*
X0129131Y0160536D01*
X0129252Y0160451D01*
X0129370Y0160362D01*
X0129486Y0160270D01*
X0129599Y0160174D01*
X0129710Y0160076D01*
X0129818Y0159975D01*
X0129924Y0159871D01*
X0130026Y0159765D01*
X0130126Y0159655D01*
X0130222Y0159543D01*
X0130316Y0159428D01*
X0130407Y0159311D01*
X0130494Y0159192D01*
X0130578Y0159070D01*
X0130659Y0158946D01*
X0130736Y0158820D01*
X0130810Y0158692D01*
X0130881Y0158562D01*
X0130948Y0158430D01*
X0131011Y0158296D01*
X0131071Y0158161D01*
X0131127Y0158024D01*
X0131180Y0157885D01*
X0131228Y0157745D01*
X0131273Y0157604D01*
X0131314Y0157462D01*
X0131352Y0157319D01*
X0131385Y0157175D01*
X0131415Y0157030D01*
X0131441Y0156884D01*
X0131462Y0156738D01*
X0131480Y0156591D01*
X0131494Y0156444D01*
X0131504Y0156296D01*
X0131510Y0156148D01*
X0131512Y0156000D01*
X0131510Y0155852D01*
X0131504Y0155704D01*
X0131494Y0155556D01*
X0131480Y0155409D01*
X0131462Y0155262D01*
X0131441Y0155116D01*
X0131415Y0154970D01*
X0131385Y0154825D01*
X0131352Y0154681D01*
X0131314Y0154538D01*
X0131273Y0154396D01*
X0131228Y0154255D01*
X0131180Y0154115D01*
X0131127Y0153976D01*
X0131071Y0153839D01*
X0131011Y0153704D01*
X0130948Y0153570D01*
X0130881Y0153438D01*
X0130810Y0153308D01*
X0130736Y0153180D01*
X0130659Y0153054D01*
X0130578Y0152930D01*
X0130494Y0152808D01*
X0130407Y0152689D01*
X0130316Y0152572D01*
X0130222Y0152457D01*
X0130126Y0152345D01*
X0130026Y0152235D01*
X0129924Y0152129D01*
X0129818Y0152025D01*
X0129710Y0151924D01*
X0129599Y0151826D01*
X0129486Y0151730D01*
X0129370Y0151638D01*
X0129252Y0151549D01*
X0129131Y0151464D01*
X0129008Y0151381D01*
X0128883Y0151302D01*
X0128756Y0151226D01*
X0128627Y0151154D01*
X0128496Y0151085D01*
X0128363Y0151020D01*
X0128228Y0150959D01*
X0128092Y0150901D01*
X0127955Y0150846D01*
X0127816Y0150796D01*
X0127675Y0150749D01*
X0127534Y0150706D01*
X0127391Y0150666D01*
X0127247Y0150631D01*
X0127103Y0150599D01*
X0126957Y0150572D01*
X0126811Y0150548D01*
X0126664Y0150528D01*
X0126517Y0150512D01*
X0126370Y0150500D01*
X0126222Y0150492D01*
X0126074Y0150488D01*
X0125926Y0150488D01*
X0125778Y0150492D01*
X0125630Y0150500D01*
X0125483Y0150512D01*
X0125336Y0150528D01*
X0125189Y0150548D01*
X0125043Y0150572D01*
X0124897Y0150599D01*
X0124753Y0150631D01*
X0124609Y0150666D01*
X0124466Y0150706D01*
X0124325Y0150749D01*
X0124184Y0150796D01*
X0124045Y0150846D01*
X0123908Y0150901D01*
X0123772Y0150959D01*
X0123637Y0151020D01*
X0123504Y0151085D01*
X0123373Y0151154D01*
X0123244Y0151226D01*
X0123117Y0151302D01*
X0122992Y0151381D01*
X0122869Y0151464D01*
X0122748Y0151549D01*
X0122630Y0151638D01*
X0122514Y0151730D01*
X0122401Y0151826D01*
X0122290Y0151924D01*
X0122182Y0152025D01*
X0122076Y0152129D01*
X0121974Y0152235D01*
X0121874Y0152345D01*
X0121778Y0152457D01*
X0121684Y0152572D01*
X0121593Y0152689D01*
X0121506Y0152808D01*
X0121422Y0152930D01*
X0121341Y0153054D01*
X0121264Y0153180D01*
X0121190Y0153308D01*
X0121119Y0153438D01*
X0121052Y0153570D01*
X0120989Y0153704D01*
X0120929Y0153839D01*
X0120873Y0153976D01*
X0120820Y0154115D01*
X0120772Y0154255D01*
X0120727Y0154396D01*
X0120686Y0154538D01*
X0120648Y0154681D01*
X0120615Y0154825D01*
X0120585Y0154970D01*
X0120559Y0155116D01*
X0120538Y0155262D01*
X0120520Y0155409D01*
X0120506Y0155556D01*
X0120496Y0155704D01*
X0120490Y0155852D01*
X0120488Y0156000D01*
D11*
X0126000Y0156000D03*
X0016000Y0153500D03*
D12*
X0013400Y0076000D02*
X0018600Y0076000D01*
X0018600Y0066000D02*
X0013400Y0066000D01*
X0013400Y0056000D02*
X0018600Y0056000D01*
X0018600Y0046000D02*
X0013400Y0046000D01*
X0013400Y0036000D02*
X0018600Y0036000D01*
X0018600Y0026000D02*
X0013400Y0026000D01*
X0013400Y0016000D02*
X0018600Y0016000D01*
X0043400Y0016000D02*
X0048600Y0016000D01*
X0048600Y0026000D02*
X0043400Y0026000D01*
X0043400Y0036000D02*
X0048600Y0036000D01*
X0048600Y0046000D02*
X0043400Y0046000D01*
X0043400Y0056000D02*
X0048600Y0056000D01*
X0048600Y0066000D02*
X0043400Y0066000D01*
X0043400Y0076000D02*
X0048600Y0076000D01*
X0058400Y0076000D02*
X0063600Y0076000D01*
X0063600Y0066000D02*
X0058400Y0066000D01*
X0058400Y0056000D02*
X0063600Y0056000D01*
X0063600Y0046000D02*
X0058400Y0046000D01*
X0058400Y0036000D02*
X0063600Y0036000D01*
X0063600Y0026000D02*
X0058400Y0026000D01*
X0058400Y0016000D02*
X0063600Y0016000D01*
X0088400Y0016000D02*
X0093600Y0016000D01*
X0093600Y0026000D02*
X0088400Y0026000D01*
X0088400Y0036000D02*
X0093600Y0036000D01*
X0093600Y0046000D02*
X0088400Y0046000D01*
X0088400Y0056000D02*
X0093600Y0056000D01*
X0093600Y0066000D02*
X0088400Y0066000D01*
X0088400Y0076000D02*
X0093600Y0076000D01*
X0106000Y0068600D02*
X0106000Y0063400D01*
X0116000Y0063400D02*
X0116000Y0068600D01*
X0126000Y0068600D02*
X0126000Y0063400D01*
X0126000Y0043600D02*
X0126000Y0038400D01*
X0116000Y0038400D02*
X0116000Y0043600D01*
X0106000Y0043600D02*
X0106000Y0038400D01*
X0106000Y0018600D02*
X0106000Y0013400D01*
X0116000Y0013400D02*
X0116000Y0018600D01*
X0126000Y0018600D02*
X0126000Y0013400D01*
X0126000Y0088400D02*
X0126000Y0093600D01*
X0116000Y0093600D02*
X0116000Y0088400D01*
X0106000Y0088400D02*
X0106000Y0093600D01*
D13*
X0091000Y0091000D03*
X0091000Y0101000D03*
X0091000Y0111000D03*
X0091000Y0121000D03*
X0091000Y0131000D03*
X0091000Y0141000D03*
X0101000Y0141000D03*
X0101000Y0131000D03*
X0101000Y0121000D03*
X0101000Y0111000D03*
X0131000Y0111000D03*
X0131000Y0121000D03*
X0131000Y0131000D03*
X0131000Y0141000D03*
X0111000Y0151000D03*
X0081000Y0151000D03*
X0066000Y0151000D03*
X0061000Y0141000D03*
X0061000Y0131000D03*
X0061000Y0121000D03*
X0061000Y0111000D03*
X0061000Y0101000D03*
X0061000Y0091000D03*
X0046000Y0091000D03*
X0046000Y0101000D03*
X0046000Y0111000D03*
X0046000Y0121000D03*
X0046000Y0131000D03*
X0046000Y0141000D03*
X0036000Y0151000D03*
X0016000Y0141000D03*
X0016000Y0131000D03*
X0016000Y0121000D03*
X0016000Y0111000D03*
X0016000Y0101000D03*
X0016000Y0091000D03*
D14*
X0016000Y0168000D02*
X0016000Y0174000D01*
X0026000Y0174000D02*
X0026000Y0168000D01*
X0036000Y0168000D02*
X0036000Y0174000D01*
X0046000Y0174000D02*
X0046000Y0168000D01*
X0061000Y0168000D02*
X0061000Y0174000D01*
X0071000Y0174000D02*
X0071000Y0168000D01*
X0081000Y0168000D02*
X0081000Y0174000D01*
X0091000Y0174000D02*
X0091000Y0168000D01*
X0101000Y0168000D02*
X0101000Y0174000D01*
X0111000Y0174000D02*
X0111000Y0168000D01*
X0121000Y0168000D02*
X0121000Y0174000D01*
X0131000Y0174000D02*
X0131000Y0168000D01*
X0143000Y0166000D02*
X0149000Y0166000D01*
X0149000Y0156000D02*
X0143000Y0156000D01*
X0143000Y0146000D02*
X0149000Y0146000D01*
X0149000Y0136000D02*
X0143000Y0136000D01*
X0143000Y0126000D02*
X0149000Y0126000D01*
X0149000Y0116000D02*
X0143000Y0116000D01*
X0143000Y0106000D02*
X0149000Y0106000D01*
X0149000Y0096000D02*
X0143000Y0096000D01*
X0143000Y0086000D02*
X0149000Y0086000D01*
X0149000Y0076000D02*
X0143000Y0076000D01*
X0143000Y0066000D02*
X0149000Y0066000D01*
X0149000Y0056000D02*
X0143000Y0056000D01*
X0143000Y0046000D02*
X0149000Y0046000D01*
X0149000Y0036000D02*
X0143000Y0036000D01*
X0143000Y0026000D02*
X0149000Y0026000D01*
X0149000Y0016000D02*
X0143000Y0016000D01*
D15*
X0128500Y0031625D03*
X0127875Y0056000D03*
X0110375Y0059750D03*
X0102250Y0052250D03*
X0099125Y0066000D03*
X0082875Y0081625D03*
X0077250Y0064750D03*
X0068500Y0041625D03*
X0076000Y0012875D03*
X0050375Y0009125D03*
X0029125Y0029125D03*
X0029125Y0052250D03*
X0032875Y0071000D03*
X0032875Y0078500D03*
X0021625Y0101000D03*
X0032250Y0117875D03*
X0038500Y0117875D03*
X0009125Y0119750D03*
X0067875Y0105375D03*
X0075375Y0116000D03*
X0078500Y0119750D03*
X0099750Y0156625D03*
X0111625Y0139750D03*
X0111000Y0106625D03*
X0111000Y0085375D03*
X0132875Y0096000D03*
X0161625Y0075375D03*
M02*
