G75*
%MOIN*%
%OFA0B0*%
%FSLAX25Y25*%
%IPPOS*%
%LPD*%
%AMOC8*
5,1,8,0,0,1.08239X$1,22.5*
%
%ADD10C,0.00000*%
%ADD11C,0.05200*%
%ADD12OC8,0.05200*%
%ADD13C,0.06000*%
%ADD14C,0.01000*%
%ADD15C,0.04000*%
%ADD16C,0.01600*%
D10*
X0001000Y0001000D02*
X0001000Y0270961D01*
X0139701Y0270961D01*
X0139701Y0001000D01*
X0001000Y0001000D01*
X0015488Y0011000D02*
X0015490Y0011148D01*
X0015496Y0011296D01*
X0015506Y0011444D01*
X0015520Y0011591D01*
X0015538Y0011738D01*
X0015559Y0011884D01*
X0015585Y0012030D01*
X0015615Y0012175D01*
X0015648Y0012319D01*
X0015686Y0012462D01*
X0015727Y0012604D01*
X0015772Y0012745D01*
X0015820Y0012885D01*
X0015873Y0013024D01*
X0015929Y0013161D01*
X0015989Y0013296D01*
X0016052Y0013430D01*
X0016119Y0013562D01*
X0016190Y0013692D01*
X0016264Y0013820D01*
X0016341Y0013946D01*
X0016422Y0014070D01*
X0016506Y0014192D01*
X0016593Y0014311D01*
X0016684Y0014428D01*
X0016778Y0014543D01*
X0016874Y0014655D01*
X0016974Y0014765D01*
X0017076Y0014871D01*
X0017182Y0014975D01*
X0017290Y0015076D01*
X0017401Y0015174D01*
X0017514Y0015270D01*
X0017630Y0015362D01*
X0017748Y0015451D01*
X0017869Y0015536D01*
X0017992Y0015619D01*
X0018117Y0015698D01*
X0018244Y0015774D01*
X0018373Y0015846D01*
X0018504Y0015915D01*
X0018637Y0015980D01*
X0018772Y0016041D01*
X0018908Y0016099D01*
X0019045Y0016154D01*
X0019184Y0016204D01*
X0019325Y0016251D01*
X0019466Y0016294D01*
X0019609Y0016334D01*
X0019753Y0016369D01*
X0019897Y0016401D01*
X0020043Y0016428D01*
X0020189Y0016452D01*
X0020336Y0016472D01*
X0020483Y0016488D01*
X0020630Y0016500D01*
X0020778Y0016508D01*
X0020926Y0016512D01*
X0021074Y0016512D01*
X0021222Y0016508D01*
X0021370Y0016500D01*
X0021517Y0016488D01*
X0021664Y0016472D01*
X0021811Y0016452D01*
X0021957Y0016428D01*
X0022103Y0016401D01*
X0022247Y0016369D01*
X0022391Y0016334D01*
X0022534Y0016294D01*
X0022675Y0016251D01*
X0022816Y0016204D01*
X0022955Y0016154D01*
X0023092Y0016099D01*
X0023228Y0016041D01*
X0023363Y0015980D01*
X0023496Y0015915D01*
X0023627Y0015846D01*
X0023756Y0015774D01*
X0023883Y0015698D01*
X0024008Y0015619D01*
X0024131Y0015536D01*
X0024252Y0015451D01*
X0024370Y0015362D01*
X0024486Y0015270D01*
X0024599Y0015174D01*
X0024710Y0015076D01*
X0024818Y0014975D01*
X0024924Y0014871D01*
X0025026Y0014765D01*
X0025126Y0014655D01*
X0025222Y0014543D01*
X0025316Y0014428D01*
X0025407Y0014311D01*
X0025494Y0014192D01*
X0025578Y0014070D01*
X0025659Y0013946D01*
X0025736Y0013820D01*
X0025810Y0013692D01*
X0025881Y0013562D01*
X0025948Y0013430D01*
X0026011Y0013296D01*
X0026071Y0013161D01*
X0026127Y0013024D01*
X0026180Y0012885D01*
X0026228Y0012745D01*
X0026273Y0012604D01*
X0026314Y0012462D01*
X0026352Y0012319D01*
X0026385Y0012175D01*
X0026415Y0012030D01*
X0026441Y0011884D01*
X0026462Y0011738D01*
X0026480Y0011591D01*
X0026494Y0011444D01*
X0026504Y0011296D01*
X0026510Y0011148D01*
X0026512Y0011000D01*
X0026510Y0010852D01*
X0026504Y0010704D01*
X0026494Y0010556D01*
X0026480Y0010409D01*
X0026462Y0010262D01*
X0026441Y0010116D01*
X0026415Y0009970D01*
X0026385Y0009825D01*
X0026352Y0009681D01*
X0026314Y0009538D01*
X0026273Y0009396D01*
X0026228Y0009255D01*
X0026180Y0009115D01*
X0026127Y0008976D01*
X0026071Y0008839D01*
X0026011Y0008704D01*
X0025948Y0008570D01*
X0025881Y0008438D01*
X0025810Y0008308D01*
X0025736Y0008180D01*
X0025659Y0008054D01*
X0025578Y0007930D01*
X0025494Y0007808D01*
X0025407Y0007689D01*
X0025316Y0007572D01*
X0025222Y0007457D01*
X0025126Y0007345D01*
X0025026Y0007235D01*
X0024924Y0007129D01*
X0024818Y0007025D01*
X0024710Y0006924D01*
X0024599Y0006826D01*
X0024486Y0006730D01*
X0024370Y0006638D01*
X0024252Y0006549D01*
X0024131Y0006464D01*
X0024008Y0006381D01*
X0023883Y0006302D01*
X0023756Y0006226D01*
X0023627Y0006154D01*
X0023496Y0006085D01*
X0023363Y0006020D01*
X0023228Y0005959D01*
X0023092Y0005901D01*
X0022955Y0005846D01*
X0022816Y0005796D01*
X0022675Y0005749D01*
X0022534Y0005706D01*
X0022391Y0005666D01*
X0022247Y0005631D01*
X0022103Y0005599D01*
X0021957Y0005572D01*
X0021811Y0005548D01*
X0021664Y0005528D01*
X0021517Y0005512D01*
X0021370Y0005500D01*
X0021222Y0005492D01*
X0021074Y0005488D01*
X0020926Y0005488D01*
X0020778Y0005492D01*
X0020630Y0005500D01*
X0020483Y0005512D01*
X0020336Y0005528D01*
X0020189Y0005548D01*
X0020043Y0005572D01*
X0019897Y0005599D01*
X0019753Y0005631D01*
X0019609Y0005666D01*
X0019466Y0005706D01*
X0019325Y0005749D01*
X0019184Y0005796D01*
X0019045Y0005846D01*
X0018908Y0005901D01*
X0018772Y0005959D01*
X0018637Y0006020D01*
X0018504Y0006085D01*
X0018373Y0006154D01*
X0018244Y0006226D01*
X0018117Y0006302D01*
X0017992Y0006381D01*
X0017869Y0006464D01*
X0017748Y0006549D01*
X0017630Y0006638D01*
X0017514Y0006730D01*
X0017401Y0006826D01*
X0017290Y0006924D01*
X0017182Y0007025D01*
X0017076Y0007129D01*
X0016974Y0007235D01*
X0016874Y0007345D01*
X0016778Y0007457D01*
X0016684Y0007572D01*
X0016593Y0007689D01*
X0016506Y0007808D01*
X0016422Y0007930D01*
X0016341Y0008054D01*
X0016264Y0008180D01*
X0016190Y0008308D01*
X0016119Y0008438D01*
X0016052Y0008570D01*
X0015989Y0008704D01*
X0015929Y0008839D01*
X0015873Y0008976D01*
X0015820Y0009115D01*
X0015772Y0009255D01*
X0015727Y0009396D01*
X0015686Y0009538D01*
X0015648Y0009681D01*
X0015615Y0009825D01*
X0015585Y0009970D01*
X0015559Y0010116D01*
X0015538Y0010262D01*
X0015520Y0010409D01*
X0015506Y0010556D01*
X0015496Y0010704D01*
X0015490Y0010852D01*
X0015488Y0011000D01*
X0065488Y0011000D02*
X0065490Y0011148D01*
X0065496Y0011296D01*
X0065506Y0011444D01*
X0065520Y0011591D01*
X0065538Y0011738D01*
X0065559Y0011884D01*
X0065585Y0012030D01*
X0065615Y0012175D01*
X0065648Y0012319D01*
X0065686Y0012462D01*
X0065727Y0012604D01*
X0065772Y0012745D01*
X0065820Y0012885D01*
X0065873Y0013024D01*
X0065929Y0013161D01*
X0065989Y0013296D01*
X0066052Y0013430D01*
X0066119Y0013562D01*
X0066190Y0013692D01*
X0066264Y0013820D01*
X0066341Y0013946D01*
X0066422Y0014070D01*
X0066506Y0014192D01*
X0066593Y0014311D01*
X0066684Y0014428D01*
X0066778Y0014543D01*
X0066874Y0014655D01*
X0066974Y0014765D01*
X0067076Y0014871D01*
X0067182Y0014975D01*
X0067290Y0015076D01*
X0067401Y0015174D01*
X0067514Y0015270D01*
X0067630Y0015362D01*
X0067748Y0015451D01*
X0067869Y0015536D01*
X0067992Y0015619D01*
X0068117Y0015698D01*
X0068244Y0015774D01*
X0068373Y0015846D01*
X0068504Y0015915D01*
X0068637Y0015980D01*
X0068772Y0016041D01*
X0068908Y0016099D01*
X0069045Y0016154D01*
X0069184Y0016204D01*
X0069325Y0016251D01*
X0069466Y0016294D01*
X0069609Y0016334D01*
X0069753Y0016369D01*
X0069897Y0016401D01*
X0070043Y0016428D01*
X0070189Y0016452D01*
X0070336Y0016472D01*
X0070483Y0016488D01*
X0070630Y0016500D01*
X0070778Y0016508D01*
X0070926Y0016512D01*
X0071074Y0016512D01*
X0071222Y0016508D01*
X0071370Y0016500D01*
X0071517Y0016488D01*
X0071664Y0016472D01*
X0071811Y0016452D01*
X0071957Y0016428D01*
X0072103Y0016401D01*
X0072247Y0016369D01*
X0072391Y0016334D01*
X0072534Y0016294D01*
X0072675Y0016251D01*
X0072816Y0016204D01*
X0072955Y0016154D01*
X0073092Y0016099D01*
X0073228Y0016041D01*
X0073363Y0015980D01*
X0073496Y0015915D01*
X0073627Y0015846D01*
X0073756Y0015774D01*
X0073883Y0015698D01*
X0074008Y0015619D01*
X0074131Y0015536D01*
X0074252Y0015451D01*
X0074370Y0015362D01*
X0074486Y0015270D01*
X0074599Y0015174D01*
X0074710Y0015076D01*
X0074818Y0014975D01*
X0074924Y0014871D01*
X0075026Y0014765D01*
X0075126Y0014655D01*
X0075222Y0014543D01*
X0075316Y0014428D01*
X0075407Y0014311D01*
X0075494Y0014192D01*
X0075578Y0014070D01*
X0075659Y0013946D01*
X0075736Y0013820D01*
X0075810Y0013692D01*
X0075881Y0013562D01*
X0075948Y0013430D01*
X0076011Y0013296D01*
X0076071Y0013161D01*
X0076127Y0013024D01*
X0076180Y0012885D01*
X0076228Y0012745D01*
X0076273Y0012604D01*
X0076314Y0012462D01*
X0076352Y0012319D01*
X0076385Y0012175D01*
X0076415Y0012030D01*
X0076441Y0011884D01*
X0076462Y0011738D01*
X0076480Y0011591D01*
X0076494Y0011444D01*
X0076504Y0011296D01*
X0076510Y0011148D01*
X0076512Y0011000D01*
X0076510Y0010852D01*
X0076504Y0010704D01*
X0076494Y0010556D01*
X0076480Y0010409D01*
X0076462Y0010262D01*
X0076441Y0010116D01*
X0076415Y0009970D01*
X0076385Y0009825D01*
X0076352Y0009681D01*
X0076314Y0009538D01*
X0076273Y0009396D01*
X0076228Y0009255D01*
X0076180Y0009115D01*
X0076127Y0008976D01*
X0076071Y0008839D01*
X0076011Y0008704D01*
X0075948Y0008570D01*
X0075881Y0008438D01*
X0075810Y0008308D01*
X0075736Y0008180D01*
X0075659Y0008054D01*
X0075578Y0007930D01*
X0075494Y0007808D01*
X0075407Y0007689D01*
X0075316Y0007572D01*
X0075222Y0007457D01*
X0075126Y0007345D01*
X0075026Y0007235D01*
X0074924Y0007129D01*
X0074818Y0007025D01*
X0074710Y0006924D01*
X0074599Y0006826D01*
X0074486Y0006730D01*
X0074370Y0006638D01*
X0074252Y0006549D01*
X0074131Y0006464D01*
X0074008Y0006381D01*
X0073883Y0006302D01*
X0073756Y0006226D01*
X0073627Y0006154D01*
X0073496Y0006085D01*
X0073363Y0006020D01*
X0073228Y0005959D01*
X0073092Y0005901D01*
X0072955Y0005846D01*
X0072816Y0005796D01*
X0072675Y0005749D01*
X0072534Y0005706D01*
X0072391Y0005666D01*
X0072247Y0005631D01*
X0072103Y0005599D01*
X0071957Y0005572D01*
X0071811Y0005548D01*
X0071664Y0005528D01*
X0071517Y0005512D01*
X0071370Y0005500D01*
X0071222Y0005492D01*
X0071074Y0005488D01*
X0070926Y0005488D01*
X0070778Y0005492D01*
X0070630Y0005500D01*
X0070483Y0005512D01*
X0070336Y0005528D01*
X0070189Y0005548D01*
X0070043Y0005572D01*
X0069897Y0005599D01*
X0069753Y0005631D01*
X0069609Y0005666D01*
X0069466Y0005706D01*
X0069325Y0005749D01*
X0069184Y0005796D01*
X0069045Y0005846D01*
X0068908Y0005901D01*
X0068772Y0005959D01*
X0068637Y0006020D01*
X0068504Y0006085D01*
X0068373Y0006154D01*
X0068244Y0006226D01*
X0068117Y0006302D01*
X0067992Y0006381D01*
X0067869Y0006464D01*
X0067748Y0006549D01*
X0067630Y0006638D01*
X0067514Y0006730D01*
X0067401Y0006826D01*
X0067290Y0006924D01*
X0067182Y0007025D01*
X0067076Y0007129D01*
X0066974Y0007235D01*
X0066874Y0007345D01*
X0066778Y0007457D01*
X0066684Y0007572D01*
X0066593Y0007689D01*
X0066506Y0007808D01*
X0066422Y0007930D01*
X0066341Y0008054D01*
X0066264Y0008180D01*
X0066190Y0008308D01*
X0066119Y0008438D01*
X0066052Y0008570D01*
X0065989Y0008704D01*
X0065929Y0008839D01*
X0065873Y0008976D01*
X0065820Y0009115D01*
X0065772Y0009255D01*
X0065727Y0009396D01*
X0065686Y0009538D01*
X0065648Y0009681D01*
X0065615Y0009825D01*
X0065585Y0009970D01*
X0065559Y0010116D01*
X0065538Y0010262D01*
X0065520Y0010409D01*
X0065506Y0010556D01*
X0065496Y0010704D01*
X0065490Y0010852D01*
X0065488Y0011000D01*
X0115488Y0011000D02*
X0115490Y0011148D01*
X0115496Y0011296D01*
X0115506Y0011444D01*
X0115520Y0011591D01*
X0115538Y0011738D01*
X0115559Y0011884D01*
X0115585Y0012030D01*
X0115615Y0012175D01*
X0115648Y0012319D01*
X0115686Y0012462D01*
X0115727Y0012604D01*
X0115772Y0012745D01*
X0115820Y0012885D01*
X0115873Y0013024D01*
X0115929Y0013161D01*
X0115989Y0013296D01*
X0116052Y0013430D01*
X0116119Y0013562D01*
X0116190Y0013692D01*
X0116264Y0013820D01*
X0116341Y0013946D01*
X0116422Y0014070D01*
X0116506Y0014192D01*
X0116593Y0014311D01*
X0116684Y0014428D01*
X0116778Y0014543D01*
X0116874Y0014655D01*
X0116974Y0014765D01*
X0117076Y0014871D01*
X0117182Y0014975D01*
X0117290Y0015076D01*
X0117401Y0015174D01*
X0117514Y0015270D01*
X0117630Y0015362D01*
X0117748Y0015451D01*
X0117869Y0015536D01*
X0117992Y0015619D01*
X0118117Y0015698D01*
X0118244Y0015774D01*
X0118373Y0015846D01*
X0118504Y0015915D01*
X0118637Y0015980D01*
X0118772Y0016041D01*
X0118908Y0016099D01*
X0119045Y0016154D01*
X0119184Y0016204D01*
X0119325Y0016251D01*
X0119466Y0016294D01*
X0119609Y0016334D01*
X0119753Y0016369D01*
X0119897Y0016401D01*
X0120043Y0016428D01*
X0120189Y0016452D01*
X0120336Y0016472D01*
X0120483Y0016488D01*
X0120630Y0016500D01*
X0120778Y0016508D01*
X0120926Y0016512D01*
X0121074Y0016512D01*
X0121222Y0016508D01*
X0121370Y0016500D01*
X0121517Y0016488D01*
X0121664Y0016472D01*
X0121811Y0016452D01*
X0121957Y0016428D01*
X0122103Y0016401D01*
X0122247Y0016369D01*
X0122391Y0016334D01*
X0122534Y0016294D01*
X0122675Y0016251D01*
X0122816Y0016204D01*
X0122955Y0016154D01*
X0123092Y0016099D01*
X0123228Y0016041D01*
X0123363Y0015980D01*
X0123496Y0015915D01*
X0123627Y0015846D01*
X0123756Y0015774D01*
X0123883Y0015698D01*
X0124008Y0015619D01*
X0124131Y0015536D01*
X0124252Y0015451D01*
X0124370Y0015362D01*
X0124486Y0015270D01*
X0124599Y0015174D01*
X0124710Y0015076D01*
X0124818Y0014975D01*
X0124924Y0014871D01*
X0125026Y0014765D01*
X0125126Y0014655D01*
X0125222Y0014543D01*
X0125316Y0014428D01*
X0125407Y0014311D01*
X0125494Y0014192D01*
X0125578Y0014070D01*
X0125659Y0013946D01*
X0125736Y0013820D01*
X0125810Y0013692D01*
X0125881Y0013562D01*
X0125948Y0013430D01*
X0126011Y0013296D01*
X0126071Y0013161D01*
X0126127Y0013024D01*
X0126180Y0012885D01*
X0126228Y0012745D01*
X0126273Y0012604D01*
X0126314Y0012462D01*
X0126352Y0012319D01*
X0126385Y0012175D01*
X0126415Y0012030D01*
X0126441Y0011884D01*
X0126462Y0011738D01*
X0126480Y0011591D01*
X0126494Y0011444D01*
X0126504Y0011296D01*
X0126510Y0011148D01*
X0126512Y0011000D01*
X0126510Y0010852D01*
X0126504Y0010704D01*
X0126494Y0010556D01*
X0126480Y0010409D01*
X0126462Y0010262D01*
X0126441Y0010116D01*
X0126415Y0009970D01*
X0126385Y0009825D01*
X0126352Y0009681D01*
X0126314Y0009538D01*
X0126273Y0009396D01*
X0126228Y0009255D01*
X0126180Y0009115D01*
X0126127Y0008976D01*
X0126071Y0008839D01*
X0126011Y0008704D01*
X0125948Y0008570D01*
X0125881Y0008438D01*
X0125810Y0008308D01*
X0125736Y0008180D01*
X0125659Y0008054D01*
X0125578Y0007930D01*
X0125494Y0007808D01*
X0125407Y0007689D01*
X0125316Y0007572D01*
X0125222Y0007457D01*
X0125126Y0007345D01*
X0125026Y0007235D01*
X0124924Y0007129D01*
X0124818Y0007025D01*
X0124710Y0006924D01*
X0124599Y0006826D01*
X0124486Y0006730D01*
X0124370Y0006638D01*
X0124252Y0006549D01*
X0124131Y0006464D01*
X0124008Y0006381D01*
X0123883Y0006302D01*
X0123756Y0006226D01*
X0123627Y0006154D01*
X0123496Y0006085D01*
X0123363Y0006020D01*
X0123228Y0005959D01*
X0123092Y0005901D01*
X0122955Y0005846D01*
X0122816Y0005796D01*
X0122675Y0005749D01*
X0122534Y0005706D01*
X0122391Y0005666D01*
X0122247Y0005631D01*
X0122103Y0005599D01*
X0121957Y0005572D01*
X0121811Y0005548D01*
X0121664Y0005528D01*
X0121517Y0005512D01*
X0121370Y0005500D01*
X0121222Y0005492D01*
X0121074Y0005488D01*
X0120926Y0005488D01*
X0120778Y0005492D01*
X0120630Y0005500D01*
X0120483Y0005512D01*
X0120336Y0005528D01*
X0120189Y0005548D01*
X0120043Y0005572D01*
X0119897Y0005599D01*
X0119753Y0005631D01*
X0119609Y0005666D01*
X0119466Y0005706D01*
X0119325Y0005749D01*
X0119184Y0005796D01*
X0119045Y0005846D01*
X0118908Y0005901D01*
X0118772Y0005959D01*
X0118637Y0006020D01*
X0118504Y0006085D01*
X0118373Y0006154D01*
X0118244Y0006226D01*
X0118117Y0006302D01*
X0117992Y0006381D01*
X0117869Y0006464D01*
X0117748Y0006549D01*
X0117630Y0006638D01*
X0117514Y0006730D01*
X0117401Y0006826D01*
X0117290Y0006924D01*
X0117182Y0007025D01*
X0117076Y0007129D01*
X0116974Y0007235D01*
X0116874Y0007345D01*
X0116778Y0007457D01*
X0116684Y0007572D01*
X0116593Y0007689D01*
X0116506Y0007808D01*
X0116422Y0007930D01*
X0116341Y0008054D01*
X0116264Y0008180D01*
X0116190Y0008308D01*
X0116119Y0008438D01*
X0116052Y0008570D01*
X0115989Y0008704D01*
X0115929Y0008839D01*
X0115873Y0008976D01*
X0115820Y0009115D01*
X0115772Y0009255D01*
X0115727Y0009396D01*
X0115686Y0009538D01*
X0115648Y0009681D01*
X0115615Y0009825D01*
X0115585Y0009970D01*
X0115559Y0010116D01*
X0115538Y0010262D01*
X0115520Y0010409D01*
X0115506Y0010556D01*
X0115496Y0010704D01*
X0115490Y0010852D01*
X0115488Y0011000D01*
X0115488Y0256000D02*
X0115490Y0256148D01*
X0115496Y0256296D01*
X0115506Y0256444D01*
X0115520Y0256591D01*
X0115538Y0256738D01*
X0115559Y0256884D01*
X0115585Y0257030D01*
X0115615Y0257175D01*
X0115648Y0257319D01*
X0115686Y0257462D01*
X0115727Y0257604D01*
X0115772Y0257745D01*
X0115820Y0257885D01*
X0115873Y0258024D01*
X0115929Y0258161D01*
X0115989Y0258296D01*
X0116052Y0258430D01*
X0116119Y0258562D01*
X0116190Y0258692D01*
X0116264Y0258820D01*
X0116341Y0258946D01*
X0116422Y0259070D01*
X0116506Y0259192D01*
X0116593Y0259311D01*
X0116684Y0259428D01*
X0116778Y0259543D01*
X0116874Y0259655D01*
X0116974Y0259765D01*
X0117076Y0259871D01*
X0117182Y0259975D01*
X0117290Y0260076D01*
X0117401Y0260174D01*
X0117514Y0260270D01*
X0117630Y0260362D01*
X0117748Y0260451D01*
X0117869Y0260536D01*
X0117992Y0260619D01*
X0118117Y0260698D01*
X0118244Y0260774D01*
X0118373Y0260846D01*
X0118504Y0260915D01*
X0118637Y0260980D01*
X0118772Y0261041D01*
X0118908Y0261099D01*
X0119045Y0261154D01*
X0119184Y0261204D01*
X0119325Y0261251D01*
X0119466Y0261294D01*
X0119609Y0261334D01*
X0119753Y0261369D01*
X0119897Y0261401D01*
X0120043Y0261428D01*
X0120189Y0261452D01*
X0120336Y0261472D01*
X0120483Y0261488D01*
X0120630Y0261500D01*
X0120778Y0261508D01*
X0120926Y0261512D01*
X0121074Y0261512D01*
X0121222Y0261508D01*
X0121370Y0261500D01*
X0121517Y0261488D01*
X0121664Y0261472D01*
X0121811Y0261452D01*
X0121957Y0261428D01*
X0122103Y0261401D01*
X0122247Y0261369D01*
X0122391Y0261334D01*
X0122534Y0261294D01*
X0122675Y0261251D01*
X0122816Y0261204D01*
X0122955Y0261154D01*
X0123092Y0261099D01*
X0123228Y0261041D01*
X0123363Y0260980D01*
X0123496Y0260915D01*
X0123627Y0260846D01*
X0123756Y0260774D01*
X0123883Y0260698D01*
X0124008Y0260619D01*
X0124131Y0260536D01*
X0124252Y0260451D01*
X0124370Y0260362D01*
X0124486Y0260270D01*
X0124599Y0260174D01*
X0124710Y0260076D01*
X0124818Y0259975D01*
X0124924Y0259871D01*
X0125026Y0259765D01*
X0125126Y0259655D01*
X0125222Y0259543D01*
X0125316Y0259428D01*
X0125407Y0259311D01*
X0125494Y0259192D01*
X0125578Y0259070D01*
X0125659Y0258946D01*
X0125736Y0258820D01*
X0125810Y0258692D01*
X0125881Y0258562D01*
X0125948Y0258430D01*
X0126011Y0258296D01*
X0126071Y0258161D01*
X0126127Y0258024D01*
X0126180Y0257885D01*
X0126228Y0257745D01*
X0126273Y0257604D01*
X0126314Y0257462D01*
X0126352Y0257319D01*
X0126385Y0257175D01*
X0126415Y0257030D01*
X0126441Y0256884D01*
X0126462Y0256738D01*
X0126480Y0256591D01*
X0126494Y0256444D01*
X0126504Y0256296D01*
X0126510Y0256148D01*
X0126512Y0256000D01*
X0126510Y0255852D01*
X0126504Y0255704D01*
X0126494Y0255556D01*
X0126480Y0255409D01*
X0126462Y0255262D01*
X0126441Y0255116D01*
X0126415Y0254970D01*
X0126385Y0254825D01*
X0126352Y0254681D01*
X0126314Y0254538D01*
X0126273Y0254396D01*
X0126228Y0254255D01*
X0126180Y0254115D01*
X0126127Y0253976D01*
X0126071Y0253839D01*
X0126011Y0253704D01*
X0125948Y0253570D01*
X0125881Y0253438D01*
X0125810Y0253308D01*
X0125736Y0253180D01*
X0125659Y0253054D01*
X0125578Y0252930D01*
X0125494Y0252808D01*
X0125407Y0252689D01*
X0125316Y0252572D01*
X0125222Y0252457D01*
X0125126Y0252345D01*
X0125026Y0252235D01*
X0124924Y0252129D01*
X0124818Y0252025D01*
X0124710Y0251924D01*
X0124599Y0251826D01*
X0124486Y0251730D01*
X0124370Y0251638D01*
X0124252Y0251549D01*
X0124131Y0251464D01*
X0124008Y0251381D01*
X0123883Y0251302D01*
X0123756Y0251226D01*
X0123627Y0251154D01*
X0123496Y0251085D01*
X0123363Y0251020D01*
X0123228Y0250959D01*
X0123092Y0250901D01*
X0122955Y0250846D01*
X0122816Y0250796D01*
X0122675Y0250749D01*
X0122534Y0250706D01*
X0122391Y0250666D01*
X0122247Y0250631D01*
X0122103Y0250599D01*
X0121957Y0250572D01*
X0121811Y0250548D01*
X0121664Y0250528D01*
X0121517Y0250512D01*
X0121370Y0250500D01*
X0121222Y0250492D01*
X0121074Y0250488D01*
X0120926Y0250488D01*
X0120778Y0250492D01*
X0120630Y0250500D01*
X0120483Y0250512D01*
X0120336Y0250528D01*
X0120189Y0250548D01*
X0120043Y0250572D01*
X0119897Y0250599D01*
X0119753Y0250631D01*
X0119609Y0250666D01*
X0119466Y0250706D01*
X0119325Y0250749D01*
X0119184Y0250796D01*
X0119045Y0250846D01*
X0118908Y0250901D01*
X0118772Y0250959D01*
X0118637Y0251020D01*
X0118504Y0251085D01*
X0118373Y0251154D01*
X0118244Y0251226D01*
X0118117Y0251302D01*
X0117992Y0251381D01*
X0117869Y0251464D01*
X0117748Y0251549D01*
X0117630Y0251638D01*
X0117514Y0251730D01*
X0117401Y0251826D01*
X0117290Y0251924D01*
X0117182Y0252025D01*
X0117076Y0252129D01*
X0116974Y0252235D01*
X0116874Y0252345D01*
X0116778Y0252457D01*
X0116684Y0252572D01*
X0116593Y0252689D01*
X0116506Y0252808D01*
X0116422Y0252930D01*
X0116341Y0253054D01*
X0116264Y0253180D01*
X0116190Y0253308D01*
X0116119Y0253438D01*
X0116052Y0253570D01*
X0115989Y0253704D01*
X0115929Y0253839D01*
X0115873Y0253976D01*
X0115820Y0254115D01*
X0115772Y0254255D01*
X0115727Y0254396D01*
X0115686Y0254538D01*
X0115648Y0254681D01*
X0115615Y0254825D01*
X0115585Y0254970D01*
X0115559Y0255116D01*
X0115538Y0255262D01*
X0115520Y0255409D01*
X0115506Y0255556D01*
X0115496Y0255704D01*
X0115490Y0255852D01*
X0115488Y0256000D01*
X0065488Y0256000D02*
X0065490Y0256148D01*
X0065496Y0256296D01*
X0065506Y0256444D01*
X0065520Y0256591D01*
X0065538Y0256738D01*
X0065559Y0256884D01*
X0065585Y0257030D01*
X0065615Y0257175D01*
X0065648Y0257319D01*
X0065686Y0257462D01*
X0065727Y0257604D01*
X0065772Y0257745D01*
X0065820Y0257885D01*
X0065873Y0258024D01*
X0065929Y0258161D01*
X0065989Y0258296D01*
X0066052Y0258430D01*
X0066119Y0258562D01*
X0066190Y0258692D01*
X0066264Y0258820D01*
X0066341Y0258946D01*
X0066422Y0259070D01*
X0066506Y0259192D01*
X0066593Y0259311D01*
X0066684Y0259428D01*
X0066778Y0259543D01*
X0066874Y0259655D01*
X0066974Y0259765D01*
X0067076Y0259871D01*
X0067182Y0259975D01*
X0067290Y0260076D01*
X0067401Y0260174D01*
X0067514Y0260270D01*
X0067630Y0260362D01*
X0067748Y0260451D01*
X0067869Y0260536D01*
X0067992Y0260619D01*
X0068117Y0260698D01*
X0068244Y0260774D01*
X0068373Y0260846D01*
X0068504Y0260915D01*
X0068637Y0260980D01*
X0068772Y0261041D01*
X0068908Y0261099D01*
X0069045Y0261154D01*
X0069184Y0261204D01*
X0069325Y0261251D01*
X0069466Y0261294D01*
X0069609Y0261334D01*
X0069753Y0261369D01*
X0069897Y0261401D01*
X0070043Y0261428D01*
X0070189Y0261452D01*
X0070336Y0261472D01*
X0070483Y0261488D01*
X0070630Y0261500D01*
X0070778Y0261508D01*
X0070926Y0261512D01*
X0071074Y0261512D01*
X0071222Y0261508D01*
X0071370Y0261500D01*
X0071517Y0261488D01*
X0071664Y0261472D01*
X0071811Y0261452D01*
X0071957Y0261428D01*
X0072103Y0261401D01*
X0072247Y0261369D01*
X0072391Y0261334D01*
X0072534Y0261294D01*
X0072675Y0261251D01*
X0072816Y0261204D01*
X0072955Y0261154D01*
X0073092Y0261099D01*
X0073228Y0261041D01*
X0073363Y0260980D01*
X0073496Y0260915D01*
X0073627Y0260846D01*
X0073756Y0260774D01*
X0073883Y0260698D01*
X0074008Y0260619D01*
X0074131Y0260536D01*
X0074252Y0260451D01*
X0074370Y0260362D01*
X0074486Y0260270D01*
X0074599Y0260174D01*
X0074710Y0260076D01*
X0074818Y0259975D01*
X0074924Y0259871D01*
X0075026Y0259765D01*
X0075126Y0259655D01*
X0075222Y0259543D01*
X0075316Y0259428D01*
X0075407Y0259311D01*
X0075494Y0259192D01*
X0075578Y0259070D01*
X0075659Y0258946D01*
X0075736Y0258820D01*
X0075810Y0258692D01*
X0075881Y0258562D01*
X0075948Y0258430D01*
X0076011Y0258296D01*
X0076071Y0258161D01*
X0076127Y0258024D01*
X0076180Y0257885D01*
X0076228Y0257745D01*
X0076273Y0257604D01*
X0076314Y0257462D01*
X0076352Y0257319D01*
X0076385Y0257175D01*
X0076415Y0257030D01*
X0076441Y0256884D01*
X0076462Y0256738D01*
X0076480Y0256591D01*
X0076494Y0256444D01*
X0076504Y0256296D01*
X0076510Y0256148D01*
X0076512Y0256000D01*
X0076510Y0255852D01*
X0076504Y0255704D01*
X0076494Y0255556D01*
X0076480Y0255409D01*
X0076462Y0255262D01*
X0076441Y0255116D01*
X0076415Y0254970D01*
X0076385Y0254825D01*
X0076352Y0254681D01*
X0076314Y0254538D01*
X0076273Y0254396D01*
X0076228Y0254255D01*
X0076180Y0254115D01*
X0076127Y0253976D01*
X0076071Y0253839D01*
X0076011Y0253704D01*
X0075948Y0253570D01*
X0075881Y0253438D01*
X0075810Y0253308D01*
X0075736Y0253180D01*
X0075659Y0253054D01*
X0075578Y0252930D01*
X0075494Y0252808D01*
X0075407Y0252689D01*
X0075316Y0252572D01*
X0075222Y0252457D01*
X0075126Y0252345D01*
X0075026Y0252235D01*
X0074924Y0252129D01*
X0074818Y0252025D01*
X0074710Y0251924D01*
X0074599Y0251826D01*
X0074486Y0251730D01*
X0074370Y0251638D01*
X0074252Y0251549D01*
X0074131Y0251464D01*
X0074008Y0251381D01*
X0073883Y0251302D01*
X0073756Y0251226D01*
X0073627Y0251154D01*
X0073496Y0251085D01*
X0073363Y0251020D01*
X0073228Y0250959D01*
X0073092Y0250901D01*
X0072955Y0250846D01*
X0072816Y0250796D01*
X0072675Y0250749D01*
X0072534Y0250706D01*
X0072391Y0250666D01*
X0072247Y0250631D01*
X0072103Y0250599D01*
X0071957Y0250572D01*
X0071811Y0250548D01*
X0071664Y0250528D01*
X0071517Y0250512D01*
X0071370Y0250500D01*
X0071222Y0250492D01*
X0071074Y0250488D01*
X0070926Y0250488D01*
X0070778Y0250492D01*
X0070630Y0250500D01*
X0070483Y0250512D01*
X0070336Y0250528D01*
X0070189Y0250548D01*
X0070043Y0250572D01*
X0069897Y0250599D01*
X0069753Y0250631D01*
X0069609Y0250666D01*
X0069466Y0250706D01*
X0069325Y0250749D01*
X0069184Y0250796D01*
X0069045Y0250846D01*
X0068908Y0250901D01*
X0068772Y0250959D01*
X0068637Y0251020D01*
X0068504Y0251085D01*
X0068373Y0251154D01*
X0068244Y0251226D01*
X0068117Y0251302D01*
X0067992Y0251381D01*
X0067869Y0251464D01*
X0067748Y0251549D01*
X0067630Y0251638D01*
X0067514Y0251730D01*
X0067401Y0251826D01*
X0067290Y0251924D01*
X0067182Y0252025D01*
X0067076Y0252129D01*
X0066974Y0252235D01*
X0066874Y0252345D01*
X0066778Y0252457D01*
X0066684Y0252572D01*
X0066593Y0252689D01*
X0066506Y0252808D01*
X0066422Y0252930D01*
X0066341Y0253054D01*
X0066264Y0253180D01*
X0066190Y0253308D01*
X0066119Y0253438D01*
X0066052Y0253570D01*
X0065989Y0253704D01*
X0065929Y0253839D01*
X0065873Y0253976D01*
X0065820Y0254115D01*
X0065772Y0254255D01*
X0065727Y0254396D01*
X0065686Y0254538D01*
X0065648Y0254681D01*
X0065615Y0254825D01*
X0065585Y0254970D01*
X0065559Y0255116D01*
X0065538Y0255262D01*
X0065520Y0255409D01*
X0065506Y0255556D01*
X0065496Y0255704D01*
X0065490Y0255852D01*
X0065488Y0256000D01*
X0015488Y0256000D02*
X0015490Y0256148D01*
X0015496Y0256296D01*
X0015506Y0256444D01*
X0015520Y0256591D01*
X0015538Y0256738D01*
X0015559Y0256884D01*
X0015585Y0257030D01*
X0015615Y0257175D01*
X0015648Y0257319D01*
X0015686Y0257462D01*
X0015727Y0257604D01*
X0015772Y0257745D01*
X0015820Y0257885D01*
X0015873Y0258024D01*
X0015929Y0258161D01*
X0015989Y0258296D01*
X0016052Y0258430D01*
X0016119Y0258562D01*
X0016190Y0258692D01*
X0016264Y0258820D01*
X0016341Y0258946D01*
X0016422Y0259070D01*
X0016506Y0259192D01*
X0016593Y0259311D01*
X0016684Y0259428D01*
X0016778Y0259543D01*
X0016874Y0259655D01*
X0016974Y0259765D01*
X0017076Y0259871D01*
X0017182Y0259975D01*
X0017290Y0260076D01*
X0017401Y0260174D01*
X0017514Y0260270D01*
X0017630Y0260362D01*
X0017748Y0260451D01*
X0017869Y0260536D01*
X0017992Y0260619D01*
X0018117Y0260698D01*
X0018244Y0260774D01*
X0018373Y0260846D01*
X0018504Y0260915D01*
X0018637Y0260980D01*
X0018772Y0261041D01*
X0018908Y0261099D01*
X0019045Y0261154D01*
X0019184Y0261204D01*
X0019325Y0261251D01*
X0019466Y0261294D01*
X0019609Y0261334D01*
X0019753Y0261369D01*
X0019897Y0261401D01*
X0020043Y0261428D01*
X0020189Y0261452D01*
X0020336Y0261472D01*
X0020483Y0261488D01*
X0020630Y0261500D01*
X0020778Y0261508D01*
X0020926Y0261512D01*
X0021074Y0261512D01*
X0021222Y0261508D01*
X0021370Y0261500D01*
X0021517Y0261488D01*
X0021664Y0261472D01*
X0021811Y0261452D01*
X0021957Y0261428D01*
X0022103Y0261401D01*
X0022247Y0261369D01*
X0022391Y0261334D01*
X0022534Y0261294D01*
X0022675Y0261251D01*
X0022816Y0261204D01*
X0022955Y0261154D01*
X0023092Y0261099D01*
X0023228Y0261041D01*
X0023363Y0260980D01*
X0023496Y0260915D01*
X0023627Y0260846D01*
X0023756Y0260774D01*
X0023883Y0260698D01*
X0024008Y0260619D01*
X0024131Y0260536D01*
X0024252Y0260451D01*
X0024370Y0260362D01*
X0024486Y0260270D01*
X0024599Y0260174D01*
X0024710Y0260076D01*
X0024818Y0259975D01*
X0024924Y0259871D01*
X0025026Y0259765D01*
X0025126Y0259655D01*
X0025222Y0259543D01*
X0025316Y0259428D01*
X0025407Y0259311D01*
X0025494Y0259192D01*
X0025578Y0259070D01*
X0025659Y0258946D01*
X0025736Y0258820D01*
X0025810Y0258692D01*
X0025881Y0258562D01*
X0025948Y0258430D01*
X0026011Y0258296D01*
X0026071Y0258161D01*
X0026127Y0258024D01*
X0026180Y0257885D01*
X0026228Y0257745D01*
X0026273Y0257604D01*
X0026314Y0257462D01*
X0026352Y0257319D01*
X0026385Y0257175D01*
X0026415Y0257030D01*
X0026441Y0256884D01*
X0026462Y0256738D01*
X0026480Y0256591D01*
X0026494Y0256444D01*
X0026504Y0256296D01*
X0026510Y0256148D01*
X0026512Y0256000D01*
X0026510Y0255852D01*
X0026504Y0255704D01*
X0026494Y0255556D01*
X0026480Y0255409D01*
X0026462Y0255262D01*
X0026441Y0255116D01*
X0026415Y0254970D01*
X0026385Y0254825D01*
X0026352Y0254681D01*
X0026314Y0254538D01*
X0026273Y0254396D01*
X0026228Y0254255D01*
X0026180Y0254115D01*
X0026127Y0253976D01*
X0026071Y0253839D01*
X0026011Y0253704D01*
X0025948Y0253570D01*
X0025881Y0253438D01*
X0025810Y0253308D01*
X0025736Y0253180D01*
X0025659Y0253054D01*
X0025578Y0252930D01*
X0025494Y0252808D01*
X0025407Y0252689D01*
X0025316Y0252572D01*
X0025222Y0252457D01*
X0025126Y0252345D01*
X0025026Y0252235D01*
X0024924Y0252129D01*
X0024818Y0252025D01*
X0024710Y0251924D01*
X0024599Y0251826D01*
X0024486Y0251730D01*
X0024370Y0251638D01*
X0024252Y0251549D01*
X0024131Y0251464D01*
X0024008Y0251381D01*
X0023883Y0251302D01*
X0023756Y0251226D01*
X0023627Y0251154D01*
X0023496Y0251085D01*
X0023363Y0251020D01*
X0023228Y0250959D01*
X0023092Y0250901D01*
X0022955Y0250846D01*
X0022816Y0250796D01*
X0022675Y0250749D01*
X0022534Y0250706D01*
X0022391Y0250666D01*
X0022247Y0250631D01*
X0022103Y0250599D01*
X0021957Y0250572D01*
X0021811Y0250548D01*
X0021664Y0250528D01*
X0021517Y0250512D01*
X0021370Y0250500D01*
X0021222Y0250492D01*
X0021074Y0250488D01*
X0020926Y0250488D01*
X0020778Y0250492D01*
X0020630Y0250500D01*
X0020483Y0250512D01*
X0020336Y0250528D01*
X0020189Y0250548D01*
X0020043Y0250572D01*
X0019897Y0250599D01*
X0019753Y0250631D01*
X0019609Y0250666D01*
X0019466Y0250706D01*
X0019325Y0250749D01*
X0019184Y0250796D01*
X0019045Y0250846D01*
X0018908Y0250901D01*
X0018772Y0250959D01*
X0018637Y0251020D01*
X0018504Y0251085D01*
X0018373Y0251154D01*
X0018244Y0251226D01*
X0018117Y0251302D01*
X0017992Y0251381D01*
X0017869Y0251464D01*
X0017748Y0251549D01*
X0017630Y0251638D01*
X0017514Y0251730D01*
X0017401Y0251826D01*
X0017290Y0251924D01*
X0017182Y0252025D01*
X0017076Y0252129D01*
X0016974Y0252235D01*
X0016874Y0252345D01*
X0016778Y0252457D01*
X0016684Y0252572D01*
X0016593Y0252689D01*
X0016506Y0252808D01*
X0016422Y0252930D01*
X0016341Y0253054D01*
X0016264Y0253180D01*
X0016190Y0253308D01*
X0016119Y0253438D01*
X0016052Y0253570D01*
X0015989Y0253704D01*
X0015929Y0253839D01*
X0015873Y0253976D01*
X0015820Y0254115D01*
X0015772Y0254255D01*
X0015727Y0254396D01*
X0015686Y0254538D01*
X0015648Y0254681D01*
X0015615Y0254825D01*
X0015585Y0254970D01*
X0015559Y0255116D01*
X0015538Y0255262D01*
X0015520Y0255409D01*
X0015506Y0255556D01*
X0015496Y0255704D01*
X0015490Y0255852D01*
X0015488Y0256000D01*
D11*
X0038500Y0186100D02*
X0038500Y0180900D01*
X0048500Y0180900D02*
X0048500Y0186100D01*
X0058500Y0186100D02*
X0058500Y0180900D01*
X0068500Y0180900D02*
X0068500Y0186100D01*
X0078500Y0186100D02*
X0078500Y0180900D01*
X0088500Y0180900D02*
X0088500Y0186100D01*
X0093500Y0193400D02*
X0093500Y0198600D01*
X0103500Y0198600D02*
X0103500Y0193400D01*
X0113500Y0193400D02*
X0113500Y0198600D01*
X0046100Y0161000D02*
X0040900Y0161000D01*
X0040900Y0151000D02*
X0046100Y0151000D01*
X0046100Y0141000D02*
X0040900Y0141000D01*
X0040900Y0131000D02*
X0046100Y0131000D01*
X0046100Y0121000D02*
X0040900Y0121000D01*
X0040900Y0111000D02*
X0046100Y0111000D01*
X0046100Y0101000D02*
X0040900Y0101000D01*
X0040900Y0086000D02*
X0046100Y0086000D01*
X0046100Y0076000D02*
X0040900Y0076000D01*
X0040900Y0066000D02*
X0046100Y0066000D01*
X0046100Y0056000D02*
X0040900Y0056000D01*
X0040900Y0046000D02*
X0046100Y0046000D01*
X0046100Y0036000D02*
X0040900Y0036000D01*
X0040900Y0026000D02*
X0046100Y0026000D01*
X0016100Y0026000D02*
X0010900Y0026000D01*
X0010900Y0036000D02*
X0016100Y0036000D01*
X0016100Y0046000D02*
X0010900Y0046000D01*
X0010900Y0056000D02*
X0016100Y0056000D01*
X0016100Y0066000D02*
X0010900Y0066000D01*
X0010900Y0076000D02*
X0016100Y0076000D01*
X0016100Y0086000D02*
X0010900Y0086000D01*
X0010900Y0101000D02*
X0016100Y0101000D01*
X0016100Y0111000D02*
X0010900Y0111000D01*
X0010900Y0121000D02*
X0016100Y0121000D01*
X0016100Y0131000D02*
X0010900Y0131000D01*
X0010900Y0141000D02*
X0016100Y0141000D01*
X0016100Y0151000D02*
X0010900Y0151000D01*
X0010900Y0161000D02*
X0016100Y0161000D01*
X0018500Y0178400D02*
X0018500Y0183600D01*
X0008500Y0183600D02*
X0008500Y0178400D01*
X0028500Y0178400D02*
X0028500Y0183600D01*
D12*
X0038500Y0201000D03*
X0038500Y0211000D03*
X0048500Y0211000D03*
X0048500Y0201000D03*
X0058500Y0171000D03*
X0058500Y0161000D03*
X0058500Y0151000D03*
X0058500Y0141000D03*
X0058500Y0131000D03*
X0058500Y0121000D03*
X0058500Y0111000D03*
X0058500Y0101000D03*
X0058500Y0091000D03*
X0058500Y0081000D03*
X0058500Y0071000D03*
X0058500Y0061000D03*
X0058500Y0051000D03*
X0058500Y0041000D03*
X0088500Y0041000D03*
X0088500Y0051000D03*
X0088500Y0061000D03*
X0088500Y0071000D03*
X0088500Y0081000D03*
X0088500Y0091000D03*
X0088500Y0101000D03*
X0088500Y0111000D03*
X0088500Y0121000D03*
X0088500Y0131000D03*
X0088500Y0141000D03*
X0088500Y0151000D03*
X0088500Y0161000D03*
X0088500Y0171000D03*
X0078500Y0201000D03*
X0078500Y0211000D03*
X0008500Y0211000D03*
X0008500Y0201000D03*
D13*
X0013500Y0223000D02*
X0013500Y0229000D01*
X0023500Y0229000D02*
X0023500Y0223000D01*
X0033500Y0223000D02*
X0033500Y0229000D01*
X0043500Y0229000D02*
X0043500Y0223000D01*
X0053500Y0223000D02*
X0053500Y0229000D01*
X0063500Y0229000D02*
X0063500Y0223000D01*
X0073500Y0223000D02*
X0073500Y0229000D01*
X0083500Y0229000D02*
X0083500Y0223000D01*
X0098500Y0219000D02*
X0098500Y0213000D01*
X0108500Y0213000D02*
X0108500Y0219000D01*
X0118500Y0219000D02*
X0118500Y0213000D01*
X0128500Y0213000D02*
X0128500Y0219000D01*
X0111500Y0176000D02*
X0105500Y0176000D01*
X0105500Y0166000D02*
X0111500Y0166000D01*
X0111500Y0156000D02*
X0105500Y0156000D01*
X0105500Y0146000D02*
X0111500Y0146000D01*
X0111500Y0136000D02*
X0105500Y0136000D01*
X0105500Y0126000D02*
X0111500Y0126000D01*
X0111500Y0116000D02*
X0105500Y0116000D01*
X0105500Y0106000D02*
X0111500Y0106000D01*
X0111500Y0096000D02*
X0105500Y0096000D01*
X0105500Y0086000D02*
X0111500Y0086000D01*
X0111500Y0076000D02*
X0105500Y0076000D01*
X0105500Y0066000D02*
X0111500Y0066000D01*
X0111500Y0056000D02*
X0105500Y0056000D01*
X0105500Y0046000D02*
X0111500Y0046000D01*
X0111500Y0036000D02*
X0105500Y0036000D01*
X0105500Y0026000D02*
X0111500Y0026000D01*
D14*
X0108500Y0026000D02*
X0089750Y0026000D01*
X0059750Y0056000D01*
X0057250Y0056000D01*
X0053500Y0059750D01*
X0053500Y0066000D01*
X0058500Y0071000D01*
X0058500Y0081000D02*
X0083500Y0056000D01*
X0108500Y0056000D01*
X0113500Y0061000D02*
X0103500Y0061000D01*
X0098500Y0066000D01*
X0083500Y0066000D01*
X0058500Y0091000D01*
X0057250Y0096000D02*
X0051000Y0089750D01*
X0051000Y0084750D01*
X0047250Y0081000D01*
X0039750Y0081000D01*
X0023500Y0097250D01*
X0023500Y0096000D01*
X0013500Y0086000D01*
X0023500Y0097250D02*
X0023500Y0123500D01*
X0016000Y0131000D01*
X0013500Y0131000D01*
X0013500Y0141000D02*
X0008500Y0141000D01*
X0006000Y0138500D01*
X0006000Y0174750D01*
X0008500Y0177250D01*
X0008500Y0181000D01*
X0008500Y0183500D01*
X0016000Y0191000D01*
X0031000Y0191000D01*
X0038500Y0183500D01*
X0043500Y0176000D02*
X0048500Y0181000D01*
X0048500Y0183500D01*
X0048500Y0181000D02*
X0053500Y0176000D01*
X0059750Y0176000D01*
X0062250Y0173500D01*
X0076000Y0173500D01*
X0088500Y0161000D01*
X0096000Y0148500D02*
X0088500Y0141000D01*
X0088500Y0131000D02*
X0083500Y0126000D01*
X0051000Y0126000D01*
X0046000Y0121000D01*
X0043500Y0121000D01*
X0041000Y0121000D01*
X0033500Y0113500D01*
X0033500Y0096000D01*
X0043500Y0086000D01*
X0043500Y0101000D02*
X0043500Y0108500D01*
X0043500Y0111000D01*
X0043500Y0108500D02*
X0051000Y0116000D01*
X0083500Y0116000D01*
X0088500Y0121000D01*
X0087250Y0116000D02*
X0108500Y0116000D01*
X0108500Y0106000D02*
X0087250Y0106000D01*
X0082250Y0101000D01*
X0058500Y0101000D01*
X0057250Y0096000D02*
X0083500Y0096000D01*
X0088500Y0101000D01*
X0083500Y0106000D02*
X0088500Y0111000D01*
X0087250Y0116000D02*
X0082250Y0111000D01*
X0058500Y0111000D01*
X0058500Y0121000D02*
X0082250Y0121000D01*
X0087250Y0126000D01*
X0108500Y0126000D01*
X0111000Y0126000D01*
X0123500Y0113500D01*
X0123500Y0028500D01*
X0113500Y0018500D01*
X0093500Y0018500D01*
X0076000Y0036000D01*
X0043500Y0036000D01*
X0043500Y0046000D02*
X0041000Y0046000D01*
X0028500Y0058500D01*
X0026000Y0056000D01*
X0016000Y0066000D01*
X0013500Y0066000D01*
X0013500Y0056000D02*
X0008500Y0056000D01*
X0006000Y0058500D01*
X0006000Y0138500D01*
X0041000Y0151000D02*
X0018500Y0173500D01*
X0018500Y0181000D01*
X0041000Y0151000D02*
X0043500Y0151000D01*
X0043500Y0161000D02*
X0043500Y0176000D01*
X0058500Y0189750D02*
X0048500Y0199750D01*
X0048500Y0201000D01*
X0048500Y0211000D02*
X0066000Y0193500D01*
X0081000Y0193500D01*
X0088500Y0186000D01*
X0088500Y0183500D01*
X0093500Y0196000D02*
X0093500Y0209750D01*
X0098500Y0214750D01*
X0098500Y0216000D01*
X0108500Y0216000D02*
X0108500Y0212250D01*
X0121000Y0199750D01*
X0121000Y0123500D01*
X0119750Y0103500D02*
X0108500Y0092250D01*
X0108500Y0096000D01*
X0108500Y0092250D02*
X0108500Y0086000D01*
X0108500Y0076000D01*
X0108500Y0066000D01*
X0113500Y0061000D02*
X0116000Y0058500D01*
X0116000Y0051000D01*
X0111000Y0046000D01*
X0108500Y0046000D01*
X0108500Y0036000D02*
X0106000Y0033500D01*
X0086000Y0033500D01*
X0058500Y0061000D01*
X0058500Y0051000D02*
X0051000Y0051000D01*
X0046000Y0046000D01*
X0043500Y0046000D01*
X0042250Y0064750D02*
X0034750Y0064750D01*
X0028500Y0058500D01*
X0026000Y0056000D02*
X0016000Y0046000D01*
X0013500Y0046000D01*
X0032250Y0044750D02*
X0013500Y0026000D01*
X0042250Y0064750D02*
X0043500Y0066000D01*
X0032250Y0082250D02*
X0024750Y0089750D01*
X0049750Y0106000D02*
X0083500Y0106000D01*
X0088500Y0091000D02*
X0088500Y0081000D01*
X0088500Y0071000D01*
X0059750Y0131000D02*
X0058500Y0131000D01*
X0059750Y0131000D02*
X0064750Y0136000D01*
X0108500Y0136000D01*
X0108500Y0146000D02*
X0108500Y0156000D01*
X0108500Y0166000D01*
X0108500Y0176000D01*
X0103500Y0183500D02*
X0096000Y0176000D01*
X0096000Y0148500D01*
X0103500Y0183500D02*
X0103500Y0196000D01*
X0128500Y0218500D02*
X0121000Y0226000D01*
X0083500Y0226000D01*
X0073500Y0226000D01*
X0063500Y0226000D01*
X0053500Y0226000D01*
X0041000Y0216000D02*
X0033500Y0223500D01*
X0033500Y0226000D01*
X0041000Y0216000D02*
X0073500Y0216000D01*
X0078500Y0211000D01*
X0058500Y0189750D02*
X0058500Y0183500D01*
X0058500Y0171000D02*
X0058500Y0161000D01*
X0058500Y0151000D01*
X0058500Y0141000D01*
X0128500Y0216000D02*
X0128500Y0218500D01*
D15*
X0121000Y0123500D03*
X0119750Y0103500D03*
X0049750Y0106000D03*
X0032250Y0082250D03*
X0024750Y0089750D03*
X0032250Y0044750D03*
D16*
X0029766Y0047357D02*
X0020327Y0047357D01*
X0020155Y0047185D02*
X0026870Y0053900D01*
X0028100Y0055130D01*
X0028500Y0055530D01*
X0036845Y0047185D01*
X0036700Y0046835D01*
X0036700Y0045165D01*
X0037339Y0043621D01*
X0038521Y0042439D01*
X0040065Y0041800D01*
X0046935Y0041800D01*
X0048479Y0042439D01*
X0049661Y0043621D01*
X0050300Y0045165D01*
X0050300Y0046835D01*
X0050155Y0047185D01*
X0051870Y0048900D01*
X0054660Y0048900D01*
X0056760Y0046800D01*
X0060240Y0046800D01*
X0062700Y0049260D01*
X0062700Y0050080D01*
X0074680Y0038100D01*
X0061540Y0038100D01*
X0062700Y0039260D01*
X0062700Y0042740D01*
X0060240Y0045200D01*
X0056760Y0045200D01*
X0054300Y0042740D01*
X0054300Y0039260D01*
X0055460Y0038100D01*
X0049776Y0038100D01*
X0049661Y0038379D01*
X0048479Y0039561D01*
X0046935Y0040200D01*
X0040065Y0040200D01*
X0038521Y0039561D01*
X0037339Y0038379D01*
X0036700Y0036835D01*
X0036700Y0035165D01*
X0037339Y0033621D01*
X0038521Y0032439D01*
X0040065Y0031800D01*
X0046935Y0031800D01*
X0048479Y0032439D01*
X0049661Y0033621D01*
X0049776Y0033900D01*
X0075130Y0033900D01*
X0088030Y0021000D01*
X0073521Y0021000D01*
X0072358Y0021312D01*
X0069642Y0021312D01*
X0068479Y0021000D01*
X0023521Y0021000D01*
X0022358Y0021312D01*
X0019642Y0021312D01*
X0018479Y0021000D01*
X0008500Y0021000D01*
X0008500Y0022460D01*
X0008521Y0022439D01*
X0010065Y0021800D01*
X0016935Y0021800D01*
X0018479Y0022439D01*
X0019661Y0023621D01*
X0020300Y0025165D01*
X0020300Y0026835D01*
X0019661Y0028379D01*
X0019255Y0028785D01*
X0031620Y0041150D01*
X0032966Y0041150D01*
X0034289Y0041698D01*
X0035302Y0042711D01*
X0035850Y0044034D01*
X0035850Y0045466D01*
X0035302Y0046789D01*
X0034289Y0047802D01*
X0032966Y0048350D01*
X0031534Y0048350D01*
X0030211Y0047802D01*
X0029198Y0046789D01*
X0028650Y0045466D01*
X0028650Y0044120D01*
X0020300Y0035770D01*
X0020300Y0036835D01*
X0019661Y0038379D01*
X0018479Y0039561D01*
X0016935Y0040200D01*
X0010065Y0040200D01*
X0008521Y0039561D01*
X0008500Y0039540D01*
X0008500Y0042460D01*
X0008521Y0042439D01*
X0010065Y0041800D01*
X0016935Y0041800D01*
X0018479Y0042439D01*
X0019661Y0043621D01*
X0020300Y0045165D01*
X0020300Y0046835D01*
X0020155Y0047185D01*
X0020300Y0045758D02*
X0028771Y0045758D01*
X0028650Y0044160D02*
X0019884Y0044160D01*
X0018601Y0042561D02*
X0027091Y0042561D01*
X0025493Y0040963D02*
X0008500Y0040963D01*
X0008500Y0049540D02*
X0008500Y0052460D01*
X0008521Y0052439D01*
X0010065Y0051800D01*
X0016935Y0051800D01*
X0018479Y0052439D01*
X0019661Y0053621D01*
X0020300Y0055165D01*
X0020300Y0056835D01*
X0019661Y0058379D01*
X0018479Y0059561D01*
X0016935Y0060200D01*
X0010065Y0060200D01*
X0008521Y0059561D01*
X0008500Y0059540D01*
X0008500Y0062460D01*
X0008521Y0062439D01*
X0010065Y0061800D01*
X0016935Y0061800D01*
X0017144Y0061886D01*
X0023030Y0056000D01*
X0017144Y0050114D01*
X0016935Y0050200D01*
X0010065Y0050200D01*
X0008521Y0049561D01*
X0008500Y0049540D01*
X0008500Y0050554D02*
X0017584Y0050554D01*
X0017786Y0052152D02*
X0019183Y0052152D01*
X0019714Y0053751D02*
X0020781Y0053751D01*
X0020300Y0055349D02*
X0022380Y0055349D01*
X0022082Y0056948D02*
X0020253Y0056948D01*
X0020484Y0058546D02*
X0019493Y0058546D01*
X0018885Y0060145D02*
X0017068Y0060145D01*
X0017287Y0061743D02*
X0008500Y0061743D01*
X0008500Y0060145D02*
X0009932Y0060145D01*
X0009214Y0052152D02*
X0008500Y0052152D01*
X0008500Y0069540D02*
X0008500Y0072460D01*
X0008521Y0072439D01*
X0010065Y0071800D01*
X0016935Y0071800D01*
X0018479Y0072439D01*
X0019661Y0073621D01*
X0020300Y0075165D01*
X0020300Y0076835D01*
X0019661Y0078379D01*
X0018479Y0079561D01*
X0016935Y0080200D01*
X0010065Y0080200D01*
X0008521Y0079561D01*
X0008500Y0079540D01*
X0008500Y0082460D01*
X0008521Y0082439D01*
X0010065Y0081800D01*
X0016935Y0081800D01*
X0018479Y0082439D01*
X0019661Y0083621D01*
X0020300Y0085165D01*
X0020300Y0086835D01*
X0019661Y0088379D01*
X0019255Y0088785D01*
X0021301Y0090832D01*
X0021150Y0090466D01*
X0021150Y0089034D01*
X0021698Y0087711D01*
X0022711Y0086698D01*
X0024034Y0086150D01*
X0025380Y0086150D01*
X0028650Y0082880D01*
X0028650Y0081534D01*
X0029198Y0080211D01*
X0030211Y0079198D01*
X0031534Y0078650D01*
X0032966Y0078650D01*
X0034289Y0079198D01*
X0035302Y0080211D01*
X0035850Y0081534D01*
X0035850Y0081930D01*
X0038370Y0079410D01*
X0037339Y0078379D01*
X0036700Y0076835D01*
X0036700Y0075165D01*
X0037339Y0073621D01*
X0038521Y0072439D01*
X0040065Y0071800D01*
X0046935Y0071800D01*
X0048479Y0072439D01*
X0049661Y0073621D01*
X0050300Y0075165D01*
X0050300Y0076835D01*
X0049661Y0078379D01*
X0048630Y0079410D01*
X0049350Y0080130D01*
X0053100Y0083880D01*
X0053100Y0088880D01*
X0054300Y0090080D01*
X0054300Y0089260D01*
X0056760Y0086800D01*
X0059730Y0086800D01*
X0081400Y0065130D01*
X0082630Y0063900D01*
X0085460Y0063900D01*
X0084300Y0062740D01*
X0084300Y0059260D01*
X0085460Y0058100D01*
X0084370Y0058100D01*
X0062700Y0079770D01*
X0062700Y0082740D01*
X0060240Y0085200D01*
X0056760Y0085200D01*
X0054300Y0082740D01*
X0054300Y0079260D01*
X0056760Y0076800D01*
X0059730Y0076800D01*
X0081400Y0055130D01*
X0082630Y0053900D01*
X0085460Y0053900D01*
X0084300Y0052740D01*
X0084300Y0049260D01*
X0086760Y0046800D01*
X0090240Y0046800D01*
X0092700Y0049260D01*
X0092700Y0052740D01*
X0091540Y0053900D01*
X0101391Y0053900D01*
X0101600Y0053394D01*
X0102894Y0052100D01*
X0104585Y0051400D01*
X0112415Y0051400D01*
X0113500Y0051849D01*
X0113500Y0051470D01*
X0112567Y0050537D01*
X0112415Y0050600D01*
X0104585Y0050600D01*
X0102894Y0049900D01*
X0101600Y0048606D01*
X0100900Y0046915D01*
X0100900Y0045085D01*
X0101600Y0043394D01*
X0102894Y0042100D01*
X0104585Y0041400D01*
X0112415Y0041400D01*
X0113500Y0041849D01*
X0113500Y0040151D01*
X0112415Y0040600D01*
X0104585Y0040600D01*
X0102894Y0039900D01*
X0101600Y0038606D01*
X0100900Y0036915D01*
X0100900Y0035600D01*
X0086870Y0035600D01*
X0062700Y0059770D01*
X0062700Y0062740D01*
X0060240Y0065200D01*
X0056760Y0065200D01*
X0055600Y0064040D01*
X0055600Y0065130D01*
X0057270Y0066800D01*
X0060240Y0066800D01*
X0062700Y0069260D01*
X0062700Y0072740D01*
X0060240Y0075200D01*
X0056760Y0075200D01*
X0054300Y0072740D01*
X0054300Y0069770D01*
X0052630Y0068100D01*
X0051400Y0066870D01*
X0051400Y0058880D01*
X0055150Y0055130D01*
X0055920Y0054360D01*
X0054660Y0053100D01*
X0050130Y0053100D01*
X0047144Y0050114D01*
X0046935Y0050200D01*
X0040065Y0050200D01*
X0039856Y0050114D01*
X0031470Y0058500D01*
X0035620Y0062650D01*
X0038310Y0062650D01*
X0038521Y0062439D01*
X0040065Y0061800D01*
X0046935Y0061800D01*
X0048479Y0062439D01*
X0049661Y0063621D01*
X0050300Y0065165D01*
X0050300Y0066835D01*
X0049661Y0068379D01*
X0048479Y0069561D01*
X0046935Y0070200D01*
X0040065Y0070200D01*
X0038521Y0069561D01*
X0037339Y0068379D01*
X0036706Y0066850D01*
X0033880Y0066850D01*
X0032650Y0065620D01*
X0027630Y0060600D01*
X0026400Y0059370D01*
X0026000Y0058970D01*
X0020155Y0064815D01*
X0020300Y0065165D01*
X0020300Y0066835D01*
X0019661Y0068379D01*
X0018479Y0069561D01*
X0016935Y0070200D01*
X0010065Y0070200D01*
X0008521Y0069561D01*
X0008500Y0069540D01*
X0008500Y0069736D02*
X0008944Y0069736D01*
X0008500Y0071334D02*
X0054300Y0071334D01*
X0054266Y0069736D02*
X0048056Y0069736D01*
X0049761Y0068137D02*
X0052668Y0068137D01*
X0051400Y0066539D02*
X0050300Y0066539D01*
X0050207Y0064940D02*
X0051400Y0064940D01*
X0051400Y0063342D02*
X0049382Y0063342D01*
X0051400Y0061743D02*
X0034713Y0061743D01*
X0033115Y0060145D02*
X0039932Y0060145D01*
X0040065Y0060200D02*
X0038521Y0059561D01*
X0037339Y0058379D01*
X0036700Y0056835D01*
X0036700Y0055165D01*
X0037339Y0053621D01*
X0038521Y0052439D01*
X0040065Y0051800D01*
X0046935Y0051800D01*
X0048479Y0052439D01*
X0049661Y0053621D01*
X0050300Y0055165D01*
X0050300Y0056835D01*
X0049661Y0058379D01*
X0048479Y0059561D01*
X0046935Y0060200D01*
X0040065Y0060200D01*
X0037507Y0058546D02*
X0031516Y0058546D01*
X0033022Y0056948D02*
X0036747Y0056948D01*
X0036700Y0055349D02*
X0034620Y0055349D01*
X0036219Y0053751D02*
X0037286Y0053751D01*
X0037817Y0052152D02*
X0039214Y0052152D01*
X0039416Y0050554D02*
X0047584Y0050554D01*
X0047786Y0052152D02*
X0049183Y0052152D01*
X0049714Y0053751D02*
X0055311Y0053751D01*
X0054931Y0055349D02*
X0050300Y0055349D01*
X0050253Y0056948D02*
X0053332Y0056948D01*
X0051734Y0058546D02*
X0049493Y0058546D01*
X0051400Y0060145D02*
X0047068Y0060145D01*
X0048973Y0072933D02*
X0054493Y0072933D01*
X0056092Y0074532D02*
X0050038Y0074532D01*
X0050300Y0076130D02*
X0060400Y0076130D01*
X0060908Y0074532D02*
X0061999Y0074532D01*
X0062507Y0072933D02*
X0063597Y0072933D01*
X0062700Y0071334D02*
X0065196Y0071334D01*
X0066794Y0069736D02*
X0062700Y0069736D01*
X0061577Y0068137D02*
X0068393Y0068137D01*
X0069991Y0066539D02*
X0057009Y0066539D01*
X0056501Y0064940D02*
X0055600Y0064940D01*
X0060499Y0064940D02*
X0071590Y0064940D01*
X0073188Y0063342D02*
X0062098Y0063342D01*
X0062700Y0061743D02*
X0074787Y0061743D01*
X0076385Y0060145D02*
X0062700Y0060145D01*
X0063923Y0058546D02*
X0077984Y0058546D01*
X0079582Y0056948D02*
X0065522Y0056948D01*
X0067120Y0055349D02*
X0081181Y0055349D01*
X0083923Y0058546D02*
X0085014Y0058546D01*
X0084300Y0060145D02*
X0082325Y0060145D01*
X0080726Y0061743D02*
X0084300Y0061743D01*
X0084902Y0063342D02*
X0079128Y0063342D01*
X0077529Y0064940D02*
X0081590Y0064940D01*
X0079991Y0066539D02*
X0075931Y0066539D01*
X0074332Y0068137D02*
X0078393Y0068137D01*
X0076794Y0069736D02*
X0072734Y0069736D01*
X0071135Y0071334D02*
X0075196Y0071334D01*
X0073597Y0072933D02*
X0069537Y0072933D01*
X0067938Y0074532D02*
X0071999Y0074532D01*
X0070400Y0076130D02*
X0066340Y0076130D01*
X0064741Y0077729D02*
X0068802Y0077729D01*
X0067203Y0079327D02*
X0063143Y0079327D01*
X0062700Y0080926D02*
X0065605Y0080926D01*
X0064006Y0082524D02*
X0062700Y0082524D01*
X0062408Y0084123D02*
X0061317Y0084123D01*
X0060809Y0085721D02*
X0053100Y0085721D01*
X0053100Y0084123D02*
X0055683Y0084123D01*
X0054300Y0082524D02*
X0051744Y0082524D01*
X0050145Y0080926D02*
X0054300Y0080926D01*
X0054300Y0079327D02*
X0048713Y0079327D01*
X0049930Y0077729D02*
X0055832Y0077729D01*
X0056241Y0087320D02*
X0053100Y0087320D01*
X0053138Y0088918D02*
X0054642Y0088918D01*
X0051994Y0093714D02*
X0038756Y0093714D01*
X0037158Y0095312D02*
X0053592Y0095312D01*
X0055191Y0096911D02*
X0047203Y0096911D01*
X0046935Y0096800D02*
X0048479Y0097439D01*
X0049661Y0098621D01*
X0050300Y0100165D01*
X0050300Y0101835D01*
X0050066Y0102400D01*
X0050466Y0102400D01*
X0051789Y0102948D01*
X0052741Y0103900D01*
X0055460Y0103900D01*
X0054300Y0102740D01*
X0054300Y0099260D01*
X0055920Y0097640D01*
X0050130Y0091850D01*
X0048900Y0090620D01*
X0048900Y0089140D01*
X0048479Y0089561D01*
X0046935Y0090200D01*
X0042270Y0090200D01*
X0035600Y0096870D01*
X0035600Y0112630D01*
X0039856Y0116886D01*
X0040065Y0116800D01*
X0046935Y0116800D01*
X0048479Y0117439D01*
X0049661Y0118621D01*
X0050300Y0120165D01*
X0050300Y0121835D01*
X0050155Y0122185D01*
X0051870Y0123900D01*
X0055460Y0123900D01*
X0054300Y0122740D01*
X0054300Y0119260D01*
X0055460Y0118100D01*
X0050130Y0118100D01*
X0047144Y0115114D01*
X0046935Y0115200D01*
X0040065Y0115200D01*
X0038521Y0114561D01*
X0037339Y0113379D01*
X0036700Y0111835D01*
X0036700Y0110165D01*
X0037339Y0108621D01*
X0038521Y0107439D01*
X0040065Y0106800D01*
X0041400Y0106800D01*
X0041400Y0105200D01*
X0040065Y0105200D01*
X0038521Y0104561D01*
X0037339Y0103379D01*
X0036700Y0101835D01*
X0036700Y0100165D01*
X0037339Y0098621D01*
X0038521Y0097439D01*
X0040065Y0096800D01*
X0046935Y0096800D01*
X0049549Y0098509D02*
X0055051Y0098509D01*
X0054300Y0100108D02*
X0050276Y0100108D01*
X0050300Y0101706D02*
X0054300Y0101706D01*
X0054865Y0103305D02*
X0052146Y0103305D01*
X0052741Y0108100D02*
X0051789Y0109052D01*
X0050466Y0109600D01*
X0050066Y0109600D01*
X0050300Y0110165D01*
X0050300Y0111835D01*
X0050155Y0112185D01*
X0051870Y0113900D01*
X0055460Y0113900D01*
X0054300Y0112740D01*
X0054300Y0109260D01*
X0055460Y0108100D01*
X0052741Y0108100D01*
X0055460Y0108100D01*
X0054300Y0109699D02*
X0050107Y0109699D01*
X0050300Y0111297D02*
X0054300Y0111297D01*
X0054456Y0112896D02*
X0050866Y0112896D01*
X0048123Y0116093D02*
X0039063Y0116093D01*
X0038455Y0114494D02*
X0037464Y0114494D01*
X0037139Y0112896D02*
X0035866Y0112896D01*
X0035600Y0111297D02*
X0036700Y0111297D01*
X0036893Y0109699D02*
X0035600Y0109699D01*
X0035600Y0108100D02*
X0037860Y0108100D01*
X0035600Y0106502D02*
X0041400Y0106502D01*
X0039348Y0104903D02*
X0035600Y0104903D01*
X0035600Y0103305D02*
X0037309Y0103305D01*
X0036700Y0101706D02*
X0035600Y0101706D01*
X0035600Y0100108D02*
X0036724Y0100108D01*
X0037451Y0098509D02*
X0035600Y0098509D01*
X0035600Y0096911D02*
X0039797Y0096911D01*
X0040355Y0092115D02*
X0050395Y0092115D01*
X0048900Y0090517D02*
X0041953Y0090517D01*
X0037745Y0088785D02*
X0037339Y0088379D01*
X0036754Y0086966D01*
X0025600Y0098120D01*
X0025600Y0124370D01*
X0020155Y0129815D01*
X0020300Y0130165D01*
X0020300Y0131835D01*
X0019661Y0133379D01*
X0018479Y0134561D01*
X0016935Y0135200D01*
X0010065Y0135200D01*
X0008521Y0134561D01*
X0008500Y0134540D01*
X0008500Y0137460D01*
X0008521Y0137439D01*
X0010065Y0136800D01*
X0016935Y0136800D01*
X0018479Y0137439D01*
X0019661Y0138621D01*
X0020300Y0140165D01*
X0020300Y0141835D01*
X0019661Y0143379D01*
X0018479Y0144561D01*
X0016935Y0145200D01*
X0010065Y0145200D01*
X0008521Y0144561D01*
X0008500Y0144540D01*
X0008500Y0147460D01*
X0008521Y0147439D01*
X0010065Y0146800D01*
X0016935Y0146800D01*
X0018479Y0147439D01*
X0019661Y0148621D01*
X0020300Y0150165D01*
X0020300Y0151835D01*
X0019661Y0153379D01*
X0018479Y0154561D01*
X0016935Y0155200D01*
X0010065Y0155200D01*
X0008521Y0154561D01*
X0008500Y0154540D01*
X0008500Y0157460D01*
X0008521Y0157439D01*
X0010065Y0156800D01*
X0016935Y0156800D01*
X0018479Y0157439D01*
X0019661Y0158621D01*
X0020300Y0160165D01*
X0020300Y0161835D01*
X0019661Y0163379D01*
X0018479Y0164561D01*
X0016935Y0165200D01*
X0010065Y0165200D01*
X0008521Y0164561D01*
X0008500Y0164540D01*
X0008500Y0174200D01*
X0009335Y0174200D01*
X0010879Y0174839D01*
X0012061Y0176021D01*
X0012700Y0177565D01*
X0012700Y0184435D01*
X0012614Y0184644D01*
X0016870Y0188900D01*
X0030130Y0188900D01*
X0034300Y0184730D01*
X0034300Y0180065D01*
X0034939Y0178521D01*
X0036121Y0177339D01*
X0037665Y0176700D01*
X0039335Y0176700D01*
X0040879Y0177339D01*
X0042061Y0178521D01*
X0042700Y0180065D01*
X0042700Y0186935D01*
X0042061Y0188479D01*
X0040879Y0189661D01*
X0039335Y0190300D01*
X0037665Y0190300D01*
X0036121Y0189661D01*
X0035715Y0189255D01*
X0033100Y0191870D01*
X0031870Y0193100D01*
X0015130Y0193100D01*
X0009685Y0187655D01*
X0009335Y0187800D01*
X0008500Y0187800D01*
X0008500Y0196800D01*
X0010240Y0196800D01*
X0012700Y0199260D01*
X0012700Y0202740D01*
X0010240Y0205200D01*
X0008500Y0205200D01*
X0008500Y0206800D01*
X0010240Y0206800D01*
X0012700Y0209260D01*
X0012700Y0212740D01*
X0010240Y0215200D01*
X0008500Y0215200D01*
X0008500Y0231000D01*
X0009349Y0231000D01*
X0008900Y0229915D01*
X0008900Y0222085D01*
X0009600Y0220394D01*
X0010894Y0219100D01*
X0012585Y0218400D01*
X0014415Y0218400D01*
X0016106Y0219100D01*
X0017400Y0220394D01*
X0018100Y0222085D01*
X0018100Y0229915D01*
X0017651Y0231000D01*
X0019349Y0231000D01*
X0018900Y0229915D01*
X0018900Y0222085D01*
X0019600Y0220394D01*
X0020894Y0219100D01*
X0022585Y0218400D01*
X0024415Y0218400D01*
X0026106Y0219100D01*
X0027400Y0220394D01*
X0028100Y0222085D01*
X0028100Y0229915D01*
X0027651Y0231000D01*
X0029349Y0231000D01*
X0028900Y0229915D01*
X0028900Y0222085D01*
X0029600Y0220394D01*
X0030894Y0219100D01*
X0032585Y0218400D01*
X0034415Y0218400D01*
X0035274Y0218756D01*
X0038830Y0215200D01*
X0036760Y0215200D01*
X0034300Y0212740D01*
X0034300Y0209260D01*
X0036760Y0206800D01*
X0040240Y0206800D01*
X0042700Y0209260D01*
X0042700Y0212740D01*
X0041540Y0213900D01*
X0045460Y0213900D01*
X0044300Y0212740D01*
X0044300Y0209260D01*
X0046760Y0206800D01*
X0049730Y0206800D01*
X0063900Y0192630D01*
X0065130Y0191400D01*
X0080130Y0191400D01*
X0084386Y0187144D01*
X0084300Y0186935D01*
X0084300Y0180065D01*
X0084939Y0178521D01*
X0086121Y0177339D01*
X0087665Y0176700D01*
X0089335Y0176700D01*
X0090879Y0177339D01*
X0092061Y0178521D01*
X0092700Y0180065D01*
X0092700Y0186935D01*
X0092061Y0188479D01*
X0090879Y0189661D01*
X0089335Y0190300D01*
X0087665Y0190300D01*
X0087315Y0190155D01*
X0081870Y0195600D01*
X0066870Y0195600D01*
X0052700Y0209770D01*
X0052700Y0212740D01*
X0051540Y0213900D01*
X0072630Y0213900D01*
X0074300Y0212230D01*
X0074300Y0209260D01*
X0076760Y0206800D01*
X0080240Y0206800D01*
X0082700Y0209260D01*
X0082700Y0212740D01*
X0080240Y0215200D01*
X0077270Y0215200D01*
X0075600Y0216870D01*
X0074370Y0218100D01*
X0041870Y0218100D01*
X0038037Y0221933D01*
X0038100Y0222085D01*
X0038100Y0229915D01*
X0037651Y0231000D01*
X0039349Y0231000D01*
X0038900Y0229915D01*
X0038900Y0222085D01*
X0039600Y0220394D01*
X0040894Y0219100D01*
X0042585Y0218400D01*
X0044415Y0218400D01*
X0046106Y0219100D01*
X0047400Y0220394D01*
X0048100Y0222085D01*
X0048100Y0229915D01*
X0047651Y0231000D01*
X0049349Y0231000D01*
X0048900Y0229915D01*
X0048900Y0222085D01*
X0049600Y0220394D01*
X0050894Y0219100D01*
X0052585Y0218400D01*
X0054415Y0218400D01*
X0056106Y0219100D01*
X0057400Y0220394D01*
X0058100Y0222085D01*
X0058100Y0223900D01*
X0058900Y0223900D01*
X0058900Y0222085D01*
X0059600Y0220394D01*
X0060894Y0219100D01*
X0062585Y0218400D01*
X0064415Y0218400D01*
X0066106Y0219100D01*
X0067400Y0220394D01*
X0068100Y0222085D01*
X0068100Y0223900D01*
X0068900Y0223900D01*
X0068900Y0222085D01*
X0069600Y0220394D01*
X0070894Y0219100D01*
X0072585Y0218400D01*
X0074415Y0218400D01*
X0076106Y0219100D01*
X0077400Y0220394D01*
X0078100Y0222085D01*
X0078100Y0223900D01*
X0078900Y0223900D01*
X0078900Y0222085D01*
X0079600Y0220394D01*
X0080894Y0219100D01*
X0082585Y0218400D01*
X0084415Y0218400D01*
X0086106Y0219100D01*
X0087400Y0220394D01*
X0088100Y0222085D01*
X0088100Y0223900D01*
X0093500Y0223900D01*
X0093500Y0221000D01*
X0094349Y0221000D01*
X0093900Y0219915D01*
X0093900Y0213120D01*
X0091400Y0210620D01*
X0091400Y0202276D01*
X0091121Y0202161D01*
X0089939Y0200979D01*
X0089300Y0199435D01*
X0089300Y0192565D01*
X0089939Y0191021D01*
X0091121Y0189839D01*
X0092665Y0189200D01*
X0094335Y0189200D01*
X0095879Y0189839D01*
X0097061Y0191021D01*
X0097700Y0192565D01*
X0097700Y0199435D01*
X0097061Y0200979D01*
X0095879Y0202161D01*
X0095600Y0202276D01*
X0095600Y0208880D01*
X0095857Y0209137D01*
X0095894Y0209100D01*
X0097585Y0208400D01*
X0099415Y0208400D01*
X0101106Y0209100D01*
X0102400Y0210394D01*
X0103100Y0212085D01*
X0103100Y0219915D01*
X0102651Y0221000D01*
X0104349Y0221000D01*
X0103900Y0219915D01*
X0103900Y0212085D01*
X0104600Y0210394D01*
X0105894Y0209100D01*
X0107585Y0208400D01*
X0109380Y0208400D01*
X0115436Y0202344D01*
X0114335Y0202800D01*
X0112665Y0202800D01*
X0111121Y0202161D01*
X0109939Y0200979D01*
X0109300Y0199435D01*
X0109300Y0192565D01*
X0109939Y0191021D01*
X0111121Y0189839D01*
X0112665Y0189200D01*
X0113500Y0189200D01*
X0113500Y0180151D01*
X0112415Y0180600D01*
X0104585Y0180600D01*
X0102894Y0179900D01*
X0101600Y0178606D01*
X0100900Y0176915D01*
X0100900Y0175085D01*
X0101600Y0173394D01*
X0102894Y0172100D01*
X0104585Y0171400D01*
X0106400Y0171400D01*
X0106400Y0170600D01*
X0104585Y0170600D01*
X0102894Y0169900D01*
X0101600Y0168606D01*
X0100900Y0166915D01*
X0100900Y0165085D01*
X0101600Y0163394D01*
X0102894Y0162100D01*
X0104585Y0161400D01*
X0106400Y0161400D01*
X0106400Y0160600D01*
X0104585Y0160600D01*
X0102894Y0159900D01*
X0101600Y0158606D01*
X0100900Y0156915D01*
X0100900Y0155085D01*
X0101600Y0153394D01*
X0102894Y0152100D01*
X0104585Y0151400D01*
X0106400Y0151400D01*
X0106400Y0150600D01*
X0104585Y0150600D01*
X0102894Y0149900D01*
X0101600Y0148606D01*
X0100900Y0146915D01*
X0100900Y0145085D01*
X0101600Y0143394D01*
X0102894Y0142100D01*
X0104585Y0141400D01*
X0112415Y0141400D01*
X0113500Y0141849D01*
X0113500Y0140151D01*
X0112415Y0140600D01*
X0104585Y0140600D01*
X0102894Y0139900D01*
X0101600Y0138606D01*
X0101391Y0138100D01*
X0091540Y0138100D01*
X0092700Y0139260D01*
X0092700Y0142230D01*
X0098100Y0147630D01*
X0098100Y0175130D01*
X0105600Y0182630D01*
X0105600Y0189724D01*
X0105879Y0189839D01*
X0107061Y0191021D01*
X0107700Y0192565D01*
X0107700Y0199435D01*
X0107061Y0200979D01*
X0105879Y0202161D01*
X0104335Y0202800D01*
X0102665Y0202800D01*
X0101121Y0202161D01*
X0099939Y0200979D01*
X0099300Y0199435D01*
X0099300Y0192565D01*
X0099939Y0191021D01*
X0101121Y0189839D01*
X0101400Y0189724D01*
X0101400Y0184370D01*
X0095130Y0178100D01*
X0093900Y0176870D01*
X0093900Y0149370D01*
X0089730Y0145200D01*
X0086760Y0145200D01*
X0084300Y0142740D01*
X0084300Y0139260D01*
X0085460Y0138100D01*
X0063880Y0138100D01*
X0060610Y0134830D01*
X0060240Y0135200D01*
X0056760Y0135200D01*
X0054300Y0132740D01*
X0054300Y0129260D01*
X0055460Y0128100D01*
X0050130Y0128100D01*
X0047144Y0125114D01*
X0046935Y0125200D01*
X0040065Y0125200D01*
X0038521Y0124561D01*
X0037339Y0123379D01*
X0036700Y0121835D01*
X0036700Y0120165D01*
X0036845Y0119815D01*
X0031400Y0114370D01*
X0031400Y0095130D01*
X0032630Y0093900D01*
X0037745Y0088785D01*
X0037612Y0088918D02*
X0034802Y0088918D01*
X0036014Y0090517D02*
X0033203Y0090517D01*
X0034415Y0092115D02*
X0031605Y0092115D01*
X0032816Y0093714D02*
X0030006Y0093714D01*
X0031400Y0095312D02*
X0028408Y0095312D01*
X0026809Y0096911D02*
X0031400Y0096911D01*
X0031400Y0098509D02*
X0025600Y0098509D01*
X0025600Y0100108D02*
X0031400Y0100108D01*
X0031400Y0101706D02*
X0025600Y0101706D01*
X0025600Y0103305D02*
X0031400Y0103305D01*
X0031400Y0104903D02*
X0025600Y0104903D01*
X0025600Y0106502D02*
X0031400Y0106502D01*
X0031400Y0108100D02*
X0025600Y0108100D01*
X0025600Y0109699D02*
X0031400Y0109699D01*
X0031400Y0111297D02*
X0025600Y0111297D01*
X0025600Y0112896D02*
X0031400Y0112896D01*
X0031524Y0114494D02*
X0025600Y0114494D01*
X0025600Y0116093D02*
X0033123Y0116093D01*
X0034721Y0117691D02*
X0025600Y0117691D01*
X0025600Y0119290D02*
X0036320Y0119290D01*
X0036700Y0120888D02*
X0025600Y0120888D01*
X0025600Y0122487D02*
X0036970Y0122487D01*
X0038046Y0124085D02*
X0025600Y0124085D01*
X0024286Y0125684D02*
X0047714Y0125684D01*
X0046935Y0126800D02*
X0048479Y0127439D01*
X0049661Y0128621D01*
X0050300Y0130165D01*
X0050300Y0131835D01*
X0049661Y0133379D01*
X0048479Y0134561D01*
X0046935Y0135200D01*
X0040065Y0135200D01*
X0038521Y0134561D01*
X0037339Y0133379D01*
X0036700Y0131835D01*
X0036700Y0130165D01*
X0037339Y0128621D01*
X0038521Y0127439D01*
X0040065Y0126800D01*
X0046935Y0126800D01*
X0048100Y0127282D02*
X0049313Y0127282D01*
X0049768Y0128881D02*
X0054679Y0128881D01*
X0054300Y0130479D02*
X0050300Y0130479D01*
X0050200Y0132078D02*
X0054300Y0132078D01*
X0055237Y0133676D02*
X0049363Y0133676D01*
X0048479Y0137439D02*
X0049661Y0138621D01*
X0050300Y0140165D01*
X0050300Y0141835D01*
X0049661Y0143379D01*
X0048479Y0144561D01*
X0046935Y0145200D01*
X0040065Y0145200D01*
X0038521Y0144561D01*
X0037339Y0143379D01*
X0036700Y0141835D01*
X0036700Y0140165D01*
X0037339Y0138621D01*
X0038521Y0137439D01*
X0040065Y0136800D01*
X0046935Y0136800D01*
X0048479Y0137439D01*
X0049512Y0138472D02*
X0055088Y0138472D01*
X0054300Y0139260D02*
X0056760Y0136800D01*
X0060240Y0136800D01*
X0062700Y0139260D01*
X0062700Y0142740D01*
X0060600Y0144840D01*
X0060600Y0147160D01*
X0062700Y0149260D01*
X0062700Y0152740D01*
X0060600Y0154840D01*
X0060600Y0157160D01*
X0062700Y0159260D01*
X0062700Y0162740D01*
X0060600Y0164840D01*
X0060600Y0167160D01*
X0062700Y0169260D01*
X0062700Y0171400D01*
X0075130Y0171400D01*
X0084300Y0162230D01*
X0084300Y0159260D01*
X0086760Y0156800D01*
X0090240Y0156800D01*
X0092700Y0159260D01*
X0092700Y0162740D01*
X0090240Y0165200D01*
X0087270Y0165200D01*
X0078100Y0174370D01*
X0076870Y0175600D01*
X0063120Y0175600D01*
X0061850Y0176870D01*
X0061130Y0177590D01*
X0062061Y0178521D01*
X0062700Y0180065D01*
X0062700Y0186935D01*
X0062061Y0188479D01*
X0060879Y0189661D01*
X0060600Y0189776D01*
X0060600Y0190620D01*
X0052330Y0198890D01*
X0052700Y0199260D01*
X0052700Y0202740D01*
X0050240Y0205200D01*
X0046760Y0205200D01*
X0044300Y0202740D01*
X0044300Y0199260D01*
X0046760Y0196800D01*
X0048480Y0196800D01*
X0055870Y0189410D01*
X0054939Y0188479D01*
X0054300Y0186935D01*
X0054300Y0180065D01*
X0054939Y0178521D01*
X0055360Y0178100D01*
X0054370Y0178100D01*
X0052614Y0179856D01*
X0052700Y0180065D01*
X0052700Y0186935D01*
X0052061Y0188479D01*
X0050879Y0189661D01*
X0049335Y0190300D01*
X0047665Y0190300D01*
X0046121Y0189661D01*
X0044939Y0188479D01*
X0044300Y0186935D01*
X0044300Y0180065D01*
X0044386Y0179856D01*
X0041400Y0176870D01*
X0041400Y0165200D01*
X0040065Y0165200D01*
X0038521Y0164561D01*
X0037339Y0163379D01*
X0036700Y0161835D01*
X0036700Y0160165D01*
X0037339Y0158621D01*
X0038521Y0157439D01*
X0040065Y0156800D01*
X0046935Y0156800D01*
X0048479Y0157439D01*
X0049661Y0158621D01*
X0050300Y0160165D01*
X0050300Y0161835D01*
X0049661Y0163379D01*
X0048479Y0164561D01*
X0046935Y0165200D01*
X0045600Y0165200D01*
X0045600Y0175130D01*
X0047315Y0176845D01*
X0047665Y0176700D01*
X0049335Y0176700D01*
X0049685Y0176845D01*
X0052630Y0173900D01*
X0055460Y0173900D01*
X0054300Y0172740D01*
X0054300Y0169260D01*
X0056400Y0167160D01*
X0056400Y0164840D01*
X0054300Y0162740D01*
X0054300Y0159260D01*
X0056400Y0157160D01*
X0056400Y0154840D01*
X0054300Y0152740D01*
X0054300Y0149260D01*
X0056400Y0147160D01*
X0056400Y0144840D01*
X0054300Y0142740D01*
X0054300Y0139260D01*
X0054300Y0140070D02*
X0050261Y0140070D01*
X0050300Y0141669D02*
X0054300Y0141669D01*
X0054828Y0143268D02*
X0049707Y0143268D01*
X0047742Y0144866D02*
X0056400Y0144866D01*
X0056400Y0146465D02*
X0008500Y0146465D01*
X0008500Y0144866D02*
X0009258Y0144866D01*
X0009887Y0136873D02*
X0008500Y0136873D01*
X0008500Y0135275D02*
X0061055Y0135275D01*
X0060313Y0136873D02*
X0062654Y0136873D01*
X0061912Y0138472D02*
X0085088Y0138472D01*
X0084300Y0140070D02*
X0062700Y0140070D01*
X0062700Y0141669D02*
X0084300Y0141669D01*
X0084828Y0143268D02*
X0062172Y0143268D01*
X0060600Y0144866D02*
X0086426Y0144866D01*
X0086760Y0146800D02*
X0090240Y0146800D01*
X0092700Y0149260D01*
X0092700Y0152740D01*
X0090240Y0155200D01*
X0086760Y0155200D01*
X0084300Y0152740D01*
X0084300Y0149260D01*
X0086760Y0146800D01*
X0085497Y0148063D02*
X0061503Y0148063D01*
X0060600Y0146465D02*
X0090995Y0146465D01*
X0091503Y0148063D02*
X0092593Y0148063D01*
X0092700Y0149662D02*
X0093900Y0149662D01*
X0093900Y0151260D02*
X0092700Y0151260D01*
X0092581Y0152859D02*
X0093900Y0152859D01*
X0093900Y0154457D02*
X0090983Y0154457D01*
X0091094Y0157654D02*
X0093900Y0157654D01*
X0093900Y0156056D02*
X0060600Y0156056D01*
X0060983Y0154457D02*
X0086017Y0154457D01*
X0085906Y0157654D02*
X0061094Y0157654D01*
X0062692Y0159253D02*
X0084308Y0159253D01*
X0084300Y0160851D02*
X0062700Y0160851D01*
X0062700Y0162450D02*
X0084080Y0162450D01*
X0082482Y0164048D02*
X0061392Y0164048D01*
X0060600Y0165647D02*
X0080883Y0165647D01*
X0079285Y0167245D02*
X0060685Y0167245D01*
X0062283Y0168844D02*
X0077686Y0168844D01*
X0078831Y0173639D02*
X0085200Y0173639D01*
X0084300Y0172740D02*
X0084300Y0169260D01*
X0086760Y0166800D01*
X0090240Y0166800D01*
X0092700Y0169260D01*
X0092700Y0172740D01*
X0090240Y0175200D01*
X0086760Y0175200D01*
X0084300Y0172740D01*
X0084300Y0172041D02*
X0080429Y0172041D01*
X0082028Y0170442D02*
X0084300Y0170442D01*
X0084717Y0168844D02*
X0083626Y0168844D01*
X0085225Y0167245D02*
X0086315Y0167245D01*
X0086823Y0165647D02*
X0093900Y0165647D01*
X0093900Y0167245D02*
X0090685Y0167245D01*
X0092283Y0168844D02*
X0093900Y0168844D01*
X0093900Y0170442D02*
X0092700Y0170442D01*
X0092700Y0172041D02*
X0093900Y0172041D01*
X0093900Y0173639D02*
X0091800Y0173639D01*
X0093900Y0175238D02*
X0077232Y0175238D01*
X0077665Y0176700D02*
X0076121Y0177339D01*
X0074939Y0178521D01*
X0074300Y0180065D01*
X0074300Y0186935D01*
X0074939Y0188479D01*
X0076121Y0189661D01*
X0077665Y0190300D01*
X0079335Y0190300D01*
X0080879Y0189661D01*
X0082061Y0188479D01*
X0082700Y0186935D01*
X0082700Y0180065D01*
X0082061Y0178521D01*
X0080879Y0177339D01*
X0079335Y0176700D01*
X0077665Y0176700D01*
X0077336Y0176836D02*
X0069664Y0176836D01*
X0069335Y0176700D02*
X0070879Y0177339D01*
X0072061Y0178521D01*
X0072700Y0180065D01*
X0072700Y0186935D01*
X0072061Y0188479D01*
X0070879Y0189661D01*
X0069335Y0190300D01*
X0067665Y0190300D01*
X0066121Y0189661D01*
X0064939Y0188479D01*
X0064300Y0186935D01*
X0064300Y0180065D01*
X0064939Y0178521D01*
X0066121Y0177339D01*
X0067665Y0176700D01*
X0069335Y0176700D01*
X0067336Y0176836D02*
X0061884Y0176836D01*
X0061974Y0178435D02*
X0065026Y0178435D01*
X0064313Y0180033D02*
X0062687Y0180033D01*
X0062700Y0181632D02*
X0064300Y0181632D01*
X0064300Y0183230D02*
X0062700Y0183230D01*
X0062700Y0184829D02*
X0064300Y0184829D01*
X0064300Y0186427D02*
X0062700Y0186427D01*
X0062248Y0188026D02*
X0064752Y0188026D01*
X0066085Y0189624D02*
X0060915Y0189624D01*
X0059997Y0191223D02*
X0080307Y0191223D01*
X0080915Y0189624D02*
X0081906Y0189624D01*
X0082248Y0188026D02*
X0083504Y0188026D01*
X0084300Y0186427D02*
X0082700Y0186427D01*
X0082700Y0184829D02*
X0084300Y0184829D01*
X0084300Y0183230D02*
X0082700Y0183230D01*
X0082700Y0181632D02*
X0084300Y0181632D01*
X0084313Y0180033D02*
X0082687Y0180033D01*
X0081974Y0178435D02*
X0085026Y0178435D01*
X0087336Y0176836D02*
X0079664Y0176836D01*
X0075026Y0178435D02*
X0071974Y0178435D01*
X0072687Y0180033D02*
X0074313Y0180033D01*
X0074300Y0181632D02*
X0072700Y0181632D01*
X0072700Y0183230D02*
X0074300Y0183230D01*
X0074300Y0184829D02*
X0072700Y0184829D01*
X0072700Y0186427D02*
X0074300Y0186427D01*
X0074752Y0188026D02*
X0072248Y0188026D01*
X0070915Y0189624D02*
X0076085Y0189624D01*
X0076760Y0196800D02*
X0080240Y0196800D01*
X0082700Y0199260D01*
X0082700Y0202740D01*
X0080240Y0205200D01*
X0076760Y0205200D01*
X0074300Y0202740D01*
X0074300Y0199260D01*
X0076760Y0196800D01*
X0075943Y0197617D02*
X0064853Y0197617D01*
X0063254Y0199215D02*
X0074345Y0199215D01*
X0074300Y0200814D02*
X0061656Y0200814D01*
X0060057Y0202412D02*
X0074300Y0202412D01*
X0075571Y0204011D02*
X0058459Y0204011D01*
X0056860Y0205609D02*
X0091400Y0205609D01*
X0091400Y0204011D02*
X0081429Y0204011D01*
X0082700Y0202412D02*
X0091400Y0202412D01*
X0089871Y0200814D02*
X0082700Y0200814D01*
X0082655Y0199215D02*
X0089300Y0199215D01*
X0089300Y0197617D02*
X0081057Y0197617D01*
X0083050Y0194420D02*
X0089300Y0194420D01*
X0089300Y0196018D02*
X0066451Y0196018D01*
X0063709Y0192821D02*
X0058398Y0192821D01*
X0056800Y0194420D02*
X0062110Y0194420D01*
X0063900Y0192630D02*
X0063900Y0192630D01*
X0060512Y0196018D02*
X0055201Y0196018D01*
X0053603Y0197617D02*
X0058913Y0197617D01*
X0057315Y0199215D02*
X0052655Y0199215D01*
X0052700Y0200814D02*
X0055716Y0200814D01*
X0054118Y0202412D02*
X0052700Y0202412D01*
X0052519Y0204011D02*
X0051429Y0204011D01*
X0050921Y0205609D02*
X0008500Y0205609D01*
X0010648Y0207208D02*
X0036352Y0207208D01*
X0036760Y0205200D02*
X0034300Y0202740D01*
X0034300Y0199260D01*
X0036760Y0196800D01*
X0040240Y0196800D01*
X0042700Y0199260D01*
X0042700Y0202740D01*
X0040240Y0205200D01*
X0036760Y0205200D01*
X0035571Y0204011D02*
X0011429Y0204011D01*
X0012700Y0202412D02*
X0034300Y0202412D01*
X0034300Y0200814D02*
X0012700Y0200814D01*
X0012655Y0199215D02*
X0034345Y0199215D01*
X0035943Y0197617D02*
X0011057Y0197617D01*
X0008500Y0196018D02*
X0049262Y0196018D01*
X0050860Y0194420D02*
X0008500Y0194420D01*
X0008500Y0192821D02*
X0014852Y0192821D01*
X0013253Y0191223D02*
X0008500Y0191223D01*
X0008500Y0189624D02*
X0011655Y0189624D01*
X0010056Y0188026D02*
X0008500Y0188026D01*
X0012799Y0184829D02*
X0014463Y0184829D01*
X0014300Y0184435D02*
X0014300Y0177565D01*
X0014939Y0176021D01*
X0016121Y0174839D01*
X0016400Y0174724D01*
X0016400Y0172630D01*
X0036845Y0152185D01*
X0036700Y0151835D01*
X0036700Y0150165D01*
X0037339Y0148621D01*
X0038521Y0147439D01*
X0040065Y0146800D01*
X0046935Y0146800D01*
X0048479Y0147439D01*
X0049661Y0148621D01*
X0050300Y0150165D01*
X0050300Y0151835D01*
X0049661Y0153379D01*
X0048479Y0154561D01*
X0046935Y0155200D01*
X0040065Y0155200D01*
X0039856Y0155114D01*
X0020600Y0174370D01*
X0020600Y0174724D01*
X0020879Y0174839D01*
X0022061Y0176021D01*
X0022700Y0177565D01*
X0022700Y0184435D01*
X0022061Y0185979D01*
X0020879Y0187161D01*
X0019335Y0187800D01*
X0017665Y0187800D01*
X0016121Y0187161D01*
X0014939Y0185979D01*
X0014300Y0184435D01*
X0014300Y0183230D02*
X0012700Y0183230D01*
X0012700Y0181632D02*
X0014300Y0181632D01*
X0014300Y0180033D02*
X0012700Y0180033D01*
X0012700Y0178435D02*
X0014300Y0178435D01*
X0014602Y0176836D02*
X0012398Y0176836D01*
X0011277Y0175238D02*
X0015723Y0175238D01*
X0016400Y0173639D02*
X0008500Y0173639D01*
X0008500Y0172041D02*
X0016989Y0172041D01*
X0018588Y0170442D02*
X0008500Y0170442D01*
X0008500Y0168844D02*
X0020186Y0168844D01*
X0021785Y0167245D02*
X0008500Y0167245D01*
X0008500Y0165647D02*
X0023383Y0165647D01*
X0024982Y0164048D02*
X0018992Y0164048D01*
X0020046Y0162450D02*
X0026580Y0162450D01*
X0028179Y0160851D02*
X0020300Y0160851D01*
X0019922Y0159253D02*
X0029778Y0159253D01*
X0031376Y0157654D02*
X0018694Y0157654D01*
X0018583Y0154457D02*
X0034573Y0154457D01*
X0036172Y0152859D02*
X0019876Y0152859D01*
X0020300Y0151260D02*
X0036700Y0151260D01*
X0036908Y0149662D02*
X0020092Y0149662D01*
X0019103Y0148063D02*
X0037897Y0148063D01*
X0039258Y0144866D02*
X0017742Y0144866D01*
X0019707Y0143268D02*
X0037293Y0143268D01*
X0036700Y0141669D02*
X0020300Y0141669D01*
X0020261Y0140070D02*
X0036739Y0140070D01*
X0037488Y0138472D02*
X0019512Y0138472D01*
X0017113Y0136873D02*
X0039887Y0136873D01*
X0037637Y0133676D02*
X0019363Y0133676D01*
X0020200Y0132078D02*
X0036800Y0132078D01*
X0036700Y0130479D02*
X0020300Y0130479D01*
X0021089Y0128881D02*
X0037232Y0128881D01*
X0038900Y0127282D02*
X0022687Y0127282D01*
X0021400Y0122630D02*
X0021400Y0096870D01*
X0014730Y0090200D01*
X0010065Y0090200D01*
X0008521Y0089561D01*
X0008500Y0089540D01*
X0008500Y0097460D01*
X0008521Y0097439D01*
X0010065Y0096800D01*
X0016935Y0096800D01*
X0018479Y0097439D01*
X0019661Y0098621D01*
X0020300Y0100165D01*
X0020300Y0101835D01*
X0019661Y0103379D01*
X0018479Y0104561D01*
X0016935Y0105200D01*
X0010065Y0105200D01*
X0008521Y0104561D01*
X0008500Y0104540D01*
X0008500Y0107460D01*
X0008521Y0107439D01*
X0010065Y0106800D01*
X0016935Y0106800D01*
X0018479Y0107439D01*
X0019661Y0108621D01*
X0020300Y0110165D01*
X0020300Y0111835D01*
X0019661Y0113379D01*
X0018479Y0114561D01*
X0016935Y0115200D01*
X0010065Y0115200D01*
X0008521Y0114561D01*
X0008500Y0114540D01*
X0008500Y0117460D01*
X0008521Y0117439D01*
X0010065Y0116800D01*
X0016935Y0116800D01*
X0018479Y0117439D01*
X0019661Y0118621D01*
X0020300Y0120165D01*
X0020300Y0121835D01*
X0019661Y0123379D01*
X0018479Y0124561D01*
X0016935Y0125200D01*
X0010065Y0125200D01*
X0008521Y0124561D01*
X0008500Y0124540D01*
X0008500Y0127460D01*
X0008521Y0127439D01*
X0010065Y0126800D01*
X0016935Y0126800D01*
X0017144Y0126886D01*
X0021400Y0122630D01*
X0021400Y0122487D02*
X0020030Y0122487D01*
X0019945Y0124085D02*
X0018954Y0124085D01*
X0018346Y0125684D02*
X0008500Y0125684D01*
X0008500Y0127282D02*
X0008900Y0127282D01*
X0008500Y0116093D02*
X0021400Y0116093D01*
X0021400Y0117691D02*
X0018731Y0117691D01*
X0019938Y0119290D02*
X0021400Y0119290D01*
X0021400Y0120888D02*
X0020300Y0120888D01*
X0021400Y0114494D02*
X0018545Y0114494D01*
X0019861Y0112896D02*
X0021400Y0112896D01*
X0021400Y0111297D02*
X0020300Y0111297D01*
X0020107Y0109699D02*
X0021400Y0109699D01*
X0021400Y0108100D02*
X0019140Y0108100D01*
X0017652Y0104903D02*
X0021400Y0104903D01*
X0021400Y0103305D02*
X0019691Y0103305D01*
X0020300Y0101706D02*
X0021400Y0101706D01*
X0021400Y0100108D02*
X0020276Y0100108D01*
X0019549Y0098509D02*
X0021400Y0098509D01*
X0021400Y0096911D02*
X0017203Y0096911D01*
X0018244Y0093714D02*
X0008500Y0093714D01*
X0008500Y0095312D02*
X0019842Y0095312D01*
X0023668Y0093199D02*
X0024125Y0093655D01*
X0024430Y0093350D01*
X0024034Y0093350D01*
X0023668Y0093199D01*
X0021171Y0090517D02*
X0020986Y0090517D01*
X0021198Y0088918D02*
X0019388Y0088918D01*
X0020099Y0087320D02*
X0022089Y0087320D01*
X0020300Y0085721D02*
X0025809Y0085721D01*
X0027408Y0084123D02*
X0019868Y0084123D01*
X0018564Y0082524D02*
X0028650Y0082524D01*
X0028902Y0080926D02*
X0008500Y0080926D01*
X0008500Y0090517D02*
X0015047Y0090517D01*
X0016645Y0092115D02*
X0008500Y0092115D01*
X0008500Y0096911D02*
X0009797Y0096911D01*
X0009348Y0104903D02*
X0008500Y0104903D01*
X0008500Y0106502D02*
X0021400Y0106502D01*
X0028350Y0089430D02*
X0031930Y0085850D01*
X0031620Y0085850D01*
X0028350Y0089120D01*
X0028350Y0089430D01*
X0028552Y0088918D02*
X0028862Y0088918D01*
X0030150Y0087320D02*
X0030461Y0087320D01*
X0030082Y0079327D02*
X0018713Y0079327D01*
X0019930Y0077729D02*
X0037070Y0077729D01*
X0036700Y0076130D02*
X0020300Y0076130D01*
X0020038Y0074532D02*
X0036962Y0074532D01*
X0038027Y0072933D02*
X0018973Y0072933D01*
X0018056Y0069736D02*
X0038944Y0069736D01*
X0037239Y0068137D02*
X0019761Y0068137D01*
X0020300Y0066539D02*
X0033569Y0066539D01*
X0031971Y0064940D02*
X0020207Y0064940D01*
X0021628Y0063342D02*
X0030372Y0063342D01*
X0028774Y0061743D02*
X0023226Y0061743D01*
X0024825Y0060145D02*
X0027175Y0060145D01*
X0028319Y0055349D02*
X0028681Y0055349D01*
X0030279Y0053751D02*
X0026721Y0053751D01*
X0025122Y0052152D02*
X0031878Y0052152D01*
X0033476Y0050554D02*
X0023524Y0050554D01*
X0021925Y0048955D02*
X0035075Y0048955D01*
X0034734Y0047357D02*
X0036673Y0047357D01*
X0036700Y0045758D02*
X0035729Y0045758D01*
X0035850Y0044160D02*
X0037116Y0044160D01*
X0038399Y0042561D02*
X0035152Y0042561D01*
X0031433Y0040963D02*
X0054300Y0040963D01*
X0054300Y0042561D02*
X0048601Y0042561D01*
X0049884Y0044160D02*
X0055720Y0044160D01*
X0056203Y0047357D02*
X0050327Y0047357D01*
X0050300Y0045758D02*
X0067022Y0045758D01*
X0068620Y0044160D02*
X0061280Y0044160D01*
X0062700Y0042561D02*
X0070219Y0042561D01*
X0071817Y0040963D02*
X0062700Y0040963D01*
X0062700Y0039364D02*
X0073416Y0039364D01*
X0076060Y0032970D02*
X0049010Y0032970D01*
X0048479Y0029561D02*
X0046935Y0030200D01*
X0040065Y0030200D01*
X0038521Y0029561D01*
X0037339Y0028379D01*
X0036700Y0026835D01*
X0036700Y0025165D01*
X0037339Y0023621D01*
X0038521Y0022439D01*
X0040065Y0021800D01*
X0046935Y0021800D01*
X0048479Y0022439D01*
X0049661Y0023621D01*
X0050300Y0025165D01*
X0050300Y0026835D01*
X0049661Y0028379D01*
X0048479Y0029561D01*
X0047966Y0029773D02*
X0079257Y0029773D01*
X0080855Y0028175D02*
X0049745Y0028175D01*
X0050300Y0026576D02*
X0082454Y0026576D01*
X0084052Y0024978D02*
X0050223Y0024978D01*
X0049419Y0023379D02*
X0085651Y0023379D01*
X0087249Y0021781D02*
X0008500Y0021781D01*
X0008500Y0029540D02*
X0008500Y0032460D01*
X0008521Y0032439D01*
X0010065Y0031800D01*
X0016330Y0031800D01*
X0014730Y0030200D01*
X0010065Y0030200D01*
X0008521Y0029561D01*
X0008500Y0029540D01*
X0008500Y0029773D02*
X0009034Y0029773D01*
X0008500Y0031372D02*
X0015902Y0031372D01*
X0020243Y0029773D02*
X0039034Y0029773D01*
X0037255Y0028175D02*
X0019745Y0028175D01*
X0020300Y0026576D02*
X0036700Y0026576D01*
X0036777Y0024978D02*
X0020223Y0024978D01*
X0019419Y0023379D02*
X0037581Y0023379D01*
X0037990Y0032970D02*
X0023440Y0032970D01*
X0021842Y0031372D02*
X0077658Y0031372D01*
X0083106Y0039364D02*
X0084300Y0039364D01*
X0084300Y0039260D02*
X0086760Y0036800D01*
X0090240Y0036800D01*
X0092700Y0039260D01*
X0092700Y0042740D01*
X0090240Y0045200D01*
X0086760Y0045200D01*
X0084300Y0042740D01*
X0084300Y0039260D01*
X0084704Y0037766D02*
X0085795Y0037766D01*
X0086303Y0036167D02*
X0100900Y0036167D01*
X0101252Y0037766D02*
X0091205Y0037766D01*
X0092700Y0039364D02*
X0102359Y0039364D01*
X0102433Y0042561D02*
X0092700Y0042561D01*
X0092700Y0040963D02*
X0113500Y0040963D01*
X0112584Y0050554D02*
X0112526Y0050554D01*
X0104474Y0050554D02*
X0092700Y0050554D01*
X0092700Y0052152D02*
X0102842Y0052152D01*
X0101453Y0053751D02*
X0091689Y0053751D01*
X0092395Y0048955D02*
X0101950Y0048955D01*
X0101083Y0047357D02*
X0090797Y0047357D01*
X0091280Y0044160D02*
X0101283Y0044160D01*
X0100900Y0045758D02*
X0076712Y0045758D01*
X0078310Y0044160D02*
X0085720Y0044160D01*
X0084300Y0042561D02*
X0079909Y0042561D01*
X0081507Y0040963D02*
X0084300Y0040963D01*
X0086203Y0047357D02*
X0075113Y0047357D01*
X0073514Y0048955D02*
X0084605Y0048955D01*
X0084300Y0050554D02*
X0071916Y0050554D01*
X0070317Y0052152D02*
X0084300Y0052152D01*
X0085311Y0053751D02*
X0068719Y0053751D01*
X0065423Y0047357D02*
X0060797Y0047357D01*
X0062395Y0048955D02*
X0063825Y0048955D01*
X0054300Y0039364D02*
X0048675Y0039364D01*
X0038325Y0039364D02*
X0029834Y0039364D01*
X0028236Y0037766D02*
X0037085Y0037766D01*
X0036700Y0036167D02*
X0026637Y0036167D01*
X0025039Y0034569D02*
X0036947Y0034569D01*
X0023894Y0039364D02*
X0018675Y0039364D01*
X0019915Y0037766D02*
X0022296Y0037766D01*
X0020697Y0036167D02*
X0020300Y0036167D01*
X0034418Y0079327D02*
X0038287Y0079327D01*
X0036855Y0080926D02*
X0035598Y0080926D01*
X0036400Y0087320D02*
X0036901Y0087320D01*
X0045600Y0105200D02*
X0045600Y0106800D01*
X0046185Y0106800D01*
X0046150Y0106716D01*
X0046150Y0105284D01*
X0046185Y0105200D01*
X0045600Y0105200D01*
X0045600Y0106502D02*
X0046150Y0106502D01*
X0048731Y0117691D02*
X0049721Y0117691D01*
X0049938Y0119290D02*
X0054300Y0119290D01*
X0054300Y0120888D02*
X0050300Y0120888D01*
X0050457Y0122487D02*
X0054300Y0122487D01*
X0061540Y0123900D02*
X0082180Y0123900D01*
X0081380Y0123100D01*
X0062340Y0123100D01*
X0061540Y0123900D01*
X0061540Y0128100D02*
X0062700Y0129260D01*
X0062700Y0130980D01*
X0065620Y0133900D01*
X0085460Y0133900D01*
X0084300Y0132740D01*
X0084300Y0129770D01*
X0082630Y0128100D01*
X0061540Y0128100D01*
X0062321Y0128881D02*
X0083411Y0128881D01*
X0084300Y0130479D02*
X0062700Y0130479D01*
X0063798Y0132078D02*
X0084300Y0132078D01*
X0085237Y0133676D02*
X0065396Y0133676D01*
X0056687Y0136873D02*
X0047113Y0136873D01*
X0049103Y0148063D02*
X0055497Y0148063D01*
X0054300Y0149662D02*
X0050092Y0149662D01*
X0050300Y0151260D02*
X0054300Y0151260D01*
X0054419Y0152859D02*
X0049876Y0152859D01*
X0048583Y0154457D02*
X0056017Y0154457D01*
X0056400Y0156056D02*
X0038914Y0156056D01*
X0038306Y0157654D02*
X0037316Y0157654D01*
X0037078Y0159253D02*
X0035717Y0159253D01*
X0036700Y0160851D02*
X0034119Y0160851D01*
X0032520Y0162450D02*
X0036954Y0162450D01*
X0038008Y0164048D02*
X0030922Y0164048D01*
X0029323Y0165647D02*
X0041400Y0165647D01*
X0041400Y0167245D02*
X0027725Y0167245D01*
X0026126Y0168844D02*
X0041400Y0168844D01*
X0041400Y0170442D02*
X0024528Y0170442D01*
X0022929Y0172041D02*
X0041400Y0172041D01*
X0041400Y0173639D02*
X0021331Y0173639D01*
X0021277Y0175238D02*
X0025723Y0175238D01*
X0026121Y0174839D02*
X0027665Y0174200D01*
X0029335Y0174200D01*
X0030879Y0174839D01*
X0032061Y0176021D01*
X0032700Y0177565D01*
X0032700Y0184435D01*
X0032061Y0185979D01*
X0030879Y0187161D01*
X0029335Y0187800D01*
X0027665Y0187800D01*
X0026121Y0187161D01*
X0024939Y0185979D01*
X0024300Y0184435D01*
X0024300Y0177565D01*
X0024939Y0176021D01*
X0026121Y0174839D01*
X0024602Y0176836D02*
X0022398Y0176836D01*
X0022700Y0178435D02*
X0024300Y0178435D01*
X0024300Y0180033D02*
X0022700Y0180033D01*
X0022700Y0181632D02*
X0024300Y0181632D01*
X0024300Y0183230D02*
X0022700Y0183230D01*
X0022537Y0184829D02*
X0024463Y0184829D01*
X0025388Y0186427D02*
X0021612Y0186427D01*
X0015996Y0188026D02*
X0031004Y0188026D01*
X0031612Y0186427D02*
X0032603Y0186427D01*
X0032537Y0184829D02*
X0034201Y0184829D01*
X0034300Y0183230D02*
X0032700Y0183230D01*
X0032700Y0181632D02*
X0034300Y0181632D01*
X0034313Y0180033D02*
X0032700Y0180033D01*
X0032700Y0178435D02*
X0035026Y0178435D01*
X0037336Y0176836D02*
X0032398Y0176836D01*
X0031277Y0175238D02*
X0041400Y0175238D01*
X0041400Y0176836D02*
X0039664Y0176836D01*
X0041974Y0178435D02*
X0042965Y0178435D01*
X0042687Y0180033D02*
X0044313Y0180033D01*
X0044300Y0181632D02*
X0042700Y0181632D01*
X0042700Y0183230D02*
X0044300Y0183230D01*
X0044300Y0184829D02*
X0042700Y0184829D01*
X0042700Y0186427D02*
X0044300Y0186427D01*
X0044752Y0188026D02*
X0042248Y0188026D01*
X0040915Y0189624D02*
X0046085Y0189624D01*
X0045943Y0197617D02*
X0041057Y0197617D01*
X0042655Y0199215D02*
X0044345Y0199215D01*
X0044300Y0200814D02*
X0042700Y0200814D01*
X0042700Y0202412D02*
X0044300Y0202412D01*
X0045571Y0204011D02*
X0041429Y0204011D01*
X0040648Y0207208D02*
X0046352Y0207208D01*
X0044754Y0208806D02*
X0042246Y0208806D01*
X0042700Y0210405D02*
X0044300Y0210405D01*
X0044300Y0212003D02*
X0042700Y0212003D01*
X0041838Y0213602D02*
X0045162Y0213602D01*
X0047001Y0219996D02*
X0049999Y0219996D01*
X0049103Y0221595D02*
X0047897Y0221595D01*
X0048100Y0223193D02*
X0048900Y0223193D01*
X0048900Y0224792D02*
X0048100Y0224792D01*
X0048100Y0226390D02*
X0048900Y0226390D01*
X0048900Y0227989D02*
X0048100Y0227989D01*
X0048100Y0229587D02*
X0048900Y0229587D01*
X0041572Y0218398D02*
X0093900Y0218398D01*
X0093934Y0219996D02*
X0087001Y0219996D01*
X0087897Y0221595D02*
X0093500Y0221595D01*
X0093500Y0223193D02*
X0088100Y0223193D01*
X0088100Y0228100D02*
X0088100Y0229915D01*
X0087651Y0231000D01*
X0093500Y0231000D01*
X0093500Y0228100D01*
X0088100Y0228100D01*
X0088100Y0229587D02*
X0093500Y0229587D01*
X0093900Y0216799D02*
X0075671Y0216799D01*
X0077269Y0215201D02*
X0093900Y0215201D01*
X0093900Y0213602D02*
X0081838Y0213602D01*
X0082700Y0212003D02*
X0092784Y0212003D01*
X0091400Y0210405D02*
X0082700Y0210405D01*
X0082246Y0208806D02*
X0091400Y0208806D01*
X0091400Y0207208D02*
X0080648Y0207208D01*
X0076352Y0207208D02*
X0055262Y0207208D01*
X0053663Y0208806D02*
X0074754Y0208806D01*
X0074300Y0210405D02*
X0052700Y0210405D01*
X0052700Y0212003D02*
X0074300Y0212003D01*
X0072928Y0213602D02*
X0051838Y0213602D01*
X0057001Y0219996D02*
X0059999Y0219996D01*
X0059103Y0221595D02*
X0057897Y0221595D01*
X0058100Y0223193D02*
X0058900Y0223193D01*
X0058900Y0228100D02*
X0058100Y0228100D01*
X0058100Y0229915D01*
X0057651Y0231000D01*
X0059349Y0231000D01*
X0058900Y0229915D01*
X0058900Y0228100D01*
X0058900Y0229587D02*
X0058100Y0229587D01*
X0067651Y0231000D02*
X0069349Y0231000D01*
X0068900Y0229915D01*
X0068900Y0228100D01*
X0068100Y0228100D01*
X0068100Y0229915D01*
X0067651Y0231000D01*
X0068100Y0229587D02*
X0068900Y0229587D01*
X0068900Y0223193D02*
X0068100Y0223193D01*
X0067897Y0221595D02*
X0069103Y0221595D01*
X0069999Y0219996D02*
X0067001Y0219996D01*
X0077001Y0219996D02*
X0079999Y0219996D01*
X0079103Y0221595D02*
X0077897Y0221595D01*
X0078100Y0223193D02*
X0078900Y0223193D01*
X0078900Y0228100D02*
X0078100Y0228100D01*
X0078100Y0229915D01*
X0077651Y0231000D01*
X0079349Y0231000D01*
X0078900Y0229915D01*
X0078900Y0228100D01*
X0078900Y0229587D02*
X0078100Y0229587D01*
X0095600Y0208806D02*
X0096604Y0208806D01*
X0095600Y0207208D02*
X0110572Y0207208D01*
X0112171Y0205609D02*
X0095600Y0205609D01*
X0095600Y0204011D02*
X0113769Y0204011D01*
X0115271Y0202412D02*
X0115368Y0202412D01*
X0111729Y0202412D02*
X0105271Y0202412D01*
X0107129Y0200814D02*
X0109871Y0200814D01*
X0109300Y0199215D02*
X0107700Y0199215D01*
X0107700Y0197617D02*
X0109300Y0197617D01*
X0109300Y0196018D02*
X0107700Y0196018D01*
X0107700Y0194420D02*
X0109300Y0194420D01*
X0109300Y0192821D02*
X0107700Y0192821D01*
X0107144Y0191223D02*
X0109856Y0191223D01*
X0111640Y0189624D02*
X0105600Y0189624D01*
X0105600Y0188026D02*
X0113500Y0188026D01*
X0113500Y0186427D02*
X0105600Y0186427D01*
X0105600Y0184829D02*
X0113500Y0184829D01*
X0113500Y0183230D02*
X0105600Y0183230D01*
X0104602Y0181632D02*
X0113500Y0181632D01*
X0113500Y0171849D02*
X0112415Y0171400D01*
X0110600Y0171400D01*
X0110600Y0170600D01*
X0112415Y0170600D01*
X0113500Y0170151D01*
X0113500Y0171849D01*
X0113500Y0170442D02*
X0112796Y0170442D01*
X0113500Y0161849D02*
X0112415Y0161400D01*
X0110600Y0161400D01*
X0110600Y0160600D01*
X0112415Y0160600D01*
X0113500Y0160151D01*
X0113500Y0161849D01*
X0113500Y0160851D02*
X0110600Y0160851D01*
X0106400Y0160851D02*
X0098100Y0160851D01*
X0098100Y0159253D02*
X0102247Y0159253D01*
X0101206Y0157654D02*
X0098100Y0157654D01*
X0098100Y0156056D02*
X0100900Y0156056D01*
X0101160Y0154457D02*
X0098100Y0154457D01*
X0098100Y0152859D02*
X0102136Y0152859D01*
X0102656Y0149662D02*
X0098100Y0149662D01*
X0098100Y0151260D02*
X0106400Y0151260D01*
X0110600Y0151260D02*
X0113500Y0151260D01*
X0113500Y0151849D02*
X0113500Y0150151D01*
X0112415Y0150600D01*
X0110600Y0150600D01*
X0110600Y0151400D01*
X0112415Y0151400D01*
X0113500Y0151849D01*
X0113500Y0141669D02*
X0113064Y0141669D01*
X0113500Y0131849D02*
X0112415Y0131400D01*
X0104585Y0131400D01*
X0102894Y0132100D01*
X0101600Y0133394D01*
X0101391Y0133900D01*
X0091540Y0133900D01*
X0092700Y0132740D01*
X0092700Y0129260D01*
X0091540Y0128100D01*
X0101391Y0128100D01*
X0101600Y0128606D01*
X0102894Y0129900D01*
X0104585Y0130600D01*
X0112415Y0130600D01*
X0113500Y0130151D01*
X0113500Y0131849D01*
X0113500Y0130479D02*
X0112706Y0130479D01*
X0112567Y0121463D02*
X0113500Y0120530D01*
X0113500Y0120151D01*
X0112415Y0120600D01*
X0104585Y0120600D01*
X0102894Y0119900D01*
X0101600Y0118606D01*
X0101391Y0118100D01*
X0091540Y0118100D01*
X0092700Y0119260D01*
X0092700Y0122740D01*
X0091540Y0123900D01*
X0101391Y0123900D01*
X0101600Y0123394D01*
X0102894Y0122100D01*
X0104585Y0121400D01*
X0112415Y0121400D01*
X0112567Y0121463D01*
X0113142Y0120888D02*
X0092700Y0120888D01*
X0092700Y0119290D02*
X0102284Y0119290D01*
X0102508Y0122487D02*
X0092700Y0122487D01*
X0092321Y0128881D02*
X0101876Y0128881D01*
X0104294Y0130479D02*
X0092700Y0130479D01*
X0092700Y0132078D02*
X0102948Y0132078D01*
X0101483Y0133676D02*
X0091763Y0133676D01*
X0091912Y0138472D02*
X0101545Y0138472D01*
X0103307Y0140070D02*
X0092700Y0140070D01*
X0092700Y0141669D02*
X0103936Y0141669D01*
X0101727Y0143268D02*
X0093737Y0143268D01*
X0095336Y0144866D02*
X0100991Y0144866D01*
X0100900Y0146465D02*
X0096934Y0146465D01*
X0098100Y0148063D02*
X0101376Y0148063D01*
X0093900Y0159253D02*
X0092692Y0159253D01*
X0092700Y0160851D02*
X0093900Y0160851D01*
X0093900Y0162450D02*
X0092700Y0162450D01*
X0093900Y0164048D02*
X0091392Y0164048D01*
X0098100Y0164048D02*
X0101329Y0164048D01*
X0100900Y0165647D02*
X0098100Y0165647D01*
X0098100Y0167245D02*
X0101037Y0167245D01*
X0101838Y0168844D02*
X0098100Y0168844D01*
X0098100Y0170442D02*
X0104204Y0170442D01*
X0103038Y0172041D02*
X0098100Y0172041D01*
X0098100Y0173639D02*
X0101499Y0173639D01*
X0100900Y0175238D02*
X0098208Y0175238D01*
X0099806Y0176836D02*
X0100900Y0176836D01*
X0101405Y0178435D02*
X0101530Y0178435D01*
X0103003Y0180033D02*
X0103217Y0180033D01*
X0100260Y0183230D02*
X0092700Y0183230D01*
X0092700Y0181632D02*
X0098662Y0181632D01*
X0097063Y0180033D02*
X0092687Y0180033D01*
X0091974Y0178435D02*
X0095465Y0178435D01*
X0093900Y0176836D02*
X0089664Y0176836D01*
X0092700Y0184829D02*
X0101400Y0184829D01*
X0101400Y0186427D02*
X0092700Y0186427D01*
X0092248Y0188026D02*
X0101400Y0188026D01*
X0101400Y0189624D02*
X0095360Y0189624D01*
X0097144Y0191223D02*
X0099856Y0191223D01*
X0099300Y0192821D02*
X0097700Y0192821D01*
X0097700Y0194420D02*
X0099300Y0194420D01*
X0099300Y0196018D02*
X0097700Y0196018D01*
X0097700Y0197617D02*
X0099300Y0197617D01*
X0099300Y0199215D02*
X0097700Y0199215D01*
X0097129Y0200814D02*
X0099871Y0200814D01*
X0101729Y0202412D02*
X0095600Y0202412D01*
X0100396Y0208806D02*
X0106604Y0208806D01*
X0104596Y0210405D02*
X0102404Y0210405D01*
X0103066Y0212003D02*
X0103934Y0212003D01*
X0103900Y0213602D02*
X0103100Y0213602D01*
X0103100Y0215201D02*
X0103900Y0215201D01*
X0103900Y0216799D02*
X0103100Y0216799D01*
X0103100Y0218398D02*
X0103900Y0218398D01*
X0103934Y0219996D02*
X0103066Y0219996D01*
X0112651Y0221000D02*
X0114349Y0221000D01*
X0113900Y0219915D01*
X0113900Y0212085D01*
X0114600Y0210394D01*
X0115894Y0209100D01*
X0117585Y0208400D01*
X0119415Y0208400D01*
X0121106Y0209100D01*
X0122400Y0210394D01*
X0123100Y0212085D01*
X0123100Y0219915D01*
X0122651Y0221000D01*
X0123030Y0221000D01*
X0123963Y0220067D01*
X0123900Y0219915D01*
X0123900Y0212085D01*
X0124600Y0210394D01*
X0125894Y0209100D01*
X0127585Y0208400D01*
X0129415Y0208400D01*
X0131106Y0209100D01*
X0132400Y0210394D01*
X0133100Y0212085D01*
X0133100Y0219915D01*
X0132651Y0221000D01*
X0133500Y0221000D01*
X0133500Y0201000D01*
X0122720Y0201000D01*
X0121870Y0201850D01*
X0112671Y0211049D01*
X0113100Y0212085D01*
X0113100Y0219915D01*
X0112651Y0221000D01*
X0113066Y0219996D02*
X0113934Y0219996D01*
X0113900Y0218398D02*
X0113100Y0218398D01*
X0113100Y0216799D02*
X0113900Y0216799D01*
X0113900Y0215201D02*
X0113100Y0215201D01*
X0113100Y0213602D02*
X0113900Y0213602D01*
X0113934Y0212003D02*
X0113066Y0212003D01*
X0113315Y0210405D02*
X0114596Y0210405D01*
X0114913Y0208806D02*
X0116604Y0208806D01*
X0116512Y0207208D02*
X0133500Y0207208D01*
X0133500Y0208806D02*
X0130396Y0208806D01*
X0132404Y0210405D02*
X0133500Y0210405D01*
X0133500Y0212003D02*
X0133066Y0212003D01*
X0133100Y0213602D02*
X0133500Y0213602D01*
X0133500Y0215201D02*
X0133100Y0215201D01*
X0133100Y0216799D02*
X0133500Y0216799D01*
X0133500Y0218398D02*
X0133100Y0218398D01*
X0133066Y0219996D02*
X0133500Y0219996D01*
X0126604Y0208806D02*
X0120396Y0208806D01*
X0122404Y0210405D02*
X0124596Y0210405D01*
X0123934Y0212003D02*
X0123066Y0212003D01*
X0123100Y0213602D02*
X0123900Y0213602D01*
X0123900Y0215201D02*
X0123100Y0215201D01*
X0123100Y0216799D02*
X0123900Y0216799D01*
X0123900Y0218398D02*
X0123100Y0218398D01*
X0123066Y0219996D02*
X0123934Y0219996D01*
X0118110Y0205609D02*
X0133500Y0205609D01*
X0133500Y0204011D02*
X0119709Y0204011D01*
X0121307Y0202412D02*
X0133500Y0202412D01*
X0102545Y0162450D02*
X0098100Y0162450D01*
X0084419Y0152859D02*
X0062581Y0152859D01*
X0062700Y0151260D02*
X0084300Y0151260D01*
X0084300Y0149662D02*
X0062700Y0149662D01*
X0055906Y0157654D02*
X0048694Y0157654D01*
X0049922Y0159253D02*
X0054308Y0159253D01*
X0054300Y0160851D02*
X0050300Y0160851D01*
X0050046Y0162450D02*
X0054300Y0162450D01*
X0055608Y0164048D02*
X0048992Y0164048D01*
X0045600Y0165647D02*
X0056400Y0165647D01*
X0056315Y0167245D02*
X0045600Y0167245D01*
X0045600Y0168844D02*
X0054717Y0168844D01*
X0054300Y0170442D02*
X0045600Y0170442D01*
X0045600Y0172041D02*
X0054300Y0172041D01*
X0055200Y0173639D02*
X0045600Y0173639D01*
X0045708Y0175238D02*
X0051292Y0175238D01*
X0049694Y0176836D02*
X0049664Y0176836D01*
X0047336Y0176836D02*
X0047306Y0176836D01*
X0052687Y0180033D02*
X0054313Y0180033D01*
X0054300Y0181632D02*
X0052700Y0181632D01*
X0052700Y0183230D02*
X0054300Y0183230D01*
X0054300Y0184829D02*
X0052700Y0184829D01*
X0052700Y0186427D02*
X0054300Y0186427D01*
X0054752Y0188026D02*
X0052248Y0188026D01*
X0050915Y0189624D02*
X0055656Y0189624D01*
X0054057Y0191223D02*
X0033747Y0191223D01*
X0032148Y0192821D02*
X0052459Y0192821D01*
X0054035Y0178435D02*
X0055026Y0178435D01*
X0062700Y0170442D02*
X0076088Y0170442D01*
X0086247Y0191223D02*
X0089856Y0191223D01*
X0089300Y0192821D02*
X0084648Y0192821D01*
X0090915Y0189624D02*
X0091640Y0189624D01*
X0084300Y0120080D02*
X0084300Y0119770D01*
X0082630Y0118100D01*
X0061540Y0118100D01*
X0062340Y0118900D01*
X0083120Y0118900D01*
X0084300Y0120080D01*
X0083820Y0119290D02*
X0083510Y0119290D01*
X0082180Y0113900D02*
X0081380Y0113100D01*
X0062340Y0113100D01*
X0061540Y0113900D01*
X0082180Y0113900D01*
X0084300Y0110080D02*
X0083120Y0108900D01*
X0062340Y0108900D01*
X0061540Y0108100D01*
X0082630Y0108100D01*
X0061540Y0108100D01*
X0061540Y0103900D02*
X0082180Y0103900D01*
X0081380Y0103100D01*
X0062340Y0103100D01*
X0061540Y0103900D01*
X0062135Y0103305D02*
X0081585Y0103305D01*
X0084300Y0100080D02*
X0083120Y0098900D01*
X0062340Y0098900D01*
X0061540Y0098100D01*
X0082630Y0098100D01*
X0084300Y0099770D01*
X0084300Y0100080D01*
X0083039Y0098509D02*
X0061949Y0098509D01*
X0061540Y0093900D02*
X0084370Y0093900D01*
X0085600Y0095130D01*
X0087270Y0096800D01*
X0090240Y0096800D01*
X0092700Y0099260D01*
X0092700Y0102740D01*
X0091540Y0103900D01*
X0101391Y0103900D01*
X0101600Y0103394D01*
X0102894Y0102100D01*
X0104585Y0101400D01*
X0112415Y0101400D01*
X0113500Y0101849D01*
X0113500Y0100220D01*
X0113451Y0100171D01*
X0112415Y0100600D01*
X0104585Y0100600D01*
X0102894Y0099900D01*
X0101600Y0098606D01*
X0100900Y0096915D01*
X0100900Y0095085D01*
X0101600Y0093394D01*
X0102894Y0092100D01*
X0104585Y0091400D01*
X0106400Y0091400D01*
X0106400Y0090600D01*
X0104585Y0090600D01*
X0102894Y0089900D01*
X0101600Y0088606D01*
X0100900Y0086915D01*
X0100900Y0085085D01*
X0101600Y0083394D01*
X0102894Y0082100D01*
X0104585Y0081400D01*
X0106400Y0081400D01*
X0106400Y0080600D01*
X0104585Y0080600D01*
X0102894Y0079900D01*
X0101600Y0078606D01*
X0100900Y0076915D01*
X0100900Y0075085D01*
X0101600Y0073394D01*
X0102894Y0072100D01*
X0104585Y0071400D01*
X0106400Y0071400D01*
X0106400Y0070600D01*
X0104585Y0070600D01*
X0102894Y0069900D01*
X0101600Y0068606D01*
X0100900Y0066915D01*
X0100900Y0066570D01*
X0099370Y0068100D01*
X0097630Y0068100D01*
X0091540Y0068100D01*
X0092700Y0069260D01*
X0092700Y0072740D01*
X0090600Y0074840D01*
X0090600Y0077160D01*
X0092700Y0079260D01*
X0092700Y0082740D01*
X0090600Y0084840D01*
X0090600Y0087160D01*
X0092700Y0089260D01*
X0092700Y0092740D01*
X0090240Y0095200D01*
X0086760Y0095200D01*
X0084300Y0092740D01*
X0084300Y0089260D01*
X0086400Y0087160D01*
X0086400Y0084840D01*
X0084300Y0082740D01*
X0084300Y0079260D01*
X0086400Y0077160D01*
X0086400Y0074840D01*
X0084300Y0072740D01*
X0084300Y0069260D01*
X0085460Y0068100D01*
X0084370Y0068100D01*
X0062700Y0089770D01*
X0062700Y0092740D01*
X0061540Y0093900D01*
X0061726Y0093714D02*
X0085274Y0093714D01*
X0085782Y0095312D02*
X0100900Y0095312D01*
X0100900Y0096911D02*
X0090350Y0096911D01*
X0091949Y0098509D02*
X0101560Y0098509D01*
X0103397Y0100108D02*
X0092700Y0100108D01*
X0092700Y0101706D02*
X0103846Y0101706D01*
X0101690Y0103305D02*
X0092135Y0103305D01*
X0091540Y0108100D02*
X0092700Y0109260D01*
X0092700Y0112740D01*
X0091540Y0113900D01*
X0101391Y0113900D01*
X0101600Y0113394D01*
X0102894Y0112100D01*
X0104585Y0111400D01*
X0112415Y0111400D01*
X0113500Y0111849D01*
X0113500Y0110151D01*
X0112415Y0110600D01*
X0104585Y0110600D01*
X0102894Y0109900D01*
X0101600Y0108606D01*
X0101391Y0108100D01*
X0091540Y0108100D01*
X0101391Y0108100D01*
X0102693Y0109699D02*
X0092700Y0109699D01*
X0092700Y0111297D02*
X0113500Y0111297D01*
X0113500Y0101706D02*
X0113154Y0101706D01*
X0113500Y0091849D02*
X0112415Y0091400D01*
X0110620Y0091400D01*
X0110600Y0091380D01*
X0110600Y0090600D01*
X0112415Y0090600D01*
X0113500Y0090151D01*
X0113500Y0091849D01*
X0113500Y0090517D02*
X0112616Y0090517D01*
X0113500Y0081849D02*
X0113500Y0080151D01*
X0112415Y0080600D01*
X0110600Y0080600D01*
X0110600Y0081400D01*
X0112415Y0081400D01*
X0113500Y0081849D01*
X0113500Y0080926D02*
X0110600Y0080926D01*
X0106400Y0080926D02*
X0092700Y0080926D01*
X0092700Y0082524D02*
X0102471Y0082524D01*
X0101299Y0084123D02*
X0091317Y0084123D01*
X0090600Y0085721D02*
X0100900Y0085721D01*
X0101068Y0087320D02*
X0090759Y0087320D01*
X0092358Y0088918D02*
X0101913Y0088918D01*
X0102879Y0092115D02*
X0092700Y0092115D01*
X0092700Y0090517D02*
X0104384Y0090517D01*
X0101468Y0093714D02*
X0091726Y0093714D01*
X0086241Y0087320D02*
X0065150Y0087320D01*
X0063552Y0088918D02*
X0084642Y0088918D01*
X0084300Y0090517D02*
X0062700Y0090517D01*
X0062700Y0092115D02*
X0084300Y0092115D01*
X0086400Y0085721D02*
X0066749Y0085721D01*
X0068347Y0084123D02*
X0085683Y0084123D01*
X0084300Y0082524D02*
X0069946Y0082524D01*
X0071544Y0080926D02*
X0084300Y0080926D01*
X0084300Y0079327D02*
X0073143Y0079327D01*
X0074741Y0077729D02*
X0085832Y0077729D01*
X0086400Y0076130D02*
X0076340Y0076130D01*
X0077938Y0074532D02*
X0086092Y0074532D01*
X0084493Y0072933D02*
X0079537Y0072933D01*
X0081135Y0071334D02*
X0084300Y0071334D01*
X0084300Y0069736D02*
X0082734Y0069736D01*
X0084332Y0068137D02*
X0085423Y0068137D01*
X0091577Y0068137D02*
X0101406Y0068137D01*
X0102731Y0069736D02*
X0092700Y0069736D01*
X0092700Y0071334D02*
X0106400Y0071334D01*
X0110600Y0071334D02*
X0113500Y0071334D01*
X0113500Y0071849D02*
X0113500Y0070151D01*
X0112415Y0070600D01*
X0110600Y0070600D01*
X0110600Y0071400D01*
X0112415Y0071400D01*
X0113500Y0071849D01*
X0102062Y0072933D02*
X0092507Y0072933D01*
X0090908Y0074532D02*
X0101129Y0074532D01*
X0100900Y0076130D02*
X0090600Y0076130D01*
X0091168Y0077729D02*
X0101237Y0077729D01*
X0102322Y0079327D02*
X0092700Y0079327D01*
X0091540Y0063900D02*
X0097630Y0063900D01*
X0101400Y0060130D01*
X0102262Y0059268D01*
X0101600Y0058606D01*
X0101391Y0058100D01*
X0091540Y0058100D01*
X0092700Y0059260D01*
X0092700Y0062740D01*
X0091540Y0063900D01*
X0092098Y0063342D02*
X0098188Y0063342D01*
X0099787Y0061743D02*
X0092700Y0061743D01*
X0092700Y0060145D02*
X0101385Y0060145D01*
X0101576Y0058546D02*
X0091986Y0058546D01*
X0087320Y0031400D02*
X0104585Y0031400D01*
X0112415Y0031400D01*
X0113500Y0031849D01*
X0113500Y0030151D01*
X0112415Y0030600D01*
X0104585Y0030600D01*
X0102894Y0029900D01*
X0101600Y0028606D01*
X0101391Y0028100D01*
X0090620Y0028100D01*
X0087320Y0031400D01*
X0087348Y0031372D02*
X0113500Y0031372D01*
X0113500Y0021849D02*
X0113500Y0021470D01*
X0113030Y0021000D01*
X0093970Y0021000D01*
X0091070Y0023900D01*
X0101391Y0023900D01*
X0101600Y0023394D01*
X0102894Y0022100D01*
X0104585Y0021400D01*
X0112415Y0021400D01*
X0113500Y0021849D01*
X0113500Y0021781D02*
X0113334Y0021781D01*
X0103666Y0021781D02*
X0093189Y0021781D01*
X0091591Y0023379D02*
X0101615Y0023379D01*
X0101422Y0028175D02*
X0090545Y0028175D01*
X0088947Y0029773D02*
X0102768Y0029773D01*
X0082630Y0108100D02*
X0084300Y0109770D01*
X0084300Y0110080D01*
X0084229Y0109699D02*
X0083919Y0109699D01*
X0092544Y0112896D02*
X0102099Y0112896D01*
X0039999Y0219996D02*
X0039974Y0219996D01*
X0039103Y0221595D02*
X0038375Y0221595D01*
X0038100Y0223193D02*
X0038900Y0223193D01*
X0038900Y0224792D02*
X0038100Y0224792D01*
X0038100Y0226390D02*
X0038900Y0226390D01*
X0038900Y0227989D02*
X0038100Y0227989D01*
X0038100Y0229587D02*
X0038900Y0229587D01*
X0035633Y0218398D02*
X0008500Y0218398D01*
X0008500Y0219996D02*
X0009999Y0219996D01*
X0009103Y0221595D02*
X0008500Y0221595D01*
X0008500Y0223193D02*
X0008900Y0223193D01*
X0008900Y0224792D02*
X0008500Y0224792D01*
X0008500Y0226390D02*
X0008900Y0226390D01*
X0008900Y0227989D02*
X0008500Y0227989D01*
X0008500Y0229587D02*
X0008900Y0229587D01*
X0008500Y0216799D02*
X0037231Y0216799D01*
X0038830Y0215201D02*
X0008500Y0215201D01*
X0011838Y0213602D02*
X0035162Y0213602D01*
X0034300Y0212003D02*
X0012700Y0212003D01*
X0012700Y0210405D02*
X0034300Y0210405D01*
X0034754Y0208806D02*
X0012246Y0208806D01*
X0017001Y0219996D02*
X0019999Y0219996D01*
X0019103Y0221595D02*
X0017897Y0221595D01*
X0018100Y0223193D02*
X0018900Y0223193D01*
X0018900Y0224792D02*
X0018100Y0224792D01*
X0018100Y0226390D02*
X0018900Y0226390D01*
X0018900Y0227989D02*
X0018100Y0227989D01*
X0018100Y0229587D02*
X0018900Y0229587D01*
X0028100Y0229587D02*
X0028900Y0229587D01*
X0028900Y0227989D02*
X0028100Y0227989D01*
X0028100Y0226390D02*
X0028900Y0226390D01*
X0028900Y0224792D02*
X0028100Y0224792D01*
X0028100Y0223193D02*
X0028900Y0223193D01*
X0029103Y0221595D02*
X0027897Y0221595D01*
X0027001Y0219996D02*
X0029999Y0219996D01*
X0035345Y0189624D02*
X0036085Y0189624D01*
X0032975Y0156056D02*
X0008500Y0156056D01*
X0014397Y0186427D02*
X0015388Y0186427D01*
M02*
