G75*
%MOIN*%
%OFA0B0*%
%FSLAX25Y25*%
%IPPOS*%
%LPD*%
%AMOC8*
5,1,8,0,0,1.08239X$1,22.5*
%
%ADD10C,0.11824*%
%ADD11C,0.06000*%
%ADD12OC8,0.06000*%
%ADD13C,0.06800*%
%ADD14C,0.04800*%
D10*
X0021000Y0011000D03*
X0071000Y0011000D03*
X0121000Y0011000D03*
X0121000Y0256000D03*
X0071000Y0256000D03*
X0021000Y0256000D03*
D11*
X0016100Y0026000D02*
X0010900Y0026000D01*
X0010900Y0036000D02*
X0016100Y0036000D01*
X0016100Y0046000D02*
X0010900Y0046000D01*
X0010900Y0056000D02*
X0016100Y0056000D01*
X0016100Y0066000D02*
X0010900Y0066000D01*
X0010900Y0076000D02*
X0016100Y0076000D01*
X0016100Y0086000D02*
X0010900Y0086000D01*
X0010900Y0101000D02*
X0016100Y0101000D01*
X0016100Y0111000D02*
X0010900Y0111000D01*
X0010900Y0121000D02*
X0016100Y0121000D01*
X0016100Y0131000D02*
X0010900Y0131000D01*
X0010900Y0141000D02*
X0016100Y0141000D01*
X0016100Y0151000D02*
X0010900Y0151000D01*
X0010900Y0161000D02*
X0016100Y0161000D01*
X0018500Y0178400D02*
X0018500Y0183600D01*
X0008500Y0183600D02*
X0008500Y0178400D01*
X0028500Y0178400D02*
X0028500Y0183600D01*
X0038500Y0186100D02*
X0038500Y0180900D01*
X0048500Y0180900D02*
X0048500Y0186100D01*
X0058500Y0186100D02*
X0058500Y0180900D01*
X0068500Y0180900D02*
X0068500Y0186100D01*
X0078500Y0186100D02*
X0078500Y0180900D01*
X0088500Y0180900D02*
X0088500Y0186100D01*
X0093500Y0193400D02*
X0093500Y0198600D01*
X0103500Y0198600D02*
X0103500Y0193400D01*
X0113500Y0193400D02*
X0113500Y0198600D01*
X0046100Y0161000D02*
X0040900Y0161000D01*
X0040900Y0151000D02*
X0046100Y0151000D01*
X0046100Y0141000D02*
X0040900Y0141000D01*
X0040900Y0131000D02*
X0046100Y0131000D01*
X0046100Y0121000D02*
X0040900Y0121000D01*
X0040900Y0111000D02*
X0046100Y0111000D01*
X0046100Y0101000D02*
X0040900Y0101000D01*
X0040900Y0086000D02*
X0046100Y0086000D01*
X0046100Y0076000D02*
X0040900Y0076000D01*
X0040900Y0066000D02*
X0046100Y0066000D01*
X0046100Y0056000D02*
X0040900Y0056000D01*
X0040900Y0046000D02*
X0046100Y0046000D01*
X0046100Y0036000D02*
X0040900Y0036000D01*
X0040900Y0026000D02*
X0046100Y0026000D01*
D12*
X0058500Y0041000D03*
X0058500Y0051000D03*
X0058500Y0061000D03*
X0058500Y0071000D03*
X0058500Y0081000D03*
X0058500Y0091000D03*
X0058500Y0101000D03*
X0058500Y0111000D03*
X0058500Y0121000D03*
X0058500Y0131000D03*
X0058500Y0141000D03*
X0058500Y0151000D03*
X0058500Y0161000D03*
X0058500Y0171000D03*
X0048500Y0201000D03*
X0048500Y0211000D03*
X0038500Y0211000D03*
X0038500Y0201000D03*
X0008500Y0201000D03*
X0008500Y0211000D03*
X0078500Y0211000D03*
X0078500Y0201000D03*
X0088500Y0171000D03*
X0088500Y0161000D03*
X0088500Y0151000D03*
X0088500Y0141000D03*
X0088500Y0131000D03*
X0088500Y0121000D03*
X0088500Y0111000D03*
X0088500Y0101000D03*
X0088500Y0091000D03*
X0088500Y0081000D03*
X0088500Y0071000D03*
X0088500Y0061000D03*
X0088500Y0051000D03*
X0088500Y0041000D03*
D13*
X0105500Y0036000D02*
X0111500Y0036000D01*
X0111500Y0046000D02*
X0105500Y0046000D01*
X0105500Y0056000D02*
X0111500Y0056000D01*
X0111500Y0066000D02*
X0105500Y0066000D01*
X0105500Y0076000D02*
X0111500Y0076000D01*
X0111500Y0086000D02*
X0105500Y0086000D01*
X0105500Y0096000D02*
X0111500Y0096000D01*
X0111500Y0106000D02*
X0105500Y0106000D01*
X0105500Y0116000D02*
X0111500Y0116000D01*
X0111500Y0126000D02*
X0105500Y0126000D01*
X0105500Y0136000D02*
X0111500Y0136000D01*
X0111500Y0146000D02*
X0105500Y0146000D01*
X0105500Y0156000D02*
X0111500Y0156000D01*
X0111500Y0166000D02*
X0105500Y0166000D01*
X0105500Y0176000D02*
X0111500Y0176000D01*
X0108500Y0213000D02*
X0108500Y0219000D01*
X0098500Y0219000D02*
X0098500Y0213000D01*
X0083500Y0223000D02*
X0083500Y0229000D01*
X0073500Y0229000D02*
X0073500Y0223000D01*
X0063500Y0223000D02*
X0063500Y0229000D01*
X0053500Y0229000D02*
X0053500Y0223000D01*
X0043500Y0223000D02*
X0043500Y0229000D01*
X0033500Y0229000D02*
X0033500Y0223000D01*
X0023500Y0223000D02*
X0023500Y0229000D01*
X0013500Y0229000D02*
X0013500Y0223000D01*
X0105500Y0026000D02*
X0111500Y0026000D01*
X0118500Y0213000D02*
X0118500Y0219000D01*
X0128500Y0219000D02*
X0128500Y0213000D01*
D14*
X0121000Y0123500D03*
X0119750Y0103500D03*
X0049750Y0106000D03*
X0032250Y0082250D03*
X0024750Y0089750D03*
X0032250Y0044750D03*
M02*
