%
M48
M72
T01C0.02400
T02C0.03200
T03C0.04000
T04C0.11024
%
T01
X32250Y44750
X32250Y82250
X24750Y89750
X49750Y106000
X119750Y103500
X121000Y123500
T02
X13500Y26000
X13500Y36000
X13500Y46000
X13500Y56000
X13500Y66000
X13500Y76000
X13500Y86000
X13500Y101000
X13500Y111000
X13500Y121000
X13500Y131000
X13500Y141000
X13500Y151000
X13500Y161000
X8500Y181000
X18500Y181000
X28500Y181000
X38500Y183500
X38500Y201000
X38500Y211000
X48500Y211000
X48500Y201000
X48500Y183500
X58500Y183500
X58500Y171000
X58500Y161000
X58500Y151000
X58500Y141000
X58500Y131000
X58500Y121000
X58500Y111000
X58500Y101000
X58500Y91000
X58500Y81000
X58500Y71000
X58500Y61000
X58500Y51000
X58500Y41000
X43500Y36000
X43500Y46000
X43500Y56000
X43500Y66000
X43500Y76000
X43500Y86000
X43500Y101000
X43500Y111000
X43500Y121000
X43500Y131000
X43500Y141000
X43500Y151000
X43500Y161000
X68500Y183500
X78500Y183500
X78500Y201000
X78500Y211000
X88500Y183500
X88500Y171000
X88500Y161000
X88500Y151000
X88500Y141000
X88500Y131000
X88500Y121000
X88500Y111000
X88500Y101000
X88500Y91000
X88500Y81000
X88500Y71000
X88500Y61000
X88500Y51000
X88500Y41000
X43500Y26000
X93500Y196000
X103500Y196000
X113500Y196000
X8500Y201000
X8500Y211000
T03
X13500Y226000
X23500Y226000
X33500Y226000
X43500Y226000
X53500Y226000
X63500Y226000
X73500Y226000
X83500Y226000
X98500Y216000
X108500Y216000
X118500Y216000
X128500Y216000
X108500Y176000
X108500Y166000
X108500Y156000
X108500Y146000
X108500Y136000
X108500Y126000
X108500Y116000
X108500Y106000
X108500Y96000
X108500Y86000
X108500Y76000
X108500Y66000
X108500Y56000
X108500Y46000
X108500Y36000
X108500Y26000
T04
X121000Y11000
X71000Y11000
X21000Y11000
X21000Y256000
X71000Y256000
X121000Y256000
M30
