G75*
%MOIN*%
%OFA0B0*%
%FSLAX25Y25*%
%IPPOS*%
%LPD*%
%AMOC8*
5,1,8,0,0,1.08239X$1,22.5*
%
%ADD10C,0.05200*%
%ADD11OC8,0.05200*%
%ADD12C,0.06000*%
%ADD13C,0.01000*%
%ADD14C,0.04000*%
%ADD15C,0.01600*%
D10*
X0010900Y0026000D02*
X0016100Y0026000D01*
X0016100Y0036000D02*
X0010900Y0036000D01*
X0010900Y0046000D02*
X0016100Y0046000D01*
X0016100Y0056000D02*
X0010900Y0056000D01*
X0010900Y0066000D02*
X0016100Y0066000D01*
X0016100Y0076000D02*
X0010900Y0076000D01*
X0010900Y0086000D02*
X0016100Y0086000D01*
X0016100Y0101000D02*
X0010900Y0101000D01*
X0010900Y0111000D02*
X0016100Y0111000D01*
X0016100Y0121000D02*
X0010900Y0121000D01*
X0010900Y0131000D02*
X0016100Y0131000D01*
X0016100Y0141000D02*
X0010900Y0141000D01*
X0010900Y0151000D02*
X0016100Y0151000D01*
X0016100Y0161000D02*
X0010900Y0161000D01*
X0008500Y0178400D02*
X0008500Y0183600D01*
X0018500Y0183600D02*
X0018500Y0178400D01*
X0028500Y0178400D02*
X0028500Y0183600D01*
X0038500Y0186100D02*
X0038500Y0180900D01*
X0048500Y0180900D02*
X0048500Y0186100D01*
X0058500Y0186100D02*
X0058500Y0180900D01*
X0068500Y0180900D02*
X0068500Y0186100D01*
X0078500Y0186100D02*
X0078500Y0180900D01*
X0088500Y0180900D02*
X0088500Y0186100D01*
X0093500Y0193400D02*
X0093500Y0198600D01*
X0103500Y0198600D02*
X0103500Y0193400D01*
X0113500Y0193400D02*
X0113500Y0198600D01*
X0046100Y0161000D02*
X0040900Y0161000D01*
X0040900Y0151000D02*
X0046100Y0151000D01*
X0046100Y0141000D02*
X0040900Y0141000D01*
X0040900Y0131000D02*
X0046100Y0131000D01*
X0046100Y0121000D02*
X0040900Y0121000D01*
X0040900Y0111000D02*
X0046100Y0111000D01*
X0046100Y0101000D02*
X0040900Y0101000D01*
X0040900Y0086000D02*
X0046100Y0086000D01*
X0046100Y0076000D02*
X0040900Y0076000D01*
X0040900Y0066000D02*
X0046100Y0066000D01*
X0046100Y0056000D02*
X0040900Y0056000D01*
X0040900Y0046000D02*
X0046100Y0046000D01*
X0046100Y0036000D02*
X0040900Y0036000D01*
X0040900Y0026000D02*
X0046100Y0026000D01*
D11*
X0058500Y0041000D03*
X0058500Y0051000D03*
X0058500Y0061000D03*
X0058500Y0071000D03*
X0058500Y0081000D03*
X0058500Y0091000D03*
X0058500Y0101000D03*
X0058500Y0111000D03*
X0058500Y0121000D03*
X0058500Y0131000D03*
X0058500Y0141000D03*
X0058500Y0151000D03*
X0058500Y0161000D03*
X0058500Y0171000D03*
X0048500Y0201000D03*
X0048500Y0211000D03*
X0038500Y0211000D03*
X0038500Y0201000D03*
X0008500Y0201000D03*
X0008500Y0211000D03*
X0078500Y0211000D03*
X0078500Y0201000D03*
X0088500Y0171000D03*
X0088500Y0161000D03*
X0088500Y0151000D03*
X0088500Y0141000D03*
X0088500Y0131000D03*
X0088500Y0121000D03*
X0088500Y0111000D03*
X0088500Y0101000D03*
X0088500Y0091000D03*
X0088500Y0081000D03*
X0088500Y0071000D03*
X0088500Y0061000D03*
X0088500Y0051000D03*
X0088500Y0041000D03*
D12*
X0105500Y0036000D02*
X0111500Y0036000D01*
X0111500Y0046000D02*
X0105500Y0046000D01*
X0105500Y0056000D02*
X0111500Y0056000D01*
X0111500Y0066000D02*
X0105500Y0066000D01*
X0105500Y0076000D02*
X0111500Y0076000D01*
X0111500Y0086000D02*
X0105500Y0086000D01*
X0105500Y0096000D02*
X0111500Y0096000D01*
X0111500Y0106000D02*
X0105500Y0106000D01*
X0105500Y0116000D02*
X0111500Y0116000D01*
X0111500Y0126000D02*
X0105500Y0126000D01*
X0105500Y0136000D02*
X0111500Y0136000D01*
X0111500Y0146000D02*
X0105500Y0146000D01*
X0105500Y0156000D02*
X0111500Y0156000D01*
X0111500Y0166000D02*
X0105500Y0166000D01*
X0105500Y0176000D02*
X0111500Y0176000D01*
X0108500Y0213000D02*
X0108500Y0219000D01*
X0098500Y0219000D02*
X0098500Y0213000D01*
X0083500Y0223000D02*
X0083500Y0229000D01*
X0073500Y0229000D02*
X0073500Y0223000D01*
X0063500Y0223000D02*
X0063500Y0229000D01*
X0053500Y0229000D02*
X0053500Y0223000D01*
X0043500Y0223000D02*
X0043500Y0229000D01*
X0033500Y0229000D02*
X0033500Y0223000D01*
X0023500Y0223000D02*
X0023500Y0229000D01*
X0013500Y0229000D02*
X0013500Y0223000D01*
X0105500Y0026000D02*
X0111500Y0026000D01*
X0118500Y0213000D02*
X0118500Y0219000D01*
X0128500Y0219000D02*
X0128500Y0213000D01*
D13*
X0128500Y0216000D02*
X0128500Y0136000D01*
X0113500Y0121000D01*
X0103500Y0121000D01*
X0096000Y0113500D01*
X0096000Y0098500D01*
X0088500Y0091000D01*
X0081000Y0098500D01*
X0081000Y0114750D01*
X0059750Y0136000D01*
X0057250Y0136000D01*
X0052250Y0141000D01*
X0043500Y0141000D01*
X0039750Y0146000D02*
X0082250Y0146000D01*
X0087250Y0141000D01*
X0088500Y0141000D01*
X0089750Y0146000D02*
X0086000Y0146000D01*
X0076000Y0156000D01*
X0051000Y0156000D01*
X0046000Y0151000D01*
X0043500Y0151000D01*
X0039750Y0146000D02*
X0034750Y0151000D01*
X0013500Y0151000D01*
X0013500Y0161000D02*
X0032250Y0161000D01*
X0039750Y0168500D01*
X0054750Y0168500D01*
X0057250Y0166000D01*
X0063500Y0166000D01*
X0068500Y0171000D01*
X0088500Y0151000D01*
X0089750Y0146000D02*
X0096000Y0152250D01*
X0096000Y0163500D01*
X0088500Y0171000D01*
X0078500Y0181000D02*
X0078500Y0183500D01*
X0078500Y0181000D02*
X0068500Y0171000D01*
X0058500Y0171000D02*
X0068500Y0181000D01*
X0068500Y0183500D01*
X0079750Y0194750D01*
X0093500Y0194750D01*
X0093500Y0196000D01*
X0093500Y0194750D02*
X0093500Y0191000D01*
X0108500Y0176000D01*
X0113500Y0196000D02*
X0113500Y0198500D01*
X0103500Y0208500D01*
X0103500Y0221000D01*
X0088500Y0236000D01*
X0011000Y0236000D01*
X0006000Y0231000D01*
X0006000Y0213500D01*
X0008500Y0211000D01*
X0008500Y0201000D02*
X0011000Y0201000D01*
X0028500Y0183500D01*
X0028500Y0181000D01*
X0038500Y0183500D02*
X0051000Y0171000D01*
X0058500Y0171000D01*
X0038500Y0201000D02*
X0013500Y0226000D01*
X0023500Y0226000D02*
X0023500Y0228500D01*
X0028500Y0233500D01*
X0086000Y0233500D01*
X0091000Y0228500D01*
X0091000Y0213500D01*
X0078500Y0201000D01*
X0043500Y0221000D02*
X0043500Y0226000D01*
X0043500Y0221000D02*
X0038500Y0216000D01*
X0038500Y0211000D01*
X0043500Y0131000D02*
X0026000Y0131000D01*
X0023500Y0128500D01*
X0041000Y0111000D01*
X0043500Y0111000D01*
X0049750Y0106000D02*
X0021000Y0106000D01*
X0024750Y0102250D01*
X0024750Y0089750D01*
X0032250Y0082250D02*
X0032250Y0044750D01*
X0031000Y0041000D02*
X0016000Y0056000D01*
X0013500Y0056000D01*
X0006000Y0044750D02*
X0009750Y0041000D01*
X0017250Y0041000D01*
X0032250Y0026000D01*
X0043500Y0026000D01*
X0036000Y0018500D02*
X0063500Y0018500D01*
X0068500Y0023500D01*
X0098500Y0023500D01*
X0103500Y0018500D01*
X0113500Y0018500D01*
X0116000Y0021000D01*
X0116000Y0111000D01*
X0111000Y0116000D01*
X0108500Y0116000D01*
X0113500Y0131000D02*
X0099750Y0131000D01*
X0089750Y0121000D01*
X0088500Y0121000D01*
X0066000Y0123500D02*
X0066000Y0092250D01*
X0059750Y0086000D01*
X0057250Y0086000D01*
X0047250Y0076000D01*
X0043500Y0076000D01*
X0038500Y0093500D02*
X0049750Y0093500D01*
X0057250Y0101000D01*
X0058500Y0101000D01*
X0066000Y0123500D02*
X0058500Y0131000D01*
X0038500Y0093500D02*
X0021000Y0076000D01*
X0013500Y0076000D01*
X0013500Y0101000D02*
X0008500Y0101000D01*
X0006000Y0103500D01*
X0006000Y0044750D01*
X0013500Y0036000D02*
X0018500Y0036000D01*
X0036000Y0018500D01*
X0031000Y0041000D02*
X0058500Y0041000D01*
X0058500Y0051000D02*
X0078500Y0051000D01*
X0088500Y0041000D01*
X0088500Y0051000D02*
X0083500Y0056000D01*
X0082250Y0056000D01*
X0087250Y0061000D01*
X0088500Y0061000D01*
X0082250Y0056000D02*
X0073500Y0056000D01*
X0088500Y0071000D01*
X0073500Y0056000D02*
X0043500Y0056000D01*
X0021000Y0106000D02*
X0016000Y0111000D01*
X0013500Y0111000D01*
X0013500Y0121000D02*
X0008500Y0121000D01*
X0006000Y0118500D01*
X0006000Y0103500D01*
X0013500Y0121000D02*
X0016000Y0121000D01*
X0023500Y0128500D01*
X0113500Y0131000D02*
X0118500Y0136000D01*
X0118500Y0216000D01*
X0121000Y0123500D02*
X0121000Y0104750D01*
X0119750Y0103500D01*
D14*
X0119750Y0103500D03*
X0121000Y0123500D03*
X0049750Y0106000D03*
X0032250Y0082250D03*
X0024750Y0089750D03*
X0032250Y0044750D03*
D15*
X0008500Y0022460D02*
X0008500Y0021000D01*
X0018479Y0021000D01*
X0019642Y0021312D01*
X0022358Y0021312D01*
X0023521Y0021000D01*
X0030530Y0021000D01*
X0018785Y0032745D01*
X0018479Y0032439D01*
X0016935Y0031800D01*
X0010065Y0031800D01*
X0008521Y0032439D01*
X0008500Y0032460D01*
X0008500Y0029540D01*
X0008521Y0029561D01*
X0010065Y0030200D01*
X0016935Y0030200D01*
X0018479Y0029561D01*
X0019661Y0028379D01*
X0020300Y0026835D01*
X0020300Y0025165D01*
X0019661Y0023621D01*
X0018479Y0022439D01*
X0016935Y0021800D01*
X0010065Y0021800D01*
X0008521Y0022439D01*
X0008500Y0022460D01*
X0008500Y0021781D02*
X0029750Y0021781D01*
X0028151Y0023379D02*
X0019419Y0023379D01*
X0020223Y0024978D02*
X0026552Y0024978D01*
X0024954Y0026576D02*
X0020300Y0026576D01*
X0019745Y0028175D02*
X0023355Y0028175D01*
X0021757Y0029773D02*
X0017966Y0029773D01*
X0020158Y0031372D02*
X0008500Y0031372D01*
X0008500Y0029773D02*
X0009034Y0029773D01*
X0019350Y0041870D02*
X0018630Y0042590D01*
X0019661Y0043621D01*
X0020300Y0045165D01*
X0020300Y0046835D01*
X0019661Y0048379D01*
X0018479Y0049561D01*
X0016935Y0050200D01*
X0010065Y0050200D01*
X0008521Y0049561D01*
X0008500Y0049540D01*
X0008500Y0052460D01*
X0008521Y0052439D01*
X0010065Y0051800D01*
X0016935Y0051800D01*
X0017144Y0051886D01*
X0030130Y0038900D01*
X0037860Y0038900D01*
X0037339Y0038379D01*
X0036700Y0036835D01*
X0036700Y0035165D01*
X0037339Y0033621D01*
X0038521Y0032439D01*
X0040065Y0031800D01*
X0046935Y0031800D01*
X0048479Y0032439D01*
X0049661Y0033621D01*
X0050300Y0035165D01*
X0050300Y0036835D01*
X0049661Y0038379D01*
X0049140Y0038900D01*
X0054660Y0038900D01*
X0056760Y0036800D01*
X0060240Y0036800D01*
X0062700Y0039260D01*
X0062700Y0042740D01*
X0060240Y0045200D01*
X0056760Y0045200D01*
X0054660Y0043100D01*
X0049140Y0043100D01*
X0049661Y0043621D01*
X0050300Y0045165D01*
X0050300Y0046835D01*
X0049661Y0048379D01*
X0048479Y0049561D01*
X0046935Y0050200D01*
X0040065Y0050200D01*
X0038521Y0049561D01*
X0037339Y0048379D01*
X0036700Y0046835D01*
X0036700Y0045165D01*
X0037339Y0043621D01*
X0037860Y0043100D01*
X0035463Y0043100D01*
X0035850Y0044034D01*
X0035850Y0045466D01*
X0035302Y0046789D01*
X0034350Y0047741D01*
X0034350Y0079259D01*
X0035302Y0080211D01*
X0035850Y0081534D01*
X0035850Y0082966D01*
X0035302Y0084289D01*
X0034289Y0085302D01*
X0033570Y0085600D01*
X0039370Y0091400D01*
X0050620Y0091400D01*
X0056390Y0097170D01*
X0056760Y0096800D01*
X0060240Y0096800D01*
X0062700Y0099260D01*
X0062700Y0102740D01*
X0060240Y0105200D01*
X0056760Y0105200D01*
X0054300Y0102740D01*
X0054300Y0101020D01*
X0048880Y0095600D01*
X0037630Y0095600D01*
X0036400Y0094370D01*
X0020130Y0078100D01*
X0019776Y0078100D01*
X0019661Y0078379D01*
X0018479Y0079561D01*
X0016935Y0080200D01*
X0010065Y0080200D01*
X0008521Y0079561D01*
X0008500Y0079540D01*
X0008500Y0082460D01*
X0008521Y0082439D01*
X0010065Y0081800D01*
X0016935Y0081800D01*
X0018479Y0082439D01*
X0019661Y0083621D01*
X0020300Y0085165D01*
X0020300Y0086835D01*
X0019661Y0088379D01*
X0018479Y0089561D01*
X0016935Y0090200D01*
X0010065Y0090200D01*
X0008521Y0089561D01*
X0008500Y0089540D01*
X0008500Y0097460D01*
X0008521Y0097439D01*
X0010065Y0096800D01*
X0016935Y0096800D01*
X0018479Y0097439D01*
X0019661Y0098621D01*
X0020300Y0100165D01*
X0020300Y0101835D01*
X0019661Y0103379D01*
X0018479Y0104561D01*
X0016935Y0105200D01*
X0010065Y0105200D01*
X0008521Y0104561D01*
X0008500Y0104540D01*
X0008500Y0107460D01*
X0008521Y0107439D01*
X0010065Y0106800D01*
X0016935Y0106800D01*
X0017144Y0106886D01*
X0018900Y0105130D01*
X0020130Y0103900D01*
X0022650Y0101380D01*
X0022650Y0092741D01*
X0021698Y0091789D01*
X0021150Y0090466D01*
X0021150Y0089034D01*
X0021698Y0087711D01*
X0022711Y0086698D01*
X0024034Y0086150D01*
X0025466Y0086150D01*
X0026789Y0086698D01*
X0027802Y0087711D01*
X0028350Y0089034D01*
X0028350Y0090466D01*
X0027802Y0091789D01*
X0026850Y0092741D01*
X0026850Y0103120D01*
X0026070Y0103900D01*
X0037860Y0103900D01*
X0037339Y0103379D01*
X0036700Y0101835D01*
X0036700Y0100165D01*
X0037339Y0098621D01*
X0038521Y0097439D01*
X0040065Y0096800D01*
X0046935Y0096800D01*
X0048479Y0097439D01*
X0049661Y0098621D01*
X0050300Y0100165D01*
X0050300Y0101835D01*
X0050066Y0102400D01*
X0050466Y0102400D01*
X0051789Y0102948D01*
X0052802Y0103961D01*
X0053350Y0105284D01*
X0053350Y0106716D01*
X0052802Y0108039D01*
X0051789Y0109052D01*
X0050466Y0109600D01*
X0050066Y0109600D01*
X0050300Y0110165D01*
X0050300Y0111835D01*
X0049661Y0113379D01*
X0048479Y0114561D01*
X0046935Y0115200D01*
X0040065Y0115200D01*
X0039856Y0115114D01*
X0026470Y0128500D01*
X0026870Y0128900D01*
X0037224Y0128900D01*
X0037339Y0128621D01*
X0038521Y0127439D01*
X0040065Y0126800D01*
X0046935Y0126800D01*
X0048479Y0127439D01*
X0049661Y0128621D01*
X0050300Y0130165D01*
X0050300Y0131835D01*
X0049661Y0133379D01*
X0048479Y0134561D01*
X0046935Y0135200D01*
X0040065Y0135200D01*
X0038521Y0134561D01*
X0037339Y0133379D01*
X0037224Y0133100D01*
X0025130Y0133100D01*
X0022630Y0130600D01*
X0021400Y0129370D01*
X0021400Y0129370D01*
X0017144Y0125114D01*
X0016935Y0125200D01*
X0010065Y0125200D01*
X0008521Y0124561D01*
X0008500Y0124540D01*
X0008500Y0127460D01*
X0008521Y0127439D01*
X0010065Y0126800D01*
X0016935Y0126800D01*
X0018479Y0127439D01*
X0019661Y0128621D01*
X0020300Y0130165D01*
X0020300Y0131835D01*
X0019661Y0133379D01*
X0018479Y0134561D01*
X0016935Y0135200D01*
X0010065Y0135200D01*
X0008521Y0134561D01*
X0008500Y0134540D01*
X0008500Y0137460D01*
X0008521Y0137439D01*
X0010065Y0136800D01*
X0016935Y0136800D01*
X0018479Y0137439D01*
X0019661Y0138621D01*
X0020300Y0140165D01*
X0020300Y0141835D01*
X0019661Y0143379D01*
X0018479Y0144561D01*
X0016935Y0145200D01*
X0010065Y0145200D01*
X0008521Y0144561D01*
X0008500Y0144540D01*
X0008500Y0147460D01*
X0008521Y0147439D01*
X0010065Y0146800D01*
X0016935Y0146800D01*
X0018479Y0147439D01*
X0019661Y0148621D01*
X0019776Y0148900D01*
X0033880Y0148900D01*
X0037650Y0145130D01*
X0038370Y0144410D01*
X0037339Y0143379D01*
X0036700Y0141835D01*
X0036700Y0140165D01*
X0037339Y0138621D01*
X0038521Y0137439D01*
X0040065Y0136800D01*
X0046935Y0136800D01*
X0048479Y0137439D01*
X0049661Y0138621D01*
X0049776Y0138900D01*
X0051380Y0138900D01*
X0055150Y0135130D01*
X0055920Y0134360D01*
X0054300Y0132740D01*
X0054300Y0129260D01*
X0056760Y0126800D01*
X0059730Y0126800D01*
X0063900Y0122630D01*
X0063900Y0093120D01*
X0062700Y0091920D01*
X0062700Y0092740D01*
X0060240Y0095200D01*
X0056760Y0095200D01*
X0054300Y0092740D01*
X0054300Y0089260D01*
X0055920Y0087640D01*
X0055150Y0086870D01*
X0048028Y0079748D01*
X0046935Y0080200D01*
X0040065Y0080200D01*
X0038521Y0079561D01*
X0037339Y0078379D01*
X0036700Y0076835D01*
X0036700Y0075165D01*
X0037339Y0073621D01*
X0038521Y0072439D01*
X0040065Y0071800D01*
X0046935Y0071800D01*
X0048479Y0072439D01*
X0049661Y0073621D01*
X0050300Y0075165D01*
X0050300Y0076080D01*
X0054300Y0080080D01*
X0054300Y0079260D01*
X0056760Y0076800D01*
X0060240Y0076800D01*
X0062700Y0079260D01*
X0062700Y0082740D01*
X0061080Y0084360D01*
X0066870Y0090150D01*
X0068100Y0091380D01*
X0068100Y0124370D01*
X0066870Y0125600D01*
X0066870Y0125600D01*
X0062700Y0129770D01*
X0062700Y0130080D01*
X0078900Y0113880D01*
X0078900Y0097630D01*
X0084300Y0092230D01*
X0084300Y0089260D01*
X0086760Y0086800D01*
X0090240Y0086800D01*
X0092700Y0089260D01*
X0092700Y0092230D01*
X0098100Y0097630D01*
X0098100Y0112630D01*
X0100900Y0115430D01*
X0100900Y0115085D01*
X0101600Y0113394D01*
X0102894Y0112100D01*
X0104585Y0111400D01*
X0112415Y0111400D01*
X0112567Y0111463D01*
X0113500Y0110530D01*
X0113500Y0110151D01*
X0112415Y0110600D01*
X0104585Y0110600D01*
X0102894Y0109900D01*
X0101600Y0108606D01*
X0100900Y0106915D01*
X0100900Y0105085D01*
X0101600Y0103394D01*
X0102894Y0102100D01*
X0104585Y0101400D01*
X0112415Y0101400D01*
X0113500Y0101849D01*
X0113500Y0100151D01*
X0112415Y0100600D01*
X0104585Y0100600D01*
X0102894Y0099900D01*
X0101600Y0098606D01*
X0100900Y0096915D01*
X0100900Y0095085D01*
X0101600Y0093394D01*
X0102894Y0092100D01*
X0104585Y0091400D01*
X0112415Y0091400D01*
X0113500Y0091849D01*
X0113500Y0090151D01*
X0112415Y0090600D01*
X0104585Y0090600D01*
X0102894Y0089900D01*
X0101600Y0088606D01*
X0100900Y0086915D01*
X0100900Y0085085D01*
X0101600Y0083394D01*
X0102894Y0082100D01*
X0104585Y0081400D01*
X0112415Y0081400D01*
X0113500Y0081849D01*
X0113500Y0080151D01*
X0112415Y0080600D01*
X0104585Y0080600D01*
X0102894Y0079900D01*
X0101600Y0078606D01*
X0100900Y0076915D01*
X0100900Y0075085D01*
X0101600Y0073394D01*
X0102894Y0072100D01*
X0104585Y0071400D01*
X0112415Y0071400D01*
X0113500Y0071849D01*
X0113500Y0070151D01*
X0112415Y0070600D01*
X0104585Y0070600D01*
X0102894Y0069900D01*
X0101600Y0068606D01*
X0100900Y0066915D01*
X0100900Y0065085D01*
X0101600Y0063394D01*
X0102894Y0062100D01*
X0104585Y0061400D01*
X0112415Y0061400D01*
X0113500Y0061849D01*
X0113500Y0060151D01*
X0112415Y0060600D01*
X0104585Y0060600D01*
X0102894Y0059900D01*
X0101600Y0058606D01*
X0100900Y0056915D01*
X0100900Y0055085D01*
X0101600Y0053394D01*
X0102894Y0052100D01*
X0104585Y0051400D01*
X0112415Y0051400D01*
X0113500Y0051849D01*
X0113500Y0050151D01*
X0112415Y0050600D01*
X0104585Y0050600D01*
X0102894Y0049900D01*
X0101600Y0048606D01*
X0100900Y0046915D01*
X0100900Y0045085D01*
X0101600Y0043394D01*
X0102894Y0042100D01*
X0104585Y0041400D01*
X0112415Y0041400D01*
X0113500Y0041849D01*
X0113500Y0040151D01*
X0112415Y0040600D01*
X0104585Y0040600D01*
X0102894Y0039900D01*
X0101600Y0038606D01*
X0100900Y0036915D01*
X0100900Y0035085D01*
X0101600Y0033394D01*
X0102894Y0032100D01*
X0104585Y0031400D01*
X0112415Y0031400D01*
X0113500Y0031849D01*
X0113500Y0030151D01*
X0112415Y0030600D01*
X0104585Y0030600D01*
X0102894Y0029900D01*
X0101600Y0028606D01*
X0100900Y0026915D01*
X0100900Y0025085D01*
X0101600Y0023394D01*
X0102894Y0022100D01*
X0104585Y0021400D01*
X0112415Y0021400D01*
X0113500Y0021849D01*
X0113500Y0021470D01*
X0113030Y0021000D01*
X0103970Y0021000D01*
X0099370Y0025600D01*
X0067630Y0025600D01*
X0066400Y0024370D01*
X0063030Y0021000D01*
X0036470Y0021000D01*
X0033570Y0023900D01*
X0037224Y0023900D01*
X0037339Y0023621D01*
X0038521Y0022439D01*
X0040065Y0021800D01*
X0046935Y0021800D01*
X0048479Y0022439D01*
X0049661Y0023621D01*
X0050300Y0025165D01*
X0050300Y0026835D01*
X0049661Y0028379D01*
X0048479Y0029561D01*
X0046935Y0030200D01*
X0040065Y0030200D01*
X0038521Y0029561D01*
X0037339Y0028379D01*
X0037224Y0028100D01*
X0033120Y0028100D01*
X0019350Y0041870D01*
X0018659Y0042561D02*
X0026469Y0042561D01*
X0028067Y0040963D02*
X0020257Y0040963D01*
X0021856Y0039364D02*
X0029666Y0039364D01*
X0028250Y0032970D02*
X0037990Y0032970D01*
X0036947Y0034569D02*
X0026651Y0034569D01*
X0025053Y0036167D02*
X0036700Y0036167D01*
X0037085Y0037766D02*
X0023454Y0037766D01*
X0024870Y0044160D02*
X0019884Y0044160D01*
X0020300Y0045758D02*
X0023272Y0045758D01*
X0021673Y0047357D02*
X0020084Y0047357D01*
X0020075Y0048955D02*
X0019084Y0048955D01*
X0018476Y0050554D02*
X0008500Y0050554D01*
X0008500Y0052152D02*
X0009214Y0052152D01*
X0008500Y0059540D02*
X0008500Y0062460D01*
X0008521Y0062439D01*
X0010065Y0061800D01*
X0016935Y0061800D01*
X0018479Y0062439D01*
X0019661Y0063621D01*
X0020300Y0065165D01*
X0020300Y0066835D01*
X0019661Y0068379D01*
X0018479Y0069561D01*
X0016935Y0070200D01*
X0010065Y0070200D01*
X0008521Y0069561D01*
X0008500Y0069540D01*
X0008500Y0072460D01*
X0008521Y0072439D01*
X0010065Y0071800D01*
X0016935Y0071800D01*
X0018479Y0072439D01*
X0019661Y0073621D01*
X0019776Y0073900D01*
X0021870Y0073900D01*
X0028900Y0080930D01*
X0029198Y0080211D01*
X0030150Y0079259D01*
X0030150Y0047741D01*
X0029198Y0046789D01*
X0028900Y0046070D01*
X0020155Y0054815D01*
X0020300Y0055165D01*
X0020300Y0056835D01*
X0019661Y0058379D01*
X0018479Y0059561D01*
X0016935Y0060200D01*
X0010065Y0060200D01*
X0008521Y0059561D01*
X0008500Y0059540D01*
X0008500Y0060145D02*
X0009932Y0060145D01*
X0008500Y0061743D02*
X0030150Y0061743D01*
X0030150Y0060145D02*
X0017068Y0060145D01*
X0019493Y0058546D02*
X0030150Y0058546D01*
X0030150Y0056948D02*
X0020253Y0056948D01*
X0020300Y0055349D02*
X0030150Y0055349D01*
X0030150Y0053751D02*
X0021219Y0053751D01*
X0022817Y0052152D02*
X0030150Y0052152D01*
X0030150Y0050554D02*
X0024416Y0050554D01*
X0026014Y0048955D02*
X0030150Y0048955D01*
X0029766Y0047357D02*
X0027613Y0047357D01*
X0034350Y0048955D02*
X0037916Y0048955D01*
X0036916Y0047357D02*
X0034734Y0047357D01*
X0035729Y0045758D02*
X0036700Y0045758D01*
X0037116Y0044160D02*
X0035850Y0044160D01*
X0034350Y0050554D02*
X0054300Y0050554D01*
X0054300Y0049260D02*
X0056760Y0046800D01*
X0060240Y0046800D01*
X0062340Y0048900D01*
X0077630Y0048900D01*
X0084300Y0042230D01*
X0084300Y0039260D01*
X0086760Y0036800D01*
X0090240Y0036800D01*
X0092700Y0039260D01*
X0092700Y0042740D01*
X0090240Y0045200D01*
X0087270Y0045200D01*
X0080600Y0051870D01*
X0079370Y0053100D01*
X0062340Y0053100D01*
X0061540Y0053900D01*
X0082630Y0053900D01*
X0084300Y0052230D01*
X0084300Y0049260D01*
X0086760Y0046800D01*
X0090240Y0046800D01*
X0092700Y0049260D01*
X0092700Y0052740D01*
X0090240Y0055200D01*
X0087270Y0055200D01*
X0085845Y0056625D01*
X0086390Y0057170D01*
X0086760Y0056800D01*
X0090240Y0056800D01*
X0092700Y0059260D01*
X0092700Y0062740D01*
X0090240Y0065200D01*
X0086760Y0065200D01*
X0084300Y0062740D01*
X0084300Y0061020D01*
X0081380Y0058100D01*
X0078570Y0058100D01*
X0087270Y0066800D01*
X0090240Y0066800D01*
X0092700Y0069260D01*
X0092700Y0072740D01*
X0090240Y0075200D01*
X0086760Y0075200D01*
X0084300Y0072740D01*
X0084300Y0069770D01*
X0072630Y0058100D01*
X0061540Y0058100D01*
X0062700Y0059260D01*
X0062700Y0062740D01*
X0060240Y0065200D01*
X0056760Y0065200D01*
X0054300Y0062740D01*
X0054300Y0059260D01*
X0055460Y0058100D01*
X0049776Y0058100D01*
X0049661Y0058379D01*
X0048479Y0059561D01*
X0046935Y0060200D01*
X0040065Y0060200D01*
X0038521Y0059561D01*
X0037339Y0058379D01*
X0036700Y0056835D01*
X0036700Y0055165D01*
X0037339Y0053621D01*
X0038521Y0052439D01*
X0040065Y0051800D01*
X0046935Y0051800D01*
X0048479Y0052439D01*
X0049661Y0053621D01*
X0049776Y0053900D01*
X0055460Y0053900D01*
X0054300Y0052740D01*
X0054300Y0049260D01*
X0054605Y0048955D02*
X0049084Y0048955D01*
X0050084Y0047357D02*
X0056203Y0047357D01*
X0055720Y0044160D02*
X0049884Y0044160D01*
X0050300Y0045758D02*
X0080772Y0045758D01*
X0082370Y0044160D02*
X0061280Y0044160D01*
X0062700Y0042561D02*
X0083969Y0042561D01*
X0084300Y0040963D02*
X0062700Y0040963D01*
X0062700Y0039364D02*
X0084300Y0039364D01*
X0085795Y0037766D02*
X0061205Y0037766D01*
X0055795Y0037766D02*
X0049915Y0037766D01*
X0050300Y0036167D02*
X0100900Y0036167D01*
X0101114Y0034569D02*
X0050053Y0034569D01*
X0049010Y0032970D02*
X0102024Y0032970D01*
X0101252Y0037766D02*
X0091205Y0037766D01*
X0092700Y0039364D02*
X0102359Y0039364D01*
X0102433Y0042561D02*
X0092700Y0042561D01*
X0092700Y0040963D02*
X0113500Y0040963D01*
X0113500Y0050554D02*
X0112526Y0050554D01*
X0113244Y0061743D02*
X0113500Y0061743D01*
X0113500Y0071334D02*
X0092700Y0071334D01*
X0092700Y0069736D02*
X0102731Y0069736D01*
X0101406Y0068137D02*
X0091577Y0068137D01*
X0092507Y0072933D02*
X0102062Y0072933D01*
X0101129Y0074532D02*
X0090908Y0074532D01*
X0090240Y0076800D02*
X0092700Y0079260D01*
X0092700Y0082740D01*
X0090240Y0085200D01*
X0086760Y0085200D01*
X0084300Y0082740D01*
X0084300Y0079260D01*
X0086760Y0076800D01*
X0090240Y0076800D01*
X0091168Y0077729D02*
X0101237Y0077729D01*
X0100900Y0076130D02*
X0050350Y0076130D01*
X0050038Y0074532D02*
X0056092Y0074532D01*
X0056760Y0075200D02*
X0054300Y0072740D01*
X0054300Y0069260D01*
X0056760Y0066800D01*
X0060240Y0066800D01*
X0062700Y0069260D01*
X0062700Y0072740D01*
X0060240Y0075200D01*
X0056760Y0075200D01*
X0055832Y0077729D02*
X0051948Y0077729D01*
X0053547Y0079327D02*
X0054300Y0079327D01*
X0052403Y0084123D02*
X0049868Y0084123D01*
X0049661Y0083621D02*
X0050300Y0085165D01*
X0050300Y0086835D01*
X0049661Y0088379D01*
X0048479Y0089561D01*
X0046935Y0090200D01*
X0040065Y0090200D01*
X0038521Y0089561D01*
X0037339Y0088379D01*
X0036700Y0086835D01*
X0036700Y0085165D01*
X0037339Y0083621D01*
X0038521Y0082439D01*
X0040065Y0081800D01*
X0046935Y0081800D01*
X0048479Y0082439D01*
X0049661Y0083621D01*
X0048564Y0082524D02*
X0050804Y0082524D01*
X0050300Y0085721D02*
X0054001Y0085721D01*
X0055600Y0087320D02*
X0050099Y0087320D01*
X0049122Y0088918D02*
X0054642Y0088918D01*
X0054300Y0090517D02*
X0038486Y0090517D01*
X0037878Y0088918D02*
X0036888Y0088918D01*
X0036901Y0087320D02*
X0035289Y0087320D01*
X0036700Y0085721D02*
X0033691Y0085721D01*
X0035371Y0084123D02*
X0037132Y0084123D01*
X0035850Y0082524D02*
X0038436Y0082524D01*
X0038287Y0079327D02*
X0034418Y0079327D01*
X0034350Y0077729D02*
X0037070Y0077729D01*
X0036700Y0076130D02*
X0034350Y0076130D01*
X0034350Y0074532D02*
X0036962Y0074532D01*
X0038027Y0072933D02*
X0034350Y0072933D01*
X0034350Y0071334D02*
X0054300Y0071334D01*
X0054300Y0069736D02*
X0048056Y0069736D01*
X0048479Y0069561D02*
X0046935Y0070200D01*
X0040065Y0070200D01*
X0038521Y0069561D01*
X0037339Y0068379D01*
X0036700Y0066835D01*
X0036700Y0065165D01*
X0037339Y0063621D01*
X0038521Y0062439D01*
X0040065Y0061800D01*
X0046935Y0061800D01*
X0048479Y0062439D01*
X0049661Y0063621D01*
X0050300Y0065165D01*
X0050300Y0066835D01*
X0049661Y0068379D01*
X0048479Y0069561D01*
X0049761Y0068137D02*
X0055423Y0068137D01*
X0054493Y0072933D02*
X0048973Y0072933D01*
X0050300Y0066539D02*
X0081069Y0066539D01*
X0079471Y0064940D02*
X0060499Y0064940D01*
X0062098Y0063342D02*
X0077872Y0063342D01*
X0076274Y0061743D02*
X0062700Y0061743D01*
X0062700Y0060145D02*
X0074675Y0060145D01*
X0073077Y0058546D02*
X0061986Y0058546D01*
X0061689Y0053751D02*
X0082779Y0053751D01*
X0084300Y0052152D02*
X0080317Y0052152D01*
X0080600Y0051870D02*
X0080600Y0051870D01*
X0081916Y0050554D02*
X0084300Y0050554D01*
X0084605Y0048955D02*
X0083514Y0048955D01*
X0085113Y0047357D02*
X0086203Y0047357D01*
X0086712Y0045758D02*
X0100900Y0045758D01*
X0101083Y0047357D02*
X0090797Y0047357D01*
X0092395Y0048955D02*
X0101950Y0048955D01*
X0102842Y0052152D02*
X0092700Y0052152D01*
X0092700Y0050554D02*
X0104474Y0050554D01*
X0101453Y0053751D02*
X0091689Y0053751D01*
X0090388Y0056948D02*
X0100914Y0056948D01*
X0100900Y0055349D02*
X0087120Y0055349D01*
X0086612Y0056948D02*
X0086168Y0056948D01*
X0083425Y0060145D02*
X0080615Y0060145D01*
X0081827Y0058546D02*
X0079016Y0058546D01*
X0082213Y0061743D02*
X0084300Y0061743D01*
X0083812Y0063342D02*
X0084902Y0063342D01*
X0085410Y0064940D02*
X0086501Y0064940D01*
X0087009Y0066539D02*
X0100900Y0066539D01*
X0100960Y0064940D02*
X0090499Y0064940D01*
X0092098Y0063342D02*
X0101653Y0063342D01*
X0103756Y0061743D02*
X0092700Y0061743D01*
X0092700Y0060145D02*
X0103486Y0060145D01*
X0101576Y0058546D02*
X0091986Y0058546D01*
X0091280Y0044160D02*
X0101283Y0044160D01*
X0102768Y0029773D02*
X0047966Y0029773D01*
X0049745Y0028175D02*
X0101422Y0028175D01*
X0100900Y0026576D02*
X0050300Y0026576D01*
X0050223Y0024978D02*
X0067008Y0024978D01*
X0065409Y0023379D02*
X0049419Y0023379D01*
X0039034Y0029773D02*
X0031447Y0029773D01*
X0033045Y0028175D02*
X0037255Y0028175D01*
X0037581Y0023379D02*
X0034091Y0023379D01*
X0035689Y0021781D02*
X0063811Y0021781D01*
X0069150Y0021180D02*
X0069370Y0021400D01*
X0097630Y0021400D01*
X0098030Y0021000D01*
X0073521Y0021000D01*
X0072358Y0021312D01*
X0069642Y0021312D01*
X0069150Y0021180D01*
X0060797Y0047357D02*
X0079173Y0047357D01*
X0082668Y0068137D02*
X0061577Y0068137D01*
X0062700Y0069736D02*
X0084266Y0069736D01*
X0084300Y0071334D02*
X0062700Y0071334D01*
X0062507Y0072933D02*
X0084493Y0072933D01*
X0086092Y0074532D02*
X0060908Y0074532D01*
X0061168Y0077729D02*
X0085832Y0077729D01*
X0084300Y0079327D02*
X0062700Y0079327D01*
X0062700Y0080926D02*
X0084300Y0080926D01*
X0084300Y0082524D02*
X0062700Y0082524D01*
X0061317Y0084123D02*
X0085683Y0084123D01*
X0086241Y0087320D02*
X0064039Y0087320D01*
X0062441Y0085721D02*
X0100900Y0085721D01*
X0101068Y0087320D02*
X0090759Y0087320D01*
X0092358Y0088918D02*
X0101913Y0088918D01*
X0102879Y0092115D02*
X0092700Y0092115D01*
X0092700Y0090517D02*
X0104384Y0090517D01*
X0101468Y0093714D02*
X0094184Y0093714D01*
X0095782Y0095312D02*
X0100900Y0095312D01*
X0100900Y0096911D02*
X0097381Y0096911D01*
X0098100Y0098509D02*
X0101560Y0098509D01*
X0103397Y0100108D02*
X0098100Y0100108D01*
X0098100Y0101706D02*
X0103846Y0101706D01*
X0101690Y0103305D02*
X0098100Y0103305D01*
X0098100Y0104903D02*
X0100975Y0104903D01*
X0100900Y0106502D02*
X0098100Y0106502D01*
X0098100Y0108100D02*
X0101391Y0108100D01*
X0102693Y0109699D02*
X0098100Y0109699D01*
X0098100Y0111297D02*
X0112733Y0111297D01*
X0113154Y0101706D02*
X0113500Y0101706D01*
X0113500Y0090517D02*
X0112616Y0090517D01*
X0113500Y0080926D02*
X0092700Y0080926D01*
X0092700Y0082524D02*
X0102471Y0082524D01*
X0101299Y0084123D02*
X0091317Y0084123D01*
X0092700Y0079327D02*
X0102322Y0079327D01*
X0089730Y0095200D02*
X0093900Y0099370D01*
X0093900Y0114370D01*
X0095130Y0115600D01*
X0102262Y0122732D01*
X0101600Y0123394D01*
X0100900Y0125085D01*
X0100900Y0126915D01*
X0101600Y0128606D01*
X0101895Y0128900D01*
X0100620Y0128900D01*
X0092700Y0120980D01*
X0092700Y0119260D01*
X0090240Y0116800D01*
X0086760Y0116800D01*
X0084300Y0119260D01*
X0084300Y0122740D01*
X0086760Y0125200D01*
X0090240Y0125200D01*
X0090610Y0124830D01*
X0098880Y0133100D01*
X0101895Y0133100D01*
X0101600Y0133394D01*
X0100900Y0135085D01*
X0100900Y0136915D01*
X0101600Y0138606D01*
X0102894Y0139900D01*
X0104585Y0140600D01*
X0112415Y0140600D01*
X0113500Y0140151D01*
X0113500Y0141849D01*
X0112415Y0141400D01*
X0104585Y0141400D01*
X0102894Y0142100D01*
X0101600Y0143394D01*
X0100900Y0145085D01*
X0100900Y0146915D01*
X0101600Y0148606D01*
X0102894Y0149900D01*
X0104585Y0150600D01*
X0112415Y0150600D01*
X0113500Y0150151D01*
X0113500Y0151849D01*
X0112415Y0151400D01*
X0104585Y0151400D01*
X0102894Y0152100D01*
X0101600Y0153394D01*
X0100900Y0155085D01*
X0100900Y0156915D01*
X0101600Y0158606D01*
X0102894Y0159900D01*
X0104585Y0160600D01*
X0112415Y0160600D01*
X0113500Y0160151D01*
X0113500Y0161849D01*
X0112415Y0161400D01*
X0104585Y0161400D01*
X0102894Y0162100D01*
X0101600Y0163394D01*
X0100900Y0165085D01*
X0100900Y0166915D01*
X0101600Y0168606D01*
X0102894Y0169900D01*
X0104585Y0170600D01*
X0112415Y0170600D01*
X0113500Y0170151D01*
X0113500Y0171849D01*
X0112415Y0171400D01*
X0104585Y0171400D01*
X0102894Y0172100D01*
X0101600Y0173394D01*
X0100900Y0175085D01*
X0100900Y0176915D01*
X0101600Y0178606D01*
X0102262Y0179268D01*
X0092094Y0189436D01*
X0091121Y0189839D01*
X0089939Y0191021D01*
X0089300Y0192565D01*
X0089300Y0192650D01*
X0080620Y0192650D01*
X0078270Y0190300D01*
X0079335Y0190300D01*
X0080879Y0189661D01*
X0082061Y0188479D01*
X0082700Y0186935D01*
X0082700Y0180065D01*
X0082061Y0178521D01*
X0080879Y0177339D01*
X0079335Y0176700D01*
X0077665Y0176700D01*
X0077315Y0176845D01*
X0071470Y0171000D01*
X0087270Y0155200D01*
X0090240Y0155200D01*
X0092700Y0152740D01*
X0092700Y0151920D01*
X0093900Y0153120D01*
X0093900Y0162630D01*
X0089730Y0166800D01*
X0086760Y0166800D01*
X0084300Y0169260D01*
X0084300Y0172740D01*
X0086760Y0175200D01*
X0090240Y0175200D01*
X0092700Y0172740D01*
X0092700Y0169770D01*
X0096870Y0165600D01*
X0098100Y0164370D01*
X0098100Y0151380D01*
X0096870Y0150150D01*
X0096870Y0150150D01*
X0091850Y0145130D01*
X0091850Y0145130D01*
X0091080Y0144360D01*
X0092700Y0142740D01*
X0092700Y0139260D01*
X0090240Y0136800D01*
X0086760Y0136800D01*
X0084300Y0139260D01*
X0084300Y0140980D01*
X0081380Y0143900D01*
X0061540Y0143900D01*
X0062700Y0142740D01*
X0062700Y0139260D01*
X0061080Y0137640D01*
X0081870Y0116850D01*
X0083100Y0115620D01*
X0083100Y0099370D01*
X0087270Y0095200D01*
X0089730Y0095200D01*
X0089842Y0095312D02*
X0087158Y0095312D01*
X0086760Y0096800D02*
X0090240Y0096800D01*
X0092700Y0099260D01*
X0092700Y0102740D01*
X0090240Y0105200D01*
X0086760Y0105200D01*
X0084300Y0102740D01*
X0084300Y0099260D01*
X0086760Y0096800D01*
X0086650Y0096911D02*
X0085559Y0096911D01*
X0085051Y0098509D02*
X0083961Y0098509D01*
X0084300Y0100108D02*
X0083100Y0100108D01*
X0083100Y0101706D02*
X0084300Y0101706D01*
X0084865Y0103305D02*
X0083100Y0103305D01*
X0083100Y0104903D02*
X0086464Y0104903D01*
X0086760Y0106800D02*
X0090240Y0106800D01*
X0092700Y0109260D01*
X0092700Y0112740D01*
X0090240Y0115200D01*
X0086760Y0115200D01*
X0084300Y0112740D01*
X0084300Y0109260D01*
X0086760Y0106800D01*
X0085460Y0108100D02*
X0083100Y0108100D01*
X0083100Y0106502D02*
X0093900Y0106502D01*
X0093900Y0108100D02*
X0091540Y0108100D01*
X0092700Y0109699D02*
X0093900Y0109699D01*
X0093900Y0111297D02*
X0092700Y0111297D01*
X0092544Y0112896D02*
X0093900Y0112896D01*
X0094024Y0114494D02*
X0090945Y0114494D01*
X0091131Y0117691D02*
X0097221Y0117691D01*
X0095623Y0116093D02*
X0082627Y0116093D01*
X0083100Y0114494D02*
X0086055Y0114494D01*
X0085869Y0117691D02*
X0081029Y0117691D01*
X0079430Y0119290D02*
X0084300Y0119290D01*
X0084300Y0120888D02*
X0077831Y0120888D01*
X0076233Y0122487D02*
X0084300Y0122487D01*
X0085646Y0124085D02*
X0074634Y0124085D01*
X0073036Y0125684D02*
X0091464Y0125684D01*
X0090240Y0126800D02*
X0092700Y0129260D01*
X0092700Y0132740D01*
X0090240Y0135200D01*
X0086760Y0135200D01*
X0084300Y0132740D01*
X0084300Y0129260D01*
X0086760Y0126800D01*
X0090240Y0126800D01*
X0090722Y0127282D02*
X0093063Y0127282D01*
X0092321Y0128881D02*
X0094661Y0128881D01*
X0096260Y0130479D02*
X0092700Y0130479D01*
X0092700Y0132078D02*
X0097858Y0132078D01*
X0101483Y0133676D02*
X0091763Y0133676D01*
X0090313Y0136873D02*
X0100900Y0136873D01*
X0100900Y0135275D02*
X0063445Y0135275D01*
X0061846Y0136873D02*
X0086687Y0136873D01*
X0085088Y0138472D02*
X0061912Y0138472D01*
X0062700Y0140070D02*
X0084300Y0140070D01*
X0083611Y0141669D02*
X0062700Y0141669D01*
X0062172Y0143268D02*
X0082013Y0143268D01*
X0080930Y0148100D02*
X0061540Y0148100D01*
X0062700Y0149260D01*
X0062700Y0152740D01*
X0061540Y0153900D01*
X0075130Y0153900D01*
X0080930Y0148100D01*
X0079369Y0149662D02*
X0062700Y0149662D01*
X0062700Y0151260D02*
X0077770Y0151260D01*
X0076172Y0152859D02*
X0062581Y0152859D01*
X0061540Y0158100D02*
X0062700Y0159260D01*
X0062700Y0162740D01*
X0061540Y0163900D01*
X0064370Y0163900D01*
X0068500Y0168030D01*
X0084300Y0152230D01*
X0084300Y0150670D01*
X0078100Y0156870D01*
X0076870Y0158100D01*
X0061540Y0158100D01*
X0062692Y0159253D02*
X0077278Y0159253D01*
X0077316Y0157654D02*
X0078876Y0157654D01*
X0078914Y0156056D02*
X0080475Y0156056D01*
X0080513Y0154457D02*
X0082073Y0154457D01*
X0082111Y0152859D02*
X0083672Y0152859D01*
X0083710Y0151260D02*
X0084300Y0151260D01*
X0086414Y0156056D02*
X0093900Y0156056D01*
X0093900Y0157654D02*
X0091094Y0157654D01*
X0090240Y0156800D02*
X0092700Y0159260D01*
X0092700Y0162740D01*
X0090240Y0165200D01*
X0086760Y0165200D01*
X0084300Y0162740D01*
X0084300Y0159260D01*
X0086760Y0156800D01*
X0090240Y0156800D01*
X0090983Y0154457D02*
X0093900Y0154457D01*
X0093639Y0152859D02*
X0092581Y0152859D01*
X0094783Y0148063D02*
X0101376Y0148063D01*
X0100900Y0146465D02*
X0093184Y0146465D01*
X0092172Y0143268D02*
X0101727Y0143268D01*
X0100991Y0144866D02*
X0091586Y0144866D01*
X0092700Y0141669D02*
X0103936Y0141669D01*
X0103307Y0140070D02*
X0092700Y0140070D01*
X0091912Y0138472D02*
X0101545Y0138472D01*
X0101876Y0128881D02*
X0100601Y0128881D01*
X0101052Y0127282D02*
X0099002Y0127282D01*
X0097404Y0125684D02*
X0100900Y0125684D01*
X0101314Y0124085D02*
X0095805Y0124085D01*
X0094207Y0122487D02*
X0102017Y0122487D01*
X0100419Y0120888D02*
X0092700Y0120888D01*
X0092700Y0119290D02*
X0098820Y0119290D01*
X0099964Y0114494D02*
X0101145Y0114494D01*
X0102099Y0112896D02*
X0098366Y0112896D01*
X0093900Y0104903D02*
X0090536Y0104903D01*
X0092135Y0103305D02*
X0093900Y0103305D01*
X0093900Y0101706D02*
X0092700Y0101706D01*
X0092700Y0100108D02*
X0093900Y0100108D01*
X0093039Y0098509D02*
X0091949Y0098509D01*
X0091441Y0096911D02*
X0090350Y0096911D01*
X0084642Y0088918D02*
X0065638Y0088918D01*
X0067236Y0090517D02*
X0084300Y0090517D01*
X0084300Y0092115D02*
X0068100Y0092115D01*
X0068100Y0093714D02*
X0082816Y0093714D01*
X0081218Y0095312D02*
X0068100Y0095312D01*
X0068100Y0096911D02*
X0079619Y0096911D01*
X0078900Y0098509D02*
X0068100Y0098509D01*
X0068100Y0100108D02*
X0078900Y0100108D01*
X0078900Y0101706D02*
X0068100Y0101706D01*
X0068100Y0103305D02*
X0078900Y0103305D01*
X0078900Y0104903D02*
X0068100Y0104903D01*
X0068100Y0106502D02*
X0078900Y0106502D01*
X0078900Y0108100D02*
X0068100Y0108100D01*
X0068100Y0109699D02*
X0078900Y0109699D01*
X0078900Y0111297D02*
X0068100Y0111297D01*
X0068100Y0112896D02*
X0078900Y0112896D01*
X0078286Y0114494D02*
X0068100Y0114494D01*
X0068100Y0116093D02*
X0076687Y0116093D01*
X0075089Y0117691D02*
X0068100Y0117691D01*
X0068100Y0119290D02*
X0073490Y0119290D01*
X0071892Y0120888D02*
X0068100Y0120888D01*
X0068100Y0122487D02*
X0070293Y0122487D01*
X0068695Y0124085D02*
X0068100Y0124085D01*
X0067096Y0125684D02*
X0066786Y0125684D01*
X0065498Y0127282D02*
X0065187Y0127282D01*
X0063899Y0128881D02*
X0063589Y0128881D01*
X0060846Y0125684D02*
X0029286Y0125684D01*
X0027687Y0127282D02*
X0038900Y0127282D01*
X0037232Y0128881D02*
X0026851Y0128881D01*
X0024108Y0132078D02*
X0020200Y0132078D01*
X0020300Y0130479D02*
X0022510Y0130479D01*
X0022630Y0130600D02*
X0022630Y0130600D01*
X0020911Y0128881D02*
X0019768Y0128881D01*
X0019313Y0127282D02*
X0018100Y0127282D01*
X0017714Y0125684D02*
X0008500Y0125684D01*
X0008500Y0127282D02*
X0008900Y0127282D01*
X0008500Y0135275D02*
X0055005Y0135275D01*
X0055237Y0133676D02*
X0049363Y0133676D01*
X0050200Y0132078D02*
X0054300Y0132078D01*
X0054300Y0130479D02*
X0050300Y0130479D01*
X0049768Y0128881D02*
X0054679Y0128881D01*
X0056278Y0127282D02*
X0048100Y0127282D01*
X0046935Y0125200D02*
X0048479Y0124561D01*
X0049661Y0123379D01*
X0050300Y0121835D01*
X0050300Y0120165D01*
X0049661Y0118621D01*
X0048479Y0117439D01*
X0046935Y0116800D01*
X0040065Y0116800D01*
X0038521Y0117439D01*
X0037339Y0118621D01*
X0036700Y0120165D01*
X0036700Y0121835D01*
X0037339Y0123379D01*
X0038521Y0124561D01*
X0040065Y0125200D01*
X0046935Y0125200D01*
X0048954Y0124085D02*
X0055646Y0124085D01*
X0056760Y0125200D02*
X0054300Y0122740D01*
X0054300Y0119260D01*
X0056760Y0116800D01*
X0060240Y0116800D01*
X0062700Y0119260D01*
X0062700Y0122740D01*
X0060240Y0125200D01*
X0056760Y0125200D01*
X0054300Y0122487D02*
X0050030Y0122487D01*
X0050300Y0120888D02*
X0054300Y0120888D01*
X0054300Y0119290D02*
X0049938Y0119290D01*
X0048731Y0117691D02*
X0055869Y0117691D01*
X0056760Y0115200D02*
X0054300Y0112740D01*
X0054300Y0109260D01*
X0056760Y0106800D01*
X0060240Y0106800D01*
X0062700Y0109260D01*
X0062700Y0112740D01*
X0060240Y0115200D01*
X0056760Y0115200D01*
X0056055Y0114494D02*
X0048545Y0114494D01*
X0049861Y0112896D02*
X0054456Y0112896D01*
X0054300Y0111297D02*
X0050300Y0111297D01*
X0050107Y0109699D02*
X0054300Y0109699D01*
X0055460Y0108100D02*
X0052741Y0108100D01*
X0053350Y0106502D02*
X0063900Y0106502D01*
X0063900Y0108100D02*
X0061540Y0108100D01*
X0062700Y0109699D02*
X0063900Y0109699D01*
X0063900Y0111297D02*
X0062700Y0111297D01*
X0062544Y0112896D02*
X0063900Y0112896D01*
X0063900Y0114494D02*
X0060945Y0114494D01*
X0061131Y0117691D02*
X0063900Y0117691D01*
X0063900Y0116093D02*
X0038877Y0116093D01*
X0038269Y0117691D02*
X0037279Y0117691D01*
X0037062Y0119290D02*
X0035680Y0119290D01*
X0036700Y0120888D02*
X0034081Y0120888D01*
X0032483Y0122487D02*
X0036970Y0122487D01*
X0038046Y0124085D02*
X0030884Y0124085D01*
X0028142Y0120888D02*
X0020300Y0120888D01*
X0020300Y0120165D02*
X0020300Y0121835D01*
X0020155Y0122185D01*
X0023500Y0125530D01*
X0036845Y0112185D01*
X0036700Y0111835D01*
X0036700Y0110165D01*
X0037339Y0108621D01*
X0037860Y0108100D01*
X0021870Y0108100D01*
X0020155Y0109815D01*
X0020300Y0110165D01*
X0020300Y0111835D01*
X0019661Y0113379D01*
X0018479Y0114561D01*
X0016935Y0115200D01*
X0010065Y0115200D01*
X0008521Y0114561D01*
X0008500Y0114540D01*
X0008500Y0117460D01*
X0008521Y0117439D01*
X0010065Y0116800D01*
X0016935Y0116800D01*
X0018479Y0117439D01*
X0019661Y0118621D01*
X0020300Y0120165D01*
X0019938Y0119290D02*
X0029740Y0119290D01*
X0031339Y0117691D02*
X0018731Y0117691D01*
X0018545Y0114494D02*
X0034536Y0114494D01*
X0036134Y0112896D02*
X0019861Y0112896D01*
X0020300Y0111297D02*
X0036700Y0111297D01*
X0036893Y0109699D02*
X0020271Y0109699D01*
X0021870Y0108100D02*
X0037860Y0108100D01*
X0037309Y0103305D02*
X0026665Y0103305D01*
X0026850Y0101706D02*
X0036700Y0101706D01*
X0036724Y0100108D02*
X0026850Y0100108D01*
X0026850Y0098509D02*
X0037451Y0098509D01*
X0037342Y0095312D02*
X0026850Y0095312D01*
X0026850Y0093714D02*
X0035744Y0093714D01*
X0034145Y0092115D02*
X0027476Y0092115D01*
X0028329Y0090517D02*
X0032547Y0090517D01*
X0030948Y0088918D02*
X0028302Y0088918D01*
X0027411Y0087320D02*
X0029350Y0087320D01*
X0027751Y0085721D02*
X0020300Y0085721D01*
X0020099Y0087320D02*
X0022089Y0087320D01*
X0021198Y0088918D02*
X0019122Y0088918D01*
X0021171Y0090517D02*
X0008500Y0090517D01*
X0008500Y0092115D02*
X0022024Y0092115D01*
X0022650Y0093714D02*
X0008500Y0093714D01*
X0008500Y0095312D02*
X0022650Y0095312D01*
X0022650Y0096911D02*
X0017203Y0096911D01*
X0019549Y0098509D02*
X0022650Y0098509D01*
X0022650Y0100108D02*
X0020276Y0100108D01*
X0020300Y0101706D02*
X0022324Y0101706D01*
X0020725Y0103305D02*
X0019691Y0103305D01*
X0019127Y0104903D02*
X0017652Y0104903D01*
X0017528Y0106502D02*
X0008500Y0106502D01*
X0008500Y0104903D02*
X0009348Y0104903D01*
X0009797Y0096911D02*
X0008500Y0096911D01*
X0008500Y0080926D02*
X0022956Y0080926D01*
X0024554Y0082524D02*
X0018564Y0082524D01*
X0019868Y0084123D02*
X0026153Y0084123D01*
X0027297Y0079327D02*
X0030082Y0079327D01*
X0030150Y0077729D02*
X0025698Y0077729D01*
X0024100Y0076130D02*
X0030150Y0076130D01*
X0030150Y0074532D02*
X0022501Y0074532D01*
X0018973Y0072933D02*
X0030150Y0072933D01*
X0030150Y0071334D02*
X0008500Y0071334D01*
X0008500Y0069736D02*
X0008944Y0069736D01*
X0018056Y0069736D02*
X0030150Y0069736D01*
X0030150Y0068137D02*
X0019761Y0068137D01*
X0020300Y0066539D02*
X0030150Y0066539D01*
X0030150Y0064940D02*
X0020207Y0064940D01*
X0019382Y0063342D02*
X0030150Y0063342D01*
X0034350Y0063342D02*
X0037618Y0063342D01*
X0036793Y0064940D02*
X0034350Y0064940D01*
X0034350Y0066539D02*
X0036700Y0066539D01*
X0037239Y0068137D02*
X0034350Y0068137D01*
X0034350Y0069736D02*
X0038944Y0069736D01*
X0034350Y0061743D02*
X0054300Y0061743D01*
X0054300Y0060145D02*
X0047068Y0060145D01*
X0049493Y0058546D02*
X0055014Y0058546D01*
X0054902Y0063342D02*
X0049382Y0063342D01*
X0050207Y0064940D02*
X0056501Y0064940D01*
X0055311Y0053751D02*
X0049714Y0053751D01*
X0047786Y0052152D02*
X0054300Y0052152D01*
X0039932Y0060145D02*
X0034350Y0060145D01*
X0034350Y0058546D02*
X0037507Y0058546D01*
X0036747Y0056948D02*
X0034350Y0056948D01*
X0034350Y0055349D02*
X0036700Y0055349D01*
X0037286Y0053751D02*
X0034350Y0053751D01*
X0034350Y0052152D02*
X0039214Y0052152D01*
X0029848Y0031372D02*
X0113500Y0031372D01*
X0113500Y0021781D02*
X0113334Y0021781D01*
X0103666Y0021781D02*
X0103189Y0021781D01*
X0101615Y0023379D02*
X0101591Y0023379D01*
X0100944Y0024978D02*
X0099992Y0024978D01*
X0063900Y0093714D02*
X0061726Y0093714D01*
X0062700Y0092115D02*
X0062895Y0092115D01*
X0063900Y0095312D02*
X0054532Y0095312D01*
X0055274Y0093714D02*
X0052933Y0093714D01*
X0054300Y0092115D02*
X0051335Y0092115D01*
X0050191Y0096911D02*
X0047203Y0096911D01*
X0049549Y0098509D02*
X0051789Y0098509D01*
X0050276Y0100108D02*
X0053388Y0100108D01*
X0054300Y0101706D02*
X0050300Y0101706D01*
X0052146Y0103305D02*
X0054865Y0103305D01*
X0056464Y0104903D02*
X0053192Y0104903D01*
X0056131Y0096911D02*
X0056650Y0096911D01*
X0060350Y0096911D02*
X0063900Y0096911D01*
X0063900Y0098509D02*
X0061949Y0098509D01*
X0062700Y0100108D02*
X0063900Y0100108D01*
X0063900Y0101706D02*
X0062700Y0101706D01*
X0062135Y0103305D02*
X0063900Y0103305D01*
X0063900Y0104903D02*
X0060536Y0104903D01*
X0062700Y0119290D02*
X0063900Y0119290D01*
X0063900Y0120888D02*
X0062700Y0120888D01*
X0062700Y0122487D02*
X0063900Y0122487D01*
X0062445Y0124085D02*
X0061354Y0124085D01*
X0066642Y0132078D02*
X0084300Y0132078D01*
X0084300Y0130479D02*
X0068240Y0130479D01*
X0069839Y0128881D02*
X0084679Y0128881D01*
X0086278Y0127282D02*
X0071437Y0127282D01*
X0065043Y0133676D02*
X0085237Y0133676D01*
X0096381Y0149662D02*
X0102656Y0149662D01*
X0102136Y0152859D02*
X0098100Y0152859D01*
X0098100Y0154457D02*
X0101160Y0154457D01*
X0100900Y0156056D02*
X0098100Y0156056D01*
X0098100Y0157654D02*
X0101206Y0157654D01*
X0102247Y0159253D02*
X0098100Y0159253D01*
X0098100Y0160851D02*
X0113500Y0160851D01*
X0113500Y0170442D02*
X0112796Y0170442D01*
X0113500Y0180151D02*
X0112415Y0180600D01*
X0106870Y0180600D01*
X0096755Y0190715D01*
X0097061Y0191021D01*
X0097700Y0192565D01*
X0097700Y0199435D01*
X0097061Y0200979D01*
X0095879Y0202161D01*
X0094335Y0202800D01*
X0092665Y0202800D01*
X0091121Y0202161D01*
X0089939Y0200979D01*
X0089300Y0199435D01*
X0089300Y0196850D01*
X0080290Y0196850D01*
X0082700Y0199260D01*
X0082700Y0202230D01*
X0091870Y0211400D01*
X0093100Y0212630D01*
X0093100Y0228430D01*
X0093500Y0228030D01*
X0093500Y0221000D01*
X0094349Y0221000D01*
X0093900Y0219915D01*
X0093900Y0212085D01*
X0094600Y0210394D01*
X0095894Y0209100D01*
X0097585Y0208400D01*
X0099415Y0208400D01*
X0101106Y0209100D01*
X0101400Y0209395D01*
X0101400Y0207630D01*
X0109386Y0199644D01*
X0109300Y0199435D01*
X0109300Y0192565D01*
X0109939Y0191021D01*
X0111121Y0189839D01*
X0112665Y0189200D01*
X0113500Y0189200D01*
X0113500Y0180151D01*
X0113500Y0181632D02*
X0105838Y0181632D01*
X0104240Y0183230D02*
X0113500Y0183230D01*
X0113500Y0184829D02*
X0102641Y0184829D01*
X0101043Y0186427D02*
X0113500Y0186427D01*
X0113500Y0188026D02*
X0099444Y0188026D01*
X0097845Y0189624D02*
X0101640Y0189624D01*
X0101121Y0189839D02*
X0102665Y0189200D01*
X0104335Y0189200D01*
X0105879Y0189839D01*
X0107061Y0191021D01*
X0107700Y0192565D01*
X0107700Y0199435D01*
X0107061Y0200979D01*
X0105879Y0202161D01*
X0104335Y0202800D01*
X0102665Y0202800D01*
X0101121Y0202161D01*
X0099939Y0200979D01*
X0099300Y0199435D01*
X0099300Y0192565D01*
X0099939Y0191021D01*
X0101121Y0189839D01*
X0099856Y0191223D02*
X0097144Y0191223D01*
X0097700Y0192821D02*
X0099300Y0192821D01*
X0099300Y0194420D02*
X0097700Y0194420D01*
X0097700Y0196018D02*
X0099300Y0196018D01*
X0099300Y0197617D02*
X0097700Y0197617D01*
X0097700Y0199215D02*
X0099300Y0199215D01*
X0099871Y0200814D02*
X0097129Y0200814D01*
X0095271Y0202412D02*
X0101729Y0202412D01*
X0103421Y0205609D02*
X0086079Y0205609D01*
X0087678Y0207208D02*
X0101822Y0207208D01*
X0101400Y0208806D02*
X0100396Y0208806D01*
X0096604Y0208806D02*
X0089276Y0208806D01*
X0090875Y0210405D02*
X0094596Y0210405D01*
X0093934Y0212003D02*
X0092473Y0212003D01*
X0093100Y0213602D02*
X0093900Y0213602D01*
X0093900Y0215201D02*
X0093100Y0215201D01*
X0093100Y0216799D02*
X0093900Y0216799D01*
X0093900Y0218398D02*
X0093100Y0218398D01*
X0093100Y0219996D02*
X0093934Y0219996D01*
X0093500Y0221595D02*
X0093100Y0221595D01*
X0093100Y0223193D02*
X0093500Y0223193D01*
X0093500Y0224792D02*
X0093100Y0224792D01*
X0093100Y0226390D02*
X0093500Y0226390D01*
X0093500Y0227989D02*
X0093100Y0227989D01*
X0088900Y0227630D02*
X0088900Y0214370D01*
X0079730Y0205200D01*
X0076760Y0205200D01*
X0074300Y0202740D01*
X0074300Y0199260D01*
X0076760Y0196800D01*
X0078830Y0196800D01*
X0077650Y0195620D01*
X0071285Y0189255D01*
X0070879Y0189661D01*
X0069335Y0190300D01*
X0067665Y0190300D01*
X0066121Y0189661D01*
X0064939Y0188479D01*
X0064300Y0186935D01*
X0064300Y0180065D01*
X0064386Y0179856D01*
X0059730Y0175200D01*
X0056760Y0175200D01*
X0054660Y0173100D01*
X0051870Y0173100D01*
X0048270Y0176700D01*
X0049335Y0176700D01*
X0050879Y0177339D01*
X0052061Y0178521D01*
X0052700Y0180065D01*
X0052700Y0186935D01*
X0052061Y0188479D01*
X0050879Y0189661D01*
X0049335Y0190300D01*
X0047665Y0190300D01*
X0046121Y0189661D01*
X0044939Y0188479D01*
X0044300Y0186935D01*
X0044300Y0180670D01*
X0042700Y0182270D01*
X0042700Y0186935D01*
X0042061Y0188479D01*
X0040879Y0189661D01*
X0039335Y0190300D01*
X0037665Y0190300D01*
X0036121Y0189661D01*
X0034939Y0188479D01*
X0034300Y0186935D01*
X0034300Y0180065D01*
X0034939Y0178521D01*
X0036121Y0177339D01*
X0037665Y0176700D01*
X0039335Y0176700D01*
X0040879Y0177339D01*
X0041285Y0177745D01*
X0048430Y0170600D01*
X0038880Y0170600D01*
X0037650Y0169370D01*
X0031380Y0163100D01*
X0019776Y0163100D01*
X0019661Y0163379D01*
X0018479Y0164561D01*
X0016935Y0165200D01*
X0010065Y0165200D01*
X0008521Y0164561D01*
X0008500Y0164540D01*
X0008500Y0174200D01*
X0009335Y0174200D01*
X0010879Y0174839D01*
X0012061Y0176021D01*
X0012700Y0177565D01*
X0012700Y0184435D01*
X0012061Y0185979D01*
X0010879Y0187161D01*
X0009335Y0187800D01*
X0008500Y0187800D01*
X0008500Y0196800D01*
X0010240Y0196800D01*
X0011235Y0197795D01*
X0024386Y0184644D01*
X0024300Y0184435D01*
X0024300Y0177565D01*
X0024939Y0176021D01*
X0026121Y0174839D01*
X0027665Y0174200D01*
X0029335Y0174200D01*
X0030879Y0174839D01*
X0032061Y0176021D01*
X0032700Y0177565D01*
X0032700Y0184435D01*
X0032061Y0185979D01*
X0030879Y0187161D01*
X0029335Y0187800D01*
X0027665Y0187800D01*
X0027315Y0187655D01*
X0013100Y0201870D01*
X0012700Y0202270D01*
X0012700Y0202740D01*
X0010240Y0205200D01*
X0008500Y0205200D01*
X0008500Y0206800D01*
X0010240Y0206800D01*
X0012700Y0209260D01*
X0012700Y0212740D01*
X0010240Y0215200D01*
X0008500Y0215200D01*
X0008500Y0230530D01*
X0008970Y0231000D01*
X0009349Y0231000D01*
X0008900Y0229915D01*
X0008900Y0222085D01*
X0009600Y0220394D01*
X0010894Y0219100D01*
X0012585Y0218400D01*
X0014415Y0218400D01*
X0016106Y0219100D01*
X0016768Y0219762D01*
X0034300Y0202230D01*
X0034300Y0199260D01*
X0036760Y0196800D01*
X0040240Y0196800D01*
X0042700Y0199260D01*
X0042700Y0202740D01*
X0040240Y0205200D01*
X0037270Y0205200D01*
X0024070Y0218400D01*
X0024415Y0218400D01*
X0026106Y0219100D01*
X0027400Y0220394D01*
X0028100Y0222085D01*
X0028100Y0229915D01*
X0028037Y0230067D01*
X0028970Y0231000D01*
X0029349Y0231000D01*
X0028900Y0229915D01*
X0028900Y0222085D01*
X0029600Y0220394D01*
X0030894Y0219100D01*
X0032585Y0218400D01*
X0034415Y0218400D01*
X0036106Y0219100D01*
X0037400Y0220394D01*
X0038100Y0222085D01*
X0038100Y0229915D01*
X0037651Y0231000D01*
X0039349Y0231000D01*
X0038900Y0229915D01*
X0038900Y0222085D01*
X0039600Y0220394D01*
X0039762Y0220232D01*
X0036400Y0216870D01*
X0036400Y0214840D01*
X0034300Y0212740D01*
X0034300Y0209260D01*
X0036760Y0206800D01*
X0040240Y0206800D01*
X0042700Y0209260D01*
X0042700Y0212740D01*
X0040600Y0214840D01*
X0040600Y0215130D01*
X0043870Y0218400D01*
X0044415Y0218400D01*
X0046106Y0219100D01*
X0047400Y0220394D01*
X0048100Y0222085D01*
X0048100Y0229915D01*
X0047651Y0231000D01*
X0049349Y0231000D01*
X0048900Y0229915D01*
X0048900Y0222085D01*
X0049600Y0220394D01*
X0050894Y0219100D01*
X0052585Y0218400D01*
X0054415Y0218400D01*
X0056106Y0219100D01*
X0057400Y0220394D01*
X0058100Y0222085D01*
X0058100Y0229915D01*
X0057651Y0231000D01*
X0059349Y0231000D01*
X0058900Y0229915D01*
X0058900Y0222085D01*
X0059600Y0220394D01*
X0060894Y0219100D01*
X0062585Y0218400D01*
X0064415Y0218400D01*
X0066106Y0219100D01*
X0067400Y0220394D01*
X0068100Y0222085D01*
X0068100Y0229915D01*
X0067651Y0231000D01*
X0069349Y0231000D01*
X0068900Y0229915D01*
X0068900Y0222085D01*
X0069600Y0220394D01*
X0070894Y0219100D01*
X0072585Y0218400D01*
X0074415Y0218400D01*
X0076106Y0219100D01*
X0077400Y0220394D01*
X0078100Y0222085D01*
X0078100Y0229915D01*
X0077651Y0231000D01*
X0079349Y0231000D01*
X0078900Y0229915D01*
X0078900Y0222085D01*
X0079600Y0220394D01*
X0080894Y0219100D01*
X0082585Y0218400D01*
X0084415Y0218400D01*
X0086106Y0219100D01*
X0087400Y0220394D01*
X0088100Y0222085D01*
X0088100Y0228430D01*
X0088900Y0227630D01*
X0088542Y0227989D02*
X0088100Y0227989D01*
X0088100Y0226390D02*
X0088900Y0226390D01*
X0088900Y0224792D02*
X0088100Y0224792D01*
X0088100Y0223193D02*
X0088900Y0223193D01*
X0088900Y0221595D02*
X0087897Y0221595D01*
X0087001Y0219996D02*
X0088900Y0219996D01*
X0088900Y0218398D02*
X0043867Y0218398D01*
X0042269Y0216799D02*
X0088900Y0216799D01*
X0088900Y0215201D02*
X0040670Y0215201D01*
X0041838Y0213602D02*
X0045162Y0213602D01*
X0044300Y0212740D02*
X0046760Y0215200D01*
X0050240Y0215200D01*
X0052700Y0212740D01*
X0052700Y0209260D01*
X0050240Y0206800D01*
X0046760Y0206800D01*
X0044300Y0209260D01*
X0044300Y0212740D01*
X0044300Y0212003D02*
X0042700Y0212003D01*
X0042700Y0210405D02*
X0044300Y0210405D01*
X0044754Y0208806D02*
X0042246Y0208806D01*
X0040648Y0207208D02*
X0046352Y0207208D01*
X0046760Y0205200D02*
X0044300Y0202740D01*
X0044300Y0199260D01*
X0046760Y0196800D01*
X0050240Y0196800D01*
X0052700Y0199260D01*
X0052700Y0202740D01*
X0050240Y0205200D01*
X0046760Y0205200D01*
X0045571Y0204011D02*
X0041429Y0204011D01*
X0042700Y0202412D02*
X0044300Y0202412D01*
X0044300Y0200814D02*
X0042700Y0200814D01*
X0042655Y0199215D02*
X0044345Y0199215D01*
X0045943Y0197617D02*
X0041057Y0197617D01*
X0040915Y0189624D02*
X0046085Y0189624D01*
X0044752Y0188026D02*
X0042248Y0188026D01*
X0042700Y0186427D02*
X0044300Y0186427D01*
X0044300Y0184829D02*
X0042700Y0184829D01*
X0042700Y0183230D02*
X0044300Y0183230D01*
X0044300Y0181632D02*
X0043338Y0181632D01*
X0042194Y0176836D02*
X0039664Y0176836D01*
X0037336Y0176836D02*
X0032398Y0176836D01*
X0032700Y0178435D02*
X0035026Y0178435D01*
X0034313Y0180033D02*
X0032700Y0180033D01*
X0032700Y0181632D02*
X0034300Y0181632D01*
X0034300Y0183230D02*
X0032700Y0183230D01*
X0032537Y0184829D02*
X0034300Y0184829D01*
X0034300Y0186427D02*
X0031612Y0186427D01*
X0034752Y0188026D02*
X0026944Y0188026D01*
X0025345Y0189624D02*
X0036085Y0189624D01*
X0035943Y0197617D02*
X0017353Y0197617D01*
X0015754Y0199215D02*
X0034345Y0199215D01*
X0034300Y0200814D02*
X0014156Y0200814D01*
X0012700Y0202412D02*
X0034118Y0202412D01*
X0032519Y0204011D02*
X0011429Y0204011D01*
X0010648Y0207208D02*
X0029322Y0207208D01*
X0027724Y0208806D02*
X0012246Y0208806D01*
X0012700Y0210405D02*
X0026125Y0210405D01*
X0024527Y0212003D02*
X0012700Y0212003D01*
X0011838Y0213602D02*
X0022928Y0213602D01*
X0021330Y0215201D02*
X0008500Y0215201D01*
X0008500Y0216799D02*
X0019731Y0216799D01*
X0018133Y0218398D02*
X0008500Y0218398D01*
X0008500Y0219996D02*
X0009999Y0219996D01*
X0009103Y0221595D02*
X0008500Y0221595D01*
X0008500Y0223193D02*
X0008900Y0223193D01*
X0008900Y0224792D02*
X0008500Y0224792D01*
X0008500Y0226390D02*
X0008900Y0226390D01*
X0008900Y0227989D02*
X0008500Y0227989D01*
X0008500Y0229587D02*
X0008900Y0229587D01*
X0017651Y0231000D02*
X0019349Y0231000D01*
X0018900Y0229915D01*
X0018900Y0223570D01*
X0018100Y0224370D01*
X0018100Y0229915D01*
X0017651Y0231000D01*
X0018100Y0229587D02*
X0018900Y0229587D01*
X0018900Y0227989D02*
X0018100Y0227989D01*
X0018100Y0226390D02*
X0018900Y0226390D01*
X0018900Y0224792D02*
X0018100Y0224792D01*
X0024072Y0218398D02*
X0037928Y0218398D01*
X0037001Y0219996D02*
X0039526Y0219996D01*
X0039103Y0221595D02*
X0037897Y0221595D01*
X0038100Y0223193D02*
X0038900Y0223193D01*
X0038900Y0224792D02*
X0038100Y0224792D01*
X0038100Y0226390D02*
X0038900Y0226390D01*
X0038900Y0227989D02*
X0038100Y0227989D01*
X0038100Y0229587D02*
X0038900Y0229587D01*
X0036400Y0216799D02*
X0025671Y0216799D01*
X0027269Y0215201D02*
X0036400Y0215201D01*
X0035162Y0213602D02*
X0028868Y0213602D01*
X0030466Y0212003D02*
X0034300Y0212003D01*
X0034300Y0210405D02*
X0032065Y0210405D01*
X0033663Y0208806D02*
X0034754Y0208806D01*
X0035262Y0207208D02*
X0036352Y0207208D01*
X0036860Y0205609D02*
X0080140Y0205609D01*
X0080240Y0206800D02*
X0082700Y0209260D01*
X0082700Y0212740D01*
X0080240Y0215200D01*
X0076760Y0215200D01*
X0074300Y0212740D01*
X0074300Y0209260D01*
X0076760Y0206800D01*
X0080240Y0206800D01*
X0080648Y0207208D02*
X0081738Y0207208D01*
X0082246Y0208806D02*
X0083337Y0208806D01*
X0082700Y0210405D02*
X0084935Y0210405D01*
X0086534Y0212003D02*
X0082700Y0212003D01*
X0081838Y0213602D02*
X0088132Y0213602D01*
X0084481Y0204011D02*
X0105019Y0204011D01*
X0105271Y0202412D02*
X0106618Y0202412D01*
X0107129Y0200814D02*
X0108216Y0200814D01*
X0107700Y0199215D02*
X0109300Y0199215D01*
X0109300Y0197617D02*
X0107700Y0197617D01*
X0107700Y0196018D02*
X0109300Y0196018D01*
X0109300Y0194420D02*
X0107700Y0194420D01*
X0107700Y0192821D02*
X0109300Y0192821D01*
X0109856Y0191223D02*
X0107144Y0191223D01*
X0105360Y0189624D02*
X0111640Y0189624D01*
X0116400Y0201640D02*
X0115879Y0202161D01*
X0114335Y0202800D01*
X0112665Y0202800D01*
X0112315Y0202655D01*
X0105600Y0209370D01*
X0105600Y0209395D01*
X0105894Y0209100D01*
X0107585Y0208400D01*
X0109415Y0208400D01*
X0111106Y0209100D01*
X0112400Y0210394D01*
X0113100Y0212085D01*
X0113100Y0219915D01*
X0112651Y0221000D01*
X0114349Y0221000D01*
X0113900Y0219915D01*
X0113900Y0212085D01*
X0114600Y0210394D01*
X0115894Y0209100D01*
X0116400Y0208891D01*
X0116400Y0201640D01*
X0116400Y0202412D02*
X0115271Y0202412D01*
X0116400Y0204011D02*
X0110959Y0204011D01*
X0109360Y0205609D02*
X0116400Y0205609D01*
X0116400Y0207208D02*
X0107762Y0207208D01*
X0106604Y0208806D02*
X0106163Y0208806D01*
X0110396Y0208806D02*
X0116400Y0208806D01*
X0114596Y0210405D02*
X0112404Y0210405D01*
X0113066Y0212003D02*
X0113934Y0212003D01*
X0113900Y0213602D02*
X0113100Y0213602D01*
X0113100Y0215201D02*
X0113900Y0215201D01*
X0113900Y0216799D02*
X0113100Y0216799D01*
X0113100Y0218398D02*
X0113900Y0218398D01*
X0113934Y0219996D02*
X0113066Y0219996D01*
X0122400Y0210394D02*
X0121106Y0209100D01*
X0120600Y0208891D01*
X0120600Y0201000D01*
X0126400Y0201000D01*
X0126400Y0208891D01*
X0125894Y0209100D01*
X0124600Y0210394D01*
X0123900Y0212085D01*
X0123900Y0219915D01*
X0124349Y0221000D01*
X0122651Y0221000D01*
X0123100Y0219915D01*
X0123100Y0212085D01*
X0122400Y0210394D01*
X0122404Y0210405D02*
X0124596Y0210405D01*
X0123934Y0212003D02*
X0123066Y0212003D01*
X0123100Y0213602D02*
X0123900Y0213602D01*
X0123900Y0215201D02*
X0123100Y0215201D01*
X0123100Y0216799D02*
X0123900Y0216799D01*
X0123900Y0218398D02*
X0123100Y0218398D01*
X0123066Y0219996D02*
X0123934Y0219996D01*
X0126400Y0208806D02*
X0120600Y0208806D01*
X0120600Y0207208D02*
X0126400Y0207208D01*
X0126400Y0205609D02*
X0120600Y0205609D01*
X0120600Y0204011D02*
X0126400Y0204011D01*
X0126400Y0202412D02*
X0120600Y0202412D01*
X0130600Y0202412D02*
X0133500Y0202412D01*
X0133500Y0201000D02*
X0130600Y0201000D01*
X0130600Y0208891D01*
X0131106Y0209100D01*
X0132400Y0210394D01*
X0133100Y0212085D01*
X0133100Y0219915D01*
X0132651Y0221000D01*
X0133500Y0221000D01*
X0133500Y0201000D01*
X0133500Y0204011D02*
X0130600Y0204011D01*
X0130600Y0205609D02*
X0133500Y0205609D01*
X0133500Y0207208D02*
X0130600Y0207208D01*
X0130600Y0208806D02*
X0133500Y0208806D01*
X0133500Y0210405D02*
X0132404Y0210405D01*
X0133066Y0212003D02*
X0133500Y0212003D01*
X0133500Y0213602D02*
X0133100Y0213602D01*
X0133100Y0215201D02*
X0133500Y0215201D01*
X0133500Y0216799D02*
X0133100Y0216799D01*
X0133100Y0218398D02*
X0133500Y0218398D01*
X0133500Y0219996D02*
X0133066Y0219996D01*
X0103038Y0172041D02*
X0092700Y0172041D01*
X0092700Y0170442D02*
X0104204Y0170442D01*
X0101838Y0168844D02*
X0093626Y0168844D01*
X0095225Y0167245D02*
X0101037Y0167245D01*
X0100900Y0165647D02*
X0096823Y0165647D01*
X0098100Y0164048D02*
X0101329Y0164048D01*
X0102545Y0162450D02*
X0098100Y0162450D01*
X0093900Y0162450D02*
X0092700Y0162450D01*
X0092700Y0160851D02*
X0093900Y0160851D01*
X0093900Y0159253D02*
X0092692Y0159253D01*
X0092482Y0164048D02*
X0091392Y0164048D01*
X0090883Y0165647D02*
X0076823Y0165647D01*
X0075225Y0167245D02*
X0086315Y0167245D01*
X0084717Y0168844D02*
X0073626Y0168844D01*
X0072028Y0170442D02*
X0084300Y0170442D01*
X0084300Y0172041D02*
X0072511Y0172041D01*
X0074109Y0173639D02*
X0085200Y0173639D01*
X0086121Y0177339D02*
X0084939Y0178521D01*
X0084300Y0180065D01*
X0084300Y0186935D01*
X0084939Y0188479D01*
X0086121Y0189661D01*
X0087665Y0190300D01*
X0089335Y0190300D01*
X0090879Y0189661D01*
X0092061Y0188479D01*
X0092700Y0186935D01*
X0092700Y0180065D01*
X0092061Y0178521D01*
X0090879Y0177339D01*
X0089335Y0176700D01*
X0087665Y0176700D01*
X0086121Y0177339D01*
X0087336Y0176836D02*
X0079664Y0176836D01*
X0077336Y0176836D02*
X0077306Y0176836D01*
X0075708Y0175238D02*
X0100900Y0175238D01*
X0100900Y0176836D02*
X0089664Y0176836D01*
X0091974Y0178435D02*
X0101530Y0178435D01*
X0101497Y0180033D02*
X0092687Y0180033D01*
X0092700Y0181632D02*
X0099898Y0181632D01*
X0098300Y0183230D02*
X0092700Y0183230D01*
X0092700Y0184829D02*
X0096701Y0184829D01*
X0095103Y0186427D02*
X0092700Y0186427D01*
X0092248Y0188026D02*
X0093504Y0188026D01*
X0091640Y0189624D02*
X0090915Y0189624D01*
X0089856Y0191223D02*
X0079193Y0191223D01*
X0080915Y0189624D02*
X0086085Y0189624D01*
X0084752Y0188026D02*
X0082248Y0188026D01*
X0082700Y0186427D02*
X0084300Y0186427D01*
X0084300Y0184829D02*
X0082700Y0184829D01*
X0082700Y0183230D02*
X0084300Y0183230D01*
X0084300Y0181632D02*
X0082700Y0181632D01*
X0082687Y0180033D02*
X0084313Y0180033D01*
X0085026Y0178435D02*
X0081974Y0178435D01*
X0078422Y0164048D02*
X0085608Y0164048D01*
X0084300Y0162450D02*
X0080020Y0162450D01*
X0081619Y0160851D02*
X0084300Y0160851D01*
X0084308Y0159253D02*
X0083217Y0159253D01*
X0084816Y0157654D02*
X0085906Y0157654D01*
X0091800Y0173639D02*
X0101499Y0173639D01*
X0097980Y0151260D02*
X0113500Y0151260D01*
X0113500Y0141669D02*
X0113064Y0141669D01*
X0089300Y0197617D02*
X0081057Y0197617D01*
X0082655Y0199215D02*
X0089300Y0199215D01*
X0089871Y0200814D02*
X0082700Y0200814D01*
X0082882Y0202412D02*
X0091729Y0202412D01*
X0079999Y0219996D02*
X0077001Y0219996D01*
X0077897Y0221595D02*
X0079103Y0221595D01*
X0078900Y0223193D02*
X0078100Y0223193D01*
X0078100Y0224792D02*
X0078900Y0224792D01*
X0078900Y0226390D02*
X0078100Y0226390D01*
X0078100Y0227989D02*
X0078900Y0227989D01*
X0078900Y0229587D02*
X0078100Y0229587D01*
X0069103Y0221595D02*
X0067897Y0221595D01*
X0068100Y0223193D02*
X0068900Y0223193D01*
X0068900Y0224792D02*
X0068100Y0224792D01*
X0068100Y0226390D02*
X0068900Y0226390D01*
X0068900Y0227989D02*
X0068100Y0227989D01*
X0068100Y0229587D02*
X0068900Y0229587D01*
X0069999Y0219996D02*
X0067001Y0219996D01*
X0059999Y0219996D02*
X0057001Y0219996D01*
X0057897Y0221595D02*
X0059103Y0221595D01*
X0058900Y0223193D02*
X0058100Y0223193D01*
X0058100Y0224792D02*
X0058900Y0224792D01*
X0058900Y0226390D02*
X0058100Y0226390D01*
X0058100Y0227989D02*
X0058900Y0227989D01*
X0058900Y0229587D02*
X0058100Y0229587D01*
X0049999Y0219996D02*
X0047001Y0219996D01*
X0047897Y0221595D02*
X0049103Y0221595D01*
X0048900Y0223193D02*
X0048100Y0223193D01*
X0048100Y0224792D02*
X0048900Y0224792D01*
X0048900Y0226390D02*
X0048100Y0226390D01*
X0048100Y0227989D02*
X0048900Y0227989D01*
X0048900Y0229587D02*
X0048100Y0229587D01*
X0051838Y0213602D02*
X0075162Y0213602D01*
X0074300Y0212003D02*
X0052700Y0212003D01*
X0052700Y0210405D02*
X0074300Y0210405D01*
X0074754Y0208806D02*
X0052246Y0208806D01*
X0051429Y0204011D02*
X0075571Y0204011D01*
X0074300Y0202412D02*
X0052700Y0202412D01*
X0052700Y0200814D02*
X0074300Y0200814D01*
X0074345Y0199215D02*
X0052655Y0199215D01*
X0051057Y0197617D02*
X0075943Y0197617D01*
X0076450Y0194420D02*
X0020550Y0194420D01*
X0018951Y0196018D02*
X0078049Y0196018D01*
X0074852Y0192821D02*
X0022148Y0192821D01*
X0023747Y0191223D02*
X0073253Y0191223D01*
X0071655Y0189624D02*
X0070915Y0189624D01*
X0074300Y0186330D02*
X0072700Y0184730D01*
X0072700Y0180065D01*
X0072061Y0178521D01*
X0070879Y0177339D01*
X0069335Y0176700D01*
X0067665Y0176700D01*
X0067315Y0176845D01*
X0062700Y0172230D01*
X0062700Y0169260D01*
X0061540Y0168100D01*
X0062630Y0168100D01*
X0066400Y0171870D01*
X0067630Y0173100D01*
X0074386Y0179856D01*
X0074300Y0180065D01*
X0074300Y0186330D01*
X0074300Y0184829D02*
X0072799Y0184829D01*
X0072700Y0183230D02*
X0074300Y0183230D01*
X0074300Y0181632D02*
X0072700Y0181632D01*
X0072687Y0180033D02*
X0074313Y0180033D01*
X0072965Y0178435D02*
X0071974Y0178435D01*
X0071366Y0176836D02*
X0069664Y0176836D01*
X0069768Y0175238D02*
X0065708Y0175238D01*
X0067306Y0176836D02*
X0067336Y0176836D01*
X0068169Y0173639D02*
X0064109Y0173639D01*
X0062700Y0172041D02*
X0066571Y0172041D01*
X0064972Y0170442D02*
X0062700Y0170442D01*
X0062283Y0168844D02*
X0063374Y0168844D01*
X0066116Y0165647D02*
X0070883Y0165647D01*
X0069285Y0167245D02*
X0067715Y0167245D01*
X0064518Y0164048D02*
X0072482Y0164048D01*
X0074080Y0162450D02*
X0062700Y0162450D01*
X0062700Y0160851D02*
X0075679Y0160851D01*
X0064313Y0180033D02*
X0062687Y0180033D01*
X0062700Y0180065D02*
X0062700Y0186935D01*
X0062061Y0188479D01*
X0060879Y0189661D01*
X0059335Y0190300D01*
X0057665Y0190300D01*
X0056121Y0189661D01*
X0054939Y0188479D01*
X0054300Y0186935D01*
X0054300Y0180065D01*
X0054939Y0178521D01*
X0056121Y0177339D01*
X0057665Y0176700D01*
X0059335Y0176700D01*
X0060879Y0177339D01*
X0062061Y0178521D01*
X0062700Y0180065D01*
X0062700Y0181632D02*
X0064300Y0181632D01*
X0064300Y0183230D02*
X0062700Y0183230D01*
X0062700Y0184829D02*
X0064300Y0184829D01*
X0064300Y0186427D02*
X0062700Y0186427D01*
X0062248Y0188026D02*
X0064752Y0188026D01*
X0066085Y0189624D02*
X0060915Y0189624D01*
X0056085Y0189624D02*
X0050915Y0189624D01*
X0052248Y0188026D02*
X0054752Y0188026D01*
X0054300Y0186427D02*
X0052700Y0186427D01*
X0052700Y0184829D02*
X0054300Y0184829D01*
X0054300Y0183230D02*
X0052700Y0183230D01*
X0052700Y0181632D02*
X0054300Y0181632D01*
X0054313Y0180033D02*
X0052687Y0180033D01*
X0051974Y0178435D02*
X0055026Y0178435D01*
X0057336Y0176836D02*
X0049664Y0176836D01*
X0049732Y0175238D02*
X0059768Y0175238D01*
X0059664Y0176836D02*
X0061366Y0176836D01*
X0061974Y0178435D02*
X0062965Y0178435D01*
X0055200Y0173639D02*
X0051331Y0173639D01*
X0053880Y0166400D02*
X0055150Y0165130D01*
X0055920Y0164360D01*
X0054300Y0162740D01*
X0054300Y0159260D01*
X0055460Y0158100D01*
X0050130Y0158100D01*
X0047144Y0155114D01*
X0046935Y0155200D01*
X0040065Y0155200D01*
X0038521Y0154561D01*
X0037339Y0153379D01*
X0036754Y0151966D01*
X0035620Y0153100D01*
X0019776Y0153100D01*
X0019661Y0153379D01*
X0018479Y0154561D01*
X0016935Y0155200D01*
X0010065Y0155200D01*
X0008521Y0154561D01*
X0008500Y0154540D01*
X0008500Y0157460D01*
X0008521Y0157439D01*
X0010065Y0156800D01*
X0016935Y0156800D01*
X0018479Y0157439D01*
X0019661Y0158621D01*
X0019776Y0158900D01*
X0033120Y0158900D01*
X0037156Y0162936D01*
X0036700Y0161835D01*
X0036700Y0160165D01*
X0037339Y0158621D01*
X0038521Y0157439D01*
X0040065Y0156800D01*
X0046935Y0156800D01*
X0048479Y0157439D01*
X0049661Y0158621D01*
X0050300Y0160165D01*
X0050300Y0161835D01*
X0049661Y0163379D01*
X0048479Y0164561D01*
X0046935Y0165200D01*
X0040065Y0165200D01*
X0038964Y0164744D01*
X0040620Y0166400D01*
X0053880Y0166400D01*
X0054633Y0165647D02*
X0039866Y0165647D01*
X0037124Y0168844D02*
X0008500Y0168844D01*
X0008500Y0170442D02*
X0038722Y0170442D01*
X0035525Y0167245D02*
X0008500Y0167245D01*
X0008500Y0165647D02*
X0033927Y0165647D01*
X0035071Y0160851D02*
X0036700Y0160851D01*
X0036669Y0162450D02*
X0036954Y0162450D01*
X0037078Y0159253D02*
X0033472Y0159253D01*
X0032328Y0164048D02*
X0018992Y0164048D01*
X0018694Y0157654D02*
X0038306Y0157654D01*
X0038417Y0154457D02*
X0018583Y0154457D01*
X0019103Y0148063D02*
X0034717Y0148063D01*
X0036316Y0146465D02*
X0008500Y0146465D01*
X0008500Y0144866D02*
X0009258Y0144866D01*
X0009887Y0136873D02*
X0008500Y0136873D01*
X0017113Y0136873D02*
X0039887Y0136873D01*
X0037488Y0138472D02*
X0019512Y0138472D01*
X0020261Y0140070D02*
X0036739Y0140070D01*
X0036700Y0141669D02*
X0020300Y0141669D01*
X0019707Y0143268D02*
X0037293Y0143268D01*
X0037914Y0144866D02*
X0017742Y0144866D01*
X0019363Y0133676D02*
X0037637Y0133676D01*
X0047113Y0136873D02*
X0053407Y0136873D01*
X0051808Y0138472D02*
X0049512Y0138472D01*
X0049776Y0143100D02*
X0049661Y0143379D01*
X0049140Y0143900D01*
X0055460Y0143900D01*
X0054300Y0142740D01*
X0054300Y0141920D01*
X0053120Y0143100D01*
X0049776Y0143100D01*
X0049707Y0143268D02*
X0054828Y0143268D01*
X0055460Y0148100D02*
X0054300Y0149260D01*
X0054300Y0152740D01*
X0055460Y0153900D01*
X0051870Y0153900D01*
X0050155Y0152185D01*
X0050300Y0151835D01*
X0050300Y0150165D01*
X0049661Y0148621D01*
X0049140Y0148100D01*
X0055460Y0148100D01*
X0054300Y0149662D02*
X0050092Y0149662D01*
X0050300Y0151260D02*
X0054300Y0151260D01*
X0054419Y0152859D02*
X0050828Y0152859D01*
X0049684Y0157654D02*
X0048694Y0157654D01*
X0048086Y0156056D02*
X0008500Y0156056D01*
X0008500Y0172041D02*
X0046989Y0172041D01*
X0045391Y0173639D02*
X0008500Y0173639D01*
X0011277Y0175238D02*
X0015723Y0175238D01*
X0016121Y0174839D02*
X0017665Y0174200D01*
X0019335Y0174200D01*
X0020879Y0174839D01*
X0022061Y0176021D01*
X0022700Y0177565D01*
X0022700Y0184435D01*
X0022061Y0185979D01*
X0020879Y0187161D01*
X0019335Y0187800D01*
X0017665Y0187800D01*
X0016121Y0187161D01*
X0014939Y0185979D01*
X0014300Y0184435D01*
X0014300Y0177565D01*
X0014939Y0176021D01*
X0016121Y0174839D01*
X0014602Y0176836D02*
X0012398Y0176836D01*
X0012700Y0178435D02*
X0014300Y0178435D01*
X0014300Y0180033D02*
X0012700Y0180033D01*
X0012700Y0181632D02*
X0014300Y0181632D01*
X0014300Y0183230D02*
X0012700Y0183230D01*
X0012537Y0184829D02*
X0014463Y0184829D01*
X0015388Y0186427D02*
X0011612Y0186427D01*
X0008500Y0188026D02*
X0021004Y0188026D01*
X0021612Y0186427D02*
X0022603Y0186427D01*
X0022537Y0184829D02*
X0024201Y0184829D01*
X0024300Y0183230D02*
X0022700Y0183230D01*
X0022700Y0181632D02*
X0024300Y0181632D01*
X0024300Y0180033D02*
X0022700Y0180033D01*
X0022700Y0178435D02*
X0024300Y0178435D01*
X0024602Y0176836D02*
X0022398Y0176836D01*
X0021277Y0175238D02*
X0025723Y0175238D01*
X0031277Y0175238D02*
X0043792Y0175238D01*
X0048992Y0164048D02*
X0055608Y0164048D01*
X0054300Y0162450D02*
X0050046Y0162450D01*
X0050300Y0160851D02*
X0054300Y0160851D01*
X0054308Y0159253D02*
X0049922Y0159253D01*
X0037124Y0152859D02*
X0035861Y0152859D01*
X0024945Y0124085D02*
X0022055Y0124085D01*
X0020457Y0122487D02*
X0026543Y0122487D01*
X0032937Y0116093D02*
X0008500Y0116093D01*
X0026850Y0096911D02*
X0039797Y0096911D01*
X0035598Y0080926D02*
X0049206Y0080926D01*
X0028902Y0080926D02*
X0028895Y0080926D01*
X0021357Y0079327D02*
X0018713Y0079327D01*
X0019406Y0189624D02*
X0008500Y0189624D01*
X0008500Y0191223D02*
X0017807Y0191223D01*
X0016209Y0192821D02*
X0008500Y0192821D01*
X0008500Y0194420D02*
X0014610Y0194420D01*
X0013012Y0196018D02*
X0008500Y0196018D01*
X0011057Y0197617D02*
X0011413Y0197617D01*
X0008500Y0205609D02*
X0030921Y0205609D01*
X0029999Y0219996D02*
X0027001Y0219996D01*
X0027897Y0221595D02*
X0029103Y0221595D01*
X0028900Y0223193D02*
X0028100Y0223193D01*
X0028100Y0224792D02*
X0028900Y0224792D01*
X0028900Y0226390D02*
X0028100Y0226390D01*
X0028100Y0227989D02*
X0028900Y0227989D01*
X0028900Y0229587D02*
X0028100Y0229587D01*
X0050648Y0207208D02*
X0076352Y0207208D01*
X0083100Y0112896D02*
X0084456Y0112896D01*
X0084300Y0111297D02*
X0083100Y0111297D01*
X0083100Y0109699D02*
X0084300Y0109699D01*
M02*
