%
M48
M72
T01C0.02400
T02C0.03200
T03C0.04000
T04C0.08661
%
T01
X33500Y86000
X53500Y121000
X71000Y71000
X73500Y48500
T02
X16000Y11000
X16000Y21000
X16000Y31000
X16000Y41000
X16000Y51000
X16000Y61000
X16000Y71000
X16000Y86000
X16000Y96000
X16000Y106000
X16000Y116000
X16000Y126000
X16000Y136000
X16000Y146000
X11000Y166000
X21000Y166000
X31000Y166000
X41000Y168500
X51000Y168500
X61000Y168500
X61000Y156000
X61000Y146000
X61000Y136000
X61000Y126000
X61000Y116000
X61000Y106000
X61000Y96000
X61000Y86000
X61000Y76000
X61000Y66000
X61000Y56000
X61000Y46000
X61000Y36000
X61000Y26000
X46000Y21000
X46000Y11000
X46000Y31000
X46000Y41000
X46000Y51000
X46000Y61000
X46000Y71000
X46000Y86000
X46000Y96000
X46000Y106000
X46000Y116000
X46000Y126000
X46000Y136000
X46000Y146000
X71000Y168500
X81000Y168500
X91000Y168500
X96000Y181000
X106000Y181000
X116000Y181000
X91000Y156000
X91000Y146000
X91000Y136000
X91000Y126000
X91000Y116000
X91000Y106000
X91000Y96000
X91000Y86000
X91000Y76000
X91000Y66000
X91000Y56000
X91000Y46000
X91000Y36000
X91000Y26000
X81000Y186000
X81000Y196000
X51000Y196000
X51000Y186000
X41000Y186000
X41000Y196000
X11000Y196000
X11000Y186000
T03
X16000Y211000
X26000Y211000
X36000Y211000
X46000Y211000
X56000Y211000
X66000Y211000
X76000Y211000
X86000Y211000
X101000Y201000
X111000Y201000
X121000Y201000
X131000Y201000
X111000Y161000
X111000Y151000
X111000Y141000
X111000Y131000
X111000Y121000
X111000Y111000
X111000Y101000
X111000Y91000
X111000Y81000
X111000Y71000
X111000Y61000
X111000Y51000
X111000Y41000
X111000Y31000
X111000Y21000
X111000Y11000
T04
X76000Y11000
X131000Y181000
M30
