G75*
%MOIN*%
%OFA0B0*%
%FSLAX25Y25*%
%IPPOS*%
%LPD*%
%AMOC8*
5,1,8,0,0,1.08239X$1,22.5*
%
%ADD10C,0.01200*%
%ADD11C,0.01100*%
%ADD12C,0.00600*%
%ADD13C,0.00500*%
%ADD14C,0.00400*%
%ADD15R,0.01500X0.02000*%
D10*
X0013096Y0219100D02*
X0016299Y0219100D01*
X0017900Y0220701D01*
X0016299Y0222303D01*
X0013096Y0222303D01*
X0014697Y0224625D02*
X0013096Y0226226D01*
X0017900Y0226226D01*
X0017900Y0224625D02*
X0017900Y0227827D01*
X0023096Y0227027D02*
X0023096Y0225425D01*
X0023897Y0224625D01*
X0023096Y0222303D02*
X0026299Y0222303D01*
X0027900Y0220701D01*
X0026299Y0219100D01*
X0023096Y0219100D01*
X0027900Y0224625D02*
X0024697Y0227827D01*
X0023897Y0227827D01*
X0023096Y0227027D01*
X0027900Y0227827D02*
X0027900Y0224625D01*
X0033096Y0225425D02*
X0033096Y0227027D01*
X0033897Y0227827D01*
X0034697Y0227827D01*
X0035498Y0227027D01*
X0036299Y0227827D01*
X0037099Y0227827D01*
X0037900Y0227027D01*
X0037900Y0225425D01*
X0037099Y0224625D01*
X0035498Y0226226D02*
X0035498Y0227027D01*
X0033897Y0224625D02*
X0033096Y0225425D01*
X0033096Y0222303D02*
X0036299Y0222303D01*
X0037900Y0220701D01*
X0036299Y0219100D01*
X0033096Y0219100D01*
X0043096Y0219100D02*
X0046299Y0219100D01*
X0047900Y0220701D01*
X0046299Y0222303D01*
X0043096Y0222303D01*
X0045498Y0224625D02*
X0045498Y0227827D01*
X0047900Y0227027D02*
X0043096Y0227027D01*
X0045498Y0224625D01*
D11*
X0053546Y0224114D02*
X0057950Y0227050D01*
X0053546Y0227050D01*
X0053546Y0229179D02*
X0053546Y0231381D01*
X0054280Y0232114D01*
X0057216Y0232114D01*
X0057950Y0231381D01*
X0057950Y0229179D01*
X0053546Y0229179D01*
X0053546Y0224114D02*
X0057950Y0224114D01*
X0057216Y0221986D02*
X0055748Y0221986D01*
X0055748Y0220518D01*
X0054280Y0221986D02*
X0053546Y0221252D01*
X0053546Y0219784D01*
X0054280Y0219050D01*
X0057216Y0219050D01*
X0057950Y0219784D01*
X0057950Y0221252D01*
X0057216Y0221986D01*
X0063546Y0221252D02*
X0063546Y0219784D01*
X0064280Y0219050D01*
X0067216Y0219050D01*
X0067950Y0219784D01*
X0067950Y0221252D01*
X0067216Y0221986D01*
X0065748Y0221986D01*
X0065748Y0220518D01*
X0064280Y0221986D02*
X0063546Y0221252D01*
X0063546Y0224114D02*
X0067950Y0227050D01*
X0063546Y0227050D01*
X0063546Y0229179D02*
X0063546Y0231381D01*
X0064280Y0232114D01*
X0067216Y0232114D01*
X0067950Y0231381D01*
X0067950Y0229179D01*
X0063546Y0229179D01*
X0063546Y0224114D02*
X0067950Y0224114D01*
X0073546Y0224114D02*
X0077950Y0227050D01*
X0073546Y0227050D01*
X0073546Y0229179D02*
X0073546Y0231381D01*
X0074280Y0232114D01*
X0077216Y0232114D01*
X0077950Y0231381D01*
X0077950Y0229179D01*
X0073546Y0229179D01*
X0073546Y0224114D02*
X0077950Y0224114D01*
X0077216Y0221986D02*
X0075748Y0221986D01*
X0075748Y0220518D01*
X0074280Y0221986D02*
X0073546Y0221252D01*
X0073546Y0219784D01*
X0074280Y0219050D01*
X0077216Y0219050D01*
X0077950Y0219784D01*
X0077950Y0221252D01*
X0077216Y0221986D01*
X0083546Y0221252D02*
X0083546Y0219784D01*
X0084280Y0219050D01*
X0087216Y0219050D01*
X0087950Y0219784D01*
X0087950Y0221252D01*
X0087216Y0221986D01*
X0085748Y0221986D01*
X0085748Y0220518D01*
X0084280Y0221986D02*
X0083546Y0221252D01*
X0083546Y0224114D02*
X0087950Y0227050D01*
X0083546Y0227050D01*
X0083546Y0229179D02*
X0083546Y0231381D01*
X0084280Y0232114D01*
X0087216Y0232114D01*
X0087950Y0231381D01*
X0087950Y0229179D01*
X0083546Y0229179D01*
X0083546Y0224114D02*
X0087950Y0224114D01*
X0098546Y0224243D02*
X0098546Y0225711D01*
X0098546Y0224977D02*
X0102950Y0224977D01*
X0102950Y0224243D02*
X0102950Y0225711D01*
X0102950Y0227619D02*
X0098546Y0227619D01*
X0102950Y0230555D01*
X0098546Y0230555D01*
X0098546Y0217050D02*
X0101482Y0217050D01*
X0102950Y0215582D01*
X0101482Y0214114D01*
X0098546Y0214114D01*
X0098546Y0211986D02*
X0098546Y0209050D01*
X0100748Y0209050D01*
X0100014Y0210518D01*
X0100014Y0211252D01*
X0100748Y0211986D01*
X0102216Y0211986D01*
X0102950Y0211252D01*
X0102950Y0209784D01*
X0102216Y0209050D01*
X0108546Y0209784D02*
X0108546Y0211252D01*
X0109280Y0211986D01*
X0110014Y0211986D01*
X0110748Y0211252D01*
X0111482Y0211986D01*
X0112216Y0211986D01*
X0112950Y0211252D01*
X0112950Y0209784D01*
X0112216Y0209050D01*
X0110748Y0210518D02*
X0110748Y0211252D01*
X0109280Y0209050D02*
X0108546Y0209784D01*
X0108546Y0214114D02*
X0111482Y0214114D01*
X0112950Y0215582D01*
X0111482Y0217050D01*
X0108546Y0217050D01*
X0109280Y0219179D02*
X0108546Y0219913D01*
X0108546Y0221381D01*
X0109280Y0222114D01*
X0110014Y0222114D01*
X0110748Y0221381D01*
X0111482Y0222114D01*
X0112216Y0222114D01*
X0112950Y0221381D01*
X0112950Y0219913D01*
X0112216Y0219179D01*
X0110748Y0220647D02*
X0110748Y0221381D01*
X0108546Y0229307D02*
X0108546Y0230775D01*
X0108546Y0230041D02*
X0112950Y0230041D01*
X0112950Y0229307D02*
X0112950Y0230775D01*
X0112950Y0232684D02*
X0108546Y0232684D01*
X0112950Y0235619D01*
X0108546Y0235619D01*
X0118546Y0231509D02*
X0118546Y0230041D01*
X0119280Y0229307D01*
X0122216Y0229307D01*
X0122950Y0230041D01*
X0122950Y0231509D01*
X0122216Y0232243D01*
X0120748Y0232243D01*
X0120748Y0230775D01*
X0119280Y0232243D02*
X0118546Y0231509D01*
X0119280Y0227179D02*
X0118546Y0226445D01*
X0118546Y0224977D01*
X0119280Y0224243D01*
X0122216Y0224243D01*
X0122950Y0224977D01*
X0122950Y0226445D01*
X0122216Y0227179D01*
X0119280Y0227179D01*
X0122950Y0222114D02*
X0122950Y0219179D01*
X0118546Y0219179D01*
X0118546Y0211986D02*
X0121482Y0211986D01*
X0122950Y0210518D01*
X0121482Y0209050D01*
X0118546Y0209050D01*
X0128546Y0209784D02*
X0129280Y0209050D01*
X0132216Y0209050D01*
X0132950Y0209784D01*
X0132950Y0211252D01*
X0132216Y0211986D01*
X0130748Y0211986D01*
X0130748Y0210518D01*
X0129280Y0211986D02*
X0128546Y0211252D01*
X0128546Y0209784D01*
X0128546Y0214114D02*
X0132950Y0217050D01*
X0128546Y0217050D01*
X0128546Y0219179D02*
X0128546Y0221381D01*
X0129280Y0222114D01*
X0132216Y0222114D01*
X0132950Y0221381D01*
X0132950Y0219179D01*
X0128546Y0219179D01*
X0128546Y0214114D02*
X0132950Y0214114D01*
X0116986Y0193454D02*
X0114050Y0193454D01*
X0114050Y0189050D01*
X0116986Y0189050D01*
X0115518Y0191252D02*
X0114050Y0191252D01*
X0106986Y0191986D02*
X0106252Y0191252D01*
X0104050Y0191252D01*
X0104050Y0189050D02*
X0104050Y0193454D01*
X0106252Y0193454D01*
X0106986Y0192720D01*
X0106986Y0191986D01*
X0106252Y0191252D02*
X0106986Y0190518D01*
X0106986Y0189784D01*
X0106252Y0189050D01*
X0104050Y0189050D01*
X0096986Y0189784D02*
X0096252Y0189050D01*
X0094784Y0189050D01*
X0094050Y0189784D01*
X0094050Y0192720D01*
X0094784Y0193454D01*
X0096252Y0193454D01*
X0096986Y0192720D01*
X0086252Y0180954D02*
X0086986Y0180220D01*
X0086986Y0179486D01*
X0086252Y0178752D01*
X0084050Y0178752D01*
X0084050Y0176550D02*
X0084050Y0180954D01*
X0086252Y0180954D01*
X0086252Y0178752D02*
X0086986Y0178018D01*
X0086986Y0177284D01*
X0086252Y0176550D01*
X0084050Y0176550D01*
X0071986Y0177284D02*
X0071252Y0176550D01*
X0069784Y0176550D01*
X0069050Y0177284D01*
X0069050Y0180220D01*
X0069784Y0180954D01*
X0071252Y0180954D01*
X0071986Y0180220D01*
X0061986Y0180954D02*
X0059050Y0180954D01*
X0059050Y0176550D01*
X0061986Y0176550D01*
X0060518Y0178752D02*
X0059050Y0178752D01*
X0051252Y0158454D02*
X0049050Y0158454D01*
X0049050Y0154050D01*
X0051252Y0154050D01*
X0051986Y0154784D01*
X0051986Y0155518D01*
X0051252Y0156252D01*
X0049050Y0156252D01*
X0051252Y0156252D02*
X0051986Y0156986D01*
X0051986Y0157720D01*
X0051252Y0158454D01*
X0041986Y0157720D02*
X0041252Y0158454D01*
X0039784Y0158454D01*
X0039050Y0157720D01*
X0039050Y0154784D01*
X0039784Y0154050D01*
X0041252Y0154050D01*
X0041986Y0154784D01*
X0031986Y0174050D02*
X0029050Y0174050D01*
X0029050Y0178454D01*
X0031986Y0178454D01*
X0030518Y0176252D02*
X0029050Y0176252D01*
X0021986Y0176986D02*
X0021252Y0176252D01*
X0019050Y0176252D01*
X0019050Y0174050D02*
X0019050Y0178454D01*
X0021252Y0178454D01*
X0021986Y0177720D01*
X0021986Y0176986D01*
X0021252Y0176252D02*
X0021986Y0175518D01*
X0021986Y0174784D01*
X0021252Y0174050D01*
X0019050Y0174050D01*
X0011986Y0174784D02*
X0011252Y0174050D01*
X0009784Y0174050D01*
X0009050Y0174784D01*
X0009050Y0177720D01*
X0009784Y0178454D01*
X0011252Y0178454D01*
X0011986Y0177720D01*
X0096550Y0170954D02*
X0096550Y0166550D01*
X0099486Y0166550D01*
X0098018Y0168752D02*
X0096550Y0168752D01*
X0096550Y0170954D02*
X0099486Y0170954D01*
X0119050Y0163454D02*
X0119050Y0161252D01*
X0120518Y0161986D01*
X0121252Y0161986D01*
X0121986Y0161252D01*
X0121986Y0159784D01*
X0121252Y0159050D01*
X0119784Y0159050D01*
X0119050Y0159784D01*
X0119050Y0163454D02*
X0121986Y0163454D01*
X0124114Y0163454D02*
X0124114Y0160518D01*
X0125582Y0159050D01*
X0127050Y0160518D01*
X0127050Y0163454D01*
X0127050Y0153454D02*
X0127050Y0150518D01*
X0125582Y0149050D01*
X0124114Y0150518D01*
X0124114Y0153454D01*
X0121986Y0153454D02*
X0119050Y0153454D01*
X0119050Y0151252D01*
X0120518Y0151986D01*
X0121252Y0151986D01*
X0121986Y0151252D01*
X0121986Y0149784D01*
X0121252Y0149050D01*
X0119784Y0149050D01*
X0119050Y0149784D01*
X0119050Y0143454D02*
X0119050Y0141252D01*
X0120518Y0141986D01*
X0121252Y0141986D01*
X0121986Y0141252D01*
X0121986Y0139784D01*
X0121252Y0139050D01*
X0119784Y0139050D01*
X0119050Y0139784D01*
X0119050Y0143454D02*
X0121986Y0143454D01*
X0124114Y0143454D02*
X0124114Y0140518D01*
X0125582Y0139050D01*
X0127050Y0140518D01*
X0127050Y0143454D01*
X0127050Y0133454D02*
X0127050Y0130518D01*
X0125582Y0129050D01*
X0124114Y0130518D01*
X0124114Y0133454D01*
X0121986Y0133454D02*
X0119050Y0133454D01*
X0119050Y0131252D01*
X0120518Y0131986D01*
X0121252Y0131986D01*
X0121986Y0131252D01*
X0121986Y0129784D01*
X0121252Y0129050D01*
X0119784Y0129050D01*
X0119050Y0129784D01*
X0119050Y0123454D02*
X0121252Y0123454D01*
X0121986Y0122720D01*
X0121986Y0121252D01*
X0121252Y0120518D01*
X0119050Y0120518D01*
X0119050Y0119050D02*
X0119050Y0123454D01*
X0124114Y0123454D02*
X0124114Y0119050D01*
X0126316Y0119050D01*
X0127050Y0119784D01*
X0127050Y0122720D01*
X0126316Y0123454D01*
X0124114Y0123454D01*
X0129179Y0121252D02*
X0132114Y0121252D01*
X0131381Y0119050D02*
X0131381Y0123454D01*
X0129179Y0121252D01*
X0129913Y0113454D02*
X0131381Y0113454D01*
X0132114Y0112720D01*
X0132114Y0111986D01*
X0131381Y0111252D01*
X0132114Y0110518D01*
X0132114Y0109784D01*
X0131381Y0109050D01*
X0129913Y0109050D01*
X0129179Y0109784D01*
X0130647Y0111252D02*
X0131381Y0111252D01*
X0129179Y0112720D02*
X0129913Y0113454D01*
X0127050Y0112720D02*
X0127050Y0109784D01*
X0126316Y0109050D01*
X0124114Y0109050D01*
X0124114Y0113454D01*
X0126316Y0113454D01*
X0127050Y0112720D01*
X0121986Y0112720D02*
X0121986Y0111252D01*
X0121252Y0110518D01*
X0119050Y0110518D01*
X0119050Y0109050D02*
X0119050Y0113454D01*
X0121252Y0113454D01*
X0121986Y0112720D01*
X0121252Y0103454D02*
X0119050Y0103454D01*
X0119050Y0099050D01*
X0119050Y0100518D02*
X0121252Y0100518D01*
X0121986Y0101252D01*
X0121986Y0102720D01*
X0121252Y0103454D01*
X0124114Y0103454D02*
X0124114Y0099050D01*
X0126316Y0099050D01*
X0127050Y0099784D01*
X0127050Y0102720D01*
X0126316Y0103454D01*
X0124114Y0103454D01*
X0129179Y0102720D02*
X0129913Y0103454D01*
X0131381Y0103454D01*
X0132114Y0102720D01*
X0132114Y0101986D01*
X0129179Y0099050D01*
X0132114Y0099050D01*
X0130647Y0093454D02*
X0129179Y0091986D01*
X0130647Y0093454D02*
X0130647Y0089050D01*
X0132114Y0089050D02*
X0129179Y0089050D01*
X0127050Y0089784D02*
X0127050Y0092720D01*
X0126316Y0093454D01*
X0124114Y0093454D01*
X0124114Y0089050D01*
X0126316Y0089050D01*
X0127050Y0089784D01*
X0121986Y0091252D02*
X0121252Y0090518D01*
X0119050Y0090518D01*
X0119050Y0089050D02*
X0119050Y0093454D01*
X0121252Y0093454D01*
X0121986Y0092720D01*
X0121986Y0091252D01*
X0121252Y0083454D02*
X0119784Y0083454D01*
X0119050Y0082720D01*
X0120518Y0081252D02*
X0121252Y0081252D01*
X0121986Y0080518D01*
X0121986Y0079784D01*
X0121252Y0079050D01*
X0119784Y0079050D01*
X0119050Y0079784D01*
X0121252Y0081252D02*
X0121986Y0081986D01*
X0121986Y0082720D01*
X0121252Y0083454D01*
X0124114Y0081986D02*
X0125582Y0079050D01*
X0127050Y0081986D01*
X0129179Y0082720D02*
X0129913Y0083454D01*
X0131381Y0083454D01*
X0132114Y0082720D01*
X0132114Y0081986D01*
X0131381Y0081252D01*
X0132114Y0080518D01*
X0132114Y0079784D01*
X0131381Y0079050D01*
X0129913Y0079050D01*
X0129179Y0079784D01*
X0130647Y0081252D02*
X0131381Y0081252D01*
X0131381Y0073454D02*
X0129913Y0073454D01*
X0129179Y0072720D01*
X0130647Y0071252D02*
X0131381Y0071252D01*
X0132114Y0070518D01*
X0132114Y0069784D01*
X0131381Y0069050D01*
X0129913Y0069050D01*
X0129179Y0069784D01*
X0131381Y0071252D02*
X0132114Y0071986D01*
X0132114Y0072720D01*
X0131381Y0073454D01*
X0127050Y0071986D02*
X0125582Y0069050D01*
X0124114Y0071986D01*
X0121986Y0071986D02*
X0121986Y0072720D01*
X0121252Y0073454D01*
X0119784Y0073454D01*
X0119050Y0072720D01*
X0120518Y0071252D02*
X0121252Y0071252D01*
X0121986Y0070518D01*
X0121986Y0069784D01*
X0121252Y0069050D01*
X0119784Y0069050D01*
X0119050Y0069784D01*
X0121252Y0071252D02*
X0121986Y0071986D01*
X0121252Y0063454D02*
X0119784Y0063454D01*
X0119050Y0062720D01*
X0120518Y0061252D02*
X0121252Y0061252D01*
X0121986Y0060518D01*
X0121986Y0059784D01*
X0121252Y0059050D01*
X0119784Y0059050D01*
X0119050Y0059784D01*
X0121252Y0061252D02*
X0121986Y0061986D01*
X0121986Y0062720D01*
X0121252Y0063454D01*
X0124114Y0061986D02*
X0125582Y0059050D01*
X0127050Y0061986D01*
X0129179Y0062720D02*
X0129913Y0063454D01*
X0131381Y0063454D01*
X0132114Y0062720D01*
X0132114Y0061986D01*
X0131381Y0061252D01*
X0132114Y0060518D01*
X0132114Y0059784D01*
X0131381Y0059050D01*
X0129913Y0059050D01*
X0129179Y0059784D01*
X0130647Y0061252D02*
X0131381Y0061252D01*
X0131381Y0053454D02*
X0129913Y0053454D01*
X0129179Y0052720D01*
X0130647Y0051252D02*
X0131381Y0051252D01*
X0132114Y0050518D01*
X0132114Y0049784D01*
X0131381Y0049050D01*
X0129913Y0049050D01*
X0129179Y0049784D01*
X0131381Y0051252D02*
X0132114Y0051986D01*
X0132114Y0052720D01*
X0131381Y0053454D01*
X0127050Y0051986D02*
X0125582Y0049050D01*
X0124114Y0051986D01*
X0121986Y0051986D02*
X0121252Y0051252D01*
X0121986Y0050518D01*
X0121986Y0049784D01*
X0121252Y0049050D01*
X0119784Y0049050D01*
X0119050Y0049784D01*
X0120518Y0051252D02*
X0121252Y0051252D01*
X0121986Y0051986D02*
X0121986Y0052720D01*
X0121252Y0053454D01*
X0119784Y0053454D01*
X0119050Y0052720D01*
X0119784Y0043454D02*
X0119050Y0042720D01*
X0119050Y0039784D01*
X0119784Y0039050D01*
X0121252Y0039050D01*
X0121986Y0039784D01*
X0121986Y0041252D01*
X0120518Y0041252D01*
X0121986Y0042720D02*
X0121252Y0043454D01*
X0119784Y0043454D01*
X0124114Y0043454D02*
X0124114Y0039050D01*
X0127050Y0039050D02*
X0124114Y0043454D01*
X0127050Y0043454D02*
X0127050Y0039050D01*
X0129179Y0039050D02*
X0129179Y0043454D01*
X0131381Y0043454D01*
X0132114Y0042720D01*
X0132114Y0039784D01*
X0131381Y0039050D01*
X0129179Y0039050D01*
X0129179Y0033454D02*
X0131381Y0033454D01*
X0132114Y0032720D01*
X0132114Y0029784D01*
X0131381Y0029050D01*
X0129179Y0029050D01*
X0129179Y0033454D01*
X0127050Y0033454D02*
X0127050Y0029050D01*
X0124114Y0033454D01*
X0124114Y0029050D01*
X0121986Y0029784D02*
X0121986Y0031252D01*
X0120518Y0031252D01*
X0121986Y0032720D02*
X0121252Y0033454D01*
X0119784Y0033454D01*
X0119050Y0032720D01*
X0119050Y0029784D01*
X0119784Y0029050D01*
X0121252Y0029050D01*
X0121986Y0029784D01*
X0121252Y0023454D02*
X0119784Y0023454D01*
X0119050Y0022720D01*
X0119050Y0019784D01*
X0119784Y0019050D01*
X0121252Y0019050D01*
X0121986Y0019784D01*
X0121986Y0021252D01*
X0120518Y0021252D01*
X0121986Y0022720D02*
X0121252Y0023454D01*
X0124114Y0023454D02*
X0124114Y0019050D01*
X0127050Y0019050D02*
X0124114Y0023454D01*
X0127050Y0023454D02*
X0127050Y0019050D01*
X0129179Y0019050D02*
X0129179Y0023454D01*
X0131381Y0023454D01*
X0132114Y0022720D01*
X0132114Y0019784D01*
X0131381Y0019050D01*
X0129179Y0019050D01*
X0129179Y0013454D02*
X0131381Y0013454D01*
X0132114Y0012720D01*
X0132114Y0009784D01*
X0131381Y0009050D01*
X0129179Y0009050D01*
X0129179Y0013454D01*
X0127050Y0013454D02*
X0127050Y0009050D01*
X0124114Y0013454D01*
X0124114Y0009050D01*
X0121986Y0009784D02*
X0121986Y0011252D01*
X0120518Y0011252D01*
X0121986Y0012720D02*
X0121252Y0013454D01*
X0119784Y0013454D01*
X0119050Y0012720D01*
X0119050Y0009784D01*
X0119784Y0009050D01*
X0121252Y0009050D01*
X0121986Y0009784D01*
D12*
X0042500Y0006000D02*
X0019500Y0006000D01*
X0019500Y0076000D01*
X0027000Y0076000D01*
X0027002Y0075874D01*
X0027008Y0075749D01*
X0027018Y0075624D01*
X0027032Y0075499D01*
X0027049Y0075374D01*
X0027071Y0075250D01*
X0027096Y0075127D01*
X0027126Y0075005D01*
X0027159Y0074884D01*
X0027196Y0074764D01*
X0027236Y0074645D01*
X0027281Y0074528D01*
X0027329Y0074411D01*
X0027381Y0074297D01*
X0027436Y0074184D01*
X0027495Y0074073D01*
X0027557Y0073964D01*
X0027623Y0073857D01*
X0027692Y0073752D01*
X0027764Y0073649D01*
X0027839Y0073548D01*
X0027918Y0073450D01*
X0028000Y0073355D01*
X0028084Y0073262D01*
X0028172Y0073172D01*
X0028262Y0073084D01*
X0028355Y0073000D01*
X0028450Y0072918D01*
X0028548Y0072839D01*
X0028649Y0072764D01*
X0028752Y0072692D01*
X0028857Y0072623D01*
X0028964Y0072557D01*
X0029073Y0072495D01*
X0029184Y0072436D01*
X0029297Y0072381D01*
X0029411Y0072329D01*
X0029528Y0072281D01*
X0029645Y0072236D01*
X0029764Y0072196D01*
X0029884Y0072159D01*
X0030005Y0072126D01*
X0030127Y0072096D01*
X0030250Y0072071D01*
X0030374Y0072049D01*
X0030499Y0072032D01*
X0030624Y0072018D01*
X0030749Y0072008D01*
X0030874Y0072002D01*
X0031000Y0072000D01*
X0031126Y0072002D01*
X0031251Y0072008D01*
X0031376Y0072018D01*
X0031501Y0072032D01*
X0031626Y0072049D01*
X0031750Y0072071D01*
X0031873Y0072096D01*
X0031995Y0072126D01*
X0032116Y0072159D01*
X0032236Y0072196D01*
X0032355Y0072236D01*
X0032472Y0072281D01*
X0032589Y0072329D01*
X0032703Y0072381D01*
X0032816Y0072436D01*
X0032927Y0072495D01*
X0033036Y0072557D01*
X0033143Y0072623D01*
X0033248Y0072692D01*
X0033351Y0072764D01*
X0033452Y0072839D01*
X0033550Y0072918D01*
X0033645Y0073000D01*
X0033738Y0073084D01*
X0033828Y0073172D01*
X0033916Y0073262D01*
X0034000Y0073355D01*
X0034082Y0073450D01*
X0034161Y0073548D01*
X0034236Y0073649D01*
X0034308Y0073752D01*
X0034377Y0073857D01*
X0034443Y0073964D01*
X0034505Y0074073D01*
X0034564Y0074184D01*
X0034619Y0074297D01*
X0034671Y0074411D01*
X0034719Y0074528D01*
X0034764Y0074645D01*
X0034804Y0074764D01*
X0034841Y0074884D01*
X0034874Y0075005D01*
X0034904Y0075127D01*
X0034929Y0075250D01*
X0034951Y0075374D01*
X0034968Y0075499D01*
X0034982Y0075624D01*
X0034992Y0075749D01*
X0034998Y0075874D01*
X0035000Y0076000D01*
X0042500Y0076000D01*
X0042500Y0006000D01*
X0066000Y0023000D02*
X0066000Y0029000D01*
X0066002Y0029060D01*
X0066007Y0029121D01*
X0066016Y0029180D01*
X0066029Y0029239D01*
X0066045Y0029298D01*
X0066065Y0029355D01*
X0066088Y0029410D01*
X0066115Y0029465D01*
X0066144Y0029517D01*
X0066177Y0029568D01*
X0066213Y0029617D01*
X0066251Y0029663D01*
X0066293Y0029707D01*
X0066337Y0029749D01*
X0066383Y0029787D01*
X0066432Y0029823D01*
X0066483Y0029856D01*
X0066535Y0029885D01*
X0066590Y0029912D01*
X0066645Y0029935D01*
X0066702Y0029955D01*
X0066761Y0029971D01*
X0066820Y0029984D01*
X0066879Y0029993D01*
X0066940Y0029998D01*
X0067000Y0030000D01*
X0068500Y0030000D01*
X0069000Y0029500D01*
X0083000Y0029500D01*
X0083500Y0030000D01*
X0085000Y0030000D01*
X0085060Y0029998D01*
X0085121Y0029993D01*
X0085180Y0029984D01*
X0085239Y0029971D01*
X0085298Y0029955D01*
X0085355Y0029935D01*
X0085410Y0029912D01*
X0085465Y0029885D01*
X0085517Y0029856D01*
X0085568Y0029823D01*
X0085617Y0029787D01*
X0085663Y0029749D01*
X0085707Y0029707D01*
X0085749Y0029663D01*
X0085787Y0029617D01*
X0085823Y0029568D01*
X0085856Y0029517D01*
X0085885Y0029465D01*
X0085912Y0029410D01*
X0085935Y0029355D01*
X0085955Y0029298D01*
X0085971Y0029239D01*
X0085984Y0029180D01*
X0085993Y0029121D01*
X0085998Y0029060D01*
X0086000Y0029000D01*
X0086000Y0023000D01*
X0085998Y0022940D01*
X0085993Y0022879D01*
X0085984Y0022820D01*
X0085971Y0022761D01*
X0085955Y0022702D01*
X0085935Y0022645D01*
X0085912Y0022590D01*
X0085885Y0022535D01*
X0085856Y0022483D01*
X0085823Y0022432D01*
X0085787Y0022383D01*
X0085749Y0022337D01*
X0085707Y0022293D01*
X0085663Y0022251D01*
X0085617Y0022213D01*
X0085568Y0022177D01*
X0085517Y0022144D01*
X0085465Y0022115D01*
X0085410Y0022088D01*
X0085355Y0022065D01*
X0085298Y0022045D01*
X0085239Y0022029D01*
X0085180Y0022016D01*
X0085121Y0022007D01*
X0085060Y0022002D01*
X0085000Y0022000D01*
X0083500Y0022000D01*
X0083000Y0022500D01*
X0069000Y0022500D01*
X0068500Y0022000D01*
X0067000Y0022000D01*
X0066940Y0022002D01*
X0066879Y0022007D01*
X0066820Y0022016D01*
X0066761Y0022029D01*
X0066702Y0022045D01*
X0066645Y0022065D01*
X0066590Y0022088D01*
X0066535Y0022115D01*
X0066483Y0022144D01*
X0066432Y0022177D01*
X0066383Y0022213D01*
X0066337Y0022251D01*
X0066293Y0022293D01*
X0066251Y0022337D01*
X0066213Y0022383D01*
X0066177Y0022432D01*
X0066144Y0022483D01*
X0066115Y0022535D01*
X0066088Y0022590D01*
X0066065Y0022645D01*
X0066045Y0022702D01*
X0066029Y0022761D01*
X0066016Y0022820D01*
X0066007Y0022879D01*
X0066002Y0022940D01*
X0066000Y0023000D01*
X0067000Y0032000D02*
X0068500Y0032000D01*
X0069000Y0032500D01*
X0083000Y0032500D01*
X0083500Y0032000D01*
X0085000Y0032000D01*
X0085060Y0032002D01*
X0085121Y0032007D01*
X0085180Y0032016D01*
X0085239Y0032029D01*
X0085298Y0032045D01*
X0085355Y0032065D01*
X0085410Y0032088D01*
X0085465Y0032115D01*
X0085517Y0032144D01*
X0085568Y0032177D01*
X0085617Y0032213D01*
X0085663Y0032251D01*
X0085707Y0032293D01*
X0085749Y0032337D01*
X0085787Y0032383D01*
X0085823Y0032432D01*
X0085856Y0032483D01*
X0085885Y0032535D01*
X0085912Y0032590D01*
X0085935Y0032645D01*
X0085955Y0032702D01*
X0085971Y0032761D01*
X0085984Y0032820D01*
X0085993Y0032879D01*
X0085998Y0032940D01*
X0086000Y0033000D01*
X0086000Y0039000D01*
X0085998Y0039060D01*
X0085993Y0039121D01*
X0085984Y0039180D01*
X0085971Y0039239D01*
X0085955Y0039298D01*
X0085935Y0039355D01*
X0085912Y0039410D01*
X0085885Y0039465D01*
X0085856Y0039517D01*
X0085823Y0039568D01*
X0085787Y0039617D01*
X0085749Y0039663D01*
X0085707Y0039707D01*
X0085663Y0039749D01*
X0085617Y0039787D01*
X0085568Y0039823D01*
X0085517Y0039856D01*
X0085465Y0039885D01*
X0085410Y0039912D01*
X0085355Y0039935D01*
X0085298Y0039955D01*
X0085239Y0039971D01*
X0085180Y0039984D01*
X0085121Y0039993D01*
X0085060Y0039998D01*
X0085000Y0040000D01*
X0083500Y0040000D01*
X0083000Y0039500D01*
X0069000Y0039500D01*
X0068500Y0040000D01*
X0067000Y0040000D01*
X0066940Y0039998D01*
X0066879Y0039993D01*
X0066820Y0039984D01*
X0066761Y0039971D01*
X0066702Y0039955D01*
X0066645Y0039935D01*
X0066590Y0039912D01*
X0066535Y0039885D01*
X0066483Y0039856D01*
X0066432Y0039823D01*
X0066383Y0039787D01*
X0066337Y0039749D01*
X0066293Y0039707D01*
X0066251Y0039663D01*
X0066213Y0039617D01*
X0066177Y0039568D01*
X0066144Y0039517D01*
X0066115Y0039465D01*
X0066088Y0039410D01*
X0066065Y0039355D01*
X0066045Y0039298D01*
X0066029Y0039239D01*
X0066016Y0039180D01*
X0066007Y0039121D01*
X0066002Y0039060D01*
X0066000Y0039000D01*
X0066000Y0033000D01*
X0066002Y0032940D01*
X0066007Y0032879D01*
X0066016Y0032820D01*
X0066029Y0032761D01*
X0066045Y0032702D01*
X0066065Y0032645D01*
X0066088Y0032590D01*
X0066115Y0032535D01*
X0066144Y0032483D01*
X0066177Y0032432D01*
X0066213Y0032383D01*
X0066251Y0032337D01*
X0066293Y0032293D01*
X0066337Y0032251D01*
X0066383Y0032213D01*
X0066432Y0032177D01*
X0066483Y0032144D01*
X0066535Y0032115D01*
X0066590Y0032088D01*
X0066645Y0032065D01*
X0066702Y0032045D01*
X0066761Y0032029D01*
X0066820Y0032016D01*
X0066879Y0032007D01*
X0066940Y0032002D01*
X0067000Y0032000D01*
X0067000Y0042000D02*
X0068500Y0042000D01*
X0069000Y0042500D01*
X0083000Y0042500D01*
X0083500Y0042000D01*
X0085000Y0042000D01*
X0085060Y0042002D01*
X0085121Y0042007D01*
X0085180Y0042016D01*
X0085239Y0042029D01*
X0085298Y0042045D01*
X0085355Y0042065D01*
X0085410Y0042088D01*
X0085465Y0042115D01*
X0085517Y0042144D01*
X0085568Y0042177D01*
X0085617Y0042213D01*
X0085663Y0042251D01*
X0085707Y0042293D01*
X0085749Y0042337D01*
X0085787Y0042383D01*
X0085823Y0042432D01*
X0085856Y0042483D01*
X0085885Y0042535D01*
X0085912Y0042590D01*
X0085935Y0042645D01*
X0085955Y0042702D01*
X0085971Y0042761D01*
X0085984Y0042820D01*
X0085993Y0042879D01*
X0085998Y0042940D01*
X0086000Y0043000D01*
X0086000Y0049000D01*
X0085998Y0049060D01*
X0085993Y0049121D01*
X0085984Y0049180D01*
X0085971Y0049239D01*
X0085955Y0049298D01*
X0085935Y0049355D01*
X0085912Y0049410D01*
X0085885Y0049465D01*
X0085856Y0049517D01*
X0085823Y0049568D01*
X0085787Y0049617D01*
X0085749Y0049663D01*
X0085707Y0049707D01*
X0085663Y0049749D01*
X0085617Y0049787D01*
X0085568Y0049823D01*
X0085517Y0049856D01*
X0085465Y0049885D01*
X0085410Y0049912D01*
X0085355Y0049935D01*
X0085298Y0049955D01*
X0085239Y0049971D01*
X0085180Y0049984D01*
X0085121Y0049993D01*
X0085060Y0049998D01*
X0085000Y0050000D01*
X0083500Y0050000D01*
X0083000Y0049500D01*
X0069000Y0049500D01*
X0068500Y0050000D01*
X0067000Y0050000D01*
X0066940Y0049998D01*
X0066879Y0049993D01*
X0066820Y0049984D01*
X0066761Y0049971D01*
X0066702Y0049955D01*
X0066645Y0049935D01*
X0066590Y0049912D01*
X0066535Y0049885D01*
X0066483Y0049856D01*
X0066432Y0049823D01*
X0066383Y0049787D01*
X0066337Y0049749D01*
X0066293Y0049707D01*
X0066251Y0049663D01*
X0066213Y0049617D01*
X0066177Y0049568D01*
X0066144Y0049517D01*
X0066115Y0049465D01*
X0066088Y0049410D01*
X0066065Y0049355D01*
X0066045Y0049298D01*
X0066029Y0049239D01*
X0066016Y0049180D01*
X0066007Y0049121D01*
X0066002Y0049060D01*
X0066000Y0049000D01*
X0066000Y0043000D01*
X0066002Y0042940D01*
X0066007Y0042879D01*
X0066016Y0042820D01*
X0066029Y0042761D01*
X0066045Y0042702D01*
X0066065Y0042645D01*
X0066088Y0042590D01*
X0066115Y0042535D01*
X0066144Y0042483D01*
X0066177Y0042432D01*
X0066213Y0042383D01*
X0066251Y0042337D01*
X0066293Y0042293D01*
X0066337Y0042251D01*
X0066383Y0042213D01*
X0066432Y0042177D01*
X0066483Y0042144D01*
X0066535Y0042115D01*
X0066590Y0042088D01*
X0066645Y0042065D01*
X0066702Y0042045D01*
X0066761Y0042029D01*
X0066820Y0042016D01*
X0066879Y0042007D01*
X0066940Y0042002D01*
X0067000Y0042000D01*
X0067000Y0052000D02*
X0068500Y0052000D01*
X0069000Y0052500D01*
X0083000Y0052500D01*
X0083500Y0052000D01*
X0085000Y0052000D01*
X0085060Y0052002D01*
X0085121Y0052007D01*
X0085180Y0052016D01*
X0085239Y0052029D01*
X0085298Y0052045D01*
X0085355Y0052065D01*
X0085410Y0052088D01*
X0085465Y0052115D01*
X0085517Y0052144D01*
X0085568Y0052177D01*
X0085617Y0052213D01*
X0085663Y0052251D01*
X0085707Y0052293D01*
X0085749Y0052337D01*
X0085787Y0052383D01*
X0085823Y0052432D01*
X0085856Y0052483D01*
X0085885Y0052535D01*
X0085912Y0052590D01*
X0085935Y0052645D01*
X0085955Y0052702D01*
X0085971Y0052761D01*
X0085984Y0052820D01*
X0085993Y0052879D01*
X0085998Y0052940D01*
X0086000Y0053000D01*
X0086000Y0059000D01*
X0085998Y0059060D01*
X0085993Y0059121D01*
X0085984Y0059180D01*
X0085971Y0059239D01*
X0085955Y0059298D01*
X0085935Y0059355D01*
X0085912Y0059410D01*
X0085885Y0059465D01*
X0085856Y0059517D01*
X0085823Y0059568D01*
X0085787Y0059617D01*
X0085749Y0059663D01*
X0085707Y0059707D01*
X0085663Y0059749D01*
X0085617Y0059787D01*
X0085568Y0059823D01*
X0085517Y0059856D01*
X0085465Y0059885D01*
X0085410Y0059912D01*
X0085355Y0059935D01*
X0085298Y0059955D01*
X0085239Y0059971D01*
X0085180Y0059984D01*
X0085121Y0059993D01*
X0085060Y0059998D01*
X0085000Y0060000D01*
X0083500Y0060000D01*
X0083000Y0059500D01*
X0069000Y0059500D01*
X0068500Y0060000D01*
X0067000Y0060000D01*
X0066940Y0059998D01*
X0066879Y0059993D01*
X0066820Y0059984D01*
X0066761Y0059971D01*
X0066702Y0059955D01*
X0066645Y0059935D01*
X0066590Y0059912D01*
X0066535Y0059885D01*
X0066483Y0059856D01*
X0066432Y0059823D01*
X0066383Y0059787D01*
X0066337Y0059749D01*
X0066293Y0059707D01*
X0066251Y0059663D01*
X0066213Y0059617D01*
X0066177Y0059568D01*
X0066144Y0059517D01*
X0066115Y0059465D01*
X0066088Y0059410D01*
X0066065Y0059355D01*
X0066045Y0059298D01*
X0066029Y0059239D01*
X0066016Y0059180D01*
X0066007Y0059121D01*
X0066002Y0059060D01*
X0066000Y0059000D01*
X0066000Y0053000D01*
X0066002Y0052940D01*
X0066007Y0052879D01*
X0066016Y0052820D01*
X0066029Y0052761D01*
X0066045Y0052702D01*
X0066065Y0052645D01*
X0066088Y0052590D01*
X0066115Y0052535D01*
X0066144Y0052483D01*
X0066177Y0052432D01*
X0066213Y0052383D01*
X0066251Y0052337D01*
X0066293Y0052293D01*
X0066337Y0052251D01*
X0066383Y0052213D01*
X0066432Y0052177D01*
X0066483Y0052144D01*
X0066535Y0052115D01*
X0066590Y0052088D01*
X0066645Y0052065D01*
X0066702Y0052045D01*
X0066761Y0052029D01*
X0066820Y0052016D01*
X0066879Y0052007D01*
X0066940Y0052002D01*
X0067000Y0052000D01*
X0067000Y0062000D02*
X0068500Y0062000D01*
X0069000Y0062500D01*
X0083000Y0062500D01*
X0083500Y0062000D01*
X0085000Y0062000D01*
X0085060Y0062002D01*
X0085121Y0062007D01*
X0085180Y0062016D01*
X0085239Y0062029D01*
X0085298Y0062045D01*
X0085355Y0062065D01*
X0085410Y0062088D01*
X0085465Y0062115D01*
X0085517Y0062144D01*
X0085568Y0062177D01*
X0085617Y0062213D01*
X0085663Y0062251D01*
X0085707Y0062293D01*
X0085749Y0062337D01*
X0085787Y0062383D01*
X0085823Y0062432D01*
X0085856Y0062483D01*
X0085885Y0062535D01*
X0085912Y0062590D01*
X0085935Y0062645D01*
X0085955Y0062702D01*
X0085971Y0062761D01*
X0085984Y0062820D01*
X0085993Y0062879D01*
X0085998Y0062940D01*
X0086000Y0063000D01*
X0086000Y0069000D01*
X0085998Y0069060D01*
X0085993Y0069121D01*
X0085984Y0069180D01*
X0085971Y0069239D01*
X0085955Y0069298D01*
X0085935Y0069355D01*
X0085912Y0069410D01*
X0085885Y0069465D01*
X0085856Y0069517D01*
X0085823Y0069568D01*
X0085787Y0069617D01*
X0085749Y0069663D01*
X0085707Y0069707D01*
X0085663Y0069749D01*
X0085617Y0069787D01*
X0085568Y0069823D01*
X0085517Y0069856D01*
X0085465Y0069885D01*
X0085410Y0069912D01*
X0085355Y0069935D01*
X0085298Y0069955D01*
X0085239Y0069971D01*
X0085180Y0069984D01*
X0085121Y0069993D01*
X0085060Y0069998D01*
X0085000Y0070000D01*
X0083500Y0070000D01*
X0083000Y0069500D01*
X0069000Y0069500D01*
X0068500Y0070000D01*
X0067000Y0070000D01*
X0066940Y0069998D01*
X0066879Y0069993D01*
X0066820Y0069984D01*
X0066761Y0069971D01*
X0066702Y0069955D01*
X0066645Y0069935D01*
X0066590Y0069912D01*
X0066535Y0069885D01*
X0066483Y0069856D01*
X0066432Y0069823D01*
X0066383Y0069787D01*
X0066337Y0069749D01*
X0066293Y0069707D01*
X0066251Y0069663D01*
X0066213Y0069617D01*
X0066177Y0069568D01*
X0066144Y0069517D01*
X0066115Y0069465D01*
X0066088Y0069410D01*
X0066065Y0069355D01*
X0066045Y0069298D01*
X0066029Y0069239D01*
X0066016Y0069180D01*
X0066007Y0069121D01*
X0066002Y0069060D01*
X0066000Y0069000D01*
X0066000Y0063000D01*
X0066002Y0062940D01*
X0066007Y0062879D01*
X0066016Y0062820D01*
X0066029Y0062761D01*
X0066045Y0062702D01*
X0066065Y0062645D01*
X0066088Y0062590D01*
X0066115Y0062535D01*
X0066144Y0062483D01*
X0066177Y0062432D01*
X0066213Y0062383D01*
X0066251Y0062337D01*
X0066293Y0062293D01*
X0066337Y0062251D01*
X0066383Y0062213D01*
X0066432Y0062177D01*
X0066483Y0062144D01*
X0066535Y0062115D01*
X0066590Y0062088D01*
X0066645Y0062065D01*
X0066702Y0062045D01*
X0066761Y0062029D01*
X0066820Y0062016D01*
X0066879Y0062007D01*
X0066940Y0062002D01*
X0067000Y0062000D01*
X0067000Y0072000D02*
X0068500Y0072000D01*
X0069000Y0072500D01*
X0083000Y0072500D01*
X0083500Y0072000D01*
X0085000Y0072000D01*
X0085060Y0072002D01*
X0085121Y0072007D01*
X0085180Y0072016D01*
X0085239Y0072029D01*
X0085298Y0072045D01*
X0085355Y0072065D01*
X0085410Y0072088D01*
X0085465Y0072115D01*
X0085517Y0072144D01*
X0085568Y0072177D01*
X0085617Y0072213D01*
X0085663Y0072251D01*
X0085707Y0072293D01*
X0085749Y0072337D01*
X0085787Y0072383D01*
X0085823Y0072432D01*
X0085856Y0072483D01*
X0085885Y0072535D01*
X0085912Y0072590D01*
X0085935Y0072645D01*
X0085955Y0072702D01*
X0085971Y0072761D01*
X0085984Y0072820D01*
X0085993Y0072879D01*
X0085998Y0072940D01*
X0086000Y0073000D01*
X0086000Y0079000D01*
X0085998Y0079060D01*
X0085993Y0079121D01*
X0085984Y0079180D01*
X0085971Y0079239D01*
X0085955Y0079298D01*
X0085935Y0079355D01*
X0085912Y0079410D01*
X0085885Y0079465D01*
X0085856Y0079517D01*
X0085823Y0079568D01*
X0085787Y0079617D01*
X0085749Y0079663D01*
X0085707Y0079707D01*
X0085663Y0079749D01*
X0085617Y0079787D01*
X0085568Y0079823D01*
X0085517Y0079856D01*
X0085465Y0079885D01*
X0085410Y0079912D01*
X0085355Y0079935D01*
X0085298Y0079955D01*
X0085239Y0079971D01*
X0085180Y0079984D01*
X0085121Y0079993D01*
X0085060Y0079998D01*
X0085000Y0080000D01*
X0083500Y0080000D01*
X0083000Y0079500D01*
X0069000Y0079500D01*
X0068500Y0080000D01*
X0067000Y0080000D01*
X0066940Y0079998D01*
X0066879Y0079993D01*
X0066820Y0079984D01*
X0066761Y0079971D01*
X0066702Y0079955D01*
X0066645Y0079935D01*
X0066590Y0079912D01*
X0066535Y0079885D01*
X0066483Y0079856D01*
X0066432Y0079823D01*
X0066383Y0079787D01*
X0066337Y0079749D01*
X0066293Y0079707D01*
X0066251Y0079663D01*
X0066213Y0079617D01*
X0066177Y0079568D01*
X0066144Y0079517D01*
X0066115Y0079465D01*
X0066088Y0079410D01*
X0066065Y0079355D01*
X0066045Y0079298D01*
X0066029Y0079239D01*
X0066016Y0079180D01*
X0066007Y0079121D01*
X0066002Y0079060D01*
X0066000Y0079000D01*
X0066000Y0073000D01*
X0066002Y0072940D01*
X0066007Y0072879D01*
X0066016Y0072820D01*
X0066029Y0072761D01*
X0066045Y0072702D01*
X0066065Y0072645D01*
X0066088Y0072590D01*
X0066115Y0072535D01*
X0066144Y0072483D01*
X0066177Y0072432D01*
X0066213Y0072383D01*
X0066251Y0072337D01*
X0066293Y0072293D01*
X0066337Y0072251D01*
X0066383Y0072213D01*
X0066432Y0072177D01*
X0066483Y0072144D01*
X0066535Y0072115D01*
X0066590Y0072088D01*
X0066645Y0072065D01*
X0066702Y0072045D01*
X0066761Y0072029D01*
X0066820Y0072016D01*
X0066879Y0072007D01*
X0066940Y0072002D01*
X0067000Y0072000D01*
X0067000Y0082000D02*
X0068500Y0082000D01*
X0069000Y0082500D01*
X0083000Y0082500D01*
X0083500Y0082000D01*
X0085000Y0082000D01*
X0085060Y0082002D01*
X0085121Y0082007D01*
X0085180Y0082016D01*
X0085239Y0082029D01*
X0085298Y0082045D01*
X0085355Y0082065D01*
X0085410Y0082088D01*
X0085465Y0082115D01*
X0085517Y0082144D01*
X0085568Y0082177D01*
X0085617Y0082213D01*
X0085663Y0082251D01*
X0085707Y0082293D01*
X0085749Y0082337D01*
X0085787Y0082383D01*
X0085823Y0082432D01*
X0085856Y0082483D01*
X0085885Y0082535D01*
X0085912Y0082590D01*
X0085935Y0082645D01*
X0085955Y0082702D01*
X0085971Y0082761D01*
X0085984Y0082820D01*
X0085993Y0082879D01*
X0085998Y0082940D01*
X0086000Y0083000D01*
X0086000Y0089000D01*
X0085998Y0089060D01*
X0085993Y0089121D01*
X0085984Y0089180D01*
X0085971Y0089239D01*
X0085955Y0089298D01*
X0085935Y0089355D01*
X0085912Y0089410D01*
X0085885Y0089465D01*
X0085856Y0089517D01*
X0085823Y0089568D01*
X0085787Y0089617D01*
X0085749Y0089663D01*
X0085707Y0089707D01*
X0085663Y0089749D01*
X0085617Y0089787D01*
X0085568Y0089823D01*
X0085517Y0089856D01*
X0085465Y0089885D01*
X0085410Y0089912D01*
X0085355Y0089935D01*
X0085298Y0089955D01*
X0085239Y0089971D01*
X0085180Y0089984D01*
X0085121Y0089993D01*
X0085060Y0089998D01*
X0085000Y0090000D01*
X0083500Y0090000D01*
X0083000Y0089500D01*
X0069000Y0089500D01*
X0068500Y0090000D01*
X0067000Y0090000D01*
X0066940Y0089998D01*
X0066879Y0089993D01*
X0066820Y0089984D01*
X0066761Y0089971D01*
X0066702Y0089955D01*
X0066645Y0089935D01*
X0066590Y0089912D01*
X0066535Y0089885D01*
X0066483Y0089856D01*
X0066432Y0089823D01*
X0066383Y0089787D01*
X0066337Y0089749D01*
X0066293Y0089707D01*
X0066251Y0089663D01*
X0066213Y0089617D01*
X0066177Y0089568D01*
X0066144Y0089517D01*
X0066115Y0089465D01*
X0066088Y0089410D01*
X0066065Y0089355D01*
X0066045Y0089298D01*
X0066029Y0089239D01*
X0066016Y0089180D01*
X0066007Y0089121D01*
X0066002Y0089060D01*
X0066000Y0089000D01*
X0066000Y0083000D01*
X0066002Y0082940D01*
X0066007Y0082879D01*
X0066016Y0082820D01*
X0066029Y0082761D01*
X0066045Y0082702D01*
X0066065Y0082645D01*
X0066088Y0082590D01*
X0066115Y0082535D01*
X0066144Y0082483D01*
X0066177Y0082432D01*
X0066213Y0082383D01*
X0066251Y0082337D01*
X0066293Y0082293D01*
X0066337Y0082251D01*
X0066383Y0082213D01*
X0066432Y0082177D01*
X0066483Y0082144D01*
X0066535Y0082115D01*
X0066590Y0082088D01*
X0066645Y0082065D01*
X0066702Y0082045D01*
X0066761Y0082029D01*
X0066820Y0082016D01*
X0066879Y0082007D01*
X0066940Y0082002D01*
X0067000Y0082000D01*
X0067000Y0092000D02*
X0068500Y0092000D01*
X0069000Y0092500D01*
X0083000Y0092500D01*
X0083500Y0092000D01*
X0085000Y0092000D01*
X0085060Y0092002D01*
X0085121Y0092007D01*
X0085180Y0092016D01*
X0085239Y0092029D01*
X0085298Y0092045D01*
X0085355Y0092065D01*
X0085410Y0092088D01*
X0085465Y0092115D01*
X0085517Y0092144D01*
X0085568Y0092177D01*
X0085617Y0092213D01*
X0085663Y0092251D01*
X0085707Y0092293D01*
X0085749Y0092337D01*
X0085787Y0092383D01*
X0085823Y0092432D01*
X0085856Y0092483D01*
X0085885Y0092535D01*
X0085912Y0092590D01*
X0085935Y0092645D01*
X0085955Y0092702D01*
X0085971Y0092761D01*
X0085984Y0092820D01*
X0085993Y0092879D01*
X0085998Y0092940D01*
X0086000Y0093000D01*
X0086000Y0099000D01*
X0085998Y0099060D01*
X0085993Y0099121D01*
X0085984Y0099180D01*
X0085971Y0099239D01*
X0085955Y0099298D01*
X0085935Y0099355D01*
X0085912Y0099410D01*
X0085885Y0099465D01*
X0085856Y0099517D01*
X0085823Y0099568D01*
X0085787Y0099617D01*
X0085749Y0099663D01*
X0085707Y0099707D01*
X0085663Y0099749D01*
X0085617Y0099787D01*
X0085568Y0099823D01*
X0085517Y0099856D01*
X0085465Y0099885D01*
X0085410Y0099912D01*
X0085355Y0099935D01*
X0085298Y0099955D01*
X0085239Y0099971D01*
X0085180Y0099984D01*
X0085121Y0099993D01*
X0085060Y0099998D01*
X0085000Y0100000D01*
X0083500Y0100000D01*
X0083000Y0099500D01*
X0069000Y0099500D01*
X0068500Y0100000D01*
X0067000Y0100000D01*
X0066940Y0099998D01*
X0066879Y0099993D01*
X0066820Y0099984D01*
X0066761Y0099971D01*
X0066702Y0099955D01*
X0066645Y0099935D01*
X0066590Y0099912D01*
X0066535Y0099885D01*
X0066483Y0099856D01*
X0066432Y0099823D01*
X0066383Y0099787D01*
X0066337Y0099749D01*
X0066293Y0099707D01*
X0066251Y0099663D01*
X0066213Y0099617D01*
X0066177Y0099568D01*
X0066144Y0099517D01*
X0066115Y0099465D01*
X0066088Y0099410D01*
X0066065Y0099355D01*
X0066045Y0099298D01*
X0066029Y0099239D01*
X0066016Y0099180D01*
X0066007Y0099121D01*
X0066002Y0099060D01*
X0066000Y0099000D01*
X0066000Y0093000D01*
X0066002Y0092940D01*
X0066007Y0092879D01*
X0066016Y0092820D01*
X0066029Y0092761D01*
X0066045Y0092702D01*
X0066065Y0092645D01*
X0066088Y0092590D01*
X0066115Y0092535D01*
X0066144Y0092483D01*
X0066177Y0092432D01*
X0066213Y0092383D01*
X0066251Y0092337D01*
X0066293Y0092293D01*
X0066337Y0092251D01*
X0066383Y0092213D01*
X0066432Y0092177D01*
X0066483Y0092144D01*
X0066535Y0092115D01*
X0066590Y0092088D01*
X0066645Y0092065D01*
X0066702Y0092045D01*
X0066761Y0092029D01*
X0066820Y0092016D01*
X0066879Y0092007D01*
X0066940Y0092002D01*
X0067000Y0092000D01*
X0067000Y0102000D02*
X0068500Y0102000D01*
X0069000Y0102500D01*
X0083000Y0102500D01*
X0083500Y0102000D01*
X0085000Y0102000D01*
X0085060Y0102002D01*
X0085121Y0102007D01*
X0085180Y0102016D01*
X0085239Y0102029D01*
X0085298Y0102045D01*
X0085355Y0102065D01*
X0085410Y0102088D01*
X0085465Y0102115D01*
X0085517Y0102144D01*
X0085568Y0102177D01*
X0085617Y0102213D01*
X0085663Y0102251D01*
X0085707Y0102293D01*
X0085749Y0102337D01*
X0085787Y0102383D01*
X0085823Y0102432D01*
X0085856Y0102483D01*
X0085885Y0102535D01*
X0085912Y0102590D01*
X0085935Y0102645D01*
X0085955Y0102702D01*
X0085971Y0102761D01*
X0085984Y0102820D01*
X0085993Y0102879D01*
X0085998Y0102940D01*
X0086000Y0103000D01*
X0086000Y0109000D01*
X0085998Y0109060D01*
X0085993Y0109121D01*
X0085984Y0109180D01*
X0085971Y0109239D01*
X0085955Y0109298D01*
X0085935Y0109355D01*
X0085912Y0109410D01*
X0085885Y0109465D01*
X0085856Y0109517D01*
X0085823Y0109568D01*
X0085787Y0109617D01*
X0085749Y0109663D01*
X0085707Y0109707D01*
X0085663Y0109749D01*
X0085617Y0109787D01*
X0085568Y0109823D01*
X0085517Y0109856D01*
X0085465Y0109885D01*
X0085410Y0109912D01*
X0085355Y0109935D01*
X0085298Y0109955D01*
X0085239Y0109971D01*
X0085180Y0109984D01*
X0085121Y0109993D01*
X0085060Y0109998D01*
X0085000Y0110000D01*
X0083500Y0110000D01*
X0083000Y0109500D01*
X0069000Y0109500D01*
X0068500Y0110000D01*
X0067000Y0110000D01*
X0066940Y0109998D01*
X0066879Y0109993D01*
X0066820Y0109984D01*
X0066761Y0109971D01*
X0066702Y0109955D01*
X0066645Y0109935D01*
X0066590Y0109912D01*
X0066535Y0109885D01*
X0066483Y0109856D01*
X0066432Y0109823D01*
X0066383Y0109787D01*
X0066337Y0109749D01*
X0066293Y0109707D01*
X0066251Y0109663D01*
X0066213Y0109617D01*
X0066177Y0109568D01*
X0066144Y0109517D01*
X0066115Y0109465D01*
X0066088Y0109410D01*
X0066065Y0109355D01*
X0066045Y0109298D01*
X0066029Y0109239D01*
X0066016Y0109180D01*
X0066007Y0109121D01*
X0066002Y0109060D01*
X0066000Y0109000D01*
X0066000Y0103000D01*
X0066002Y0102940D01*
X0066007Y0102879D01*
X0066016Y0102820D01*
X0066029Y0102761D01*
X0066045Y0102702D01*
X0066065Y0102645D01*
X0066088Y0102590D01*
X0066115Y0102535D01*
X0066144Y0102483D01*
X0066177Y0102432D01*
X0066213Y0102383D01*
X0066251Y0102337D01*
X0066293Y0102293D01*
X0066337Y0102251D01*
X0066383Y0102213D01*
X0066432Y0102177D01*
X0066483Y0102144D01*
X0066535Y0102115D01*
X0066590Y0102088D01*
X0066645Y0102065D01*
X0066702Y0102045D01*
X0066761Y0102029D01*
X0066820Y0102016D01*
X0066879Y0102007D01*
X0066940Y0102002D01*
X0067000Y0102000D01*
X0067000Y0112000D02*
X0068500Y0112000D01*
X0069000Y0112500D01*
X0083000Y0112500D01*
X0083500Y0112000D01*
X0085000Y0112000D01*
X0085060Y0112002D01*
X0085121Y0112007D01*
X0085180Y0112016D01*
X0085239Y0112029D01*
X0085298Y0112045D01*
X0085355Y0112065D01*
X0085410Y0112088D01*
X0085465Y0112115D01*
X0085517Y0112144D01*
X0085568Y0112177D01*
X0085617Y0112213D01*
X0085663Y0112251D01*
X0085707Y0112293D01*
X0085749Y0112337D01*
X0085787Y0112383D01*
X0085823Y0112432D01*
X0085856Y0112483D01*
X0085885Y0112535D01*
X0085912Y0112590D01*
X0085935Y0112645D01*
X0085955Y0112702D01*
X0085971Y0112761D01*
X0085984Y0112820D01*
X0085993Y0112879D01*
X0085998Y0112940D01*
X0086000Y0113000D01*
X0086000Y0119000D01*
X0085998Y0119060D01*
X0085993Y0119121D01*
X0085984Y0119180D01*
X0085971Y0119239D01*
X0085955Y0119298D01*
X0085935Y0119355D01*
X0085912Y0119410D01*
X0085885Y0119465D01*
X0085856Y0119517D01*
X0085823Y0119568D01*
X0085787Y0119617D01*
X0085749Y0119663D01*
X0085707Y0119707D01*
X0085663Y0119749D01*
X0085617Y0119787D01*
X0085568Y0119823D01*
X0085517Y0119856D01*
X0085465Y0119885D01*
X0085410Y0119912D01*
X0085355Y0119935D01*
X0085298Y0119955D01*
X0085239Y0119971D01*
X0085180Y0119984D01*
X0085121Y0119993D01*
X0085060Y0119998D01*
X0085000Y0120000D01*
X0083500Y0120000D01*
X0083000Y0119500D01*
X0069000Y0119500D01*
X0068500Y0120000D01*
X0067000Y0120000D01*
X0066940Y0119998D01*
X0066879Y0119993D01*
X0066820Y0119984D01*
X0066761Y0119971D01*
X0066702Y0119955D01*
X0066645Y0119935D01*
X0066590Y0119912D01*
X0066535Y0119885D01*
X0066483Y0119856D01*
X0066432Y0119823D01*
X0066383Y0119787D01*
X0066337Y0119749D01*
X0066293Y0119707D01*
X0066251Y0119663D01*
X0066213Y0119617D01*
X0066177Y0119568D01*
X0066144Y0119517D01*
X0066115Y0119465D01*
X0066088Y0119410D01*
X0066065Y0119355D01*
X0066045Y0119298D01*
X0066029Y0119239D01*
X0066016Y0119180D01*
X0066007Y0119121D01*
X0066002Y0119060D01*
X0066000Y0119000D01*
X0066000Y0113000D01*
X0066002Y0112940D01*
X0066007Y0112879D01*
X0066016Y0112820D01*
X0066029Y0112761D01*
X0066045Y0112702D01*
X0066065Y0112645D01*
X0066088Y0112590D01*
X0066115Y0112535D01*
X0066144Y0112483D01*
X0066177Y0112432D01*
X0066213Y0112383D01*
X0066251Y0112337D01*
X0066293Y0112293D01*
X0066337Y0112251D01*
X0066383Y0112213D01*
X0066432Y0112177D01*
X0066483Y0112144D01*
X0066535Y0112115D01*
X0066590Y0112088D01*
X0066645Y0112065D01*
X0066702Y0112045D01*
X0066761Y0112029D01*
X0066820Y0112016D01*
X0066879Y0112007D01*
X0066940Y0112002D01*
X0067000Y0112000D01*
X0067000Y0122000D02*
X0068500Y0122000D01*
X0069000Y0122500D01*
X0083000Y0122500D01*
X0083500Y0122000D01*
X0085000Y0122000D01*
X0085060Y0122002D01*
X0085121Y0122007D01*
X0085180Y0122016D01*
X0085239Y0122029D01*
X0085298Y0122045D01*
X0085355Y0122065D01*
X0085410Y0122088D01*
X0085465Y0122115D01*
X0085517Y0122144D01*
X0085568Y0122177D01*
X0085617Y0122213D01*
X0085663Y0122251D01*
X0085707Y0122293D01*
X0085749Y0122337D01*
X0085787Y0122383D01*
X0085823Y0122432D01*
X0085856Y0122483D01*
X0085885Y0122535D01*
X0085912Y0122590D01*
X0085935Y0122645D01*
X0085955Y0122702D01*
X0085971Y0122761D01*
X0085984Y0122820D01*
X0085993Y0122879D01*
X0085998Y0122940D01*
X0086000Y0123000D01*
X0086000Y0129000D01*
X0085998Y0129060D01*
X0085993Y0129121D01*
X0085984Y0129180D01*
X0085971Y0129239D01*
X0085955Y0129298D01*
X0085935Y0129355D01*
X0085912Y0129410D01*
X0085885Y0129465D01*
X0085856Y0129517D01*
X0085823Y0129568D01*
X0085787Y0129617D01*
X0085749Y0129663D01*
X0085707Y0129707D01*
X0085663Y0129749D01*
X0085617Y0129787D01*
X0085568Y0129823D01*
X0085517Y0129856D01*
X0085465Y0129885D01*
X0085410Y0129912D01*
X0085355Y0129935D01*
X0085298Y0129955D01*
X0085239Y0129971D01*
X0085180Y0129984D01*
X0085121Y0129993D01*
X0085060Y0129998D01*
X0085000Y0130000D01*
X0083500Y0130000D01*
X0083000Y0129500D01*
X0069000Y0129500D01*
X0068500Y0130000D01*
X0067000Y0130000D01*
X0066940Y0129998D01*
X0066879Y0129993D01*
X0066820Y0129984D01*
X0066761Y0129971D01*
X0066702Y0129955D01*
X0066645Y0129935D01*
X0066590Y0129912D01*
X0066535Y0129885D01*
X0066483Y0129856D01*
X0066432Y0129823D01*
X0066383Y0129787D01*
X0066337Y0129749D01*
X0066293Y0129707D01*
X0066251Y0129663D01*
X0066213Y0129617D01*
X0066177Y0129568D01*
X0066144Y0129517D01*
X0066115Y0129465D01*
X0066088Y0129410D01*
X0066065Y0129355D01*
X0066045Y0129298D01*
X0066029Y0129239D01*
X0066016Y0129180D01*
X0066007Y0129121D01*
X0066002Y0129060D01*
X0066000Y0129000D01*
X0066000Y0123000D01*
X0066002Y0122940D01*
X0066007Y0122879D01*
X0066016Y0122820D01*
X0066029Y0122761D01*
X0066045Y0122702D01*
X0066065Y0122645D01*
X0066088Y0122590D01*
X0066115Y0122535D01*
X0066144Y0122483D01*
X0066177Y0122432D01*
X0066213Y0122383D01*
X0066251Y0122337D01*
X0066293Y0122293D01*
X0066337Y0122251D01*
X0066383Y0122213D01*
X0066432Y0122177D01*
X0066483Y0122144D01*
X0066535Y0122115D01*
X0066590Y0122088D01*
X0066645Y0122065D01*
X0066702Y0122045D01*
X0066761Y0122029D01*
X0066820Y0122016D01*
X0066879Y0122007D01*
X0066940Y0122002D01*
X0067000Y0122000D01*
X0067000Y0132000D02*
X0068500Y0132000D01*
X0069000Y0132500D01*
X0083000Y0132500D01*
X0083500Y0132000D01*
X0085000Y0132000D01*
X0085060Y0132002D01*
X0085121Y0132007D01*
X0085180Y0132016D01*
X0085239Y0132029D01*
X0085298Y0132045D01*
X0085355Y0132065D01*
X0085410Y0132088D01*
X0085465Y0132115D01*
X0085517Y0132144D01*
X0085568Y0132177D01*
X0085617Y0132213D01*
X0085663Y0132251D01*
X0085707Y0132293D01*
X0085749Y0132337D01*
X0085787Y0132383D01*
X0085823Y0132432D01*
X0085856Y0132483D01*
X0085885Y0132535D01*
X0085912Y0132590D01*
X0085935Y0132645D01*
X0085955Y0132702D01*
X0085971Y0132761D01*
X0085984Y0132820D01*
X0085993Y0132879D01*
X0085998Y0132940D01*
X0086000Y0133000D01*
X0086000Y0139000D01*
X0085998Y0139060D01*
X0085993Y0139121D01*
X0085984Y0139180D01*
X0085971Y0139239D01*
X0085955Y0139298D01*
X0085935Y0139355D01*
X0085912Y0139410D01*
X0085885Y0139465D01*
X0085856Y0139517D01*
X0085823Y0139568D01*
X0085787Y0139617D01*
X0085749Y0139663D01*
X0085707Y0139707D01*
X0085663Y0139749D01*
X0085617Y0139787D01*
X0085568Y0139823D01*
X0085517Y0139856D01*
X0085465Y0139885D01*
X0085410Y0139912D01*
X0085355Y0139935D01*
X0085298Y0139955D01*
X0085239Y0139971D01*
X0085180Y0139984D01*
X0085121Y0139993D01*
X0085060Y0139998D01*
X0085000Y0140000D01*
X0083500Y0140000D01*
X0083000Y0139500D01*
X0069000Y0139500D01*
X0068500Y0140000D01*
X0067000Y0140000D01*
X0066940Y0139998D01*
X0066879Y0139993D01*
X0066820Y0139984D01*
X0066761Y0139971D01*
X0066702Y0139955D01*
X0066645Y0139935D01*
X0066590Y0139912D01*
X0066535Y0139885D01*
X0066483Y0139856D01*
X0066432Y0139823D01*
X0066383Y0139787D01*
X0066337Y0139749D01*
X0066293Y0139707D01*
X0066251Y0139663D01*
X0066213Y0139617D01*
X0066177Y0139568D01*
X0066144Y0139517D01*
X0066115Y0139465D01*
X0066088Y0139410D01*
X0066065Y0139355D01*
X0066045Y0139298D01*
X0066029Y0139239D01*
X0066016Y0139180D01*
X0066007Y0139121D01*
X0066002Y0139060D01*
X0066000Y0139000D01*
X0066000Y0133000D01*
X0066002Y0132940D01*
X0066007Y0132879D01*
X0066016Y0132820D01*
X0066029Y0132761D01*
X0066045Y0132702D01*
X0066065Y0132645D01*
X0066088Y0132590D01*
X0066115Y0132535D01*
X0066144Y0132483D01*
X0066177Y0132432D01*
X0066213Y0132383D01*
X0066251Y0132337D01*
X0066293Y0132293D01*
X0066337Y0132251D01*
X0066383Y0132213D01*
X0066432Y0132177D01*
X0066483Y0132144D01*
X0066535Y0132115D01*
X0066590Y0132088D01*
X0066645Y0132065D01*
X0066702Y0132045D01*
X0066761Y0132029D01*
X0066820Y0132016D01*
X0066879Y0132007D01*
X0066940Y0132002D01*
X0067000Y0132000D01*
X0067000Y0142000D02*
X0068500Y0142000D01*
X0069000Y0142500D01*
X0083000Y0142500D01*
X0083500Y0142000D01*
X0085000Y0142000D01*
X0085060Y0142002D01*
X0085121Y0142007D01*
X0085180Y0142016D01*
X0085239Y0142029D01*
X0085298Y0142045D01*
X0085355Y0142065D01*
X0085410Y0142088D01*
X0085465Y0142115D01*
X0085517Y0142144D01*
X0085568Y0142177D01*
X0085617Y0142213D01*
X0085663Y0142251D01*
X0085707Y0142293D01*
X0085749Y0142337D01*
X0085787Y0142383D01*
X0085823Y0142432D01*
X0085856Y0142483D01*
X0085885Y0142535D01*
X0085912Y0142590D01*
X0085935Y0142645D01*
X0085955Y0142702D01*
X0085971Y0142761D01*
X0085984Y0142820D01*
X0085993Y0142879D01*
X0085998Y0142940D01*
X0086000Y0143000D01*
X0086000Y0149000D01*
X0085998Y0149060D01*
X0085993Y0149121D01*
X0085984Y0149180D01*
X0085971Y0149239D01*
X0085955Y0149298D01*
X0085935Y0149355D01*
X0085912Y0149410D01*
X0085885Y0149465D01*
X0085856Y0149517D01*
X0085823Y0149568D01*
X0085787Y0149617D01*
X0085749Y0149663D01*
X0085707Y0149707D01*
X0085663Y0149749D01*
X0085617Y0149787D01*
X0085568Y0149823D01*
X0085517Y0149856D01*
X0085465Y0149885D01*
X0085410Y0149912D01*
X0085355Y0149935D01*
X0085298Y0149955D01*
X0085239Y0149971D01*
X0085180Y0149984D01*
X0085121Y0149993D01*
X0085060Y0149998D01*
X0085000Y0150000D01*
X0083500Y0150000D01*
X0083000Y0149500D01*
X0069000Y0149500D01*
X0068500Y0150000D01*
X0067000Y0150000D01*
X0066940Y0149998D01*
X0066879Y0149993D01*
X0066820Y0149984D01*
X0066761Y0149971D01*
X0066702Y0149955D01*
X0066645Y0149935D01*
X0066590Y0149912D01*
X0066535Y0149885D01*
X0066483Y0149856D01*
X0066432Y0149823D01*
X0066383Y0149787D01*
X0066337Y0149749D01*
X0066293Y0149707D01*
X0066251Y0149663D01*
X0066213Y0149617D01*
X0066177Y0149568D01*
X0066144Y0149517D01*
X0066115Y0149465D01*
X0066088Y0149410D01*
X0066065Y0149355D01*
X0066045Y0149298D01*
X0066029Y0149239D01*
X0066016Y0149180D01*
X0066007Y0149121D01*
X0066002Y0149060D01*
X0066000Y0149000D01*
X0066000Y0143000D01*
X0066002Y0142940D01*
X0066007Y0142879D01*
X0066016Y0142820D01*
X0066029Y0142761D01*
X0066045Y0142702D01*
X0066065Y0142645D01*
X0066088Y0142590D01*
X0066115Y0142535D01*
X0066144Y0142483D01*
X0066177Y0142432D01*
X0066213Y0142383D01*
X0066251Y0142337D01*
X0066293Y0142293D01*
X0066337Y0142251D01*
X0066383Y0142213D01*
X0066432Y0142177D01*
X0066483Y0142144D01*
X0066535Y0142115D01*
X0066590Y0142088D01*
X0066645Y0142065D01*
X0066702Y0142045D01*
X0066761Y0142029D01*
X0066820Y0142016D01*
X0066879Y0142007D01*
X0066940Y0142002D01*
X0067000Y0142000D01*
X0067000Y0152000D02*
X0068500Y0152000D01*
X0069000Y0152500D01*
X0083000Y0152500D01*
X0083500Y0152000D01*
X0085000Y0152000D01*
X0085060Y0152002D01*
X0085121Y0152007D01*
X0085180Y0152016D01*
X0085239Y0152029D01*
X0085298Y0152045D01*
X0085355Y0152065D01*
X0085410Y0152088D01*
X0085465Y0152115D01*
X0085517Y0152144D01*
X0085568Y0152177D01*
X0085617Y0152213D01*
X0085663Y0152251D01*
X0085707Y0152293D01*
X0085749Y0152337D01*
X0085787Y0152383D01*
X0085823Y0152432D01*
X0085856Y0152483D01*
X0085885Y0152535D01*
X0085912Y0152590D01*
X0085935Y0152645D01*
X0085955Y0152702D01*
X0085971Y0152761D01*
X0085984Y0152820D01*
X0085993Y0152879D01*
X0085998Y0152940D01*
X0086000Y0153000D01*
X0086000Y0159000D01*
X0085998Y0159060D01*
X0085993Y0159121D01*
X0085984Y0159180D01*
X0085971Y0159239D01*
X0085955Y0159298D01*
X0085935Y0159355D01*
X0085912Y0159410D01*
X0085885Y0159465D01*
X0085856Y0159517D01*
X0085823Y0159568D01*
X0085787Y0159617D01*
X0085749Y0159663D01*
X0085707Y0159707D01*
X0085663Y0159749D01*
X0085617Y0159787D01*
X0085568Y0159823D01*
X0085517Y0159856D01*
X0085465Y0159885D01*
X0085410Y0159912D01*
X0085355Y0159935D01*
X0085298Y0159955D01*
X0085239Y0159971D01*
X0085180Y0159984D01*
X0085121Y0159993D01*
X0085060Y0159998D01*
X0085000Y0160000D01*
X0083500Y0160000D01*
X0083000Y0159500D01*
X0069000Y0159500D01*
X0068500Y0160000D01*
X0067000Y0160000D01*
X0066940Y0159998D01*
X0066879Y0159993D01*
X0066820Y0159984D01*
X0066761Y0159971D01*
X0066702Y0159955D01*
X0066645Y0159935D01*
X0066590Y0159912D01*
X0066535Y0159885D01*
X0066483Y0159856D01*
X0066432Y0159823D01*
X0066383Y0159787D01*
X0066337Y0159749D01*
X0066293Y0159707D01*
X0066251Y0159663D01*
X0066213Y0159617D01*
X0066177Y0159568D01*
X0066144Y0159517D01*
X0066115Y0159465D01*
X0066088Y0159410D01*
X0066065Y0159355D01*
X0066045Y0159298D01*
X0066029Y0159239D01*
X0066016Y0159180D01*
X0066007Y0159121D01*
X0066002Y0159060D01*
X0066000Y0159000D01*
X0066000Y0153000D01*
X0066002Y0152940D01*
X0066007Y0152879D01*
X0066016Y0152820D01*
X0066029Y0152761D01*
X0066045Y0152702D01*
X0066065Y0152645D01*
X0066088Y0152590D01*
X0066115Y0152535D01*
X0066144Y0152483D01*
X0066177Y0152432D01*
X0066213Y0152383D01*
X0066251Y0152337D01*
X0066293Y0152293D01*
X0066337Y0152251D01*
X0066383Y0152213D01*
X0066432Y0152177D01*
X0066483Y0152144D01*
X0066535Y0152115D01*
X0066590Y0152088D01*
X0066645Y0152065D01*
X0066702Y0152045D01*
X0066761Y0152029D01*
X0066820Y0152016D01*
X0066879Y0152007D01*
X0066940Y0152002D01*
X0067000Y0152000D01*
X0073500Y0182000D02*
X0075000Y0182000D01*
X0075060Y0182002D01*
X0075121Y0182007D01*
X0075180Y0182016D01*
X0075239Y0182029D01*
X0075298Y0182045D01*
X0075355Y0182065D01*
X0075410Y0182088D01*
X0075465Y0182115D01*
X0075517Y0182144D01*
X0075568Y0182177D01*
X0075617Y0182213D01*
X0075663Y0182251D01*
X0075707Y0182293D01*
X0075749Y0182337D01*
X0075787Y0182383D01*
X0075823Y0182432D01*
X0075856Y0182483D01*
X0075885Y0182535D01*
X0075912Y0182590D01*
X0075935Y0182645D01*
X0075955Y0182702D01*
X0075971Y0182761D01*
X0075984Y0182820D01*
X0075993Y0182879D01*
X0075998Y0182940D01*
X0076000Y0183000D01*
X0076000Y0189000D01*
X0075998Y0189060D01*
X0075993Y0189121D01*
X0075984Y0189180D01*
X0075971Y0189239D01*
X0075955Y0189298D01*
X0075935Y0189355D01*
X0075912Y0189410D01*
X0075885Y0189465D01*
X0075856Y0189517D01*
X0075823Y0189568D01*
X0075787Y0189617D01*
X0075749Y0189663D01*
X0075707Y0189707D01*
X0075663Y0189749D01*
X0075617Y0189787D01*
X0075568Y0189823D01*
X0075517Y0189856D01*
X0075465Y0189885D01*
X0075410Y0189912D01*
X0075355Y0189935D01*
X0075298Y0189955D01*
X0075239Y0189971D01*
X0075180Y0189984D01*
X0075121Y0189993D01*
X0075060Y0189998D01*
X0075000Y0190000D01*
X0073500Y0190000D01*
X0073000Y0189500D01*
X0059000Y0189500D01*
X0058500Y0190000D01*
X0057000Y0190000D01*
X0056940Y0189998D01*
X0056879Y0189993D01*
X0056820Y0189984D01*
X0056761Y0189971D01*
X0056702Y0189955D01*
X0056645Y0189935D01*
X0056590Y0189912D01*
X0056535Y0189885D01*
X0056483Y0189856D01*
X0056432Y0189823D01*
X0056383Y0189787D01*
X0056337Y0189749D01*
X0056293Y0189707D01*
X0056251Y0189663D01*
X0056213Y0189617D01*
X0056177Y0189568D01*
X0056144Y0189517D01*
X0056115Y0189465D01*
X0056088Y0189410D01*
X0056065Y0189355D01*
X0056045Y0189298D01*
X0056029Y0189239D01*
X0056016Y0189180D01*
X0056007Y0189121D01*
X0056002Y0189060D01*
X0056000Y0189000D01*
X0056000Y0183000D01*
X0056002Y0182940D01*
X0056007Y0182879D01*
X0056016Y0182820D01*
X0056029Y0182761D01*
X0056045Y0182702D01*
X0056065Y0182645D01*
X0056088Y0182590D01*
X0056115Y0182535D01*
X0056144Y0182483D01*
X0056177Y0182432D01*
X0056213Y0182383D01*
X0056251Y0182337D01*
X0056293Y0182293D01*
X0056337Y0182251D01*
X0056383Y0182213D01*
X0056432Y0182177D01*
X0056483Y0182144D01*
X0056535Y0182115D01*
X0056590Y0182088D01*
X0056645Y0182065D01*
X0056702Y0182045D01*
X0056761Y0182029D01*
X0056820Y0182016D01*
X0056879Y0182007D01*
X0056940Y0182002D01*
X0057000Y0182000D01*
X0058500Y0182000D01*
X0059000Y0182500D01*
X0073000Y0182500D01*
X0073500Y0182000D01*
X0073500Y0192000D02*
X0075000Y0192000D01*
X0075060Y0192002D01*
X0075121Y0192007D01*
X0075180Y0192016D01*
X0075239Y0192029D01*
X0075298Y0192045D01*
X0075355Y0192065D01*
X0075410Y0192088D01*
X0075465Y0192115D01*
X0075517Y0192144D01*
X0075568Y0192177D01*
X0075617Y0192213D01*
X0075663Y0192251D01*
X0075707Y0192293D01*
X0075749Y0192337D01*
X0075787Y0192383D01*
X0075823Y0192432D01*
X0075856Y0192483D01*
X0075885Y0192535D01*
X0075912Y0192590D01*
X0075935Y0192645D01*
X0075955Y0192702D01*
X0075971Y0192761D01*
X0075984Y0192820D01*
X0075993Y0192879D01*
X0075998Y0192940D01*
X0076000Y0193000D01*
X0076000Y0199000D01*
X0075998Y0199060D01*
X0075993Y0199121D01*
X0075984Y0199180D01*
X0075971Y0199239D01*
X0075955Y0199298D01*
X0075935Y0199355D01*
X0075912Y0199410D01*
X0075885Y0199465D01*
X0075856Y0199517D01*
X0075823Y0199568D01*
X0075787Y0199617D01*
X0075749Y0199663D01*
X0075707Y0199707D01*
X0075663Y0199749D01*
X0075617Y0199787D01*
X0075568Y0199823D01*
X0075517Y0199856D01*
X0075465Y0199885D01*
X0075410Y0199912D01*
X0075355Y0199935D01*
X0075298Y0199955D01*
X0075239Y0199971D01*
X0075180Y0199984D01*
X0075121Y0199993D01*
X0075060Y0199998D01*
X0075000Y0200000D01*
X0073500Y0200000D01*
X0073000Y0199500D01*
X0059000Y0199500D01*
X0058500Y0200000D01*
X0057000Y0200000D01*
X0056940Y0199998D01*
X0056879Y0199993D01*
X0056820Y0199984D01*
X0056761Y0199971D01*
X0056702Y0199955D01*
X0056645Y0199935D01*
X0056590Y0199912D01*
X0056535Y0199885D01*
X0056483Y0199856D01*
X0056432Y0199823D01*
X0056383Y0199787D01*
X0056337Y0199749D01*
X0056293Y0199707D01*
X0056251Y0199663D01*
X0056213Y0199617D01*
X0056177Y0199568D01*
X0056144Y0199517D01*
X0056115Y0199465D01*
X0056088Y0199410D01*
X0056065Y0199355D01*
X0056045Y0199298D01*
X0056029Y0199239D01*
X0056016Y0199180D01*
X0056007Y0199121D01*
X0056002Y0199060D01*
X0056000Y0199000D01*
X0056000Y0193000D01*
X0056002Y0192940D01*
X0056007Y0192879D01*
X0056016Y0192820D01*
X0056029Y0192761D01*
X0056045Y0192702D01*
X0056065Y0192645D01*
X0056088Y0192590D01*
X0056115Y0192535D01*
X0056144Y0192483D01*
X0056177Y0192432D01*
X0056213Y0192383D01*
X0056251Y0192337D01*
X0056293Y0192293D01*
X0056337Y0192251D01*
X0056383Y0192213D01*
X0056432Y0192177D01*
X0056483Y0192144D01*
X0056535Y0192115D01*
X0056590Y0192088D01*
X0056645Y0192065D01*
X0056702Y0192045D01*
X0056761Y0192029D01*
X0056820Y0192016D01*
X0056879Y0192007D01*
X0056940Y0192002D01*
X0057000Y0192000D01*
X0058500Y0192000D01*
X0059000Y0192500D01*
X0073000Y0192500D01*
X0073500Y0192000D01*
X0073500Y0206000D02*
X0071000Y0208500D01*
X0068500Y0206000D01*
X0063500Y0206000D01*
X0061000Y0208500D01*
X0058500Y0206000D01*
X0053500Y0206000D01*
X0051000Y0208500D01*
X0048500Y0206000D01*
X0043500Y0206000D01*
X0041000Y0208500D01*
X0038500Y0206000D01*
X0033500Y0206000D01*
X0031000Y0208500D01*
X0028500Y0206000D01*
X0023500Y0206000D01*
X0021000Y0208500D01*
X0018500Y0206000D01*
X0013500Y0206000D01*
X0011000Y0208500D01*
X0011000Y0213500D01*
X0013500Y0216000D01*
X0018500Y0216000D01*
X0021000Y0213500D01*
X0023500Y0216000D01*
X0028500Y0216000D01*
X0031000Y0213500D01*
X0033500Y0216000D01*
X0038500Y0216000D01*
X0041000Y0213500D01*
X0043500Y0216000D01*
X0048500Y0216000D01*
X0051000Y0213500D01*
X0053500Y0216000D01*
X0058500Y0216000D01*
X0061000Y0213500D01*
X0063500Y0216000D01*
X0068500Y0216000D01*
X0071000Y0213500D01*
X0073500Y0216000D01*
X0078500Y0216000D01*
X0081000Y0213500D01*
X0083500Y0216000D01*
X0088500Y0216000D01*
X0091000Y0213500D01*
X0091000Y0208500D01*
X0088500Y0206000D01*
X0083500Y0206000D01*
X0081000Y0208500D01*
X0078500Y0206000D01*
X0073500Y0206000D01*
X0096000Y0203500D02*
X0096000Y0198500D01*
X0098500Y0196000D01*
X0103500Y0196000D01*
X0106000Y0198500D01*
X0108500Y0196000D01*
X0113500Y0196000D01*
X0116000Y0198500D01*
X0118500Y0196000D01*
X0123500Y0196000D01*
X0126000Y0198500D01*
X0128500Y0196000D01*
X0133500Y0196000D01*
X0136000Y0198500D01*
X0136000Y0203500D01*
X0133500Y0206000D01*
X0128500Y0206000D01*
X0126000Y0203500D01*
X0123500Y0206000D01*
X0118500Y0206000D01*
X0116000Y0203500D01*
X0113500Y0206000D01*
X0108500Y0206000D01*
X0106000Y0203500D01*
X0103500Y0206000D01*
X0098500Y0206000D01*
X0096000Y0203500D01*
X0108500Y0166000D02*
X0106000Y0163500D01*
X0106000Y0158500D01*
X0108500Y0156000D01*
X0106000Y0153500D01*
X0106000Y0148500D01*
X0108500Y0146000D01*
X0106000Y0143500D01*
X0106000Y0138500D01*
X0108500Y0136000D01*
X0106000Y0133500D01*
X0106000Y0128500D01*
X0108500Y0126000D01*
X0106000Y0123500D01*
X0106000Y0118500D01*
X0108500Y0116000D01*
X0106000Y0113500D01*
X0106000Y0108500D01*
X0108500Y0106000D01*
X0106000Y0103500D01*
X0106000Y0098500D01*
X0108500Y0096000D01*
X0106000Y0093500D01*
X0106000Y0088500D01*
X0108500Y0086000D01*
X0113500Y0086000D01*
X0116000Y0083500D01*
X0116000Y0078500D01*
X0113500Y0076000D01*
X0116000Y0073500D01*
X0116000Y0068500D01*
X0113500Y0066000D01*
X0116000Y0063500D01*
X0116000Y0058500D01*
X0113500Y0056000D01*
X0116000Y0053500D01*
X0116000Y0048500D01*
X0113500Y0046000D01*
X0116000Y0043500D01*
X0116000Y0038500D01*
X0113500Y0036000D01*
X0116000Y0033500D01*
X0116000Y0028500D01*
X0113500Y0026000D01*
X0116000Y0023500D01*
X0116000Y0018500D01*
X0113500Y0016000D01*
X0116000Y0013500D01*
X0116000Y0008500D01*
X0113500Y0006000D01*
X0108500Y0006000D01*
X0106000Y0008500D01*
X0106000Y0013500D01*
X0108500Y0016000D01*
X0106000Y0018500D01*
X0106000Y0023500D01*
X0108500Y0026000D01*
X0106000Y0028500D01*
X0106000Y0033500D01*
X0108500Y0036000D01*
X0106000Y0038500D01*
X0106000Y0043500D01*
X0108500Y0046000D01*
X0106000Y0048500D01*
X0106000Y0053500D01*
X0108500Y0056000D01*
X0106000Y0058500D01*
X0106000Y0063500D01*
X0108500Y0066000D01*
X0106000Y0068500D01*
X0106000Y0073500D01*
X0108500Y0076000D01*
X0106000Y0078500D01*
X0106000Y0083500D01*
X0108500Y0086000D01*
X0113500Y0086000D01*
X0116000Y0088500D01*
X0116000Y0093500D01*
X0113500Y0096000D01*
X0116000Y0098500D01*
X0116000Y0103500D01*
X0113500Y0106000D01*
X0116000Y0108500D01*
X0116000Y0113500D01*
X0113500Y0116000D01*
X0116000Y0118500D01*
X0116000Y0123500D01*
X0113500Y0126000D01*
X0116000Y0128500D01*
X0116000Y0133500D01*
X0113500Y0136000D01*
X0116000Y0138500D01*
X0116000Y0143500D01*
X0113500Y0146000D01*
X0116000Y0148500D01*
X0116000Y0153500D01*
X0113500Y0156000D01*
X0116000Y0158500D01*
X0116000Y0163500D01*
X0113500Y0166000D01*
X0108500Y0166000D01*
X0042500Y0151000D02*
X0042500Y0081000D01*
X0019500Y0081000D01*
X0019500Y0151000D01*
X0027000Y0151000D01*
X0027002Y0150874D01*
X0027008Y0150749D01*
X0027018Y0150624D01*
X0027032Y0150499D01*
X0027049Y0150374D01*
X0027071Y0150250D01*
X0027096Y0150127D01*
X0027126Y0150005D01*
X0027159Y0149884D01*
X0027196Y0149764D01*
X0027236Y0149645D01*
X0027281Y0149528D01*
X0027329Y0149411D01*
X0027381Y0149297D01*
X0027436Y0149184D01*
X0027495Y0149073D01*
X0027557Y0148964D01*
X0027623Y0148857D01*
X0027692Y0148752D01*
X0027764Y0148649D01*
X0027839Y0148548D01*
X0027918Y0148450D01*
X0028000Y0148355D01*
X0028084Y0148262D01*
X0028172Y0148172D01*
X0028262Y0148084D01*
X0028355Y0148000D01*
X0028450Y0147918D01*
X0028548Y0147839D01*
X0028649Y0147764D01*
X0028752Y0147692D01*
X0028857Y0147623D01*
X0028964Y0147557D01*
X0029073Y0147495D01*
X0029184Y0147436D01*
X0029297Y0147381D01*
X0029411Y0147329D01*
X0029528Y0147281D01*
X0029645Y0147236D01*
X0029764Y0147196D01*
X0029884Y0147159D01*
X0030005Y0147126D01*
X0030127Y0147096D01*
X0030250Y0147071D01*
X0030374Y0147049D01*
X0030499Y0147032D01*
X0030624Y0147018D01*
X0030749Y0147008D01*
X0030874Y0147002D01*
X0031000Y0147000D01*
X0031126Y0147002D01*
X0031251Y0147008D01*
X0031376Y0147018D01*
X0031501Y0147032D01*
X0031626Y0147049D01*
X0031750Y0147071D01*
X0031873Y0147096D01*
X0031995Y0147126D01*
X0032116Y0147159D01*
X0032236Y0147196D01*
X0032355Y0147236D01*
X0032472Y0147281D01*
X0032589Y0147329D01*
X0032703Y0147381D01*
X0032816Y0147436D01*
X0032927Y0147495D01*
X0033036Y0147557D01*
X0033143Y0147623D01*
X0033248Y0147692D01*
X0033351Y0147764D01*
X0033452Y0147839D01*
X0033550Y0147918D01*
X0033645Y0148000D01*
X0033738Y0148084D01*
X0033828Y0148172D01*
X0033916Y0148262D01*
X0034000Y0148355D01*
X0034082Y0148450D01*
X0034161Y0148548D01*
X0034236Y0148649D01*
X0034308Y0148752D01*
X0034377Y0148857D01*
X0034443Y0148964D01*
X0034505Y0149073D01*
X0034564Y0149184D01*
X0034619Y0149297D01*
X0034671Y0149411D01*
X0034719Y0149528D01*
X0034764Y0149645D01*
X0034804Y0149764D01*
X0034841Y0149884D01*
X0034874Y0150005D01*
X0034904Y0150127D01*
X0034929Y0150250D01*
X0034951Y0150374D01*
X0034968Y0150499D01*
X0034982Y0150624D01*
X0034992Y0150749D01*
X0034998Y0150874D01*
X0035000Y0151000D01*
X0042500Y0151000D01*
X0035000Y0182000D02*
X0033500Y0182000D01*
X0033000Y0182500D01*
X0019000Y0182500D01*
X0018500Y0182000D01*
X0017000Y0182000D01*
X0016940Y0182002D01*
X0016879Y0182007D01*
X0016820Y0182016D01*
X0016761Y0182029D01*
X0016702Y0182045D01*
X0016645Y0182065D01*
X0016590Y0182088D01*
X0016535Y0182115D01*
X0016483Y0182144D01*
X0016432Y0182177D01*
X0016383Y0182213D01*
X0016337Y0182251D01*
X0016293Y0182293D01*
X0016251Y0182337D01*
X0016213Y0182383D01*
X0016177Y0182432D01*
X0016144Y0182483D01*
X0016115Y0182535D01*
X0016088Y0182590D01*
X0016065Y0182645D01*
X0016045Y0182702D01*
X0016029Y0182761D01*
X0016016Y0182820D01*
X0016007Y0182879D01*
X0016002Y0182940D01*
X0016000Y0183000D01*
X0016000Y0189000D01*
X0016002Y0189060D01*
X0016007Y0189121D01*
X0016016Y0189180D01*
X0016029Y0189239D01*
X0016045Y0189298D01*
X0016065Y0189355D01*
X0016088Y0189410D01*
X0016115Y0189465D01*
X0016144Y0189517D01*
X0016177Y0189568D01*
X0016213Y0189617D01*
X0016251Y0189663D01*
X0016293Y0189707D01*
X0016337Y0189749D01*
X0016383Y0189787D01*
X0016432Y0189823D01*
X0016483Y0189856D01*
X0016535Y0189885D01*
X0016590Y0189912D01*
X0016645Y0189935D01*
X0016702Y0189955D01*
X0016761Y0189971D01*
X0016820Y0189984D01*
X0016879Y0189993D01*
X0016940Y0189998D01*
X0017000Y0190000D01*
X0018500Y0190000D01*
X0019000Y0189500D01*
X0033000Y0189500D01*
X0033500Y0190000D01*
X0035000Y0190000D01*
X0035060Y0189998D01*
X0035121Y0189993D01*
X0035180Y0189984D01*
X0035239Y0189971D01*
X0035298Y0189955D01*
X0035355Y0189935D01*
X0035410Y0189912D01*
X0035465Y0189885D01*
X0035517Y0189856D01*
X0035568Y0189823D01*
X0035617Y0189787D01*
X0035663Y0189749D01*
X0035707Y0189707D01*
X0035749Y0189663D01*
X0035787Y0189617D01*
X0035823Y0189568D01*
X0035856Y0189517D01*
X0035885Y0189465D01*
X0035912Y0189410D01*
X0035935Y0189355D01*
X0035955Y0189298D01*
X0035971Y0189239D01*
X0035984Y0189180D01*
X0035993Y0189121D01*
X0035998Y0189060D01*
X0036000Y0189000D01*
X0036000Y0183000D01*
X0035998Y0182940D01*
X0035993Y0182879D01*
X0035984Y0182820D01*
X0035971Y0182761D01*
X0035955Y0182702D01*
X0035935Y0182645D01*
X0035912Y0182590D01*
X0035885Y0182535D01*
X0035856Y0182483D01*
X0035823Y0182432D01*
X0035787Y0182383D01*
X0035749Y0182337D01*
X0035707Y0182293D01*
X0035663Y0182251D01*
X0035617Y0182213D01*
X0035568Y0182177D01*
X0035517Y0182144D01*
X0035465Y0182115D01*
X0035410Y0182088D01*
X0035355Y0182065D01*
X0035298Y0182045D01*
X0035239Y0182029D01*
X0035180Y0182016D01*
X0035121Y0182007D01*
X0035060Y0182002D01*
X0035000Y0182000D01*
X0035000Y0192000D02*
X0033500Y0192000D01*
X0033000Y0192500D01*
X0019000Y0192500D01*
X0018500Y0192000D01*
X0017000Y0192000D01*
X0016940Y0192002D01*
X0016879Y0192007D01*
X0016820Y0192016D01*
X0016761Y0192029D01*
X0016702Y0192045D01*
X0016645Y0192065D01*
X0016590Y0192088D01*
X0016535Y0192115D01*
X0016483Y0192144D01*
X0016432Y0192177D01*
X0016383Y0192213D01*
X0016337Y0192251D01*
X0016293Y0192293D01*
X0016251Y0192337D01*
X0016213Y0192383D01*
X0016177Y0192432D01*
X0016144Y0192483D01*
X0016115Y0192535D01*
X0016088Y0192590D01*
X0016065Y0192645D01*
X0016045Y0192702D01*
X0016029Y0192761D01*
X0016016Y0192820D01*
X0016007Y0192879D01*
X0016002Y0192940D01*
X0016000Y0193000D01*
X0016000Y0199000D01*
X0016002Y0199060D01*
X0016007Y0199121D01*
X0016016Y0199180D01*
X0016029Y0199239D01*
X0016045Y0199298D01*
X0016065Y0199355D01*
X0016088Y0199410D01*
X0016115Y0199465D01*
X0016144Y0199517D01*
X0016177Y0199568D01*
X0016213Y0199617D01*
X0016251Y0199663D01*
X0016293Y0199707D01*
X0016337Y0199749D01*
X0016383Y0199787D01*
X0016432Y0199823D01*
X0016483Y0199856D01*
X0016535Y0199885D01*
X0016590Y0199912D01*
X0016645Y0199935D01*
X0016702Y0199955D01*
X0016761Y0199971D01*
X0016820Y0199984D01*
X0016879Y0199993D01*
X0016940Y0199998D01*
X0017000Y0200000D01*
X0018500Y0200000D01*
X0019000Y0199500D01*
X0033000Y0199500D01*
X0033500Y0200000D01*
X0035000Y0200000D01*
X0035060Y0199998D01*
X0035121Y0199993D01*
X0035180Y0199984D01*
X0035239Y0199971D01*
X0035298Y0199955D01*
X0035355Y0199935D01*
X0035410Y0199912D01*
X0035465Y0199885D01*
X0035517Y0199856D01*
X0035568Y0199823D01*
X0035617Y0199787D01*
X0035663Y0199749D01*
X0035707Y0199707D01*
X0035749Y0199663D01*
X0035787Y0199617D01*
X0035823Y0199568D01*
X0035856Y0199517D01*
X0035885Y0199465D01*
X0035912Y0199410D01*
X0035935Y0199355D01*
X0035955Y0199298D01*
X0035971Y0199239D01*
X0035984Y0199180D01*
X0035993Y0199121D01*
X0035998Y0199060D01*
X0036000Y0199000D01*
X0036000Y0193000D01*
X0035998Y0192940D01*
X0035993Y0192879D01*
X0035984Y0192820D01*
X0035971Y0192761D01*
X0035955Y0192702D01*
X0035935Y0192645D01*
X0035912Y0192590D01*
X0035885Y0192535D01*
X0035856Y0192483D01*
X0035823Y0192432D01*
X0035787Y0192383D01*
X0035749Y0192337D01*
X0035707Y0192293D01*
X0035663Y0192251D01*
X0035617Y0192213D01*
X0035568Y0192177D01*
X0035517Y0192144D01*
X0035465Y0192115D01*
X0035410Y0192088D01*
X0035355Y0192065D01*
X0035298Y0192045D01*
X0035239Y0192029D01*
X0035180Y0192016D01*
X0035121Y0192007D01*
X0035060Y0192002D01*
X0035000Y0192000D01*
D13*
X0042001Y0185254D02*
X0041250Y0184503D01*
X0041250Y0181501D01*
X0042001Y0180750D01*
X0043502Y0180750D01*
X0044253Y0181501D01*
X0044253Y0184503D01*
X0043502Y0185254D01*
X0042001Y0185254D01*
X0042751Y0182251D02*
X0044253Y0180750D01*
X0045854Y0181501D02*
X0046605Y0180750D01*
X0048106Y0180750D01*
X0048856Y0181501D01*
X0048856Y0182251D01*
X0048106Y0183002D01*
X0047355Y0183002D01*
X0048106Y0183002D02*
X0048856Y0183753D01*
X0048856Y0184503D01*
X0048106Y0185254D01*
X0046605Y0185254D01*
X0045854Y0184503D01*
X0041498Y0164028D02*
X0041602Y0163813D01*
X0041711Y0163600D01*
X0041825Y0163390D01*
X0041944Y0163183D01*
X0042067Y0162978D01*
X0042195Y0162776D01*
X0042328Y0162577D01*
X0042465Y0162382D01*
X0042606Y0162189D01*
X0042752Y0162000D01*
X0059248Y0162000D01*
X0056528Y0168000D02*
X0055472Y0168000D01*
X0060546Y0164122D02*
X0060439Y0163897D01*
X0060327Y0163674D01*
X0060210Y0163454D01*
X0060088Y0163237D01*
X0059960Y0163022D01*
X0059827Y0162811D01*
X0059690Y0162603D01*
X0059547Y0162399D01*
X0059400Y0162197D01*
X0059248Y0162000D01*
X0060500Y0172972D02*
X0060388Y0173202D01*
X0060271Y0173429D01*
X0060149Y0173653D01*
X0060021Y0173874D01*
X0059887Y0174091D01*
X0059749Y0174306D01*
X0059605Y0174517D01*
X0059456Y0174724D01*
X0059302Y0174928D01*
X0059144Y0175128D01*
X0058980Y0175324D01*
X0058812Y0175516D01*
X0058639Y0175704D01*
X0058461Y0175888D01*
X0058280Y0176067D01*
X0058093Y0176242D01*
X0057903Y0176412D01*
X0057709Y0176577D01*
X0057510Y0176738D01*
X0057308Y0176894D01*
X0057102Y0177045D01*
X0056892Y0177191D01*
X0056679Y0177331D01*
X0056463Y0177467D01*
X0056243Y0177597D01*
X0056020Y0177722D01*
X0055795Y0177841D01*
X0055566Y0177955D01*
X0055335Y0178063D01*
X0055101Y0178166D01*
X0054865Y0178263D01*
X0054626Y0178354D01*
X0054386Y0178439D01*
X0054143Y0178519D01*
X0053898Y0178592D01*
X0053652Y0178660D01*
X0053404Y0178721D01*
X0053155Y0178776D01*
X0052905Y0178826D01*
X0052653Y0178869D01*
X0052400Y0178906D01*
X0052147Y0178937D01*
X0051893Y0178962D01*
X0051638Y0178981D01*
X0051383Y0178993D01*
X0051128Y0178999D01*
X0050872Y0178999D01*
X0050617Y0178993D01*
X0050362Y0178981D01*
X0050107Y0178962D01*
X0049853Y0178937D01*
X0049600Y0178906D01*
X0049347Y0178869D01*
X0049095Y0178826D01*
X0048845Y0178776D01*
X0048596Y0178721D01*
X0048348Y0178660D01*
X0048102Y0178592D01*
X0047857Y0178519D01*
X0047614Y0178439D01*
X0047374Y0178354D01*
X0047135Y0178263D01*
X0046899Y0178166D01*
X0046665Y0178063D01*
X0046434Y0177955D01*
X0046205Y0177841D01*
X0045980Y0177722D01*
X0045757Y0177597D01*
X0045537Y0177467D01*
X0045321Y0177331D01*
X0045108Y0177191D01*
X0044898Y0177045D01*
X0044692Y0176894D01*
X0044490Y0176738D01*
X0044291Y0176577D01*
X0044097Y0176412D01*
X0043907Y0176242D01*
X0043720Y0176067D01*
X0043539Y0175888D01*
X0043361Y0175704D01*
X0043188Y0175516D01*
X0043020Y0175324D01*
X0042856Y0175128D01*
X0042698Y0174928D01*
X0042544Y0174724D01*
X0042395Y0174517D01*
X0042251Y0174306D01*
X0042113Y0174091D01*
X0041979Y0173874D01*
X0041851Y0173653D01*
X0041729Y0173429D01*
X0041612Y0173202D01*
X0041500Y0172972D01*
X0045472Y0168000D02*
X0046528Y0168000D01*
X0029248Y0159500D02*
X0012752Y0159500D01*
X0015472Y0165500D02*
X0016528Y0165500D01*
X0011498Y0161528D02*
X0011602Y0161313D01*
X0011711Y0161100D01*
X0011825Y0160890D01*
X0011944Y0160683D01*
X0012067Y0160478D01*
X0012195Y0160276D01*
X0012328Y0160077D01*
X0012465Y0159882D01*
X0012606Y0159689D01*
X0012752Y0159500D01*
X0019250Y0157254D02*
X0020751Y0157254D01*
X0020001Y0157254D02*
X0020001Y0152750D01*
X0020751Y0152750D02*
X0019250Y0152750D01*
X0022319Y0153501D02*
X0022319Y0156503D01*
X0023070Y0157254D01*
X0024571Y0157254D01*
X0025322Y0156503D01*
X0026923Y0156503D02*
X0027674Y0157254D01*
X0029175Y0157254D01*
X0029926Y0156503D01*
X0029926Y0155753D01*
X0026923Y0152750D01*
X0029926Y0152750D01*
X0025322Y0153501D02*
X0024571Y0152750D01*
X0023070Y0152750D01*
X0022319Y0153501D01*
X0025472Y0165500D02*
X0026528Y0165500D01*
X0030546Y0161622D02*
X0030439Y0161397D01*
X0030327Y0161174D01*
X0030210Y0160954D01*
X0030088Y0160737D01*
X0029960Y0160522D01*
X0029827Y0160311D01*
X0029690Y0160103D01*
X0029547Y0159899D01*
X0029400Y0159697D01*
X0029248Y0159500D01*
X0030500Y0170472D02*
X0030388Y0170702D01*
X0030271Y0170929D01*
X0030149Y0171153D01*
X0030021Y0171374D01*
X0029887Y0171591D01*
X0029749Y0171806D01*
X0029605Y0172017D01*
X0029456Y0172224D01*
X0029302Y0172428D01*
X0029144Y0172628D01*
X0028980Y0172824D01*
X0028812Y0173016D01*
X0028639Y0173204D01*
X0028461Y0173388D01*
X0028280Y0173567D01*
X0028093Y0173742D01*
X0027903Y0173912D01*
X0027709Y0174077D01*
X0027510Y0174238D01*
X0027308Y0174394D01*
X0027102Y0174545D01*
X0026892Y0174691D01*
X0026679Y0174831D01*
X0026463Y0174967D01*
X0026243Y0175097D01*
X0026020Y0175222D01*
X0025795Y0175341D01*
X0025566Y0175455D01*
X0025335Y0175563D01*
X0025101Y0175666D01*
X0024865Y0175763D01*
X0024626Y0175854D01*
X0024386Y0175939D01*
X0024143Y0176019D01*
X0023898Y0176092D01*
X0023652Y0176160D01*
X0023404Y0176221D01*
X0023155Y0176276D01*
X0022905Y0176326D01*
X0022653Y0176369D01*
X0022400Y0176406D01*
X0022147Y0176437D01*
X0021893Y0176462D01*
X0021638Y0176481D01*
X0021383Y0176493D01*
X0021128Y0176499D01*
X0020872Y0176499D01*
X0020617Y0176493D01*
X0020362Y0176481D01*
X0020107Y0176462D01*
X0019853Y0176437D01*
X0019600Y0176406D01*
X0019347Y0176369D01*
X0019095Y0176326D01*
X0018845Y0176276D01*
X0018596Y0176221D01*
X0018348Y0176160D01*
X0018102Y0176092D01*
X0017857Y0176019D01*
X0017614Y0175939D01*
X0017374Y0175854D01*
X0017135Y0175763D01*
X0016899Y0175666D01*
X0016665Y0175563D01*
X0016434Y0175455D01*
X0016205Y0175341D01*
X0015980Y0175222D01*
X0015757Y0175097D01*
X0015537Y0174967D01*
X0015321Y0174831D01*
X0015108Y0174691D01*
X0014898Y0174545D01*
X0014692Y0174394D01*
X0014490Y0174238D01*
X0014291Y0174077D01*
X0014097Y0173912D01*
X0013907Y0173742D01*
X0013720Y0173567D01*
X0013539Y0173388D01*
X0013361Y0173204D01*
X0013188Y0173016D01*
X0013020Y0172824D01*
X0012856Y0172628D01*
X0012698Y0172428D01*
X0012544Y0172224D01*
X0012395Y0172017D01*
X0012251Y0171806D01*
X0012113Y0171591D01*
X0011979Y0171374D01*
X0011851Y0171153D01*
X0011729Y0170929D01*
X0011612Y0170702D01*
X0011500Y0170472D01*
X0012001Y0178250D02*
X0011250Y0179001D01*
X0011250Y0182003D01*
X0012001Y0182754D01*
X0013502Y0182754D01*
X0014253Y0182003D01*
X0014253Y0179001D01*
X0013502Y0178250D01*
X0012001Y0178250D01*
X0012751Y0179751D02*
X0014253Y0178250D01*
X0015854Y0180502D02*
X0018856Y0180502D01*
X0018106Y0178250D02*
X0018106Y0182754D01*
X0015854Y0180502D01*
X0016398Y0199750D02*
X0014897Y0199750D01*
X0014146Y0200501D01*
X0014146Y0201251D01*
X0014897Y0202002D01*
X0016398Y0202002D01*
X0017149Y0201251D01*
X0017149Y0200501D01*
X0016398Y0199750D01*
X0016398Y0202002D02*
X0017149Y0202753D01*
X0017149Y0203503D01*
X0016398Y0204254D01*
X0014897Y0204254D01*
X0014146Y0203503D01*
X0014146Y0202753D01*
X0014897Y0202002D01*
X0028746Y0126149D02*
X0033250Y0126149D01*
X0028746Y0123146D01*
X0033250Y0123146D01*
X0032499Y0121545D02*
X0029497Y0121545D01*
X0028746Y0120794D01*
X0028746Y0119293D01*
X0029497Y0118542D01*
X0030247Y0118542D01*
X0030998Y0119293D01*
X0030998Y0121545D01*
X0032499Y0121545D02*
X0033250Y0120794D01*
X0033250Y0119293D01*
X0032499Y0118542D01*
X0032499Y0116941D02*
X0033250Y0116190D01*
X0033250Y0114689D01*
X0032499Y0113938D01*
X0032499Y0112337D02*
X0033250Y0111586D01*
X0033250Y0110085D01*
X0032499Y0109334D01*
X0033250Y0107733D02*
X0028746Y0107733D01*
X0030247Y0106232D01*
X0028746Y0104730D01*
X0033250Y0104730D01*
X0033250Y0103129D02*
X0033250Y0100126D01*
X0028746Y0100126D01*
X0029497Y0109334D02*
X0028746Y0110085D01*
X0028746Y0111586D01*
X0029497Y0112337D01*
X0030247Y0112337D01*
X0030998Y0111586D01*
X0031749Y0112337D01*
X0032499Y0112337D01*
X0030998Y0111586D02*
X0030998Y0110836D01*
X0029497Y0113938D02*
X0028746Y0114689D01*
X0028746Y0116190D01*
X0029497Y0116941D01*
X0030247Y0116941D01*
X0030998Y0116190D01*
X0031749Y0116941D01*
X0032499Y0116941D01*
X0030998Y0116190D02*
X0030998Y0115439D01*
X0028424Y0082254D02*
X0028424Y0077750D01*
X0026923Y0077750D02*
X0029926Y0077750D01*
X0026923Y0080753D02*
X0028424Y0082254D01*
X0025322Y0081503D02*
X0024571Y0082254D01*
X0023070Y0082254D01*
X0022319Y0081503D01*
X0022319Y0078501D01*
X0023070Y0077750D01*
X0024571Y0077750D01*
X0025322Y0078501D01*
X0020751Y0077750D02*
X0019250Y0077750D01*
X0020001Y0077750D02*
X0020001Y0082254D01*
X0020751Y0082254D02*
X0019250Y0082254D01*
X0028746Y0056149D02*
X0033250Y0056149D01*
X0028746Y0053146D01*
X0033250Y0053146D01*
X0033250Y0050794D02*
X0028746Y0050794D01*
X0030998Y0048542D01*
X0030998Y0051545D01*
X0030247Y0046941D02*
X0029497Y0046941D01*
X0028746Y0046190D01*
X0028746Y0044689D01*
X0029497Y0043938D01*
X0029497Y0042337D02*
X0030247Y0042337D01*
X0030998Y0041586D01*
X0031749Y0042337D01*
X0032499Y0042337D01*
X0033250Y0041586D01*
X0033250Y0040085D01*
X0032499Y0039334D01*
X0033250Y0037733D02*
X0028746Y0037733D01*
X0030247Y0036232D01*
X0028746Y0034730D01*
X0033250Y0034730D01*
X0033250Y0033129D02*
X0033250Y0030126D01*
X0028746Y0030126D01*
X0029497Y0039334D02*
X0028746Y0040085D01*
X0028746Y0041586D01*
X0029497Y0042337D01*
X0030998Y0041586D02*
X0030998Y0040836D01*
X0033250Y0043938D02*
X0030247Y0046941D01*
X0033250Y0046941D02*
X0033250Y0043938D01*
X0099746Y0017710D02*
X0099746Y0016208D01*
X0100497Y0015458D01*
X0099746Y0013856D02*
X0102749Y0013856D01*
X0104250Y0012355D01*
X0102749Y0010854D01*
X0099746Y0010854D01*
X0100497Y0009253D02*
X0099746Y0008502D01*
X0099746Y0007001D01*
X0100497Y0006250D01*
X0101247Y0006250D01*
X0101998Y0007001D01*
X0101998Y0008502D01*
X0102749Y0009253D01*
X0103499Y0009253D01*
X0104250Y0008502D01*
X0104250Y0007001D01*
X0103499Y0006250D01*
X0104250Y0015458D02*
X0101247Y0018460D01*
X0100497Y0018460D01*
X0099746Y0017710D01*
X0104250Y0018460D02*
X0104250Y0015458D01*
X0117746Y0010751D02*
X0122250Y0010751D01*
X0122250Y0009250D02*
X0122250Y0012253D01*
X0119247Y0009250D02*
X0117746Y0010751D01*
X0103499Y0078750D02*
X0102749Y0078750D01*
X0101998Y0079501D01*
X0101998Y0081002D01*
X0102749Y0081753D01*
X0103499Y0081753D01*
X0104250Y0081002D01*
X0104250Y0079501D01*
X0103499Y0078750D01*
X0101998Y0079501D02*
X0101247Y0078750D01*
X0100497Y0078750D01*
X0099746Y0079501D01*
X0099746Y0081002D01*
X0100497Y0081753D01*
X0101247Y0081753D01*
X0101998Y0081002D01*
X0117746Y0089897D02*
X0117746Y0091398D01*
X0118497Y0092149D01*
X0119247Y0092149D01*
X0119998Y0091398D01*
X0119998Y0089897D01*
X0119247Y0089146D01*
X0118497Y0089146D01*
X0117746Y0089897D01*
X0119998Y0089897D02*
X0120749Y0089146D01*
X0121499Y0089146D01*
X0122250Y0089897D01*
X0122250Y0091398D01*
X0121499Y0092149D01*
X0120749Y0092149D01*
X0119998Y0091398D01*
X0104250Y0158646D02*
X0104250Y0161649D01*
X0104250Y0160147D02*
X0099746Y0160147D01*
X0101247Y0158646D01*
X0097752Y0174500D02*
X0114248Y0174500D01*
X0111528Y0180500D02*
X0110472Y0180500D01*
X0115546Y0176622D02*
X0115439Y0176397D01*
X0115327Y0176174D01*
X0115210Y0175954D01*
X0115088Y0175737D01*
X0114960Y0175522D01*
X0114827Y0175311D01*
X0114690Y0175103D01*
X0114547Y0174899D01*
X0114400Y0174697D01*
X0114248Y0174500D01*
X0115500Y0185472D02*
X0115388Y0185702D01*
X0115271Y0185929D01*
X0115149Y0186153D01*
X0115021Y0186374D01*
X0114887Y0186591D01*
X0114749Y0186806D01*
X0114605Y0187017D01*
X0114456Y0187224D01*
X0114302Y0187428D01*
X0114144Y0187628D01*
X0113980Y0187824D01*
X0113812Y0188016D01*
X0113639Y0188204D01*
X0113461Y0188388D01*
X0113280Y0188567D01*
X0113093Y0188742D01*
X0112903Y0188912D01*
X0112709Y0189077D01*
X0112510Y0189238D01*
X0112308Y0189394D01*
X0112102Y0189545D01*
X0111892Y0189691D01*
X0111679Y0189831D01*
X0111463Y0189967D01*
X0111243Y0190097D01*
X0111020Y0190222D01*
X0110795Y0190341D01*
X0110566Y0190455D01*
X0110335Y0190563D01*
X0110101Y0190666D01*
X0109865Y0190763D01*
X0109626Y0190854D01*
X0109386Y0190939D01*
X0109143Y0191019D01*
X0108898Y0191092D01*
X0108652Y0191160D01*
X0108404Y0191221D01*
X0108155Y0191276D01*
X0107905Y0191326D01*
X0107653Y0191369D01*
X0107400Y0191406D01*
X0107147Y0191437D01*
X0106893Y0191462D01*
X0106638Y0191481D01*
X0106383Y0191493D01*
X0106128Y0191499D01*
X0105872Y0191499D01*
X0105617Y0191493D01*
X0105362Y0191481D01*
X0105107Y0191462D01*
X0104853Y0191437D01*
X0104600Y0191406D01*
X0104347Y0191369D01*
X0104095Y0191326D01*
X0103845Y0191276D01*
X0103596Y0191221D01*
X0103348Y0191160D01*
X0103102Y0191092D01*
X0102857Y0191019D01*
X0102614Y0190939D01*
X0102374Y0190854D01*
X0102135Y0190763D01*
X0101899Y0190666D01*
X0101665Y0190563D01*
X0101434Y0190455D01*
X0101205Y0190341D01*
X0100980Y0190222D01*
X0100757Y0190097D01*
X0100537Y0189967D01*
X0100321Y0189831D01*
X0100108Y0189691D01*
X0099898Y0189545D01*
X0099692Y0189394D01*
X0099490Y0189238D01*
X0099291Y0189077D01*
X0099097Y0188912D01*
X0098907Y0188742D01*
X0098720Y0188567D01*
X0098539Y0188388D01*
X0098361Y0188204D01*
X0098188Y0188016D01*
X0098020Y0187824D01*
X0097856Y0187628D01*
X0097698Y0187428D01*
X0097544Y0187224D01*
X0097395Y0187017D01*
X0097251Y0186806D01*
X0097113Y0186591D01*
X0096979Y0186374D01*
X0096851Y0186153D01*
X0096729Y0185929D01*
X0096612Y0185702D01*
X0096500Y0185472D01*
X0100472Y0180500D02*
X0101528Y0180500D01*
X0096498Y0176528D02*
X0096602Y0176313D01*
X0096711Y0176100D01*
X0096825Y0175890D01*
X0096944Y0175683D01*
X0097067Y0175478D01*
X0097195Y0175276D01*
X0097328Y0175077D01*
X0097465Y0174882D01*
X0097606Y0174689D01*
X0097752Y0174500D01*
X0089248Y0162000D02*
X0072752Y0162000D01*
X0075472Y0168000D02*
X0076528Y0168000D01*
X0071498Y0164028D02*
X0071602Y0163813D01*
X0071711Y0163600D01*
X0071825Y0163390D01*
X0071944Y0163183D01*
X0072067Y0162978D01*
X0072195Y0162776D01*
X0072328Y0162577D01*
X0072465Y0162382D01*
X0072606Y0162189D01*
X0072752Y0162000D01*
X0071500Y0172972D02*
X0071612Y0173202D01*
X0071729Y0173429D01*
X0071851Y0173653D01*
X0071979Y0173874D01*
X0072113Y0174091D01*
X0072251Y0174306D01*
X0072395Y0174517D01*
X0072544Y0174724D01*
X0072698Y0174928D01*
X0072856Y0175128D01*
X0073020Y0175324D01*
X0073188Y0175516D01*
X0073361Y0175704D01*
X0073539Y0175888D01*
X0073720Y0176067D01*
X0073907Y0176242D01*
X0074097Y0176412D01*
X0074291Y0176577D01*
X0074490Y0176738D01*
X0074692Y0176894D01*
X0074898Y0177045D01*
X0075108Y0177191D01*
X0075321Y0177331D01*
X0075537Y0177467D01*
X0075757Y0177597D01*
X0075980Y0177722D01*
X0076205Y0177841D01*
X0076434Y0177955D01*
X0076665Y0178063D01*
X0076899Y0178166D01*
X0077135Y0178263D01*
X0077374Y0178354D01*
X0077614Y0178439D01*
X0077857Y0178519D01*
X0078102Y0178592D01*
X0078348Y0178660D01*
X0078596Y0178721D01*
X0078845Y0178776D01*
X0079095Y0178826D01*
X0079347Y0178869D01*
X0079600Y0178906D01*
X0079853Y0178937D01*
X0080107Y0178962D01*
X0080362Y0178981D01*
X0080617Y0178993D01*
X0080872Y0178999D01*
X0081128Y0178999D01*
X0081383Y0178993D01*
X0081638Y0178981D01*
X0081893Y0178962D01*
X0082147Y0178937D01*
X0082400Y0178906D01*
X0082653Y0178869D01*
X0082905Y0178826D01*
X0083155Y0178776D01*
X0083404Y0178721D01*
X0083652Y0178660D01*
X0083898Y0178592D01*
X0084143Y0178519D01*
X0084386Y0178439D01*
X0084626Y0178354D01*
X0084865Y0178263D01*
X0085101Y0178166D01*
X0085335Y0178063D01*
X0085566Y0177955D01*
X0085795Y0177841D01*
X0086020Y0177722D01*
X0086243Y0177597D01*
X0086463Y0177467D01*
X0086679Y0177331D01*
X0086892Y0177191D01*
X0087102Y0177045D01*
X0087308Y0176894D01*
X0087510Y0176738D01*
X0087709Y0176577D01*
X0087903Y0176412D01*
X0088093Y0176242D01*
X0088280Y0176067D01*
X0088461Y0175888D01*
X0088639Y0175704D01*
X0088812Y0175516D01*
X0088980Y0175324D01*
X0089144Y0175128D01*
X0089302Y0174928D01*
X0089456Y0174724D01*
X0089605Y0174517D01*
X0089749Y0174306D01*
X0089887Y0174091D01*
X0090021Y0173874D01*
X0090149Y0173653D01*
X0090271Y0173429D01*
X0090388Y0173202D01*
X0090500Y0172972D01*
X0086528Y0168000D02*
X0085472Y0168000D01*
X0090546Y0164122D02*
X0090439Y0163897D01*
X0090327Y0163674D01*
X0090210Y0163454D01*
X0090088Y0163237D01*
X0089960Y0163022D01*
X0089827Y0162811D01*
X0089690Y0162603D01*
X0089547Y0162399D01*
X0089400Y0162197D01*
X0089248Y0162000D01*
X0078856Y0180750D02*
X0075854Y0180750D01*
X0078856Y0183753D01*
X0078856Y0184503D01*
X0078106Y0185254D01*
X0076605Y0185254D01*
X0075854Y0184503D01*
X0074253Y0184503D02*
X0074253Y0181501D01*
X0073502Y0180750D01*
X0072001Y0180750D01*
X0071250Y0181501D01*
X0071250Y0184503D01*
X0072001Y0185254D01*
X0073502Y0185254D01*
X0074253Y0184503D01*
X0072751Y0182251D02*
X0074253Y0180750D01*
X0090646Y0201002D02*
X0093649Y0201002D01*
X0092898Y0198750D02*
X0092898Y0203254D01*
X0090646Y0201002D01*
X0096250Y0197003D02*
X0096250Y0194001D01*
X0097001Y0193250D01*
X0098502Y0193250D01*
X0099253Y0194001D01*
X0099253Y0197003D01*
X0098502Y0197754D01*
X0097001Y0197754D01*
X0096250Y0197003D01*
X0097751Y0194751D02*
X0099253Y0193250D01*
X0100854Y0193250D02*
X0103856Y0193250D01*
X0102355Y0193250D02*
X0102355Y0197754D01*
X0100854Y0196253D01*
X0086649Y0217750D02*
X0083646Y0217750D01*
X0085147Y0217750D02*
X0085147Y0222254D01*
X0083646Y0220753D01*
X0122438Y0193503D02*
X0122438Y0192753D01*
X0123189Y0192002D01*
X0124690Y0192002D01*
X0125441Y0191251D01*
X0125441Y0190501D01*
X0124690Y0189750D01*
X0123189Y0189750D01*
X0122438Y0190501D01*
X0122438Y0193503D02*
X0123189Y0194254D01*
X0124690Y0194254D01*
X0125441Y0193503D01*
X0127042Y0194254D02*
X0127042Y0191251D01*
X0128543Y0189750D01*
X0130045Y0191251D01*
X0130045Y0194254D01*
X0131646Y0192002D02*
X0134649Y0192002D01*
X0133898Y0189750D02*
X0133898Y0194254D01*
X0131646Y0192002D01*
X0136146Y0198750D02*
X0139149Y0198750D01*
X0137647Y0198750D02*
X0137647Y0203254D01*
X0136146Y0201753D01*
D14*
X0078150Y0117803D02*
X0079317Y0116635D01*
X0079317Y0114300D01*
X0079317Y0116051D02*
X0076982Y0116051D01*
X0076982Y0116635D02*
X0078150Y0117803D01*
X0076982Y0116635D02*
X0076982Y0114300D01*
X0075726Y0114300D02*
X0074559Y0115468D01*
X0075143Y0115468D02*
X0073391Y0115468D01*
X0073391Y0114300D02*
X0073391Y0117803D01*
X0075143Y0117803D01*
X0075726Y0117219D01*
X0075726Y0116051D01*
X0075143Y0115468D01*
X0072126Y0114219D02*
X0072126Y0113635D01*
X0071543Y0113051D01*
X0072126Y0112468D01*
X0072126Y0111884D01*
X0071543Y0111300D01*
X0070375Y0111300D01*
X0069791Y0111884D01*
X0068535Y0111300D02*
X0067368Y0112468D01*
X0067951Y0112468D02*
X0066200Y0112468D01*
X0066200Y0111300D02*
X0066200Y0114803D01*
X0067951Y0114803D01*
X0068535Y0114219D01*
X0068535Y0113051D01*
X0067951Y0112468D01*
X0069791Y0114219D02*
X0070375Y0114803D01*
X0071543Y0114803D01*
X0072126Y0114219D01*
X0070968Y0114300D02*
X0070968Y0117803D01*
X0072135Y0117803D02*
X0069800Y0117803D01*
X0068535Y0121300D02*
X0067368Y0122468D01*
X0067951Y0122468D02*
X0066200Y0122468D01*
X0066200Y0121300D02*
X0066200Y0124803D01*
X0067951Y0124803D01*
X0068535Y0124219D01*
X0068535Y0123051D01*
X0067951Y0122468D01*
X0069791Y0123051D02*
X0072126Y0123051D01*
X0071551Y0124300D02*
X0072135Y0124884D01*
X0072135Y0125468D01*
X0071551Y0126051D01*
X0070968Y0126051D01*
X0071551Y0126051D02*
X0072135Y0126635D01*
X0072135Y0127219D01*
X0071551Y0127803D01*
X0070384Y0127803D01*
X0069800Y0127219D01*
X0069800Y0124884D02*
X0070384Y0124300D01*
X0071551Y0124300D01*
X0071543Y0124803D02*
X0069791Y0123051D01*
X0071543Y0121300D02*
X0071543Y0124803D01*
X0073391Y0124300D02*
X0073391Y0127803D01*
X0075143Y0126635D02*
X0073391Y0125468D01*
X0075143Y0124300D01*
X0076384Y0124300D02*
X0076967Y0124300D01*
X0076967Y0125468D01*
X0076384Y0126051D01*
X0076384Y0127219D01*
X0076967Y0127803D01*
X0078135Y0127803D01*
X0078719Y0127219D01*
X0078719Y0126051D01*
X0078135Y0125468D01*
X0078135Y0124300D01*
X0078719Y0124300D01*
X0078719Y0134300D02*
X0078135Y0134300D01*
X0078135Y0135468D01*
X0078719Y0136051D01*
X0078719Y0137219D01*
X0078135Y0137803D01*
X0076967Y0137803D01*
X0076384Y0137219D01*
X0076384Y0136051D01*
X0076967Y0135468D01*
X0076967Y0134300D01*
X0076384Y0134300D01*
X0075143Y0134300D02*
X0073391Y0135468D01*
X0075143Y0136635D01*
X0073391Y0137803D02*
X0073391Y0134300D01*
X0072126Y0134219D02*
X0072126Y0131884D01*
X0071543Y0131300D01*
X0070375Y0131300D01*
X0069791Y0131884D01*
X0070375Y0133051D02*
X0069791Y0133635D01*
X0069791Y0134219D01*
X0070375Y0134803D01*
X0071543Y0134803D01*
X0072126Y0134219D01*
X0071551Y0134300D02*
X0072135Y0134884D01*
X0072135Y0135468D01*
X0071551Y0136051D01*
X0070968Y0136051D01*
X0071551Y0136051D02*
X0072135Y0136635D01*
X0072135Y0137219D01*
X0071551Y0137803D01*
X0070384Y0137803D01*
X0069800Y0137219D01*
X0069800Y0134884D02*
X0070384Y0134300D01*
X0071551Y0134300D01*
X0072126Y0133051D02*
X0070375Y0133051D01*
X0068535Y0133051D02*
X0067951Y0132468D01*
X0066200Y0132468D01*
X0067368Y0132468D02*
X0068535Y0131300D01*
X0068535Y0133051D02*
X0068535Y0134219D01*
X0067951Y0134803D01*
X0066200Y0134803D01*
X0066200Y0131300D01*
X0066200Y0141300D02*
X0066200Y0144803D01*
X0067951Y0144803D01*
X0068535Y0144219D01*
X0068535Y0143051D01*
X0067951Y0142468D01*
X0066200Y0142468D01*
X0067368Y0142468D02*
X0068535Y0141300D01*
X0069791Y0141300D02*
X0072126Y0141300D01*
X0070959Y0141300D02*
X0070959Y0144803D01*
X0069791Y0143635D01*
X0070384Y0144300D02*
X0069800Y0144884D01*
X0070384Y0144300D02*
X0071551Y0144300D01*
X0072135Y0144884D01*
X0072135Y0145468D01*
X0071551Y0146051D01*
X0070968Y0146051D01*
X0071551Y0146051D02*
X0072135Y0146635D01*
X0072135Y0147219D01*
X0071551Y0147803D01*
X0070384Y0147803D01*
X0069800Y0147219D01*
X0069791Y0151300D02*
X0072126Y0151300D01*
X0070959Y0151300D02*
X0070959Y0154803D01*
X0069791Y0153635D01*
X0070384Y0154300D02*
X0069800Y0154884D01*
X0070384Y0154300D02*
X0071551Y0154300D01*
X0072135Y0154884D01*
X0072135Y0155468D01*
X0071551Y0156051D01*
X0070968Y0156051D01*
X0071551Y0156051D02*
X0072135Y0156635D01*
X0072135Y0157219D01*
X0071551Y0157803D01*
X0070384Y0157803D01*
X0069800Y0157219D01*
X0067951Y0154803D02*
X0068535Y0154219D01*
X0068535Y0153051D01*
X0067951Y0152468D01*
X0066200Y0152468D01*
X0067368Y0152468D02*
X0068535Y0151300D01*
X0066200Y0151300D02*
X0066200Y0154803D01*
X0067951Y0154803D01*
X0068535Y0161300D02*
X0067368Y0162468D01*
X0067951Y0162468D02*
X0066200Y0162468D01*
X0066200Y0161300D02*
X0066200Y0164803D01*
X0067951Y0164803D01*
X0068535Y0164219D01*
X0068535Y0163051D01*
X0067951Y0162468D01*
X0069791Y0163635D02*
X0070959Y0164803D01*
X0070959Y0161300D01*
X0072126Y0161300D02*
X0069791Y0161300D01*
X0073382Y0161300D02*
X0075717Y0163635D01*
X0075717Y0164219D01*
X0075134Y0164803D01*
X0073966Y0164803D01*
X0073382Y0164219D01*
X0073382Y0161300D02*
X0075717Y0161300D01*
X0076967Y0157803D02*
X0078135Y0157803D01*
X0078719Y0157219D01*
X0078719Y0156051D01*
X0078135Y0155468D01*
X0078135Y0154300D01*
X0078719Y0154300D01*
X0076967Y0154300D02*
X0076967Y0155468D01*
X0076384Y0156051D01*
X0076384Y0157219D01*
X0076967Y0157803D01*
X0075143Y0156635D02*
X0073391Y0155468D01*
X0075143Y0154300D01*
X0074550Y0154803D02*
X0074550Y0151300D01*
X0075717Y0151300D02*
X0073382Y0151300D01*
X0073382Y0153635D02*
X0074550Y0154803D01*
X0073391Y0154300D02*
X0073391Y0157803D01*
X0076384Y0154300D02*
X0076967Y0154300D01*
X0076967Y0147803D02*
X0078135Y0147803D01*
X0078719Y0147219D01*
X0078719Y0146051D01*
X0078135Y0145468D01*
X0078135Y0144300D01*
X0078719Y0144300D01*
X0076967Y0144300D02*
X0076967Y0145468D01*
X0076384Y0146051D01*
X0076384Y0147219D01*
X0076967Y0147803D01*
X0075143Y0146635D02*
X0073391Y0145468D01*
X0075143Y0144300D01*
X0075134Y0144803D02*
X0075717Y0144219D01*
X0073382Y0141884D01*
X0073966Y0141300D01*
X0075134Y0141300D01*
X0075717Y0141884D01*
X0075717Y0144219D01*
X0076384Y0144300D02*
X0076967Y0144300D01*
X0075134Y0144803D02*
X0073966Y0144803D01*
X0073382Y0144219D01*
X0073382Y0141884D01*
X0073391Y0144300D02*
X0073391Y0147803D01*
X0071543Y0113051D02*
X0070959Y0113051D01*
X0070968Y0107803D02*
X0070968Y0104300D01*
X0071543Y0104803D02*
X0070375Y0104803D01*
X0069791Y0104219D01*
X0068535Y0104219D02*
X0068535Y0103051D01*
X0067951Y0102468D01*
X0066200Y0102468D01*
X0067368Y0102468D02*
X0068535Y0101300D01*
X0069791Y0101300D02*
X0072126Y0103635D01*
X0072126Y0104219D01*
X0071543Y0104803D01*
X0072135Y0107803D02*
X0069800Y0107803D01*
X0067951Y0104803D02*
X0068535Y0104219D01*
X0067951Y0104803D02*
X0066200Y0104803D01*
X0066200Y0101300D01*
X0069791Y0101300D02*
X0072126Y0101300D01*
X0073391Y0104300D02*
X0073391Y0107803D01*
X0075143Y0107803D01*
X0075726Y0107219D01*
X0075726Y0106051D01*
X0075143Y0105468D01*
X0073391Y0105468D01*
X0074559Y0105468D02*
X0075726Y0104300D01*
X0076982Y0104300D02*
X0076982Y0106635D01*
X0078150Y0107803D01*
X0079317Y0106635D01*
X0079317Y0104300D01*
X0079317Y0106051D02*
X0076982Y0106051D01*
X0078150Y0097803D02*
X0076982Y0096635D01*
X0076982Y0094300D01*
X0075726Y0094300D02*
X0074559Y0095468D01*
X0075143Y0095468D02*
X0073391Y0095468D01*
X0073391Y0094300D02*
X0073391Y0097803D01*
X0075143Y0097803D01*
X0075726Y0097219D01*
X0075726Y0096051D01*
X0075143Y0095468D01*
X0076982Y0096051D02*
X0079317Y0096051D01*
X0079317Y0096635D02*
X0079317Y0094300D01*
X0079317Y0096635D02*
X0078150Y0097803D01*
X0072135Y0097803D02*
X0069800Y0097803D01*
X0070968Y0097803D02*
X0070968Y0094300D01*
X0070959Y0094803D02*
X0070959Y0091300D01*
X0072126Y0091300D02*
X0069791Y0091300D01*
X0068535Y0091300D02*
X0067368Y0092468D01*
X0067951Y0092468D02*
X0066200Y0092468D01*
X0066200Y0091300D02*
X0066200Y0094803D01*
X0067951Y0094803D01*
X0068535Y0094219D01*
X0068535Y0093051D01*
X0067951Y0092468D01*
X0069791Y0093635D02*
X0070959Y0094803D01*
X0070968Y0087803D02*
X0070968Y0084300D01*
X0070959Y0084803D02*
X0070959Y0081300D01*
X0072126Y0081300D02*
X0069791Y0081300D01*
X0068535Y0081300D02*
X0067368Y0082468D01*
X0067951Y0082468D02*
X0066200Y0082468D01*
X0066200Y0081300D02*
X0066200Y0084803D01*
X0067951Y0084803D01*
X0068535Y0084219D01*
X0068535Y0083051D01*
X0067951Y0082468D01*
X0069791Y0083635D02*
X0070959Y0084803D01*
X0069800Y0087803D02*
X0072135Y0087803D01*
X0073391Y0087803D02*
X0073391Y0084300D01*
X0074550Y0084219D02*
X0073382Y0083051D01*
X0075134Y0083051D01*
X0075717Y0082468D01*
X0075717Y0081884D01*
X0075134Y0081300D01*
X0073966Y0081300D01*
X0073382Y0081884D01*
X0073382Y0083051D01*
X0074550Y0084219D02*
X0075717Y0084803D01*
X0075726Y0084300D02*
X0074559Y0085468D01*
X0075143Y0085468D02*
X0073391Y0085468D01*
X0075143Y0085468D02*
X0075726Y0086051D01*
X0075726Y0087219D01*
X0075143Y0087803D01*
X0073391Y0087803D01*
X0076982Y0086635D02*
X0076982Y0084300D01*
X0076982Y0086051D02*
X0079317Y0086051D01*
X0079317Y0086635D02*
X0079317Y0084300D01*
X0079317Y0086635D02*
X0078150Y0087803D01*
X0076982Y0086635D01*
X0077566Y0077803D02*
X0076982Y0077219D01*
X0076982Y0076051D01*
X0077566Y0075468D01*
X0077566Y0074300D01*
X0076982Y0074300D01*
X0075717Y0074803D02*
X0073382Y0074803D01*
X0073382Y0073051D01*
X0074550Y0073635D01*
X0075134Y0073635D01*
X0075717Y0073051D01*
X0075717Y0071884D01*
X0075134Y0071300D01*
X0073966Y0071300D01*
X0073382Y0071884D01*
X0072126Y0071300D02*
X0069791Y0071300D01*
X0070959Y0071300D02*
X0070959Y0074803D01*
X0069791Y0073635D01*
X0070384Y0074300D02*
X0069800Y0074884D01*
X0069800Y0076051D01*
X0071551Y0076051D01*
X0072135Y0075468D01*
X0072135Y0074884D01*
X0071551Y0074300D01*
X0070384Y0074300D01*
X0069800Y0076051D02*
X0070968Y0077219D01*
X0072135Y0077803D01*
X0073391Y0077219D02*
X0073391Y0076635D01*
X0073975Y0076051D01*
X0075143Y0076051D01*
X0075726Y0075468D01*
X0075726Y0074884D01*
X0075143Y0074300D01*
X0073975Y0074300D01*
X0073391Y0074884D01*
X0073391Y0075468D01*
X0073975Y0076051D01*
X0075143Y0076051D02*
X0075726Y0076635D01*
X0075726Y0077219D01*
X0075143Y0077803D01*
X0073975Y0077803D01*
X0073391Y0077219D01*
X0077566Y0077803D02*
X0078734Y0077803D01*
X0079317Y0077219D01*
X0079317Y0076051D01*
X0078734Y0075468D01*
X0078734Y0074300D01*
X0079317Y0074300D01*
X0078734Y0067803D02*
X0079317Y0067219D01*
X0079317Y0066051D01*
X0078734Y0065468D01*
X0078734Y0064300D01*
X0079317Y0064300D01*
X0077566Y0064300D02*
X0077566Y0065468D01*
X0076982Y0066051D01*
X0076982Y0067219D01*
X0077566Y0067803D01*
X0078734Y0067803D01*
X0075726Y0067219D02*
X0075726Y0066635D01*
X0075143Y0066051D01*
X0073975Y0066051D01*
X0073391Y0066635D01*
X0073391Y0067219D01*
X0073975Y0067803D01*
X0075143Y0067803D01*
X0075726Y0067219D01*
X0075143Y0066051D02*
X0075726Y0065468D01*
X0075726Y0064884D01*
X0075143Y0064300D01*
X0073975Y0064300D01*
X0073391Y0064884D01*
X0073391Y0065468D01*
X0073975Y0066051D01*
X0073966Y0064803D02*
X0075134Y0064803D01*
X0075717Y0064219D01*
X0075717Y0063635D01*
X0075134Y0063051D01*
X0073966Y0063051D01*
X0073382Y0063635D01*
X0073382Y0064219D01*
X0073966Y0064803D01*
X0073966Y0063051D02*
X0073382Y0062468D01*
X0073382Y0061884D01*
X0073966Y0061300D01*
X0075134Y0061300D01*
X0075717Y0061884D01*
X0075717Y0062468D01*
X0075134Y0063051D01*
X0076982Y0064300D02*
X0077566Y0064300D01*
X0077566Y0057803D02*
X0078734Y0057803D01*
X0079317Y0057219D01*
X0079317Y0056051D01*
X0078734Y0055468D01*
X0078734Y0054300D01*
X0079317Y0054300D01*
X0077566Y0054300D02*
X0077566Y0055468D01*
X0076982Y0056051D01*
X0076982Y0057219D01*
X0077566Y0057803D01*
X0075726Y0057219D02*
X0075726Y0056635D01*
X0075143Y0056051D01*
X0073975Y0056051D01*
X0073391Y0056635D01*
X0073391Y0057219D01*
X0073975Y0057803D01*
X0075143Y0057803D01*
X0075726Y0057219D01*
X0075143Y0056051D02*
X0075726Y0055468D01*
X0075726Y0054884D01*
X0075143Y0054300D01*
X0073975Y0054300D01*
X0073391Y0054884D01*
X0073391Y0055468D01*
X0073975Y0056051D01*
X0073382Y0054803D02*
X0075717Y0054803D01*
X0075717Y0054219D01*
X0073382Y0051884D01*
X0073382Y0051300D01*
X0072126Y0051300D02*
X0069791Y0051300D01*
X0070959Y0051300D02*
X0070959Y0054803D01*
X0069791Y0053635D01*
X0070384Y0054300D02*
X0069800Y0054884D01*
X0069800Y0056051D01*
X0071551Y0056051D01*
X0072135Y0055468D01*
X0072135Y0054884D01*
X0071551Y0054300D01*
X0070384Y0054300D01*
X0069800Y0056051D02*
X0070968Y0057219D01*
X0072135Y0057803D01*
X0072126Y0061300D02*
X0069791Y0061300D01*
X0070959Y0061300D02*
X0070959Y0064803D01*
X0069791Y0063635D01*
X0070384Y0064300D02*
X0069800Y0064884D01*
X0069800Y0066051D01*
X0071551Y0066051D01*
X0072135Y0065468D01*
X0072135Y0064884D01*
X0071551Y0064300D01*
X0070384Y0064300D01*
X0069800Y0066051D02*
X0070968Y0067219D01*
X0072135Y0067803D01*
X0068535Y0071300D02*
X0067368Y0072468D01*
X0067951Y0072468D02*
X0066200Y0072468D01*
X0066200Y0071300D02*
X0066200Y0074803D01*
X0067951Y0074803D01*
X0068535Y0074219D01*
X0068535Y0073051D01*
X0067951Y0072468D01*
X0067951Y0064803D02*
X0066200Y0064803D01*
X0066200Y0061300D01*
X0066200Y0062468D02*
X0067951Y0062468D01*
X0068535Y0063051D01*
X0068535Y0064219D01*
X0067951Y0064803D01*
X0067368Y0062468D02*
X0068535Y0061300D01*
X0067951Y0054803D02*
X0066200Y0054803D01*
X0066200Y0051300D01*
X0066200Y0052468D02*
X0067951Y0052468D01*
X0068535Y0053051D01*
X0068535Y0054219D01*
X0067951Y0054803D01*
X0067368Y0052468D02*
X0068535Y0051300D01*
X0070968Y0047219D02*
X0069800Y0046051D01*
X0071551Y0046051D01*
X0072135Y0045468D01*
X0072135Y0044884D01*
X0071551Y0044300D01*
X0070384Y0044300D01*
X0069800Y0044884D01*
X0069800Y0046051D01*
X0070968Y0047219D02*
X0072135Y0047803D01*
X0073391Y0047219D02*
X0073391Y0046635D01*
X0073975Y0046051D01*
X0075143Y0046051D01*
X0075726Y0045468D01*
X0075726Y0044884D01*
X0075143Y0044300D01*
X0073975Y0044300D01*
X0073391Y0044884D01*
X0073391Y0045468D01*
X0073975Y0046051D01*
X0075143Y0046051D02*
X0075726Y0046635D01*
X0075726Y0047219D01*
X0075143Y0047803D01*
X0073975Y0047803D01*
X0073391Y0047219D01*
X0075134Y0044803D02*
X0073382Y0043051D01*
X0075717Y0043051D01*
X0076982Y0044300D02*
X0077566Y0044300D01*
X0077566Y0045468D01*
X0076982Y0046051D01*
X0076982Y0047219D01*
X0077566Y0047803D01*
X0078734Y0047803D01*
X0079317Y0047219D01*
X0079317Y0046051D01*
X0078734Y0045468D01*
X0078734Y0044300D01*
X0079317Y0044300D01*
X0075134Y0044803D02*
X0075134Y0041300D01*
X0072126Y0041300D02*
X0069791Y0041300D01*
X0070959Y0041300D02*
X0070959Y0044803D01*
X0069791Y0043635D01*
X0068535Y0043051D02*
X0067951Y0042468D01*
X0066200Y0042468D01*
X0067368Y0042468D02*
X0068535Y0041300D01*
X0068535Y0043051D02*
X0068535Y0044219D01*
X0067951Y0044803D01*
X0066200Y0044803D01*
X0066200Y0041300D01*
X0069800Y0037219D02*
X0070384Y0037803D01*
X0071551Y0037803D01*
X0072135Y0037219D01*
X0072135Y0036635D01*
X0071551Y0036051D01*
X0072135Y0035468D01*
X0072135Y0034884D01*
X0071551Y0034300D01*
X0070384Y0034300D01*
X0069800Y0034884D01*
X0070959Y0034803D02*
X0069791Y0033635D01*
X0068535Y0033051D02*
X0067951Y0032468D01*
X0066200Y0032468D01*
X0067368Y0032468D02*
X0068535Y0031300D01*
X0069791Y0031300D02*
X0072126Y0031300D01*
X0070959Y0031300D02*
X0070959Y0034803D01*
X0070968Y0036051D02*
X0071551Y0036051D01*
X0073391Y0035468D02*
X0075143Y0036635D01*
X0076384Y0036051D02*
X0076967Y0035468D01*
X0076967Y0034300D01*
X0076384Y0034300D01*
X0075717Y0034219D02*
X0075717Y0033635D01*
X0075134Y0033051D01*
X0075717Y0032468D01*
X0075717Y0031884D01*
X0075134Y0031300D01*
X0073966Y0031300D01*
X0073382Y0031884D01*
X0074550Y0033051D02*
X0075134Y0033051D01*
X0075143Y0034300D02*
X0073391Y0035468D01*
X0073966Y0034803D02*
X0075134Y0034803D01*
X0075717Y0034219D01*
X0073966Y0034803D02*
X0073382Y0034219D01*
X0073391Y0034300D02*
X0073391Y0037803D01*
X0076384Y0037219D02*
X0076967Y0037803D01*
X0078135Y0037803D01*
X0078719Y0037219D01*
X0078719Y0036051D01*
X0078135Y0035468D01*
X0078135Y0034300D01*
X0078719Y0034300D01*
X0076384Y0036051D02*
X0076384Y0037219D01*
X0076967Y0027803D02*
X0078135Y0027803D01*
X0078719Y0027219D01*
X0078719Y0026051D01*
X0078135Y0025468D01*
X0078135Y0024300D01*
X0078719Y0024300D01*
X0076967Y0024300D02*
X0076967Y0025468D01*
X0076384Y0026051D01*
X0076384Y0027219D01*
X0076967Y0027803D01*
X0075143Y0026635D02*
X0073391Y0025468D01*
X0075143Y0024300D01*
X0076384Y0024300D02*
X0076967Y0024300D01*
X0073391Y0024300D02*
X0073391Y0027803D01*
X0072135Y0027219D02*
X0072135Y0026635D01*
X0071551Y0026051D01*
X0072135Y0025468D01*
X0072135Y0024884D01*
X0071551Y0024300D01*
X0070384Y0024300D01*
X0069800Y0024884D01*
X0070968Y0026051D02*
X0071551Y0026051D01*
X0072135Y0027219D02*
X0071551Y0027803D01*
X0070384Y0027803D01*
X0069800Y0027219D01*
X0066200Y0031300D02*
X0066200Y0034803D01*
X0067951Y0034803D01*
X0068535Y0034219D01*
X0068535Y0033051D01*
X0076982Y0054300D02*
X0077566Y0054300D01*
X0069317Y0184300D02*
X0068734Y0184300D01*
X0068734Y0185468D01*
X0069317Y0186051D01*
X0069317Y0187219D01*
X0068734Y0187803D01*
X0067566Y0187803D01*
X0066982Y0187219D01*
X0066982Y0186051D01*
X0067566Y0185468D01*
X0067566Y0184300D01*
X0066982Y0184300D01*
X0065726Y0184884D02*
X0065143Y0184300D01*
X0063975Y0184300D01*
X0063391Y0184884D01*
X0063391Y0185468D01*
X0063975Y0186051D01*
X0065143Y0186051D01*
X0065726Y0185468D01*
X0065726Y0184884D01*
X0065143Y0186051D02*
X0065726Y0186635D01*
X0065726Y0187219D01*
X0065143Y0187803D01*
X0063975Y0187803D01*
X0063391Y0187219D01*
X0063391Y0186635D01*
X0063975Y0186051D01*
X0062135Y0185468D02*
X0061551Y0186051D01*
X0059800Y0186051D01*
X0059800Y0184884D01*
X0060384Y0184300D01*
X0061551Y0184300D01*
X0062135Y0184884D01*
X0062135Y0185468D01*
X0060968Y0187219D02*
X0062135Y0187803D01*
X0060968Y0187219D02*
X0059800Y0186051D01*
X0059791Y0191300D02*
X0059791Y0191884D01*
X0062126Y0194219D01*
X0062126Y0194803D01*
X0059791Y0194803D01*
X0059800Y0194884D02*
X0060384Y0194300D01*
X0061551Y0194300D01*
X0062135Y0194884D01*
X0062135Y0195468D01*
X0061551Y0196051D01*
X0059800Y0196051D01*
X0059800Y0194884D01*
X0059800Y0196051D02*
X0060968Y0197219D01*
X0062135Y0197803D01*
X0063391Y0197219D02*
X0063391Y0196635D01*
X0063975Y0196051D01*
X0065143Y0196051D01*
X0065726Y0195468D01*
X0065726Y0194884D01*
X0065143Y0194300D01*
X0063975Y0194300D01*
X0063391Y0194884D01*
X0063391Y0195468D01*
X0063975Y0196051D01*
X0065143Y0196051D02*
X0065726Y0196635D01*
X0065726Y0197219D01*
X0065143Y0197803D01*
X0063975Y0197803D01*
X0063391Y0197219D01*
X0066982Y0197219D02*
X0066982Y0196051D01*
X0067566Y0195468D01*
X0067566Y0194300D01*
X0066982Y0194300D01*
X0068734Y0194300D02*
X0068734Y0195468D01*
X0069317Y0196051D01*
X0069317Y0197219D01*
X0068734Y0197803D01*
X0067566Y0197803D01*
X0066982Y0197219D01*
X0068734Y0194300D02*
X0069317Y0194300D01*
X0062126Y0201884D02*
X0062126Y0202468D01*
X0061543Y0203051D01*
X0059791Y0203051D01*
X0059791Y0201884D01*
X0060375Y0201300D01*
X0061543Y0201300D01*
X0062126Y0201884D01*
X0060959Y0204219D02*
X0059791Y0203051D01*
X0058535Y0203051D02*
X0058535Y0204219D01*
X0057951Y0204803D01*
X0056200Y0204803D01*
X0056200Y0201300D01*
X0056200Y0202468D02*
X0057951Y0202468D01*
X0058535Y0203051D01*
X0057368Y0202468D02*
X0058535Y0201300D01*
X0060959Y0204219D02*
X0062126Y0204803D01*
X0057951Y0194803D02*
X0056200Y0194803D01*
X0056200Y0191300D01*
X0056200Y0192468D02*
X0057951Y0192468D01*
X0058535Y0193051D01*
X0058535Y0194219D01*
X0057951Y0194803D01*
X0057368Y0192468D02*
X0058535Y0191300D01*
X0029317Y0194300D02*
X0028734Y0194300D01*
X0028734Y0195468D01*
X0029317Y0196051D01*
X0029317Y0197219D01*
X0028734Y0197803D01*
X0027566Y0197803D01*
X0026982Y0197219D01*
X0026982Y0196051D01*
X0027566Y0195468D01*
X0027566Y0194300D01*
X0026982Y0194300D01*
X0025726Y0194884D02*
X0025143Y0194300D01*
X0023975Y0194300D01*
X0023391Y0194884D01*
X0023391Y0195468D01*
X0023975Y0196051D01*
X0025143Y0196051D01*
X0025726Y0195468D01*
X0025726Y0194884D01*
X0025143Y0196051D02*
X0025726Y0196635D01*
X0025726Y0197219D01*
X0025143Y0197803D01*
X0023975Y0197803D01*
X0023391Y0197219D01*
X0023391Y0196635D01*
X0023975Y0196051D01*
X0022135Y0195468D02*
X0021551Y0196051D01*
X0019800Y0196051D01*
X0019800Y0194884D01*
X0020384Y0194300D01*
X0021551Y0194300D01*
X0022135Y0194884D01*
X0022135Y0195468D01*
X0021543Y0194803D02*
X0022126Y0194219D01*
X0022126Y0193635D01*
X0021543Y0193051D01*
X0020375Y0193051D01*
X0019791Y0193635D01*
X0019791Y0194219D01*
X0020375Y0194803D01*
X0021543Y0194803D01*
X0021543Y0193051D02*
X0022126Y0192468D01*
X0022126Y0191884D01*
X0021543Y0191300D01*
X0020375Y0191300D01*
X0019791Y0191884D01*
X0019791Y0192468D01*
X0020375Y0193051D01*
X0019800Y0196051D02*
X0020968Y0197219D01*
X0022135Y0197803D01*
X0021543Y0201300D02*
X0020375Y0201300D01*
X0019791Y0201884D01*
X0019791Y0203051D02*
X0020959Y0203635D01*
X0021543Y0203635D01*
X0022126Y0203051D01*
X0022126Y0201884D01*
X0021543Y0201300D01*
X0019791Y0203051D02*
X0019791Y0204803D01*
X0022126Y0204803D01*
X0018535Y0204219D02*
X0018535Y0203051D01*
X0017951Y0202468D01*
X0016200Y0202468D01*
X0017368Y0202468D02*
X0018535Y0201300D01*
X0016200Y0201300D02*
X0016200Y0204803D01*
X0017951Y0204803D01*
X0018535Y0204219D01*
X0017951Y0194803D02*
X0016200Y0194803D01*
X0016200Y0191300D01*
X0016200Y0192468D02*
X0017951Y0192468D01*
X0018535Y0193051D01*
X0018535Y0194219D01*
X0017951Y0194803D01*
X0017368Y0192468D02*
X0018535Y0191300D01*
X0020968Y0187219D02*
X0019800Y0186051D01*
X0021551Y0186051D01*
X0022135Y0185468D01*
X0022135Y0184884D01*
X0021551Y0184300D01*
X0020384Y0184300D01*
X0019800Y0184884D01*
X0019800Y0186051D01*
X0020968Y0187219D02*
X0022135Y0187803D01*
X0023391Y0187219D02*
X0023391Y0186635D01*
X0023975Y0186051D01*
X0025143Y0186051D01*
X0025726Y0185468D01*
X0025726Y0184884D01*
X0025143Y0184300D01*
X0023975Y0184300D01*
X0023391Y0184884D01*
X0023391Y0185468D01*
X0023975Y0186051D01*
X0025143Y0186051D02*
X0025726Y0186635D01*
X0025726Y0187219D01*
X0025143Y0187803D01*
X0023975Y0187803D01*
X0023391Y0187219D01*
X0026982Y0187219D02*
X0027566Y0187803D01*
X0028734Y0187803D01*
X0029317Y0187219D01*
X0029317Y0186051D01*
X0028734Y0185468D01*
X0028734Y0184300D01*
X0029317Y0184300D01*
X0027566Y0184300D02*
X0027566Y0185468D01*
X0026982Y0186051D01*
X0026982Y0187219D01*
X0026982Y0184300D02*
X0027566Y0184300D01*
D15*
X0036750Y0186000D03*
X0036750Y0196000D03*
X0055250Y0196000D03*
X0055250Y0186000D03*
X0065250Y0156000D03*
X0065250Y0146000D03*
X0065250Y0136000D03*
X0065250Y0126000D03*
X0065250Y0116000D03*
X0065250Y0106000D03*
X0065250Y0096000D03*
X0065250Y0086000D03*
X0065250Y0076000D03*
X0065250Y0066000D03*
X0065250Y0056000D03*
X0065250Y0046000D03*
X0065250Y0036000D03*
X0065250Y0026000D03*
X0086750Y0026000D03*
X0086750Y0036000D03*
X0086750Y0046000D03*
X0086750Y0056000D03*
X0086750Y0066000D03*
X0086750Y0076000D03*
X0086750Y0086000D03*
X0086750Y0096000D03*
X0086750Y0106000D03*
X0086750Y0116000D03*
X0086750Y0126000D03*
X0086750Y0136000D03*
X0086750Y0146000D03*
X0086750Y0156000D03*
X0076750Y0186000D03*
X0076750Y0196000D03*
X0015250Y0196000D03*
X0015250Y0186000D03*
M02*
