G75*
%MOIN*%
%OFA0B0*%
%FSLAX25Y25*%
%IPPOS*%
%LPD*%
%AMOC8*
5,1,8,0,0,1.08239X$1,22.5*
%
%ADD10C,0.09461*%
%ADD11C,0.06000*%
%ADD12OC8,0.06000*%
%ADD13C,0.06800*%
%ADD14C,0.04800*%
D10*
X0076000Y0011000D03*
X0131000Y0181000D03*
D11*
X0018600Y0011000D02*
X0013400Y0011000D01*
X0013400Y0021000D02*
X0018600Y0021000D01*
X0018600Y0031000D02*
X0013400Y0031000D01*
X0013400Y0041000D02*
X0018600Y0041000D01*
X0018600Y0051000D02*
X0013400Y0051000D01*
X0013400Y0061000D02*
X0018600Y0061000D01*
X0018600Y0071000D02*
X0013400Y0071000D01*
X0013400Y0086000D02*
X0018600Y0086000D01*
X0018600Y0096000D02*
X0013400Y0096000D01*
X0013400Y0106000D02*
X0018600Y0106000D01*
X0018600Y0116000D02*
X0013400Y0116000D01*
X0013400Y0126000D02*
X0018600Y0126000D01*
X0018600Y0136000D02*
X0013400Y0136000D01*
X0013400Y0146000D02*
X0018600Y0146000D01*
X0021000Y0163400D02*
X0021000Y0168600D01*
X0011000Y0168600D02*
X0011000Y0163400D01*
X0031000Y0163400D02*
X0031000Y0168600D01*
X0041000Y0171100D02*
X0041000Y0165900D01*
X0051000Y0165900D02*
X0051000Y0171100D01*
X0061000Y0171100D02*
X0061000Y0165900D01*
X0071000Y0165900D02*
X0071000Y0171100D01*
X0081000Y0171100D02*
X0081000Y0165900D01*
X0091000Y0165900D02*
X0091000Y0171100D01*
X0096000Y0178400D02*
X0096000Y0183600D01*
X0106000Y0183600D02*
X0106000Y0178400D01*
X0116000Y0178400D02*
X0116000Y0183600D01*
X0048600Y0146000D02*
X0043400Y0146000D01*
X0043400Y0136000D02*
X0048600Y0136000D01*
X0048600Y0126000D02*
X0043400Y0126000D01*
X0043400Y0116000D02*
X0048600Y0116000D01*
X0048600Y0106000D02*
X0043400Y0106000D01*
X0043400Y0096000D02*
X0048600Y0096000D01*
X0048600Y0086000D02*
X0043400Y0086000D01*
X0043400Y0071000D02*
X0048600Y0071000D01*
X0048600Y0061000D02*
X0043400Y0061000D01*
X0043400Y0051000D02*
X0048600Y0051000D01*
X0048600Y0041000D02*
X0043400Y0041000D01*
X0043400Y0031000D02*
X0048600Y0031000D01*
X0048600Y0021000D02*
X0043400Y0021000D01*
X0043400Y0011000D02*
X0048600Y0011000D01*
D12*
X0061000Y0026000D03*
X0061000Y0036000D03*
X0061000Y0046000D03*
X0061000Y0056000D03*
X0061000Y0066000D03*
X0061000Y0076000D03*
X0061000Y0086000D03*
X0061000Y0096000D03*
X0061000Y0106000D03*
X0061000Y0116000D03*
X0061000Y0126000D03*
X0061000Y0136000D03*
X0061000Y0146000D03*
X0061000Y0156000D03*
X0051000Y0186000D03*
X0051000Y0196000D03*
X0041000Y0196000D03*
X0041000Y0186000D03*
X0011000Y0186000D03*
X0011000Y0196000D03*
X0081000Y0196000D03*
X0081000Y0186000D03*
X0091000Y0156000D03*
X0091000Y0146000D03*
X0091000Y0136000D03*
X0091000Y0126000D03*
X0091000Y0116000D03*
X0091000Y0106000D03*
X0091000Y0096000D03*
X0091000Y0086000D03*
X0091000Y0076000D03*
X0091000Y0066000D03*
X0091000Y0056000D03*
X0091000Y0046000D03*
X0091000Y0036000D03*
X0091000Y0026000D03*
D13*
X0108000Y0021000D02*
X0114000Y0021000D01*
X0114000Y0011000D02*
X0108000Y0011000D01*
X0108000Y0031000D02*
X0114000Y0031000D01*
X0114000Y0041000D02*
X0108000Y0041000D01*
X0108000Y0051000D02*
X0114000Y0051000D01*
X0114000Y0061000D02*
X0108000Y0061000D01*
X0108000Y0071000D02*
X0114000Y0071000D01*
X0114000Y0081000D02*
X0108000Y0081000D01*
X0108000Y0091000D02*
X0114000Y0091000D01*
X0114000Y0101000D02*
X0108000Y0101000D01*
X0108000Y0111000D02*
X0114000Y0111000D01*
X0114000Y0121000D02*
X0108000Y0121000D01*
X0108000Y0131000D02*
X0114000Y0131000D01*
X0114000Y0141000D02*
X0108000Y0141000D01*
X0108000Y0151000D02*
X0114000Y0151000D01*
X0114000Y0161000D02*
X0108000Y0161000D01*
X0111000Y0198000D02*
X0111000Y0204000D01*
X0101000Y0204000D02*
X0101000Y0198000D01*
X0086000Y0208000D02*
X0086000Y0214000D01*
X0076000Y0214000D02*
X0076000Y0208000D01*
X0066000Y0208000D02*
X0066000Y0214000D01*
X0056000Y0214000D02*
X0056000Y0208000D01*
X0046000Y0208000D02*
X0046000Y0214000D01*
X0036000Y0214000D02*
X0036000Y0208000D01*
X0026000Y0208000D02*
X0026000Y0214000D01*
X0016000Y0214000D02*
X0016000Y0208000D01*
X0121000Y0204000D02*
X0121000Y0198000D01*
X0131000Y0198000D02*
X0131000Y0204000D01*
D14*
X0053500Y0121000D03*
X0033500Y0086000D03*
X0071000Y0071000D03*
X0073500Y0048500D03*
M02*
