%
M48
M72
T01C0.02400
T02C0.03200
T03C0.04000
T04C0.11024
%
T01
X26000Y37875
X22875Y68500
X61625Y31000
X72875Y46000
X69125Y77250
X65375Y87250
X74750Y104125
X62250Y151625
X74125Y156000
T02
X13500Y11000
X13500Y21000
X13500Y31000
X13500Y41000
X13500Y51000
X13500Y61000
X13500Y71000
X13500Y86000
X13500Y96000
X13500Y106000
X13500Y116000
X13500Y126000
X13500Y136000
X13500Y146000
X8500Y166000
X18500Y166000
X28500Y166000
X38500Y168500
X48500Y168500
X58500Y168500
X58500Y156000
X58500Y146000
X58500Y136000
X58500Y126000
X58500Y116000
X58500Y106000
X58500Y96000
X58500Y86000
X58500Y76000
X58500Y66000
X58500Y56000
X58500Y46000
X58500Y36000
X58500Y26000
X43500Y21000
X43500Y11000
X43500Y31000
X43500Y41000
X43500Y51000
X43500Y61000
X43500Y71000
X43500Y86000
X43500Y96000
X43500Y106000
X43500Y116000
X43500Y126000
X43500Y136000
X43500Y146000
X38500Y186000
X38500Y196000
X48500Y196000
X48500Y186000
X68500Y168500
X78500Y168500
X88500Y168500
X93500Y181000
X103500Y181000
X113500Y181000
X88500Y156000
X88500Y146000
X88500Y136000
X88500Y126000
X88500Y116000
X88500Y106000
X88500Y96000
X88500Y86000
X88500Y76000
X88500Y66000
X88500Y56000
X88500Y46000
X88500Y36000
X88500Y26000
X78500Y186000
X78500Y196000
X8500Y196000
X8500Y186000
T03
X13500Y211000
X23500Y211000
X33500Y211000
X43500Y211000
X53500Y211000
X63500Y211000
X73500Y211000
X83500Y211000
X98500Y201000
X108500Y201000
X118500Y201000
X128500Y201000
X108500Y161000
X108500Y151000
X108500Y141000
X108500Y131000
X108500Y121000
X108500Y111000
X108500Y101000
X108500Y91000
X108500Y81000
X108500Y71000
X108500Y61000
X108500Y51000
X108500Y41000
X108500Y31000
X108500Y21000
X108500Y11000
T04
X73500Y13500
X126000Y176000
M30
