G75*
%MOIN*%
%OFA0B0*%
%FSLAX25Y25*%
%IPPOS*%
%LPD*%
%AMOC8*
5,1,8,0,0,1.08239X$1,22.5*
%
%ADD10C,0.11824*%
%ADD11C,0.06000*%
%ADD12OC8,0.06000*%
%ADD13C,0.06800*%
%ADD14C,0.04800*%
D10*
X0073500Y0013500D03*
X0126000Y0176000D03*
D11*
X0016100Y0011000D02*
X0010900Y0011000D01*
X0010900Y0021000D02*
X0016100Y0021000D01*
X0016100Y0031000D02*
X0010900Y0031000D01*
X0010900Y0041000D02*
X0016100Y0041000D01*
X0016100Y0051000D02*
X0010900Y0051000D01*
X0010900Y0061000D02*
X0016100Y0061000D01*
X0016100Y0071000D02*
X0010900Y0071000D01*
X0010900Y0086000D02*
X0016100Y0086000D01*
X0016100Y0096000D02*
X0010900Y0096000D01*
X0010900Y0106000D02*
X0016100Y0106000D01*
X0016100Y0116000D02*
X0010900Y0116000D01*
X0010900Y0126000D02*
X0016100Y0126000D01*
X0016100Y0136000D02*
X0010900Y0136000D01*
X0010900Y0146000D02*
X0016100Y0146000D01*
X0018500Y0163400D02*
X0018500Y0168600D01*
X0008500Y0168600D02*
X0008500Y0163400D01*
X0028500Y0163400D02*
X0028500Y0168600D01*
X0038500Y0171100D02*
X0038500Y0165900D01*
X0048500Y0165900D02*
X0048500Y0171100D01*
X0058500Y0171100D02*
X0058500Y0165900D01*
X0068500Y0165900D02*
X0068500Y0171100D01*
X0078500Y0171100D02*
X0078500Y0165900D01*
X0088500Y0165900D02*
X0088500Y0171100D01*
X0093500Y0178400D02*
X0093500Y0183600D01*
X0103500Y0183600D02*
X0103500Y0178400D01*
X0113500Y0178400D02*
X0113500Y0183600D01*
X0046100Y0146000D02*
X0040900Y0146000D01*
X0040900Y0136000D02*
X0046100Y0136000D01*
X0046100Y0126000D02*
X0040900Y0126000D01*
X0040900Y0116000D02*
X0046100Y0116000D01*
X0046100Y0106000D02*
X0040900Y0106000D01*
X0040900Y0096000D02*
X0046100Y0096000D01*
X0046100Y0086000D02*
X0040900Y0086000D01*
X0040900Y0071000D02*
X0046100Y0071000D01*
X0046100Y0061000D02*
X0040900Y0061000D01*
X0040900Y0051000D02*
X0046100Y0051000D01*
X0046100Y0041000D02*
X0040900Y0041000D01*
X0040900Y0031000D02*
X0046100Y0031000D01*
X0046100Y0021000D02*
X0040900Y0021000D01*
X0040900Y0011000D02*
X0046100Y0011000D01*
D12*
X0058500Y0026000D03*
X0058500Y0036000D03*
X0058500Y0046000D03*
X0058500Y0056000D03*
X0058500Y0066000D03*
X0058500Y0076000D03*
X0058500Y0086000D03*
X0058500Y0096000D03*
X0058500Y0106000D03*
X0058500Y0116000D03*
X0058500Y0126000D03*
X0058500Y0136000D03*
X0058500Y0146000D03*
X0058500Y0156000D03*
X0048500Y0186000D03*
X0048500Y0196000D03*
X0038500Y0196000D03*
X0038500Y0186000D03*
X0008500Y0186000D03*
X0008500Y0196000D03*
X0078500Y0196000D03*
X0078500Y0186000D03*
X0088500Y0156000D03*
X0088500Y0146000D03*
X0088500Y0136000D03*
X0088500Y0126000D03*
X0088500Y0116000D03*
X0088500Y0106000D03*
X0088500Y0096000D03*
X0088500Y0086000D03*
X0088500Y0076000D03*
X0088500Y0066000D03*
X0088500Y0056000D03*
X0088500Y0046000D03*
X0088500Y0036000D03*
X0088500Y0026000D03*
D13*
X0105500Y0021000D02*
X0111500Y0021000D01*
X0111500Y0011000D02*
X0105500Y0011000D01*
X0105500Y0031000D02*
X0111500Y0031000D01*
X0111500Y0041000D02*
X0105500Y0041000D01*
X0105500Y0051000D02*
X0111500Y0051000D01*
X0111500Y0061000D02*
X0105500Y0061000D01*
X0105500Y0071000D02*
X0111500Y0071000D01*
X0111500Y0081000D02*
X0105500Y0081000D01*
X0105500Y0091000D02*
X0111500Y0091000D01*
X0111500Y0101000D02*
X0105500Y0101000D01*
X0105500Y0111000D02*
X0111500Y0111000D01*
X0111500Y0121000D02*
X0105500Y0121000D01*
X0105500Y0131000D02*
X0111500Y0131000D01*
X0111500Y0141000D02*
X0105500Y0141000D01*
X0105500Y0151000D02*
X0111500Y0151000D01*
X0111500Y0161000D02*
X0105500Y0161000D01*
X0108500Y0198000D02*
X0108500Y0204000D01*
X0098500Y0204000D02*
X0098500Y0198000D01*
X0083500Y0208000D02*
X0083500Y0214000D01*
X0073500Y0214000D02*
X0073500Y0208000D01*
X0063500Y0208000D02*
X0063500Y0214000D01*
X0053500Y0214000D02*
X0053500Y0208000D01*
X0043500Y0208000D02*
X0043500Y0214000D01*
X0033500Y0214000D02*
X0033500Y0208000D01*
X0023500Y0208000D02*
X0023500Y0214000D01*
X0013500Y0214000D02*
X0013500Y0208000D01*
X0118500Y0204000D02*
X0118500Y0198000D01*
X0128500Y0198000D02*
X0128500Y0204000D01*
D14*
X0074125Y0156000D03*
X0062250Y0151625D03*
X0074750Y0104125D03*
X0065375Y0087250D03*
X0069125Y0077250D03*
X0072875Y0046000D03*
X0061625Y0031000D03*
X0026000Y0037875D03*
X0022875Y0068500D03*
M02*
