G75*
%MOIN*%
%OFA0B0*%
%FSLAX25Y25*%
%IPPOS*%
%LPD*%
%AMOC8*
5,1,8,0,0,1.08239X$1,22.5*
%
%ADD10C,0.00000*%
%ADD11C,0.05200*%
%ADD12OC8,0.05200*%
%ADD13C,0.06000*%
%ADD14C,0.01000*%
%ADD15C,0.04000*%
%ADD16C,0.01600*%
D10*
X0001000Y0001000D02*
X0001000Y0236900D01*
X0135700Y0236900D01*
X0120488Y0176000D02*
X0120490Y0176148D01*
X0120496Y0176296D01*
X0120506Y0176444D01*
X0120520Y0176591D01*
X0120538Y0176738D01*
X0120559Y0176884D01*
X0120585Y0177030D01*
X0120615Y0177175D01*
X0120648Y0177319D01*
X0120686Y0177462D01*
X0120727Y0177604D01*
X0120772Y0177745D01*
X0120820Y0177885D01*
X0120873Y0178024D01*
X0120929Y0178161D01*
X0120989Y0178296D01*
X0121052Y0178430D01*
X0121119Y0178562D01*
X0121190Y0178692D01*
X0121264Y0178820D01*
X0121341Y0178946D01*
X0121422Y0179070D01*
X0121506Y0179192D01*
X0121593Y0179311D01*
X0121684Y0179428D01*
X0121778Y0179543D01*
X0121874Y0179655D01*
X0121974Y0179765D01*
X0122076Y0179871D01*
X0122182Y0179975D01*
X0122290Y0180076D01*
X0122401Y0180174D01*
X0122514Y0180270D01*
X0122630Y0180362D01*
X0122748Y0180451D01*
X0122869Y0180536D01*
X0122992Y0180619D01*
X0123117Y0180698D01*
X0123244Y0180774D01*
X0123373Y0180846D01*
X0123504Y0180915D01*
X0123637Y0180980D01*
X0123772Y0181041D01*
X0123908Y0181099D01*
X0124045Y0181154D01*
X0124184Y0181204D01*
X0124325Y0181251D01*
X0124466Y0181294D01*
X0124609Y0181334D01*
X0124753Y0181369D01*
X0124897Y0181401D01*
X0125043Y0181428D01*
X0125189Y0181452D01*
X0125336Y0181472D01*
X0125483Y0181488D01*
X0125630Y0181500D01*
X0125778Y0181508D01*
X0125926Y0181512D01*
X0126074Y0181512D01*
X0126222Y0181508D01*
X0126370Y0181500D01*
X0126517Y0181488D01*
X0126664Y0181472D01*
X0126811Y0181452D01*
X0126957Y0181428D01*
X0127103Y0181401D01*
X0127247Y0181369D01*
X0127391Y0181334D01*
X0127534Y0181294D01*
X0127675Y0181251D01*
X0127816Y0181204D01*
X0127955Y0181154D01*
X0128092Y0181099D01*
X0128228Y0181041D01*
X0128363Y0180980D01*
X0128496Y0180915D01*
X0128627Y0180846D01*
X0128756Y0180774D01*
X0128883Y0180698D01*
X0129008Y0180619D01*
X0129131Y0180536D01*
X0129252Y0180451D01*
X0129370Y0180362D01*
X0129486Y0180270D01*
X0129599Y0180174D01*
X0129710Y0180076D01*
X0129818Y0179975D01*
X0129924Y0179871D01*
X0130026Y0179765D01*
X0130126Y0179655D01*
X0130222Y0179543D01*
X0130316Y0179428D01*
X0130407Y0179311D01*
X0130494Y0179192D01*
X0130578Y0179070D01*
X0130659Y0178946D01*
X0130736Y0178820D01*
X0130810Y0178692D01*
X0130881Y0178562D01*
X0130948Y0178430D01*
X0131011Y0178296D01*
X0131071Y0178161D01*
X0131127Y0178024D01*
X0131180Y0177885D01*
X0131228Y0177745D01*
X0131273Y0177604D01*
X0131314Y0177462D01*
X0131352Y0177319D01*
X0131385Y0177175D01*
X0131415Y0177030D01*
X0131441Y0176884D01*
X0131462Y0176738D01*
X0131480Y0176591D01*
X0131494Y0176444D01*
X0131504Y0176296D01*
X0131510Y0176148D01*
X0131512Y0176000D01*
X0131510Y0175852D01*
X0131504Y0175704D01*
X0131494Y0175556D01*
X0131480Y0175409D01*
X0131462Y0175262D01*
X0131441Y0175116D01*
X0131415Y0174970D01*
X0131385Y0174825D01*
X0131352Y0174681D01*
X0131314Y0174538D01*
X0131273Y0174396D01*
X0131228Y0174255D01*
X0131180Y0174115D01*
X0131127Y0173976D01*
X0131071Y0173839D01*
X0131011Y0173704D01*
X0130948Y0173570D01*
X0130881Y0173438D01*
X0130810Y0173308D01*
X0130736Y0173180D01*
X0130659Y0173054D01*
X0130578Y0172930D01*
X0130494Y0172808D01*
X0130407Y0172689D01*
X0130316Y0172572D01*
X0130222Y0172457D01*
X0130126Y0172345D01*
X0130026Y0172235D01*
X0129924Y0172129D01*
X0129818Y0172025D01*
X0129710Y0171924D01*
X0129599Y0171826D01*
X0129486Y0171730D01*
X0129370Y0171638D01*
X0129252Y0171549D01*
X0129131Y0171464D01*
X0129008Y0171381D01*
X0128883Y0171302D01*
X0128756Y0171226D01*
X0128627Y0171154D01*
X0128496Y0171085D01*
X0128363Y0171020D01*
X0128228Y0170959D01*
X0128092Y0170901D01*
X0127955Y0170846D01*
X0127816Y0170796D01*
X0127675Y0170749D01*
X0127534Y0170706D01*
X0127391Y0170666D01*
X0127247Y0170631D01*
X0127103Y0170599D01*
X0126957Y0170572D01*
X0126811Y0170548D01*
X0126664Y0170528D01*
X0126517Y0170512D01*
X0126370Y0170500D01*
X0126222Y0170492D01*
X0126074Y0170488D01*
X0125926Y0170488D01*
X0125778Y0170492D01*
X0125630Y0170500D01*
X0125483Y0170512D01*
X0125336Y0170528D01*
X0125189Y0170548D01*
X0125043Y0170572D01*
X0124897Y0170599D01*
X0124753Y0170631D01*
X0124609Y0170666D01*
X0124466Y0170706D01*
X0124325Y0170749D01*
X0124184Y0170796D01*
X0124045Y0170846D01*
X0123908Y0170901D01*
X0123772Y0170959D01*
X0123637Y0171020D01*
X0123504Y0171085D01*
X0123373Y0171154D01*
X0123244Y0171226D01*
X0123117Y0171302D01*
X0122992Y0171381D01*
X0122869Y0171464D01*
X0122748Y0171549D01*
X0122630Y0171638D01*
X0122514Y0171730D01*
X0122401Y0171826D01*
X0122290Y0171924D01*
X0122182Y0172025D01*
X0122076Y0172129D01*
X0121974Y0172235D01*
X0121874Y0172345D01*
X0121778Y0172457D01*
X0121684Y0172572D01*
X0121593Y0172689D01*
X0121506Y0172808D01*
X0121422Y0172930D01*
X0121341Y0173054D01*
X0121264Y0173180D01*
X0121190Y0173308D01*
X0121119Y0173438D01*
X0121052Y0173570D01*
X0120989Y0173704D01*
X0120929Y0173839D01*
X0120873Y0173976D01*
X0120820Y0174115D01*
X0120772Y0174255D01*
X0120727Y0174396D01*
X0120686Y0174538D01*
X0120648Y0174681D01*
X0120615Y0174825D01*
X0120585Y0174970D01*
X0120559Y0175116D01*
X0120538Y0175262D01*
X0120520Y0175409D01*
X0120506Y0175556D01*
X0120496Y0175704D01*
X0120490Y0175852D01*
X0120488Y0176000D01*
X0067988Y0013500D02*
X0067990Y0013648D01*
X0067996Y0013796D01*
X0068006Y0013944D01*
X0068020Y0014091D01*
X0068038Y0014238D01*
X0068059Y0014384D01*
X0068085Y0014530D01*
X0068115Y0014675D01*
X0068148Y0014819D01*
X0068186Y0014962D01*
X0068227Y0015104D01*
X0068272Y0015245D01*
X0068320Y0015385D01*
X0068373Y0015524D01*
X0068429Y0015661D01*
X0068489Y0015796D01*
X0068552Y0015930D01*
X0068619Y0016062D01*
X0068690Y0016192D01*
X0068764Y0016320D01*
X0068841Y0016446D01*
X0068922Y0016570D01*
X0069006Y0016692D01*
X0069093Y0016811D01*
X0069184Y0016928D01*
X0069278Y0017043D01*
X0069374Y0017155D01*
X0069474Y0017265D01*
X0069576Y0017371D01*
X0069682Y0017475D01*
X0069790Y0017576D01*
X0069901Y0017674D01*
X0070014Y0017770D01*
X0070130Y0017862D01*
X0070248Y0017951D01*
X0070369Y0018036D01*
X0070492Y0018119D01*
X0070617Y0018198D01*
X0070744Y0018274D01*
X0070873Y0018346D01*
X0071004Y0018415D01*
X0071137Y0018480D01*
X0071272Y0018541D01*
X0071408Y0018599D01*
X0071545Y0018654D01*
X0071684Y0018704D01*
X0071825Y0018751D01*
X0071966Y0018794D01*
X0072109Y0018834D01*
X0072253Y0018869D01*
X0072397Y0018901D01*
X0072543Y0018928D01*
X0072689Y0018952D01*
X0072836Y0018972D01*
X0072983Y0018988D01*
X0073130Y0019000D01*
X0073278Y0019008D01*
X0073426Y0019012D01*
X0073574Y0019012D01*
X0073722Y0019008D01*
X0073870Y0019000D01*
X0074017Y0018988D01*
X0074164Y0018972D01*
X0074311Y0018952D01*
X0074457Y0018928D01*
X0074603Y0018901D01*
X0074747Y0018869D01*
X0074891Y0018834D01*
X0075034Y0018794D01*
X0075175Y0018751D01*
X0075316Y0018704D01*
X0075455Y0018654D01*
X0075592Y0018599D01*
X0075728Y0018541D01*
X0075863Y0018480D01*
X0075996Y0018415D01*
X0076127Y0018346D01*
X0076256Y0018274D01*
X0076383Y0018198D01*
X0076508Y0018119D01*
X0076631Y0018036D01*
X0076752Y0017951D01*
X0076870Y0017862D01*
X0076986Y0017770D01*
X0077099Y0017674D01*
X0077210Y0017576D01*
X0077318Y0017475D01*
X0077424Y0017371D01*
X0077526Y0017265D01*
X0077626Y0017155D01*
X0077722Y0017043D01*
X0077816Y0016928D01*
X0077907Y0016811D01*
X0077994Y0016692D01*
X0078078Y0016570D01*
X0078159Y0016446D01*
X0078236Y0016320D01*
X0078310Y0016192D01*
X0078381Y0016062D01*
X0078448Y0015930D01*
X0078511Y0015796D01*
X0078571Y0015661D01*
X0078627Y0015524D01*
X0078680Y0015385D01*
X0078728Y0015245D01*
X0078773Y0015104D01*
X0078814Y0014962D01*
X0078852Y0014819D01*
X0078885Y0014675D01*
X0078915Y0014530D01*
X0078941Y0014384D01*
X0078962Y0014238D01*
X0078980Y0014091D01*
X0078994Y0013944D01*
X0079004Y0013796D01*
X0079010Y0013648D01*
X0079012Y0013500D01*
X0079010Y0013352D01*
X0079004Y0013204D01*
X0078994Y0013056D01*
X0078980Y0012909D01*
X0078962Y0012762D01*
X0078941Y0012616D01*
X0078915Y0012470D01*
X0078885Y0012325D01*
X0078852Y0012181D01*
X0078814Y0012038D01*
X0078773Y0011896D01*
X0078728Y0011755D01*
X0078680Y0011615D01*
X0078627Y0011476D01*
X0078571Y0011339D01*
X0078511Y0011204D01*
X0078448Y0011070D01*
X0078381Y0010938D01*
X0078310Y0010808D01*
X0078236Y0010680D01*
X0078159Y0010554D01*
X0078078Y0010430D01*
X0077994Y0010308D01*
X0077907Y0010189D01*
X0077816Y0010072D01*
X0077722Y0009957D01*
X0077626Y0009845D01*
X0077526Y0009735D01*
X0077424Y0009629D01*
X0077318Y0009525D01*
X0077210Y0009424D01*
X0077099Y0009326D01*
X0076986Y0009230D01*
X0076870Y0009138D01*
X0076752Y0009049D01*
X0076631Y0008964D01*
X0076508Y0008881D01*
X0076383Y0008802D01*
X0076256Y0008726D01*
X0076127Y0008654D01*
X0075996Y0008585D01*
X0075863Y0008520D01*
X0075728Y0008459D01*
X0075592Y0008401D01*
X0075455Y0008346D01*
X0075316Y0008296D01*
X0075175Y0008249D01*
X0075034Y0008206D01*
X0074891Y0008166D01*
X0074747Y0008131D01*
X0074603Y0008099D01*
X0074457Y0008072D01*
X0074311Y0008048D01*
X0074164Y0008028D01*
X0074017Y0008012D01*
X0073870Y0008000D01*
X0073722Y0007992D01*
X0073574Y0007988D01*
X0073426Y0007988D01*
X0073278Y0007992D01*
X0073130Y0008000D01*
X0072983Y0008012D01*
X0072836Y0008028D01*
X0072689Y0008048D01*
X0072543Y0008072D01*
X0072397Y0008099D01*
X0072253Y0008131D01*
X0072109Y0008166D01*
X0071966Y0008206D01*
X0071825Y0008249D01*
X0071684Y0008296D01*
X0071545Y0008346D01*
X0071408Y0008401D01*
X0071272Y0008459D01*
X0071137Y0008520D01*
X0071004Y0008585D01*
X0070873Y0008654D01*
X0070744Y0008726D01*
X0070617Y0008802D01*
X0070492Y0008881D01*
X0070369Y0008964D01*
X0070248Y0009049D01*
X0070130Y0009138D01*
X0070014Y0009230D01*
X0069901Y0009326D01*
X0069790Y0009424D01*
X0069682Y0009525D01*
X0069576Y0009629D01*
X0069474Y0009735D01*
X0069374Y0009845D01*
X0069278Y0009957D01*
X0069184Y0010072D01*
X0069093Y0010189D01*
X0069006Y0010308D01*
X0068922Y0010430D01*
X0068841Y0010554D01*
X0068764Y0010680D01*
X0068690Y0010808D01*
X0068619Y0010938D01*
X0068552Y0011070D01*
X0068489Y0011204D01*
X0068429Y0011339D01*
X0068373Y0011476D01*
X0068320Y0011615D01*
X0068272Y0011755D01*
X0068227Y0011896D01*
X0068186Y0012038D01*
X0068148Y0012181D01*
X0068115Y0012325D01*
X0068085Y0012470D01*
X0068059Y0012616D01*
X0068038Y0012762D01*
X0068020Y0012909D01*
X0068006Y0013056D01*
X0067996Y0013204D01*
X0067990Y0013352D01*
X0067988Y0013500D01*
X0001000Y0001000D02*
X0135700Y0001000D01*
D11*
X0046100Y0011000D02*
X0040900Y0011000D01*
X0040900Y0021000D02*
X0046100Y0021000D01*
X0046100Y0031000D02*
X0040900Y0031000D01*
X0040900Y0041000D02*
X0046100Y0041000D01*
X0046100Y0051000D02*
X0040900Y0051000D01*
X0040900Y0061000D02*
X0046100Y0061000D01*
X0046100Y0071000D02*
X0040900Y0071000D01*
X0040900Y0086000D02*
X0046100Y0086000D01*
X0046100Y0096000D02*
X0040900Y0096000D01*
X0040900Y0106000D02*
X0046100Y0106000D01*
X0046100Y0116000D02*
X0040900Y0116000D01*
X0040900Y0126000D02*
X0046100Y0126000D01*
X0046100Y0136000D02*
X0040900Y0136000D01*
X0040900Y0146000D02*
X0046100Y0146000D01*
X0048500Y0165900D02*
X0048500Y0171100D01*
X0038500Y0171100D02*
X0038500Y0165900D01*
X0028500Y0163400D02*
X0028500Y0168600D01*
X0018500Y0168600D02*
X0018500Y0163400D01*
X0008500Y0163400D02*
X0008500Y0168600D01*
X0010900Y0146000D02*
X0016100Y0146000D01*
X0016100Y0136000D02*
X0010900Y0136000D01*
X0010900Y0126000D02*
X0016100Y0126000D01*
X0016100Y0116000D02*
X0010900Y0116000D01*
X0010900Y0106000D02*
X0016100Y0106000D01*
X0016100Y0096000D02*
X0010900Y0096000D01*
X0010900Y0086000D02*
X0016100Y0086000D01*
X0016100Y0071000D02*
X0010900Y0071000D01*
X0010900Y0061000D02*
X0016100Y0061000D01*
X0016100Y0051000D02*
X0010900Y0051000D01*
X0010900Y0041000D02*
X0016100Y0041000D01*
X0016100Y0031000D02*
X0010900Y0031000D01*
X0010900Y0021000D02*
X0016100Y0021000D01*
X0016100Y0011000D02*
X0010900Y0011000D01*
X0058500Y0165900D02*
X0058500Y0171100D01*
X0068500Y0171100D02*
X0068500Y0165900D01*
X0078500Y0165900D02*
X0078500Y0171100D01*
X0088500Y0171100D02*
X0088500Y0165900D01*
X0093500Y0178400D02*
X0093500Y0183600D01*
X0103500Y0183600D02*
X0103500Y0178400D01*
X0113500Y0178400D02*
X0113500Y0183600D01*
D12*
X0088500Y0156000D03*
X0088500Y0146000D03*
X0088500Y0136000D03*
X0088500Y0126000D03*
X0088500Y0116000D03*
X0088500Y0106000D03*
X0088500Y0096000D03*
X0088500Y0086000D03*
X0088500Y0076000D03*
X0088500Y0066000D03*
X0088500Y0056000D03*
X0088500Y0046000D03*
X0088500Y0036000D03*
X0088500Y0026000D03*
X0058500Y0026000D03*
X0058500Y0036000D03*
X0058500Y0046000D03*
X0058500Y0056000D03*
X0058500Y0066000D03*
X0058500Y0076000D03*
X0058500Y0086000D03*
X0058500Y0096000D03*
X0058500Y0106000D03*
X0058500Y0116000D03*
X0058500Y0126000D03*
X0058500Y0136000D03*
X0058500Y0146000D03*
X0058500Y0156000D03*
X0048500Y0186000D03*
X0048500Y0196000D03*
X0038500Y0196000D03*
X0038500Y0186000D03*
X0008500Y0186000D03*
X0008500Y0196000D03*
X0078500Y0196000D03*
X0078500Y0186000D03*
D13*
X0073500Y0208000D02*
X0073500Y0214000D01*
X0063500Y0214000D02*
X0063500Y0208000D01*
X0053500Y0208000D02*
X0053500Y0214000D01*
X0043500Y0214000D02*
X0043500Y0208000D01*
X0033500Y0208000D02*
X0033500Y0214000D01*
X0023500Y0214000D02*
X0023500Y0208000D01*
X0013500Y0208000D02*
X0013500Y0214000D01*
X0083500Y0214000D02*
X0083500Y0208000D01*
X0098500Y0204000D02*
X0098500Y0198000D01*
X0108500Y0198000D02*
X0108500Y0204000D01*
X0118500Y0204000D02*
X0118500Y0198000D01*
X0128500Y0198000D02*
X0128500Y0204000D01*
X0111500Y0161000D02*
X0105500Y0161000D01*
X0105500Y0151000D02*
X0111500Y0151000D01*
X0111500Y0141000D02*
X0105500Y0141000D01*
X0105500Y0131000D02*
X0111500Y0131000D01*
X0111500Y0121000D02*
X0105500Y0121000D01*
X0105500Y0111000D02*
X0111500Y0111000D01*
X0111500Y0101000D02*
X0105500Y0101000D01*
X0105500Y0091000D02*
X0111500Y0091000D01*
X0111500Y0081000D02*
X0105500Y0081000D01*
X0105500Y0071000D02*
X0111500Y0071000D01*
X0111500Y0061000D02*
X0105500Y0061000D01*
X0105500Y0051000D02*
X0111500Y0051000D01*
X0111500Y0041000D02*
X0105500Y0041000D01*
X0105500Y0031000D02*
X0111500Y0031000D01*
X0111500Y0021000D02*
X0105500Y0021000D01*
X0105500Y0011000D02*
X0111500Y0011000D01*
D14*
X0108500Y0021000D02*
X0105375Y0021000D01*
X0096000Y0030375D01*
X0088500Y0030375D01*
X0072875Y0046000D01*
X0065375Y0058500D02*
X0087250Y0080375D01*
X0088500Y0080375D01*
X0094750Y0086625D01*
X0113500Y0086625D01*
X0116000Y0089125D01*
X0116000Y0107250D01*
X0112250Y0111000D01*
X0108500Y0111000D01*
X0108500Y0101000D02*
X0107875Y0100375D01*
X0065375Y0100375D01*
X0061000Y0096000D01*
X0058500Y0096000D01*
X0058500Y0090375D02*
X0056000Y0090375D01*
X0046625Y0081000D01*
X0022875Y0081000D01*
X0022875Y0068500D01*
X0022250Y0061000D02*
X0040375Y0079125D01*
X0051000Y0079125D01*
X0057875Y0086000D01*
X0058500Y0086000D01*
X0057875Y0086000D02*
X0062875Y0091000D01*
X0108500Y0091000D01*
X0108500Y0081000D02*
X0112875Y0081000D01*
X0117875Y0086000D01*
X0117875Y0168500D01*
X0108500Y0177875D01*
X0108500Y0201000D01*
X0098500Y0201000D02*
X0098500Y0198500D01*
X0093500Y0193500D01*
X0093500Y0181000D01*
X0093500Y0179125D01*
X0077875Y0179125D01*
X0068500Y0169750D01*
X0068500Y0168500D01*
X0068500Y0164125D01*
X0058500Y0154125D01*
X0058500Y0156000D01*
X0058500Y0154125D02*
X0058500Y0146000D01*
X0058500Y0136000D01*
X0058500Y0126000D01*
X0064125Y0121000D02*
X0059125Y0116000D01*
X0058500Y0116000D01*
X0064125Y0121000D02*
X0108500Y0121000D01*
X0113500Y0126625D02*
X0089125Y0126625D01*
X0088500Y0126000D01*
X0088500Y0106000D02*
X0077875Y0106000D01*
X0072250Y0111625D01*
X0052250Y0111625D01*
X0047875Y0116000D01*
X0043500Y0116000D01*
X0042250Y0116000D01*
X0034125Y0107875D01*
X0034125Y0106000D01*
X0013500Y0106000D01*
X0013500Y0096000D02*
X0016000Y0096000D01*
X0022875Y0089125D01*
X0022875Y0081000D01*
X0022250Y0061000D02*
X0013500Y0061000D01*
X0013500Y0051000D02*
X0016000Y0051000D01*
X0022562Y0044437D01*
X0029125Y0051000D01*
X0043500Y0051000D01*
X0058500Y0036000D01*
X0057875Y0036000D01*
X0052875Y0031000D01*
X0043500Y0031000D01*
X0043500Y0021000D02*
X0059125Y0021000D01*
X0065375Y0027250D01*
X0065375Y0058500D01*
X0065375Y0087250D01*
X0058500Y0090375D02*
X0064125Y0096000D01*
X0088500Y0096000D01*
X0088500Y0086000D02*
X0077875Y0086000D01*
X0069125Y0077250D01*
X0058500Y0056000D02*
X0062875Y0051625D01*
X0062875Y0032250D01*
X0061625Y0031000D01*
X0088500Y0046000D02*
X0088500Y0056000D01*
X0088500Y0066000D01*
X0088500Y0076000D01*
X0074750Y0104125D02*
X0062250Y0104125D01*
X0059750Y0101625D01*
X0052250Y0101625D01*
X0047875Y0106000D01*
X0043500Y0106000D01*
X0043500Y0096000D02*
X0043500Y0093500D01*
X0034125Y0102875D01*
X0034125Y0106000D01*
X0043500Y0093500D02*
X0043500Y0086000D01*
X0022562Y0044437D02*
X0022875Y0044125D01*
X0022875Y0039125D01*
X0014750Y0031000D01*
X0013500Y0031000D01*
X0013500Y0041000D02*
X0008500Y0041000D01*
X0006000Y0043500D01*
X0006000Y0123500D01*
X0006312Y0123812D01*
X0006000Y0124125D01*
X0006000Y0156625D01*
X0031000Y0156625D01*
X0039125Y0164750D01*
X0038500Y0168500D01*
X0038500Y0166000D01*
X0058500Y0146000D01*
X0062250Y0151625D02*
X0067875Y0146000D01*
X0088500Y0146000D01*
X0088500Y0156000D02*
X0074125Y0156000D01*
X0058500Y0168500D02*
X0058500Y0175375D01*
X0048500Y0185375D01*
X0048500Y0186000D01*
X0038500Y0186000D02*
X0036000Y0186000D01*
X0013500Y0208500D01*
X0013500Y0211000D01*
X0011000Y0186000D02*
X0008500Y0186000D01*
X0011000Y0186000D02*
X0028500Y0168500D01*
X0028500Y0166000D01*
X0038500Y0196000D02*
X0038500Y0202875D01*
X0043500Y0207875D01*
X0043500Y0211000D01*
X0053500Y0211000D02*
X0063500Y0211000D01*
X0073500Y0211000D01*
X0083500Y0211000D01*
X0083500Y0215375D01*
X0086625Y0218500D01*
X0114750Y0218500D01*
X0128500Y0204750D01*
X0128500Y0201000D01*
X0103500Y0178500D02*
X0116000Y0166000D01*
X0116000Y0129125D01*
X0113500Y0126625D01*
X0108500Y0131000D02*
X0108500Y0141000D01*
X0108500Y0151000D01*
X0108500Y0161000D01*
X0093500Y0176000D01*
X0093500Y0179125D01*
X0103500Y0178500D02*
X0103500Y0181000D01*
X0108500Y0081000D02*
X0108500Y0071000D01*
X0108500Y0061000D01*
X0108500Y0051000D01*
X0026000Y0037875D02*
X0026000Y0022250D01*
X0014750Y0011000D01*
X0013500Y0011000D01*
X0006312Y0123812D02*
X0008500Y0126000D01*
X0013500Y0126000D01*
X0006000Y0156625D02*
X0006000Y0159750D01*
X0008500Y0162250D01*
X0008500Y0166000D01*
D15*
X0062250Y0151625D03*
X0074125Y0156000D03*
X0074750Y0104125D03*
X0065375Y0087250D03*
X0069125Y0077250D03*
X0072875Y0046000D03*
X0061625Y0031000D03*
X0026000Y0037875D03*
X0022875Y0068500D03*
D16*
X0023180Y0064900D02*
X0022159Y0064900D01*
X0020836Y0065448D01*
X0019823Y0066461D01*
X0019275Y0067784D01*
X0019275Y0068235D01*
X0018479Y0067439D01*
X0016935Y0066800D01*
X0010065Y0066800D01*
X0008521Y0067439D01*
X0008500Y0067460D01*
X0008500Y0064540D01*
X0008521Y0064561D01*
X0010065Y0065200D01*
X0016935Y0065200D01*
X0018479Y0064561D01*
X0019661Y0063379D01*
X0019776Y0063100D01*
X0021380Y0063100D01*
X0023180Y0064900D01*
X0022061Y0064940D02*
X0017562Y0064940D01*
X0019676Y0063342D02*
X0021622Y0063342D01*
X0019791Y0066539D02*
X0008500Y0066539D01*
X0008500Y0064940D02*
X0009438Y0064940D01*
X0008500Y0057460D02*
X0008521Y0057439D01*
X0010065Y0056800D01*
X0016935Y0056800D01*
X0018479Y0057439D01*
X0019661Y0058621D01*
X0019776Y0058900D01*
X0023120Y0058900D01*
X0037156Y0072936D01*
X0036700Y0071835D01*
X0036700Y0070165D01*
X0037339Y0068621D01*
X0038521Y0067439D01*
X0040065Y0066800D01*
X0046935Y0066800D01*
X0048479Y0067439D01*
X0049661Y0068621D01*
X0050300Y0070165D01*
X0050300Y0071835D01*
X0049661Y0073379D01*
X0048479Y0074561D01*
X0046935Y0075200D01*
X0040065Y0075200D01*
X0038964Y0074744D01*
X0041245Y0077025D01*
X0051870Y0077025D01*
X0056703Y0081858D01*
X0056760Y0081800D01*
X0060240Y0081800D01*
X0062700Y0084260D01*
X0062700Y0084834D01*
X0063275Y0084259D01*
X0063275Y0054195D01*
X0062700Y0054770D01*
X0062700Y0057740D01*
X0060240Y0060200D01*
X0056760Y0060200D01*
X0054300Y0057740D01*
X0054300Y0054260D01*
X0056760Y0051800D01*
X0059730Y0051800D01*
X0060775Y0050755D01*
X0060775Y0049665D01*
X0060240Y0050200D01*
X0056760Y0050200D01*
X0054300Y0047740D01*
X0054300Y0044260D01*
X0056760Y0041800D01*
X0060240Y0041800D01*
X0060775Y0042335D01*
X0060775Y0039665D01*
X0060240Y0040200D01*
X0057270Y0040200D01*
X0049255Y0048215D01*
X0049661Y0048621D01*
X0050300Y0050165D01*
X0050300Y0051835D01*
X0049661Y0053379D01*
X0048479Y0054561D01*
X0046935Y0055200D01*
X0040065Y0055200D01*
X0038521Y0054561D01*
X0037339Y0053379D01*
X0037224Y0053100D01*
X0028255Y0053100D01*
X0022562Y0047407D01*
X0020155Y0049815D01*
X0020300Y0050165D01*
X0020300Y0051835D01*
X0019661Y0053379D01*
X0018479Y0054561D01*
X0016935Y0055200D01*
X0010065Y0055200D01*
X0008521Y0054561D01*
X0008500Y0054540D01*
X0008500Y0057460D01*
X0008500Y0056948D02*
X0009707Y0056948D01*
X0008500Y0055349D02*
X0054300Y0055349D01*
X0054300Y0056948D02*
X0047292Y0056948D01*
X0046935Y0056800D02*
X0048479Y0057439D01*
X0049661Y0058621D01*
X0050300Y0060165D01*
X0050300Y0061835D01*
X0049661Y0063379D01*
X0048479Y0064561D01*
X0046935Y0065200D01*
X0040065Y0065200D01*
X0038521Y0064561D01*
X0037339Y0063379D01*
X0036700Y0061835D01*
X0036700Y0060165D01*
X0037339Y0058621D01*
X0038521Y0057439D01*
X0040065Y0056800D01*
X0046935Y0056800D01*
X0049289Y0053751D02*
X0054809Y0053751D01*
X0056408Y0052152D02*
X0050169Y0052152D01*
X0050300Y0050554D02*
X0060775Y0050554D01*
X0062700Y0055349D02*
X0063275Y0055349D01*
X0063275Y0056948D02*
X0062700Y0056948D01*
X0063275Y0058546D02*
X0061893Y0058546D01*
X0063275Y0060145D02*
X0060295Y0060145D01*
X0060240Y0061800D02*
X0062700Y0064260D01*
X0062700Y0067740D01*
X0060240Y0070200D01*
X0056760Y0070200D01*
X0054300Y0067740D01*
X0054300Y0064260D01*
X0056760Y0061800D01*
X0060240Y0061800D01*
X0061782Y0063342D02*
X0063275Y0063342D01*
X0063275Y0064940D02*
X0062700Y0064940D01*
X0062700Y0066539D02*
X0063275Y0066539D01*
X0063275Y0068137D02*
X0062302Y0068137D01*
X0063275Y0069736D02*
X0060704Y0069736D01*
X0060240Y0071800D02*
X0062700Y0074260D01*
X0062700Y0077740D01*
X0060240Y0080200D01*
X0056760Y0080200D01*
X0054300Y0077740D01*
X0054300Y0074260D01*
X0056760Y0071800D01*
X0060240Y0071800D01*
X0061373Y0072933D02*
X0063275Y0072933D01*
X0063275Y0071334D02*
X0050300Y0071334D01*
X0050122Y0069736D02*
X0056296Y0069736D01*
X0054698Y0068137D02*
X0049177Y0068137D01*
X0047562Y0064940D02*
X0054300Y0064940D01*
X0054300Y0066539D02*
X0030759Y0066539D01*
X0032357Y0068137D02*
X0037823Y0068137D01*
X0036878Y0069736D02*
X0033956Y0069736D01*
X0035554Y0071334D02*
X0036700Y0071334D01*
X0037153Y0072933D02*
X0037155Y0072933D01*
X0034410Y0076130D02*
X0024975Y0076130D01*
X0024975Y0074532D02*
X0032812Y0074532D01*
X0031213Y0072933D02*
X0024975Y0072933D01*
X0024975Y0071491D02*
X0024975Y0078900D01*
X0037180Y0078900D01*
X0026475Y0068195D01*
X0026475Y0069216D01*
X0025927Y0070539D01*
X0024975Y0071491D01*
X0025132Y0071334D02*
X0029615Y0071334D01*
X0028016Y0069736D02*
X0026260Y0069736D01*
X0029160Y0064940D02*
X0039438Y0064940D01*
X0037324Y0063342D02*
X0027562Y0063342D01*
X0025963Y0061743D02*
X0036700Y0061743D01*
X0036708Y0060145D02*
X0024365Y0060145D01*
X0019586Y0058546D02*
X0037414Y0058546D01*
X0039707Y0056948D02*
X0017292Y0056948D01*
X0019289Y0053751D02*
X0037711Y0053751D01*
X0037224Y0048900D02*
X0037339Y0048621D01*
X0038521Y0047439D01*
X0040065Y0046800D01*
X0044730Y0046800D01*
X0046330Y0045200D01*
X0040065Y0045200D01*
X0038521Y0044561D01*
X0037339Y0043379D01*
X0036700Y0041835D01*
X0036700Y0040165D01*
X0037339Y0038621D01*
X0038521Y0037439D01*
X0040065Y0036800D01*
X0046935Y0036800D01*
X0048479Y0037439D01*
X0049661Y0038621D01*
X0050300Y0040165D01*
X0050300Y0041230D01*
X0054300Y0037230D01*
X0054300Y0035395D01*
X0052005Y0033100D01*
X0049776Y0033100D01*
X0049661Y0033379D01*
X0048479Y0034561D01*
X0046935Y0035200D01*
X0040065Y0035200D01*
X0038521Y0034561D01*
X0037339Y0033379D01*
X0036700Y0031835D01*
X0036700Y0030165D01*
X0037339Y0028621D01*
X0038521Y0027439D01*
X0040065Y0026800D01*
X0046935Y0026800D01*
X0048479Y0027439D01*
X0049661Y0028621D01*
X0049776Y0028900D01*
X0053745Y0028900D01*
X0056703Y0031858D01*
X0056760Y0031800D01*
X0058060Y0031800D01*
X0058025Y0031716D01*
X0058025Y0030284D01*
X0058060Y0030200D01*
X0056760Y0030200D01*
X0054300Y0027740D01*
X0054300Y0024260D01*
X0055460Y0023100D01*
X0049776Y0023100D01*
X0049661Y0023379D01*
X0048479Y0024561D01*
X0046935Y0025200D01*
X0040065Y0025200D01*
X0038521Y0024561D01*
X0037339Y0023379D01*
X0036700Y0021835D01*
X0036700Y0020165D01*
X0037339Y0018621D01*
X0038521Y0017439D01*
X0040065Y0016800D01*
X0046935Y0016800D01*
X0048479Y0017439D01*
X0049661Y0018621D01*
X0049776Y0018900D01*
X0059995Y0018900D01*
X0066245Y0025150D01*
X0067475Y0026380D01*
X0067475Y0057630D01*
X0084300Y0074455D01*
X0084300Y0074260D01*
X0086400Y0072160D01*
X0086400Y0069840D01*
X0084300Y0067740D01*
X0084300Y0064260D01*
X0086400Y0062160D01*
X0086400Y0059840D01*
X0084300Y0057740D01*
X0084300Y0054260D01*
X0086400Y0052160D01*
X0086400Y0049840D01*
X0084300Y0047740D01*
X0084300Y0044260D01*
X0086760Y0041800D01*
X0090240Y0041800D01*
X0092700Y0044260D01*
X0092700Y0047740D01*
X0090600Y0049840D01*
X0090600Y0052160D01*
X0092700Y0054260D01*
X0092700Y0057740D01*
X0090600Y0059840D01*
X0090600Y0062160D01*
X0092700Y0064260D01*
X0092700Y0067740D01*
X0090600Y0069840D01*
X0090600Y0072160D01*
X0092700Y0074260D01*
X0092700Y0077740D01*
X0090767Y0079672D01*
X0095620Y0084525D01*
X0102520Y0084525D01*
X0101600Y0083606D01*
X0100900Y0081915D01*
X0100900Y0080085D01*
X0101600Y0078394D01*
X0102894Y0077100D01*
X0104585Y0076400D01*
X0106400Y0076400D01*
X0106400Y0075600D01*
X0104585Y0075600D01*
X0102894Y0074900D01*
X0101600Y0073606D01*
X0100900Y0071915D01*
X0100900Y0070085D01*
X0101600Y0068394D01*
X0102894Y0067100D01*
X0104585Y0066400D01*
X0106400Y0066400D01*
X0106400Y0065600D01*
X0104585Y0065600D01*
X0102894Y0064900D01*
X0101600Y0063606D01*
X0100900Y0061915D01*
X0100900Y0060085D01*
X0101600Y0058394D01*
X0102894Y0057100D01*
X0104585Y0056400D01*
X0106400Y0056400D01*
X0106400Y0055600D01*
X0104585Y0055600D01*
X0102894Y0054900D01*
X0101600Y0053606D01*
X0100900Y0051915D01*
X0100900Y0050085D01*
X0101600Y0048394D01*
X0102894Y0047100D01*
X0104585Y0046400D01*
X0112415Y0046400D01*
X0113500Y0046849D01*
X0113500Y0045151D01*
X0112415Y0045600D01*
X0104585Y0045600D01*
X0102894Y0044900D01*
X0101600Y0043606D01*
X0100900Y0041915D01*
X0100900Y0040085D01*
X0101600Y0038394D01*
X0102894Y0037100D01*
X0104585Y0036400D01*
X0112415Y0036400D01*
X0113500Y0036849D01*
X0113500Y0035151D01*
X0112415Y0035600D01*
X0104585Y0035600D01*
X0102894Y0034900D01*
X0101600Y0033606D01*
X0100900Y0031915D01*
X0100900Y0030085D01*
X0101600Y0028394D01*
X0102894Y0027100D01*
X0104585Y0026400D01*
X0112415Y0026400D01*
X0113500Y0026849D01*
X0113500Y0025151D01*
X0112415Y0025600D01*
X0104585Y0025600D01*
X0103991Y0025354D01*
X0096870Y0032475D01*
X0090915Y0032475D01*
X0092700Y0034260D01*
X0092700Y0037740D01*
X0090240Y0040200D01*
X0086760Y0040200D01*
X0084300Y0037740D01*
X0084300Y0037545D01*
X0076475Y0045370D01*
X0076475Y0046716D01*
X0075927Y0048039D01*
X0074914Y0049052D01*
X0073591Y0049600D01*
X0072159Y0049600D01*
X0070836Y0049052D01*
X0069823Y0048039D01*
X0069275Y0046716D01*
X0069275Y0045284D01*
X0069823Y0043961D01*
X0070836Y0042948D01*
X0072159Y0042400D01*
X0073505Y0042400D01*
X0086233Y0029672D01*
X0084300Y0027740D01*
X0084300Y0024260D01*
X0086760Y0021800D01*
X0090240Y0021800D01*
X0092700Y0024260D01*
X0092700Y0027740D01*
X0092165Y0028275D01*
X0095130Y0028275D01*
X0101073Y0022332D01*
X0100900Y0021915D01*
X0100900Y0020085D01*
X0101600Y0018394D01*
X0102894Y0017100D01*
X0104585Y0016400D01*
X0112415Y0016400D01*
X0113500Y0016849D01*
X0113500Y0015151D01*
X0112415Y0015600D01*
X0104585Y0015600D01*
X0102894Y0014900D01*
X0101600Y0013606D01*
X0100900Y0011915D01*
X0100900Y0010085D01*
X0101600Y0008394D01*
X0102894Y0007100D01*
X0104585Y0006400D01*
X0112415Y0006400D01*
X0113500Y0006849D01*
X0113500Y0006000D01*
X0080583Y0006000D01*
X0081751Y0007168D01*
X0083109Y0009520D01*
X0083812Y0012142D01*
X0083812Y0014858D01*
X0083109Y0017480D01*
X0081751Y0019832D01*
X0079832Y0021751D01*
X0077480Y0023109D01*
X0074858Y0023812D01*
X0072142Y0023812D01*
X0069520Y0023109D01*
X0067168Y0021751D01*
X0065248Y0019832D01*
X0063891Y0017480D01*
X0063188Y0014858D01*
X0063188Y0012142D01*
X0063891Y0009520D01*
X0065248Y0007168D01*
X0066417Y0006000D01*
X0008500Y0006000D01*
X0008500Y0007460D01*
X0008521Y0007439D01*
X0010065Y0006800D01*
X0016935Y0006800D01*
X0018479Y0007439D01*
X0019661Y0008621D01*
X0020300Y0010165D01*
X0020300Y0011835D01*
X0019789Y0013069D01*
X0026870Y0020150D01*
X0028100Y0021380D01*
X0028100Y0034884D01*
X0029052Y0035836D01*
X0029600Y0037159D01*
X0029600Y0038591D01*
X0029052Y0039914D01*
X0028039Y0040927D01*
X0026716Y0041475D01*
X0025284Y0041475D01*
X0024975Y0041347D01*
X0024975Y0043880D01*
X0029995Y0048900D01*
X0037224Y0048900D01*
X0038720Y0047357D02*
X0028452Y0047357D01*
X0026853Y0045758D02*
X0045772Y0045758D01*
X0050113Y0047357D02*
X0054300Y0047357D01*
X0054300Y0045758D02*
X0051712Y0045758D01*
X0053310Y0044160D02*
X0054400Y0044160D01*
X0054909Y0042561D02*
X0055999Y0042561D01*
X0056507Y0040963D02*
X0060775Y0040963D01*
X0067475Y0040963D02*
X0074942Y0040963D01*
X0076541Y0039364D02*
X0067475Y0039364D01*
X0067475Y0037766D02*
X0078139Y0037766D01*
X0079738Y0036167D02*
X0067475Y0036167D01*
X0067475Y0034569D02*
X0081336Y0034569D01*
X0082935Y0032970D02*
X0067475Y0032970D01*
X0067475Y0031372D02*
X0084533Y0031372D01*
X0086132Y0029773D02*
X0067475Y0029773D01*
X0067475Y0028175D02*
X0084735Y0028175D01*
X0084300Y0026576D02*
X0067475Y0026576D01*
X0066073Y0024978D02*
X0084300Y0024978D01*
X0085181Y0023379D02*
X0076472Y0023379D01*
X0079781Y0021781D02*
X0100900Y0021781D01*
X0100900Y0020182D02*
X0081401Y0020182D01*
X0082472Y0018584D02*
X0101522Y0018584D01*
X0103172Y0016985D02*
X0083242Y0016985D01*
X0083670Y0015387D02*
X0104070Y0015387D01*
X0101783Y0013788D02*
X0083812Y0013788D01*
X0083812Y0012190D02*
X0101014Y0012190D01*
X0100900Y0010591D02*
X0083396Y0010591D01*
X0082805Y0008993D02*
X0101352Y0008993D01*
X0102601Y0007394D02*
X0081882Y0007394D01*
X0091819Y0023379D02*
X0100026Y0023379D01*
X0098427Y0024978D02*
X0092700Y0024978D01*
X0092700Y0026576D02*
X0096829Y0026576D01*
X0095230Y0028175D02*
X0092265Y0028175D01*
X0091410Y0032970D02*
X0101337Y0032970D01*
X0100900Y0031372D02*
X0097973Y0031372D01*
X0099572Y0029773D02*
X0101029Y0029773D01*
X0101170Y0028175D02*
X0101820Y0028175D01*
X0102769Y0026576D02*
X0104160Y0026576D01*
X0102563Y0034569D02*
X0092700Y0034569D01*
X0092700Y0036167D02*
X0113500Y0036167D01*
X0113500Y0026576D02*
X0112840Y0026576D01*
X0112930Y0015387D02*
X0113500Y0015387D01*
X0102229Y0037766D02*
X0092674Y0037766D01*
X0091075Y0039364D02*
X0101199Y0039364D01*
X0100900Y0040963D02*
X0080882Y0040963D01*
X0079284Y0042561D02*
X0085999Y0042561D01*
X0084400Y0044160D02*
X0077685Y0044160D01*
X0076475Y0045758D02*
X0084300Y0045758D01*
X0084300Y0047357D02*
X0076210Y0047357D01*
X0075011Y0048955D02*
X0085516Y0048955D01*
X0086400Y0050554D02*
X0067475Y0050554D01*
X0067475Y0052152D02*
X0086400Y0052152D01*
X0084809Y0053751D02*
X0067475Y0053751D01*
X0067475Y0055349D02*
X0084300Y0055349D01*
X0084300Y0056948D02*
X0067475Y0056948D01*
X0068391Y0058546D02*
X0085107Y0058546D01*
X0086400Y0060145D02*
X0069990Y0060145D01*
X0071588Y0061743D02*
X0086400Y0061743D01*
X0085218Y0063342D02*
X0073187Y0063342D01*
X0074785Y0064940D02*
X0084300Y0064940D01*
X0084300Y0066539D02*
X0076384Y0066539D01*
X0077982Y0068137D02*
X0084698Y0068137D01*
X0086296Y0069736D02*
X0079581Y0069736D01*
X0081179Y0071334D02*
X0086400Y0071334D01*
X0085627Y0072933D02*
X0082778Y0072933D01*
X0080035Y0076130D02*
X0072558Y0076130D01*
X0072725Y0076534D02*
X0072725Y0077880D01*
X0078745Y0083900D01*
X0084660Y0083900D01*
X0086233Y0082328D01*
X0067475Y0063570D01*
X0067475Y0074037D01*
X0068409Y0073650D01*
X0069841Y0073650D01*
X0071164Y0074198D01*
X0072177Y0075211D01*
X0072725Y0076534D01*
X0072725Y0077729D02*
X0081634Y0077729D01*
X0083232Y0079327D02*
X0074172Y0079327D01*
X0075770Y0080926D02*
X0084831Y0080926D01*
X0086036Y0082524D02*
X0077369Y0082524D01*
X0074626Y0085721D02*
X0068638Y0085721D01*
X0068427Y0085211D02*
X0068975Y0086534D01*
X0068975Y0087966D01*
X0068588Y0088900D01*
X0085460Y0088900D01*
X0084660Y0088100D01*
X0077005Y0088100D01*
X0069755Y0080850D01*
X0068409Y0080850D01*
X0067475Y0080463D01*
X0067475Y0084259D01*
X0068427Y0085211D01*
X0067475Y0084123D02*
X0073028Y0084123D01*
X0071429Y0082524D02*
X0067475Y0082524D01*
X0067475Y0080926D02*
X0069831Y0080926D01*
X0071498Y0074532D02*
X0078437Y0074532D01*
X0076838Y0072933D02*
X0067475Y0072933D01*
X0067475Y0071334D02*
X0075240Y0071334D01*
X0073641Y0069736D02*
X0067475Y0069736D01*
X0067475Y0068137D02*
X0072043Y0068137D01*
X0070444Y0066539D02*
X0067475Y0066539D01*
X0067475Y0064940D02*
X0068846Y0064940D01*
X0063275Y0061743D02*
X0050300Y0061743D01*
X0050292Y0060145D02*
X0056705Y0060145D01*
X0055107Y0058546D02*
X0049586Y0058546D01*
X0049676Y0063342D02*
X0055218Y0063342D01*
X0055627Y0072933D02*
X0049845Y0072933D01*
X0048508Y0074532D02*
X0054300Y0074532D01*
X0054300Y0076130D02*
X0040350Y0076130D01*
X0036009Y0077729D02*
X0024975Y0077729D01*
X0024975Y0083100D02*
X0024975Y0089995D01*
X0020155Y0094815D01*
X0020300Y0095165D01*
X0020300Y0096835D01*
X0019661Y0098379D01*
X0018479Y0099561D01*
X0016935Y0100200D01*
X0010065Y0100200D01*
X0008521Y0099561D01*
X0008500Y0099540D01*
X0008500Y0102460D01*
X0008521Y0102439D01*
X0010065Y0101800D01*
X0016935Y0101800D01*
X0018479Y0102439D01*
X0019661Y0103621D01*
X0019776Y0103900D01*
X0032025Y0103900D01*
X0032025Y0103745D01*
X0032025Y0102005D01*
X0036845Y0097185D01*
X0036700Y0096835D01*
X0036700Y0095165D01*
X0037339Y0093621D01*
X0038521Y0092439D01*
X0040065Y0091800D01*
X0041400Y0091800D01*
X0041400Y0090200D01*
X0040065Y0090200D01*
X0038521Y0089561D01*
X0037339Y0088379D01*
X0036700Y0086835D01*
X0036700Y0085165D01*
X0037339Y0083621D01*
X0037860Y0083100D01*
X0024975Y0083100D01*
X0024975Y0084123D02*
X0037132Y0084123D01*
X0036700Y0085721D02*
X0024975Y0085721D01*
X0024975Y0087320D02*
X0036901Y0087320D01*
X0037878Y0088918D02*
X0024975Y0088918D01*
X0024453Y0090517D02*
X0041400Y0090517D01*
X0039304Y0092115D02*
X0022855Y0092115D01*
X0021256Y0093714D02*
X0037301Y0093714D01*
X0036700Y0095312D02*
X0020300Y0095312D01*
X0020269Y0096911D02*
X0036731Y0096911D01*
X0035521Y0098509D02*
X0019530Y0098509D01*
X0017158Y0100108D02*
X0033922Y0100108D01*
X0032324Y0101706D02*
X0008500Y0101706D01*
X0008500Y0100108D02*
X0009842Y0100108D01*
X0008500Y0092460D02*
X0008521Y0092439D01*
X0010065Y0091800D01*
X0016935Y0091800D01*
X0017144Y0091886D01*
X0020775Y0088255D01*
X0020775Y0071491D01*
X0020300Y0071016D01*
X0020300Y0071835D01*
X0019661Y0073379D01*
X0018479Y0074561D01*
X0016935Y0075200D01*
X0010065Y0075200D01*
X0008521Y0074561D01*
X0008500Y0074540D01*
X0008500Y0082460D01*
X0008521Y0082439D01*
X0010065Y0081800D01*
X0016935Y0081800D01*
X0018479Y0082439D01*
X0019661Y0083621D01*
X0020300Y0085165D01*
X0020300Y0086835D01*
X0019661Y0088379D01*
X0018479Y0089561D01*
X0016935Y0090200D01*
X0010065Y0090200D01*
X0008521Y0089561D01*
X0008500Y0089540D01*
X0008500Y0092460D01*
X0008500Y0092115D02*
X0009304Y0092115D01*
X0008500Y0090517D02*
X0018514Y0090517D01*
X0019122Y0088918D02*
X0020112Y0088918D01*
X0020099Y0087320D02*
X0020775Y0087320D01*
X0020775Y0085721D02*
X0020300Y0085721D01*
X0019868Y0084123D02*
X0020775Y0084123D01*
X0020775Y0082524D02*
X0018564Y0082524D01*
X0020775Y0080926D02*
X0008500Y0080926D01*
X0008500Y0079327D02*
X0020775Y0079327D01*
X0020775Y0077729D02*
X0008500Y0077729D01*
X0008500Y0076130D02*
X0020775Y0076130D01*
X0020775Y0074532D02*
X0018508Y0074532D01*
X0019845Y0072933D02*
X0020775Y0072933D01*
X0020618Y0071334D02*
X0020300Y0071334D01*
X0019275Y0068137D02*
X0019177Y0068137D01*
X0020169Y0052152D02*
X0027308Y0052152D01*
X0025709Y0050554D02*
X0020300Y0050554D01*
X0021014Y0048955D02*
X0024110Y0048955D01*
X0025255Y0044160D02*
X0038120Y0044160D01*
X0037001Y0042561D02*
X0024975Y0042561D01*
X0027953Y0040963D02*
X0036700Y0040963D01*
X0037031Y0039364D02*
X0029280Y0039364D01*
X0029600Y0037766D02*
X0038195Y0037766D01*
X0038541Y0034569D02*
X0028100Y0034569D01*
X0028100Y0032970D02*
X0037170Y0032970D01*
X0036700Y0031372D02*
X0028100Y0031372D01*
X0028100Y0029773D02*
X0036862Y0029773D01*
X0037786Y0028175D02*
X0028100Y0028175D01*
X0028100Y0026576D02*
X0054300Y0026576D01*
X0054300Y0024978D02*
X0047472Y0024978D01*
X0049214Y0028175D02*
X0054735Y0028175D01*
X0054618Y0029773D02*
X0056334Y0029773D01*
X0056217Y0031372D02*
X0058025Y0031372D01*
X0062700Y0027549D02*
X0062707Y0027551D01*
X0062700Y0027545D01*
X0062700Y0027549D01*
X0064474Y0023379D02*
X0070528Y0023379D01*
X0067219Y0021781D02*
X0062875Y0021781D01*
X0061277Y0020182D02*
X0065599Y0020182D01*
X0064528Y0018584D02*
X0049623Y0018584D01*
X0048479Y0014561D02*
X0046935Y0015200D01*
X0040065Y0015200D01*
X0038521Y0014561D01*
X0037339Y0013379D01*
X0036700Y0011835D01*
X0036700Y0010165D01*
X0037339Y0008621D01*
X0038521Y0007439D01*
X0040065Y0006800D01*
X0046935Y0006800D01*
X0048479Y0007439D01*
X0049661Y0008621D01*
X0050300Y0010165D01*
X0050300Y0011835D01*
X0049661Y0013379D01*
X0048479Y0014561D01*
X0049252Y0013788D02*
X0063188Y0013788D01*
X0063188Y0012190D02*
X0050153Y0012190D01*
X0050300Y0010591D02*
X0063604Y0010591D01*
X0064195Y0008993D02*
X0049815Y0008993D01*
X0048370Y0007394D02*
X0065118Y0007394D01*
X0063330Y0015387D02*
X0022106Y0015387D01*
X0020508Y0013788D02*
X0037748Y0013788D01*
X0036847Y0012190D02*
X0020153Y0012190D01*
X0020300Y0010591D02*
X0036700Y0010591D01*
X0037185Y0008993D02*
X0019815Y0008993D01*
X0018370Y0007394D02*
X0038630Y0007394D01*
X0039618Y0016985D02*
X0023705Y0016985D01*
X0025303Y0018584D02*
X0037377Y0018584D01*
X0036700Y0020182D02*
X0026902Y0020182D01*
X0028100Y0021781D02*
X0036700Y0021781D01*
X0037339Y0023379D02*
X0028100Y0023379D01*
X0028100Y0024978D02*
X0039528Y0024978D01*
X0047382Y0016985D02*
X0063758Y0016985D01*
X0055181Y0023379D02*
X0049661Y0023379D01*
X0048459Y0034569D02*
X0053474Y0034569D01*
X0054300Y0036167D02*
X0029189Y0036167D01*
X0023900Y0034884D02*
X0023900Y0023120D01*
X0019844Y0019064D01*
X0020300Y0020165D01*
X0020300Y0021835D01*
X0019661Y0023379D01*
X0018479Y0024561D01*
X0016935Y0025200D01*
X0010065Y0025200D01*
X0008521Y0024561D01*
X0008500Y0024540D01*
X0008500Y0027460D01*
X0008521Y0027439D01*
X0010065Y0026800D01*
X0016935Y0026800D01*
X0018479Y0027439D01*
X0019661Y0028621D01*
X0020300Y0030165D01*
X0020300Y0031835D01*
X0019789Y0033069D01*
X0022833Y0036113D01*
X0022948Y0035836D01*
X0023900Y0034884D01*
X0023900Y0034569D02*
X0021289Y0034569D01*
X0019830Y0032970D02*
X0023900Y0032970D01*
X0023900Y0031372D02*
X0020300Y0031372D01*
X0020138Y0029773D02*
X0023900Y0029773D01*
X0023900Y0028175D02*
X0019214Y0028175D01*
X0017472Y0024978D02*
X0023900Y0024978D01*
X0023900Y0026576D02*
X0008500Y0026576D01*
X0008500Y0024978D02*
X0009528Y0024978D01*
X0008500Y0017460D02*
X0008521Y0017439D01*
X0010065Y0016800D01*
X0016935Y0016800D01*
X0018036Y0017256D01*
X0015980Y0015200D01*
X0010065Y0015200D01*
X0008521Y0014561D01*
X0008500Y0014540D01*
X0008500Y0017460D01*
X0008500Y0016985D02*
X0009618Y0016985D01*
X0008500Y0015387D02*
X0016167Y0015387D01*
X0017382Y0016985D02*
X0017765Y0016985D01*
X0020300Y0020182D02*
X0020962Y0020182D01*
X0020300Y0021781D02*
X0022561Y0021781D01*
X0023900Y0023379D02*
X0019661Y0023379D01*
X0015980Y0035200D02*
X0010065Y0035200D01*
X0008521Y0034561D01*
X0008500Y0034540D01*
X0008500Y0037460D01*
X0008521Y0037439D01*
X0010065Y0036800D01*
X0016935Y0036800D01*
X0018036Y0037256D01*
X0015980Y0035200D01*
X0016947Y0036167D02*
X0008500Y0036167D01*
X0008500Y0034569D02*
X0008541Y0034569D01*
X0008500Y0044540D02*
X0008500Y0047460D01*
X0008521Y0047439D01*
X0010065Y0046800D01*
X0016935Y0046800D01*
X0017144Y0046886D01*
X0020463Y0043568D01*
X0020775Y0043255D01*
X0020775Y0039995D01*
X0019844Y0039064D01*
X0020300Y0040165D01*
X0020300Y0041835D01*
X0019661Y0043379D01*
X0018479Y0044561D01*
X0016935Y0045200D01*
X0010065Y0045200D01*
X0008521Y0044561D01*
X0008500Y0044540D01*
X0008500Y0045758D02*
X0018272Y0045758D01*
X0018880Y0044160D02*
X0019870Y0044160D01*
X0019999Y0042561D02*
X0020775Y0042561D01*
X0020775Y0040963D02*
X0020300Y0040963D01*
X0020144Y0039364D02*
X0019968Y0039364D01*
X0008720Y0047357D02*
X0008500Y0047357D01*
X0008500Y0007394D02*
X0008630Y0007394D01*
X0048805Y0037766D02*
X0053764Y0037766D01*
X0052166Y0039364D02*
X0049968Y0039364D01*
X0050300Y0040963D02*
X0050567Y0040963D01*
X0049799Y0048955D02*
X0055516Y0048955D01*
X0067475Y0048955D02*
X0070739Y0048955D01*
X0069540Y0047357D02*
X0067475Y0047357D01*
X0067475Y0045758D02*
X0069275Y0045758D01*
X0069741Y0044160D02*
X0067475Y0044160D01*
X0067475Y0042561D02*
X0071770Y0042561D01*
X0082481Y0039364D02*
X0085925Y0039364D01*
X0084326Y0037766D02*
X0084079Y0037766D01*
X0091001Y0042561D02*
X0101168Y0042561D01*
X0102154Y0044160D02*
X0092599Y0044160D01*
X0092700Y0045758D02*
X0113500Y0045758D01*
X0113500Y0055151D02*
X0112415Y0055600D01*
X0110600Y0055600D01*
X0110600Y0056400D01*
X0112415Y0056400D01*
X0113500Y0056849D01*
X0113500Y0055151D01*
X0113500Y0055349D02*
X0113020Y0055349D01*
X0113500Y0065151D02*
X0112415Y0065600D01*
X0110600Y0065600D01*
X0110600Y0066400D01*
X0112415Y0066400D01*
X0113500Y0066849D01*
X0113500Y0065151D01*
X0113500Y0066539D02*
X0112750Y0066539D01*
X0113500Y0075151D02*
X0112415Y0075600D01*
X0110600Y0075600D01*
X0110600Y0076400D01*
X0112415Y0076400D01*
X0113500Y0076849D01*
X0113500Y0075151D01*
X0113500Y0076130D02*
X0110600Y0076130D01*
X0106400Y0076130D02*
X0092700Y0076130D01*
X0092700Y0074532D02*
X0102526Y0074532D01*
X0101322Y0072933D02*
X0091373Y0072933D01*
X0090600Y0071334D02*
X0100900Y0071334D01*
X0101045Y0069736D02*
X0090704Y0069736D01*
X0092302Y0068137D02*
X0101857Y0068137D01*
X0104249Y0066539D02*
X0092700Y0066539D01*
X0092700Y0064940D02*
X0102993Y0064940D01*
X0101491Y0063342D02*
X0091782Y0063342D01*
X0090600Y0061743D02*
X0100900Y0061743D01*
X0100900Y0060145D02*
X0090600Y0060145D01*
X0091893Y0058546D02*
X0101537Y0058546D01*
X0103262Y0056948D02*
X0092700Y0056948D01*
X0092700Y0055349D02*
X0103980Y0055349D01*
X0101745Y0053751D02*
X0092191Y0053751D01*
X0090600Y0052152D02*
X0100998Y0052152D01*
X0100900Y0050554D02*
X0090600Y0050554D01*
X0091484Y0048955D02*
X0101368Y0048955D01*
X0102638Y0047357D02*
X0092700Y0047357D01*
X0092700Y0077729D02*
X0102266Y0077729D01*
X0101214Y0079327D02*
X0091113Y0079327D01*
X0092020Y0080926D02*
X0100900Y0080926D01*
X0101152Y0082524D02*
X0093619Y0082524D01*
X0095217Y0084123D02*
X0102117Y0084123D01*
X0101463Y0088725D02*
X0093880Y0088725D01*
X0092700Y0087545D01*
X0092700Y0087740D01*
X0091540Y0088900D01*
X0101391Y0088900D01*
X0101463Y0088725D01*
X0101391Y0093100D02*
X0091540Y0093100D01*
X0092700Y0094260D01*
X0092700Y0097740D01*
X0092165Y0098275D01*
X0101720Y0098275D01*
X0102894Y0097100D01*
X0104585Y0096400D01*
X0112415Y0096400D01*
X0113500Y0096849D01*
X0113500Y0095151D01*
X0112415Y0095600D01*
X0104585Y0095600D01*
X0102894Y0094900D01*
X0101600Y0093606D01*
X0101391Y0093100D01*
X0101708Y0093714D02*
X0092153Y0093714D01*
X0092700Y0095312D02*
X0103890Y0095312D01*
X0103352Y0096911D02*
X0092700Y0096911D01*
X0090915Y0102475D02*
X0092700Y0104260D01*
X0092700Y0107740D01*
X0090240Y0110200D01*
X0086760Y0110200D01*
X0084660Y0108100D01*
X0078745Y0108100D01*
X0074350Y0112495D01*
X0073120Y0113725D01*
X0062165Y0113725D01*
X0062700Y0114260D01*
X0062700Y0116605D01*
X0064995Y0118900D01*
X0085460Y0118900D01*
X0084300Y0117740D01*
X0084300Y0114260D01*
X0086760Y0111800D01*
X0090240Y0111800D01*
X0092700Y0114260D01*
X0092700Y0117740D01*
X0091540Y0118900D01*
X0101391Y0118900D01*
X0101600Y0118394D01*
X0102894Y0117100D01*
X0104585Y0116400D01*
X0112415Y0116400D01*
X0113500Y0116849D01*
X0113500Y0115151D01*
X0112415Y0115600D01*
X0104585Y0115600D01*
X0102894Y0114900D01*
X0101600Y0113606D01*
X0100900Y0111915D01*
X0100900Y0110085D01*
X0101600Y0108394D01*
X0102894Y0107100D01*
X0104585Y0106400D01*
X0112415Y0106400D01*
X0113451Y0106829D01*
X0113500Y0106780D01*
X0113500Y0105151D01*
X0112415Y0105600D01*
X0104585Y0105600D01*
X0102894Y0104900D01*
X0101600Y0103606D01*
X0101132Y0102475D01*
X0090915Y0102475D01*
X0091744Y0103305D02*
X0101476Y0103305D01*
X0102903Y0104903D02*
X0092700Y0104903D01*
X0092700Y0106502D02*
X0104339Y0106502D01*
X0101894Y0108100D02*
X0092339Y0108100D01*
X0090741Y0109699D02*
X0101060Y0109699D01*
X0100900Y0111297D02*
X0075548Y0111297D01*
X0077146Y0109699D02*
X0086259Y0109699D01*
X0084661Y0108100D02*
X0078745Y0108100D01*
X0078350Y0103900D02*
X0084660Y0103900D01*
X0086085Y0102475D01*
X0077963Y0102475D01*
X0078350Y0103409D01*
X0078350Y0103900D01*
X0078307Y0103305D02*
X0085256Y0103305D01*
X0084835Y0098275D02*
X0084660Y0098100D01*
X0066070Y0098100D01*
X0066245Y0098275D01*
X0084835Y0098275D01*
X0084660Y0093900D02*
X0064995Y0093900D01*
X0064195Y0093100D01*
X0085460Y0093100D01*
X0084660Y0093900D01*
X0084847Y0093714D02*
X0064808Y0093714D01*
X0061235Y0099205D02*
X0060767Y0099672D01*
X0061850Y0100755D01*
X0063120Y0102025D01*
X0064055Y0102025D01*
X0063275Y0101245D01*
X0061235Y0099205D01*
X0061203Y0100108D02*
X0062138Y0100108D01*
X0062801Y0101706D02*
X0063736Y0101706D01*
X0062700Y0106225D02*
X0062700Y0107740D01*
X0060915Y0109525D01*
X0071380Y0109525D01*
X0073430Y0107475D01*
X0072711Y0107177D01*
X0071759Y0106225D01*
X0062700Y0106225D01*
X0062700Y0106502D02*
X0072036Y0106502D01*
X0072805Y0108100D02*
X0062339Y0108100D01*
X0062700Y0114494D02*
X0084300Y0114494D01*
X0084300Y0116093D02*
X0062700Y0116093D01*
X0063786Y0117691D02*
X0084300Y0117691D01*
X0085665Y0112896D02*
X0073949Y0112896D01*
X0084475Y0124085D02*
X0062525Y0124085D01*
X0062700Y0124260D02*
X0062700Y0127740D01*
X0060600Y0129840D01*
X0060600Y0132160D01*
X0062700Y0134260D01*
X0062700Y0137740D01*
X0060600Y0139840D01*
X0060600Y0142160D01*
X0062700Y0144260D01*
X0062700Y0147740D01*
X0062415Y0148025D01*
X0062880Y0148025D01*
X0067005Y0143900D01*
X0084660Y0143900D01*
X0086760Y0141800D01*
X0090240Y0141800D01*
X0092700Y0144260D01*
X0092700Y0147740D01*
X0090240Y0150200D01*
X0086760Y0150200D01*
X0084660Y0148100D01*
X0068745Y0148100D01*
X0065850Y0150995D01*
X0065850Y0152341D01*
X0065302Y0153664D01*
X0064289Y0154677D01*
X0062966Y0155225D01*
X0062700Y0155225D01*
X0062700Y0155355D01*
X0069045Y0161700D01*
X0069335Y0161700D01*
X0070879Y0162339D01*
X0072061Y0163521D01*
X0072700Y0165065D01*
X0072700Y0170980D01*
X0074756Y0173036D01*
X0074300Y0171935D01*
X0074300Y0165065D01*
X0074939Y0163521D01*
X0076121Y0162339D01*
X0077665Y0161700D01*
X0079335Y0161700D01*
X0080879Y0162339D01*
X0082061Y0163521D01*
X0082700Y0165065D01*
X0082700Y0171935D01*
X0082061Y0173479D01*
X0080879Y0174661D01*
X0079335Y0175300D01*
X0077665Y0175300D01*
X0076564Y0174844D01*
X0078745Y0177025D01*
X0089523Y0177025D01*
X0089939Y0176021D01*
X0091121Y0174839D01*
X0092094Y0174436D01*
X0102262Y0164268D01*
X0101600Y0163606D01*
X0100900Y0161915D01*
X0100900Y0160085D01*
X0101600Y0158394D01*
X0102894Y0157100D01*
X0104585Y0156400D01*
X0106400Y0156400D01*
X0106400Y0155600D01*
X0104585Y0155600D01*
X0102894Y0154900D01*
X0101600Y0153606D01*
X0100900Y0151915D01*
X0100900Y0150085D01*
X0101600Y0148394D01*
X0102894Y0147100D01*
X0104585Y0146400D01*
X0106400Y0146400D01*
X0106400Y0145600D01*
X0104585Y0145600D01*
X0102894Y0144900D01*
X0101600Y0143606D01*
X0100900Y0141915D01*
X0100900Y0140085D01*
X0101600Y0138394D01*
X0102894Y0137100D01*
X0104585Y0136400D01*
X0106400Y0136400D01*
X0106400Y0135600D01*
X0104585Y0135600D01*
X0102894Y0134900D01*
X0101600Y0133606D01*
X0100900Y0131915D01*
X0100900Y0130085D01*
X0101463Y0128725D01*
X0091715Y0128725D01*
X0090240Y0130200D01*
X0086760Y0130200D01*
X0084300Y0127740D01*
X0084300Y0124260D01*
X0085460Y0123100D01*
X0063255Y0123100D01*
X0060297Y0120142D01*
X0060240Y0120200D01*
X0056760Y0120200D01*
X0054300Y0117740D01*
X0054300Y0114260D01*
X0054835Y0113725D01*
X0053120Y0113725D01*
X0050300Y0116545D01*
X0050300Y0116835D01*
X0049661Y0118379D01*
X0048479Y0119561D01*
X0046935Y0120200D01*
X0040065Y0120200D01*
X0038521Y0119561D01*
X0037339Y0118379D01*
X0036700Y0116835D01*
X0036700Y0115165D01*
X0037211Y0113931D01*
X0033255Y0109975D01*
X0032025Y0108745D01*
X0032025Y0108100D01*
X0019776Y0108100D01*
X0019661Y0108379D01*
X0018479Y0109561D01*
X0016935Y0110200D01*
X0010065Y0110200D01*
X0008521Y0109561D01*
X0008500Y0109540D01*
X0008500Y0112460D01*
X0008521Y0112439D01*
X0010065Y0111800D01*
X0016935Y0111800D01*
X0018479Y0112439D01*
X0019661Y0113621D01*
X0020300Y0115165D01*
X0020300Y0116835D01*
X0019661Y0118379D01*
X0018479Y0119561D01*
X0016935Y0120200D01*
X0010065Y0120200D01*
X0008521Y0119561D01*
X0008500Y0119540D01*
X0008500Y0122460D01*
X0008521Y0122439D01*
X0010065Y0121800D01*
X0016935Y0121800D01*
X0018479Y0122439D01*
X0019661Y0123621D01*
X0020300Y0125165D01*
X0020300Y0126835D01*
X0019661Y0128379D01*
X0018479Y0129561D01*
X0016935Y0130200D01*
X0010065Y0130200D01*
X0008521Y0129561D01*
X0008500Y0129540D01*
X0008500Y0132460D01*
X0008521Y0132439D01*
X0010065Y0131800D01*
X0016935Y0131800D01*
X0018479Y0132439D01*
X0019661Y0133621D01*
X0020300Y0135165D01*
X0020300Y0136835D01*
X0019661Y0138379D01*
X0018479Y0139561D01*
X0016935Y0140200D01*
X0010065Y0140200D01*
X0008521Y0139561D01*
X0008500Y0139540D01*
X0008500Y0142460D01*
X0008521Y0142439D01*
X0010065Y0141800D01*
X0016935Y0141800D01*
X0018479Y0142439D01*
X0019661Y0143621D01*
X0020300Y0145165D01*
X0020300Y0146835D01*
X0019661Y0148379D01*
X0018479Y0149561D01*
X0016935Y0150200D01*
X0010065Y0150200D01*
X0008521Y0149561D01*
X0008500Y0149540D01*
X0008500Y0154525D01*
X0031870Y0154525D01*
X0033100Y0155755D01*
X0039045Y0161700D01*
X0039335Y0161700D01*
X0039685Y0161845D01*
X0054300Y0147230D01*
X0054300Y0144260D01*
X0056400Y0142160D01*
X0056400Y0139840D01*
X0054300Y0137740D01*
X0054300Y0134260D01*
X0056400Y0132160D01*
X0056400Y0129840D01*
X0054300Y0127740D01*
X0054300Y0124260D01*
X0056760Y0121800D01*
X0060240Y0121800D01*
X0062700Y0124260D01*
X0062700Y0125684D02*
X0084300Y0125684D01*
X0084300Y0127282D02*
X0062700Y0127282D01*
X0061559Y0128881D02*
X0085441Y0128881D01*
X0086760Y0131800D02*
X0090240Y0131800D01*
X0092700Y0134260D01*
X0092700Y0137740D01*
X0090240Y0140200D01*
X0086760Y0140200D01*
X0084300Y0137740D01*
X0084300Y0134260D01*
X0086760Y0131800D01*
X0086482Y0132078D02*
X0060600Y0132078D01*
X0060600Y0130479D02*
X0100900Y0130479D01*
X0100967Y0132078D02*
X0090518Y0132078D01*
X0092116Y0133676D02*
X0101671Y0133676D01*
X0103800Y0135275D02*
X0092700Y0135275D01*
X0092700Y0136873D02*
X0103442Y0136873D01*
X0101568Y0138472D02*
X0091968Y0138472D01*
X0090369Y0140070D02*
X0100906Y0140070D01*
X0100900Y0141669D02*
X0060600Y0141669D01*
X0060600Y0140070D02*
X0086631Y0140070D01*
X0085032Y0138472D02*
X0061968Y0138472D01*
X0062700Y0136873D02*
X0084300Y0136873D01*
X0084300Y0135275D02*
X0062700Y0135275D01*
X0062116Y0133676D02*
X0084884Y0133676D01*
X0091559Y0128881D02*
X0101399Y0128881D01*
X0102520Y0124525D02*
X0101600Y0123606D01*
X0101391Y0123100D01*
X0091540Y0123100D01*
X0092700Y0124260D01*
X0092700Y0124525D01*
X0102520Y0124525D01*
X0102080Y0124085D02*
X0092525Y0124085D01*
X0092700Y0117691D02*
X0102303Y0117691D01*
X0102489Y0114494D02*
X0092700Y0114494D01*
X0092700Y0116093D02*
X0113500Y0116093D01*
X0113500Y0106502D02*
X0112661Y0106502D01*
X0113110Y0095312D02*
X0113500Y0095312D01*
X0101306Y0112896D02*
X0091335Y0112896D01*
X0076225Y0087320D02*
X0068975Y0087320D01*
X0063275Y0084123D02*
X0062562Y0084123D01*
X0063275Y0082524D02*
X0060964Y0082524D01*
X0063275Y0080926D02*
X0055770Y0080926D01*
X0055887Y0079327D02*
X0054172Y0079327D01*
X0054300Y0077729D02*
X0052573Y0077729D01*
X0050130Y0081225D02*
X0049820Y0081225D01*
X0054300Y0085705D01*
X0054300Y0085395D01*
X0050130Y0081225D01*
X0051119Y0082524D02*
X0051429Y0082524D01*
X0052717Y0084123D02*
X0053028Y0084123D01*
X0050063Y0087408D02*
X0049661Y0088379D01*
X0048479Y0089561D01*
X0046935Y0090200D01*
X0045600Y0090200D01*
X0045600Y0091800D01*
X0046935Y0091800D01*
X0048479Y0092439D01*
X0049661Y0093621D01*
X0050300Y0095165D01*
X0050300Y0096835D01*
X0049661Y0098379D01*
X0048479Y0099561D01*
X0046935Y0100200D01*
X0040065Y0100200D01*
X0039856Y0100114D01*
X0036225Y0103745D01*
X0036225Y0106870D01*
X0036225Y0107005D01*
X0037156Y0107936D01*
X0036700Y0106835D01*
X0036700Y0105165D01*
X0037339Y0103621D01*
X0038521Y0102439D01*
X0040065Y0101800D01*
X0046935Y0101800D01*
X0048470Y0102435D01*
X0051380Y0099525D01*
X0056085Y0099525D01*
X0054300Y0097740D01*
X0054300Y0094260D01*
X0056085Y0092475D01*
X0055130Y0092475D01*
X0050063Y0087408D01*
X0049122Y0088918D02*
X0051573Y0088918D01*
X0053172Y0090517D02*
X0045600Y0090517D01*
X0047696Y0092115D02*
X0054770Y0092115D01*
X0054847Y0093714D02*
X0049699Y0093714D01*
X0050300Y0095312D02*
X0054300Y0095312D01*
X0054300Y0096911D02*
X0050269Y0096911D01*
X0049530Y0098509D02*
X0055070Y0098509D01*
X0054835Y0103725D02*
X0053120Y0103725D01*
X0050300Y0106545D01*
X0050300Y0106835D01*
X0049661Y0108379D01*
X0048479Y0109561D01*
X0046935Y0110200D01*
X0040065Y0110200D01*
X0038964Y0109744D01*
X0041020Y0111800D01*
X0046935Y0111800D01*
X0048470Y0112435D01*
X0051380Y0109525D01*
X0053120Y0109525D01*
X0056085Y0109525D01*
X0054300Y0107740D01*
X0054300Y0104260D01*
X0054835Y0103725D01*
X0054300Y0104903D02*
X0051942Y0104903D01*
X0050343Y0106502D02*
X0054300Y0106502D01*
X0054661Y0108100D02*
X0049776Y0108100D01*
X0051206Y0109699D02*
X0048145Y0109699D01*
X0049608Y0111297D02*
X0040517Y0111297D01*
X0036978Y0114494D02*
X0020022Y0114494D01*
X0020300Y0116093D02*
X0036700Y0116093D01*
X0037055Y0117691D02*
X0019945Y0117691D01*
X0018750Y0119290D02*
X0038250Y0119290D01*
X0040065Y0121800D02*
X0046935Y0121800D01*
X0048479Y0122439D01*
X0049661Y0123621D01*
X0050300Y0125165D01*
X0050300Y0126835D01*
X0049661Y0128379D01*
X0048479Y0129561D01*
X0046935Y0130200D01*
X0040065Y0130200D01*
X0038521Y0129561D01*
X0037339Y0128379D01*
X0036700Y0126835D01*
X0036700Y0125165D01*
X0037339Y0123621D01*
X0038521Y0122439D01*
X0040065Y0121800D01*
X0038473Y0122487D02*
X0018527Y0122487D01*
X0019853Y0124085D02*
X0037147Y0124085D01*
X0036700Y0125684D02*
X0020300Y0125684D01*
X0020115Y0127282D02*
X0036885Y0127282D01*
X0037841Y0128881D02*
X0019159Y0128881D01*
X0017606Y0132078D02*
X0039394Y0132078D01*
X0040065Y0131800D02*
X0038521Y0132439D01*
X0037339Y0133621D01*
X0036700Y0135165D01*
X0036700Y0136835D01*
X0037339Y0138379D01*
X0038521Y0139561D01*
X0040065Y0140200D01*
X0046935Y0140200D01*
X0048479Y0139561D01*
X0049661Y0138379D01*
X0050300Y0136835D01*
X0050300Y0135165D01*
X0049661Y0133621D01*
X0048479Y0132439D01*
X0046935Y0131800D01*
X0040065Y0131800D01*
X0037316Y0133676D02*
X0019684Y0133676D01*
X0020300Y0135275D02*
X0036700Y0135275D01*
X0036716Y0136873D02*
X0020284Y0136873D01*
X0019568Y0138472D02*
X0037432Y0138472D01*
X0039752Y0140070D02*
X0017248Y0140070D01*
X0019307Y0143268D02*
X0037693Y0143268D01*
X0037339Y0143621D02*
X0038521Y0142439D01*
X0040065Y0141800D01*
X0046935Y0141800D01*
X0048479Y0142439D01*
X0049661Y0143621D01*
X0050300Y0145165D01*
X0050300Y0146835D01*
X0049661Y0148379D01*
X0048479Y0149561D01*
X0046935Y0150200D01*
X0040065Y0150200D01*
X0038521Y0149561D01*
X0037339Y0148379D01*
X0036700Y0146835D01*
X0036700Y0145165D01*
X0037339Y0143621D01*
X0036824Y0144866D02*
X0020176Y0144866D01*
X0020300Y0146465D02*
X0036700Y0146465D01*
X0037209Y0148063D02*
X0019791Y0148063D01*
X0018235Y0149662D02*
X0038765Y0149662D01*
X0034999Y0157654D02*
X0043876Y0157654D01*
X0045475Y0156056D02*
X0033400Y0156056D01*
X0030658Y0159253D02*
X0029462Y0159253D01*
X0029335Y0159200D02*
X0030879Y0159839D01*
X0032061Y0161021D01*
X0032700Y0162565D01*
X0032700Y0169435D01*
X0032061Y0170979D01*
X0030879Y0172161D01*
X0029335Y0172800D01*
X0027665Y0172800D01*
X0027315Y0172655D01*
X0013100Y0186870D01*
X0012700Y0187270D01*
X0012700Y0187740D01*
X0010240Y0190200D01*
X0008500Y0190200D01*
X0008500Y0191800D01*
X0010240Y0191800D01*
X0012700Y0194260D01*
X0012700Y0197740D01*
X0010240Y0200200D01*
X0008500Y0200200D01*
X0008500Y0216000D01*
X0009349Y0216000D01*
X0008900Y0214915D01*
X0008900Y0207085D01*
X0009600Y0205394D01*
X0010894Y0204100D01*
X0012585Y0203400D01*
X0014415Y0203400D01*
X0015274Y0203756D01*
X0034300Y0184730D01*
X0034300Y0184260D01*
X0036760Y0181800D01*
X0040240Y0181800D01*
X0042700Y0184260D01*
X0042700Y0187740D01*
X0040240Y0190200D01*
X0036760Y0190200D01*
X0035765Y0189205D01*
X0018037Y0206933D01*
X0018100Y0207085D01*
X0018100Y0214915D01*
X0017651Y0216000D01*
X0019349Y0216000D01*
X0018900Y0214915D01*
X0018900Y0207085D01*
X0019600Y0205394D01*
X0020894Y0204100D01*
X0022585Y0203400D01*
X0024415Y0203400D01*
X0026106Y0204100D01*
X0027400Y0205394D01*
X0028100Y0207085D01*
X0028100Y0214915D01*
X0027651Y0216000D01*
X0029349Y0216000D01*
X0028900Y0214915D01*
X0028900Y0207085D01*
X0029600Y0205394D01*
X0030894Y0204100D01*
X0032585Y0203400D01*
X0034415Y0203400D01*
X0036106Y0204100D01*
X0037400Y0205394D01*
X0038100Y0207085D01*
X0038100Y0214915D01*
X0037651Y0216000D01*
X0039349Y0216000D01*
X0038900Y0214915D01*
X0038900Y0207085D01*
X0039146Y0206491D01*
X0036400Y0203745D01*
X0036400Y0199840D01*
X0034300Y0197740D01*
X0034300Y0194260D01*
X0036760Y0191800D01*
X0040240Y0191800D01*
X0042700Y0194260D01*
X0042700Y0197740D01*
X0040600Y0199840D01*
X0040600Y0202005D01*
X0042168Y0203573D01*
X0042585Y0203400D01*
X0044415Y0203400D01*
X0046106Y0204100D01*
X0047400Y0205394D01*
X0048100Y0207085D01*
X0048100Y0214915D01*
X0047651Y0216000D01*
X0049349Y0216000D01*
X0048900Y0214915D01*
X0048900Y0207085D01*
X0049600Y0205394D01*
X0050894Y0204100D01*
X0052585Y0203400D01*
X0054415Y0203400D01*
X0056106Y0204100D01*
X0057400Y0205394D01*
X0058100Y0207085D01*
X0058100Y0208900D01*
X0058900Y0208900D01*
X0058900Y0207085D01*
X0059600Y0205394D01*
X0060894Y0204100D01*
X0062585Y0203400D01*
X0064415Y0203400D01*
X0066106Y0204100D01*
X0067400Y0205394D01*
X0068100Y0207085D01*
X0068100Y0208900D01*
X0068900Y0208900D01*
X0068900Y0207085D01*
X0069600Y0205394D01*
X0070894Y0204100D01*
X0072585Y0203400D01*
X0074415Y0203400D01*
X0076106Y0204100D01*
X0077400Y0205394D01*
X0078100Y0207085D01*
X0078100Y0208900D01*
X0078900Y0208900D01*
X0078900Y0207085D01*
X0079600Y0205394D01*
X0080894Y0204100D01*
X0082585Y0203400D01*
X0084415Y0203400D01*
X0086106Y0204100D01*
X0087400Y0205394D01*
X0088100Y0207085D01*
X0088100Y0214915D01*
X0087651Y0216000D01*
X0093500Y0216000D01*
X0093500Y0206000D01*
X0094349Y0206000D01*
X0093900Y0204915D01*
X0093900Y0197085D01*
X0093963Y0196933D01*
X0091400Y0194370D01*
X0091400Y0187276D01*
X0091121Y0187161D01*
X0089939Y0185979D01*
X0089300Y0184435D01*
X0089300Y0181225D01*
X0077005Y0181225D01*
X0075775Y0179995D01*
X0070569Y0174789D01*
X0069335Y0175300D01*
X0067665Y0175300D01*
X0066121Y0174661D01*
X0064939Y0173479D01*
X0064300Y0171935D01*
X0064300Y0165065D01*
X0064935Y0163530D01*
X0060922Y0159517D01*
X0060240Y0160200D01*
X0056760Y0160200D01*
X0054300Y0157740D01*
X0054300Y0154260D01*
X0056400Y0152160D01*
X0056400Y0151070D01*
X0042614Y0164856D01*
X0042700Y0165065D01*
X0042700Y0171935D01*
X0042061Y0173479D01*
X0040879Y0174661D01*
X0039335Y0175300D01*
X0037665Y0175300D01*
X0036121Y0174661D01*
X0034939Y0173479D01*
X0034300Y0171935D01*
X0034300Y0165065D01*
X0034936Y0163530D01*
X0030130Y0158725D01*
X0008500Y0158725D01*
X0008500Y0159200D01*
X0009335Y0159200D01*
X0010879Y0159839D01*
X0012061Y0161021D01*
X0012700Y0162565D01*
X0012700Y0169435D01*
X0012061Y0170979D01*
X0010879Y0172161D01*
X0009335Y0172800D01*
X0008500Y0172800D01*
X0008500Y0181800D01*
X0010240Y0181800D01*
X0011235Y0182795D01*
X0024386Y0169644D01*
X0024300Y0169435D01*
X0024300Y0162565D01*
X0024939Y0161021D01*
X0026121Y0159839D01*
X0027665Y0159200D01*
X0029335Y0159200D01*
X0027538Y0159253D02*
X0019462Y0159253D01*
X0019335Y0159200D02*
X0020879Y0159839D01*
X0022061Y0161021D01*
X0022700Y0162565D01*
X0022700Y0169435D01*
X0022061Y0170979D01*
X0020879Y0172161D01*
X0019335Y0172800D01*
X0017665Y0172800D01*
X0016121Y0172161D01*
X0014939Y0170979D01*
X0014300Y0169435D01*
X0014300Y0162565D01*
X0014939Y0161021D01*
X0016121Y0159839D01*
X0017665Y0159200D01*
X0019335Y0159200D01*
X0017538Y0159253D02*
X0009462Y0159253D01*
X0011891Y0160851D02*
X0015109Y0160851D01*
X0014348Y0162450D02*
X0012652Y0162450D01*
X0012700Y0164048D02*
X0014300Y0164048D01*
X0014300Y0165647D02*
X0012700Y0165647D01*
X0012700Y0167245D02*
X0014300Y0167245D01*
X0014300Y0168844D02*
X0012700Y0168844D01*
X0012283Y0170442D02*
X0014717Y0170442D01*
X0016001Y0172041D02*
X0010999Y0172041D01*
X0008500Y0173639D02*
X0020391Y0173639D01*
X0020999Y0172041D02*
X0021989Y0172041D01*
X0022283Y0170442D02*
X0023588Y0170442D01*
X0024300Y0168844D02*
X0022700Y0168844D01*
X0022700Y0167245D02*
X0024300Y0167245D01*
X0024300Y0165647D02*
X0022700Y0165647D01*
X0022700Y0164048D02*
X0024300Y0164048D01*
X0024348Y0162450D02*
X0022652Y0162450D01*
X0021891Y0160851D02*
X0025109Y0160851D01*
X0030999Y0172041D02*
X0034344Y0172041D01*
X0034300Y0170442D02*
X0032283Y0170442D01*
X0032700Y0168844D02*
X0034300Y0168844D01*
X0034300Y0167245D02*
X0032700Y0167245D01*
X0032700Y0165647D02*
X0034300Y0165647D01*
X0034721Y0164048D02*
X0032700Y0164048D01*
X0032652Y0162450D02*
X0033855Y0162450D01*
X0036597Y0159253D02*
X0042278Y0159253D01*
X0040679Y0160851D02*
X0038196Y0160851D01*
X0043422Y0164048D02*
X0044721Y0164048D01*
X0044939Y0163521D02*
X0046121Y0162339D01*
X0047665Y0161700D01*
X0049335Y0161700D01*
X0050879Y0162339D01*
X0052061Y0163521D01*
X0052700Y0165065D01*
X0052700Y0171935D01*
X0052061Y0173479D01*
X0050879Y0174661D01*
X0049335Y0175300D01*
X0047665Y0175300D01*
X0046121Y0174661D01*
X0044939Y0173479D01*
X0044300Y0171935D01*
X0044300Y0165065D01*
X0044939Y0163521D01*
X0045020Y0162450D02*
X0046011Y0162450D01*
X0046619Y0160851D02*
X0062256Y0160851D01*
X0060879Y0162339D02*
X0062061Y0163521D01*
X0062700Y0165065D01*
X0062700Y0171935D01*
X0062061Y0173479D01*
X0060879Y0174661D01*
X0060600Y0174776D01*
X0060600Y0176245D01*
X0052642Y0184203D01*
X0052700Y0184260D01*
X0052700Y0187740D01*
X0050240Y0190200D01*
X0046760Y0190200D01*
X0044300Y0187740D01*
X0044300Y0184260D01*
X0046760Y0181800D01*
X0049105Y0181800D01*
X0056208Y0174697D01*
X0056121Y0174661D01*
X0054939Y0173479D01*
X0054300Y0171935D01*
X0054300Y0165065D01*
X0054939Y0163521D01*
X0056121Y0162339D01*
X0057665Y0161700D01*
X0059335Y0161700D01*
X0060879Y0162339D01*
X0060989Y0162450D02*
X0063855Y0162450D01*
X0064721Y0164048D02*
X0062279Y0164048D01*
X0062700Y0165647D02*
X0064300Y0165647D01*
X0064300Y0167245D02*
X0062700Y0167245D01*
X0062700Y0168844D02*
X0064300Y0168844D01*
X0064300Y0170442D02*
X0062700Y0170442D01*
X0062656Y0172041D02*
X0064344Y0172041D01*
X0065100Y0173639D02*
X0061900Y0173639D01*
X0060600Y0175238D02*
X0067514Y0175238D01*
X0069486Y0175238D02*
X0071018Y0175238D01*
X0072616Y0176836D02*
X0060009Y0176836D01*
X0058410Y0178435D02*
X0074215Y0178435D01*
X0075813Y0180033D02*
X0056812Y0180033D01*
X0055213Y0181632D02*
X0089300Y0181632D01*
X0089300Y0183230D02*
X0081670Y0183230D01*
X0082700Y0184260D02*
X0080240Y0181800D01*
X0076760Y0181800D01*
X0074300Y0184260D01*
X0074300Y0187740D01*
X0076760Y0190200D01*
X0080240Y0190200D01*
X0082700Y0187740D01*
X0082700Y0184260D01*
X0082700Y0184829D02*
X0089463Y0184829D01*
X0090388Y0186427D02*
X0082700Y0186427D01*
X0082414Y0188026D02*
X0091400Y0188026D01*
X0091400Y0189624D02*
X0080815Y0189624D01*
X0080240Y0191800D02*
X0082700Y0194260D01*
X0082700Y0197740D01*
X0080240Y0200200D01*
X0076760Y0200200D01*
X0074300Y0197740D01*
X0074300Y0194260D01*
X0076760Y0191800D01*
X0080240Y0191800D01*
X0081261Y0192821D02*
X0091400Y0192821D01*
X0091400Y0191223D02*
X0033747Y0191223D01*
X0032148Y0192821D02*
X0035739Y0192821D01*
X0034300Y0194420D02*
X0030550Y0194420D01*
X0028951Y0196018D02*
X0034300Y0196018D01*
X0034300Y0197617D02*
X0027353Y0197617D01*
X0025754Y0199215D02*
X0035776Y0199215D01*
X0036400Y0200814D02*
X0024156Y0200814D01*
X0025890Y0204011D02*
X0031110Y0204011D01*
X0029511Y0205609D02*
X0027489Y0205609D01*
X0028100Y0207208D02*
X0028900Y0207208D01*
X0028900Y0208806D02*
X0028100Y0208806D01*
X0028100Y0210405D02*
X0028900Y0210405D01*
X0028900Y0212003D02*
X0028100Y0212003D01*
X0028100Y0213602D02*
X0028900Y0213602D01*
X0029018Y0215201D02*
X0027982Y0215201D01*
X0021110Y0204011D02*
X0020959Y0204011D01*
X0019511Y0205609D02*
X0019360Y0205609D01*
X0018900Y0207208D02*
X0018100Y0207208D01*
X0018100Y0208806D02*
X0018900Y0208806D01*
X0018900Y0210405D02*
X0018100Y0210405D01*
X0018100Y0212003D02*
X0018900Y0212003D01*
X0018900Y0213602D02*
X0018100Y0213602D01*
X0017982Y0215201D02*
X0019018Y0215201D01*
X0016618Y0202412D02*
X0008500Y0202412D01*
X0008500Y0200814D02*
X0018216Y0200814D01*
X0019815Y0199215D02*
X0011224Y0199215D01*
X0012700Y0197617D02*
X0021413Y0197617D01*
X0023012Y0196018D02*
X0012700Y0196018D01*
X0012700Y0194420D02*
X0024610Y0194420D01*
X0026209Y0192821D02*
X0011261Y0192821D01*
X0008500Y0191223D02*
X0027807Y0191223D01*
X0029406Y0189624D02*
X0010815Y0189624D01*
X0012414Y0188026D02*
X0031004Y0188026D01*
X0032603Y0186427D02*
X0013543Y0186427D01*
X0015141Y0184829D02*
X0034201Y0184829D01*
X0035330Y0183230D02*
X0016740Y0183230D01*
X0018338Y0181632D02*
X0049273Y0181632D01*
X0050872Y0180033D02*
X0019937Y0180033D01*
X0021535Y0178435D02*
X0052470Y0178435D01*
X0054069Y0176836D02*
X0023134Y0176836D01*
X0024732Y0175238D02*
X0037514Y0175238D01*
X0039486Y0175238D02*
X0047514Y0175238D01*
X0049486Y0175238D02*
X0055667Y0175238D01*
X0055100Y0173639D02*
X0051900Y0173639D01*
X0052656Y0172041D02*
X0054344Y0172041D01*
X0054300Y0170442D02*
X0052700Y0170442D01*
X0052700Y0168844D02*
X0054300Y0168844D01*
X0054300Y0167245D02*
X0052700Y0167245D01*
X0052700Y0165647D02*
X0054300Y0165647D01*
X0054721Y0164048D02*
X0052279Y0164048D01*
X0050989Y0162450D02*
X0056011Y0162450D01*
X0055813Y0159253D02*
X0048217Y0159253D01*
X0049816Y0157654D02*
X0054300Y0157654D01*
X0054300Y0156056D02*
X0051414Y0156056D01*
X0053013Y0154457D02*
X0054300Y0154457D01*
X0054611Y0152859D02*
X0055702Y0152859D01*
X0056210Y0151260D02*
X0056400Y0151260D01*
X0054300Y0146465D02*
X0050300Y0146465D01*
X0050176Y0144866D02*
X0054300Y0144866D01*
X0055293Y0143268D02*
X0049307Y0143268D01*
X0047248Y0140070D02*
X0056400Y0140070D01*
X0056400Y0141669D02*
X0008500Y0141669D01*
X0008500Y0140070D02*
X0009752Y0140070D01*
X0009394Y0132078D02*
X0008500Y0132078D01*
X0008500Y0130479D02*
X0056400Y0130479D01*
X0056400Y0132078D02*
X0047606Y0132078D01*
X0049684Y0133676D02*
X0054884Y0133676D01*
X0054300Y0135275D02*
X0050300Y0135275D01*
X0050284Y0136873D02*
X0054300Y0136873D01*
X0055032Y0138472D02*
X0049568Y0138472D01*
X0049791Y0148063D02*
X0053467Y0148063D01*
X0051869Y0149662D02*
X0048235Y0149662D01*
X0050270Y0151260D02*
X0008500Y0151260D01*
X0008500Y0149662D02*
X0008765Y0149662D01*
X0008500Y0152859D02*
X0048672Y0152859D01*
X0047073Y0154457D02*
X0008500Y0154457D01*
X0008500Y0175238D02*
X0018792Y0175238D01*
X0017194Y0176836D02*
X0008500Y0176836D01*
X0008500Y0178435D02*
X0015595Y0178435D01*
X0013997Y0180033D02*
X0008500Y0180033D01*
X0008500Y0181632D02*
X0012398Y0181632D01*
X0011110Y0204011D02*
X0008500Y0204011D01*
X0008500Y0205609D02*
X0009511Y0205609D01*
X0008900Y0207208D02*
X0008500Y0207208D01*
X0008500Y0208806D02*
X0008900Y0208806D01*
X0008900Y0210405D02*
X0008500Y0210405D01*
X0008500Y0212003D02*
X0008900Y0212003D01*
X0008900Y0213602D02*
X0008500Y0213602D01*
X0008500Y0215201D02*
X0009018Y0215201D01*
X0022557Y0202412D02*
X0036400Y0202412D01*
X0036666Y0204011D02*
X0035890Y0204011D01*
X0037489Y0205609D02*
X0038265Y0205609D01*
X0038100Y0207208D02*
X0038900Y0207208D01*
X0038900Y0208806D02*
X0038100Y0208806D01*
X0038100Y0210405D02*
X0038900Y0210405D01*
X0038900Y0212003D02*
X0038100Y0212003D01*
X0038100Y0213602D02*
X0038900Y0213602D01*
X0039018Y0215201D02*
X0037982Y0215201D01*
X0041007Y0202412D02*
X0093900Y0202412D01*
X0093900Y0200814D02*
X0040600Y0200814D01*
X0041224Y0199215D02*
X0045776Y0199215D01*
X0046760Y0200200D02*
X0044300Y0197740D01*
X0044300Y0194260D01*
X0046760Y0191800D01*
X0050240Y0191800D01*
X0052700Y0194260D01*
X0052700Y0197740D01*
X0050240Y0200200D01*
X0046760Y0200200D01*
X0045890Y0204011D02*
X0051110Y0204011D01*
X0049511Y0205609D02*
X0047489Y0205609D01*
X0048100Y0207208D02*
X0048900Y0207208D01*
X0048900Y0208806D02*
X0048100Y0208806D01*
X0048100Y0210405D02*
X0048900Y0210405D01*
X0048900Y0212003D02*
X0048100Y0212003D01*
X0048100Y0213602D02*
X0048900Y0213602D01*
X0049018Y0215201D02*
X0047982Y0215201D01*
X0055890Y0204011D02*
X0061110Y0204011D01*
X0059511Y0205609D02*
X0057489Y0205609D01*
X0058100Y0207208D02*
X0058900Y0207208D01*
X0058900Y0208806D02*
X0058100Y0208806D01*
X0058100Y0213100D02*
X0058100Y0214915D01*
X0057651Y0216000D01*
X0059349Y0216000D01*
X0058900Y0214915D01*
X0058900Y0213100D01*
X0058100Y0213100D01*
X0058100Y0213602D02*
X0058900Y0213602D01*
X0059018Y0215201D02*
X0057982Y0215201D01*
X0065890Y0204011D02*
X0071110Y0204011D01*
X0069511Y0205609D02*
X0067489Y0205609D01*
X0068100Y0207208D02*
X0068900Y0207208D01*
X0068900Y0208806D02*
X0068100Y0208806D01*
X0068100Y0213100D02*
X0068100Y0214915D01*
X0067651Y0216000D01*
X0069349Y0216000D01*
X0068900Y0214915D01*
X0068900Y0213100D01*
X0068100Y0213100D01*
X0068100Y0213602D02*
X0068900Y0213602D01*
X0069018Y0215201D02*
X0067982Y0215201D01*
X0075890Y0204011D02*
X0081110Y0204011D01*
X0079511Y0205609D02*
X0077489Y0205609D01*
X0078100Y0207208D02*
X0078900Y0207208D01*
X0078900Y0208806D02*
X0078100Y0208806D01*
X0078100Y0213100D02*
X0078100Y0214915D01*
X0077651Y0216000D01*
X0079349Y0216000D01*
X0078900Y0214915D01*
X0078900Y0213100D01*
X0078100Y0213100D01*
X0078100Y0213602D02*
X0078900Y0213602D01*
X0079018Y0215201D02*
X0077982Y0215201D01*
X0085890Y0204011D02*
X0093900Y0204011D01*
X0094188Y0205609D02*
X0087489Y0205609D01*
X0088100Y0207208D02*
X0093500Y0207208D01*
X0093500Y0208806D02*
X0088100Y0208806D01*
X0088100Y0210405D02*
X0093500Y0210405D01*
X0093500Y0212003D02*
X0088100Y0212003D01*
X0088100Y0213602D02*
X0093500Y0213602D01*
X0093500Y0215201D02*
X0087982Y0215201D01*
X0093900Y0199215D02*
X0081224Y0199215D01*
X0082700Y0197617D02*
X0093900Y0197617D01*
X0093049Y0196018D02*
X0082700Y0196018D01*
X0082700Y0194420D02*
X0091450Y0194420D01*
X0095600Y0192630D02*
X0095600Y0187276D01*
X0095879Y0187161D01*
X0097061Y0185979D01*
X0097700Y0184435D01*
X0097700Y0177565D01*
X0097061Y0176021D01*
X0096755Y0175715D01*
X0106870Y0165600D01*
X0112415Y0165600D01*
X0113500Y0165151D01*
X0113500Y0165530D01*
X0104685Y0174345D01*
X0104335Y0174200D01*
X0102665Y0174200D01*
X0101121Y0174839D01*
X0099939Y0176021D01*
X0099300Y0177565D01*
X0099300Y0184435D01*
X0099939Y0185979D01*
X0101121Y0187161D01*
X0102665Y0187800D01*
X0104335Y0187800D01*
X0105879Y0187161D01*
X0106400Y0186640D01*
X0106400Y0193891D01*
X0105894Y0194100D01*
X0104600Y0195394D01*
X0103900Y0197085D01*
X0103900Y0204915D01*
X0104349Y0206000D01*
X0102651Y0206000D01*
X0103100Y0204915D01*
X0103100Y0197085D01*
X0102400Y0195394D01*
X0101106Y0194100D01*
X0099415Y0193400D01*
X0097585Y0193400D01*
X0096726Y0193756D01*
X0095600Y0192630D01*
X0095791Y0192821D02*
X0106400Y0192821D01*
X0106400Y0191223D02*
X0095600Y0191223D01*
X0095600Y0189624D02*
X0106400Y0189624D01*
X0106400Y0188026D02*
X0095600Y0188026D01*
X0096612Y0186427D02*
X0100388Y0186427D01*
X0099463Y0184829D02*
X0097537Y0184829D01*
X0097700Y0183230D02*
X0099300Y0183230D01*
X0099300Y0181632D02*
X0097700Y0181632D01*
X0097700Y0180033D02*
X0099300Y0180033D01*
X0099300Y0178435D02*
X0097700Y0178435D01*
X0097398Y0176836D02*
X0099602Y0176836D01*
X0100723Y0175238D02*
X0097232Y0175238D01*
X0098831Y0173639D02*
X0105391Y0173639D01*
X0106989Y0172041D02*
X0100429Y0172041D01*
X0102028Y0170442D02*
X0108588Y0170442D01*
X0110186Y0168844D02*
X0103626Y0168844D01*
X0105225Y0167245D02*
X0111785Y0167245D01*
X0113383Y0165647D02*
X0106823Y0165647D01*
X0102043Y0164048D02*
X0092279Y0164048D01*
X0092061Y0163521D02*
X0092700Y0165065D01*
X0092700Y0171935D01*
X0092061Y0173479D01*
X0090879Y0174661D01*
X0089335Y0175300D01*
X0087665Y0175300D01*
X0086121Y0174661D01*
X0084939Y0173479D01*
X0084300Y0171935D01*
X0084300Y0165065D01*
X0084939Y0163521D01*
X0086121Y0162339D01*
X0087665Y0161700D01*
X0089335Y0161700D01*
X0090879Y0162339D01*
X0092061Y0163521D01*
X0090989Y0162450D02*
X0101121Y0162450D01*
X0100900Y0160851D02*
X0068196Y0160851D01*
X0066597Y0159253D02*
X0072570Y0159253D01*
X0072086Y0159052D02*
X0071073Y0158039D01*
X0070525Y0156716D01*
X0070525Y0155284D01*
X0071073Y0153961D01*
X0072086Y0152948D01*
X0073409Y0152400D01*
X0074841Y0152400D01*
X0076164Y0152948D01*
X0077116Y0153900D01*
X0084660Y0153900D01*
X0086760Y0151800D01*
X0090240Y0151800D01*
X0092700Y0154260D01*
X0092700Y0157740D01*
X0090240Y0160200D01*
X0086760Y0160200D01*
X0084660Y0158100D01*
X0077116Y0158100D01*
X0076164Y0159052D01*
X0074841Y0159600D01*
X0073409Y0159600D01*
X0072086Y0159052D01*
X0070914Y0157654D02*
X0064999Y0157654D01*
X0064509Y0154457D02*
X0070867Y0154457D01*
X0070525Y0156056D02*
X0063400Y0156056D01*
X0065636Y0152859D02*
X0072302Y0152859D01*
X0075948Y0152859D02*
X0085702Y0152859D01*
X0086222Y0149662D02*
X0067183Y0149662D01*
X0065850Y0151260D02*
X0100900Y0151260D01*
X0101075Y0149662D02*
X0090778Y0149662D01*
X0092377Y0148063D02*
X0101932Y0148063D01*
X0102861Y0144866D02*
X0092700Y0144866D01*
X0092700Y0146465D02*
X0104429Y0146465D01*
X0101460Y0143268D02*
X0091707Y0143268D01*
X0091298Y0152859D02*
X0101291Y0152859D01*
X0102452Y0154457D02*
X0092700Y0154457D01*
X0092700Y0156056D02*
X0106400Y0156056D01*
X0110600Y0156056D02*
X0113500Y0156056D01*
X0113500Y0156849D02*
X0113500Y0155151D01*
X0112415Y0155600D01*
X0110600Y0155600D01*
X0110600Y0156400D01*
X0112415Y0156400D01*
X0113500Y0156849D01*
X0113500Y0146849D02*
X0113500Y0145151D01*
X0112415Y0145600D01*
X0110600Y0145600D01*
X0110600Y0146400D01*
X0112415Y0146400D01*
X0113500Y0146849D01*
X0113500Y0146465D02*
X0112571Y0146465D01*
X0113500Y0136849D02*
X0113500Y0135151D01*
X0112415Y0135600D01*
X0110600Y0135600D01*
X0110600Y0136400D01*
X0112415Y0136400D01*
X0113500Y0136849D01*
X0113500Y0135275D02*
X0113200Y0135275D01*
X0102341Y0157654D02*
X0092700Y0157654D01*
X0091187Y0159253D02*
X0101245Y0159253D01*
X0100883Y0165647D02*
X0092700Y0165647D01*
X0092700Y0167245D02*
X0099285Y0167245D01*
X0097686Y0168844D02*
X0092700Y0168844D01*
X0092700Y0170442D02*
X0096088Y0170442D01*
X0094489Y0172041D02*
X0092656Y0172041D01*
X0092891Y0173639D02*
X0091900Y0173639D01*
X0090723Y0175238D02*
X0089486Y0175238D01*
X0089602Y0176836D02*
X0078556Y0176836D01*
X0079486Y0175238D02*
X0087514Y0175238D01*
X0085100Y0173639D02*
X0081900Y0173639D01*
X0082656Y0172041D02*
X0084344Y0172041D01*
X0084300Y0170442D02*
X0082700Y0170442D01*
X0082700Y0168844D02*
X0084300Y0168844D01*
X0084300Y0167245D02*
X0082700Y0167245D01*
X0082700Y0165647D02*
X0084300Y0165647D01*
X0084721Y0164048D02*
X0082279Y0164048D01*
X0080989Y0162450D02*
X0086011Y0162450D01*
X0085813Y0159253D02*
X0075680Y0159253D01*
X0076011Y0162450D02*
X0070989Y0162450D01*
X0072279Y0164048D02*
X0074721Y0164048D01*
X0074300Y0165647D02*
X0072700Y0165647D01*
X0072700Y0167245D02*
X0074300Y0167245D01*
X0074300Y0168844D02*
X0072700Y0168844D01*
X0072700Y0170442D02*
X0074300Y0170442D01*
X0074344Y0172041D02*
X0073761Y0172041D01*
X0076958Y0175238D02*
X0077514Y0175238D01*
X0075330Y0183230D02*
X0053615Y0183230D01*
X0052700Y0184829D02*
X0074300Y0184829D01*
X0074300Y0186427D02*
X0052700Y0186427D01*
X0052414Y0188026D02*
X0074586Y0188026D01*
X0076185Y0189624D02*
X0050815Y0189624D01*
X0051261Y0192821D02*
X0075739Y0192821D01*
X0074300Y0194420D02*
X0052700Y0194420D01*
X0052700Y0196018D02*
X0074300Y0196018D01*
X0074300Y0197617D02*
X0052700Y0197617D01*
X0051224Y0199215D02*
X0075776Y0199215D01*
X0101425Y0194420D02*
X0105575Y0194420D01*
X0104342Y0196018D02*
X0102658Y0196018D01*
X0103100Y0197617D02*
X0103900Y0197617D01*
X0103900Y0199215D02*
X0103100Y0199215D01*
X0103100Y0200814D02*
X0103900Y0200814D01*
X0103900Y0202412D02*
X0103100Y0202412D01*
X0103100Y0204011D02*
X0103900Y0204011D01*
X0104188Y0205609D02*
X0102812Y0205609D01*
X0112400Y0195394D02*
X0111106Y0194100D01*
X0110600Y0193891D01*
X0110600Y0186640D01*
X0111121Y0187161D01*
X0112665Y0187800D01*
X0114335Y0187800D01*
X0115879Y0187161D01*
X0117040Y0186000D01*
X0123479Y0186000D01*
X0124642Y0186312D01*
X0127358Y0186312D01*
X0128521Y0186000D01*
X0133500Y0186000D01*
X0133500Y0206000D01*
X0132651Y0206000D01*
X0133100Y0204915D01*
X0133100Y0197085D01*
X0132400Y0195394D01*
X0131106Y0194100D01*
X0129415Y0193400D01*
X0127585Y0193400D01*
X0125894Y0194100D01*
X0124600Y0195394D01*
X0123900Y0197085D01*
X0123900Y0204915D01*
X0124329Y0205951D01*
X0124280Y0206000D01*
X0122651Y0206000D01*
X0123100Y0204915D01*
X0123100Y0197085D01*
X0122400Y0195394D01*
X0121106Y0194100D01*
X0119415Y0193400D01*
X0117585Y0193400D01*
X0115894Y0194100D01*
X0114600Y0195394D01*
X0113900Y0197085D01*
X0113900Y0204915D01*
X0114349Y0206000D01*
X0112651Y0206000D01*
X0113100Y0204915D01*
X0113100Y0197085D01*
X0112400Y0195394D01*
X0112658Y0196018D02*
X0114342Y0196018D01*
X0113900Y0197617D02*
X0113100Y0197617D01*
X0113100Y0199215D02*
X0113900Y0199215D01*
X0113900Y0200814D02*
X0113100Y0200814D01*
X0113100Y0202412D02*
X0113900Y0202412D01*
X0113900Y0204011D02*
X0113100Y0204011D01*
X0112812Y0205609D02*
X0114188Y0205609D01*
X0115575Y0194420D02*
X0111425Y0194420D01*
X0110600Y0192821D02*
X0133500Y0192821D01*
X0133500Y0191223D02*
X0110600Y0191223D01*
X0110600Y0189624D02*
X0133500Y0189624D01*
X0133500Y0188026D02*
X0110600Y0188026D01*
X0116612Y0186427D02*
X0133500Y0186427D01*
X0133500Y0194420D02*
X0131425Y0194420D01*
X0132658Y0196018D02*
X0133500Y0196018D01*
X0133500Y0197617D02*
X0133100Y0197617D01*
X0133100Y0199215D02*
X0133500Y0199215D01*
X0133500Y0200814D02*
X0133100Y0200814D01*
X0133100Y0202412D02*
X0133500Y0202412D01*
X0133500Y0204011D02*
X0133100Y0204011D01*
X0132812Y0205609D02*
X0133500Y0205609D01*
X0125575Y0194420D02*
X0121425Y0194420D01*
X0122658Y0196018D02*
X0124342Y0196018D01*
X0123900Y0197617D02*
X0123100Y0197617D01*
X0123100Y0199215D02*
X0123900Y0199215D01*
X0123900Y0200814D02*
X0123100Y0200814D01*
X0123100Y0202412D02*
X0123900Y0202412D01*
X0123900Y0204011D02*
X0123100Y0204011D01*
X0122812Y0205609D02*
X0124188Y0205609D01*
X0085293Y0143268D02*
X0061707Y0143268D01*
X0062700Y0144866D02*
X0066039Y0144866D01*
X0064441Y0146465D02*
X0062700Y0146465D01*
X0055441Y0128881D02*
X0049159Y0128881D01*
X0050115Y0127282D02*
X0054300Y0127282D01*
X0054300Y0125684D02*
X0050300Y0125684D01*
X0049853Y0124085D02*
X0054475Y0124085D01*
X0056073Y0122487D02*
X0048527Y0122487D01*
X0048750Y0119290D02*
X0055850Y0119290D01*
X0054300Y0117691D02*
X0049945Y0117691D01*
X0050752Y0116093D02*
X0054300Y0116093D01*
X0054300Y0114494D02*
X0052351Y0114494D01*
X0049199Y0101706D02*
X0038264Y0101706D01*
X0037656Y0103305D02*
X0036665Y0103305D01*
X0036808Y0104903D02*
X0036225Y0104903D01*
X0036225Y0106502D02*
X0036700Y0106502D01*
X0034577Y0111297D02*
X0008500Y0111297D01*
X0008500Y0109699D02*
X0008855Y0109699D01*
X0008500Y0120888D02*
X0061044Y0120888D01*
X0060927Y0122487D02*
X0062642Y0122487D01*
X0050797Y0100108D02*
X0047158Y0100108D01*
X0036176Y0112896D02*
X0018935Y0112896D01*
X0018145Y0109699D02*
X0032979Y0109699D01*
X0032025Y0108100D02*
X0019776Y0108100D01*
X0019344Y0103305D02*
X0032025Y0103305D01*
X0061113Y0079327D02*
X0063275Y0079327D01*
X0063275Y0077729D02*
X0062700Y0077729D01*
X0062700Y0076130D02*
X0063275Y0076130D01*
X0063275Y0074532D02*
X0062700Y0074532D01*
X0032256Y0160851D02*
X0031891Y0160851D01*
X0035100Y0173639D02*
X0026331Y0173639D01*
X0035345Y0189624D02*
X0036185Y0189624D01*
X0040815Y0189624D02*
X0046185Y0189624D01*
X0044586Y0188026D02*
X0042414Y0188026D01*
X0042700Y0186427D02*
X0044300Y0186427D01*
X0044300Y0184829D02*
X0042700Y0184829D01*
X0041670Y0183230D02*
X0045330Y0183230D01*
X0045100Y0173639D02*
X0041900Y0173639D01*
X0042656Y0172041D02*
X0044344Y0172041D01*
X0044300Y0170442D02*
X0042700Y0170442D01*
X0042700Y0168844D02*
X0044300Y0168844D01*
X0044300Y0167245D02*
X0042700Y0167245D01*
X0042700Y0165647D02*
X0044300Y0165647D01*
X0045739Y0192821D02*
X0041261Y0192821D01*
X0042700Y0194420D02*
X0044300Y0194420D01*
X0044300Y0196018D02*
X0042700Y0196018D01*
X0042700Y0197617D02*
X0044300Y0197617D01*
M02*
