G75*
%MOIN*%
%OFA0B0*%
%FSLAX25Y25*%
%IPPOS*%
%LPD*%
%AMOC8*
5,1,8,0,0,1.08239X$1,22.5*
%
%ADD10C,0.05200*%
%ADD11OC8,0.05200*%
%ADD12C,0.06000*%
%ADD13C,0.01000*%
%ADD14C,0.04000*%
%ADD15C,0.01600*%
D10*
X0010900Y0011000D02*
X0016100Y0011000D01*
X0016100Y0021000D02*
X0010900Y0021000D01*
X0010900Y0031000D02*
X0016100Y0031000D01*
X0016100Y0041000D02*
X0010900Y0041000D01*
X0010900Y0051000D02*
X0016100Y0051000D01*
X0016100Y0061000D02*
X0010900Y0061000D01*
X0010900Y0071000D02*
X0016100Y0071000D01*
X0016100Y0086000D02*
X0010900Y0086000D01*
X0010900Y0096000D02*
X0016100Y0096000D01*
X0016100Y0106000D02*
X0010900Y0106000D01*
X0010900Y0116000D02*
X0016100Y0116000D01*
X0016100Y0126000D02*
X0010900Y0126000D01*
X0010900Y0136000D02*
X0016100Y0136000D01*
X0016100Y0146000D02*
X0010900Y0146000D01*
X0008500Y0163400D02*
X0008500Y0168600D01*
X0018500Y0168600D02*
X0018500Y0163400D01*
X0028500Y0163400D02*
X0028500Y0168600D01*
X0038500Y0171100D02*
X0038500Y0165900D01*
X0048500Y0165900D02*
X0048500Y0171100D01*
X0058500Y0171100D02*
X0058500Y0165900D01*
X0068500Y0165900D02*
X0068500Y0171100D01*
X0078500Y0171100D02*
X0078500Y0165900D01*
X0088500Y0165900D02*
X0088500Y0171100D01*
X0093500Y0178400D02*
X0093500Y0183600D01*
X0103500Y0183600D02*
X0103500Y0178400D01*
X0113500Y0178400D02*
X0113500Y0183600D01*
X0046100Y0146000D02*
X0040900Y0146000D01*
X0040900Y0136000D02*
X0046100Y0136000D01*
X0046100Y0126000D02*
X0040900Y0126000D01*
X0040900Y0116000D02*
X0046100Y0116000D01*
X0046100Y0106000D02*
X0040900Y0106000D01*
X0040900Y0096000D02*
X0046100Y0096000D01*
X0046100Y0086000D02*
X0040900Y0086000D01*
X0040900Y0071000D02*
X0046100Y0071000D01*
X0046100Y0061000D02*
X0040900Y0061000D01*
X0040900Y0051000D02*
X0046100Y0051000D01*
X0046100Y0041000D02*
X0040900Y0041000D01*
X0040900Y0031000D02*
X0046100Y0031000D01*
X0046100Y0021000D02*
X0040900Y0021000D01*
X0040900Y0011000D02*
X0046100Y0011000D01*
D11*
X0058500Y0026000D03*
X0058500Y0036000D03*
X0058500Y0046000D03*
X0058500Y0056000D03*
X0058500Y0066000D03*
X0058500Y0076000D03*
X0058500Y0086000D03*
X0058500Y0096000D03*
X0058500Y0106000D03*
X0058500Y0116000D03*
X0058500Y0126000D03*
X0058500Y0136000D03*
X0058500Y0146000D03*
X0058500Y0156000D03*
X0048500Y0186000D03*
X0048500Y0196000D03*
X0038500Y0196000D03*
X0038500Y0186000D03*
X0008500Y0186000D03*
X0008500Y0196000D03*
X0078500Y0196000D03*
X0078500Y0186000D03*
X0088500Y0156000D03*
X0088500Y0146000D03*
X0088500Y0136000D03*
X0088500Y0126000D03*
X0088500Y0116000D03*
X0088500Y0106000D03*
X0088500Y0096000D03*
X0088500Y0086000D03*
X0088500Y0076000D03*
X0088500Y0066000D03*
X0088500Y0056000D03*
X0088500Y0046000D03*
X0088500Y0036000D03*
X0088500Y0026000D03*
D12*
X0105500Y0021000D02*
X0111500Y0021000D01*
X0111500Y0011000D02*
X0105500Y0011000D01*
X0105500Y0031000D02*
X0111500Y0031000D01*
X0111500Y0041000D02*
X0105500Y0041000D01*
X0105500Y0051000D02*
X0111500Y0051000D01*
X0111500Y0061000D02*
X0105500Y0061000D01*
X0105500Y0071000D02*
X0111500Y0071000D01*
X0111500Y0081000D02*
X0105500Y0081000D01*
X0105500Y0091000D02*
X0111500Y0091000D01*
X0111500Y0101000D02*
X0105500Y0101000D01*
X0105500Y0111000D02*
X0111500Y0111000D01*
X0111500Y0121000D02*
X0105500Y0121000D01*
X0105500Y0131000D02*
X0111500Y0131000D01*
X0111500Y0141000D02*
X0105500Y0141000D01*
X0105500Y0151000D02*
X0111500Y0151000D01*
X0111500Y0161000D02*
X0105500Y0161000D01*
X0108500Y0198000D02*
X0108500Y0204000D01*
X0098500Y0204000D02*
X0098500Y0198000D01*
X0083500Y0208000D02*
X0083500Y0214000D01*
X0073500Y0214000D02*
X0073500Y0208000D01*
X0063500Y0208000D02*
X0063500Y0214000D01*
X0053500Y0214000D02*
X0053500Y0208000D01*
X0043500Y0208000D02*
X0043500Y0214000D01*
X0033500Y0214000D02*
X0033500Y0208000D01*
X0023500Y0208000D02*
X0023500Y0214000D01*
X0013500Y0214000D02*
X0013500Y0208000D01*
X0118500Y0204000D02*
X0118500Y0198000D01*
X0128500Y0198000D02*
X0128500Y0204000D01*
D13*
X0006000Y0087875D02*
X0006000Y0010375D01*
X0010375Y0006000D01*
X0016625Y0006000D01*
X0021625Y0011000D01*
X0043500Y0011000D01*
X0039750Y0016625D02*
X0058500Y0016625D01*
X0067875Y0026000D01*
X0076000Y0026000D01*
X0096000Y0006000D01*
X0112875Y0006000D01*
X0117875Y0011000D01*
X0117875Y0096000D01*
X0112875Y0101000D01*
X0108500Y0101000D01*
X0097250Y0115375D02*
X0088500Y0106625D01*
X0088500Y0106000D01*
X0088500Y0116000D02*
X0086625Y0116000D01*
X0074750Y0104125D01*
X0071000Y0109125D02*
X0071000Y0094125D01*
X0088500Y0076625D01*
X0088500Y0076000D01*
X0088500Y0070375D02*
X0089750Y0070375D01*
X0104750Y0055375D01*
X0113500Y0055375D01*
X0116000Y0052875D01*
X0116000Y0034125D01*
X0112875Y0031000D01*
X0108500Y0031000D01*
X0108500Y0041000D02*
X0105375Y0041000D01*
X0096000Y0050375D01*
X0088500Y0050375D01*
X0072875Y0066000D01*
X0058500Y0066000D01*
X0058500Y0070375D02*
X0057250Y0070375D01*
X0050375Y0063500D01*
X0050375Y0059750D01*
X0047250Y0056625D01*
X0039750Y0056625D01*
X0017563Y0078813D01*
X0013500Y0074750D01*
X0013500Y0071000D01*
X0017563Y0078813D02*
X0022875Y0084125D01*
X0022875Y0109125D01*
X0016000Y0116000D01*
X0013500Y0116000D01*
X0013500Y0106000D02*
X0008500Y0106000D01*
X0006000Y0103500D01*
X0006000Y0088500D01*
X0006312Y0088187D01*
X0006000Y0087875D01*
X0006312Y0088187D02*
X0008500Y0086000D01*
X0013500Y0086000D01*
X0022875Y0068500D02*
X0026000Y0065375D01*
X0026000Y0037875D01*
X0017875Y0041000D02*
X0032875Y0026000D01*
X0058500Y0026000D01*
X0061625Y0031000D02*
X0074125Y0031000D01*
X0094125Y0011000D01*
X0108500Y0011000D01*
X0088500Y0026000D02*
X0082250Y0026000D01*
X0072875Y0035375D01*
X0059125Y0035375D01*
X0058500Y0036000D01*
X0058500Y0046000D02*
X0072875Y0046000D01*
X0082875Y0041000D02*
X0083188Y0041313D01*
X0088500Y0036000D01*
X0083188Y0041313D02*
X0087875Y0046000D01*
X0088500Y0046000D01*
X0082875Y0041000D02*
X0043500Y0041000D01*
X0043500Y0061000D02*
X0052875Y0070375D01*
X0052875Y0109750D01*
X0058500Y0115375D01*
X0058500Y0116000D01*
X0058500Y0120375D02*
X0059750Y0120375D01*
X0070688Y0109437D01*
X0081625Y0120375D01*
X0088500Y0120375D01*
X0095375Y0127250D01*
X0095375Y0169750D01*
X0085375Y0179750D01*
X0079125Y0179750D01*
X0063500Y0195375D01*
X0063500Y0211000D01*
X0059125Y0196000D02*
X0077250Y0177875D01*
X0081625Y0177875D01*
X0088500Y0171000D01*
X0088500Y0168500D01*
X0097250Y0162250D02*
X0097250Y0115375D01*
X0088500Y0126000D02*
X0087875Y0126000D01*
X0083500Y0130375D01*
X0041000Y0130375D01*
X0035375Y0136000D01*
X0013500Y0136000D01*
X0013500Y0146000D02*
X0013500Y0169125D01*
X0022250Y0177875D01*
X0065375Y0177875D01*
X0067250Y0176000D01*
X0073500Y0176000D01*
X0078500Y0171000D01*
X0078500Y0168500D01*
X0078500Y0146000D01*
X0088500Y0136000D01*
X0074125Y0156000D02*
X0058500Y0140375D01*
X0052250Y0140375D01*
X0047875Y0136000D01*
X0043500Y0136000D01*
X0041625Y0136000D01*
X0018500Y0159125D01*
X0018500Y0166000D01*
X0008500Y0196000D02*
X0006000Y0198500D01*
X0006000Y0216625D01*
X0011625Y0222250D01*
X0106625Y0222250D01*
X0122875Y0206000D01*
X0122875Y0188500D01*
X0115375Y0181000D01*
X0113500Y0181000D01*
X0107875Y0183500D02*
X0107875Y0172875D01*
X0097250Y0162250D01*
X0107875Y0183500D02*
X0118500Y0194125D01*
X0118500Y0201000D01*
X0094125Y0201625D02*
X0094125Y0216000D01*
X0089750Y0220375D01*
X0028500Y0220375D01*
X0023500Y0215375D01*
X0023500Y0211000D01*
X0033500Y0211000D02*
X0033500Y0215375D01*
X0036625Y0218500D01*
X0086000Y0218500D01*
X0090375Y0214125D01*
X0090375Y0205375D01*
X0081000Y0196000D01*
X0078500Y0196000D01*
X0078500Y0186000D02*
X0094125Y0201625D01*
X0062250Y0151625D02*
X0052875Y0151625D01*
X0044437Y0160063D01*
X0043500Y0159125D01*
X0043500Y0146000D01*
X0044437Y0160063D02*
X0048500Y0164125D01*
X0048500Y0168500D01*
X0048500Y0196000D02*
X0059125Y0196000D01*
X0052875Y0126000D02*
X0043500Y0126000D01*
X0052875Y0126000D02*
X0058500Y0120375D01*
X0058500Y0106000D02*
X0058500Y0105375D01*
X0065375Y0098500D01*
X0065375Y0087250D01*
X0066000Y0081000D02*
X0077875Y0081000D01*
X0088500Y0070375D01*
X0069125Y0077250D02*
X0065375Y0077250D01*
X0058500Y0070375D01*
X0058500Y0076000D02*
X0061000Y0076000D01*
X0066000Y0081000D01*
X0071000Y0109125D02*
X0070688Y0109437D01*
X0043500Y0106000D02*
X0041000Y0106000D01*
X0034125Y0099125D01*
X0034125Y0084125D01*
X0043500Y0074750D01*
X0043500Y0071000D01*
X0017875Y0041000D02*
X0013500Y0041000D01*
X0013500Y0021000D02*
X0035375Y0021000D01*
X0039750Y0016625D01*
D14*
X0026000Y0037875D03*
X0022875Y0068500D03*
X0061625Y0031000D03*
X0072875Y0046000D03*
X0069125Y0077250D03*
X0065375Y0087250D03*
X0074750Y0104125D03*
X0062250Y0151625D03*
X0074125Y0156000D03*
D15*
X0075948Y0152859D02*
X0076400Y0152859D01*
X0076164Y0152948D02*
X0076400Y0153184D01*
X0076400Y0145130D01*
X0077630Y0143900D01*
X0084300Y0137230D01*
X0084300Y0134260D01*
X0086760Y0131800D01*
X0090240Y0131800D01*
X0092700Y0134260D01*
X0092700Y0137740D01*
X0090240Y0140200D01*
X0087270Y0140200D01*
X0080600Y0146870D01*
X0080600Y0162224D01*
X0080879Y0162339D01*
X0082061Y0163521D01*
X0082700Y0165065D01*
X0082700Y0171935D01*
X0082061Y0173479D01*
X0080879Y0174661D01*
X0079335Y0175300D01*
X0077665Y0175300D01*
X0077315Y0175155D01*
X0076695Y0175775D01*
X0080755Y0175775D01*
X0084386Y0172144D01*
X0084300Y0171935D01*
X0084300Y0165065D01*
X0084939Y0163521D01*
X0086121Y0162339D01*
X0087665Y0161700D01*
X0089335Y0161700D01*
X0090879Y0162339D01*
X0092061Y0163521D01*
X0092700Y0165065D01*
X0092700Y0169455D01*
X0093275Y0168880D01*
X0093275Y0128120D01*
X0092700Y0127545D01*
X0092700Y0127740D01*
X0090240Y0130200D01*
X0086760Y0130200D01*
X0086703Y0130142D01*
X0084370Y0132475D01*
X0060915Y0132475D01*
X0062700Y0134260D01*
X0062700Y0137740D01*
X0060767Y0139672D01*
X0073495Y0152400D01*
X0074841Y0152400D01*
X0076164Y0152948D01*
X0076400Y0151260D02*
X0072355Y0151260D01*
X0070756Y0149662D02*
X0076400Y0149662D01*
X0076400Y0148063D02*
X0069158Y0148063D01*
X0067559Y0146465D02*
X0076400Y0146465D01*
X0076664Y0144866D02*
X0065961Y0144866D01*
X0064362Y0143268D02*
X0078263Y0143268D01*
X0079861Y0141669D02*
X0062764Y0141669D01*
X0061165Y0140070D02*
X0081460Y0140070D01*
X0083058Y0138472D02*
X0061968Y0138472D01*
X0062700Y0136873D02*
X0084300Y0136873D01*
X0084300Y0135275D02*
X0062700Y0135275D01*
X0062116Y0133676D02*
X0084884Y0133676D01*
X0084767Y0132078D02*
X0086482Y0132078D01*
X0086365Y0130479D02*
X0093275Y0130479D01*
X0093275Y0128881D02*
X0091559Y0128881D01*
X0090518Y0132078D02*
X0093275Y0132078D01*
X0093275Y0133676D02*
X0092116Y0133676D01*
X0092700Y0135275D02*
X0093275Y0135275D01*
X0093275Y0136873D02*
X0092700Y0136873D01*
X0093275Y0138472D02*
X0091968Y0138472D01*
X0093275Y0140070D02*
X0090369Y0140070D01*
X0090240Y0141800D02*
X0092700Y0144260D01*
X0092700Y0147740D01*
X0090240Y0150200D01*
X0086760Y0150200D01*
X0084300Y0147740D01*
X0084300Y0144260D01*
X0086760Y0141800D01*
X0090240Y0141800D01*
X0091707Y0143268D02*
X0093275Y0143268D01*
X0093275Y0144866D02*
X0092700Y0144866D01*
X0092700Y0146465D02*
X0093275Y0146465D01*
X0093275Y0148063D02*
X0092377Y0148063D01*
X0093275Y0149662D02*
X0090778Y0149662D01*
X0090240Y0151800D02*
X0092700Y0154260D01*
X0092700Y0157740D01*
X0090240Y0160200D01*
X0086760Y0160200D01*
X0084300Y0157740D01*
X0084300Y0154260D01*
X0086760Y0151800D01*
X0090240Y0151800D01*
X0091298Y0152859D02*
X0093275Y0152859D01*
X0093275Y0154457D02*
X0092700Y0154457D01*
X0092700Y0156056D02*
X0093275Y0156056D01*
X0093275Y0157654D02*
X0092700Y0157654D01*
X0093275Y0159253D02*
X0091187Y0159253D01*
X0090989Y0162450D02*
X0093275Y0162450D01*
X0093275Y0164048D02*
X0092279Y0164048D01*
X0092700Y0165647D02*
X0093275Y0165647D01*
X0093275Y0167245D02*
X0092700Y0167245D01*
X0092700Y0168844D02*
X0093275Y0168844D01*
X0096245Y0171850D02*
X0093895Y0174200D01*
X0094335Y0174200D01*
X0095879Y0174839D01*
X0097061Y0176021D01*
X0097700Y0177565D01*
X0097700Y0184435D01*
X0097061Y0185979D01*
X0095879Y0187161D01*
X0094335Y0187800D01*
X0092665Y0187800D01*
X0091121Y0187161D01*
X0089939Y0185979D01*
X0089300Y0184435D01*
X0089300Y0178795D01*
X0086245Y0181850D01*
X0080290Y0181850D01*
X0082700Y0184260D01*
X0082700Y0187230D01*
X0093900Y0198430D01*
X0093900Y0197085D01*
X0094600Y0195394D01*
X0095894Y0194100D01*
X0097585Y0193400D01*
X0099415Y0193400D01*
X0101106Y0194100D01*
X0102400Y0195394D01*
X0103100Y0197085D01*
X0103100Y0204915D01*
X0102651Y0206000D01*
X0104349Y0206000D01*
X0103900Y0204915D01*
X0103900Y0197085D01*
X0104600Y0195394D01*
X0105894Y0194100D01*
X0107585Y0193400D01*
X0109415Y0193400D01*
X0111106Y0194100D01*
X0112400Y0195394D01*
X0113100Y0197085D01*
X0113100Y0204915D01*
X0112651Y0206000D01*
X0114349Y0206000D01*
X0113900Y0204915D01*
X0113900Y0197085D01*
X0114600Y0195394D01*
X0115700Y0194295D01*
X0107155Y0185750D01*
X0107061Y0185979D01*
X0105879Y0187161D01*
X0104335Y0187800D01*
X0102665Y0187800D01*
X0101121Y0187161D01*
X0099939Y0185979D01*
X0099300Y0184435D01*
X0099300Y0177565D01*
X0099939Y0176021D01*
X0101121Y0174839D01*
X0102665Y0174200D01*
X0104335Y0174200D01*
X0105775Y0174796D01*
X0105775Y0173745D01*
X0097475Y0165445D01*
X0097475Y0170620D01*
X0096245Y0171850D01*
X0096054Y0172041D02*
X0104071Y0172041D01*
X0105669Y0173639D02*
X0094456Y0173639D01*
X0096277Y0175238D02*
X0100723Y0175238D01*
X0099602Y0176836D02*
X0097398Y0176836D01*
X0097700Y0178435D02*
X0099300Y0178435D01*
X0099300Y0180033D02*
X0097700Y0180033D01*
X0097700Y0181632D02*
X0099300Y0181632D01*
X0099300Y0183230D02*
X0097700Y0183230D01*
X0097537Y0184829D02*
X0099463Y0184829D01*
X0100388Y0186427D02*
X0096612Y0186427D01*
X0095575Y0194420D02*
X0089890Y0194420D01*
X0091488Y0196018D02*
X0094342Y0196018D01*
X0093900Y0197617D02*
X0093087Y0197617D01*
X0090344Y0200814D02*
X0088784Y0200814D01*
X0088746Y0199215D02*
X0087185Y0199215D01*
X0087147Y0197617D02*
X0085587Y0197617D01*
X0085549Y0196018D02*
X0083988Y0196018D01*
X0083950Y0194420D02*
X0082700Y0194420D01*
X0082700Y0194260D02*
X0082700Y0194730D01*
X0091245Y0203275D01*
X0092025Y0204055D01*
X0092025Y0202495D01*
X0079730Y0190200D01*
X0076760Y0190200D01*
X0074300Y0187740D01*
X0074300Y0187545D01*
X0065600Y0196245D01*
X0065600Y0203891D01*
X0066106Y0204100D01*
X0067400Y0205394D01*
X0068100Y0207085D01*
X0068100Y0214915D01*
X0067651Y0216000D01*
X0069349Y0216000D01*
X0068900Y0214915D01*
X0068900Y0207085D01*
X0069600Y0205394D01*
X0070894Y0204100D01*
X0072585Y0203400D01*
X0074415Y0203400D01*
X0076106Y0204100D01*
X0077400Y0205394D01*
X0078100Y0207085D01*
X0078100Y0214915D01*
X0077651Y0216000D01*
X0079349Y0216000D01*
X0078900Y0214915D01*
X0078900Y0207085D01*
X0079600Y0205394D01*
X0080894Y0204100D01*
X0082585Y0203400D01*
X0084415Y0203400D01*
X0086106Y0204100D01*
X0087400Y0205394D01*
X0088100Y0207085D01*
X0088100Y0213430D01*
X0088275Y0213255D01*
X0088275Y0206245D01*
X0081235Y0199205D01*
X0080240Y0200200D01*
X0076760Y0200200D01*
X0074300Y0197740D01*
X0074300Y0194260D01*
X0076760Y0191800D01*
X0080240Y0191800D01*
X0082700Y0194260D01*
X0082352Y0192821D02*
X0081261Y0192821D01*
X0080753Y0191223D02*
X0070622Y0191223D01*
X0072220Y0189624D02*
X0076185Y0189624D01*
X0074586Y0188026D02*
X0073819Y0188026D01*
X0075739Y0192821D02*
X0069023Y0192821D01*
X0067425Y0194420D02*
X0074300Y0194420D01*
X0074300Y0196018D02*
X0065826Y0196018D01*
X0065600Y0197617D02*
X0074300Y0197617D01*
X0075776Y0199215D02*
X0065600Y0199215D01*
X0065600Y0200814D02*
X0082844Y0200814D01*
X0081246Y0199215D02*
X0081224Y0199215D01*
X0084443Y0202412D02*
X0065600Y0202412D01*
X0065890Y0204011D02*
X0071110Y0204011D01*
X0069511Y0205609D02*
X0067489Y0205609D01*
X0068100Y0207208D02*
X0068900Y0207208D01*
X0068900Y0208806D02*
X0068100Y0208806D01*
X0068100Y0210405D02*
X0068900Y0210405D01*
X0068900Y0212003D02*
X0068100Y0212003D01*
X0068100Y0213602D02*
X0068900Y0213602D01*
X0069018Y0215201D02*
X0067982Y0215201D01*
X0059600Y0205394D02*
X0060894Y0204100D01*
X0061400Y0203891D01*
X0061400Y0196695D01*
X0059995Y0198100D01*
X0052340Y0198100D01*
X0050240Y0200200D01*
X0046760Y0200200D01*
X0044300Y0197740D01*
X0044300Y0194260D01*
X0046760Y0191800D01*
X0050240Y0191800D01*
X0052340Y0193900D01*
X0058255Y0193900D01*
X0074055Y0178100D01*
X0068120Y0178100D01*
X0066245Y0179975D01*
X0021380Y0179975D01*
X0020150Y0178745D01*
X0012155Y0170750D01*
X0012061Y0170979D01*
X0010879Y0172161D01*
X0009335Y0172800D01*
X0008500Y0172800D01*
X0008500Y0181800D01*
X0010240Y0181800D01*
X0012700Y0184260D01*
X0012700Y0187740D01*
X0010240Y0190200D01*
X0008500Y0190200D01*
X0008500Y0191800D01*
X0010240Y0191800D01*
X0012700Y0194260D01*
X0012700Y0197740D01*
X0010240Y0200200D01*
X0008500Y0200200D01*
X0008500Y0216000D01*
X0009349Y0216000D01*
X0008900Y0214915D01*
X0008900Y0207085D01*
X0009600Y0205394D01*
X0010894Y0204100D01*
X0012585Y0203400D01*
X0014415Y0203400D01*
X0016106Y0204100D01*
X0017400Y0205394D01*
X0018100Y0207085D01*
X0018100Y0214915D01*
X0017651Y0216000D01*
X0019349Y0216000D01*
X0018900Y0214915D01*
X0018900Y0207085D01*
X0019600Y0205394D01*
X0020894Y0204100D01*
X0022585Y0203400D01*
X0024415Y0203400D01*
X0026106Y0204100D01*
X0027400Y0205394D01*
X0028100Y0207085D01*
X0028100Y0214915D01*
X0027651Y0216000D01*
X0029349Y0216000D01*
X0028900Y0214915D01*
X0028900Y0207085D01*
X0029600Y0205394D01*
X0030894Y0204100D01*
X0032585Y0203400D01*
X0034415Y0203400D01*
X0036106Y0204100D01*
X0037400Y0205394D01*
X0038100Y0207085D01*
X0038100Y0214915D01*
X0037651Y0216000D01*
X0039349Y0216000D01*
X0038900Y0214915D01*
X0038900Y0207085D01*
X0039600Y0205394D01*
X0040894Y0204100D01*
X0042585Y0203400D01*
X0044415Y0203400D01*
X0046106Y0204100D01*
X0047400Y0205394D01*
X0048100Y0207085D01*
X0048100Y0214915D01*
X0047651Y0216000D01*
X0049349Y0216000D01*
X0048900Y0214915D01*
X0048900Y0207085D01*
X0049600Y0205394D01*
X0050894Y0204100D01*
X0052585Y0203400D01*
X0054415Y0203400D01*
X0056106Y0204100D01*
X0057400Y0205394D01*
X0058100Y0207085D01*
X0058100Y0214915D01*
X0057651Y0216000D01*
X0059349Y0216000D01*
X0058900Y0214915D01*
X0058900Y0207085D01*
X0059600Y0205394D01*
X0059511Y0205609D02*
X0057489Y0205609D01*
X0058100Y0207208D02*
X0058900Y0207208D01*
X0058900Y0208806D02*
X0058100Y0208806D01*
X0058100Y0210405D02*
X0058900Y0210405D01*
X0058900Y0212003D02*
X0058100Y0212003D01*
X0058100Y0213602D02*
X0058900Y0213602D01*
X0059018Y0215201D02*
X0057982Y0215201D01*
X0055890Y0204011D02*
X0061110Y0204011D01*
X0061400Y0202412D02*
X0008500Y0202412D01*
X0008500Y0200814D02*
X0061400Y0200814D01*
X0061400Y0199215D02*
X0051224Y0199215D01*
X0051110Y0204011D02*
X0045890Y0204011D01*
X0047489Y0205609D02*
X0049511Y0205609D01*
X0048900Y0207208D02*
X0048100Y0207208D01*
X0048100Y0208806D02*
X0048900Y0208806D01*
X0048900Y0210405D02*
X0048100Y0210405D01*
X0048100Y0212003D02*
X0048900Y0212003D01*
X0048900Y0213602D02*
X0048100Y0213602D01*
X0047982Y0215201D02*
X0049018Y0215201D01*
X0041110Y0204011D02*
X0035890Y0204011D01*
X0037489Y0205609D02*
X0039511Y0205609D01*
X0038900Y0207208D02*
X0038100Y0207208D01*
X0038100Y0208806D02*
X0038900Y0208806D01*
X0038900Y0210405D02*
X0038100Y0210405D01*
X0038100Y0212003D02*
X0038900Y0212003D01*
X0038900Y0213602D02*
X0038100Y0213602D01*
X0037982Y0215201D02*
X0039018Y0215201D01*
X0031110Y0204011D02*
X0025890Y0204011D01*
X0027489Y0205609D02*
X0029511Y0205609D01*
X0028900Y0207208D02*
X0028100Y0207208D01*
X0028100Y0208806D02*
X0028900Y0208806D01*
X0028900Y0210405D02*
X0028100Y0210405D01*
X0028100Y0212003D02*
X0028900Y0212003D01*
X0028900Y0213602D02*
X0028100Y0213602D01*
X0027982Y0215201D02*
X0029018Y0215201D01*
X0021110Y0204011D02*
X0015890Y0204011D01*
X0017489Y0205609D02*
X0019511Y0205609D01*
X0018900Y0207208D02*
X0018100Y0207208D01*
X0018100Y0208806D02*
X0018900Y0208806D01*
X0018900Y0210405D02*
X0018100Y0210405D01*
X0018100Y0212003D02*
X0018900Y0212003D01*
X0018900Y0213602D02*
X0018100Y0213602D01*
X0017982Y0215201D02*
X0019018Y0215201D01*
X0011110Y0204011D02*
X0008500Y0204011D01*
X0008500Y0205609D02*
X0009511Y0205609D01*
X0008900Y0207208D02*
X0008500Y0207208D01*
X0008500Y0208806D02*
X0008900Y0208806D01*
X0008900Y0210405D02*
X0008500Y0210405D01*
X0008500Y0212003D02*
X0008900Y0212003D01*
X0008900Y0213602D02*
X0008500Y0213602D01*
X0008500Y0215201D02*
X0009018Y0215201D01*
X0011224Y0199215D02*
X0035776Y0199215D01*
X0036760Y0200200D02*
X0034300Y0197740D01*
X0034300Y0194260D01*
X0036760Y0191800D01*
X0040240Y0191800D01*
X0042700Y0194260D01*
X0042700Y0197740D01*
X0040240Y0200200D01*
X0036760Y0200200D01*
X0034300Y0197617D02*
X0012700Y0197617D01*
X0012700Y0196018D02*
X0034300Y0196018D01*
X0034300Y0194420D02*
X0012700Y0194420D01*
X0011261Y0192821D02*
X0035739Y0192821D01*
X0036760Y0190200D02*
X0034300Y0187740D01*
X0034300Y0184260D01*
X0036760Y0181800D01*
X0040240Y0181800D01*
X0042700Y0184260D01*
X0042700Y0187740D01*
X0040240Y0190200D01*
X0036760Y0190200D01*
X0036185Y0189624D02*
X0010815Y0189624D01*
X0012414Y0188026D02*
X0034586Y0188026D01*
X0034300Y0186427D02*
X0012700Y0186427D01*
X0012700Y0184829D02*
X0034300Y0184829D01*
X0035330Y0183230D02*
X0011670Y0183230D01*
X0008500Y0181632D02*
X0070523Y0181632D01*
X0072122Y0180033D02*
X0008500Y0180033D01*
X0008500Y0178435D02*
X0019840Y0178435D01*
X0018241Y0176836D02*
X0008500Y0176836D01*
X0008500Y0175238D02*
X0016643Y0175238D01*
X0015044Y0173639D02*
X0008500Y0173639D01*
X0010999Y0172041D02*
X0013446Y0172041D01*
X0019908Y0172563D02*
X0023120Y0175775D01*
X0064505Y0175775D01*
X0065150Y0175130D01*
X0065870Y0174410D01*
X0064939Y0173479D01*
X0064300Y0171935D01*
X0064300Y0165065D01*
X0064939Y0163521D01*
X0066121Y0162339D01*
X0067665Y0161700D01*
X0069335Y0161700D01*
X0070879Y0162339D01*
X0072061Y0163521D01*
X0072700Y0165065D01*
X0072700Y0171935D01*
X0072061Y0173479D01*
X0071640Y0173900D01*
X0072630Y0173900D01*
X0074386Y0172144D01*
X0074300Y0171935D01*
X0074300Y0165065D01*
X0074939Y0163521D01*
X0076121Y0162339D01*
X0076400Y0162224D01*
X0076400Y0158816D01*
X0076164Y0159052D01*
X0074841Y0159600D01*
X0073409Y0159600D01*
X0072086Y0159052D01*
X0071073Y0158039D01*
X0070525Y0156716D01*
X0070525Y0155370D01*
X0065699Y0150543D01*
X0065850Y0150909D01*
X0065850Y0152341D01*
X0065302Y0153664D01*
X0064289Y0154677D01*
X0062966Y0155225D01*
X0062700Y0155225D01*
X0062700Y0157740D01*
X0060240Y0160200D01*
X0056760Y0160200D01*
X0054300Y0157740D01*
X0054300Y0154260D01*
X0054835Y0153725D01*
X0053745Y0153725D01*
X0047407Y0160062D01*
X0049045Y0161700D01*
X0049335Y0161700D01*
X0050879Y0162339D01*
X0052061Y0163521D01*
X0052700Y0165065D01*
X0052700Y0171935D01*
X0052061Y0173479D01*
X0050879Y0174661D01*
X0049335Y0175300D01*
X0047665Y0175300D01*
X0046121Y0174661D01*
X0044939Y0173479D01*
X0044300Y0171935D01*
X0044300Y0165065D01*
X0044936Y0163530D01*
X0042338Y0160932D01*
X0041400Y0159995D01*
X0041400Y0150200D01*
X0040065Y0150200D01*
X0038521Y0149561D01*
X0037339Y0148379D01*
X0036700Y0146835D01*
X0036700Y0145165D01*
X0037339Y0143621D01*
X0038521Y0142439D01*
X0040065Y0141800D01*
X0046935Y0141800D01*
X0048479Y0142439D01*
X0049661Y0143621D01*
X0050300Y0145165D01*
X0050300Y0146835D01*
X0049661Y0148379D01*
X0048479Y0149561D01*
X0046935Y0150200D01*
X0045600Y0150200D01*
X0045600Y0155930D01*
X0052005Y0149525D01*
X0056085Y0149525D01*
X0054300Y0147740D01*
X0054300Y0144260D01*
X0056085Y0142475D01*
X0051380Y0142475D01*
X0048470Y0139564D01*
X0046935Y0140200D01*
X0040395Y0140200D01*
X0020792Y0159803D01*
X0020879Y0159839D01*
X0022061Y0161021D01*
X0022700Y0162565D01*
X0022700Y0169435D01*
X0022061Y0170979D01*
X0020879Y0172161D01*
X0019908Y0172563D01*
X0020999Y0172041D02*
X0026001Y0172041D01*
X0026121Y0172161D02*
X0024939Y0170979D01*
X0024300Y0169435D01*
X0024300Y0162565D01*
X0024939Y0161021D01*
X0026121Y0159839D01*
X0027665Y0159200D01*
X0029335Y0159200D01*
X0030879Y0159839D01*
X0032061Y0161021D01*
X0032700Y0162565D01*
X0032700Y0169435D01*
X0032061Y0170979D01*
X0030879Y0172161D01*
X0029335Y0172800D01*
X0027665Y0172800D01*
X0026121Y0172161D01*
X0024717Y0170442D02*
X0022283Y0170442D01*
X0022700Y0168844D02*
X0024300Y0168844D01*
X0024300Y0167245D02*
X0022700Y0167245D01*
X0022700Y0165647D02*
X0024300Y0165647D01*
X0024300Y0164048D02*
X0022700Y0164048D01*
X0022652Y0162450D02*
X0024348Y0162450D01*
X0025109Y0160851D02*
X0021891Y0160851D01*
X0021342Y0159253D02*
X0027538Y0159253D01*
X0029462Y0159253D02*
X0041400Y0159253D01*
X0041400Y0157654D02*
X0022941Y0157654D01*
X0024539Y0156056D02*
X0041400Y0156056D01*
X0041400Y0154457D02*
X0026138Y0154457D01*
X0027736Y0152859D02*
X0041400Y0152859D01*
X0041400Y0151260D02*
X0029335Y0151260D01*
X0030933Y0149662D02*
X0038765Y0149662D01*
X0037209Y0148063D02*
X0032532Y0148063D01*
X0034130Y0146465D02*
X0036700Y0146465D01*
X0036824Y0144866D02*
X0035729Y0144866D01*
X0037327Y0143268D02*
X0037693Y0143268D01*
X0038926Y0141669D02*
X0050574Y0141669D01*
X0049307Y0143268D02*
X0055293Y0143268D01*
X0054300Y0144866D02*
X0050176Y0144866D01*
X0050300Y0146465D02*
X0054300Y0146465D01*
X0054623Y0148063D02*
X0049791Y0148063D01*
X0048235Y0149662D02*
X0051869Y0149662D01*
X0050270Y0151260D02*
X0045600Y0151260D01*
X0045600Y0152859D02*
X0048672Y0152859D01*
X0047073Y0154457D02*
X0045600Y0154457D01*
X0048217Y0159253D02*
X0055813Y0159253D01*
X0054300Y0157654D02*
X0049816Y0157654D01*
X0051414Y0156056D02*
X0054300Y0156056D01*
X0054300Y0154457D02*
X0053013Y0154457D01*
X0048196Y0160851D02*
X0076400Y0160851D01*
X0076400Y0159253D02*
X0075680Y0159253D01*
X0076011Y0162450D02*
X0070989Y0162450D01*
X0072279Y0164048D02*
X0074721Y0164048D01*
X0074300Y0165647D02*
X0072700Y0165647D01*
X0072700Y0167245D02*
X0074300Y0167245D01*
X0074300Y0168844D02*
X0072700Y0168844D01*
X0072700Y0170442D02*
X0074300Y0170442D01*
X0074344Y0172041D02*
X0072656Y0172041D01*
X0072891Y0173639D02*
X0071900Y0173639D01*
X0073720Y0178435D02*
X0067785Y0178435D01*
X0065042Y0175238D02*
X0059486Y0175238D01*
X0059335Y0175300D02*
X0057665Y0175300D01*
X0056121Y0174661D01*
X0054939Y0173479D01*
X0054300Y0171935D01*
X0054300Y0165065D01*
X0054939Y0163521D01*
X0056121Y0162339D01*
X0057665Y0161700D01*
X0059335Y0161700D01*
X0060879Y0162339D01*
X0062061Y0163521D01*
X0062700Y0165065D01*
X0062700Y0171935D01*
X0062061Y0173479D01*
X0060879Y0174661D01*
X0059335Y0175300D01*
X0061900Y0173639D02*
X0065100Y0173639D01*
X0064344Y0172041D02*
X0062656Y0172041D01*
X0062700Y0170442D02*
X0064300Y0170442D01*
X0064300Y0168844D02*
X0062700Y0168844D01*
X0062700Y0167245D02*
X0064300Y0167245D01*
X0064300Y0165647D02*
X0062700Y0165647D01*
X0062279Y0164048D02*
X0064721Y0164048D01*
X0066011Y0162450D02*
X0060989Y0162450D01*
X0061187Y0159253D02*
X0072570Y0159253D01*
X0070914Y0157654D02*
X0062700Y0157654D01*
X0062700Y0156056D02*
X0070525Y0156056D01*
X0069612Y0154457D02*
X0064509Y0154457D01*
X0065636Y0152859D02*
X0068014Y0152859D01*
X0066415Y0151260D02*
X0065850Y0151260D01*
X0063332Y0148176D02*
X0062700Y0147545D01*
X0062700Y0147740D01*
X0062415Y0148025D01*
X0062966Y0148025D01*
X0063332Y0148176D01*
X0063218Y0148063D02*
X0063058Y0148063D01*
X0054835Y0138275D02*
X0054300Y0137740D01*
X0054300Y0134260D01*
X0056085Y0132475D01*
X0048515Y0132475D01*
X0049661Y0133621D01*
X0050300Y0135165D01*
X0050300Y0135455D01*
X0053120Y0138275D01*
X0054835Y0138275D01*
X0054300Y0136873D02*
X0051718Y0136873D01*
X0050300Y0135275D02*
X0054300Y0135275D01*
X0054884Y0133676D02*
X0049684Y0133676D01*
X0049704Y0128275D02*
X0054835Y0128275D01*
X0054300Y0127740D01*
X0054300Y0127545D01*
X0053745Y0128100D01*
X0049776Y0128100D01*
X0049704Y0128275D01*
X0049776Y0123900D02*
X0052005Y0123900D01*
X0056233Y0119672D01*
X0054300Y0117740D01*
X0054300Y0114260D01*
X0054358Y0114203D01*
X0052005Y0111850D01*
X0050775Y0110620D01*
X0050775Y0071245D01*
X0050300Y0070770D01*
X0050300Y0071835D01*
X0049661Y0073379D01*
X0048479Y0074561D01*
X0046935Y0075200D01*
X0045600Y0075200D01*
X0045600Y0075620D01*
X0038964Y0082256D01*
X0040065Y0081800D01*
X0046935Y0081800D01*
X0048479Y0082439D01*
X0049661Y0083621D01*
X0050300Y0085165D01*
X0050300Y0086835D01*
X0049661Y0088379D01*
X0048479Y0089561D01*
X0046935Y0090200D01*
X0040065Y0090200D01*
X0038521Y0089561D01*
X0037339Y0088379D01*
X0036700Y0086835D01*
X0036700Y0085165D01*
X0037156Y0084064D01*
X0036225Y0084995D01*
X0036225Y0098255D01*
X0039856Y0101886D01*
X0040065Y0101800D01*
X0046935Y0101800D01*
X0048479Y0102439D01*
X0049661Y0103621D01*
X0050300Y0105165D01*
X0050300Y0106835D01*
X0049661Y0108379D01*
X0048479Y0109561D01*
X0046935Y0110200D01*
X0040065Y0110200D01*
X0038521Y0109561D01*
X0037339Y0108379D01*
X0036700Y0106835D01*
X0036700Y0105165D01*
X0036845Y0104815D01*
X0032025Y0099995D01*
X0032025Y0083255D01*
X0033255Y0082025D01*
X0040080Y0075200D01*
X0040065Y0075200D01*
X0038521Y0074561D01*
X0037339Y0073379D01*
X0036700Y0071835D01*
X0036700Y0070165D01*
X0037339Y0068621D01*
X0038521Y0067439D01*
X0040065Y0066800D01*
X0046330Y0066800D01*
X0044730Y0065200D01*
X0040065Y0065200D01*
X0038521Y0064561D01*
X0037339Y0063379D01*
X0036937Y0062408D01*
X0020532Y0078813D01*
X0023745Y0082025D01*
X0024975Y0083255D01*
X0024975Y0109995D01*
X0020155Y0114815D01*
X0020300Y0115165D01*
X0020300Y0116835D01*
X0019661Y0118379D01*
X0018479Y0119561D01*
X0016935Y0120200D01*
X0010065Y0120200D01*
X0008521Y0119561D01*
X0008500Y0119540D01*
X0008500Y0122460D01*
X0008521Y0122439D01*
X0010065Y0121800D01*
X0016935Y0121800D01*
X0018479Y0122439D01*
X0019661Y0123621D01*
X0020300Y0125165D01*
X0020300Y0126835D01*
X0019661Y0128379D01*
X0018479Y0129561D01*
X0016935Y0130200D01*
X0010065Y0130200D01*
X0008521Y0129561D01*
X0008500Y0129540D01*
X0008500Y0132460D01*
X0008521Y0132439D01*
X0010065Y0131800D01*
X0016935Y0131800D01*
X0018479Y0132439D01*
X0019661Y0133621D01*
X0019776Y0133900D01*
X0034505Y0133900D01*
X0038750Y0129655D01*
X0038521Y0129561D01*
X0037339Y0128379D01*
X0036700Y0126835D01*
X0036700Y0125165D01*
X0037339Y0123621D01*
X0038521Y0122439D01*
X0040065Y0121800D01*
X0046935Y0121800D01*
X0048479Y0122439D01*
X0049661Y0123621D01*
X0049776Y0123900D01*
X0048527Y0122487D02*
X0053418Y0122487D01*
X0055017Y0120888D02*
X0008500Y0120888D01*
X0008500Y0112460D02*
X0008521Y0112439D01*
X0010065Y0111800D01*
X0016935Y0111800D01*
X0017144Y0111886D01*
X0020775Y0108255D01*
X0020775Y0084995D01*
X0019844Y0084064D01*
X0020300Y0085165D01*
X0020300Y0086835D01*
X0019661Y0088379D01*
X0018479Y0089561D01*
X0016935Y0090200D01*
X0010065Y0090200D01*
X0008521Y0089561D01*
X0008500Y0089540D01*
X0008500Y0092460D01*
X0008521Y0092439D01*
X0010065Y0091800D01*
X0016935Y0091800D01*
X0018479Y0092439D01*
X0019661Y0093621D01*
X0020300Y0095165D01*
X0020300Y0096835D01*
X0019661Y0098379D01*
X0018479Y0099561D01*
X0016935Y0100200D01*
X0010065Y0100200D01*
X0008521Y0099561D01*
X0008500Y0099540D01*
X0008500Y0102460D01*
X0008521Y0102439D01*
X0010065Y0101800D01*
X0016935Y0101800D01*
X0018479Y0102439D01*
X0019661Y0103621D01*
X0020300Y0105165D01*
X0020300Y0106835D01*
X0019661Y0108379D01*
X0018479Y0109561D01*
X0016935Y0110200D01*
X0010065Y0110200D01*
X0008521Y0109561D01*
X0008500Y0109540D01*
X0008500Y0112460D01*
X0008500Y0111297D02*
X0017733Y0111297D01*
X0018145Y0109699D02*
X0019331Y0109699D01*
X0019776Y0108100D02*
X0020775Y0108100D01*
X0020775Y0106502D02*
X0020300Y0106502D01*
X0020192Y0104903D02*
X0020775Y0104903D01*
X0020775Y0103305D02*
X0019344Y0103305D01*
X0020775Y0101706D02*
X0008500Y0101706D01*
X0008500Y0100108D02*
X0009842Y0100108D01*
X0009304Y0092115D02*
X0008500Y0092115D01*
X0008500Y0090517D02*
X0020775Y0090517D01*
X0020775Y0092115D02*
X0017696Y0092115D01*
X0019699Y0093714D02*
X0020775Y0093714D01*
X0020775Y0095312D02*
X0020300Y0095312D01*
X0020269Y0096911D02*
X0020775Y0096911D01*
X0020775Y0098509D02*
X0019530Y0098509D01*
X0020775Y0100108D02*
X0017158Y0100108D01*
X0019122Y0088918D02*
X0020775Y0088918D01*
X0020775Y0087320D02*
X0020099Y0087320D01*
X0020300Y0085721D02*
X0020775Y0085721D01*
X0019903Y0084123D02*
X0019868Y0084123D01*
X0018036Y0082256D02*
X0016693Y0080912D01*
X0016693Y0080912D01*
X0015462Y0079682D01*
X0011400Y0075620D01*
X0011400Y0075200D01*
X0010065Y0075200D01*
X0008521Y0074561D01*
X0008500Y0074540D01*
X0008500Y0082460D01*
X0008521Y0082439D01*
X0010065Y0081800D01*
X0016935Y0081800D01*
X0018036Y0082256D01*
X0016706Y0080926D02*
X0008500Y0080926D01*
X0008500Y0079327D02*
X0015107Y0079327D01*
X0015462Y0079682D02*
X0015462Y0079682D01*
X0013509Y0077729D02*
X0008500Y0077729D01*
X0008500Y0076130D02*
X0011910Y0076130D01*
X0016920Y0075200D02*
X0017562Y0075843D01*
X0021555Y0071850D01*
X0020836Y0071552D01*
X0020300Y0071016D01*
X0020300Y0071835D01*
X0019661Y0073379D01*
X0018479Y0074561D01*
X0016935Y0075200D01*
X0016920Y0075200D01*
X0018508Y0074532D02*
X0018874Y0074532D01*
X0019845Y0072933D02*
X0020472Y0072933D01*
X0020618Y0071334D02*
X0020300Y0071334D01*
X0019275Y0068235D02*
X0019275Y0067784D01*
X0019823Y0066461D01*
X0020836Y0065448D01*
X0022159Y0064900D01*
X0023505Y0064900D01*
X0023900Y0064505D01*
X0023900Y0040866D01*
X0022948Y0039914D01*
X0022650Y0039195D01*
X0020300Y0041545D01*
X0020300Y0041835D01*
X0019661Y0043379D01*
X0018479Y0044561D01*
X0016935Y0045200D01*
X0010065Y0045200D01*
X0008521Y0044561D01*
X0008500Y0044540D01*
X0008500Y0047460D01*
X0008521Y0047439D01*
X0010065Y0046800D01*
X0016935Y0046800D01*
X0018479Y0047439D01*
X0019661Y0048621D01*
X0020300Y0050165D01*
X0020300Y0051835D01*
X0019661Y0053379D01*
X0018479Y0054561D01*
X0016935Y0055200D01*
X0010065Y0055200D01*
X0008521Y0054561D01*
X0008500Y0054540D01*
X0008500Y0057460D01*
X0008521Y0057439D01*
X0010065Y0056800D01*
X0016935Y0056800D01*
X0018479Y0057439D01*
X0019661Y0058621D01*
X0020300Y0060165D01*
X0020300Y0061835D01*
X0019661Y0063379D01*
X0018479Y0064561D01*
X0016935Y0065200D01*
X0010065Y0065200D01*
X0008521Y0064561D01*
X0008500Y0064540D01*
X0008500Y0067460D01*
X0008521Y0067439D01*
X0010065Y0066800D01*
X0016935Y0066800D01*
X0018479Y0067439D01*
X0019275Y0068235D01*
X0019275Y0068137D02*
X0019177Y0068137D01*
X0019791Y0066539D02*
X0008500Y0066539D01*
X0008500Y0064940D02*
X0009438Y0064940D01*
X0009707Y0056948D02*
X0008500Y0056948D01*
X0008500Y0055349D02*
X0023900Y0055349D01*
X0023900Y0053751D02*
X0019289Y0053751D01*
X0020169Y0052152D02*
X0023900Y0052152D01*
X0023900Y0050554D02*
X0020300Y0050554D01*
X0019799Y0048955D02*
X0023900Y0048955D01*
X0023900Y0047357D02*
X0018280Y0047357D01*
X0018880Y0044160D02*
X0023900Y0044160D01*
X0023900Y0045758D02*
X0008500Y0045758D01*
X0008500Y0047357D02*
X0008720Y0047357D01*
X0008500Y0037460D02*
X0008521Y0037439D01*
X0010065Y0036800D01*
X0016935Y0036800D01*
X0018470Y0037436D01*
X0030775Y0025130D01*
X0030775Y0025130D01*
X0032005Y0023900D01*
X0037860Y0023900D01*
X0037339Y0023379D01*
X0036937Y0022408D01*
X0036245Y0023100D01*
X0019776Y0023100D01*
X0019661Y0023379D01*
X0018479Y0024561D01*
X0016935Y0025200D01*
X0010065Y0025200D01*
X0008521Y0024561D01*
X0008500Y0024540D01*
X0008500Y0027460D01*
X0008521Y0027439D01*
X0010065Y0026800D01*
X0016935Y0026800D01*
X0018479Y0027439D01*
X0019661Y0028621D01*
X0020300Y0030165D01*
X0020300Y0031835D01*
X0019661Y0033379D01*
X0018479Y0034561D01*
X0016935Y0035200D01*
X0010065Y0035200D01*
X0008521Y0034561D01*
X0008500Y0034540D01*
X0008500Y0037460D01*
X0008500Y0036167D02*
X0019738Y0036167D01*
X0018459Y0034569D02*
X0021336Y0034569D01*
X0019830Y0032970D02*
X0022935Y0032970D01*
X0024533Y0031372D02*
X0020300Y0031372D01*
X0020138Y0029773D02*
X0026132Y0029773D01*
X0027730Y0028175D02*
X0019214Y0028175D01*
X0017472Y0024978D02*
X0030927Y0024978D01*
X0029329Y0026576D02*
X0008500Y0026576D01*
X0008500Y0024978D02*
X0009528Y0024978D01*
X0008500Y0017460D02*
X0008521Y0017439D01*
X0010065Y0016800D01*
X0016935Y0016800D01*
X0018479Y0017439D01*
X0019661Y0018621D01*
X0019776Y0018900D01*
X0034505Y0018900D01*
X0037650Y0015755D01*
X0038750Y0014655D01*
X0038521Y0014561D01*
X0037339Y0013379D01*
X0037224Y0013100D01*
X0020755Y0013100D01*
X0020063Y0012408D01*
X0019661Y0013379D01*
X0018479Y0014561D01*
X0016935Y0015200D01*
X0010065Y0015200D01*
X0008521Y0014561D01*
X0008500Y0014540D01*
X0008500Y0017460D01*
X0008500Y0016985D02*
X0009618Y0016985D01*
X0008500Y0015387D02*
X0038019Y0015387D01*
X0037748Y0013788D02*
X0019252Y0013788D01*
X0017382Y0016985D02*
X0036420Y0016985D01*
X0034822Y0018584D02*
X0019623Y0018584D01*
X0019661Y0023379D02*
X0037339Y0023379D01*
X0037860Y0028100D02*
X0033745Y0028100D01*
X0027320Y0034525D01*
X0028039Y0034823D01*
X0029052Y0035836D01*
X0029600Y0037159D01*
X0029600Y0038591D01*
X0029052Y0039914D01*
X0028100Y0040866D01*
X0028100Y0065305D01*
X0038750Y0054655D01*
X0038521Y0054561D01*
X0037339Y0053379D01*
X0036700Y0051835D01*
X0036700Y0050165D01*
X0037339Y0048621D01*
X0038521Y0047439D01*
X0040065Y0046800D01*
X0046935Y0046800D01*
X0048479Y0047439D01*
X0049661Y0048621D01*
X0050300Y0050165D01*
X0050300Y0051835D01*
X0049661Y0053379D01*
X0048479Y0054561D01*
X0048250Y0054655D01*
X0049350Y0055755D01*
X0052475Y0058880D01*
X0052475Y0062630D01*
X0054300Y0064455D01*
X0054300Y0064260D01*
X0056760Y0061800D01*
X0060240Y0061800D01*
X0062340Y0063900D01*
X0072005Y0063900D01*
X0086233Y0049672D01*
X0084300Y0047740D01*
X0084300Y0045395D01*
X0082318Y0043412D01*
X0082005Y0043100D01*
X0075066Y0043100D01*
X0075927Y0043961D01*
X0076475Y0045284D01*
X0076475Y0046716D01*
X0075927Y0048039D01*
X0074914Y0049052D01*
X0073591Y0049600D01*
X0072159Y0049600D01*
X0070836Y0049052D01*
X0069884Y0048100D01*
X0062340Y0048100D01*
X0060240Y0050200D01*
X0056760Y0050200D01*
X0054300Y0047740D01*
X0054300Y0044260D01*
X0055460Y0043100D01*
X0049776Y0043100D01*
X0049661Y0043379D01*
X0048479Y0044561D01*
X0046935Y0045200D01*
X0040065Y0045200D01*
X0038521Y0044561D01*
X0037339Y0043379D01*
X0036700Y0041835D01*
X0036700Y0040165D01*
X0037339Y0038621D01*
X0038521Y0037439D01*
X0040065Y0036800D01*
X0046935Y0036800D01*
X0048479Y0037439D01*
X0049661Y0038621D01*
X0049776Y0038900D01*
X0055460Y0038900D01*
X0054300Y0037740D01*
X0054300Y0034260D01*
X0056760Y0031800D01*
X0058060Y0031800D01*
X0058025Y0031716D01*
X0058025Y0030284D01*
X0058060Y0030200D01*
X0056760Y0030200D01*
X0054660Y0028100D01*
X0049140Y0028100D01*
X0049661Y0028621D01*
X0050300Y0030165D01*
X0050300Y0031835D01*
X0049661Y0033379D01*
X0048479Y0034561D01*
X0046935Y0035200D01*
X0040065Y0035200D01*
X0038521Y0034561D01*
X0037339Y0033379D01*
X0036700Y0031835D01*
X0036700Y0030165D01*
X0037339Y0028621D01*
X0037860Y0028100D01*
X0037786Y0028175D02*
X0033670Y0028175D01*
X0032072Y0029773D02*
X0036862Y0029773D01*
X0036700Y0031372D02*
X0030473Y0031372D01*
X0028875Y0032970D02*
X0037170Y0032970D01*
X0038541Y0034569D02*
X0027425Y0034569D01*
X0029189Y0036167D02*
X0054300Y0036167D01*
X0054300Y0034569D02*
X0048459Y0034569D01*
X0049830Y0032970D02*
X0055590Y0032970D01*
X0056334Y0029773D02*
X0050138Y0029773D01*
X0050300Y0031372D02*
X0058025Y0031372D01*
X0054735Y0028175D02*
X0049214Y0028175D01*
X0049140Y0023900D02*
X0054660Y0023900D01*
X0056760Y0021800D01*
X0060240Y0021800D01*
X0062700Y0024260D01*
X0062700Y0027549D01*
X0063664Y0027948D01*
X0064616Y0028900D01*
X0073255Y0028900D01*
X0074055Y0028100D01*
X0067005Y0028100D01*
X0065775Y0026870D01*
X0057630Y0018725D01*
X0049704Y0018725D01*
X0050300Y0020165D01*
X0050300Y0021835D01*
X0049661Y0023379D01*
X0049140Y0023900D01*
X0049661Y0023379D02*
X0055181Y0023379D01*
X0059087Y0020182D02*
X0050300Y0020182D01*
X0050300Y0021781D02*
X0060686Y0021781D01*
X0061819Y0023379D02*
X0062284Y0023379D01*
X0062700Y0024978D02*
X0063883Y0024978D01*
X0062700Y0026576D02*
X0065481Y0026576D01*
X0063891Y0028175D02*
X0073980Y0028175D01*
X0075130Y0023900D02*
X0075350Y0023680D01*
X0074858Y0023812D01*
X0072142Y0023812D01*
X0069520Y0023109D01*
X0067168Y0021751D01*
X0065248Y0019832D01*
X0063891Y0017480D01*
X0063188Y0014858D01*
X0063188Y0012142D01*
X0063891Y0009520D01*
X0065248Y0007168D01*
X0066417Y0006000D01*
X0019595Y0006000D01*
X0022495Y0008900D01*
X0037224Y0008900D01*
X0037339Y0008621D01*
X0038521Y0007439D01*
X0040065Y0006800D01*
X0046935Y0006800D01*
X0048479Y0007439D01*
X0049661Y0008621D01*
X0050300Y0010165D01*
X0050300Y0011835D01*
X0049661Y0013379D01*
X0048515Y0014525D01*
X0059370Y0014525D01*
X0068745Y0023900D01*
X0075130Y0023900D01*
X0070528Y0023379D02*
X0068224Y0023379D01*
X0067219Y0021781D02*
X0066625Y0021781D01*
X0065599Y0020182D02*
X0065027Y0020182D01*
X0064528Y0018584D02*
X0063428Y0018584D01*
X0063758Y0016985D02*
X0061830Y0016985D01*
X0063330Y0015387D02*
X0060231Y0015387D01*
X0063188Y0013788D02*
X0049252Y0013788D01*
X0050153Y0012190D02*
X0063188Y0012190D01*
X0063604Y0010591D02*
X0050300Y0010591D01*
X0049815Y0008993D02*
X0064195Y0008993D01*
X0065118Y0007394D02*
X0048370Y0007394D01*
X0038630Y0007394D02*
X0020989Y0007394D01*
X0008541Y0034569D02*
X0008500Y0034569D01*
X0020882Y0040963D02*
X0023900Y0040963D01*
X0023900Y0042561D02*
X0019999Y0042561D01*
X0022481Y0039364D02*
X0022720Y0039364D01*
X0028100Y0040963D02*
X0036700Y0040963D01*
X0037001Y0042561D02*
X0028100Y0042561D01*
X0028100Y0044160D02*
X0038120Y0044160D01*
X0038720Y0047357D02*
X0028100Y0047357D01*
X0028100Y0048955D02*
X0037201Y0048955D01*
X0036700Y0050554D02*
X0028100Y0050554D01*
X0028100Y0052152D02*
X0036831Y0052152D01*
X0037711Y0053751D02*
X0028100Y0053751D01*
X0028100Y0055349D02*
X0038056Y0055349D01*
X0036457Y0056948D02*
X0028100Y0056948D01*
X0028100Y0058546D02*
X0034859Y0058546D01*
X0033260Y0060145D02*
X0028100Y0060145D01*
X0028100Y0061743D02*
X0031662Y0061743D01*
X0030063Y0063342D02*
X0028100Y0063342D01*
X0028100Y0064940D02*
X0028465Y0064940D01*
X0031207Y0068137D02*
X0037823Y0068137D01*
X0036878Y0069736D02*
X0029609Y0069736D01*
X0028010Y0071334D02*
X0036700Y0071334D01*
X0037155Y0072933D02*
X0026412Y0072933D01*
X0024813Y0074532D02*
X0038492Y0074532D01*
X0039150Y0076130D02*
X0023215Y0076130D01*
X0021616Y0077729D02*
X0037552Y0077729D01*
X0035953Y0079327D02*
X0021047Y0079327D01*
X0022645Y0080926D02*
X0034355Y0080926D01*
X0032756Y0082524D02*
X0024244Y0082524D01*
X0023745Y0082025D02*
X0023745Y0082025D01*
X0024975Y0084123D02*
X0032025Y0084123D01*
X0032025Y0085721D02*
X0024975Y0085721D01*
X0024975Y0087320D02*
X0032025Y0087320D01*
X0032025Y0088918D02*
X0024975Y0088918D01*
X0024975Y0090517D02*
X0032025Y0090517D01*
X0032025Y0092115D02*
X0024975Y0092115D01*
X0024975Y0093714D02*
X0032025Y0093714D01*
X0032025Y0095312D02*
X0024975Y0095312D01*
X0024975Y0096911D02*
X0032025Y0096911D01*
X0032025Y0098509D02*
X0024975Y0098509D01*
X0024975Y0100108D02*
X0032138Y0100108D01*
X0033736Y0101706D02*
X0024975Y0101706D01*
X0024975Y0103305D02*
X0035335Y0103305D01*
X0036808Y0104903D02*
X0024975Y0104903D01*
X0024975Y0106502D02*
X0036700Y0106502D01*
X0037224Y0108100D02*
X0024975Y0108100D01*
X0024975Y0109699D02*
X0038855Y0109699D01*
X0040065Y0111800D02*
X0038521Y0112439D01*
X0037339Y0113621D01*
X0036700Y0115165D01*
X0036700Y0116835D01*
X0037339Y0118379D01*
X0038521Y0119561D01*
X0040065Y0120200D01*
X0046935Y0120200D01*
X0048479Y0119561D01*
X0049661Y0118379D01*
X0050300Y0116835D01*
X0050300Y0115165D01*
X0049661Y0113621D01*
X0048479Y0112439D01*
X0046935Y0111800D01*
X0040065Y0111800D01*
X0038065Y0112896D02*
X0022074Y0112896D01*
X0020476Y0114494D02*
X0036978Y0114494D01*
X0036700Y0116093D02*
X0020300Y0116093D01*
X0019945Y0117691D02*
X0037055Y0117691D01*
X0038250Y0119290D02*
X0018750Y0119290D01*
X0018527Y0122487D02*
X0038473Y0122487D01*
X0037147Y0124085D02*
X0019853Y0124085D01*
X0020300Y0125684D02*
X0036700Y0125684D01*
X0036885Y0127282D02*
X0020115Y0127282D01*
X0019159Y0128881D02*
X0037841Y0128881D01*
X0037926Y0130479D02*
X0008500Y0130479D01*
X0008500Y0132078D02*
X0009394Y0132078D01*
X0008500Y0139540D02*
X0008500Y0142460D01*
X0008521Y0142439D01*
X0010065Y0141800D01*
X0016935Y0141800D01*
X0018479Y0142439D01*
X0019661Y0143621D01*
X0020300Y0145165D01*
X0020300Y0146835D01*
X0019661Y0148379D01*
X0018479Y0149561D01*
X0016935Y0150200D01*
X0015600Y0150200D01*
X0015600Y0160360D01*
X0016121Y0159839D01*
X0016400Y0159724D01*
X0016400Y0158255D01*
X0037028Y0137627D01*
X0036937Y0137408D01*
X0036245Y0138100D01*
X0019776Y0138100D01*
X0019661Y0138379D01*
X0018479Y0139561D01*
X0016935Y0140200D01*
X0010065Y0140200D01*
X0008521Y0139561D01*
X0008500Y0139540D01*
X0008500Y0140070D02*
X0009752Y0140070D01*
X0008500Y0141669D02*
X0032986Y0141669D01*
X0031388Y0143268D02*
X0019307Y0143268D01*
X0020176Y0144866D02*
X0029789Y0144866D01*
X0028191Y0146465D02*
X0020300Y0146465D01*
X0019791Y0148063D02*
X0026592Y0148063D01*
X0024994Y0149662D02*
X0018235Y0149662D01*
X0015600Y0151260D02*
X0023395Y0151260D01*
X0021797Y0152859D02*
X0015600Y0152859D01*
X0015600Y0154457D02*
X0020198Y0154457D01*
X0018600Y0156056D02*
X0015600Y0156056D01*
X0015600Y0157654D02*
X0017001Y0157654D01*
X0016400Y0159253D02*
X0015600Y0159253D01*
X0011400Y0159253D02*
X0009462Y0159253D01*
X0009335Y0159200D02*
X0010879Y0159839D01*
X0011400Y0160360D01*
X0011400Y0150200D01*
X0010065Y0150200D01*
X0008521Y0149561D01*
X0008500Y0149540D01*
X0008500Y0159200D01*
X0009335Y0159200D01*
X0008500Y0157654D02*
X0011400Y0157654D01*
X0011400Y0156056D02*
X0008500Y0156056D01*
X0008500Y0154457D02*
X0011400Y0154457D01*
X0011400Y0152859D02*
X0008500Y0152859D01*
X0008500Y0151260D02*
X0011400Y0151260D01*
X0008765Y0149662D02*
X0008500Y0149662D01*
X0017248Y0140070D02*
X0034585Y0140070D01*
X0036183Y0138472D02*
X0019568Y0138472D01*
X0019684Y0133676D02*
X0034729Y0133676D01*
X0036327Y0132078D02*
X0017606Y0132078D01*
X0023673Y0111297D02*
X0051452Y0111297D01*
X0052005Y0111850D02*
X0052005Y0111850D01*
X0053051Y0112896D02*
X0048935Y0112896D01*
X0050022Y0114494D02*
X0054300Y0114494D01*
X0054300Y0116093D02*
X0050300Y0116093D01*
X0049945Y0117691D02*
X0054300Y0117691D01*
X0055850Y0119290D02*
X0048750Y0119290D01*
X0048145Y0109699D02*
X0050775Y0109699D01*
X0050775Y0108100D02*
X0049776Y0108100D01*
X0050300Y0106502D02*
X0050775Y0106502D01*
X0050775Y0104903D02*
X0050192Y0104903D01*
X0050775Y0103305D02*
X0049344Y0103305D01*
X0050775Y0101706D02*
X0039676Y0101706D01*
X0040065Y0100200D02*
X0038521Y0099561D01*
X0037339Y0098379D01*
X0036700Y0096835D01*
X0036700Y0095165D01*
X0037339Y0093621D01*
X0038521Y0092439D01*
X0040065Y0091800D01*
X0046935Y0091800D01*
X0048479Y0092439D01*
X0049661Y0093621D01*
X0050300Y0095165D01*
X0050300Y0096835D01*
X0049661Y0098379D01*
X0048479Y0099561D01*
X0046935Y0100200D01*
X0040065Y0100200D01*
X0039842Y0100108D02*
X0038078Y0100108D01*
X0037470Y0098509D02*
X0036479Y0098509D01*
X0036731Y0096911D02*
X0036225Y0096911D01*
X0036225Y0095312D02*
X0036700Y0095312D01*
X0036225Y0093714D02*
X0037301Y0093714D01*
X0036225Y0092115D02*
X0039304Y0092115D01*
X0037878Y0088918D02*
X0036225Y0088918D01*
X0036225Y0087320D02*
X0036901Y0087320D01*
X0036700Y0085721D02*
X0036225Y0085721D01*
X0037097Y0084123D02*
X0037132Y0084123D01*
X0040294Y0080926D02*
X0050775Y0080926D01*
X0050775Y0082524D02*
X0048564Y0082524D01*
X0049868Y0084123D02*
X0050775Y0084123D01*
X0050775Y0085721D02*
X0050300Y0085721D01*
X0050099Y0087320D02*
X0050775Y0087320D01*
X0050775Y0088918D02*
X0049122Y0088918D01*
X0047696Y0092115D02*
X0050775Y0092115D01*
X0050775Y0090517D02*
X0036225Y0090517D01*
X0041893Y0079327D02*
X0050775Y0079327D01*
X0050775Y0077729D02*
X0043491Y0077729D01*
X0045090Y0076130D02*
X0050775Y0076130D01*
X0050775Y0074532D02*
X0048508Y0074532D01*
X0049845Y0072933D02*
X0050775Y0072933D01*
X0050775Y0071334D02*
X0050300Y0071334D01*
X0054975Y0071334D02*
X0055240Y0071334D01*
X0054975Y0071070D02*
X0054975Y0073585D01*
X0056233Y0072328D01*
X0054975Y0071070D01*
X0054975Y0072933D02*
X0055627Y0072933D01*
X0054975Y0078415D02*
X0054975Y0083585D01*
X0056760Y0081800D01*
X0060240Y0081800D01*
X0062700Y0084260D01*
X0062700Y0084834D01*
X0063336Y0084198D01*
X0064659Y0083650D01*
X0066091Y0083650D01*
X0067414Y0084198D01*
X0068427Y0085211D01*
X0068975Y0086534D01*
X0068975Y0087966D01*
X0068427Y0089289D01*
X0067475Y0090241D01*
X0067475Y0099370D01*
X0062642Y0104203D01*
X0062700Y0104260D01*
X0062700Y0107740D01*
X0060240Y0110200D01*
X0056760Y0110200D01*
X0054975Y0108415D01*
X0054975Y0108880D01*
X0057895Y0111800D01*
X0060240Y0111800D01*
X0062700Y0114260D01*
X0062700Y0114455D01*
X0068588Y0108568D01*
X0068588Y0108568D01*
X0068900Y0108255D01*
X0068900Y0093255D01*
X0084358Y0077797D01*
X0084300Y0077740D01*
X0084300Y0077545D01*
X0078745Y0083100D01*
X0077005Y0083100D01*
X0065130Y0083100D01*
X0063900Y0081870D01*
X0061235Y0079205D01*
X0060240Y0080200D01*
X0056760Y0080200D01*
X0054975Y0078415D01*
X0054975Y0079327D02*
X0055887Y0079327D01*
X0054975Y0080926D02*
X0062956Y0080926D01*
X0064554Y0082524D02*
X0060964Y0082524D01*
X0062562Y0084123D02*
X0063518Y0084123D01*
X0067232Y0084123D02*
X0078033Y0084123D01*
X0079321Y0082524D02*
X0079631Y0082524D01*
X0080919Y0080926D02*
X0081230Y0080926D01*
X0082518Y0079327D02*
X0082828Y0079327D01*
X0084116Y0077729D02*
X0084300Y0077729D01*
X0087169Y0080926D02*
X0100900Y0080926D01*
X0100900Y0080085D02*
X0101600Y0078394D01*
X0102894Y0077100D01*
X0104585Y0076400D01*
X0112415Y0076400D01*
X0113500Y0076849D01*
X0113500Y0075151D01*
X0112415Y0075600D01*
X0104585Y0075600D01*
X0102894Y0074900D01*
X0101600Y0073606D01*
X0100900Y0071915D01*
X0100900Y0070085D01*
X0101600Y0068394D01*
X0102894Y0067100D01*
X0104585Y0066400D01*
X0112415Y0066400D01*
X0113500Y0066849D01*
X0113500Y0065151D01*
X0112415Y0065600D01*
X0104585Y0065600D01*
X0102894Y0064900D01*
X0101600Y0063606D01*
X0100982Y0062113D01*
X0090767Y0072328D01*
X0092700Y0074260D01*
X0092700Y0077740D01*
X0090240Y0080200D01*
X0087895Y0080200D01*
X0073100Y0094995D01*
X0073100Y0100912D01*
X0074034Y0100525D01*
X0075466Y0100525D01*
X0076789Y0101073D01*
X0077802Y0102086D01*
X0078350Y0103409D01*
X0078350Y0104755D01*
X0086078Y0112483D01*
X0086760Y0111800D01*
X0090240Y0111800D01*
X0092700Y0114260D01*
X0092700Y0117740D01*
X0090767Y0119672D01*
X0095150Y0124055D01*
X0095150Y0116245D01*
X0089105Y0110200D01*
X0086760Y0110200D01*
X0084300Y0107740D01*
X0084300Y0104260D01*
X0086760Y0101800D01*
X0090240Y0101800D01*
X0092700Y0104260D01*
X0092700Y0107740D01*
X0092642Y0107797D01*
X0099350Y0114505D01*
X0099350Y0161380D01*
X0109975Y0172005D01*
X0109975Y0175985D01*
X0111121Y0174839D01*
X0112665Y0174200D01*
X0113500Y0174200D01*
X0113500Y0165151D01*
X0112415Y0165600D01*
X0104585Y0165600D01*
X0102894Y0164900D01*
X0101600Y0163606D01*
X0100900Y0161915D01*
X0100900Y0160085D01*
X0101600Y0158394D01*
X0102894Y0157100D01*
X0104585Y0156400D01*
X0112415Y0156400D01*
X0113500Y0156849D01*
X0113500Y0155151D01*
X0112415Y0155600D01*
X0104585Y0155600D01*
X0102894Y0154900D01*
X0101600Y0153606D01*
X0100900Y0151915D01*
X0100900Y0150085D01*
X0101600Y0148394D01*
X0102894Y0147100D01*
X0104585Y0146400D01*
X0112415Y0146400D01*
X0113500Y0146849D01*
X0113500Y0145151D01*
X0112415Y0145600D01*
X0104585Y0145600D01*
X0102894Y0144900D01*
X0101600Y0143606D01*
X0100900Y0141915D01*
X0100900Y0140085D01*
X0101600Y0138394D01*
X0102894Y0137100D01*
X0104585Y0136400D01*
X0112415Y0136400D01*
X0113500Y0136849D01*
X0113500Y0135151D01*
X0112415Y0135600D01*
X0104585Y0135600D01*
X0102894Y0134900D01*
X0101600Y0133606D01*
X0100900Y0131915D01*
X0100900Y0130085D01*
X0101600Y0128394D01*
X0102894Y0127100D01*
X0104585Y0126400D01*
X0112415Y0126400D01*
X0113500Y0126849D01*
X0113500Y0125151D01*
X0112415Y0125600D01*
X0104585Y0125600D01*
X0102894Y0124900D01*
X0101600Y0123606D01*
X0100900Y0121915D01*
X0100900Y0120085D01*
X0101600Y0118394D01*
X0102894Y0117100D01*
X0104585Y0116400D01*
X0112415Y0116400D01*
X0113500Y0116849D01*
X0113500Y0115151D01*
X0112415Y0115600D01*
X0104585Y0115600D01*
X0102894Y0114900D01*
X0101600Y0113606D01*
X0100900Y0111915D01*
X0100900Y0110085D01*
X0101600Y0108394D01*
X0102894Y0107100D01*
X0104585Y0106400D01*
X0112415Y0106400D01*
X0113500Y0106849D01*
X0113500Y0105151D01*
X0112415Y0105600D01*
X0104585Y0105600D01*
X0102894Y0104900D01*
X0101600Y0103606D01*
X0100900Y0101915D01*
X0100900Y0100085D01*
X0101600Y0098394D01*
X0102894Y0097100D01*
X0104585Y0096400D01*
X0112415Y0096400D01*
X0113500Y0096849D01*
X0113500Y0095151D01*
X0112415Y0095600D01*
X0104585Y0095600D01*
X0102894Y0094900D01*
X0101600Y0093606D01*
X0100900Y0091915D01*
X0100900Y0090085D01*
X0101600Y0088394D01*
X0102894Y0087100D01*
X0104585Y0086400D01*
X0112415Y0086400D01*
X0113500Y0086849D01*
X0113500Y0085151D01*
X0112415Y0085600D01*
X0104585Y0085600D01*
X0102894Y0084900D01*
X0101600Y0083606D01*
X0100900Y0081915D01*
X0100900Y0080085D01*
X0101214Y0079327D02*
X0091113Y0079327D01*
X0092700Y0077729D02*
X0102266Y0077729D01*
X0102526Y0074532D02*
X0092700Y0074532D01*
X0092700Y0076130D02*
X0113500Y0076130D01*
X0113500Y0066539D02*
X0112750Y0066539D01*
X0104249Y0066539D02*
X0096556Y0066539D01*
X0098154Y0064940D02*
X0102993Y0064940D01*
X0101857Y0068137D02*
X0094957Y0068137D01*
X0093359Y0069736D02*
X0101045Y0069736D01*
X0100900Y0071334D02*
X0091760Y0071334D01*
X0091373Y0072933D02*
X0101322Y0072933D01*
X0101491Y0063342D02*
X0099753Y0063342D01*
X0097010Y0060145D02*
X0090295Y0060145D01*
X0090240Y0060200D02*
X0086760Y0060200D01*
X0084300Y0057740D01*
X0084300Y0057545D01*
X0073745Y0068100D01*
X0062340Y0068100D01*
X0060767Y0069672D01*
X0066189Y0075095D01*
X0067086Y0074198D01*
X0068409Y0073650D01*
X0069841Y0073650D01*
X0071164Y0074198D01*
X0072177Y0075211D01*
X0072725Y0076534D01*
X0072725Y0077966D01*
X0072338Y0078900D01*
X0077005Y0078900D01*
X0086233Y0069672D01*
X0084300Y0067740D01*
X0084300Y0064260D01*
X0086760Y0061800D01*
X0090240Y0061800D01*
X0092700Y0064260D01*
X0092700Y0064455D01*
X0102575Y0054580D01*
X0101600Y0053606D01*
X0100900Y0051915D01*
X0100900Y0050085D01*
X0101600Y0048394D01*
X0102894Y0047100D01*
X0104585Y0046400D01*
X0112415Y0046400D01*
X0113500Y0046849D01*
X0113500Y0045151D01*
X0112415Y0045600D01*
X0104585Y0045600D01*
X0103991Y0045354D01*
X0096870Y0052475D01*
X0090915Y0052475D01*
X0092700Y0054260D01*
X0092700Y0057740D01*
X0090240Y0060200D01*
X0091893Y0058546D02*
X0098609Y0058546D01*
X0100207Y0056948D02*
X0092700Y0056948D01*
X0092700Y0055349D02*
X0101806Y0055349D01*
X0101745Y0053751D02*
X0092191Y0053751D01*
X0092165Y0048275D02*
X0095130Y0048275D01*
X0101073Y0042332D01*
X0100900Y0041915D01*
X0100900Y0040085D01*
X0101600Y0038394D01*
X0102894Y0037100D01*
X0104585Y0036400D01*
X0112415Y0036400D01*
X0113500Y0036849D01*
X0113500Y0035151D01*
X0112415Y0035600D01*
X0104585Y0035600D01*
X0102894Y0034900D01*
X0101600Y0033606D01*
X0100900Y0031915D01*
X0100900Y0030085D01*
X0101600Y0028394D01*
X0102894Y0027100D01*
X0104585Y0026400D01*
X0112415Y0026400D01*
X0113500Y0026849D01*
X0113500Y0025151D01*
X0112415Y0025600D01*
X0104585Y0025600D01*
X0102894Y0024900D01*
X0101600Y0023606D01*
X0100900Y0021915D01*
X0100900Y0020085D01*
X0101600Y0018394D01*
X0102894Y0017100D01*
X0104585Y0016400D01*
X0112415Y0016400D01*
X0113500Y0016849D01*
X0113500Y0015151D01*
X0112415Y0015600D01*
X0104585Y0015600D01*
X0102894Y0014900D01*
X0101600Y0013606D01*
X0101391Y0013100D01*
X0094995Y0013100D01*
X0084195Y0023900D01*
X0084660Y0023900D01*
X0086760Y0021800D01*
X0090240Y0021800D01*
X0092700Y0024260D01*
X0092700Y0027740D01*
X0090240Y0030200D01*
X0086760Y0030200D01*
X0084660Y0028100D01*
X0083120Y0028100D01*
X0074975Y0036245D01*
X0073745Y0037475D01*
X0062700Y0037475D01*
X0062700Y0037740D01*
X0061540Y0038900D01*
X0082630Y0038900D01*
X0084300Y0037230D01*
X0084300Y0034260D01*
X0086760Y0031800D01*
X0090240Y0031800D01*
X0092700Y0034260D01*
X0092700Y0037740D01*
X0090240Y0040200D01*
X0087270Y0040200D01*
X0086157Y0041313D01*
X0086703Y0041858D01*
X0086760Y0041800D01*
X0090240Y0041800D01*
X0092700Y0044260D01*
X0092700Y0047740D01*
X0092165Y0048275D01*
X0092700Y0047357D02*
X0096048Y0047357D01*
X0097647Y0045758D02*
X0092700Y0045758D01*
X0092599Y0044160D02*
X0099245Y0044160D01*
X0100844Y0042561D02*
X0091001Y0042561D01*
X0091075Y0039364D02*
X0101199Y0039364D01*
X0100900Y0040963D02*
X0086507Y0040963D01*
X0083764Y0037766D02*
X0062674Y0037766D01*
X0064441Y0033275D02*
X0072005Y0033275D01*
X0072180Y0033100D01*
X0064616Y0033100D01*
X0064441Y0033275D01*
X0061540Y0043100D02*
X0070684Y0043100D01*
X0069884Y0043900D01*
X0062340Y0043900D01*
X0061540Y0043100D01*
X0061484Y0048955D02*
X0070739Y0048955D01*
X0075011Y0048955D02*
X0085516Y0048955D01*
X0085351Y0050554D02*
X0050300Y0050554D01*
X0050169Y0052152D02*
X0056408Y0052152D01*
X0056760Y0051800D02*
X0060240Y0051800D01*
X0062700Y0054260D01*
X0062700Y0057740D01*
X0060240Y0060200D01*
X0056760Y0060200D01*
X0054300Y0057740D01*
X0054300Y0054260D01*
X0056760Y0051800D01*
X0055516Y0048955D02*
X0049799Y0048955D01*
X0048280Y0047357D02*
X0054300Y0047357D01*
X0054300Y0045758D02*
X0028100Y0045758D01*
X0029280Y0039364D02*
X0037031Y0039364D01*
X0038195Y0037766D02*
X0029600Y0037766D01*
X0023900Y0056948D02*
X0017292Y0056948D01*
X0019586Y0058546D02*
X0023900Y0058546D01*
X0023900Y0060145D02*
X0020292Y0060145D01*
X0020300Y0061743D02*
X0023900Y0061743D01*
X0023900Y0063342D02*
X0019676Y0063342D01*
X0017562Y0064940D02*
X0022061Y0064940D01*
X0032806Y0066539D02*
X0046069Y0066539D01*
X0052141Y0058546D02*
X0055107Y0058546D01*
X0054300Y0056948D02*
X0050543Y0056948D01*
X0048944Y0055349D02*
X0054300Y0055349D01*
X0054809Y0053751D02*
X0049289Y0053751D01*
X0052475Y0060145D02*
X0056705Y0060145D01*
X0055218Y0063342D02*
X0053187Y0063342D01*
X0052475Y0061743D02*
X0074162Y0061743D01*
X0075760Y0060145D02*
X0060295Y0060145D01*
X0061893Y0058546D02*
X0077359Y0058546D01*
X0078957Y0056948D02*
X0062700Y0056948D01*
X0062700Y0055349D02*
X0080556Y0055349D01*
X0082154Y0053751D02*
X0062191Y0053751D01*
X0060592Y0052152D02*
X0083753Y0052152D01*
X0084300Y0047357D02*
X0076210Y0047357D01*
X0076475Y0045758D02*
X0084300Y0045758D01*
X0083065Y0044160D02*
X0076009Y0044160D01*
X0075053Y0036167D02*
X0084300Y0036167D01*
X0084300Y0034569D02*
X0076651Y0034569D01*
X0078250Y0032970D02*
X0085590Y0032970D01*
X0086334Y0029773D02*
X0081447Y0029773D01*
X0083045Y0028175D02*
X0084735Y0028175D01*
X0084716Y0023379D02*
X0085181Y0023379D01*
X0086314Y0021781D02*
X0100900Y0021781D01*
X0100900Y0020182D02*
X0087913Y0020182D01*
X0089511Y0018584D02*
X0101522Y0018584D01*
X0103172Y0016985D02*
X0091110Y0016985D01*
X0092708Y0015387D02*
X0104070Y0015387D01*
X0101783Y0013788D02*
X0094307Y0013788D01*
X0096070Y0008900D02*
X0101391Y0008900D01*
X0101600Y0008394D01*
X0101895Y0008100D01*
X0096870Y0008100D01*
X0096070Y0008900D01*
X0093030Y0006000D02*
X0080583Y0006000D01*
X0081751Y0007168D01*
X0083109Y0009520D01*
X0083812Y0012142D01*
X0083812Y0014858D01*
X0083680Y0015350D01*
X0093030Y0006000D01*
X0091636Y0007394D02*
X0081882Y0007394D01*
X0082805Y0008993D02*
X0090038Y0008993D01*
X0088439Y0010591D02*
X0083396Y0010591D01*
X0083812Y0012190D02*
X0086841Y0012190D01*
X0085242Y0013788D02*
X0083812Y0013788D01*
X0091819Y0023379D02*
X0101506Y0023379D01*
X0103083Y0024978D02*
X0092700Y0024978D01*
X0092700Y0026576D02*
X0104160Y0026576D01*
X0101820Y0028175D02*
X0092265Y0028175D01*
X0090666Y0029773D02*
X0101029Y0029773D01*
X0100900Y0031372D02*
X0079848Y0031372D01*
X0091410Y0032970D02*
X0101337Y0032970D01*
X0102563Y0034569D02*
X0092700Y0034569D01*
X0092700Y0036167D02*
X0113500Y0036167D01*
X0113500Y0026576D02*
X0112840Y0026576D01*
X0112930Y0015387D02*
X0113500Y0015387D01*
X0102229Y0037766D02*
X0092674Y0037766D01*
X0100389Y0048955D02*
X0101368Y0048955D01*
X0100900Y0050554D02*
X0098791Y0050554D01*
X0097192Y0052152D02*
X0100998Y0052152D01*
X0101988Y0047357D02*
X0102638Y0047357D01*
X0103587Y0045758D02*
X0113500Y0045758D01*
X0095412Y0061743D02*
X0080101Y0061743D01*
X0081700Y0060145D02*
X0086705Y0060145D01*
X0085107Y0058546D02*
X0083298Y0058546D01*
X0085218Y0063342D02*
X0078503Y0063342D01*
X0076904Y0064940D02*
X0084300Y0064940D01*
X0084300Y0066539D02*
X0075306Y0066539D01*
X0072563Y0063342D02*
X0061782Y0063342D01*
X0062302Y0068137D02*
X0084698Y0068137D01*
X0086169Y0069736D02*
X0060831Y0069736D01*
X0062429Y0071334D02*
X0084571Y0071334D01*
X0082972Y0072933D02*
X0064028Y0072933D01*
X0065626Y0074532D02*
X0066752Y0074532D01*
X0071498Y0074532D02*
X0081374Y0074532D01*
X0079775Y0076130D02*
X0072558Y0076130D01*
X0072725Y0077729D02*
X0078177Y0077729D01*
X0076434Y0085721D02*
X0068638Y0085721D01*
X0068975Y0087320D02*
X0074836Y0087320D01*
X0073237Y0088918D02*
X0068581Y0088918D01*
X0067475Y0090517D02*
X0071639Y0090517D01*
X0070040Y0092115D02*
X0067475Y0092115D01*
X0067475Y0093714D02*
X0068900Y0093714D01*
X0068900Y0095312D02*
X0067475Y0095312D01*
X0067475Y0096911D02*
X0068900Y0096911D01*
X0068900Y0098509D02*
X0067475Y0098509D01*
X0066737Y0100108D02*
X0068900Y0100108D01*
X0068900Y0101706D02*
X0065139Y0101706D01*
X0063540Y0103305D02*
X0068900Y0103305D01*
X0068900Y0104903D02*
X0062700Y0104903D01*
X0062700Y0106502D02*
X0068900Y0106502D01*
X0068900Y0108100D02*
X0062339Y0108100D01*
X0060741Y0109699D02*
X0067456Y0109699D01*
X0065858Y0111297D02*
X0057392Y0111297D01*
X0056259Y0109699D02*
X0055794Y0109699D01*
X0054975Y0103585D02*
X0056760Y0101800D01*
X0059105Y0101800D01*
X0063275Y0097630D01*
X0063275Y0090241D01*
X0062323Y0089289D01*
X0061980Y0088460D01*
X0060240Y0090200D01*
X0056760Y0090200D01*
X0054975Y0088415D01*
X0054975Y0093585D01*
X0056760Y0091800D01*
X0060240Y0091800D01*
X0062700Y0094260D01*
X0062700Y0097740D01*
X0060240Y0100200D01*
X0056760Y0100200D01*
X0054975Y0098415D01*
X0054975Y0103585D01*
X0054975Y0103305D02*
X0055256Y0103305D01*
X0054975Y0101706D02*
X0059199Y0101706D01*
X0060332Y0100108D02*
X0060797Y0100108D01*
X0061930Y0098509D02*
X0062396Y0098509D01*
X0062700Y0096911D02*
X0063275Y0096911D01*
X0063275Y0095312D02*
X0062700Y0095312D01*
X0062153Y0093714D02*
X0063275Y0093714D01*
X0063275Y0092115D02*
X0060555Y0092115D01*
X0061522Y0088918D02*
X0062169Y0088918D01*
X0063275Y0090517D02*
X0054975Y0090517D01*
X0054975Y0092115D02*
X0056445Y0092115D01*
X0055478Y0088918D02*
X0054975Y0088918D01*
X0050775Y0093714D02*
X0049699Y0093714D01*
X0050300Y0095312D02*
X0050775Y0095312D01*
X0050775Y0096911D02*
X0050269Y0096911D01*
X0050775Y0098509D02*
X0049530Y0098509D01*
X0050775Y0100108D02*
X0047158Y0100108D01*
X0054975Y0100108D02*
X0056668Y0100108D01*
X0055070Y0098509D02*
X0054975Y0098509D01*
X0061335Y0112896D02*
X0064259Y0112896D01*
X0067002Y0116093D02*
X0074373Y0116093D01*
X0075971Y0117691D02*
X0065403Y0117691D01*
X0063805Y0119290D02*
X0077570Y0119290D01*
X0079169Y0120888D02*
X0062206Y0120888D01*
X0060767Y0122328D02*
X0062700Y0124260D01*
X0062700Y0127740D01*
X0062165Y0128275D01*
X0082630Y0128275D01*
X0084300Y0126605D01*
X0084300Y0124260D01*
X0086085Y0122475D01*
X0080755Y0122475D01*
X0070687Y0112407D01*
X0060767Y0122328D01*
X0060927Y0122487D02*
X0086073Y0122487D01*
X0084475Y0124085D02*
X0062525Y0124085D01*
X0062700Y0125684D02*
X0084300Y0125684D01*
X0083623Y0127282D02*
X0062700Y0127282D01*
X0068601Y0114494D02*
X0072774Y0114494D01*
X0071176Y0112896D02*
X0070199Y0112896D01*
X0073100Y0108880D02*
X0082495Y0118275D01*
X0084835Y0118275D01*
X0084300Y0117740D01*
X0084300Y0116645D01*
X0075380Y0107725D01*
X0074034Y0107725D01*
X0073100Y0107338D01*
X0073100Y0108880D01*
X0073100Y0108100D02*
X0075755Y0108100D01*
X0077354Y0109699D02*
X0073919Y0109699D01*
X0075517Y0111297D02*
X0078952Y0111297D01*
X0080551Y0112896D02*
X0077116Y0112896D01*
X0078714Y0114494D02*
X0082149Y0114494D01*
X0083748Y0116093D02*
X0080313Y0116093D01*
X0081911Y0117691D02*
X0084300Y0117691D01*
X0084892Y0111297D02*
X0090202Y0111297D01*
X0091335Y0112896D02*
X0091801Y0112896D01*
X0092700Y0114494D02*
X0093399Y0114494D01*
X0092700Y0116093D02*
X0094998Y0116093D01*
X0095150Y0117691D02*
X0092700Y0117691D01*
X0091150Y0119290D02*
X0095150Y0119290D01*
X0095150Y0120888D02*
X0091983Y0120888D01*
X0093582Y0122487D02*
X0095150Y0122487D01*
X0099350Y0122487D02*
X0101137Y0122487D01*
X0100900Y0120888D02*
X0099350Y0120888D01*
X0099350Y0119290D02*
X0101229Y0119290D01*
X0102303Y0117691D02*
X0099350Y0117691D01*
X0099350Y0116093D02*
X0113500Y0116093D01*
X0113500Y0125684D02*
X0099350Y0125684D01*
X0099350Y0127282D02*
X0102712Y0127282D01*
X0101399Y0128881D02*
X0099350Y0128881D01*
X0099350Y0130479D02*
X0100900Y0130479D01*
X0100967Y0132078D02*
X0099350Y0132078D01*
X0099350Y0133676D02*
X0101671Y0133676D01*
X0103800Y0135275D02*
X0099350Y0135275D01*
X0099350Y0136873D02*
X0103442Y0136873D01*
X0101568Y0138472D02*
X0099350Y0138472D01*
X0099350Y0140070D02*
X0100906Y0140070D01*
X0100900Y0141669D02*
X0099350Y0141669D01*
X0099350Y0143268D02*
X0101460Y0143268D01*
X0102861Y0144866D02*
X0099350Y0144866D01*
X0099350Y0146465D02*
X0104429Y0146465D01*
X0101932Y0148063D02*
X0099350Y0148063D01*
X0099350Y0149662D02*
X0101075Y0149662D01*
X0100900Y0151260D02*
X0099350Y0151260D01*
X0099350Y0152859D02*
X0101291Y0152859D01*
X0102452Y0154457D02*
X0099350Y0154457D01*
X0099350Y0156056D02*
X0113500Y0156056D01*
X0113500Y0165647D02*
X0103617Y0165647D01*
X0102043Y0164048D02*
X0102018Y0164048D01*
X0101121Y0162450D02*
X0100419Y0162450D01*
X0100900Y0160851D02*
X0099350Y0160851D01*
X0099350Y0159253D02*
X0101245Y0159253D01*
X0102341Y0157654D02*
X0099350Y0157654D01*
X0093275Y0160851D02*
X0080600Y0160851D01*
X0080600Y0159253D02*
X0085813Y0159253D01*
X0084300Y0157654D02*
X0080600Y0157654D01*
X0080600Y0156056D02*
X0084300Y0156056D01*
X0084300Y0154457D02*
X0080600Y0154457D01*
X0080600Y0152859D02*
X0085702Y0152859D01*
X0086222Y0149662D02*
X0080600Y0149662D01*
X0080600Y0151260D02*
X0093275Y0151260D01*
X0093275Y0141669D02*
X0085801Y0141669D01*
X0085293Y0143268D02*
X0084202Y0143268D01*
X0084300Y0144866D02*
X0082604Y0144866D01*
X0081005Y0146465D02*
X0084300Y0146465D01*
X0084623Y0148063D02*
X0080600Y0148063D01*
X0080989Y0162450D02*
X0086011Y0162450D01*
X0084721Y0164048D02*
X0082279Y0164048D01*
X0082700Y0165647D02*
X0084300Y0165647D01*
X0084300Y0167245D02*
X0082700Y0167245D01*
X0082700Y0168844D02*
X0084300Y0168844D01*
X0084300Y0170442D02*
X0082700Y0170442D01*
X0082656Y0172041D02*
X0084344Y0172041D01*
X0082891Y0173639D02*
X0081900Y0173639D01*
X0081292Y0175238D02*
X0079486Y0175238D01*
X0077514Y0175238D02*
X0077232Y0175238D01*
X0081670Y0183230D02*
X0089300Y0183230D01*
X0089300Y0181632D02*
X0086463Y0181632D01*
X0088062Y0180033D02*
X0089300Y0180033D01*
X0089463Y0184829D02*
X0082700Y0184829D01*
X0082700Y0186427D02*
X0090388Y0186427D01*
X0086693Y0191223D02*
X0112628Y0191223D01*
X0111030Y0189624D02*
X0085094Y0189624D01*
X0083496Y0188026D02*
X0109431Y0188026D01*
X0107832Y0186427D02*
X0106612Y0186427D01*
X0105575Y0194420D02*
X0101425Y0194420D01*
X0102658Y0196018D02*
X0104342Y0196018D01*
X0103900Y0197617D02*
X0103100Y0197617D01*
X0103100Y0199215D02*
X0103900Y0199215D01*
X0103900Y0200814D02*
X0103100Y0200814D01*
X0103100Y0202412D02*
X0103900Y0202412D01*
X0103900Y0204011D02*
X0103100Y0204011D01*
X0102812Y0205609D02*
X0104188Y0205609D01*
X0112658Y0196018D02*
X0114342Y0196018D01*
X0113900Y0197617D02*
X0113100Y0197617D01*
X0113100Y0199215D02*
X0113900Y0199215D01*
X0113900Y0200814D02*
X0113100Y0200814D01*
X0113100Y0202412D02*
X0113900Y0202412D01*
X0113900Y0204011D02*
X0113100Y0204011D01*
X0112812Y0205609D02*
X0114188Y0205609D01*
X0115575Y0194420D02*
X0111425Y0194420D01*
X0114227Y0192821D02*
X0088291Y0192821D01*
X0090382Y0202412D02*
X0091943Y0202412D01*
X0091981Y0204011D02*
X0092025Y0204011D01*
X0087640Y0205609D02*
X0087489Y0205609D01*
X0088100Y0207208D02*
X0088275Y0207208D01*
X0088275Y0208806D02*
X0088100Y0208806D01*
X0088100Y0210405D02*
X0088275Y0210405D01*
X0088275Y0212003D02*
X0088100Y0212003D01*
X0086041Y0204011D02*
X0085890Y0204011D01*
X0081110Y0204011D02*
X0075890Y0204011D01*
X0077489Y0205609D02*
X0079511Y0205609D01*
X0078900Y0207208D02*
X0078100Y0207208D01*
X0078100Y0208806D02*
X0078900Y0208806D01*
X0078900Y0210405D02*
X0078100Y0210405D01*
X0078100Y0212003D02*
X0078900Y0212003D01*
X0078900Y0213602D02*
X0078100Y0213602D01*
X0077982Y0215201D02*
X0079018Y0215201D01*
X0064129Y0188026D02*
X0052414Y0188026D01*
X0052700Y0187740D02*
X0050240Y0190200D01*
X0046760Y0190200D01*
X0044300Y0187740D01*
X0044300Y0184260D01*
X0046760Y0181800D01*
X0050240Y0181800D01*
X0052700Y0184260D01*
X0052700Y0187740D01*
X0052700Y0186427D02*
X0065728Y0186427D01*
X0067326Y0184829D02*
X0052700Y0184829D01*
X0051670Y0183230D02*
X0068925Y0183230D01*
X0062531Y0189624D02*
X0050815Y0189624D01*
X0051261Y0192821D02*
X0059334Y0192821D01*
X0060932Y0191223D02*
X0008500Y0191223D01*
X0020984Y0173639D02*
X0035100Y0173639D01*
X0034939Y0173479D02*
X0034300Y0171935D01*
X0034300Y0165065D01*
X0034939Y0163521D01*
X0036121Y0162339D01*
X0037665Y0161700D01*
X0039335Y0161700D01*
X0040879Y0162339D01*
X0042061Y0163521D01*
X0042700Y0165065D01*
X0042700Y0171935D01*
X0042061Y0173479D01*
X0040879Y0174661D01*
X0039335Y0175300D01*
X0037665Y0175300D01*
X0036121Y0174661D01*
X0034939Y0173479D01*
X0034344Y0172041D02*
X0030999Y0172041D01*
X0032283Y0170442D02*
X0034300Y0170442D01*
X0034300Y0168844D02*
X0032700Y0168844D01*
X0032700Y0167245D02*
X0034300Y0167245D01*
X0034300Y0165647D02*
X0032700Y0165647D01*
X0032700Y0164048D02*
X0034721Y0164048D01*
X0036011Y0162450D02*
X0032652Y0162450D01*
X0031891Y0160851D02*
X0042256Y0160851D01*
X0040989Y0162450D02*
X0043855Y0162450D01*
X0044721Y0164048D02*
X0042279Y0164048D01*
X0042700Y0165647D02*
X0044300Y0165647D01*
X0044300Y0167245D02*
X0042700Y0167245D01*
X0042700Y0168844D02*
X0044300Y0168844D01*
X0044300Y0170442D02*
X0042700Y0170442D01*
X0042656Y0172041D02*
X0044344Y0172041D01*
X0045100Y0173639D02*
X0041900Y0173639D01*
X0039486Y0175238D02*
X0047514Y0175238D01*
X0049486Y0175238D02*
X0057514Y0175238D01*
X0055100Y0173639D02*
X0051900Y0173639D01*
X0052656Y0172041D02*
X0054344Y0172041D01*
X0054300Y0170442D02*
X0052700Y0170442D01*
X0052700Y0168844D02*
X0054300Y0168844D01*
X0054300Y0167245D02*
X0052700Y0167245D01*
X0052700Y0165647D02*
X0054300Y0165647D01*
X0054721Y0164048D02*
X0052279Y0164048D01*
X0050989Y0162450D02*
X0056011Y0162450D01*
X0045330Y0183230D02*
X0041670Y0183230D01*
X0042700Y0184829D02*
X0044300Y0184829D01*
X0044300Y0186427D02*
X0042700Y0186427D01*
X0042414Y0188026D02*
X0044586Y0188026D01*
X0046185Y0189624D02*
X0040815Y0189624D01*
X0041261Y0192821D02*
X0045739Y0192821D01*
X0044300Y0194420D02*
X0042700Y0194420D01*
X0042700Y0196018D02*
X0044300Y0196018D01*
X0044300Y0197617D02*
X0042700Y0197617D01*
X0041224Y0199215D02*
X0045776Y0199215D01*
X0037514Y0175238D02*
X0022583Y0175238D01*
X0047248Y0140070D02*
X0048976Y0140070D01*
X0073100Y0100108D02*
X0086668Y0100108D01*
X0086760Y0100200D02*
X0084300Y0097740D01*
X0084300Y0094260D01*
X0086760Y0091800D01*
X0090240Y0091800D01*
X0092700Y0094260D01*
X0092700Y0097740D01*
X0090240Y0100200D01*
X0086760Y0100200D01*
X0085070Y0098509D02*
X0073100Y0098509D01*
X0073100Y0096911D02*
X0084300Y0096911D01*
X0084300Y0095312D02*
X0073100Y0095312D01*
X0074381Y0093714D02*
X0084847Y0093714D01*
X0086445Y0092115D02*
X0075980Y0092115D01*
X0077578Y0090517D02*
X0100900Y0090517D01*
X0100983Y0092115D02*
X0090555Y0092115D01*
X0090240Y0090200D02*
X0086760Y0090200D01*
X0084300Y0087740D01*
X0084300Y0084260D01*
X0086760Y0081800D01*
X0090240Y0081800D01*
X0092700Y0084260D01*
X0092700Y0087740D01*
X0090240Y0090200D01*
X0091522Y0088918D02*
X0101383Y0088918D01*
X0102675Y0087320D02*
X0092700Y0087320D01*
X0092700Y0085721D02*
X0113500Y0085721D01*
X0113500Y0095312D02*
X0113110Y0095312D01*
X0113500Y0106502D02*
X0112661Y0106502D01*
X0104339Y0106502D02*
X0092700Y0106502D01*
X0092700Y0104903D02*
X0102903Y0104903D01*
X0101476Y0103305D02*
X0091744Y0103305D01*
X0090332Y0100108D02*
X0100900Y0100108D01*
X0100900Y0101706D02*
X0077422Y0101706D01*
X0078307Y0103305D02*
X0085256Y0103305D01*
X0084300Y0104903D02*
X0078498Y0104903D01*
X0080097Y0106502D02*
X0084300Y0106502D01*
X0084661Y0108100D02*
X0081695Y0108100D01*
X0083294Y0109699D02*
X0086259Y0109699D01*
X0092945Y0108100D02*
X0101894Y0108100D01*
X0101060Y0109699D02*
X0094544Y0109699D01*
X0096142Y0111297D02*
X0100900Y0111297D01*
X0101306Y0112896D02*
X0097741Y0112896D01*
X0099339Y0114494D02*
X0102489Y0114494D01*
X0102080Y0124085D02*
X0099350Y0124085D01*
X0113200Y0135275D02*
X0113500Y0135275D01*
X0113500Y0146465D02*
X0112571Y0146465D01*
X0113500Y0167245D02*
X0105215Y0167245D01*
X0106814Y0168844D02*
X0113500Y0168844D01*
X0113500Y0170442D02*
X0108412Y0170442D01*
X0109975Y0172041D02*
X0113500Y0172041D01*
X0113500Y0173639D02*
X0109975Y0173639D01*
X0109975Y0175238D02*
X0110723Y0175238D01*
X0117040Y0186000D02*
X0115879Y0187161D01*
X0114908Y0187563D01*
X0120600Y0193255D01*
X0120600Y0193891D01*
X0120775Y0193963D01*
X0120775Y0189370D01*
X0117405Y0186000D01*
X0117040Y0186000D01*
X0116612Y0186427D02*
X0117832Y0186427D01*
X0119431Y0188026D02*
X0115371Y0188026D01*
X0116969Y0189624D02*
X0120775Y0189624D01*
X0120775Y0191223D02*
X0118568Y0191223D01*
X0120166Y0192821D02*
X0120775Y0192821D01*
X0124975Y0192821D02*
X0133500Y0192821D01*
X0133500Y0191223D02*
X0124975Y0191223D01*
X0124975Y0189624D02*
X0133500Y0189624D01*
X0133500Y0188026D02*
X0124975Y0188026D01*
X0124975Y0187630D02*
X0124975Y0195020D01*
X0125894Y0194100D01*
X0127585Y0193400D01*
X0129415Y0193400D01*
X0131106Y0194100D01*
X0132400Y0195394D01*
X0133100Y0197085D01*
X0133100Y0204915D01*
X0132651Y0206000D01*
X0133500Y0206000D01*
X0133500Y0186000D01*
X0128521Y0186000D01*
X0127358Y0186312D01*
X0124642Y0186312D01*
X0123479Y0186000D01*
X0123345Y0186000D01*
X0124975Y0187630D01*
X0123772Y0186427D02*
X0133500Y0186427D01*
X0133500Y0194420D02*
X0131425Y0194420D01*
X0132658Y0196018D02*
X0133500Y0196018D01*
X0133500Y0197617D02*
X0133100Y0197617D01*
X0133100Y0199215D02*
X0133500Y0199215D01*
X0133500Y0200814D02*
X0133100Y0200814D01*
X0133100Y0202412D02*
X0133500Y0202412D01*
X0133500Y0204011D02*
X0133100Y0204011D01*
X0132812Y0205609D02*
X0133500Y0205609D01*
X0125575Y0194420D02*
X0124975Y0194420D01*
X0102472Y0170442D02*
X0097475Y0170442D01*
X0097475Y0168844D02*
X0100874Y0168844D01*
X0099275Y0167245D02*
X0097475Y0167245D01*
X0097475Y0165647D02*
X0097677Y0165647D01*
X0061400Y0197617D02*
X0060478Y0197617D01*
X0008855Y0109699D02*
X0008500Y0109699D01*
X0034404Y0064940D02*
X0039438Y0064940D01*
X0037324Y0063342D02*
X0036003Y0063342D01*
X0048880Y0044160D02*
X0054400Y0044160D01*
X0054326Y0037766D02*
X0048805Y0037766D01*
X0061113Y0079327D02*
X0061357Y0079327D01*
X0056036Y0082524D02*
X0054975Y0082524D01*
X0079177Y0088918D02*
X0085478Y0088918D01*
X0084300Y0087320D02*
X0080775Y0087320D01*
X0082374Y0085721D02*
X0084300Y0085721D01*
X0084438Y0084123D02*
X0083972Y0084123D01*
X0085571Y0082524D02*
X0086036Y0082524D01*
X0090964Y0082524D02*
X0101152Y0082524D01*
X0102117Y0084123D02*
X0092562Y0084123D01*
X0092153Y0093714D02*
X0101708Y0093714D01*
X0103890Y0095312D02*
X0092700Y0095312D01*
X0092700Y0096911D02*
X0103352Y0096911D01*
X0101553Y0098509D02*
X0091930Y0098509D01*
X0091782Y0063342D02*
X0093813Y0063342D01*
M02*
