G75*
%MOIN*%
%OFA0B0*%
%FSLAX25Y25*%
%IPPOS*%
%LPD*%
%AMOC8*
5,1,8,0,0,1.08239X$1,22.5*
%
%ADD10C,0.00000*%
%ADD11C,0.01200*%
%ADD12C,0.01100*%
%ADD13C,0.00500*%
%ADD14C,0.00400*%
D10*
X0135700Y0001000D02*
X0135700Y0236900D01*
D11*
X0045400Y0227027D02*
X0040596Y0227027D01*
X0042998Y0224625D01*
X0042998Y0227827D01*
X0043799Y0222303D02*
X0040596Y0222303D01*
X0040596Y0219100D02*
X0043799Y0219100D01*
X0045400Y0220701D01*
X0043799Y0222303D01*
X0035400Y0220701D02*
X0033799Y0222303D01*
X0030596Y0222303D01*
X0031397Y0224625D02*
X0030596Y0225425D01*
X0030596Y0227027D01*
X0031397Y0227827D01*
X0032197Y0227827D01*
X0032998Y0227027D01*
X0033799Y0227827D01*
X0034599Y0227827D01*
X0035400Y0227027D01*
X0035400Y0225425D01*
X0034599Y0224625D01*
X0032998Y0226226D02*
X0032998Y0227027D01*
X0035400Y0220701D02*
X0033799Y0219100D01*
X0030596Y0219100D01*
X0025400Y0220701D02*
X0023799Y0222303D01*
X0020596Y0222303D01*
X0021397Y0224625D02*
X0020596Y0225425D01*
X0020596Y0227027D01*
X0021397Y0227827D01*
X0022197Y0227827D01*
X0025400Y0224625D01*
X0025400Y0227827D01*
X0025400Y0220701D02*
X0023799Y0219100D01*
X0020596Y0219100D01*
X0015400Y0220701D02*
X0013799Y0222303D01*
X0010596Y0222303D01*
X0012197Y0224625D02*
X0010596Y0226226D01*
X0015400Y0226226D01*
X0015400Y0224625D02*
X0015400Y0227827D01*
X0015400Y0220701D02*
X0013799Y0219100D01*
X0010596Y0219100D01*
D12*
X0008752Y0178454D02*
X0007284Y0178454D01*
X0006550Y0177720D01*
X0006550Y0174784D01*
X0007284Y0174050D01*
X0008752Y0174050D01*
X0009486Y0174784D01*
X0009486Y0177720D02*
X0008752Y0178454D01*
X0016550Y0178454D02*
X0016550Y0174050D01*
X0018752Y0174050D01*
X0019486Y0174784D01*
X0019486Y0175518D01*
X0018752Y0176252D01*
X0016550Y0176252D01*
X0016550Y0178454D02*
X0018752Y0178454D01*
X0019486Y0177720D01*
X0019486Y0176986D01*
X0018752Y0176252D01*
X0026550Y0176252D02*
X0028018Y0176252D01*
X0029486Y0178454D02*
X0026550Y0178454D01*
X0026550Y0174050D01*
X0029486Y0174050D01*
X0037284Y0158454D02*
X0036550Y0157720D01*
X0036550Y0154784D01*
X0037284Y0154050D01*
X0038752Y0154050D01*
X0039486Y0154784D01*
X0039486Y0157720D02*
X0038752Y0158454D01*
X0037284Y0158454D01*
X0046550Y0158454D02*
X0046550Y0154050D01*
X0048752Y0154050D01*
X0049486Y0154784D01*
X0049486Y0155518D01*
X0048752Y0156252D01*
X0046550Y0156252D01*
X0046550Y0158454D02*
X0048752Y0158454D01*
X0049486Y0157720D01*
X0049486Y0156986D01*
X0048752Y0156252D01*
X0056550Y0176550D02*
X0059486Y0176550D01*
X0058018Y0178752D02*
X0056550Y0178752D01*
X0056550Y0180954D02*
X0056550Y0176550D01*
X0056550Y0180954D02*
X0059486Y0180954D01*
X0066550Y0180220D02*
X0066550Y0177284D01*
X0067284Y0176550D01*
X0068752Y0176550D01*
X0069486Y0177284D01*
X0069486Y0180220D02*
X0068752Y0180954D01*
X0067284Y0180954D01*
X0066550Y0180220D01*
X0081550Y0180954D02*
X0081550Y0176550D01*
X0083752Y0176550D01*
X0084486Y0177284D01*
X0084486Y0178018D01*
X0083752Y0178752D01*
X0081550Y0178752D01*
X0081550Y0180954D02*
X0083752Y0180954D01*
X0084486Y0180220D01*
X0084486Y0179486D01*
X0083752Y0178752D01*
X0092284Y0189050D02*
X0091550Y0189784D01*
X0091550Y0192720D01*
X0092284Y0193454D01*
X0093752Y0193454D01*
X0094486Y0192720D01*
X0094486Y0189784D02*
X0093752Y0189050D01*
X0092284Y0189050D01*
X0101550Y0189050D02*
X0103752Y0189050D01*
X0104486Y0189784D01*
X0104486Y0190518D01*
X0103752Y0191252D01*
X0101550Y0191252D01*
X0101550Y0189050D02*
X0101550Y0193454D01*
X0103752Y0193454D01*
X0104486Y0192720D01*
X0104486Y0191986D01*
X0103752Y0191252D01*
X0111550Y0191252D02*
X0113018Y0191252D01*
X0114486Y0193454D02*
X0111550Y0193454D01*
X0111550Y0189050D01*
X0114486Y0189050D01*
X0116046Y0209050D02*
X0118982Y0209050D01*
X0120450Y0210518D01*
X0118982Y0211986D01*
X0116046Y0211986D01*
X0116046Y0219179D02*
X0120450Y0219179D01*
X0120450Y0222114D01*
X0119716Y0224243D02*
X0120450Y0224977D01*
X0120450Y0226445D01*
X0119716Y0227179D01*
X0116780Y0227179D01*
X0116046Y0226445D01*
X0116046Y0224977D01*
X0116780Y0224243D01*
X0119716Y0224243D01*
X0119716Y0229307D02*
X0116780Y0229307D01*
X0116046Y0230041D01*
X0116046Y0231509D01*
X0116780Y0232243D01*
X0118248Y0232243D02*
X0118248Y0230775D01*
X0118248Y0232243D02*
X0119716Y0232243D01*
X0120450Y0231509D01*
X0120450Y0230041D01*
X0119716Y0229307D01*
X0126780Y0222114D02*
X0126046Y0221381D01*
X0126046Y0219179D01*
X0130450Y0219179D01*
X0130450Y0221381D01*
X0129716Y0222114D01*
X0126780Y0222114D01*
X0126046Y0217050D02*
X0130450Y0217050D01*
X0126046Y0214114D01*
X0130450Y0214114D01*
X0129716Y0211986D02*
X0128248Y0211986D01*
X0128248Y0210518D01*
X0126780Y0211986D02*
X0126046Y0211252D01*
X0126046Y0209784D01*
X0126780Y0209050D01*
X0129716Y0209050D01*
X0130450Y0209784D01*
X0130450Y0211252D01*
X0129716Y0211986D01*
X0110450Y0211252D02*
X0110450Y0209784D01*
X0109716Y0209050D01*
X0108248Y0210518D02*
X0108248Y0211252D01*
X0108982Y0211986D01*
X0109716Y0211986D01*
X0110450Y0211252D01*
X0108982Y0214114D02*
X0110450Y0215582D01*
X0108982Y0217050D01*
X0106046Y0217050D01*
X0106780Y0219179D02*
X0106046Y0219913D01*
X0106046Y0221381D01*
X0106780Y0222114D01*
X0107514Y0222114D01*
X0108248Y0221381D01*
X0108982Y0222114D01*
X0109716Y0222114D01*
X0110450Y0221381D01*
X0110450Y0219913D01*
X0109716Y0219179D01*
X0108248Y0220647D02*
X0108248Y0221381D01*
X0108982Y0214114D02*
X0106046Y0214114D01*
X0106780Y0211986D02*
X0107514Y0211986D01*
X0108248Y0211252D01*
X0106780Y0211986D02*
X0106046Y0211252D01*
X0106046Y0209784D01*
X0106780Y0209050D01*
X0100450Y0209784D02*
X0099716Y0209050D01*
X0100450Y0209784D02*
X0100450Y0211252D01*
X0099716Y0211986D01*
X0098248Y0211986D01*
X0097514Y0211252D01*
X0097514Y0210518D01*
X0098248Y0209050D01*
X0096046Y0209050D01*
X0096046Y0211986D01*
X0096046Y0214114D02*
X0098982Y0214114D01*
X0100450Y0215582D01*
X0098982Y0217050D01*
X0096046Y0217050D01*
X0096046Y0224243D02*
X0096046Y0225711D01*
X0096046Y0224977D02*
X0100450Y0224977D01*
X0100450Y0224243D02*
X0100450Y0225711D01*
X0100450Y0227619D02*
X0096046Y0227619D01*
X0100450Y0230555D01*
X0096046Y0230555D01*
X0106046Y0230775D02*
X0106046Y0229307D01*
X0106046Y0230041D02*
X0110450Y0230041D01*
X0110450Y0229307D02*
X0110450Y0230775D01*
X0110450Y0232684D02*
X0106046Y0232684D01*
X0110450Y0235619D01*
X0106046Y0235619D01*
X0085450Y0231381D02*
X0085450Y0229179D01*
X0081046Y0229179D01*
X0081046Y0231381D01*
X0081780Y0232114D01*
X0084716Y0232114D01*
X0085450Y0231381D01*
X0085450Y0227050D02*
X0081046Y0227050D01*
X0081046Y0224114D02*
X0085450Y0227050D01*
X0085450Y0224114D02*
X0081046Y0224114D01*
X0081780Y0221986D02*
X0081046Y0221252D01*
X0081046Y0219784D01*
X0081780Y0219050D01*
X0084716Y0219050D01*
X0085450Y0219784D01*
X0085450Y0221252D01*
X0084716Y0221986D01*
X0083248Y0221986D01*
X0083248Y0220518D01*
X0075450Y0219784D02*
X0075450Y0221252D01*
X0074716Y0221986D01*
X0073248Y0221986D01*
X0073248Y0220518D01*
X0071780Y0221986D02*
X0071046Y0221252D01*
X0071046Y0219784D01*
X0071780Y0219050D01*
X0074716Y0219050D01*
X0075450Y0219784D01*
X0075450Y0224114D02*
X0071046Y0224114D01*
X0075450Y0227050D01*
X0071046Y0227050D01*
X0071046Y0229179D02*
X0071046Y0231381D01*
X0071780Y0232114D01*
X0074716Y0232114D01*
X0075450Y0231381D01*
X0075450Y0229179D01*
X0071046Y0229179D01*
X0065450Y0229179D02*
X0065450Y0231381D01*
X0064716Y0232114D01*
X0061780Y0232114D01*
X0061046Y0231381D01*
X0061046Y0229179D01*
X0065450Y0229179D01*
X0065450Y0227050D02*
X0061046Y0227050D01*
X0061046Y0224114D02*
X0065450Y0227050D01*
X0065450Y0224114D02*
X0061046Y0224114D01*
X0061780Y0221986D02*
X0061046Y0221252D01*
X0061046Y0219784D01*
X0061780Y0219050D01*
X0064716Y0219050D01*
X0065450Y0219784D01*
X0065450Y0221252D01*
X0064716Y0221986D01*
X0063248Y0221986D01*
X0063248Y0220518D01*
X0055450Y0219784D02*
X0055450Y0221252D01*
X0054716Y0221986D01*
X0053248Y0221986D01*
X0053248Y0220518D01*
X0051780Y0221986D02*
X0051046Y0221252D01*
X0051046Y0219784D01*
X0051780Y0219050D01*
X0054716Y0219050D01*
X0055450Y0219784D01*
X0055450Y0224114D02*
X0051046Y0224114D01*
X0055450Y0227050D01*
X0051046Y0227050D01*
X0051046Y0229179D02*
X0051046Y0231381D01*
X0051780Y0232114D01*
X0054716Y0232114D01*
X0055450Y0231381D01*
X0055450Y0229179D01*
X0051046Y0229179D01*
X0094050Y0170954D02*
X0094050Y0166550D01*
X0096986Y0166550D01*
X0095518Y0168752D02*
X0094050Y0168752D01*
X0094050Y0170954D02*
X0096986Y0170954D01*
X0116550Y0163454D02*
X0116550Y0161252D01*
X0118018Y0161986D01*
X0118752Y0161986D01*
X0119486Y0161252D01*
X0119486Y0159784D01*
X0118752Y0159050D01*
X0117284Y0159050D01*
X0116550Y0159784D01*
X0116550Y0163454D02*
X0119486Y0163454D01*
X0121614Y0163454D02*
X0121614Y0160518D01*
X0123082Y0159050D01*
X0124550Y0160518D01*
X0124550Y0163454D01*
X0124550Y0153454D02*
X0124550Y0150518D01*
X0123082Y0149050D01*
X0121614Y0150518D01*
X0121614Y0153454D01*
X0119486Y0153454D02*
X0116550Y0153454D01*
X0116550Y0151252D01*
X0118018Y0151986D01*
X0118752Y0151986D01*
X0119486Y0151252D01*
X0119486Y0149784D01*
X0118752Y0149050D01*
X0117284Y0149050D01*
X0116550Y0149784D01*
X0116550Y0143454D02*
X0116550Y0141252D01*
X0118018Y0141986D01*
X0118752Y0141986D01*
X0119486Y0141252D01*
X0119486Y0139784D01*
X0118752Y0139050D01*
X0117284Y0139050D01*
X0116550Y0139784D01*
X0116550Y0143454D02*
X0119486Y0143454D01*
X0121614Y0143454D02*
X0121614Y0140518D01*
X0123082Y0139050D01*
X0124550Y0140518D01*
X0124550Y0143454D01*
X0124550Y0133454D02*
X0124550Y0130518D01*
X0123082Y0129050D01*
X0121614Y0130518D01*
X0121614Y0133454D01*
X0119486Y0133454D02*
X0116550Y0133454D01*
X0116550Y0131252D01*
X0118018Y0131986D01*
X0118752Y0131986D01*
X0119486Y0131252D01*
X0119486Y0129784D01*
X0118752Y0129050D01*
X0117284Y0129050D01*
X0116550Y0129784D01*
X0116550Y0123454D02*
X0118752Y0123454D01*
X0119486Y0122720D01*
X0119486Y0121252D01*
X0118752Y0120518D01*
X0116550Y0120518D01*
X0116550Y0119050D02*
X0116550Y0123454D01*
X0121614Y0123454D02*
X0121614Y0119050D01*
X0123816Y0119050D01*
X0124550Y0119784D01*
X0124550Y0122720D01*
X0123816Y0123454D01*
X0121614Y0123454D01*
X0126679Y0121252D02*
X0129614Y0121252D01*
X0128881Y0119050D02*
X0128881Y0123454D01*
X0126679Y0121252D01*
X0127413Y0113454D02*
X0128881Y0113454D01*
X0129614Y0112720D01*
X0129614Y0111986D01*
X0128881Y0111252D01*
X0129614Y0110518D01*
X0129614Y0109784D01*
X0128881Y0109050D01*
X0127413Y0109050D01*
X0126679Y0109784D01*
X0128147Y0111252D02*
X0128881Y0111252D01*
X0126679Y0112720D02*
X0127413Y0113454D01*
X0124550Y0112720D02*
X0124550Y0109784D01*
X0123816Y0109050D01*
X0121614Y0109050D01*
X0121614Y0113454D01*
X0123816Y0113454D01*
X0124550Y0112720D01*
X0123816Y0103454D02*
X0121614Y0103454D01*
X0121614Y0099050D01*
X0123816Y0099050D01*
X0124550Y0099784D01*
X0124550Y0102720D01*
X0123816Y0103454D01*
X0126679Y0102720D02*
X0127413Y0103454D01*
X0128881Y0103454D01*
X0129614Y0102720D01*
X0129614Y0101986D01*
X0126679Y0099050D01*
X0129614Y0099050D01*
X0128147Y0093454D02*
X0126679Y0091986D01*
X0128147Y0093454D02*
X0128147Y0089050D01*
X0129614Y0089050D02*
X0126679Y0089050D01*
X0124550Y0089784D02*
X0124550Y0092720D01*
X0123816Y0093454D01*
X0121614Y0093454D01*
X0121614Y0089050D01*
X0123816Y0089050D01*
X0124550Y0089784D01*
X0127413Y0083454D02*
X0126679Y0082720D01*
X0127413Y0083454D02*
X0128881Y0083454D01*
X0129614Y0082720D01*
X0129614Y0081986D01*
X0128881Y0081252D01*
X0129614Y0080518D01*
X0129614Y0079784D01*
X0128881Y0079050D01*
X0127413Y0079050D01*
X0126679Y0079784D01*
X0128147Y0081252D02*
X0128881Y0081252D01*
X0124550Y0081986D02*
X0123082Y0079050D01*
X0121614Y0081986D01*
X0119486Y0081986D02*
X0118752Y0081252D01*
X0119486Y0080518D01*
X0119486Y0079784D01*
X0118752Y0079050D01*
X0117284Y0079050D01*
X0116550Y0079784D01*
X0118018Y0081252D02*
X0118752Y0081252D01*
X0119486Y0081986D02*
X0119486Y0082720D01*
X0118752Y0083454D01*
X0117284Y0083454D01*
X0116550Y0082720D01*
X0116550Y0089050D02*
X0116550Y0093454D01*
X0118752Y0093454D01*
X0119486Y0092720D01*
X0119486Y0091252D01*
X0118752Y0090518D01*
X0116550Y0090518D01*
X0116550Y0099050D02*
X0116550Y0103454D01*
X0118752Y0103454D01*
X0119486Y0102720D01*
X0119486Y0101252D01*
X0118752Y0100518D01*
X0116550Y0100518D01*
X0116550Y0109050D02*
X0116550Y0113454D01*
X0118752Y0113454D01*
X0119486Y0112720D01*
X0119486Y0111252D01*
X0118752Y0110518D01*
X0116550Y0110518D01*
X0117284Y0073454D02*
X0116550Y0072720D01*
X0117284Y0073454D02*
X0118752Y0073454D01*
X0119486Y0072720D01*
X0119486Y0071986D01*
X0118752Y0071252D01*
X0119486Y0070518D01*
X0119486Y0069784D01*
X0118752Y0069050D01*
X0117284Y0069050D01*
X0116550Y0069784D01*
X0118018Y0071252D02*
X0118752Y0071252D01*
X0121614Y0071986D02*
X0123082Y0069050D01*
X0124550Y0071986D01*
X0126679Y0072720D02*
X0127413Y0073454D01*
X0128881Y0073454D01*
X0129614Y0072720D01*
X0129614Y0071986D01*
X0128881Y0071252D01*
X0129614Y0070518D01*
X0129614Y0069784D01*
X0128881Y0069050D01*
X0127413Y0069050D01*
X0126679Y0069784D01*
X0128147Y0071252D02*
X0128881Y0071252D01*
X0128881Y0063454D02*
X0127413Y0063454D01*
X0126679Y0062720D01*
X0128147Y0061252D02*
X0128881Y0061252D01*
X0129614Y0060518D01*
X0129614Y0059784D01*
X0128881Y0059050D01*
X0127413Y0059050D01*
X0126679Y0059784D01*
X0124550Y0061986D02*
X0123082Y0059050D01*
X0121614Y0061986D01*
X0119486Y0061986D02*
X0118752Y0061252D01*
X0119486Y0060518D01*
X0119486Y0059784D01*
X0118752Y0059050D01*
X0117284Y0059050D01*
X0116550Y0059784D01*
X0118018Y0061252D02*
X0118752Y0061252D01*
X0119486Y0061986D02*
X0119486Y0062720D01*
X0118752Y0063454D01*
X0117284Y0063454D01*
X0116550Y0062720D01*
X0117284Y0053454D02*
X0118752Y0053454D01*
X0119486Y0052720D01*
X0119486Y0051986D01*
X0118752Y0051252D01*
X0119486Y0050518D01*
X0119486Y0049784D01*
X0118752Y0049050D01*
X0117284Y0049050D01*
X0116550Y0049784D01*
X0118018Y0051252D02*
X0118752Y0051252D01*
X0116550Y0052720D02*
X0117284Y0053454D01*
X0121614Y0051986D02*
X0123082Y0049050D01*
X0124550Y0051986D01*
X0126679Y0052720D02*
X0127413Y0053454D01*
X0128881Y0053454D01*
X0129614Y0052720D01*
X0129614Y0051986D01*
X0128881Y0051252D01*
X0129614Y0050518D01*
X0129614Y0049784D01*
X0128881Y0049050D01*
X0127413Y0049050D01*
X0126679Y0049784D01*
X0128147Y0051252D02*
X0128881Y0051252D01*
X0128881Y0043454D02*
X0126679Y0043454D01*
X0126679Y0039050D01*
X0128881Y0039050D01*
X0129614Y0039784D01*
X0129614Y0042720D01*
X0128881Y0043454D01*
X0124550Y0043454D02*
X0124550Y0039050D01*
X0121614Y0043454D01*
X0121614Y0039050D01*
X0119486Y0039784D02*
X0119486Y0041252D01*
X0118018Y0041252D01*
X0119486Y0042720D02*
X0118752Y0043454D01*
X0117284Y0043454D01*
X0116550Y0042720D01*
X0116550Y0039784D01*
X0117284Y0039050D01*
X0118752Y0039050D01*
X0119486Y0039784D01*
X0118752Y0033454D02*
X0117284Y0033454D01*
X0116550Y0032720D01*
X0116550Y0029784D01*
X0117284Y0029050D01*
X0118752Y0029050D01*
X0119486Y0029784D01*
X0119486Y0031252D01*
X0118018Y0031252D01*
X0119486Y0032720D02*
X0118752Y0033454D01*
X0121614Y0033454D02*
X0121614Y0029050D01*
X0124550Y0029050D02*
X0121614Y0033454D01*
X0124550Y0033454D02*
X0124550Y0029050D01*
X0126679Y0029050D02*
X0126679Y0033454D01*
X0128881Y0033454D01*
X0129614Y0032720D01*
X0129614Y0029784D01*
X0128881Y0029050D01*
X0126679Y0029050D01*
X0126679Y0023454D02*
X0128881Y0023454D01*
X0129614Y0022720D01*
X0129614Y0019784D01*
X0128881Y0019050D01*
X0126679Y0019050D01*
X0126679Y0023454D01*
X0124550Y0023454D02*
X0124550Y0019050D01*
X0121614Y0023454D01*
X0121614Y0019050D01*
X0119486Y0019784D02*
X0118752Y0019050D01*
X0117284Y0019050D01*
X0116550Y0019784D01*
X0116550Y0022720D01*
X0117284Y0023454D01*
X0118752Y0023454D01*
X0119486Y0022720D01*
X0119486Y0021252D02*
X0118018Y0021252D01*
X0119486Y0021252D02*
X0119486Y0019784D01*
X0118752Y0013454D02*
X0117284Y0013454D01*
X0116550Y0012720D01*
X0116550Y0009784D01*
X0117284Y0009050D01*
X0118752Y0009050D01*
X0119486Y0009784D01*
X0119486Y0011252D01*
X0118018Y0011252D01*
X0119486Y0012720D02*
X0118752Y0013454D01*
X0121614Y0013454D02*
X0121614Y0009050D01*
X0124550Y0009050D02*
X0121614Y0013454D01*
X0124550Y0013454D02*
X0124550Y0009050D01*
X0126679Y0009050D02*
X0128881Y0009050D01*
X0129614Y0009784D01*
X0129614Y0012720D01*
X0128881Y0013454D01*
X0126679Y0013454D01*
X0126679Y0009050D01*
X0128881Y0061252D02*
X0129614Y0061986D01*
X0129614Y0062720D01*
X0128881Y0063454D01*
D13*
X0030750Y0030126D02*
X0026246Y0030126D01*
X0026246Y0034730D02*
X0027747Y0036232D01*
X0026246Y0037733D01*
X0030750Y0037733D01*
X0029999Y0039334D02*
X0030750Y0040085D01*
X0030750Y0041586D01*
X0029999Y0042337D01*
X0029249Y0042337D01*
X0028498Y0041586D01*
X0028498Y0040836D01*
X0028498Y0041586D02*
X0027747Y0042337D01*
X0026997Y0042337D01*
X0026246Y0041586D01*
X0026246Y0040085D01*
X0026997Y0039334D01*
X0026997Y0043938D02*
X0026246Y0044689D01*
X0026246Y0046190D01*
X0026997Y0046941D01*
X0027747Y0046941D01*
X0030750Y0043938D01*
X0030750Y0046941D01*
X0028498Y0048542D02*
X0028498Y0051545D01*
X0026246Y0050794D02*
X0028498Y0048542D01*
X0030750Y0050794D02*
X0026246Y0050794D01*
X0026246Y0053146D02*
X0030750Y0056149D01*
X0026246Y0056149D01*
X0026246Y0053146D02*
X0030750Y0053146D01*
X0030750Y0034730D02*
X0026246Y0034730D01*
X0030750Y0033129D02*
X0030750Y0030126D01*
X0030750Y0100126D02*
X0026246Y0100126D01*
X0026246Y0104730D02*
X0027747Y0106232D01*
X0026246Y0107733D01*
X0030750Y0107733D01*
X0029999Y0109334D02*
X0030750Y0110085D01*
X0030750Y0111586D01*
X0029999Y0112337D01*
X0029249Y0112337D01*
X0028498Y0111586D01*
X0028498Y0110836D01*
X0028498Y0111586D02*
X0027747Y0112337D01*
X0026997Y0112337D01*
X0026246Y0111586D01*
X0026246Y0110085D01*
X0026997Y0109334D01*
X0026997Y0113938D02*
X0026246Y0114689D01*
X0026246Y0116190D01*
X0026997Y0116941D01*
X0027747Y0116941D01*
X0028498Y0116190D01*
X0029249Y0116941D01*
X0029999Y0116941D01*
X0030750Y0116190D01*
X0030750Y0114689D01*
X0029999Y0113938D01*
X0028498Y0115439D02*
X0028498Y0116190D01*
X0027747Y0118542D02*
X0028498Y0119293D01*
X0028498Y0121545D01*
X0026997Y0121545D02*
X0026246Y0120794D01*
X0026246Y0119293D01*
X0026997Y0118542D01*
X0027747Y0118542D01*
X0026997Y0121545D02*
X0029999Y0121545D01*
X0030750Y0120794D01*
X0030750Y0119293D01*
X0029999Y0118542D01*
X0030750Y0123146D02*
X0026246Y0123146D01*
X0030750Y0126149D01*
X0026246Y0126149D01*
X0026246Y0104730D02*
X0030750Y0104730D01*
X0030750Y0103129D02*
X0030750Y0100126D01*
D14*
X0067300Y0097803D02*
X0069635Y0097803D01*
X0068468Y0097803D02*
X0068468Y0094300D01*
X0070891Y0094300D02*
X0070891Y0097803D01*
X0072643Y0097803D01*
X0073226Y0097219D01*
X0073226Y0096051D01*
X0072643Y0095468D01*
X0070891Y0095468D01*
X0072059Y0095468D02*
X0073226Y0094300D01*
X0074482Y0094300D02*
X0074482Y0096635D01*
X0075650Y0097803D01*
X0076817Y0096635D01*
X0076817Y0094300D01*
X0076817Y0096051D02*
X0074482Y0096051D01*
X0074482Y0104300D02*
X0074482Y0106635D01*
X0075650Y0107803D01*
X0076817Y0106635D01*
X0076817Y0104300D01*
X0076817Y0106051D02*
X0074482Y0106051D01*
X0073226Y0106051D02*
X0072643Y0105468D01*
X0070891Y0105468D01*
X0072059Y0105468D02*
X0073226Y0104300D01*
X0073226Y0106051D02*
X0073226Y0107219D01*
X0072643Y0107803D01*
X0070891Y0107803D01*
X0070891Y0104300D01*
X0069635Y0107803D02*
X0067300Y0107803D01*
X0068468Y0107803D02*
X0068468Y0104300D01*
X0068468Y0114300D02*
X0068468Y0117803D01*
X0069635Y0117803D02*
X0067300Y0117803D01*
X0067884Y0124300D02*
X0067300Y0124884D01*
X0067884Y0124300D02*
X0069051Y0124300D01*
X0069635Y0124884D01*
X0069635Y0125468D01*
X0069051Y0126051D01*
X0068468Y0126051D01*
X0069051Y0126051D02*
X0069635Y0126635D01*
X0069635Y0127219D01*
X0069051Y0127803D01*
X0067884Y0127803D01*
X0067300Y0127219D01*
X0067884Y0134300D02*
X0067300Y0134884D01*
X0067884Y0134300D02*
X0069051Y0134300D01*
X0069635Y0134884D01*
X0069635Y0135468D01*
X0069051Y0136051D01*
X0068468Y0136051D01*
X0069051Y0136051D02*
X0069635Y0136635D01*
X0069635Y0137219D01*
X0069051Y0137803D01*
X0067884Y0137803D01*
X0067300Y0137219D01*
X0070891Y0137803D02*
X0070891Y0134300D01*
X0070891Y0135468D02*
X0072643Y0136635D01*
X0073884Y0136051D02*
X0073884Y0137219D01*
X0074467Y0137803D01*
X0075635Y0137803D01*
X0076219Y0137219D01*
X0076219Y0136051D01*
X0075635Y0135468D01*
X0075635Y0134300D01*
X0076219Y0134300D01*
X0074467Y0134300D02*
X0074467Y0135468D01*
X0073884Y0136051D01*
X0073884Y0134300D02*
X0074467Y0134300D01*
X0072643Y0134300D02*
X0070891Y0135468D01*
X0070891Y0127803D02*
X0070891Y0124300D01*
X0070891Y0125468D02*
X0072643Y0126635D01*
X0073884Y0126051D02*
X0073884Y0127219D01*
X0074467Y0127803D01*
X0075635Y0127803D01*
X0076219Y0127219D01*
X0076219Y0126051D01*
X0075635Y0125468D01*
X0075635Y0124300D01*
X0076219Y0124300D01*
X0074467Y0124300D02*
X0074467Y0125468D01*
X0073884Y0126051D01*
X0073884Y0124300D02*
X0074467Y0124300D01*
X0072643Y0124300D02*
X0070891Y0125468D01*
X0070891Y0117803D02*
X0072643Y0117803D01*
X0073226Y0117219D01*
X0073226Y0116051D01*
X0072643Y0115468D01*
X0070891Y0115468D01*
X0072059Y0115468D02*
X0073226Y0114300D01*
X0074482Y0114300D02*
X0074482Y0116635D01*
X0075650Y0117803D01*
X0076817Y0116635D01*
X0076817Y0114300D01*
X0076817Y0116051D02*
X0074482Y0116051D01*
X0070891Y0114300D02*
X0070891Y0117803D01*
X0070891Y0144300D02*
X0070891Y0147803D01*
X0069635Y0147219D02*
X0069635Y0146635D01*
X0069051Y0146051D01*
X0069635Y0145468D01*
X0069635Y0144884D01*
X0069051Y0144300D01*
X0067884Y0144300D01*
X0067300Y0144884D01*
X0068468Y0146051D02*
X0069051Y0146051D01*
X0069635Y0147219D02*
X0069051Y0147803D01*
X0067884Y0147803D01*
X0067300Y0147219D01*
X0070891Y0145468D02*
X0072643Y0146635D01*
X0073884Y0146051D02*
X0073884Y0147219D01*
X0074467Y0147803D01*
X0075635Y0147803D01*
X0076219Y0147219D01*
X0076219Y0146051D01*
X0075635Y0145468D01*
X0075635Y0144300D01*
X0076219Y0144300D01*
X0074467Y0144300D02*
X0074467Y0145468D01*
X0073884Y0146051D01*
X0073884Y0144300D02*
X0074467Y0144300D01*
X0072643Y0144300D02*
X0070891Y0145468D01*
X0070891Y0154300D02*
X0070891Y0157803D01*
X0069635Y0157219D02*
X0069635Y0156635D01*
X0069051Y0156051D01*
X0069635Y0155468D01*
X0069635Y0154884D01*
X0069051Y0154300D01*
X0067884Y0154300D01*
X0067300Y0154884D01*
X0068468Y0156051D02*
X0069051Y0156051D01*
X0069635Y0157219D02*
X0069051Y0157803D01*
X0067884Y0157803D01*
X0067300Y0157219D01*
X0070891Y0155468D02*
X0072643Y0156635D01*
X0073884Y0156051D02*
X0074467Y0155468D01*
X0074467Y0154300D01*
X0073884Y0154300D01*
X0072643Y0154300D02*
X0070891Y0155468D01*
X0073884Y0156051D02*
X0073884Y0157219D01*
X0074467Y0157803D01*
X0075635Y0157803D01*
X0076219Y0157219D01*
X0076219Y0156051D01*
X0075635Y0155468D01*
X0075635Y0154300D01*
X0076219Y0154300D01*
X0066817Y0184300D02*
X0066234Y0184300D01*
X0066234Y0185468D01*
X0066817Y0186051D01*
X0066817Y0187219D01*
X0066234Y0187803D01*
X0065066Y0187803D01*
X0064482Y0187219D01*
X0064482Y0186051D01*
X0065066Y0185468D01*
X0065066Y0184300D01*
X0064482Y0184300D01*
X0063226Y0184884D02*
X0062643Y0184300D01*
X0061475Y0184300D01*
X0060891Y0184884D01*
X0060891Y0185468D01*
X0061475Y0186051D01*
X0062643Y0186051D01*
X0063226Y0185468D01*
X0063226Y0184884D01*
X0062643Y0186051D02*
X0063226Y0186635D01*
X0063226Y0187219D01*
X0062643Y0187803D01*
X0061475Y0187803D01*
X0060891Y0187219D01*
X0060891Y0186635D01*
X0061475Y0186051D01*
X0059635Y0185468D02*
X0059051Y0186051D01*
X0057300Y0186051D01*
X0057300Y0184884D01*
X0057884Y0184300D01*
X0059051Y0184300D01*
X0059635Y0184884D01*
X0059635Y0185468D01*
X0058468Y0187219D02*
X0059635Y0187803D01*
X0058468Y0187219D02*
X0057300Y0186051D01*
X0057884Y0194300D02*
X0059051Y0194300D01*
X0059635Y0194884D01*
X0059635Y0195468D01*
X0059051Y0196051D01*
X0057300Y0196051D01*
X0057300Y0194884D01*
X0057884Y0194300D01*
X0057300Y0196051D02*
X0058468Y0197219D01*
X0059635Y0197803D01*
X0060891Y0197219D02*
X0060891Y0196635D01*
X0061475Y0196051D01*
X0062643Y0196051D01*
X0063226Y0195468D01*
X0063226Y0194884D01*
X0062643Y0194300D01*
X0061475Y0194300D01*
X0060891Y0194884D01*
X0060891Y0195468D01*
X0061475Y0196051D01*
X0062643Y0196051D02*
X0063226Y0196635D01*
X0063226Y0197219D01*
X0062643Y0197803D01*
X0061475Y0197803D01*
X0060891Y0197219D01*
X0064482Y0197219D02*
X0064482Y0196051D01*
X0065066Y0195468D01*
X0065066Y0194300D01*
X0064482Y0194300D01*
X0066234Y0194300D02*
X0066234Y0195468D01*
X0066817Y0196051D01*
X0066817Y0197219D01*
X0066234Y0197803D01*
X0065066Y0197803D01*
X0064482Y0197219D01*
X0066234Y0194300D02*
X0066817Y0194300D01*
X0026817Y0194300D02*
X0026234Y0194300D01*
X0026234Y0195468D01*
X0026817Y0196051D01*
X0026817Y0197219D01*
X0026234Y0197803D01*
X0025066Y0197803D01*
X0024482Y0197219D01*
X0024482Y0196051D01*
X0025066Y0195468D01*
X0025066Y0194300D01*
X0024482Y0194300D01*
X0023226Y0194884D02*
X0022643Y0194300D01*
X0021475Y0194300D01*
X0020891Y0194884D01*
X0020891Y0195468D01*
X0021475Y0196051D01*
X0022643Y0196051D01*
X0023226Y0195468D01*
X0023226Y0194884D01*
X0022643Y0196051D02*
X0023226Y0196635D01*
X0023226Y0197219D01*
X0022643Y0197803D01*
X0021475Y0197803D01*
X0020891Y0197219D01*
X0020891Y0196635D01*
X0021475Y0196051D01*
X0019635Y0195468D02*
X0019051Y0196051D01*
X0017300Y0196051D01*
X0017300Y0194884D01*
X0017884Y0194300D01*
X0019051Y0194300D01*
X0019635Y0194884D01*
X0019635Y0195468D01*
X0018468Y0197219D02*
X0017300Y0196051D01*
X0018468Y0197219D02*
X0019635Y0197803D01*
X0019635Y0187803D02*
X0018468Y0187219D01*
X0017300Y0186051D01*
X0019051Y0186051D01*
X0019635Y0185468D01*
X0019635Y0184884D01*
X0019051Y0184300D01*
X0017884Y0184300D01*
X0017300Y0184884D01*
X0017300Y0186051D01*
X0020891Y0185468D02*
X0021475Y0186051D01*
X0022643Y0186051D01*
X0023226Y0185468D01*
X0023226Y0184884D01*
X0022643Y0184300D01*
X0021475Y0184300D01*
X0020891Y0184884D01*
X0020891Y0185468D01*
X0021475Y0186051D02*
X0020891Y0186635D01*
X0020891Y0187219D01*
X0021475Y0187803D01*
X0022643Y0187803D01*
X0023226Y0187219D01*
X0023226Y0186635D01*
X0022643Y0186051D01*
X0024482Y0186051D02*
X0024482Y0187219D01*
X0025066Y0187803D01*
X0026234Y0187803D01*
X0026817Y0187219D01*
X0026817Y0186051D01*
X0026234Y0185468D01*
X0026234Y0184300D01*
X0026817Y0184300D01*
X0025066Y0184300D02*
X0025066Y0185468D01*
X0024482Y0186051D01*
X0024482Y0184300D02*
X0025066Y0184300D01*
X0067300Y0087803D02*
X0069635Y0087803D01*
X0068468Y0087803D02*
X0068468Y0084300D01*
X0070891Y0084300D02*
X0070891Y0087803D01*
X0072643Y0087803D01*
X0073226Y0087219D01*
X0073226Y0086051D01*
X0072643Y0085468D01*
X0070891Y0085468D01*
X0072059Y0085468D02*
X0073226Y0084300D01*
X0074482Y0084300D02*
X0074482Y0086635D01*
X0075650Y0087803D01*
X0076817Y0086635D01*
X0076817Y0084300D01*
X0076817Y0086051D02*
X0074482Y0086051D01*
X0075066Y0077803D02*
X0074482Y0077219D01*
X0074482Y0076051D01*
X0075066Y0075468D01*
X0075066Y0074300D01*
X0074482Y0074300D01*
X0073226Y0074884D02*
X0072643Y0074300D01*
X0071475Y0074300D01*
X0070891Y0074884D01*
X0070891Y0075468D01*
X0071475Y0076051D01*
X0072643Y0076051D01*
X0073226Y0075468D01*
X0073226Y0074884D01*
X0072643Y0076051D02*
X0073226Y0076635D01*
X0073226Y0077219D01*
X0072643Y0077803D01*
X0071475Y0077803D01*
X0070891Y0077219D01*
X0070891Y0076635D01*
X0071475Y0076051D01*
X0069635Y0075468D02*
X0069051Y0076051D01*
X0067300Y0076051D01*
X0067300Y0074884D01*
X0067884Y0074300D01*
X0069051Y0074300D01*
X0069635Y0074884D01*
X0069635Y0075468D01*
X0068468Y0077219D02*
X0067300Y0076051D01*
X0068468Y0077219D02*
X0069635Y0077803D01*
X0075066Y0077803D02*
X0076234Y0077803D01*
X0076817Y0077219D01*
X0076817Y0076051D01*
X0076234Y0075468D01*
X0076234Y0074300D01*
X0076817Y0074300D01*
X0076234Y0067803D02*
X0075066Y0067803D01*
X0074482Y0067219D01*
X0074482Y0066051D01*
X0075066Y0065468D01*
X0075066Y0064300D01*
X0074482Y0064300D01*
X0073226Y0064884D02*
X0072643Y0064300D01*
X0071475Y0064300D01*
X0070891Y0064884D01*
X0070891Y0065468D01*
X0071475Y0066051D01*
X0072643Y0066051D01*
X0073226Y0065468D01*
X0073226Y0064884D01*
X0072643Y0066051D02*
X0073226Y0066635D01*
X0073226Y0067219D01*
X0072643Y0067803D01*
X0071475Y0067803D01*
X0070891Y0067219D01*
X0070891Y0066635D01*
X0071475Y0066051D01*
X0069635Y0065468D02*
X0069051Y0066051D01*
X0067300Y0066051D01*
X0067300Y0064884D01*
X0067884Y0064300D01*
X0069051Y0064300D01*
X0069635Y0064884D01*
X0069635Y0065468D01*
X0068468Y0067219D02*
X0067300Y0066051D01*
X0068468Y0067219D02*
X0069635Y0067803D01*
X0069635Y0057803D02*
X0068468Y0057219D01*
X0067300Y0056051D01*
X0069051Y0056051D01*
X0069635Y0055468D01*
X0069635Y0054884D01*
X0069051Y0054300D01*
X0067884Y0054300D01*
X0067300Y0054884D01*
X0067300Y0056051D01*
X0070891Y0055468D02*
X0070891Y0054884D01*
X0071475Y0054300D01*
X0072643Y0054300D01*
X0073226Y0054884D01*
X0073226Y0055468D01*
X0072643Y0056051D01*
X0071475Y0056051D01*
X0070891Y0056635D01*
X0070891Y0057219D01*
X0071475Y0057803D01*
X0072643Y0057803D01*
X0073226Y0057219D01*
X0073226Y0056635D01*
X0072643Y0056051D01*
X0071475Y0056051D02*
X0070891Y0055468D01*
X0074482Y0056051D02*
X0074482Y0057219D01*
X0075066Y0057803D01*
X0076234Y0057803D01*
X0076817Y0057219D01*
X0076817Y0056051D01*
X0076234Y0055468D01*
X0076234Y0054300D01*
X0076817Y0054300D01*
X0075066Y0054300D02*
X0075066Y0055468D01*
X0074482Y0056051D01*
X0074482Y0054300D02*
X0075066Y0054300D01*
X0075066Y0047803D02*
X0074482Y0047219D01*
X0074482Y0046051D01*
X0075066Y0045468D01*
X0075066Y0044300D01*
X0074482Y0044300D01*
X0073226Y0044884D02*
X0072643Y0044300D01*
X0071475Y0044300D01*
X0070891Y0044884D01*
X0070891Y0045468D01*
X0071475Y0046051D01*
X0072643Y0046051D01*
X0073226Y0045468D01*
X0073226Y0044884D01*
X0072643Y0046051D02*
X0073226Y0046635D01*
X0073226Y0047219D01*
X0072643Y0047803D01*
X0071475Y0047803D01*
X0070891Y0047219D01*
X0070891Y0046635D01*
X0071475Y0046051D01*
X0069635Y0045468D02*
X0069051Y0046051D01*
X0067300Y0046051D01*
X0067300Y0044884D01*
X0067884Y0044300D01*
X0069051Y0044300D01*
X0069635Y0044884D01*
X0069635Y0045468D01*
X0068468Y0047219D02*
X0067300Y0046051D01*
X0068468Y0047219D02*
X0069635Y0047803D01*
X0075066Y0047803D02*
X0076234Y0047803D01*
X0076817Y0047219D01*
X0076817Y0046051D01*
X0076234Y0045468D01*
X0076234Y0044300D01*
X0076817Y0044300D01*
X0075635Y0037803D02*
X0074467Y0037803D01*
X0073884Y0037219D01*
X0073884Y0036051D01*
X0074467Y0035468D01*
X0074467Y0034300D01*
X0073884Y0034300D01*
X0072643Y0034300D02*
X0070891Y0035468D01*
X0072643Y0036635D01*
X0070891Y0037803D02*
X0070891Y0034300D01*
X0069635Y0034884D02*
X0069051Y0034300D01*
X0067884Y0034300D01*
X0067300Y0034884D01*
X0068468Y0036051D02*
X0069051Y0036051D01*
X0069635Y0035468D01*
X0069635Y0034884D01*
X0069051Y0036051D02*
X0069635Y0036635D01*
X0069635Y0037219D01*
X0069051Y0037803D01*
X0067884Y0037803D01*
X0067300Y0037219D01*
X0067884Y0027803D02*
X0067300Y0027219D01*
X0067884Y0027803D02*
X0069051Y0027803D01*
X0069635Y0027219D01*
X0069635Y0026635D01*
X0069051Y0026051D01*
X0069635Y0025468D01*
X0069635Y0024884D01*
X0069051Y0024300D01*
X0067884Y0024300D01*
X0067300Y0024884D01*
X0068468Y0026051D02*
X0069051Y0026051D01*
X0070891Y0025468D02*
X0072643Y0026635D01*
X0073884Y0026051D02*
X0073884Y0027219D01*
X0074467Y0027803D01*
X0075635Y0027803D01*
X0076219Y0027219D01*
X0076219Y0026051D01*
X0075635Y0025468D01*
X0075635Y0024300D01*
X0076219Y0024300D01*
X0074467Y0024300D02*
X0074467Y0025468D01*
X0073884Y0026051D01*
X0073884Y0024300D02*
X0074467Y0024300D01*
X0072643Y0024300D02*
X0070891Y0025468D01*
X0070891Y0024300D02*
X0070891Y0027803D01*
X0075635Y0034300D02*
X0076219Y0034300D01*
X0075635Y0034300D02*
X0075635Y0035468D01*
X0076219Y0036051D01*
X0076219Y0037219D01*
X0075635Y0037803D01*
X0076234Y0064300D02*
X0076817Y0064300D01*
X0076234Y0064300D02*
X0076234Y0065468D01*
X0076817Y0066051D01*
X0076817Y0067219D01*
X0076234Y0067803D01*
M02*
